<svg xmlns="http://www.w3.org/2000/svg" width="50.58" height="55" viewBox="0 0 50.58 55">
  <g id="Group_14017" data-name="Group 14017" transform="translate(-36 -143)">
    <path id="back" d="M52.691,44.851a7.226,7.226,0,0,1-2.959,2.909C44.8,50.531,39.273,53.685,32.825,57.4a8.491,8.491,0,0,1-4.634,1.014,8.632,8.632,0,0,1-3.82-1.21c-2.8-1.611-5.641-3.21-8.39-4.755l-.178-.1c-2.711-1.524-5.514-3.1-8.209-4.653A8.191,8.191,0,0,1,3.78,42.842,6.009,6.009,0,0,1,3.4,40.587V21.311a7.8,7.8,0,0,1,4.2-7.177c2.617-1.545,5.329-3.083,7.951-4.571,1.428-.81,2.851-1.617,4.257-2.425.806-.463,1.614-.909,2.42-1.356s1.608-.889,2.417-1.354a7.2,7.2,0,0,1,3.918-1.008h.387a8.545,8.545,0,0,1,3.937,1.142c2.819,1.65,5.683,3.261,8.46,4.822S46.979,12.552,49.8,14.2a8.232,8.232,0,0,1,3.8,4.958,7.55,7.55,0,0,1,.321,2.149l.056,20.069a7.616,7.616,0,0,1-1.29,3.472" transform="translate(32.599 139.579)" fill="#d58100"/>
    <g id="warning" transform="translate(48.1 135.265)">
      <g id="Group_12206" data-name="Group 12206" transform="translate(0 20.882)">
        <path id="Path_11207" data-name="Path 11207" d="M219.581,333.382a1.356,1.356,0,1,0,0,2.712,1.356,1.356,0,0,0,0-2.712Z" transform="translate(-206.39 -316.435)" fill="#fff"/>
        <path id="Path_11208" data-name="Path 11208" d="M25.739,42.634a4.63,4.63,0,0,0,.011-4.686L17.257,23.241a4.679,4.679,0,0,0-8.124-.005L.63,37.959A4.7,4.7,0,0,0,4.7,45H21.661A4.67,4.67,0,0,0,25.739,42.634ZM23.9,41.571a2.563,2.563,0,0,1-2.24,1.3H4.692A2.528,2.528,0,0,1,2.479,41.6a2.566,2.566,0,0,1-.005-2.587l8.5-14.718a2.554,2.554,0,0,1,4.436.005l8.5,14.718A2.532,2.532,0,0,1,23.9,41.571Z" transform="translate(0 -20.882)" fill="#fff"/>
        <path id="Path_11209" data-name="Path 11209" d="M218.772,157.214a1.474,1.474,0,0,0-1.047,1.481c.033.428.06.862.092,1.291.092,1.632.184,3.232.277,4.865a.993.993,0,0,0,1.014.954,1.014,1.014,0,0,0,1.014-.987c0-.336,0-.645.033-.987.06-1.047.125-2.093.184-3.14.033-.678.092-1.356.125-2.034a1.675,1.675,0,0,0-.125-.678A1.359,1.359,0,0,0,218.772,157.214Z" transform="translate(-205.917 -149.785)" fill="#fff"/>
      </g>
    </g>
  </g>
</svg>
