<svg xmlns="http://www.w3.org/2000/svg" width="23.655" height="119.615" viewBox="0 0 23.655 119.615">
  <g id="Group_14010" data-name="Group 14010" transform="translate(-1852.253 -219.675)">
    <path id="Path_1690" data-name="Path 1690" d="M16.045,8.73a2,2,0,0,1,3.9,0l1.958,8.757a2,2,0,0,0,.617,1.053l6.624,5.937a2,2,0,0,1-1.93,3.4l-8.625-2.69a2,2,0,0,0-1.191,0l-8.625,2.69a2,2,0,0,1-1.93-3.4l6.624-5.937a2,2,0,0,0,.617-1.053Z" transform="translate(1882.078 346.456) rotate(-180)" fill="#a1adc8"/>
    <path id="Path_1688" data-name="Path 1688" d="M1425.415,220.675v91.076" transform="translate(438.667)" fill="none" stroke="#a1adc8" stroke-linecap="round" stroke-width="2" stroke-dasharray="22 17"/>
  </g>
</svg>
