<svg xmlns="http://www.w3.org/2000/svg" width="36.549" height="42.851" viewBox="0 0 36.549 42.851">
  <g id="beauty" opacity="0.9">
    <g id="Group_122" data-name="Group 122">
      <path id="Path_226" data-name="Path 226" d="M36.136,40.474l-6.754-6.754a11.883,11.883,0,0,0-1.94-17.031l.444-4.355A16.178,16.178,0,0,0,29.446,5.1c0-2.788-1.92-5.056-4.279-5.056h-4.5c-2.36,0-4.28,2.268-4.28,5.056a16.187,16.187,0,0,0,1.561,7.236l.206,2.018a11.884,11.884,0,0,0-5.787,2.7v-.383a2.567,2.567,0,0,0-1.553-2.394V1.136a1.251,1.251,0,0,0-.53-.965A1.013,1.013,0,0,0,9.186.151L3.827,2.792a2.661,2.661,0,0,0-1.5,2.382v9.02A2.569,2.569,0,0,0,.777,16.588V19.4A2.574,2.574,0,0,0,0,21.247V39.882a2.621,2.621,0,0,0,2.649,2.649h7.765a2.62,2.62,0,0,0,2.649-2.649V35.817a11.954,11.954,0,0,0,14.324-.164l6.784,6.784.013.012a1.389,1.389,0,1,0,1.952-1.977M20.349,14.187,20.24,13.1h5.35l-.229,2.291a11.949,11.949,0,0,0-5.013-1.207m-.642-3.276a15.166,15.166,0,0,1-1.131-5.892c0-1.51.956-2.787,2.087-2.787h4.5c1.131,0,2.087,1.276,2.087,2.787V5.1a14.953,14.953,0,0,1-1.13,5.814ZM4.6,14.017V5.174a.426.426,0,0,1,.29-.413L8.619,2.9V14.017ZM3.046,18.676V16.666a.416.416,0,0,1,.457-.457H9.715a.416.416,0,0,1,.457.457v2.009Zm7.9,21.284a.416.416,0,0,1-.457.457H2.727a.415.415,0,0,1-.456-.457V21.325a.416.416,0,0,1,.456-.457H9.4a12.006,12.006,0,0,0,1.549,12.971Zm15.694-7.312a9.117,9.117,0,0,1-6.519,2.709A9.227,9.227,0,0,1,13.605,19.61,9.116,9.116,0,0,1,20.124,16.9a9.227,9.227,0,0,1,6.519,15.746" transform="translate(0 0)" fill="#fff"/>
    </g>
  </g>
</svg>
