<svg xmlns="http://www.w3.org/2000/svg" width="39.234" height="42.5" viewBox="0 0 39.234 42.5">
  <path id="email" d="M19.088,42.5a8.1,8.1,0,0,1-3.758-1.15c-1.806-1.052-3.675-2.141-5.572-3.219C8.823,37.6,7.9,37.069,6.976,36.537c-.943-.542-1.886-1.084-2.84-1.627A8.454,8.454,0,0,1,.392,30.182a7.652,7.652,0,0,1-.372-2.4V23.443c0-.949,0-1.908-.01-2.871C0,18.65-.01,16.663.02,14.718A7.975,7.975,0,0,1,4.131,7.6C7.055,5.88,9.825,4.284,12.366,2.851c.627-.38,1.29-.754,1.931-1.115.419-.236.839-.474,1.259-.718A7.914,7.914,0,0,1,19.9,0a8.342,8.342,0,0,1,3.881,1.1c1.892,1.12,3.812,2.212,5.669,3.267S33.23,6.52,35.122,7.64A8.182,8.182,0,0,1,38.909,12.5v0a7.442,7.442,0,0,1,.325,2.169V28.051a7.52,7.52,0,0,1-1.2,3.915,7.718,7.718,0,0,1-3.009,2.947c-3.845,2.212-7.747,4.47-11.283,6.528a7.881,7.881,0,0,1-4.026,1.06ZM16.866,3.326c-.542.315-1.081.617-1.62.918s-1.081.605-1.622.919q-1.415.82-2.853,1.643C9.014,7.814,7.2,8.856,5.442,9.9a5.3,5.3,0,0,0-2.814,4.863V27.827a4.1,4.1,0,0,0,.255,1.527,5.541,5.541,0,0,0,2.555,3.289c1.806,1.051,3.685,2.12,5.5,3.152l.12.068c1.842,1.047,3.748,2.13,5.623,3.222a5.745,5.745,0,0,0,2.561.82,5.641,5.641,0,0,0,3.106-.687c4.322-2.517,8.029-4.654,11.332-6.532a4.869,4.869,0,0,0,1.983-1.971,5.2,5.2,0,0,0,.864-2.352l-.038-13.6a5.187,5.187,0,0,0-.215-1.456,5.571,5.571,0,0,0-2.55-3.36c-1.891-1.119-3.81-2.21-5.667-3.265S24.28,4.536,22.39,3.417a5.683,5.683,0,0,0-2.639-.774h-.259A4.784,4.784,0,0,0,16.866,3.326ZM11.082,28.794a2.32,2.32,0,0,1-2.319-2.318V15.658a2.319,2.319,0,0,1,2.319-2.318h17A2.317,2.317,0,0,1,30.4,15.658V26.476a2.319,2.319,0,0,1-2.318,2.318Zm-.547-13.683a.772.772,0,0,0-.227.547V26.476a.774.774,0,0,0,.773.773h17a.773.773,0,0,0,.773-.773V15.658a.772.772,0,0,0-.773-.773h-17A.773.773,0,0,0,10.536,15.111Zm.983,10.928a.774.774,0,0,1,0-1.093L15.5,20.962l-3.985-3.985a.773.773,0,0,1,1.093-1.093l6.425,6.424a.773.773,0,0,0,1.093,0l6.425-6.424a.773.773,0,0,1,1.093,1.093L23.66,20.962l3.985,3.985a.773.773,0,0,1-1.093,1.093l-3.985-3.985L21.22,23.4a2.318,2.318,0,0,1-3.278,0L16.6,22.055l-3.985,3.985a.774.774,0,0,1-1.093,0Z" fill="#2f455c"/>
</svg>
