<svg id="handaart" xmlns="http://www.w3.org/2000/svg" width="33.97" height="33.971" viewBox="0 0 33.97 33.971">
  <g id="Group_253" data-name="Group 253" transform="translate(0 0)">
    <path id="Path_1255" data-name="Path 1255" d="M14.453,22.553a.8.8,0,1,1-.8-.805.8.8,0,0,1,.8.805m-9.917-.805a.8.8,0,1,0,.8.805.806.806,0,0,0-.8-.805m18.227,0a.8.8,0,1,0,.8.805.806.806,0,0,0-.8-.805m11.208-5.79a.548.548,0,0,1-.548.548H28.285a6.221,6.221,0,0,1-1.106-.1,11.766,11.766,0,0,1,.113,1.608c0,7.938-6.748,12.713-8.219,13.66V32.4A1.577,1.577,0,0,1,17.5,33.971h-7.7A1.577,1.577,0,0,1,8.219,32.4v-.723C6.747,30.726,0,25.952,0,18.013A10.4,10.4,0,0,1,6.164,8.4V7.242a2.362,2.362,0,0,1-1.411-.713,2.329,2.329,0,0,1-.641-1.74,2.4,2.4,0,0,1,2.444-2.22H16.7l1.578-1.226A4.01,4.01,0,0,1,20.734.514a4.2,4.2,0,0,1,2.785,1.029l.3.268L26.444.09a.548.548,0,0,1,.6.916L24.673,2.564l6.388,5.655h2.361a.548.548,0,0,1,0,1.1H30.854a.547.547,0,0,1-.363-.138L23.724,3.188l-3.547,2.33,3.359,3.359a.548.548,0,0,1-.55.91l-7-2.189a.757.757,0,0,0-.593,1.384l10.22,5.7a5.373,5.373,0,0,0,2.676.733h5.136a.548.548,0,0,1,.548.548M19.242,6.132l-1.379.906,3.324,1.039ZM13.1,6.76,11.8,7.774a.985.985,0,0,0-.229,1.234.755.755,0,0,0,1.01.161L13.911,8.3a1.839,1.839,0,0,1,2.4-1.753l.2.063,6.363-4.18L22.8,2.368A3.075,3.075,0,0,0,20.77,1.61a2.934,2.934,0,0,0-1.819.6C17.59,3.263,15.021,5.264,13.1,6.76M25.624,21.724A5.8,5.8,0,0,1,24.615,20.7c-.544-.655-.974-1.173-1.853-1.173s-1.312.519-1.856,1.177a3.373,3.373,0,0,1-2.7,1.574,3.374,3.374,0,0,1-2.7-1.574c-.545-.657-.975-1.177-1.857-1.177s-1.312.519-1.856,1.177a3.373,3.373,0,0,1-2.7,1.574,3.373,3.373,0,0,1-2.7-1.574c-.545-.657-.975-1.177-1.856-1.177s-1.312.519-1.856,1.176a5.765,5.765,0,0,1-1.013,1.025c1.808,5.815,7.311,9.129,7.377,9.168a.547.547,0,0,1,.27.472V32.4a.48.48,0,0,0,.479.48h7.7a.48.48,0,0,0,.48-.48V31.368a.548.548,0,0,1,.269-.472c.066-.039,5.567-3.365,7.377-9.172m.392-5.648a7.381,7.381,0,0,1-.942-.442l-10.22-5.7a1.842,1.842,0,0,1-.6-.548l-3.392,2.22a4.006,4.006,0,0,1-1.506,3.238,4.135,4.135,0,0,1-5.026.053.548.548,0,0,1,.087-.93,3.671,3.671,0,0,0,1.325-1.4,4.082,4.082,0,0,1,.974-1.091,3.994,3.994,0,0,1,3.5-.751l.962-.63a1.843,1.843,0,0,1-.5-.452c-.012-.016-.023-.033-.034-.05a2.1,2.1,0,0,1,.481-2.687l1.3-1.014,2.866-2.231H6.557a1.321,1.321,0,0,0-1.35,1.182A1.25,1.25,0,0,0,6.455,6.164h.257a.548.548,0,0,1,.548.548V8.767a.547.547,0,0,1-.366.517,9.189,9.189,0,0,0-5.8,8.729,12.37,12.37,0,0,0,.266,2.531c.161-.165.316-.35.474-.541a3.371,3.371,0,0,1,2.7-1.573A3.374,3.374,0,0,1,7.236,20c.545.657.975,1.177,1.856,1.177S10.4,20.662,10.949,20a3.373,3.373,0,0,1,2.7-1.574A3.374,3.374,0,0,1,16.35,20c.545.657.975,1.177,1.856,1.177s1.312-.519,1.856-1.177a3.373,3.373,0,0,1,2.7-1.574A3.372,3.372,0,0,1,25.459,20c.157.19.312.373.473.537a12.3,12.3,0,0,0,.266-2.524,10.54,10.54,0,0,0-.181-1.937M7.389,12.342a2.986,2.986,0,0,0-.707.788,5.809,5.809,0,0,1-1.006,1.285,3.043,3.043,0,0,0,3-.429,2.911,2.911,0,0,0,1.091-2.243,2.881,2.881,0,0,0-2.38.6" transform="translate(0 0)" fill="#173d95"/>
  </g>
</svg>
