<svg id="logout" xmlns="http://www.w3.org/2000/svg" width="27.5" height="26.304" viewBox="0 0 27.5 26.304">
  <path id="Path_2659" data-name="Path 2659" d="M167.566,220.793H150.229a.9.9,0,1,1,0-1.793h17.337a.9.9,0,0,1,0,1.793Zm0,0" transform="translate(-140.963 -206.745)" fill="#002069"/>
  <path id="Path_2660" data-name="Path 2660" d="M155.019,145.012a.89.89,0,0,1-.634-.263l-4.783-4.783a.9.9,0,0,1,0-1.269l4.783-4.783a.9.9,0,1,1,1.269,1.268l-4.149,4.149,4.149,4.149a.9.9,0,0,1-.635,1.53Zm0,0" transform="translate(-140.97 -126.18)" fill="#002069"/>
  <path id="Path_2661" data-name="Path 2661" d="M13.152,26.636A13.152,13.152,0,1,1,25.393,8.673a.9.9,0,1,1-1.669.656,11.358,11.358,0,1,0,0,8.311.9.9,0,1,1,1.669.656,13.085,13.085,0,0,1-12.241,8.34Zm0,0" transform="translate(0 -0.332)" fill="#002069"/>
</svg>
