<svg id="profile" xmlns="http://www.w3.org/2000/svg" width="29.541" height="32" viewBox="0 0 29.541 32">
  <g id="Group_21" data-name="Group 21">
    <path id="Path_31" data-name="Path 31" d="M35.012,30.409c2.408,0,4.368-2.3,4.368-5.119a4.373,4.373,0,1,0-8.736,0c0,2.823,1.959,5.119,4.368,5.119m0-7.679a2.3,2.3,0,0,1,2.336,2.56c0,1.709-1.048,3.1-2.336,3.1s-2.336-1.39-2.336-3.1a2.3,2.3,0,0,1,2.336-2.56" transform="translate(-20.268 -13.734)" fill="#9db0db"/>
    <path id="Path_32" data-name="Path 32" d="M21.648,56.632c-.07.456-.1,1.708-.1,1.845a1.016,1.016,0,0,0,2.032,0c0-.424.036-1.311.065-1.486.459-2.53,3.164-3.061,5.352-3.061,1.511,0,5.061.326,5.384,3.334,0,.055.005.182.012.333.009.221.022.5.022.677a1.016,1.016,0,0,0,2.032,0c0-.037,0-.922-.035-1.231-.351-3.215-3.123-5.135-7.415-5.135-4.107,0-6.784,1.72-7.346,4.723" transform="translate(-14.249 -34.426)" fill="#9db0db"/>
    <path id="Path_33" data-name="Path 33" d="M29.3,9.417v0a6.16,6.16,0,0,0-2.851-3.662c-1.424-.843-2.871-1.666-4.269-2.46S19.332,1.676,17.907.833A6.275,6.275,0,0,0,14.985,0a5.954,5.954,0,0,0-3.273.764c-.317.184-.634.363-.949.54-.482.272-.981.554-1.453.84-1.913,1.078-4,2.28-6.2,3.573a6,6,0,0,0-3.1,5.362C-.008,12.546,0,14.043.007,15.49c0,.725.007,1.448.007,2.162v3.267A5.756,5.756,0,0,0,.3,22.726a6.366,6.366,0,0,0,2.818,3.56c.719.408,1.429.816,2.139,1.225s1.39.8,2.094,1.2c1.428.811,2.836,1.631,4.2,2.423a6.094,6.094,0,0,0,2.83.866h.474a5.932,5.932,0,0,0,3.031-.8c2.662-1.55,5.6-3.25,8.5-4.915a5.814,5.814,0,0,0,2.265-2.219,5.664,5.664,0,0,0,.9-2.947V11.05A5.6,5.6,0,0,0,29.3,9.417M26.853,23.128a3.666,3.666,0,0,1-1.493,1.484c-2.487,1.414-5.278,3.023-8.532,4.918a4.247,4.247,0,0,1-2.339.517,4.323,4.323,0,0,1-1.928-.617C11.148,28.607,9.714,27.792,8.327,27l-.09-.051c-1.368-.778-2.783-1.582-4.142-2.374A4.171,4.171,0,0,1,2.17,22.1a3.1,3.1,0,0,1-.191-1.15V11.118A3.989,3.989,0,0,1,4.1,7.456C5.418,6.668,6.786,5.883,8.11,5.124c.721-.413,1.439-.825,2.148-1.237.407-.236.814-.464,1.221-.692s.811-.454,1.22-.691a3.6,3.6,0,0,1,1.977-.514h.2a4.277,4.277,0,0,1,1.987.583c1.423.842,2.868,1.664,4.269,2.46s2.843,1.616,4.266,2.459a4.193,4.193,0,0,1,1.92,2.529,3.891,3.891,0,0,1,.162,1.1L27.5,21.357a3.913,3.913,0,0,1-.651,1.771" transform="translate(0 0)" fill="#9db0db"/>
  </g>
</svg>
