<svg id="satisfaction" xmlns="http://www.w3.org/2000/svg" width="111.597" height="116.667" viewBox="0 0 111.597 116.667">
  <path id="satisfaction-2" data-name="satisfaction" d="M110.606,79.485a7.738,7.738,0,0,0-9.588-3.3,46.526,46.526,0,1,0-75.756,1.306L14.28,81.294,11.829,77.42a1.607,1.607,0,0,0-2.213-.5L.743,81.847a1.61,1.61,0,0,0-.5,2.213l21.461,35.16a1.6,1.6,0,0,0,2.206.5l0,0,9.417-5.311a1.6,1.6,0,0,0,.5-2.208l0,0-1.205-1.916,1.52-.886,26.892,3.884a15.4,15.4,0,0,0,2.219.161,14.254,14.254,0,0,0,7.831-2.346l36.615-21.14a7.7,7.7,0,0,0,2.9-10.467M19.354,49.83a43.316,43.316,0,1,1,74.6,29.949L78.385,87.848a7.644,7.644,0,0,0-4.223-3.467L43.933,74.261a14.18,14.18,0,0,0-9.486.049l-6,2.078A43.412,43.412,0,0,1,19.354,49.83m4.2,66.323L3.951,83.928l6.025-3.436,20.289,32.073ZM108.229,84.46a4.465,4.465,0,0,1-2.114,2.71L69.452,108.333l-.069.043a11.056,11.056,0,0,1-7.891,1.729l-27.447-3.968a1.618,1.618,0,0,0-1.037.2l-2.1,1.228L16.042,84.078,35.5,77.341a10.951,10.951,0,0,1,7.417-.04L73.145,87.426A4.494,4.494,0,0,1,76,92.988c-1.072,2.069-3.232,3.75-5.7,2.929l-22.083-7.4A1.608,1.608,0,0,0,47.2,91.557l22.082,7.4a7.141,7.141,0,0,0,2.277.372,8.437,8.437,0,0,0,7.367-5.01,1.906,1.906,0,0,0,.087-.207,7.671,7.671,0,0,0,.361-3.159l16.316-8.454H95.7l5.963-3.088a4.579,4.579,0,0,1,6.152,1.661,4.44,4.44,0,0,1,.41,3.393M40.148,57.64a1.607,1.607,0,0,1,2.679-1.763,23.733,23.733,0,0,0,39.684,0,1.607,1.607,0,1,1,2.8,1.576,1.674,1.674,0,0,1-.123.188,26.943,26.943,0,0,1-45.041,0m7.67-17.01a6.109,6.109,0,1,0-6.108-6.111v0a6.115,6.115,0,0,0,6.108,6.114Zm0-9.01a2.9,2.9,0,1,1-2.9,2.9v0a2.905,2.905,0,0,1,2.9-2.9Zm28.313,9.01a6.109,6.109,0,1,0-6.108-6.111v0a6.118,6.118,0,0,0,6.108,6.114Zm0-9.01a2.9,2.9,0,1,1-2.9,2.9v0a2.9,2.9,0,0,1,2.9-2.9Z" transform="translate(0 -3.301)" fill="#002069"/>
</svg>
