<svg id="security" xmlns="http://www.w3.org/2000/svg" width="105.039" height="116.667" viewBox="0 0 105.039 116.667">
  <path id="security-2" data-name="security" d="M59.309,116.667a1.77,1.77,0,0,1-1.767-1.767v-7.84a1.77,1.77,0,0,1,1.767-1.77H61.48V90.1a15.944,15.944,0,0,1,6.254-12.616L70.6,75.3A75.779,75.779,0,0,0,79.6,67.222l7.823-8.241a6.988,6.988,0,0,1,3.464-1.894V36.137a7.076,7.076,0,0,1,14.151,0V69.373a11.675,11.675,0,0,1-2.427,7.112L88.5,94.788a8.1,8.1,0,0,0-1.676,4.905v5.6h2.37a1.769,1.769,0,0,1,1.767,1.77v7.84a1.757,1.757,0,0,1-1.767,1.767Zm1.769-3.536H87.445v-4.3H61.078Zm22.21-7.84V99.71a11.618,11.618,0,0,1,2.407-7.056L99.8,74.371a8.154,8.154,0,0,0,1.7-4.962V36.137a3.538,3.538,0,0,0-7.075,0V57.264A6.885,6.885,0,0,1,97.543,68.3L86.4,81.3a1.764,1.764,0,0,1-2.5.183,1.785,1.785,0,0,1-.2-2.5l11.141-13a3.341,3.341,0,0,0-2.123-5.491h-.064a1.823,1.823,0,0,1-.31-.026,3.4,3.4,0,0,0-2.408.975l-7.8,8.2a79.562,79.562,0,0,1-9.423,8.442l-2.865,2.19A12.375,12.375,0,0,0,65,90.086v15.2Zm-67.46,11.377a1.772,1.772,0,0,1-1.769-1.767v-7.84a1.771,1.771,0,0,1,1.769-1.77H18.2V99.71a8.105,8.105,0,0,0-1.679-4.9L2.425,76.5A11.691,11.691,0,0,1,0,69.392V36.137a7.074,7.074,0,1,1,14.148,0V57.088a6.858,6.858,0,0,1,3.413,1.859L25.418,67.2a77.1,77.1,0,0,0,9.006,8.078l2.863,2.187a15.923,15.923,0,0,1,6.254,12.619v15.2h2.17a1.77,1.77,0,0,1,1.767,1.77v7.84a1.77,1.77,0,0,1-1.767,1.767Zm1.767-3.536H43.941v-4.3H17.594ZM40,105.29V90.1A12.428,12.428,0,0,0,35.155,80.3l-2.865-2.187a79.857,79.857,0,0,1-9.423-8.442l-7.824-8.241a3.306,3.306,0,0,0-2.487-.94l-.1.007-.023,0A3.342,3.342,0,0,0,10.177,66L21.315,79a1.766,1.766,0,0,1-.2,2.5,1.785,1.785,0,0,1-2.5-.181L7.476,68.3a6.886,6.886,0,0,1,3.136-11.039V36.137a3.536,3.536,0,1,0-7.072,0V69.373a8.139,8.139,0,0,0,1.7,4.959L19.345,92.62a11.619,11.619,0,0,1,2.407,7.056v5.614ZM51.872,66.127C40.569,61.7,32.4,54.586,27.606,45a16.077,16.077,0,0,1-1.7-7.2V12.178a1.752,1.752,0,0,1,.548-1.276,1.731,1.731,0,0,1,1.311-.474c10.265.6,17.9-2.588,23.339-9.774a1.832,1.832,0,0,1,2.806,0C59.346,7.84,66.986,11.012,77.25,10.428a1.725,1.725,0,0,1,1.313.474,1.78,1.78,0,0,1,.547,1.276V37.813a16.108,16.108,0,0,1-1.7,7.2c-4.793,9.588-12.963,16.7-24.268,21.128a1.79,1.79,0,0,1-.637.11A1.5,1.5,0,0,1,51.872,66.127ZM29.429,37.793a12.794,12.794,0,0,0,1.313,5.633c4.3,8.608,11.613,15.043,21.768,19.164C62.647,58.47,69.958,52.035,74.279,43.427a12.635,12.635,0,0,0,1.312-5.633V14c-9.644.147-17.411-3.026-23.081-9.5C46.84,10.975,39.053,14.148,29.429,14Zm8.986-4.7a14.093,14.093,0,1,1,14.1,14.092A14.115,14.115,0,0,1,38.415,33.091Zm3.54,0A10.555,10.555,0,1,0,52.51,22.536,10.572,10.572,0,0,0,41.955,33.091Zm6.6,5.58-3.209-3.209a1.766,1.766,0,1,1,2.5-2.5l1.969,1.967,7.4-7.4a1.768,1.768,0,0,1,2.5,2.5l-8.645,8.642a1.834,1.834,0,0,1-1.275.508A1.7,1.7,0,0,1,48.553,38.671Z" fill="#002069"/>
</svg>
