<?xml version="1.0" encoding="utf-8"?>
<!-- Generator: Adobe Illustrator 27.0.0, SVG Export Plug-In . SVG Version: 6.00 Build 0)  -->
<svg version="1.1" id="security" xmlns="http://www.w3.org/2000/svg" xmlns:xlink="http://www.w3.org/1999/xlink" x="0px" y="0px"
	 viewBox="0 0 105 116.7" style="enable-background:new 0 0 105 116.7;" xml:space="preserve">
<style type="text/css">
	.st0{fill:#002069;}
</style>
<path id="security-2" class="st0" d="M58.9,112.7c-0.9,0-1.6-0.7-1.6-1.6v-7.3c0-0.9,0.7-1.6,1.6-1.7h2V88c0-4.6,2.2-9,5.8-11.8
	l2.7-2c3-2.3,5.8-4.8,8.4-7.5l7.3-7.7c0.9-0.9,2-1.5,3.2-1.8V37.6c0-3.6,3-6.6,6.7-6.5c3.6,0,6.5,2.9,6.5,6.5v31
	c0,2.4-0.8,4.7-2.3,6.6L86.1,92.3c-1,1.3-1.6,2.9-1.6,4.6v5.2h2.2c0.9,0,1.6,0.7,1.6,1.7v7.3c0,0.9-0.7,1.6-1.6,1.6c0,0,0,0,0,0
	L58.9,112.7z M60.5,109.4h24.6v-4H60.5V109.4z M81.2,102.1v-5.2c0-2.4,0.8-4.7,2.2-6.6l13.2-17.1c1-1.3,1.6-3,1.6-4.6v-31
	c0-1.8-1.5-3.3-3.4-3.2c-1.8,0-3.2,1.5-3.2,3.2v19.7c3.4,1.1,5.2,4.7,4.1,8.1c-0.3,0.8-0.7,1.6-1.2,2.2L84.1,79.8
	c-0.6,0.7-1.6,0.8-2.3,0.2c0,0,0,0,0,0c-0.7-0.6-0.8-1.6-0.2-2.3L92,65.5c1.1-1.3,1-3.3-0.3-4.4c-0.5-0.4-1-0.7-1.6-0.7H90
	c-0.1,0-0.2,0-0.3,0c-0.8,0-1.6,0.3-2.2,0.9l-7.3,7.6c-2.7,2.9-5.7,5.5-8.8,7.9l-2.7,2c-2.8,2.2-4.5,5.6-4.5,9.2v14.2L81.2,102.1z
	 M18.3,112.7c-0.9,0-1.6-0.7-1.6-1.6v-7.3c0-0.9,0.7-1.6,1.6-1.7h2.2v-5.2c0-1.7-0.6-3.3-1.6-4.6L5.8,75.3c-1.5-1.9-2.3-4.2-2.3-6.6
	v-31c0-3.6,3-6.6,6.6-6.6s6.6,3,6.6,6.6v19.5c1.2,0.3,2.3,0.9,3.2,1.7l7.3,7.7c2.6,2.7,5.4,5.2,8.4,7.5l2.7,2
	c3.7,2.8,5.8,7.2,5.8,11.8v14.2h2c0.9,0,1.6,0.7,1.6,1.7v7.3c0,0.9-0.7,1.6-1.6,1.6L18.3,112.7z M19.9,109.4h24.6v-4H19.9
	L19.9,109.4z M40.8,102.1V88c0-3.6-1.7-7-4.5-9.1l-2.7-2c-3.1-2.4-6.1-5-8.8-7.9l-7.3-7.7c-0.6-0.6-1.5-0.9-2.3-0.9l-0.1,0h0
	c-1.7,0.1-3,1.7-2.8,3.4c0.1,0.7,0.3,1.3,0.7,1.8l10.4,12.1c0.6,0.7,0.5,1.7-0.2,2.3c0,0,0,0,0,0c-0.7,0.6-1.7,0.5-2.3-0.2
	L10.5,67.6c-2.3-2.7-2-6.7,0.7-9.1c0.7-0.6,1.4-1,2.2-1.2V37.6c0-1.8-1.5-3.3-3.3-3.3s-3.3,1.5-3.3,3.3v31c0,1.7,0.6,3.3,1.6,4.6
	l13.2,17.1c1.5,1.9,2.2,4.2,2.2,6.6v5.2H40.8z M51.9,65.6c-10.5-4.1-18.2-10.8-22.6-19.7c-1-2.1-1.6-4.4-1.6-6.7V15.3
	c0-0.5,0.2-0.9,0.5-1.2c0.3-0.3,0.8-0.5,1.2-0.4c9.6,0.6,16.7-2.4,21.8-9.1c0.6-0.7,1.7-0.8,2.4-0.2c0.1,0.1,0.1,0.1,0.2,0.2
	c5.1,6.7,12.2,9.7,21.8,9.1c0.5,0,0.9,0.1,1.2,0.4c0.3,0.3,0.5,0.7,0.5,1.2v23.9c0,2.3-0.5,4.6-1.6,6.7
	c-4.5,8.9-12.1,15.6-22.6,19.7c-0.2,0.1-0.4,0.1-0.6,0.1C52.3,65.7,52.1,65.7,51.9,65.6z M31,39.2c0,1.8,0.4,3.6,1.2,5.3
	c4,8,10.8,14,20.3,17.9c9.5-3.8,16.3-9.8,20.3-17.9c0.8-1.6,1.2-3.4,1.2-5.3V17c-9,0.1-16.2-2.8-21.5-8.9c-5.3,6-12.6,9-21.5,8.9
	V39.2z M39.4,34.8c0-7.3,5.9-13.1,13.1-13.1c7.3,0,13.1,5.9,13.1,13.1c0,7.3-5.9,13.1-13.1,13.1C45.3,47.9,39.4,42,39.4,34.8
	L39.4,34.8z M42.7,34.8c0,5.4,4.4,9.8,9.8,9.8c5.4,0,9.8-4.4,9.8-9.8c0-5.4-4.4-9.8-9.8-9.8C47.1,25,42.7,29.4,42.7,34.8L42.7,34.8z
	 M48.8,40l-3-3c-0.6-0.6-0.6-1.7,0-2.3c0.6-0.6,1.7-0.6,2.3,0l1.8,1.8l6.9-6.9c0.7-0.6,1.7-0.6,2.3,0c0.6,0.6,0.6,1.7,0,2.3L51.2,40
	c-0.3,0.3-0.7,0.5-1.2,0.5C49.5,40.5,49.1,40.3,48.8,40L48.8,40z"/>
</svg>
