<svg xmlns="http://www.w3.org/2000/svg" width="41.982" height="42.432" viewBox="0 0 41.982 42.432">
  <path id="shopper" d="M4.1,42.342l-.09-.021A5.175,5.175,0,0,1,0,37.189V30.307A15.936,15.936,0,0,1,10.182,15.3l.547-.2-.454-.364a8.289,8.289,0,1,1,10.4,0l-.453.367.546.2a15.256,15.256,0,0,1,4.027,2.211l.168.128.5-.618a.648.648,0,0,1,.043-.056.9.9,0,0,1,.618-.295.859.859,0,0,1,.644.227.9.9,0,0,1,.294.616.883.883,0,0,1-.235.651l-5.342,6.6H36.2l-5.362-6.62a.448.448,0,0,1-.042-.053.892.892,0,1,1,1.441-1.051l6.272,7.719h1.707a1.776,1.776,0,0,1,1.371.643l.006.008a1.781,1.781,0,0,1,.348,1.484L39.674,38.414A4.471,4.471,0,0,1,35.3,42H22.747a4.467,4.467,0,0,1-4.37-3.59L16.084,26.89a1.868,1.868,0,0,1-.034-.329,1.786,1.786,0,0,1,1.763-1.8h1.366l4.374-5.385-.2-.132a18.453,18.453,0,0,0-2.675-1.559,12.922,12.922,0,0,0-6.129-1.069A13.527,13.527,0,0,0,2.216,30.279v6.927A2.978,2.978,0,0,0,4.6,40.181,2.874,2.874,0,0,0,7.956,37.35V30.91a1.108,1.108,0,0,1,2.216,0v6.44a5.016,5.016,0,0,1-.6,2.383l-.258.483h6.879a1.108,1.108,0,0,1,0,2.216l-10.948,0-.164,0A5.354,5.354,0,0,1,4.1,42.342ZM20.1,38.067a2.684,2.684,0,0,0,2.63,2.154H35.309a2.684,2.684,0,0,0,2.621-2.154l2.283-11.524h-22.4ZM9.4,8.289a6.074,6.074,0,1,0,6.075-6.075A6.081,6.081,0,0,0,9.4,8.289ZM32.58,35.772V31.211a.891.891,0,1,1,1.782,0v4.561a.891.891,0,1,1-1.782,0Zm-4.459,0V31.211a.892.892,0,0,1,1.784,0v4.561a.892.892,0,0,1-1.784,0Zm-4.457,0V31.211a.892.892,0,0,1,1.783,0v4.561a.892.892,0,0,1-1.783,0Z" fill="#fff"/>
</svg>
