<svg id="travel" xmlns="http://www.w3.org/2000/svg" width="50.955" height="38.223" viewBox="0 0 50.955 38.223">
  <g id="Group_256" data-name="Group 256" transform="translate(0 0)">
    <path id="Path_1256" data-name="Path 1256" d="M61.588,15.353a2.985,2.985,0,0,0-2.35-1.18A8.729,8.729,0,0,0,55,15.327l-.491.275V9.173a3.8,3.8,0,0,0-3.8-3.8h-8.1V2.928A2.932,2.932,0,0,0,39.688,0H34.8a2.931,2.931,0,0,0-2.928,2.928V5.377H23.83a3.8,3.8,0,0,0-3.8,3.8V24.651a3.8,3.8,0,0,0,3.8,3.8H38.614l2.557,2.16a1.331,1.331,0,0,1,.347.494l1.347,2.912A2.458,2.458,0,0,0,45.01,35.4a2.567,2.567,0,0,0,1.423-.471l.276-.221A3.506,3.506,0,0,0,47.952,31.1l-.232-.771L50,28.738l2.242,3.835a2.49,2.49,0,0,0,2.052,1.2,2.563,2.563,0,0,0,1.856-.849,4.7,4.7,0,0,0,.917-3.906l-1.027-4.452,2.783-1.97a8.588,8.588,0,0,0,3.244-4.656,3.073,3.073,0,0,0-.482-2.584M33.493,5.377V2.928a1.364,1.364,0,0,1,1.362-1.362h4.887A1.364,1.364,0,0,1,41.1,2.928V5.377Zm19.45,11.613-1.65,1.32-4.169-2.2V7h3.588a2.207,2.207,0,0,1,2.231,2.231Zm2.546,12.375a2.868,2.868,0,0,1-.634,2.525.786.786,0,0,1-.559.26.691.691,0,0,1-.684-.411L50.5,26.483l-4.625,3.248.484,1.838a1.8,1.8,0,0,1-.656,1.919l-.263.211a.746.746,0,0,1-.486.187.727.727,0,0,1-.682-.467l-1.351-3.028a2.822,2.822,0,0,0-.784-1.034L39.652,27.3a.737.737,0,0,1-.007-1.173l.271-.216a1.765,1.765,0,0,1,1.075-.4,1.689,1.689,0,0,1,.928.263l1.647.968,4.325-3.587-4.309-4.412a.8.8,0,0,1-.225-.664.834.834,0,0,1,.419-.625,2.713,2.713,0,0,1,1.234-.252,2.832,2.832,0,0,1,1.4.364l5.018,2.666,3.418-2.848a6.892,6.892,0,0,1,4.256-1.539,1.366,1.366,0,0,1,1.191.508,1.332,1.332,0,0,1,.238,1.153,6.538,6.538,0,0,1-2.629,3.773l-3.611,2.492-.062.042ZM45.5,15.64h-.384a4.365,4.365,0,0,0-1.815.4,2.4,2.4,0,0,0-1.39,1.716,2.552,2.552,0,0,0,.617,2.152L45.6,23.045l-2.131,1.787-.684-.38A3.649,3.649,0,0,0,41.046,24a3.5,3.5,0,0,0-2.084.695l-.243.131a2.475,2.475,0,0,0-.873,1.692l-.022.306H29.04V7H45.5ZM21.545,9.173a2.207,2.207,0,0,1,2.23-2.23h3.643V26.881H23.776a2.207,2.207,0,0,1-2.23-2.23Z" transform="translate(-11.218 0)" fill="#173d95"/>
    <path id="Path_1257" data-name="Path 1257" d="M26.36,56.274a.9.9,0,0,0-.386.084c-5.087,2.958-9.756,4.458-13.873,4.458-5.161,0-7.74-2.334-8.819-3.727C.5,53.519,1.231,48.36,5.047,44.544a.784.784,0,0,0,0-1.108.8.8,0,0,0-1.111,0C-.506,47.774-1.274,53.8,2.067,58.1c2,2.627,5.3,4.163,9.291,4.323h.656c4.345,0,9.449-1.617,14.765-4.677a.814.814,0,0,0,.322-1.068.851.851,0,0,0-.741-.4" transform="translate(0 -24.199)" fill="#173d95"/>
  </g>
</svg>
