<svg id="network" xmlns="http://www.w3.org/2000/svg" width="50.955" height="52.844" viewBox="0 0 50.955 52.844">
  <g id="Group_271" data-name="Group 271">
    <path id="Path_1270" data-name="Path 1270" d="M47.16,45.263a3.8,3.8,0,0,0-3.7,2.983H30.59v-.812a1.924,1.924,0,0,0-1.922-1.922H26.273v-5.17a19.979,19.979,0,1,0-1.6.008v5.17H22.288a1.924,1.924,0,0,0-1.922,1.922v.812H7.49a3.791,3.791,0,1,0,0,1.6H20.365v.754a1.924,1.924,0,0,0,1.922,1.922h6.388A1.924,1.924,0,0,0,30.6,50.607v-.754H43.465a3.788,3.788,0,1,0,3.7-4.59m-20.879-6.57V31.236a18.569,18.569,0,0,1,5.825,1.193c-1.475,3.463-3.546,5.816-5.825,6.264m7.324-5.609A18.082,18.082,0,0,1,36.7,35a18.576,18.576,0,0,1-6.338,3.124,15.7,15.7,0,0,0,3.248-5.038m-7.324-3.447v-8.65h8.078a32.85,32.85,0,0,1-1.682,9.942,20.492,20.492,0,0,0-6.4-1.293m0-10.249V10.754a20.406,20.406,0,0,0,6.4-1.3A33.154,33.154,0,0,1,34.359,19.4H26.281Zm0-10.241V1.69c2.287.447,4.35,2.8,5.825,6.264a18.569,18.569,0,0,1-5.825,1.193m4.076-6.893A18.6,18.6,0,0,1,36.7,5.385a18.57,18.57,0,0,1-3.09,1.906,15.793,15.793,0,0,0-3.248-5.038M24.674,1.69V9.155a18.569,18.569,0,0,1-5.825-1.193c1.475-3.472,3.538-5.825,5.825-6.272M17.341,7.3a18.57,18.57,0,0,1-3.09-1.906,18.541,18.541,0,0,1,6.338-3.14A15.979,15.979,0,0,0,17.341,7.3m7.333,3.455V19.4H16.6a32.9,32.9,0,0,1,1.682-9.942,20.454,20.454,0,0,0,6.4,1.3m0,10.232v8.65a20.222,20.222,0,0,0-6.4,1.3A32.906,32.906,0,0,1,16.6,20.987Zm0,10.249v7.457c-2.287-.447-4.35-2.8-5.825-6.264a18.8,18.8,0,0,1,5.825-1.193m-4.085,6.885A18.614,18.614,0,0,1,14.259,35a18.037,18.037,0,0,1,3.09-1.906,15.878,15.878,0,0,0,3.24,5.029m17.383-4.168a20.194,20.194,0,0,0-3.778-2.37A34.748,34.748,0,0,0,35.967,21h8.087a18.654,18.654,0,0,1-6.081,12.958m6.073-14.566H35.958A34.506,34.506,0,0,0,34.194,8.8a19.93,19.93,0,0,0,3.778-2.37,18.58,18.58,0,0,1,6.073,12.958M12.991,6.429A19.929,19.929,0,0,0,16.77,8.8,34.462,34.462,0,0,0,15,19.388H6.918A18.513,18.513,0,0,1,12.991,6.429M6.91,20.987H15A34.207,34.207,0,0,0,16.77,31.576a19.929,19.929,0,0,0-3.778,2.37A18.555,18.555,0,0,1,6.91,20.987M3.795,51.245a2.187,2.187,0,1,1,2.187-2.187,2.185,2.185,0,0,1-2.187,2.187m25.2-.638a.324.324,0,0,1-.323.323H22.279a.324.324,0,0,1-.323-.323V47.442a.324.324,0,0,1,.323-.323h6.388a.324.324,0,0,1,.323.323Zm18.17.638a2.187,2.187,0,1,1,2.187-2.187,2.185,2.185,0,0,1-2.187,2.187" fill="#173d95"/>
  </g>
</svg>
