<svg id="tec" xmlns="http://www.w3.org/2000/svg" width="50.955" height="55.083" viewBox="0 0 50.955 55.083">
  <g id="Group_262" data-name="Group 262" transform="translate(0 0)">
    <path id="Path_1259" data-name="Path 1259" d="M50.2,53.526H47.505V33.374a2.85,2.85,0,0,0-2.845-2.846H33.777a.759.759,0,1,0,0,1.519H44.66a1.329,1.329,0,0,1,1.326,1.327V53.526H30.355a.76.76,0,0,0-.737.578L29.153,56H21.8l-.465-1.9a.76.76,0,0,0-.737-.578H4.969V33.374a1.327,1.327,0,0,1,1.325-1.327H16.833a.759.759,0,1,0,0-1.519H6.295A2.848,2.848,0,0,0,3.45,33.374V53.526H.76a.759.759,0,0,0-.76.759H0v1.921a6.226,6.226,0,0,0,6.219,6.219H44.736a6.226,6.226,0,0,0,6.219-6.219V54.286a.759.759,0,0,0-.759-.759m-.76,2.68a4.7,4.7,0,0,1-4.7,4.7H6.219a4.7,4.7,0,0,1-4.7-4.7V55.045H20l.465,1.9a.759.759,0,0,0,.737.578h8.543a.757.757,0,0,0,.737-.578l.465-1.9H49.436Z" transform="translate(0 -7.342)" fill="#173d95"/>
    <path id="Path_1260" data-name="Path 1260" d="M17.016,14.046a2.856,2.856,0,0,0,2-1.994h4.336V38.135H20.055a.76.76,0,0,0,0,1.519H38.69a.76.76,0,0,0,0-1.519H34.011V17.085h4.336a2.858,2.858,0,1,0,0-1.519h-5.1a.759.759,0,0,0-.76.759h0V38.135H29.438V5.612a2.857,2.857,0,1,0-1.519,0V38.135H24.866V11.292a.759.759,0,0,0-.76-.76h-5.1a2.857,2.857,0,1,0-2,3.513m24.072.942a1.338,1.338,0,1,1-1.338,1.338,1.338,1.338,0,0,1,1.338-1.338M27.341,2.871a1.338,1.338,0,1,1,1.337,1.338,1.338,1.338,0,0,1-1.337-1.338M16.269,9.953a1.338,1.338,0,1,1-1.338,1.338,1.338,1.338,0,0,1,1.338-1.338" transform="translate(-3.222 0)" fill="#173d95"/>
  </g>
</svg>
