<svg xmlns="http://www.w3.org/2000/svg" width="296.986" height="60.351" viewBox="0 0 296.986 60.351">
  <g id="Group_14009" data-name="Group 14009" transform="translate(1.414 -110.215)">
    <path id="Polygon_2" data-name="Polygon 2" d="M16.045,8.73a2,2,0,0,1,3.9,0l1.958,8.757a2,2,0,0,0,.617,1.053l6.624,5.937a2,2,0,0,1-1.93,3.4l-8.625-2.69a2,2,0,0,0-1.191,0l-8.625,2.69a2,2,0,0,1-1.93-3.4l6.624-5.937a2,2,0,0,0,.617-1.053Z" transform="translate(295.572 142.593) rotate(129)" fill="#a1adc8"/>
    <path id="Path_1687" data-name="Path 1687" d="M600.333,78.417s89.333-93.333,256-26.667" transform="translate(-600.333 83.69)" fill="none" stroke="#a1adc8" stroke-linecap="round" stroke-width="2" stroke-dasharray="22 17"/>
  </g>
</svg>
