<svg xmlns="http://www.w3.org/2000/svg" width="36.225" height="45.27" viewBox="0 0 36.225 45.27">
  <g id="bag" opacity="0.9">
    <g id="Group_112" data-name="Group 112">
      <path id="Path_217" data-name="Path 217" d="M35.11,11.444H27.541V9.428A9.429,9.429,0,1,0,8.684,9.6v1.841H1.116A1.116,1.116,0,0,0,0,12.559V26.042a1.116,1.116,0,0,0,2.231,0V13.675H8.684V15.63a1.116,1.116,0,1,0,2.231,0V13.675H25.31V15.63a1.116,1.116,0,1,0,2.231,0V13.675h6.453V43.039H19.228a1.116,1.116,0,1,0,0,2.231H35.11a1.116,1.116,0,0,0,1.116-1.116v-31.6a1.116,1.116,0,0,0-1.116-1.116m-24.194,0V9.575a7.294,7.294,0,0,1,6.609-7.319A7.216,7.216,0,0,1,25.31,9.428v2.015Z" transform="translate(0 0)" fill="#fff"/>
      <path id="Path_218" data-name="Path 218" d="M34.386,86.531A9.642,9.642,0,0,0,20.112,99.462l-5.444,5.444a1.12,1.12,0,1,0,1.583,1.583l5.468-5.468a9.64,9.64,0,0,0,12.691-.84,9.68,9.68,0,0,0-.024-13.65m-6.813,14.25A7.348,7.348,0,0,1,22.319,98.6a7.437,7.437,0,0,1,5.254-12.691,7.348,7.348,0,0,1,5.254,2.183,7.437,7.437,0,0,1-5.254,12.691" transform="translate(-10.9 -63.62)" fill="#fff"/>
    </g>
  </g>
</svg>
