<svg xmlns="http://www.w3.org/2000/svg" width="50.579" height="55" viewBox="0 0 50.579 55">
  <path id="eposta" d="M25.227,55c-.141,0-.288,0-.438-.008a8.636,8.636,0,0,1-3.82-1.21c-2.9-1.672-5.946-3.381-8.39-4.755l-.178-.1-.034-.019-.011-.006c-2.7-1.516-5.484-3.084-8.164-4.628A8.2,8.2,0,0,1,.379,39.42,6.014,6.014,0,0,1,0,37.167V17.89a7.8,7.8,0,0,1,4.2-7.176c2.6-1.536,5.3-3.066,7.908-4.546l.044-.025c1.367-.775,2.821-1.6,4.256-2.424.785-.45,1.58-.89,2.348-1.316l.073-.04.006,0c.743-.411,1.585-.877,2.41-1.351A7.2,7.2,0,0,1,25.162,0h.387a8.534,8.534,0,0,1,3.936,1.142c2.857,1.672,5.833,3.345,8.459,4.821,2.764,1.554,5.621,3.16,8.456,4.819a8.224,8.224,0,0,1,3.8,4.958,7.541,7.541,0,0,1,.322,2.149l.056,20.069a7.594,7.594,0,0,1-1.289,3.471,7.236,7.236,0,0,1-2.959,2.909C41.42,47.1,35.89,50.254,29.424,53.978A8.247,8.247,0,0,1,25.227,55ZM12.613,15.786a3.452,3.452,0,0,0-2.446,1,3.377,3.377,0,0,0-1.014,2.419V35.173a3.442,3.442,0,0,0,3.459,3.421H37.977a3.441,3.441,0,0,0,3.458-3.421V19.207a3.38,3.38,0,0,0-1.013-2.419,3.455,3.455,0,0,0-2.446-1ZM37.977,36.313H12.613a1.165,1.165,0,0,1-.816-.335,1.138,1.138,0,0,1-.338-.806V19.207A1.139,1.139,0,0,1,11.8,18.4a1.168,1.168,0,0,1,.816-.334H37.977a1.168,1.168,0,0,1,.816.334,1.143,1.143,0,0,1,.337.807V35.173a1.141,1.141,0,0,1-.337.806A1.165,1.165,0,0,1,37.977,36.313ZM14.08,19.207a1.152,1.152,0,0,0-.815.334,1.133,1.133,0,0,0,0,1.612l5.946,5.881-5.946,5.881a1.134,1.134,0,0,0,0,1.612,1.163,1.163,0,0,0,1.63,0l5.946-5.881,2.01,1.987a3.456,3.456,0,0,0,2.446,1,3.5,3.5,0,0,0,2.445-1l2.01-1.987L35.7,34.528a1.165,1.165,0,0,0,1.63,0,1.131,1.131,0,0,0,0-1.612L31.38,27.035l5.946-5.881a1.131,1.131,0,0,0,0-1.612,1.161,1.161,0,0,0-1.63,0l-9.586,9.48a1.162,1.162,0,0,1-1.63,0l-9.586-9.48A1.149,1.149,0,0,0,14.08,19.207Z" fill="#a2a2a2"/>
</svg>
