<svg xmlns="http://www.w3.org/2000/svg" width="600.151" height="164.96" viewBox="0 0 600.151 164.96">
  <g id="Group_14009" data-name="Group 14009" transform="translate(-1108 -244.455)">
    <g id="Group_384" data-name="Group 384" transform="translate(606 -5094.545)">
      <g id="Group_383" data-name="Group 383" transform="translate(753.454 5346.003)">
        <circle id="Ellipse_35" data-name="Ellipse 35" cx="6" cy="6" r="6" transform="translate(-245.454 -1.003)" fill="#c6d8ff"/>
        <g id="Ellipse_36" data-name="Ellipse 36" transform="translate(-251.454 -7.003)" fill="none" stroke="#c6d8ff" stroke-width="1">
          <circle cx="12" cy="12" r="12" stroke="none"/>
          <circle cx="12" cy="12" r="11.5" fill="none"/>
        </g>
      </g>
      <path id="Polygon_6" data-name="Polygon 6" d="M16.045,8.73a2,2,0,0,1,3.9,0l1.958,8.757a2,2,0,0,0,.617,1.053l6.624,5.937a2,2,0,0,1-1.93,3.4l-8.625-2.69a2,2,0,0,0-1.191,0l-8.625,2.69a2,2,0,0,1-1.93-3.4l6.624-5.937a2,2,0,0,0,.617-1.053Z" transform="translate(1102.151 5455.639) rotate(124)" fill="#c6d8ff"/>
    </g>
    <path id="Path_1340" data-name="Path 1340" d="M9834,5502s373,4,218,120-186-168,190-57c38.352,11.322,72.521,21.635,102.89,31" transform="translate(-8680 -5241.545)" fill="none" stroke="#a7bae3" stroke-linecap="round" stroke-width="1" stroke-dasharray="22 17"/>
  </g>
</svg>
