<svg id="global" xmlns="http://www.w3.org/2000/svg" width="116.667" height="100.744" viewBox="0 0 116.667 100.744">
  <path id="Path_1359" data-name="Path 1359" d="M351.3,76.342v-6.3a6.246,6.246,0,0,0-6.238-6.239H332.508V58.576a6.332,6.332,0,0,0-6.325-6.325h-5.377l-.081-1.111a43.266,43.266,0,0,0-42.987-39.9c-23.364,0-43.1,19.739-43.1,43.1a43.085,43.085,0,0,0,6.453,22.663,43.537,43.537,0,0,0,14.12,14.073A43,43,0,0,0,274.63,97.34q1.551.111,3.108.11a43.008,43.008,0,0,0,7.058-.584l1.4-.232v9.114a6.246,6.246,0,0,0,6.24,6.238h52.631a6.245,6.245,0,0,0,6.238-6.238V77.639c0-.183-.012-.364-.026-.545l-.01-.1.01-.1c.015-.181.026-.364.026-.545m-25.123-19.9a2.135,2.135,0,0,1,2.134,2.132h0V63.8H309.178V58.573a2.136,2.136,0,0,1,2.134-2.132Zm-9.6-4.19H311.14a6.333,6.333,0,0,0-6.152,6.322V63.8h-7.3l.115-1.306c.239-2.7.359-5.448.359-8.149a91.4,91.4,0,0,0-.807-12.217l-.245-1.811,1.758.494a51.326,51.326,0,0,1,7.017,2.494c4.562,2.04,7.853,4.5,9.516,7.1Zm-25.068-34.3a39.038,39.038,0,0,1,22.472,22.237l.637,3.153L312.028,41.8a38.187,38.187,0,0,0-4.435-2.321A58.442,58.442,0,0,0,296.977,36l-.729-.168-.17-.733a58.235,58.235,0,0,0-3.47-10.612,38.086,38.086,0,0,0-2.537-4.776l-1.92-3.041Zm-13.77-2.52c4.019,0,7.94,3.824,11.043,10.77a51.249,51.249,0,0,1,2.494,7.018l.492,1.758-1.809-.245a93.248,93.248,0,0,0-24.434,0l-1.811.245.494-1.76a54.255,54.255,0,0,1,1.783-5.327h-.044L266.7,26.2c3.1-6.946,7.023-10.77,11.042-10.77M241.347,40.571a39.044,39.044,0,0,1,22.617-22.617l3.367-1.278-1.923,3.042a37.624,37.624,0,0,0-2.537,4.776,58.042,58.042,0,0,0-3.47,10.614l-.168.731-.733.168a58.19,58.19,0,0,0-10.612,3.47,38.394,38.394,0,0,0-4.779,2.535l-3.037,1.916ZM249.6,43.3l1.691-.754v.048a53.941,53.941,0,0,1,5.326-1.783l1.758-.494-.245,1.809a93.12,93.12,0,0,0,0,24.436l.245,1.811-1.758-.494a51.012,51.012,0,0,1-7.017-2.494c-6.946-3.1-10.77-7.025-10.77-11.042S242.654,46.4,249.6,43.3m14.372,47.443a39.035,39.035,0,0,1-22.247-21.71,14.589,14.589,0,0,1-.845-3.946l2.236,1.6a37.711,37.711,0,0,0,4.774,2.537,58.128,58.128,0,0,0,10.614,3.47l.731.168.169.731a58.14,58.14,0,0,0,3.47,10.615,38.288,38.288,0,0,0,2.537,4.776l1.925,3.042Zm22.009-3.164a15.161,15.161,0,0,1-4.636,4.629,7.139,7.139,0,0,1-9.066-1.35,24.908,24.908,0,0,1-5.579-8.37,50.687,50.687,0,0,1-2.494-7.017l-.492-1.757,1.808.244a92.363,92.363,0,0,0,19.375.528l1.294-.1V76.34c0,.184.013.369.028.552l.008.1-.008.1c-.015.179-.028.357-.028.538m.059-8.418-.125.96-.963.081c-2.453.206-4.947.309-7.42.309a85.76,85.76,0,0,1-14.1-1.136l-.843-.142-.142-.845a87.981,87.981,0,0,1,0-28.206l.142-.845.843-.142a88.409,88.409,0,0,1,28.208,0l.843.142.142.845a85.424,85.424,0,0,1,1.138,14.1c0,2.772-.133,5.589-.4,8.37l-.1,1.078-1.087.008a6.261,6.261,0,0,0-6.134,5.42m4.135.82a2.049,2.049,0,0,1,2.048-2.046h52.631a2.048,2.048,0,0,1,2.046,2.046v6.3a2.056,2.056,0,0,1-.927,1.714,49.351,49.351,0,0,1-24.059,8.184l-1.281.086V84.878a2.1,2.1,0,1,0-4.191,0v1.445l-1.281-.086a49.356,49.356,0,0,1-24.062-8.187,2.051,2.051,0,0,1-.924-1.711Zm56.727,35.708a2.047,2.047,0,0,1-2.046,2.046H292.435a2.048,2.048,0,0,1-2.046-2.046V82.494l1.8,1.026a52.989,52.989,0,0,0,23.341,6.931l1.129.066v1.506a2.1,2.1,0,0,0,4.191,0V90.516l1.129-.066a53,53,0,0,0,23.34-6.931l1.8-1.026Z" transform="translate(-234.635 -11.242)" fill="#002069"/>
</svg>
