<svg xmlns="http://www.w3.org/2000/svg" xmlns:xlink="http://www.w3.org/1999/xlink" width="42.344" height="39.094" viewBox="0 0 42.344 39.094">
  <defs>
    <clipPath id="clip-path">
      <rect id="Rectangle_168" data-name="Rectangle 168" width="42.344" height="39.094" fill="#fff"/>
    </clipPath>
  </defs>
  <g id="healthy" opacity="0.9">
    <g id="Group_119" data-name="Group 119" clip-path="url(#clip-path)">
      <path id="Path_224" data-name="Path 224" d="M42.2,11.136a13.529,13.529,0,0,0-5.067-8.812,11.047,11.047,0,0,0-13.424-.1,10.375,10.375,0,0,0-2.434,2.546.117.117,0,0,1-.2,0,10.354,10.354,0,0,0-2.429-2.543,11.042,11.042,0,0,0-13.431.1A13.524,13.524,0,0,0,.149,11.134,14.573,14.573,0,0,0,0,13.22a14.4,14.4,0,0,0,.287,2.857,1.684,1.684,0,0,0,.553.983,1.551,1.551,0,0,0,2.282-.35,1.534,1.534,0,0,0,.219-1.161,11.268,11.268,0,0,1-.224-2.327,11.391,11.391,0,0,1,.121-1.642A10.43,10.43,0,0,1,7.13,4.8a7.963,7.963,0,0,1,9.687-.072,7.061,7.061,0,0,1,2.361,3c.044.107.074.195.108.3a2.035,2.035,0,0,0,3.836-.038c.026-.074.053-.152.093-.247a7.079,7.079,0,0,1,2.37-3.009,7.959,7.959,0,0,1,9.677.076,10.432,10.432,0,0,1,3.9,6.781,11.461,11.461,0,0,1,.121,1.64,10.862,10.862,0,0,1-2.681,7.2l-.008.009-1.956,1.938c-.5.5-.971,1.007-1.425,1.5L22.569,35.206l-.1.125A1.59,1.59,0,0,1,21.222,36h-.085a1.611,1.611,0,0,1-1.214-.6l-.163-.187a1.547,1.547,0,1,0-2.291,2.08l.05.055a4.689,4.689,0,0,0,3.6,1.743h.1a4.684,4.684,0,0,0,3.675-1.84L35.337,26.16c.876-.932,1.807-1.874,2.613-2.684l.516-.521a13.845,13.845,0,0,0,3.878-9.734,14.534,14.534,0,0,0-.148-2.084" transform="translate(0 0)" fill="#fff"/>
      <path id="Path_225" data-name="Path 225" d="M24.132,24.476a10.269,10.269,0,0,0-15.2,13.772l-5.8,5.8a1.192,1.192,0,0,0,1.676,1.7l.011-.01,5.824-5.824a10.27,10.27,0,0,0,13.49-15.433M16.876,39.653a7.826,7.826,0,0,1-5.6-2.325,7.921,7.921,0,0,1,5.6-13.516,7.826,7.826,0,0,1,5.6,2.325,7.921,7.921,0,0,1-5.6,13.516" transform="translate(-1.253 -9.692)" fill="#fff"/>
    </g>
  </g>
</svg>
