<svg id="network" xmlns="http://www.w3.org/2000/svg" width="33.97" height="35.229" viewBox="0 0 33.97 35.229">
  <g id="Group_271" data-name="Group 271">
    <path id="Path_1270" data-name="Path 1270" d="M31.44,30.175a2.535,2.535,0,0,0-2.469,1.988H20.393v-.541a1.282,1.282,0,0,0-1.281-1.281h-1.6V26.894a13.319,13.319,0,1,0-1.066.006v3.447H14.858a1.282,1.282,0,0,0-1.281,1.281v.541H4.993a2.527,2.527,0,1,0,0,1.066h8.584v.5a1.282,1.282,0,0,0,1.281,1.281h4.259A1.282,1.282,0,0,0,20.4,33.738v-.5h8.578a2.525,2.525,0,1,0,2.464-3.06M17.521,25.8V20.824a12.379,12.379,0,0,1,3.883.8c-.983,2.309-2.364,3.878-3.883,4.176M22.4,22.056a12.055,12.055,0,0,1,2.06,1.276,12.384,12.384,0,0,1-4.226,2.082A10.467,10.467,0,0,0,22.4,22.056m-4.883-2.3V13.991h5.385a21.9,21.9,0,0,1-1.121,6.628,13.661,13.661,0,0,0-4.264-.862m0-6.833V7.17A13.6,13.6,0,0,0,21.785,6.3a22.1,22.1,0,0,1,1.121,6.628H17.521Zm0-6.827V1.127c1.525.3,2.9,1.867,3.883,4.176a12.379,12.379,0,0,1-3.883.8m2.718-4.6A12.4,12.4,0,0,1,24.464,3.59a12.38,12.38,0,0,1-2.06,1.27A10.528,10.528,0,0,0,20.238,1.5m-3.789-.376V6.1a12.379,12.379,0,0,1-3.883-.8c.983-2.314,2.359-3.883,3.883-4.181M11.561,4.866A12.38,12.38,0,0,1,9.5,3.6,12.361,12.361,0,0,1,13.726,1.5a10.653,10.653,0,0,0-2.165,3.364m4.888,2.3v5.761H11.064A21.931,21.931,0,0,1,12.185,6.3a13.636,13.636,0,0,0,4.264.867m0,6.822v5.767a13.481,13.481,0,0,0-4.264.867,21.938,21.938,0,0,1-1.121-6.634Zm0,6.833V25.8c-1.525-.3-2.9-1.867-3.883-4.176a12.536,12.536,0,0,1,3.883-.8m-2.723,4.59a12.409,12.409,0,0,1-4.22-2.082,12.024,12.024,0,0,1,2.06-1.27,10.585,10.585,0,0,0,2.16,3.353m11.588-2.778a13.463,13.463,0,0,0-2.519-1.58A23.165,23.165,0,0,0,23.978,14h5.391a12.436,12.436,0,0,1-4.054,8.639m4.049-9.71H23.972A23,23,0,0,0,22.8,5.866a13.286,13.286,0,0,0,2.519-1.58,12.387,12.387,0,0,1,4.049,8.639M8.661,4.286a13.286,13.286,0,0,0,2.519,1.58A22.975,22.975,0,0,0,10,12.925H4.612A12.342,12.342,0,0,1,8.661,4.286m-4.054,9.7H10A22.8,22.8,0,0,0,11.18,21.05a13.286,13.286,0,0,0-2.519,1.58,12.37,12.37,0,0,1-4.054-8.639M2.53,34.163a1.458,1.458,0,1,1,1.458-1.458A1.457,1.457,0,0,1,2.53,34.163m16.8-.425a.216.216,0,0,1-.215.215H14.853a.216.216,0,0,1-.215-.215v-2.11a.216.216,0,0,1,.215-.215h4.259a.216.216,0,0,1,.215.215Zm12.113.425A1.458,1.458,0,1,1,32.9,32.705a1.457,1.457,0,0,1-1.458,1.458" fill="#173d95"/>
  </g>
</svg>
