<svg xmlns="http://www.w3.org/2000/svg" width="37.194" height="40.29" viewBox="0 0 37.194 40.29">
  <path id="instagram" d="M18.094,40.289a7.672,7.672,0,0,1-3.562-1.09c-1.713-1-3.485-2.029-5.283-3.051-.886-.5-1.761-1.008-2.636-1.511-.894-.515-1.788-1.029-2.693-1.543A8.014,8.014,0,0,1,.372,28.613a7.239,7.239,0,0,1-.353-2.275V22.225q0-1.35-.009-2.722C0,17.68-.01,15.8.019,13.952A7.559,7.559,0,0,1,3.916,7.2c2.772-1.627,5.4-3.14,7.808-4.5.594-.36,1.222-.715,1.83-1.058.4-.223.795-.448,1.194-.68A7.5,7.5,0,0,1,18.868,0a7.906,7.906,0,0,1,3.679,1.044c1.795,1.063,3.614,2.1,5.374,3.1S31.5,6.18,33.3,7.242a7.754,7.754,0,0,1,3.589,4.612v0a7.041,7.041,0,0,1,.308,2.056v12.68A7.133,7.133,0,0,1,36.057,30.3,7.325,7.325,0,0,1,33.2,33.1c-3.645,2.1-7.345,4.237-10.7,6.188a7.467,7.467,0,0,1-3.817,1ZM15.989,3.153c-.515.3-1.025.585-1.536.87s-1.025.573-1.537.87c-.894.519-1.8,1.038-2.705,1.558C8.545,7.407,6.822,8.4,5.159,9.388A5.022,5.022,0,0,0,2.491,14V26.38a3.891,3.891,0,0,0,.241,1.448,5.253,5.253,0,0,0,2.423,3.118c1.712,1,3.493,2.01,5.215,2.989l.113.064c1.747.993,3.553,2.02,5.331,3.055a5.438,5.438,0,0,0,2.427.778,5.346,5.346,0,0,0,2.945-.652c4.1-2.386,7.611-4.411,10.742-6.191a4.618,4.618,0,0,0,1.88-1.868,4.941,4.941,0,0,0,.82-2.23L34.593,14a4.906,4.906,0,0,0-.2-1.381,5.281,5.281,0,0,0-2.417-3.185c-1.793-1.061-3.612-2.1-5.372-3.1s-3.584-2.037-5.375-3.1a5.39,5.39,0,0,0-2.5-.734h-.246A4.536,4.536,0,0,0,15.989,3.153ZM11.015,27.809c-1.514-1.513-1.5-3.44-1.487-6.355,0-.305,0-.62,0-.947,0-.348,0-.685,0-1.011-.02-2.768-.034-4.769,1.488-6.29a5.2,5.2,0,0,1,3.705-1.431c1.654-.073,5.62-.073,7.193,0,3.208.148,4.984,1.923,5.135,5.135.074,1.661.074,5.628,0,7.193-.138,3-1.706,4.225-3,4.726-1.19.461-2.317.463-5.641.463h-.094c-.35,0-.689,0-1.017.005-.31,0-.61,0-.9,0C14.094,29.3,12.368,29.162,11.015,27.809Zm7.28-.224h.8c2.962.006,4.314.01,5.306-.983s1-2.317.994-5.489v-.607c0-2.312-.009-2.589-.051-3.52-.164-3.619-2.632-3.6-6.05-3.565-.317,0-.644.005-.976.005H18.3l-.032-.022c-2.275,0-2.577.011-3.465.042h-.041c-1.693.087-2.662.633-3.144,1.771a11.6,11.6,0,0,0-.416,4.25c0,.332.006.675.006,1.026,0,.413,0,.8-.008,1.182-.025,2.339-.042,3.884.992,4.914.993,1,2.344.995,5.607.993Zm-4.5-7.078a4.544,4.544,0,1,1,4.544,4.544A4.549,4.549,0,0,1,13.793,20.507Zm1.707,0a2.837,2.837,0,1,0,2.837-2.837A2.84,2.84,0,0,0,15.5,20.507Zm6.444-4.652A1.046,1.046,0,1,1,22.99,16.9,1.046,1.046,0,0,1,21.944,15.855Z" transform="translate(0 0)" fill="#e3e3e3"/>
</svg>
