<svg id="lock" xmlns="http://www.w3.org/2000/svg" width="18.284" height="23" viewBox="0 0 18.284 23">
  <g id="Group_544" data-name="Group 544">
    <path id="Path_2596" data-name="Path 2596" d="M15.734,8.847h-.757V5.952a5.888,5.888,0,1,0-11.776,0V8.847H2.555A2.569,2.569,0,0,0,0,11.427v9A2.569,2.569,0,0,0,2.555,23H15.734a2.568,2.568,0,0,0,2.55-2.578v-9a2.568,2.568,0,0,0-2.55-2.58m-10.845,0V5.952a4.2,4.2,0,1,1,8.4,0V8.847ZM16.6,20.422a.847.847,0,0,1-.862.87H2.555a.85.85,0,0,1-.867-.87v-9a.85.85,0,0,1,.867-.87H15.734a.847.847,0,0,1,.862.87Z" transform="translate(0)" fill="#a2b3d9"/>
    <path id="Path_2597" data-name="Path 2597" d="M5.164,4.984A2.506,2.506,0,0,0,4.318,9.84v1.074a.844.844,0,1,0,1.688,0V9.843A2.528,2.528,0,0,0,7.642,7.491,2.5,2.5,0,0,0,5.164,4.984m.79,2.507a.791.791,0,1,1-.79-.8.782.782,0,0,1,.79.8" transform="translate(3.98 7.55)" fill="#a2b3d9"/>
  </g>
</svg>
