<svg id="Group_127" data-name="Group 127" xmlns="http://www.w3.org/2000/svg" width="44.623" height="45.231" viewBox="0 0 44.623 45.231">
  <g id="Group_128" data-name="Group 128">
    <path id="Path_229" data-name="Path 229" d="M29.272,34.169l0-.009a1.03,1.03,0,0,0-.645-1.287,1.011,1.011,0,0,0-1.273.636,3.719,3.719,0,0,1-3.634,2.033A3.7,3.7,0,0,1,20.1,33.511a1.012,1.012,0,1,0-1.915.657c.686,2,2.964,3.4,5.541,3.4s4.853-1.4,5.549-3.393" transform="translate(-1.48 -2.68)" fill="#fff"/>
    <path id="Path_230" data-name="Path 230" d="M19.05,28.174a.742.742,0,0,0,.195-.027,1.007,1.007,0,0,0,.8-1.178v-.006a4.025,4.025,0,0,0-3.692-3.527,4.022,4.022,0,0,0-3.69,3.519,1,1,0,0,0,.144.764.981.981,0,0,0,.638.426,1.01,1.01,0,0,0,1.2-.781c.219-1.106.939-1.908,1.708-1.908s1.477.786,1.709,1.915a1.021,1.021,0,0,0,.991.8" transform="translate(-1.032 -1.913)" fill="#fff"/>
    <path id="Path_231" data-name="Path 231" d="M28.339,28.144A1,1,0,0,0,29.1,28a.989.989,0,0,0,.43-.635c.232-1.125.939-1.911,1.718-1.911.762,0,1.48.8,1.705,1.9a1,1,0,0,0,.985.817.86.86,0,0,0,.208-.028,1,1,0,0,0,.785-1.183,4.025,4.025,0,0,0-3.684-3.527,4.025,4.025,0,0,0-3.691,3.521,1,1,0,0,0,.146.764.98.98,0,0,0,.634.424" transform="translate(-2.248 -1.913)" fill="#fff"/>
    <path id="Path_232" data-name="Path 232" d="M41.289,22.931V21.044c0-4.3-3.807-7.806-8.486-7.806H26.357v-.009a2.308,2.308,0,0,0-2.305-2.305h-1.01a.95.95,0,0,0-.108-.262l1.491-.287a.911.911,0,0,0,.3-1.69L23.3,6.02a2.991,2.991,0,0,0,1.82-2.879,3.141,3.141,0,1,0-3.949,3.033L22.341,8.9l-2.26.441a.919.919,0,0,0-.313,1.681,2.31,2.31,0,0,0-1.63,2.2l-6.447.009c-4.679,0-8.486,3.5-8.486,7.806v1.918a4.213,4.213,0,0,0-1.971,7.07,4.052,4.052,0,0,0,.427,3.1,5.181,5.181,0,0,0,2.13,1.927,8.548,8.548,0,0,0,7.9,4.958h4.4a11.224,11.224,0,0,1-1.584,2.154,12.021,12.021,0,0,0-.883,1.1A1.164,1.164,0,0,0,13.7,44.7a1.321,1.321,0,0,0,1.027.521h.01a1.416,1.416,0,0,0,.157.009,1.867,1.867,0,0,0,.224-.016,16.942,16.942,0,0,0,8.387-5.2h9.3c4.679,0,8.486-3.5,8.486-7.806V31.166a4.21,4.21,0,0,0,0-8.235m1.222,4.12a2.086,2.086,0,0,1-1.222,1.9V25.144a2.09,2.09,0,0,1,1.222,1.907M20.443,13.036h3.609a.2.2,0,0,1,.193.193l-3.995.009v-.009a.2.2,0,0,1,.193-.193m-1.814,25.4a.756.756,0,0,0-.658-.451l-6.28.018a6.7,6.7,0,0,1-4.644-1.833,27.687,27.687,0,0,0,4.794.5,1.74,1.74,0,0,0,1.43.741h1.166a1.754,1.754,0,0,0,0-3.508H13.27a1.758,1.758,0,0,0-1.368.655,19.221,19.221,0,0,1-6.416-1.029,5.1,5.1,0,0,1-.168-1.324V21.044c0-3.2,2.858-5.795,6.373-5.795H32.8c3.515,0,6.374,2.6,6.374,5.795V32.212c0,3.195-2.86,5.795-6.374,5.795H23.114a1.548,1.548,0,0,0-1.251.636,13.513,13.513,0,0,1-5.088,3.828c1.853-2.345,2.051-3.487,1.853-4.032M23,3.141a1.024,1.024,0,1,1-1.027-1.029A1.029,1.029,0,0,1,23,3.141M3.205,25.207v3.677a2.093,2.093,0,0,1,0-3.677m37.759,5.572,0-.02.008.02Z" fill="#fff"/>
  </g>
</svg>
