<svg xmlns="http://www.w3.org/2000/svg" width="43.69" height="40.597" viewBox="0 0 43.69 40.597">
  <g id="realestate" opacity="0.85">
    <g id="Group_125" data-name="Group 125">
      <path id="Path_227" data-name="Path 227" d="M42.6,16.776,24.067.823a3.417,3.417,0,0,0-4.449,0L13.734,5.9A4.685,4.685,0,0,0,9.363,3.133,4.479,4.479,0,0,0,4.68,7.363V13.7L1.105,16.823A3.123,3.123,0,0,0,.2,20.3a3.3,3.3,0,0,0,3.122,2.139H6.241V39.036A1.562,1.562,0,0,0,7.8,40.6H28.095a1.561,1.561,0,1,0,0-3.122H9.363V20.835A1.562,1.562,0,0,0,7.8,19.274H3.337c-.2,0-.219-.109-.187-.125L21.663,3.133a.314.314,0,0,1,.375,0L40.583,19.165s0,.109-.219.109H35.9a1.562,1.562,0,0,0-1.561,1.561v6.322a1.561,1.561,0,1,0,3.122,0V22.4h2.9a3.3,3.3,0,0,0,3.122-2.139,3.12,3.12,0,0,0-.89-3.481M10.924,8.316,7.8,11.016V7.363c0-.593.718-1.108,1.561-1.108s1.561.515,1.561,1.108Z" transform="translate(0 0)" fill="#fff"/>
      <path id="Path_228" data-name="Path 228" d="M27.645,27.2l-4.191-4.19A9.041,9.041,0,1,0,22,24.513l4.167,4.167a1.048,1.048,0,0,0,1.492-1.472l-.009-.011m-6.459-4.751A6.963,6.963,0,0,1,9.3,17.528a6.88,6.88,0,0,1,2.044-4.919A6.963,6.963,0,0,1,23.23,17.528a6.88,6.88,0,0,1-2.044,4.919" transform="translate(5.907 6.611)" fill="#fff"/>
    </g>
  </g>
</svg>
