<svg xmlns="http://www.w3.org/2000/svg" width="24.763" height="24.762" viewBox="0 0 24.763 24.762">
  <g id="right" transform="translate(0 13.163) rotate(-45)">
    <g id="Group_14" data-name="Group 14">
      <path id="Path_28" data-name="Path 28" d="M18.362,7.59,11.309.538A1.836,1.836,0,0,0,10.011,0H7.067a.164.164,0,0,0-.116.281l6.381,6.381H.172a.164.164,0,0,0-.164.164L0,9.569a.165.165,0,0,0,.165.165H13.341l-6.39,6.39a.164.164,0,0,0,.116.281h2.944a1.836,1.836,0,0,0,1.3-.538l7.053-7.053a.865.865,0,0,0,0-1.224" transform="translate(0)" fill="#002069"/>
    </g>
  </g>
</svg>
