<svg id="price" xmlns="http://www.w3.org/2000/svg" width="50.956" height="48.601" viewBox="0 0 50.956 48.601">
  <g id="Group_274" data-name="Group 274" transform="translate(0 0)">
    <path id="Path_1271" data-name="Path 1271" d="M22.788,52.269h-.566a1.915,1.915,0,0,0,.072-.485V49.866a1.84,1.84,0,0,0-1.836-1.836H17.627A11.147,11.147,0,1,0,7,48.03H1.837A1.84,1.84,0,0,0,0,49.866v1.918A1.84,1.84,0,0,0,1.837,53.62H2.4a1.97,1.97,0,0,0-.072.485v1.918a1.84,1.84,0,0,0,1.836,1.836H22.788a1.84,1.84,0,0,0,1.836-1.836V54.1a1.84,1.84,0,0,0-1.836-1.836M2.515,38.234a9.8,9.8,0,1,1,9.8,9.8,9.8,9.8,0,0,1-9.8-9.8M3.13,52.277H1.837a.5.5,0,0,1-.486-.485V49.874a.478.478,0,0,1,.478-.477h1.3Zm2.338,4.231h-1.3a.478.478,0,0,1-.477-.477V54.1a.478.478,0,0,1,.477-.477h1.3ZM6.8,52.269H4.49v-2.88H6.8Zm2.33,4.239H6.827v-2.88H9.133Zm1.335-4.239H8.162v-2.88h2.305Zm2.33,4.239H10.492v-2.88H12.8Zm1.334-4.239H11.826v-2.88h2.305Zm2.338,4.239H14.156v-2.88H16.47ZM17.8,52.269H15.491v-2.88H17.8Zm2.322,4.239H17.821v-2.88h2.305Zm.809-4.724a.478.478,0,0,1-.477.477h-1.3v-2.88h1.3a.485.485,0,0,1,.477.485Zm2.33,4.247a.478.478,0,0,1-.477.477h-1.3v-2.88h1.3a.478.478,0,0,1,.477.477Z" transform="translate(0 -9.258)" fill="#173d95"/>
    <path id="Path_1272" data-name="Path 1272" d="M62.779,45.83h-.567a1.887,1.887,0,0,0,.073-.485V43.427a1.84,1.84,0,0,0-1.836-1.836H57.626a11.147,11.147,0,1,0-10.63,0H41.835A1.84,1.84,0,0,0,40,43.427v1.918a1.84,1.84,0,0,0,1.836,1.836H42.4a1.915,1.915,0,0,0-.072.485v1.926a1.849,1.849,0,0,0,.072.477h-.566A1.84,1.84,0,0,0,40,51.905v1.917a1.84,1.84,0,0,0,1.836,1.836H60.457a1.84,1.84,0,0,0,1.836-1.836V51.905a1.854,1.854,0,0,0-.072-.478h.566a1.84,1.84,0,0,0,1.836-1.836V47.666a1.846,1.846,0,0,0-1.844-1.836M42.506,31.795a9.8,9.8,0,1,1,9.8,9.8,9.8,9.8,0,0,1-9.8-9.8M54.123,45.83H51.81V42.95h2.313ZM44.48,42.95h2.305v2.88H44.48ZM43.121,54.308h-1.3a.484.484,0,0,1-.477-.477V51.905a.479.479,0,0,1,.477-.478h1.3Zm0-8.47h-1.3a.5.5,0,0,1-.477-.485V43.436a.478.478,0,0,1,.477-.477h1.3Zm.558,3.754V47.666a.473.473,0,0,1,.477-.477h1.3v2.88h-1.3a.478.478,0,0,1-.477-.477m3.114,4.716H44.481v-2.88h2.313Zm.024-7.119h2.305v2.88H46.818Zm3.64,7.119H48.153v-2.88h2.305Zm0-8.478H48.153V42.95h2.305Zm.024,1.359H52.8v2.88H50.483Zm3.648,7.119H51.818v-2.88h2.313Zm.016-7.119h2.305v2.88H54.147Zm3.64,7.119H55.482v-2.88h2.305Zm0-8.478H55.482V42.95h2.305Zm.024,1.359h2.305v2.88H57.812Zm3.114,6.642a.478.478,0,0,1-.477.477h-1.3v-2.88h1.3a.479.479,0,0,1,.477.478Zm0-8.486a.478.478,0,0,1-.477.477h-1.3v-2.88h1.3a.485.485,0,0,1,.477.485Zm2.338,4.247a.478.478,0,0,1-.477.477h-1.3v-2.88h1.3a.478.478,0,0,1,.477.477Z" transform="translate(-13.667 -7.058)" fill="#173d95"/>
    <path id="Path_1273" data-name="Path 1273" d="M19.12,6.818h1.124v6.116a1.136,1.136,0,0,0,1.133,1.132h2.686A1.136,1.136,0,0,0,25.2,12.934V6.818h1.124a1.088,1.088,0,0,0,.979-.606,1.066,1.066,0,0,0-.121-1.141L23.577.4a1.113,1.113,0,0,0-1.715,0L18.254,5.071a1.083,1.083,0,0,0-.113,1.141,1.106,1.106,0,0,0,.979.606M22.728,1.5l3.05,3.956H24.524a.662.662,0,0,0-.477.2.674.674,0,0,0-.2.477v6.569H21.6V6.139a.684.684,0,0,0-.679-.679H19.67Z" transform="translate(-6.16 0)" fill="#173d95"/>
    <path id="Path_1274" data-name="Path 1274" d="M31.867,11.718a1.087,1.087,0,0,0,.979.606h1.124v7.613A1.136,1.136,0,0,0,35.1,21.069h2.686a1.136,1.136,0,0,0,1.132-1.132V12.324h1.124a1.067,1.067,0,0,0,.971-.606,1.08,1.08,0,0,0-.113-1.141L37.3,5.909a1.114,1.114,0,0,0-1.716,0l-3.608,4.668a1.08,1.08,0,0,0-.113,1.141m4.579-4.7L39.5,10.973H38.25a.684.684,0,0,0-.679.679v8.073H35.322V11.652a.684.684,0,0,0-.679-.679H33.388Z" transform="translate(-10.85 -1.881)" fill="#173d95"/>
    <path id="Path_1275" data-name="Path 1275" d="M60.176,39.21a.677.677,0,0,0-.664-.664H56.794a2.534,2.534,0,0,0,.469-1.48V35.675h1.27a.656.656,0,0,0,.664-.664.666.666,0,0,0-.664-.663h-1.27V32.925a1.227,1.227,0,0,1,.671-1.1,1.111,1.111,0,0,1,1.19.072.668.668,0,0,0,.922-.178.681.681,0,0,0-.186-.922,2.416,2.416,0,0,0-2.54-.153,2.575,2.575,0,0,0-1.383,2.281v1.424H54.659a.666.666,0,0,0-.663.663.656.656,0,0,0,.663.664h1.278v1.392a1.281,1.281,0,0,1-1.278,1.278.656.656,0,0,0-.663.664v.2a.656.656,0,0,0,.663.664h4.854a.667.667,0,0,0,.664-.664" transform="translate(-18.45 -10.372)" fill="#173d95"/>
    <path id="Path_1276" data-name="Path 1276" d="M18.068,45.955V45.5a2.525,2.525,0,0,0-.679-4.959,1.173,1.173,0,1,1,1.173-1.173.679.679,0,0,0,1.359,0,2.525,2.525,0,0,0-1.852-2.427v-.469a.679.679,0,1,0-1.359,0v.469a2.525,2.525,0,0,0,.679,4.959,1.173,1.173,0,1,1-1.173,1.172.679.679,0,0,0-1.359,0A2.525,2.525,0,0,0,16.709,45.5v.453a.679.679,0,0,0,1.359,0" transform="translate(-5.077 -12.231)" fill="#173d95"/>
  </g>
</svg>
