<svg id="handaart" xmlns="http://www.w3.org/2000/svg" width="50.955" height="50.956" viewBox="0 0 50.955 50.956">
  <g id="Group_253" data-name="Group 253" transform="translate(0 0)">
    <path id="Path_1255" data-name="Path 1255" d="M21.68,33.83a1.207,1.207,0,1,1-1.206-1.208A1.207,1.207,0,0,1,21.68,33.83M6.8,32.622A1.207,1.207,0,1,0,8.01,33.83,1.209,1.209,0,0,0,6.8,32.622m27.34,0A1.207,1.207,0,1,0,35.35,33.83a1.209,1.209,0,0,0-1.206-1.208m16.811-8.684a.822.822,0,0,1-.822.822H42.428a9.332,9.332,0,0,1-1.659-.151,17.649,17.649,0,0,1,.169,2.411c0,11.906-10.122,19.07-12.328,20.489v1.084a2.366,2.366,0,0,1-2.363,2.363H14.69a2.366,2.366,0,0,1-2.363-2.363V47.509C10.121,46.089,0,38.928,0,27.019A15.6,15.6,0,0,1,9.246,12.6V10.863A3.543,3.543,0,0,1,7.13,9.794a3.493,3.493,0,0,1-.961-2.61A3.6,3.6,0,0,1,9.835,3.853H25.05l2.366-1.839A6.015,6.015,0,0,1,31.1.771a6.294,6.294,0,0,1,4.177,1.544l.456.4L39.666.135a.822.822,0,0,1,.9,1.374L37.01,3.846l9.582,8.483h3.541a.822.822,0,0,1,0,1.644H46.281a.821.821,0,0,1-.545-.207L35.586,4.782l-5.321,3.5L35.3,13.316a.822.822,0,0,1-.826,1.365L23.973,11.4a1.135,1.135,0,0,0-.889,2.075l15.33,8.544a8.059,8.059,0,0,0,4.014,1.1h7.7a.821.821,0,0,1,.822.821M28.862,9.2l-2.069,1.359,4.986,1.559Zm-9.214.942L17.7,11.661a1.477,1.477,0,0,0-.344,1.851,1.133,1.133,0,0,0,1.515.241l2-1.3a2.759,2.759,0,0,1,3.6-2.63l.3.095,9.545-6.27-.115-.1a4.613,4.613,0,0,0-3.04-1.137,4.4,4.4,0,0,0-2.729.9c-2.042,1.584-5.9,4.585-8.777,6.83M38.437,32.586a8.7,8.7,0,0,1-1.513-1.537c-.816-.983-1.461-1.759-2.78-1.759s-1.968.779-2.784,1.765c-.871,1.051-1.955,2.36-4.051,2.36s-3.179-1.309-4.051-2.36c-.817-.986-1.462-1.765-2.785-1.765s-1.968.779-2.784,1.765c-.871,1.051-1.955,2.36-4.051,2.36s-3.179-1.309-4.051-2.36C8.77,30.069,8.125,29.29,6.8,29.29s-1.968.779-2.784,1.764A8.648,8.648,0,0,1,2.5,32.591c2.713,8.723,10.966,13.693,11.066,13.752a.82.82,0,0,1,.405.708v1.541a.72.72,0,0,0,.719.719H26.248a.72.72,0,0,0,.719-.719V47.052a.822.822,0,0,1,.4-.707c.1-.059,8.351-5.047,11.065-13.758m.588-8.472a11.071,11.071,0,0,1-1.412-.662l-15.33-8.543a2.764,2.764,0,0,1-.9-.821l-5.088,3.33a6.009,6.009,0,0,1-2.258,4.857,6.2,6.2,0,0,1-7.54.08.822.822,0,0,1,.13-1.394,5.507,5.507,0,0,0,1.988-2.1,6.123,6.123,0,0,1,1.461-1.637,5.991,5.991,0,0,1,5.243-1.127l1.444-.945a2.765,2.765,0,0,1-.743-.678c-.018-.024-.035-.049-.05-.075a3.154,3.154,0,0,1,.722-4.031l1.952-1.52,4.3-3.347H9.835A1.981,1.981,0,0,0,7.81,7.269,1.875,1.875,0,0,0,9.683,9.246h.385a.822.822,0,0,1,.822.822v3.083a.821.821,0,0,1-.549.775,13.784,13.784,0,0,0-8.7,13.093,18.556,18.556,0,0,0,.4,3.8c.242-.248.473-.525.711-.811.871-1.051,1.953-2.359,4.05-2.359s3.179,1.309,4.051,2.36c.817.986,1.462,1.765,2.784,1.765s1.968-.779,2.784-1.765c.871-1.051,1.955-2.36,4.051-2.36s3.18,1.309,4.051,2.36c.817.986,1.462,1.765,2.784,1.765s1.968-.779,2.784-1.765c.871-1.051,1.955-2.36,4.051-2.36s3.174,1.3,4.045,2.353c.236.285.467.559.709.806a18.451,18.451,0,0,0,.4-3.785,15.81,15.81,0,0,0-.271-2.9m-27.941-5.6A4.479,4.479,0,0,0,10.023,19.7a8.714,8.714,0,0,1-1.509,1.928,4.565,4.565,0,0,0,4.5-.643,4.367,4.367,0,0,0,1.636-3.365,4.321,4.321,0,0,0-3.57.9" transform="translate(0 0)" fill="#173d95"/>
  </g>
</svg>
