<svg id="logistic" xmlns="http://www.w3.org/2000/svg" width="50.955" height="50.955" viewBox="0 0 50.955 50.955">
  <g id="Group_268" data-name="Group 268">
    <path id="Path_1267" data-name="Path 1267" d="M17.259,74.416H10.465a2.548,2.548,0,0,0-2.548,2.548v1.7a2.548,2.548,0,0,0,2.548,2.548h6.794a2.548,2.548,0,0,0,2.548-2.548v-1.7a2.548,2.548,0,0,0-2.548-2.548m.849,4.246a.849.849,0,0,1-.849.849H10.465a.849.849,0,0,1-.849-.849v-1.7a.849.849,0,0,1,.849-.849h6.794a.849.849,0,0,1,.849.849Z" transform="translate(-3.671 -34.502)" fill="#173d95"/>
    <path id="Path_1268" data-name="Path 1268" d="M38.216,0A12.753,12.753,0,0,0,25.478,12.739c0,.285.013.567.027.849H4.246A4.252,4.252,0,0,0,0,17.834V46.709a4.252,4.252,0,0,0,4.246,4.246H34.819a4.251,4.251,0,0,0,4.246-4.246V32.7c2.038-1.545,11.89-9.562,11.89-19.957A12.753,12.753,0,0,0,38.216,0M15.287,15.287h8.492V26.651l-3.867-1.934a.847.847,0,0,0-.759,0l-3.867,1.934ZM37.367,46.709a2.548,2.548,0,0,1-2.548,2.548H4.246A2.548,2.548,0,0,1,1.7,46.709V17.834a2.547,2.547,0,0,1,2.548-2.548h9.341V28.025a.849.849,0,0,0,1.229.764l4.716-2.363,4.716,2.363a.849.849,0,0,0,1.229-.764V15.287h.2C27.075,24.425,35.5,31.28,37.367,32.7Zm.849-15.5c-2.208-1.735-11.04-9.259-11.04-18.465a11.04,11.04,0,1,1,22.08,0c0,9.206-8.832,16.73-11.04,18.465" fill="#173d95"/>
    <path id="Path_1269" data-name="Path 1269" d="M63.909,7.917A8.493,8.493,0,1,0,72.4,16.409a8.493,8.493,0,0,0-8.492-8.492m0,15.286A6.794,6.794,0,1,1,70.7,16.409,6.794,6.794,0,0,1,63.909,23.2" transform="translate(-25.693 -3.671)" fill="#173d95"/>
  </g>
</svg>
