<svg xmlns="http://www.w3.org/2000/svg" width="37.194" height="40.29" viewBox="0 0 37.194 40.29">
  <path id="youtube" d="M18.1,40.29a7.677,7.677,0,0,1-3.563-1.09c-1.712-1-3.484-2.029-5.282-3.051-.886-.5-1.762-1.007-2.637-1.511-.894-.514-1.788-1.028-2.693-1.542A8.014,8.014,0,0,1,.372,28.613a7.254,7.254,0,0,1-.353-2.275V22.225c0-.9,0-1.808-.009-2.722C0,17.681-.01,15.8.019,13.952A7.56,7.56,0,0,1,3.916,7.2c2.772-1.627,5.4-3.14,7.807-4.5.595-.36,1.223-.715,1.83-1.057.4-.223.8-.449,1.194-.68A7.5,7.5,0,0,1,18.868,0a7.908,7.908,0,0,1,3.679,1.045c1.794,1.062,3.614,2.1,5.374,3.1S31.5,6.181,33.3,7.243a7.757,7.757,0,0,1,3.59,4.612v0a7.056,7.056,0,0,1,.308,2.056V26.592A7.129,7.129,0,0,1,36.057,30.3,7.317,7.317,0,0,1,33.2,33.1c-3.645,2.1-7.345,4.237-10.7,6.189a7.471,7.471,0,0,1-3.817,1ZM15.989,3.153c-.514.3-1.025.585-1.535.87s-1.025.574-1.537.871q-1.341.777-2.705,1.557C8.545,7.408,6.822,8.4,5.159,9.388A5.023,5.023,0,0,0,2.492,14V26.381a3.888,3.888,0,0,0,.241,1.448,5.253,5.253,0,0,0,2.422,3.118c1.712,1,3.494,2.01,5.216,2.989l.113.065c1.746.992,3.553,2.019,5.331,3.055a5.446,5.446,0,0,0,2.428.777,5.348,5.348,0,0,0,2.944-.651c4.1-2.386,7.612-4.412,10.743-6.192a4.616,4.616,0,0,0,1.88-1.868,4.933,4.933,0,0,0,.82-2.23L34.593,14a4.918,4.918,0,0,0-.2-1.381,5.281,5.281,0,0,0-2.417-3.185c-1.793-1.061-3.612-2.1-5.372-3.1S23.017,4.3,21.226,3.24a5.387,5.387,0,0,0-2.5-.734h-.246A4.536,4.536,0,0,0,15.989,3.153ZM18.6,29.133H18.29a54.936,54.936,0,0,1-6.1-.237,2.162,2.162,0,0,1-1.85-1.682,18.342,18.342,0,0,1-.3-4.046,18.311,18.311,0,0,1,.3-4.047,2.162,2.162,0,0,1,1.849-1.682A57.557,57.557,0,0,1,18.6,17.2a57.545,57.545,0,0,1,6.41.237,2.162,2.162,0,0,1,1.85,1.682,18.309,18.309,0,0,1,.3,4.047,18.342,18.342,0,0,1-.3,4.046,2.162,2.162,0,0,1-1.85,1.682,53.922,53.922,0,0,1-5.995.237Zm4.5-7.616a2.222,2.222,0,0,0-.32,1.345v2a2.211,2.211,0,0,0,.332,1.342,1.481,1.481,0,0,0,1.252.584,1.432,1.432,0,0,0,1.251-.618,1.475,1.475,0,0,0,.241-.62c.01-.1.022-.333.022-.667v-.151H24.824a6.455,6.455,0,0,1-.023.7.444.444,0,0,1-.462.415c-.355,0-.528-.264-.528-.792V24.044H25.88V22.862a2.246,2.246,0,0,0-.32-1.345,1.437,1.437,0,0,0-1.22-.585A1.471,1.471,0,0,0,23.1,21.517Zm-2.056,5.271a.82.82,0,0,0,.827-.641,4.591,4.591,0,0,0,.1-1.15V22.723a4.4,4.4,0,0,0-.1-1.148.819.819,0,0,0-.827-.644,1.4,1.4,0,0,0-1.069.619v-2.5H18.942V26.71h1.034v-.553A1.408,1.408,0,0,0,21.045,26.788Zm-5.974-1.273a2.9,2.9,0,0,0,.092.849.634.634,0,0,0,.666.424,1.657,1.657,0,0,0,1.182-.7v.623h1.036V21H17.01v4.363c-.229.324-.446.485-.654.485-.138,0-.217-.082-.242-.242a3.288,3.288,0,0,1-.009-.4V21H15.071Zm-3.757-5.389h1.216V26.71h1.151V20.126h1.239V19.048H11.314Zm8.661,5.467v-3.48a.742.742,0,0,1,.516-.251c.3,0,.45.264.45.779v2.437c0,.516-.152.771-.45.771A.74.74,0,0,1,19.975,25.594Zm3.836-2.411v-.528q0-.792.519-.792c.342,0,.516.264.516.792v.528ZM20.4,16.247a2.9,2.9,0,0,1-.093-.858V10.828h1.042v4.247a2.471,2.471,0,0,0,.013.407c.023.162.105.245.245.245.209,0,.429-.162.661-.489V10.828h1.045V16.6H22.264v-.63a1.681,1.681,0,0,1-1.195.709A.641.641,0,0,1,20.4,16.247Zm-3.714-.162a2.236,2.236,0,0,1-.327-1.357v-2.02a2.242,2.242,0,0,1,.327-1.359,1.551,1.551,0,0,1,2.437,0,2.262,2.262,0,0,1,.324,1.359v2.02a2.256,2.256,0,0,1-.324,1.357,1.552,1.552,0,0,1-2.437,0ZM17.4,12.5v2.427c0,.533.162.8.5.8s.5-.267.5-.8V12.5c0-.534-.162-.8-.5-.8S17.4,11.965,17.4,12.5Zm-3.609,4.1V13.462a18.935,18.935,0,0,0-.709-2.449c-.244-.719-.5-1.44-.743-2.157h1.22l.823,3.04.791-3.04h1.172l-1.4,4.606V16.6Z" transform="translate(0 0)" fill="#e3e3e3"/>
</svg>
