<svg xmlns="http://www.w3.org/2000/svg" width="50.58" height="55" viewBox="0 0 50.58 55">
  <g id="Group_14016" data-name="Group 14016" transform="translate(-36 -52.246)">
    <path id="back" d="M52.691,44.851a7.226,7.226,0,0,1-2.959,2.909C44.8,50.531,39.273,53.685,32.825,57.4a8.491,8.491,0,0,1-4.634,1.014,8.632,8.632,0,0,1-3.82-1.21c-2.8-1.611-5.641-3.21-8.39-4.755l-.178-.1c-2.711-1.524-5.514-3.1-8.209-4.653A8.191,8.191,0,0,1,3.78,42.842,6.009,6.009,0,0,1,3.4,40.587V21.311a7.8,7.8,0,0,1,4.2-7.177c2.617-1.545,5.329-3.083,7.951-4.571,1.428-.81,2.851-1.617,4.257-2.425.806-.463,1.614-.909,2.42-1.356s1.608-.889,2.417-1.354a7.2,7.2,0,0,1,3.918-1.008h.387a8.545,8.545,0,0,1,3.937,1.142c2.819,1.65,5.683,3.261,8.46,4.822S46.979,12.552,49.8,14.2a8.232,8.232,0,0,1,3.8,4.958,7.55,7.55,0,0,1,.321,2.149l.056,20.069a7.616,7.616,0,0,1-1.29,3.472" transform="translate(32.599 48.825)" fill="#95081f"/>
    <g id="none" transform="translate(49 67)">
      <path id="Path_11213" data-name="Path 11213" d="M4.549,14.745A10.2,10.2,0,0,0,21,22.8L6.69,8.493A10.152,10.152,0,0,0,4.549,14.745ZM22.8,21,8.493,6.69A10.2,10.2,0,0,1,22.8,21ZM2,14.745A12.745,12.745,0,1,0,14.745,2,12.745,12.745,0,0,0,2,14.745Z" transform="translate(-2 -2)" fill="#fff" fill-rule="evenodd"/>
    </g>
  </g>
</svg>
