<svg xmlns="http://www.w3.org/2000/svg" width="50.58" height="55" viewBox="0 0 50.58 55">
  <g id="Group_14018" data-name="Group 14018" transform="translate(-36 -236)">
    <path id="back" d="M52.691,44.851a7.226,7.226,0,0,1-2.959,2.909C44.8,50.531,39.273,53.685,32.825,57.4a8.491,8.491,0,0,1-4.634,1.014,8.632,8.632,0,0,1-3.82-1.21c-2.8-1.611-5.641-3.21-8.39-4.755l-.178-.1c-2.711-1.524-5.514-3.1-8.209-4.653A8.191,8.191,0,0,1,3.78,42.842,6.009,6.009,0,0,1,3.4,40.587V21.311a7.8,7.8,0,0,1,4.2-7.177c2.617-1.545,5.329-3.083,7.951-4.571,1.428-.81,2.851-1.617,4.257-2.425.806-.463,1.614-.909,2.42-1.356s1.608-.889,2.417-1.354a7.2,7.2,0,0,1,3.918-1.008h.387a8.545,8.545,0,0,1,3.937,1.142c2.819,1.65,5.683,3.261,8.46,4.822S46.979,12.552,49.8,14.2a8.232,8.232,0,0,1,3.8,4.958,7.55,7.55,0,0,1,.321,2.149l.056,20.069a7.616,7.616,0,0,1-1.29,3.472" transform="translate(32.599 232.579)" fill="#077537"/>
    <path id="check" d="M8.383,17.079a1.117,1.117,0,0,1-1.581,0L.491,10.766a1.676,1.676,0,0,1,0-2.371l.79-.791a1.676,1.676,0,0,1,2.371,0l3.94,3.941L18.241.9a1.676,1.676,0,0,1,2.371,0l.79.791a1.676,1.676,0,0,1,0,2.371Zm0,0" transform="translate(51 254.594)" fill="#fff"/>
  </g>
</svg>
