<svg xmlns="http://www.w3.org/2000/svg" width="403.72" height="103.935" viewBox="0 0 403.72 103.935">
  <g id="Group_14011" data-name="Group 14011" transform="translate(-1311.351 -525.347)">
    <path id="Path_1689" data-name="Path 1689" d="M912.333,562.417s192,142.667,362.667,8" transform="translate(438.667)" fill="none" stroke="#a1adc8" stroke-linecap="round" stroke-width="2" stroke-dasharray="22 17"/>
    <path id="Polygon_4" data-name="Polygon 4" d="M16.045,8.73a2,2,0,0,1,3.9,0l1.958,8.757a2,2,0,0,0,.617,1.053l6.624,5.937a2,2,0,0,1-1.93,3.4l-8.625-2.69a2,2,0,0,0-1.191,0l-8.625,2.69a2,2,0,0,1-1.93-3.4l6.624-5.937a2,2,0,0,0,.617-1.053Z" transform="translate(1311.351 553.32) rotate(-51)" fill="#a1adc8"/>
  </g>
</svg>
