<svg xmlns="http://www.w3.org/2000/svg" width="44.802" height="42.223" viewBox="0 0 44.802 42.223">
  <g id="basket" opacity="0.9">
    <g id="Group_115" data-name="Group 115">
      <path id="Path_219" data-name="Path 219" d="M25,38.157H5.568V21.319H42.009a1.753,1.753,0,0,0,1.751-1.751V11.181A1.753,1.753,0,0,0,42.009,9.43H33.537L27.616.547a1.23,1.23,0,1,0-2.046,1.365L30.581,9.43h-17.4l5.012-7.518A1.23,1.23,0,0,0,16.144.547L10.223,9.43H1.751A1.753,1.753,0,0,0,0,11.181v8.387a1.753,1.753,0,0,0,1.751,1.751H3.109V38.895a1.724,1.724,0,0,0,1.722,1.722H25a1.23,1.23,0,0,0,0-2.46M4.636,18.86H2.46v-6.97H41.3v6.97h-2.2a1.216,1.216,0,0,0-.2-.02H4.831a1.7,1.7,0,0,0-.195.02" transform="translate(0 0)" fill="#fff"/>
      <path id="Path_220" data-name="Path 220" d="M69.619,63.194l-4.848-4.848a8.546,8.546,0,0,0-.744-11.251,8.572,8.572,0,0,0-14.612,6.062,8.46,8.46,0,0,0,2.51,6.04,8.578,8.578,0,0,0,11.464.575L68.216,64.6a.993.993,0,1,0,1.4-1.4m-7-5.379a6.594,6.594,0,0,1-11.251-4.658A6.514,6.514,0,0,1,53.307,48.5a6.594,6.594,0,0,1,11.251,4.658,6.514,6.514,0,0,1-1.936,4.658" transform="translate(-25.107 -22.665)" fill="#fff"/>
    </g>
  </g>
</svg>
