<svg xmlns="http://www.w3.org/2000/svg" width="40.232" height="43.5" viewBox="0 0 40.232 43.5">
  <path id="facebook" d="M19.088,42.5a8.1,8.1,0,0,1-3.758-1.15c-1.806-1.052-3.675-2.141-5.572-3.219C8.823,37.6,7.9,37.069,6.976,36.537c-.943-.542-1.886-1.084-2.84-1.627A8.454,8.454,0,0,1,.392,30.182a7.652,7.652,0,0,1-.372-2.4V23.443c0-.949,0-1.908-.01-2.871C0,18.65-.01,16.663.02,14.718A7.975,7.975,0,0,1,4.131,7.6C7.055,5.88,9.825,4.284,12.366,2.851c.627-.38,1.29-.754,1.931-1.115.419-.236.839-.474,1.259-.718A7.914,7.914,0,0,1,19.9,0a8.342,8.342,0,0,1,3.881,1.1c1.892,1.12,3.812,2.212,5.669,3.267S33.23,6.52,35.122,7.64A8.182,8.182,0,0,1,38.909,12.5v0a7.442,7.442,0,0,1,.325,2.169V28.051a7.52,7.52,0,0,1-1.2,3.915,7.718,7.718,0,0,1-3.009,2.947c-3.845,2.212-7.747,4.47-11.283,6.528a7.881,7.881,0,0,1-4.026,1.06ZM16.866,3.326c-.542.315-1.081.617-1.62.918s-1.081.605-1.622.919q-1.415.82-2.853,1.643C9.014,7.814,7.2,8.856,5.442,9.9a5.3,5.3,0,0,0-2.814,4.863V27.827a4.1,4.1,0,0,0,.255,1.527,5.541,5.541,0,0,0,2.555,3.289c1.806,1.051,3.685,2.12,5.5,3.152l.12.068c1.842,1.047,3.748,2.13,5.623,3.222a5.745,5.745,0,0,0,2.561.82,5.641,5.641,0,0,0,3.106-.687c4.322-2.517,8.029-4.654,11.332-6.532a4.869,4.869,0,0,0,1.983-1.971,5.2,5.2,0,0,0,.864-2.352l-.038-13.6a5.187,5.187,0,0,0-.215-1.456,5.571,5.571,0,0,0-2.55-3.36c-1.891-1.119-3.81-2.21-5.667-3.265S24.28,4.536,22.39,3.417a5.683,5.683,0,0,0-2.639-.774h-.259A4.784,4.784,0,0,0,16.866,3.326Zm.659,27.4V21.744H14.5v-3.5h3.025V15.656c0-3,1.831-4.63,4.506-4.63a25.135,25.135,0,0,1,2.7.137V14.3H22.879c-1.456,0-1.736.691-1.736,1.705V18.24h3.468l-.452,3.5H21.143v8.987Z" transform="translate(0.498 0.5)" fill="#2f455c" stroke="rgba(0,0,0,0)" stroke-miterlimit="10" stroke-width="1"/>
</svg>
