<svg xmlns="http://www.w3.org/2000/svg" width="22.861" height="22.849" viewBox="0 0 22.861 22.849">
  <path id="Path_2598" data-name="Path 2598" d="M18.448,1.869h-.853V1.007a.893.893,0,0,0-1.785,0v.863H7.052V1.007a.893.893,0,0,0-1.785,0v.863H4.414A4.419,4.419,0,0,0,0,6.283V18.55a4.419,4.419,0,0,0,4.414,4.413H18.448a4.419,4.419,0,0,0,4.414-4.413V6.283a4.419,4.419,0,0,0-4.414-4.413ZM4.414,3.654h.853v1.74a.893.893,0,0,0,1.785,0V3.654H15.81v1.74a.893.893,0,0,0,1.785,0V3.654h.853a2.631,2.631,0,0,1,2.629,2.628v.853H1.785V6.283A2.631,2.631,0,0,1,4.414,3.654ZM18.448,21.178H4.414A2.631,2.631,0,0,1,1.785,18.55V8.921H21.076V18.55A2.631,2.631,0,0,1,18.448,21.178ZM7.93,12.431a.893.893,0,0,1-.893.893H5.281a.893.893,0,1,1,0-1.785H7.037A.893.893,0,0,1,7.93,12.431Zm10.543,0a.893.893,0,0,1-.893.893H15.825a.893.893,0,1,1,0-1.785H17.58A.893.893,0,0,1,18.473,12.431Zm-5.277,0a.893.893,0,0,1-.893.893H10.548a.893.893,0,1,1,0-1.785H12.3A.893.893,0,0,1,13.2,12.431ZM7.93,17.7a.893.893,0,0,1-.893.893H5.281a.893.893,0,1,1,0-1.785H7.037A.893.893,0,0,1,7.93,17.7Zm10.543,0a.893.893,0,0,1-.893.893H15.825a.893.893,0,1,1,0-1.785H17.58A.893.893,0,0,1,18.473,17.7Zm-5.277,0a.893.893,0,0,1-.893.893H10.548a.893.893,0,1,1,0-1.785H12.3A.893.893,0,0,1,13.2,17.7Z" transform="translate(0 -0.114)" fill="#a2b3d9"/>
</svg>
