<svg xmlns="http://www.w3.org/2000/svg" width="50.773" height="55" viewBox="0 0 50.773 55">
  <path id="facebook" d="M24.7,55a10.48,10.48,0,0,1-4.864-1.489c-2.337-1.362-4.756-2.77-7.211-4.165-1.21-.688-2.4-1.375-3.6-2.063-1.22-.7-2.441-1.4-3.676-2.105A10.94,10.94,0,0,1,.508,39.059a9.9,9.9,0,0,1-.481-3.106V30.338c0-1.228-.006-2.469-.013-3.715C0,24.136-.013,21.564.026,19.046A10.321,10.321,0,0,1,5.346,9.83C9.131,7.609,12.715,5.544,16,3.69c.812-.491,1.669-.976,2.5-1.443.542-.305,1.085-.613,1.63-.929A10.241,10.241,0,0,1,25.757.005a10.8,10.8,0,0,1,5.022,1.426c2.449,1.45,4.934,2.862,7.336,4.227S43,8.438,45.451,9.887a10.589,10.589,0,0,1,4.9,6.3v0a9.632,9.632,0,0,1,.42,2.807V36.3a9.732,9.732,0,0,1-1.552,5.066,9.988,9.988,0,0,1-3.893,3.813c-4.976,2.862-10.026,5.784-14.6,8.448A10.2,10.2,0,0,1,25.516,55ZM21.827,4.3c-.7.408-1.4.8-2.1,1.188s-1.4.783-2.1,1.189Q15.8,7.742,13.939,8.807c-2.274,1.305-4.626,2.654-6.9,4.009A6.856,6.856,0,0,0,3.4,19.108v16.9a5.308,5.308,0,0,0,.329,1.976,7.171,7.171,0,0,0,3.307,4.256c2.337,1.361,4.769,2.743,7.12,4.08l.155.088c2.384,1.354,4.85,2.757,7.277,4.17A7.434,7.434,0,0,0,24.9,51.643a7.3,7.3,0,0,0,4.019-.889c5.593-3.257,10.39-6.023,14.664-8.453a6.3,6.3,0,0,0,2.567-2.551,6.734,6.734,0,0,0,1.119-3.044l-.05-17.6a6.713,6.713,0,0,0-.278-1.885,7.209,7.209,0,0,0-3.3-4.348c-2.447-1.448-4.93-2.86-7.333-4.225s-4.891-2.781-7.337-4.228a7.354,7.354,0,0,0-3.415-1h-.336A6.191,6.191,0,0,0,21.827,4.3Zm.853,35.465V28.139H18.766V23.6H22.68V20.261c0-3.879,2.37-5.991,5.831-5.991a32.539,32.539,0,0,1,3.5.177V18.5h-2.4c-1.884,0-2.246.895-2.246,2.207V23.6h4.487l-.585,4.534h-3.9V39.769Z" fill="#a2a2a2"/>
</svg>
