<svg xmlns="http://www.w3.org/2000/svg" width="50.773" height="55" viewBox="0 0 50.773 55">
  <path id="instagram" d="M24.7,55a10.476,10.476,0,0,1-4.864-1.488c-2.337-1.362-4.757-2.771-7.212-4.165-1.209-.688-2.4-1.376-3.6-2.063-1.22-.7-2.441-1.4-3.676-2.105A10.94,10.94,0,0,1,.508,39.059a9.907,9.907,0,0,1-.482-3.106V30.338c0-1.228-.006-2.469-.013-3.716C0,24.135-.014,21.564.026,19.046A10.321,10.321,0,0,1,5.346,9.83C9.13,7.609,12.715,5.543,16,3.689c.812-.491,1.669-.975,2.5-1.443.542-.305,1.086-.613,1.631-.929A10.241,10.241,0,0,1,25.757,0a10.788,10.788,0,0,1,5.021,1.426c2.45,1.45,4.934,2.862,7.337,4.227S43,8.438,45.451,9.887a10.584,10.584,0,0,1,4.9,6.295v0a9.6,9.6,0,0,1,.42,2.806V36.3a9.739,9.739,0,0,1-1.552,5.066,9.994,9.994,0,0,1-3.893,3.813c-4.977,2.862-10.026,5.783-14.6,8.447A10.189,10.189,0,0,1,25.516,55ZM21.827,4.3c-.7.408-1.4.8-2.1,1.188s-1.4.783-2.1,1.189c-1.219.707-2.453,1.416-3.692,2.126-2.274,1.3-4.626,2.654-6.9,4.009A6.856,6.856,0,0,0,3.4,19.108v16.9a5.311,5.311,0,0,0,.329,1.976,7.169,7.169,0,0,0,3.307,4.255c2.337,1.361,4.769,2.743,7.12,4.081l.155.087c2.384,1.355,4.85,2.757,7.277,4.17A7.42,7.42,0,0,0,24.9,51.642a7.291,7.291,0,0,0,4.019-.889C34.515,47.5,39.313,44.731,43.587,42.3a6.3,6.3,0,0,0,2.566-2.551,6.717,6.717,0,0,0,1.119-3.045l-.049-17.6a6.681,6.681,0,0,0-.279-1.885,7.209,7.209,0,0,0-3.3-4.348c-2.446-1.448-4.93-2.86-7.332-4.226S31.42,5.869,28.975,4.422a7.347,7.347,0,0,0-3.414-1h-.337A6.19,6.19,0,0,0,21.827,4.3ZM15.036,37.961c-2.066-2.066-2.051-4.7-2.03-8.675q0-.624,0-1.292,0-.713-.006-1.38c-.026-3.78-.045-6.511,2.031-8.588a7.109,7.109,0,0,1,5.058-1.953c2.258-.1,7.672-.1,9.819,0,4.38.2,6.8,2.626,7.01,7.011.1,2.268.1,7.681,0,9.818-.188,4.092-2.329,5.767-4.092,6.451-1.624.629-3.163.632-7.7.632H25c-.478,0-.941,0-1.389.007-.423,0-.833.005-1.229.005C19.239,40,16.884,39.808,15.036,37.961Zm9.939-.306,1.093,0c4.043.009,5.888.013,7.243-1.342s1.361-3.162,1.356-7.493v-.828c0-3.156-.013-3.535-.069-4.805-.224-4.94-3.595-4.909-8.259-4.866-.432,0-.879.008-1.333.008h-.029l-.044-.03c-3.107,0-3.517.014-4.729.057l-.058,0c-2.31.118-3.633.864-4.291,2.417-.607,1.435-.588,3.46-.567,5.8,0,.453.009.921.009,1.4,0,.565-.006,1.1-.012,1.615-.035,3.193-.058,5.3,1.354,6.707,1.356,1.36,3.2,1.358,7.655,1.355Zm-6.147-9.661a6.2,6.2,0,1,1,6.2,6.2A6.21,6.21,0,0,1,18.828,27.995Zm2.33,0a3.873,3.873,0,1,0,3.873-3.873A3.877,3.877,0,0,0,21.158,27.995Zm8.8-6.351a1.428,1.428,0,1,1,1.427,1.428A1.427,1.427,0,0,1,29.956,21.643Z" transform="translate(0 0.001)" fill="#a2a2a2"/>
</svg>
