<svg id="copy" xmlns="http://www.w3.org/2000/svg" width="16.496" height="20.602" viewBox="0 0 16.496 20.602">
  <g id="Group_508" data-name="Group 508">
    <path id="Path_2293" data-name="Path 2293" d="M59.856,85.4H50.279a1.63,1.63,0,0,0-1.629,1.629V100.77a1.63,1.63,0,0,0,1.629,1.629h9.577a1.63,1.63,0,0,0,1.629-1.629V87.029A1.635,1.635,0,0,0,59.856,85.4Zm.485,15.366a.49.49,0,0,1-.489.489H50.274a.49.49,0,0,1-.489-.489V87.029a.49.49,0,0,1,.489-.489h9.577a.49.49,0,0,1,.489.489Z" transform="translate(-48.65 -81.797)" fill="#a1adc8"/>
    <path id="Path_2294" data-name="Path 2294" d="M146.656,0h-9.577a1.63,1.63,0,0,0-1.629,1.629.57.57,0,1,0,1.139,0,.49.49,0,0,1,.489-.489h9.577a.49.49,0,0,1,.489.489V15.37a.49.49,0,0,1-.489.489.57.57,0,1,0,0,1.139,1.63,1.63,0,0,0,1.629-1.629V1.629A1.63,1.63,0,0,0,146.656,0Z" transform="translate(-131.788 0)" fill="#a1adc8"/>
  </g>
</svg>
