<svg xmlns="http://www.w3.org/2000/svg" width="50.773" height="55" viewBox="0 0 50.773 55">
  <path id="youtube" d="M24.7,55a10.48,10.48,0,0,1-4.864-1.489c-2.337-1.362-4.756-2.77-7.211-4.165-1.21-.688-2.4-1.375-3.6-2.063-1.22-.7-2.441-1.4-3.676-2.105A10.94,10.94,0,0,1,.508,39.059a9.9,9.9,0,0,1-.481-3.106V30.338c0-1.228-.006-2.469-.013-3.715C0,24.136-.013,21.564.026,19.046A10.321,10.321,0,0,1,5.346,9.83C9.131,7.609,12.715,5.544,16,3.69c.812-.491,1.669-.976,2.5-1.443.542-.305,1.085-.613,1.63-.929A10.241,10.241,0,0,1,25.757.005a10.8,10.8,0,0,1,5.022,1.426c2.449,1.45,4.934,2.862,7.336,4.227S43,8.438,45.451,9.887a10.589,10.589,0,0,1,4.9,6.3v0a9.632,9.632,0,0,1,.42,2.807V36.3a9.732,9.732,0,0,1-1.552,5.066,9.988,9.988,0,0,1-3.893,3.813c-4.976,2.862-10.026,5.784-14.6,8.448A10.2,10.2,0,0,1,25.516,55ZM21.827,4.3c-.7.408-1.4.8-2.1,1.188s-1.4.783-2.1,1.189Q15.8,7.742,13.939,8.807c-2.274,1.305-4.626,2.654-6.9,4.009A6.856,6.856,0,0,0,3.4,19.108v16.9a5.308,5.308,0,0,0,.329,1.976,7.171,7.171,0,0,0,3.307,4.256c2.337,1.361,4.769,2.743,7.12,4.08l.155.088c2.384,1.354,4.85,2.757,7.277,4.17A7.434,7.434,0,0,0,24.9,51.643a7.3,7.3,0,0,0,4.019-.889c5.593-3.257,10.39-6.023,14.664-8.453a6.3,6.3,0,0,0,2.567-2.551,6.734,6.734,0,0,0,1.119-3.044l-.05-17.6a6.713,6.713,0,0,0-.278-1.885,7.209,7.209,0,0,0-3.3-4.348c-2.447-1.448-4.93-2.86-7.333-4.225s-4.891-2.781-7.337-4.228a7.354,7.354,0,0,0-3.415-1h-.336A6.191,6.191,0,0,0,21.827,4.3Zm3.558,35.465h-.417a74.993,74.993,0,0,1-8.333-.324,2.952,2.952,0,0,1-2.525-2.3,25.038,25.038,0,0,1-.407-5.523,25,25,0,0,1,.412-5.524,2.951,2.951,0,0,1,2.524-2.3,78.57,78.57,0,0,1,8.751-.323,78.554,78.554,0,0,1,8.75.323,2.952,2.952,0,0,1,2.525,2.3,24.993,24.993,0,0,1,.4,5.524,25.038,25.038,0,0,1-.409,5.523,2.952,2.952,0,0,1-2.525,2.3,73.607,73.607,0,0,1-8.184.324Zm6.15-10.4a3.033,3.033,0,0,0-.436,1.836v2.73a3.018,3.018,0,0,0,.454,1.832,2.022,2.022,0,0,0,1.709.8,1.955,1.955,0,0,0,1.708-.844,2.013,2.013,0,0,0,.329-.846c.013-.141.031-.455.031-.91v-.206H33.887a8.81,8.81,0,0,1-.032.957.606.606,0,0,1-.631.566c-.485,0-.721-.36-.721-1.082V32.822h2.824V31.209a3.065,3.065,0,0,0-.437-1.836,1.961,1.961,0,0,0-1.666-.8A2.009,2.009,0,0,0,31.534,29.373Zm-2.806,7.2a1.119,1.119,0,0,0,1.129-.876A6.268,6.268,0,0,0,30,34.122v-3.1a6.01,6.01,0,0,0-.142-1.567,1.119,1.119,0,0,0-1.129-.879,1.91,1.91,0,0,0-1.459.845V26H25.857V36.461h1.412v-.755A1.923,1.923,0,0,0,28.728,36.568ZM20.573,34.83A3.961,3.961,0,0,0,20.7,35.99a.866.866,0,0,0,.909.579,2.262,2.262,0,0,0,1.614-.958v.851h1.414V28.668H23.221v5.956c-.313.443-.609.661-.893.661-.189,0-.3-.112-.33-.33a4.489,4.489,0,0,1-.013-.55V28.668H20.573Zm-5.128-7.356h1.66v8.987h1.571V27.474h1.691V26H15.445Zm11.823,7.464v-4.75a1.012,1.012,0,0,1,.7-.343c.407,0,.614.36.614,1.063v3.326c0,.7-.207,1.052-.614,1.052A1.01,1.01,0,0,1,27.268,34.937ZM32.5,31.646v-.721q0-1.081.708-1.081c.467,0,.7.36.7,1.081v.721Zm-4.662-9.467a3.954,3.954,0,0,1-.127-1.171V14.781h1.423v5.8a3.374,3.374,0,0,0,.017.555c.032.221.144.334.335.334.285,0,.585-.221.9-.668V14.781h1.426v7.876H30.392V21.8a2.3,2.3,0,0,1-1.631.968A.875.875,0,0,1,27.842,22.179Zm-5.071-.221a3.052,3.052,0,0,1-.446-1.852V17.349a3.061,3.061,0,0,1,.446-1.856,2.117,2.117,0,0,1,3.326,0,3.088,3.088,0,0,1,.443,1.856v2.758a3.08,3.08,0,0,1-.443,1.852,2.118,2.118,0,0,1-3.326,0Zm.981-4.9v3.313c0,.728.221,1.093.68,1.093s.681-.364.681-1.093V17.063c0-.729-.221-1.092-.681-1.092S23.753,16.334,23.753,17.063Zm-4.927,5.594v-4.28a25.848,25.848,0,0,0-.968-3.343c-.333-.981-.68-1.966-1.014-2.945h1.666l1.123,4.15,1.08-4.15h1.6l-1.9,6.288v4.28Z" fill="#a2a2a2"/>
</svg>
