<svg xmlns="http://www.w3.org/2000/svg" width="38.634" height="42.01" viewBox="0 0 38.634 42.01">
  <path id="eposta" d="M19.269,42.01c-.108,0-.22,0-.334-.006a6.6,6.6,0,0,1-2.917-.924C13.8,39.8,11.475,38.5,9.608,37.448l-.136-.077-.026-.015-.008,0C7.378,36.194,5.249,35,3.2,33.817A6.266,6.266,0,0,1,.289,30.11,4.594,4.594,0,0,1,0,28.389V13.665A5.959,5.959,0,0,1,3.207,8.184C5.2,7.01,7.255,5.841,9.247,4.711l.033-.019c1.044-.592,2.155-1.223,3.251-1.852.6-.344,1.207-.68,1.794-1L14.38,1.8l0,0c.567-.314,1.21-.67,1.841-1.032A5.5,5.5,0,0,1,19.219,0h.3a6.518,6.518,0,0,1,3.006.872c2.182,1.277,4.455,2.555,6.461,3.683,2.111,1.187,4.293,2.414,6.459,3.681a6.282,6.282,0,0,1,2.9,3.787,5.76,5.76,0,0,1,.246,1.642l.043,15.329a5.8,5.8,0,0,1-.984,2.651,5.527,5.527,0,0,1-2.26,2.222c-3.751,2.109-7.975,4.518-12.914,7.363A6.3,6.3,0,0,1,19.269,42.01ZM9.634,12.058a2.636,2.636,0,0,0-1.868.765,2.58,2.58,0,0,0-.774,1.848v12.2a2.629,2.629,0,0,0,2.642,2.613H29.008a2.628,2.628,0,0,0,2.642-2.613v-12.2a2.582,2.582,0,0,0-.774-1.848,2.639,2.639,0,0,0-1.868-.765ZM29.008,27.737H9.634a.889.889,0,0,1-.623-.256.869.869,0,0,1-.258-.615v-12.2a.87.87,0,0,1,.258-.616.892.892,0,0,1,.623-.255H29.008a.892.892,0,0,1,.623.255.873.873,0,0,1,.258.616v12.2a.871.871,0,0,1-.258.615A.889.889,0,0,1,29.008,27.737ZM10.754,14.671a.88.88,0,0,0-.623.255.866.866,0,0,0,0,1.232l4.541,4.492-4.541,4.492a.866.866,0,0,0,0,1.232.888.888,0,0,0,1.245,0l4.541-4.492L17.453,23.4a2.639,2.639,0,0,0,1.868.765,2.672,2.672,0,0,0,1.867-.765l1.535-1.518,4.541,4.492a.89.89,0,0,0,1.245,0,.864.864,0,0,0,0-1.232L23.969,20.65l4.541-4.492a.864.864,0,0,0,0-1.232.887.887,0,0,0-1.245,0l-7.322,7.241a.888.888,0,0,1-1.245,0l-7.322-7.241A.878.878,0,0,0,10.754,14.671Z" fill="#fff"/>
</svg>
