<svg xmlns="http://www.w3.org/2000/svg" width="37.194" height="40.29" viewBox="0 0 37.194 40.29">
  <path id="facebook" d="M18.1,40.29a7.677,7.677,0,0,1-3.563-1.09c-1.712-1-3.484-2.029-5.282-3.051-.886-.5-1.762-1.007-2.637-1.511-.894-.514-1.788-1.028-2.693-1.542A8.014,8.014,0,0,1,.372,28.613a7.254,7.254,0,0,1-.353-2.275V22.225c0-.9,0-1.808-.009-2.722C0,17.681-.01,15.8.019,13.952A7.56,7.56,0,0,1,3.916,7.2c2.772-1.627,5.4-3.14,7.807-4.5.595-.36,1.223-.715,1.83-1.057.4-.223.8-.449,1.194-.68A7.5,7.5,0,0,1,18.868,0a7.908,7.908,0,0,1,3.679,1.045c1.794,1.062,3.614,2.1,5.374,3.1S31.5,6.181,33.3,7.243a7.757,7.757,0,0,1,3.59,4.612v0a7.056,7.056,0,0,1,.308,2.056V26.592A7.129,7.129,0,0,1,36.057,30.3,7.317,7.317,0,0,1,33.2,33.1c-3.645,2.1-7.345,4.237-10.7,6.189a7.471,7.471,0,0,1-3.817,1ZM15.989,3.153c-.514.3-1.025.585-1.535.87s-1.025.574-1.537.871q-1.341.777-2.705,1.557C8.545,7.408,6.822,8.4,5.159,9.388A5.023,5.023,0,0,0,2.492,14V26.381a3.888,3.888,0,0,0,.241,1.448,5.253,5.253,0,0,0,2.422,3.118c1.712,1,3.494,2.01,5.216,2.989l.113.065c1.746.992,3.553,2.019,5.331,3.055a5.446,5.446,0,0,0,2.428.777,5.348,5.348,0,0,0,2.944-.651c4.1-2.386,7.612-4.412,10.743-6.192a4.616,4.616,0,0,0,1.88-1.868,4.933,4.933,0,0,0,.82-2.23L34.593,14a4.918,4.918,0,0,0-.2-1.381,5.281,5.281,0,0,0-2.417-3.185c-1.793-1.061-3.612-2.1-5.372-3.1S23.017,4.3,21.226,3.24a5.387,5.387,0,0,0-2.5-.734h-.246A4.536,4.536,0,0,0,15.989,3.153Zm.625,25.98v-8.52H13.747V17.292h2.867V14.842a4,4,0,0,1,4.272-4.389,23.837,23.837,0,0,1,2.561.13v2.971H21.689c-1.38,0-1.646.655-1.646,1.617v2.12h3.287L22.9,20.613H20.044v8.52Z" transform="translate(0 0)" fill="#e3e3e3"/>
</svg>
