<svg xmlns="http://www.w3.org/2000/svg" width="33.97" height="32.401" viewBox="0 0 33.97 32.401">
  <g id="price" transform="translate(0)">
    <g id="Group_274" data-name="Group 274" transform="translate(0 0)">
      <path id="Path_1271" data-name="Path 1271" d="M15.192,43.877h-.377a1.277,1.277,0,0,0,.048-.323V42.275a1.226,1.226,0,0,0-1.224-1.224H11.751a7.431,7.431,0,1,0-7.086,0H1.224A1.227,1.227,0,0,0,0,42.275v1.278a1.227,1.227,0,0,0,1.224,1.224H1.6a1.313,1.313,0,0,0-.048.323V46.38A1.226,1.226,0,0,0,2.777,47.6H15.192a1.226,1.226,0,0,0,1.224-1.224V45.1a1.226,1.226,0,0,0-1.224-1.224M1.677,34.521a6.531,6.531,0,1,1,6.531,6.531,6.531,6.531,0,0,1-6.531-6.531m.41,9.362H1.224A.331.331,0,0,1,.9,43.559V42.281a.318.318,0,0,1,.319-.318h.868ZM3.645,46.7H2.777a.319.319,0,0,1-.318-.318V45.1a.319.319,0,0,1,.318-.318h.868Zm.89-2.826H2.993v-1.92H4.535ZM6.088,46.7H4.552v-1.92H6.088Zm.89-2.826H5.442v-1.92H6.978ZM8.532,46.7H6.995v-1.92H8.532Zm.89-2.826H7.884v-1.92H9.421ZM10.98,46.7H9.437v-1.92H10.98Zm.89-2.826H10.327v-1.92H11.87ZM13.418,46.7H11.881v-1.92h1.537Zm.539-3.149a.319.319,0,0,1-.318.318H12.77v-1.92h.869a.324.324,0,0,1,.318.323Zm1.553,2.831a.319.319,0,0,1-.318.318h-.868v-1.92h.868a.319.319,0,0,1,.318.318Z" transform="translate(0 -15.203)" fill="#173d95"/>
      <path id="Path_1272" data-name="Path 1272" d="M55.186,37.438h-.378a1.258,1.258,0,0,0,.049-.323V35.836a1.226,1.226,0,0,0-1.224-1.224H51.75a7.432,7.432,0,1,0-7.086,0H41.223A1.226,1.226,0,0,0,40,35.836v1.278a1.226,1.226,0,0,0,1.224,1.224H41.6a1.277,1.277,0,0,0-.048.323v1.284a1.233,1.233,0,0,0,.048.318h-.377A1.227,1.227,0,0,0,40,41.489v1.278a1.226,1.226,0,0,0,1.224,1.224H53.638a1.226,1.226,0,0,0,1.224-1.224V41.489a1.236,1.236,0,0,0-.048-.319h.377a1.226,1.226,0,0,0,1.224-1.224V38.662a1.231,1.231,0,0,0-1.229-1.224M41.671,28.082A6.531,6.531,0,1,1,48.2,34.612a6.531,6.531,0,0,1-6.531-6.531m7.744,9.357H47.873v-1.92h1.542Zm-6.429-1.92h1.537v1.92H42.986Zm-.906,7.572h-.869a.322.322,0,0,1-.318-.318V41.489a.319.319,0,0,1,.318-.319h.869Zm0-5.647h-.869a.331.331,0,0,1-.318-.323V35.842a.319.319,0,0,1,.318-.318h.869Zm.372,2.5V38.662a.315.315,0,0,1,.318-.318h.868v1.92h-.868a.319.319,0,0,1-.318-.318m2.076,3.144H42.987V41.17h1.542Zm.016-4.746h1.537v1.92H44.545Zm2.427,4.746H45.435V41.17h1.537Zm0-5.652H45.435v-1.92h1.537Zm.016.906H48.53v1.92H46.988ZM49.42,43.09H47.878V41.17H49.42Zm.011-4.746h1.537v1.92H49.431Zm2.427,4.746H50.321V41.17h1.537Zm0-5.652H50.321v-1.92h1.537Zm.016.906h1.537v1.92H51.874Zm2.076,4.428a.319.319,0,0,1-.318.318h-.869V41.17h.869a.319.319,0,0,1,.318.319Zm0-5.657a.319.319,0,0,1-.318.318h-.869v-1.92h.869a.323.323,0,0,1,.318.323Zm1.558,2.831a.319.319,0,0,1-.318.318h-.868v-1.92h.868a.319.319,0,0,1,.318.318Z" transform="translate(-22.445 -11.59)" fill="#173d95"/>
      <path id="Path_1273" data-name="Path 1273" d="M18.756,4.545h.75V8.623a.757.757,0,0,0,.755.755h1.791a.757.757,0,0,0,.755-.755V4.545h.75a.725.725,0,0,0,.653-.4.711.711,0,0,0-.081-.761L21.727.269a.742.742,0,0,0-1.143,0L18.179,3.381a.722.722,0,0,0-.075.761.738.738,0,0,0,.653.4M21.161,1l2.033,2.637h-.836a.441.441,0,0,0-.318.135.449.449,0,0,0-.135.318V8.471H20.412V4.092a.456.456,0,0,0-.453-.453h-.836Z" transform="translate(-10.116 0)" fill="#173d95"/>
      <path id="Path_1274" data-name="Path 1274" d="M31.83,9.647a.725.725,0,0,0,.653.4h.75v5.075a.757.757,0,0,0,.755.755h1.791a.757.757,0,0,0,.755-.755V10.051h.75a.711.711,0,0,0,.647-.4.72.72,0,0,0-.075-.761l-2.4-3.112a.742.742,0,0,0-1.144,0L31.905,8.886a.72.72,0,0,0-.075.761m3.052-3.134L36.921,9.15h-.836a.456.456,0,0,0-.453.453v5.382h-1.5V9.6a.456.456,0,0,0-.453-.453h-.836Z" transform="translate(-17.818 -3.089)" fill="#173d95"/>
      <path id="Path_1275" data-name="Path 1275" d="M58.116,36.259a.452.452,0,0,0-.442-.442H55.862a1.689,1.689,0,0,0,.313-.987V33.9h.847a.437.437,0,0,0,.442-.442.444.444,0,0,0-.442-.442h-.847v-.949a.818.818,0,0,1,.448-.733.741.741,0,0,1,.793.048.445.445,0,0,0,.614-.118.454.454,0,0,0-.124-.615,1.61,1.61,0,0,0-1.694-.1,1.717,1.717,0,0,0-.922,1.521v.949h-.852a.444.444,0,0,0-.442.442.437.437,0,0,0,.442.442h.852v.928a.854.854,0,0,1-.852.852.437.437,0,0,0-.442.442v.135a.437.437,0,0,0,.442.442h3.236a.444.444,0,0,0,.442-.442" transform="translate(-30.299 -17.033)" fill="#173d95"/>
      <path id="Path_1276" data-name="Path 1276" d="M17,42.569v-.3a1.683,1.683,0,0,0-.453-3.306.782.782,0,1,1,.782-.782.453.453,0,0,0,.906,0A1.684,1.684,0,0,0,17,36.561v-.313a.453.453,0,1,0-.906,0v.313a1.683,1.683,0,0,0,.453,3.306.782.782,0,1,1-.782.782.453.453,0,0,0-.906,0,1.684,1.684,0,0,0,1.235,1.618v.3a.453.453,0,1,0,.906,0" transform="translate(-8.337 -20.086)" fill="#173d95"/>
    </g>
  </g>
</svg>
