<svg id="travel" xmlns="http://www.w3.org/2000/svg" width="33.97" height="25.482" viewBox="0 0 33.97 25.482">
  <g id="Group_256" data-name="Group 256" transform="translate(0 0)">
    <path id="Path_1256" data-name="Path 1256" d="M47.736,10.236a1.99,1.99,0,0,0-1.566-.786,5.819,5.819,0,0,0-2.825.769l-.327.183V6.116a2.534,2.534,0,0,0-2.532-2.531h-5.4V1.952A1.955,1.955,0,0,0,33.136,0H29.878a1.954,1.954,0,0,0-1.952,1.952V3.584H22.565a2.534,2.534,0,0,0-2.532,2.531V16.434a2.534,2.534,0,0,0,2.532,2.532H32.42l1.7,1.44a.887.887,0,0,1,.231.329l.9,1.941a1.639,1.639,0,0,0,1.43.924,1.712,1.712,0,0,0,.949-.314l.184-.147a2.337,2.337,0,0,0,.829-2.406l-.155-.514,1.521-1.06,1.495,2.557a1.66,1.66,0,0,0,1.368.8,1.708,1.708,0,0,0,1.238-.566,3.13,3.13,0,0,0,.611-2.6l-.685-2.968,1.855-1.314a5.725,5.725,0,0,0,2.163-3.1,2.049,2.049,0,0,0-.322-1.723M29.006,3.584V1.952a.909.909,0,0,1,.908-.908h3.258a.909.909,0,0,1,.908.908V3.584Zm12.967,7.742-1.1.88-2.779-1.469V4.665h2.392a1.471,1.471,0,0,1,1.487,1.487Zm1.7,8.25a1.912,1.912,0,0,1-.422,1.683.524.524,0,0,1-.373.173.461.461,0,0,1-.456-.274l-2.074-3.5-3.083,2.165.323,1.225a1.2,1.2,0,0,1-.437,1.28l-.175.141a.5.5,0,0,1-.324.125.485.485,0,0,1-.454-.311l-.9-2.018a1.881,1.881,0,0,0-.522-.689L33.112,18.2a.491.491,0,0,1,0-.782l.181-.144A1.177,1.177,0,0,1,34,17.01a1.126,1.126,0,0,1,.618.175l1.1.646L38.6,15.44,35.732,12.5a.531.531,0,0,1-.15-.443.556.556,0,0,1,.279-.417,1.809,1.809,0,0,1,.823-.168,1.888,1.888,0,0,1,.936.243l3.345,1.777,2.278-1.9a4.6,4.6,0,0,1,2.838-1.026.91.91,0,0,1,.794.339.888.888,0,0,1,.159.769,4.359,4.359,0,0,1-1.753,2.515l-2.407,1.662-.041.028Zm-6.658-9.15h-.256a2.91,2.91,0,0,0-1.21.269,1.6,1.6,0,0,0-.927,1.144,1.7,1.7,0,0,0,.412,1.435l2.049,2.088-1.421,1.191L35.2,16.3a2.433,2.433,0,0,0-1.162-.3,2.33,2.33,0,0,0-1.389.463l-.162.087a1.65,1.65,0,0,0-.582,1.128l-.015.2H26.037V4.665H37.013ZM21.041,6.116a1.471,1.471,0,0,1,1.487-1.487h2.429V17.921H22.528a1.471,1.471,0,0,1-1.487-1.487Z" transform="translate(-14.156 0)" fill="#173d95"/>
    <path id="Path_1257" data-name="Path 1257" d="M17.573,51.921a.6.6,0,0,0-.257.056,18.888,18.888,0,0,1-9.249,2.972c-3.441,0-5.16-1.556-5.879-2.484C.337,50.084.821,46.645,3.364,44.1a.523.523,0,0,0,0-.739.536.536,0,0,0-.741,0c-2.961,2.891-3.473,6.91-1.246,9.774A7.942,7.942,0,0,0,7.572,56.02h.437A20.483,20.483,0,0,0,17.852,52.9a.543.543,0,0,0,.214-.712.567.567,0,0,0-.494-.269" transform="translate(0 -30.537)" fill="#173d95"/>
  </g>
</svg>
