<svg xmlns="http://www.w3.org/2000/svg" width="39.7" height="30.209" viewBox="0 0 39.7 30.209">
  <path id="Path_1258" data-name="Path 1258" d="M39.653,4.988a.658.658,0,0,0-.511-.4,12.172,12.172,0,0,1-5.847-2.466A5.853,5.853,0,0,0,29.324,0a3.353,3.353,0,0,0-.5.038,3.641,3.641,0,0,0-2.6,1.986c-2.455,4.85-4.409,5.422-5.713,5.49V6.591a2.71,2.71,0,0,0,2.138-2.605,2.794,2.794,0,0,0-5.584,0A2.711,2.711,0,0,0,19.2,6.591v.923c-1.306-.066-3.264-.633-5.718-5.489a3.689,3.689,0,0,0-2.6-1.986,3.323,3.323,0,0,0-.5-.038A5.863,5.863,0,0,0,6.392,2.13,11.829,11.829,0,0,1,.555,4.585a.656.656,0,0,0-.508.4.666.666,0,0,0,.087.646,24.314,24.314,0,0,0,11.989,7.6,9.562,9.562,0,0,0,1.628.308,2.033,2.033,0,0,0-.1.887c.18,1.439,1.868,2.9,4.653,4.046-.37.192-.693.369-.934.517-1.161.713-1.736,1.585-1.617,2.455.112.823.809,1.513,2.129,2.093a4.932,4.932,0,0,0-1.036.735,1.341,1.341,0,0,0-.407,1.25c.167.812,1.053,1.529,2.753,2.244v1.792a.654.654,0,1,0,1.309,0v-1.8a9.555,9.555,0,0,0,1.721-.893.727.727,0,0,0,.1-.05,1.819,1.819,0,0,0,.921-1.817,2.694,2.694,0,0,0-1.7-1.6q.512-.18,1.06-.355a1.865,1.865,0,0,0,.742-.453,1.8,1.8,0,0,0,.557-1.7c-.225-1-1.381-1.854-2.487-2.467.543-.251,1.059-.486,1.476-.673l.078-.035.068-.034c1.919-1.1,2.961-2.3,3.014-3.455a1.977,1.977,0,0,0-.121-.762,9.06,9.06,0,0,0,1.648-.231,24.275,24.275,0,0,0,11.985-7.6.656.656,0,0,0,.089-.644m-20.848-1a1.053,1.053,0,0,1,2.094,0,1.053,1.053,0,0,1-2.094,0M14.953,14.259a.785.785,0,0,1,.2-.6l.082-.1.129.024a1.636,1.636,0,0,0,.3.029,2.677,2.677,0,0,0,1.441-.487A2.322,2.322,0,0,0,18.179,11.7a1.092,1.092,0,0,0-.191-.857,1.237,1.237,0,0,0-1.027-.457,2.688,2.688,0,0,0-1.44.486,2.35,2.35,0,0,0-1.061,1.38l-.1,0a7.873,7.873,0,0,1-1.881-.291,24.086,24.086,0,0,1-3.157-1.158,17.8,17.8,0,0,0,2.725-1.328.435.435,0,1,0-.476-.729A21.142,21.142,0,0,1,8.249,10.3c-.644-.326-1.243-.666-1.8-1.01a15.3,15.3,0,0,0,4.307-2.141.437.437,0,1,0-.563-.668,16.569,16.569,0,0,1-4.679,2.2C4.958,8.3,4.456,7.923,4,7.562A19.2,19.2,0,0,0,9.73,4.474a.435.435,0,0,0-.6-.633C7.615,5.273,4.389,6.5,3.231,6.915c-.412-.361-.765-.7-1.055-.987l-.269-.27.369-.1A12.463,12.463,0,0,0,7.318,3.048a4.687,4.687,0,0,1,3.058-1.739,1.929,1.929,0,0,1,.3.023,2.37,2.37,0,0,1,1.636,1.282C14.874,7.68,17.133,8.7,19.2,8.818v8.6c-2.795-1.075-4.146-2.354-4.244-3.157m2.1,7.007c-.048-.3.346-.761,1-1.167.276-.168.675-.382,1.135-.614v3.156c-2.07-.7-2.142-1.33-2.139-1.375m.769,4.155-.13-.164.158-.137a6.32,6.32,0,0,1,1.343-.784v1.992a3.965,3.965,0,0,1-1.37-.907m4.166-.139-.091.131a1.623,1.623,0,0,1-.335.324c-.01.006-.021.009-.03.015a6.482,6.482,0,0,1-1.032.577V24.4a3.563,3.563,0,0,1,1.389.757Zm.63-4.112c.04.16-.023.313-.205.5a.521.521,0,0,1-.21.128c-.482.153-1.078.353-1.7.583V19.42c1.043.544,2,1.212,2.118,1.75m14.9-15.233c-.288.29-.639.623-1.048.982-1.146-.407-4.386-1.641-5.912-3.077a.435.435,0,1,0-.6.633,19.3,19.3,0,0,0,5.738,3.092c-.449.361-.95.736-1.5,1.115a16.639,16.639,0,0,1-4.693-2.2.437.437,0,1,0-.563.668A15.391,15.391,0,0,0,33.267,9.29c-.558.345-1.159.685-1.8,1.012A21.061,21.061,0,0,1,28.119,8.75a.435.435,0,1,0-.476.729,17.591,17.591,0,0,0,2.741,1.336,24,24,0,0,1-3.131,1.149,8.1,8.1,0,0,1-1.8.205c-.08,0-.158,0-.236-.007a2.416,2.416,0,0,0-1.037-1.288,2.717,2.717,0,0,0-1.447-.485,1.225,1.225,0,0,0-1.02.455,1.105,1.105,0,0,0-.192.858,2.318,2.318,0,0,0,1.071,1.422,2.677,2.677,0,0,0,1.441.487,1.513,1.513,0,0,0,.422-.064.78.78,0,0,1,.284.62c-.026.508-.649,1.394-2.34,2.365l-.053.024c-.51.229-1.165.527-1.843.845V8.822c2.065-.123,4.324-1.141,6.882-6.206a2.365,2.365,0,0,1,1.634-1.281,1.939,1.939,0,0,1,.3-.023,4.74,4.74,0,0,1,3.087,1.769,12.325,12.325,0,0,0,5.018,2.491l.368.1Z" transform="translate(0 -0.001)" fill="#173d95"/>
</svg>
