<svg id="agriculture" xmlns="http://www.w3.org/2000/svg" width="33.97" height="35.713" viewBox="0 0 33.97 35.713">
  <g id="Group_265" data-name="Group 265" transform="translate(0)">
    <path id="Path_1261" data-name="Path 1261" d="M36.607,5.7a.525.525,0,0,1-.525-.524V.525a.525.525,0,1,1,1.049,0V5.172a.525.525,0,0,1-.524.524" transform="translate(-19.655 0)" fill="#173d95"/>
    <path id="Path_1262" data-name="Path 1262" d="M51.443,10.387A.524.524,0,0,1,50.99,9.6l2.323-4.024a.524.524,0,0,1,.717-.192.525.525,0,0,1,.192.717L51.9,10.125a.527.527,0,0,1-.455.262" transform="translate(-27.738 -2.895)" fill="#173d95"/>
    <path id="Path_1263" data-name="Path 1263" d="M62.335,23.314a.525.525,0,0,1-.263-.979L66.1,20.011a.525.525,0,0,1,.525.909L62.6,23.244a.531.531,0,0,1-.262.07" transform="translate(-33.67 -10.863)" fill="#173d95"/>
    <path id="Path_1264" data-name="Path 1264" d="M6.064,23.314a.528.528,0,0,1-.261-.07L1.778,20.92a.525.525,0,0,1,.524-.909l4.024,2.324a.525.525,0,0,1,.192.717.528.528,0,0,1-.455.263" transform="translate(-0.826 -10.863)" fill="#173d95"/>
    <path id="Path_1265" data-name="Path 1265" d="M18.991,10.387a.528.528,0,0,1-.455-.263L16.212,6.1a.525.525,0,1,1,.909-.524L19.444,9.6a.525.525,0,0,1-.453.787" transform="translate(-8.793 -2.894)" fill="#173d95"/>
    <path id="Path_1266" data-name="Path 1266" d="M13.551,44.9A13.361,13.361,0,0,1,3.08,40.361C.456,37.247-.538,32.918.279,28.171a.525.525,0,0,1,.429-.428,18.714,18.714,0,0,1,3.135-.273,16.741,16.741,0,0,1,1.866.1l.242.027.011-.243a11,11,0,0,1,21.979.007l.011.244.243-.028a16.566,16.566,0,0,1,1.929-.112,18.716,18.716,0,0,1,3.137.274.524.524,0,0,1,.429.427c.818,4.749-.175,9.078-2.8,12.188A13.368,13.368,0,0,1,20.417,44.9h0a18.826,18.826,0,0,1-3.157-.275.551.551,0,0,1-.163-.057l-.11-.061-.11.061a.493.493,0,0,1-.14.052,18.8,18.8,0,0,1-3.183.281m8.974-3.964a3.829,3.829,0,0,0-1.694.446L20.8,41.4l-2.343,2.344.487.042c.5.043.992.065,1.474.065a12.378,12.378,0,0,0,9.572-4.043c2.389-2.755,3.367-6.633,2.754-10.92l-.025-.169-.169-.024a17.582,17.582,0,0,0-2.443-.176,12.462,12.462,0,0,0-9.374,3.823,13.1,13.1,0,0,0-3.063,10.176l.043.486,3.652-3.652.017-.037a2.651,2.651,0,0,0,0-2.834.524.524,0,1,1,.774-.707,3.024,3.024,0,0,1,.637,1.628l.049.477,2.132-2.132.017-.037c.853-1.849,0-2.826-.007-2.836a.525.525,0,1,1,.777-.706,3,3,0,0,1,.637,1.628l.049.477.94-.94a.525.525,0,0,1,.742.743l-2.179,2.178.488.041a3.209,3.209,0,0,1,1.507.506l-.716.789a2.284,2.284,0,0,0-1.093-.258,3.828,3.828,0,0,0-1.694.446l-.033.016L22.34,39.858l.488.041a3.219,3.219,0,0,1,1.507.506l-.715.789a2.276,2.276,0,0,0-1.094-.258M3.869,28.517a17.575,17.575,0,0,0-2.447.176l-.169.024-.024.169c-.613,4.288.366,8.167,2.755,10.923a12.38,12.38,0,0,0,9.573,4.039c.482,0,.977-.022,1.472-.065l.487-.041L13.172,41.4l-.033-.016a3.832,3.832,0,0,0-1.695-.446,2.271,2.271,0,0,0-1.094.258l-.716-.789a3.2,3.2,0,0,1,1.508-.506l.488-.041L9.567,37.794l-.033-.016a3.833,3.833,0,0,0-1.694-.445,2.281,2.281,0,0,0-1.094.257L6.03,36.8a3.2,3.2,0,0,1,1.508-.506l.488-.041L5.847,34.074a.525.525,0,0,1,.742-.742l.94.94.049-.477a3.2,3.2,0,0,1,.5-1.446l.79.717a2.893,2.893,0,0,0,.117,2.642L9,35.745l2.132,2.132.049-.476a3.2,3.2,0,0,1,.5-1.446l.79.717a2.889,2.889,0,0,0,.117,2.642l.017.037L16.259,43l.043-.486a13.107,13.107,0,0,0-3.066-10.179,12.453,12.453,0,0,0-9.368-3.821m13.083-10.6A10.02,10.02,0,0,0,7,27.582L7,27.772l.186.039a12.456,12.456,0,0,1,9.584,8.7l.218.708.217-.708a12.447,12.447,0,0,1,9.519-8.685l.184-.04L26.9,27.6a10.019,10.019,0,0,0-9.949-9.679" transform="translate(0 -9.188)" fill="#173d95"/>
  </g>
</svg>
