<svg id="logistic" xmlns="http://www.w3.org/2000/svg" width="33.97" height="33.97" viewBox="0 0 33.97 33.97">
  <g id="Group_268" data-name="Group 268">
    <path id="Path_1267" data-name="Path 1267" d="M14.145,74.416H9.615a1.7,1.7,0,0,0-1.7,1.7v1.132a1.7,1.7,0,0,0,1.7,1.7h4.529a1.7,1.7,0,0,0,1.7-1.7V76.115a1.7,1.7,0,0,0-1.7-1.7m.566,2.831a.566.566,0,0,1-.566.566H9.615a.566.566,0,0,1-.566-.566V76.115a.566.566,0,0,1,.566-.566h4.529a.566.566,0,0,1,.566.566Z" transform="translate(-5.086 -47.806)" fill="#173d95"/>
    <path id="Path_1268" data-name="Path 1268" d="M25.477,0a8.5,8.5,0,0,0-8.492,8.493c0,.19.009.378.018.566H2.831A2.834,2.834,0,0,0,0,11.889v19.25A2.835,2.835,0,0,0,2.831,33.97H23.213a2.834,2.834,0,0,0,2.831-2.831V21.8c1.359-1.03,7.926-6.375,7.926-13.3A8.5,8.5,0,0,0,25.477,0M10.191,10.191h5.662v7.576l-2.578-1.289a.565.565,0,0,0-.506,0l-2.578,1.289Zm14.72,20.948a1.7,1.7,0,0,1-1.7,1.7H2.831a1.7,1.7,0,0,1-1.7-1.7V11.889a1.7,1.7,0,0,1,1.7-1.7H9.059v8.493a.566.566,0,0,0,.819.51l3.144-1.575,3.144,1.575a.566.566,0,0,0,.819-.51V10.191h.135c.93,6.092,6.545,10.663,7.791,11.606ZM25.477,20.8c-1.472-1.157-7.36-6.173-7.36-12.31a7.36,7.36,0,1,1,14.72,0c0,6.137-5.888,11.153-7.36,12.31" fill="#173d95"/>
    <path id="Path_1269" data-name="Path 1269" d="M61.079,7.917a5.662,5.662,0,1,0,5.662,5.662,5.662,5.662,0,0,0-5.662-5.662m0,10.191a4.529,4.529,0,1,1,4.529-4.529,4.529,4.529,0,0,1-4.529,4.529" transform="translate(-35.601 -5.086)" fill="#173d95"/>
  </g>
</svg>
