<svg id="tec" xmlns="http://www.w3.org/2000/svg" width="33.97" height="36.722" viewBox="0 0 33.97 36.722">
  <g id="Group_262" data-name="Group 262" transform="translate(0 0)">
    <path id="Path_1259" data-name="Path 1259" d="M33.464,45.86H31.67V32.425a1.9,1.9,0,0,0-1.9-1.9H22.518a.506.506,0,1,0,0,1.013h7.256a.886.886,0,0,1,.884.885V45.86H20.237a.506.506,0,0,0-.492.385l-.31,1.265h-4.9l-.31-1.265a.506.506,0,0,0-.492-.385H3.313V32.425a.885.885,0,0,1,.884-.885h7.025a.506.506,0,1,0,0-1.013H4.2a1.9,1.9,0,0,0-1.9,1.9V45.86H.506A.506.506,0,0,0,0,46.366H0v1.281a4.151,4.151,0,0,0,4.146,4.146H29.824a4.151,4.151,0,0,0,4.146-4.146V46.367a.506.506,0,0,0-.506-.506m-.507,1.787a3.136,3.136,0,0,1-3.133,3.133H4.146a3.136,3.136,0,0,1-3.133-3.133v-.774H13.336l.31,1.265a.506.506,0,0,0,.492.385h5.7a.5.5,0,0,0,.492-.385l.31-1.265H32.957Z" transform="translate(0 -15.071)" fill="#173d95"/>
    <path id="Path_1260" data-name="Path 1260" d="M15.81,9.364a1.9,1.9,0,0,0,1.33-1.33h2.891V25.423H17.836a.506.506,0,0,0,0,1.013H30.259a.506.506,0,1,0,0-1.013H27.14V11.39h2.891a1.905,1.905,0,1,0,0-1.013h-3.4a.506.506,0,0,0-.506.506h0V25.423H24.092V3.742a1.9,1.9,0,1,0-1.013,0V25.423H21.044V7.528a.506.506,0,0,0-.506-.506h-3.4a1.9,1.9,0,1,0-1.33,2.342m16.048.628a.892.892,0,1,1-.892.892.892.892,0,0,1,.892-.892M22.694,1.914a.892.892,0,1,1,.892.892.892.892,0,0,1-.892-.892M15.312,6.636a.892.892,0,1,1-.892.892.892.892,0,0,1,.892-.892" transform="translate(-6.614 0)" fill="#173d95"/>
  </g>
</svg>
