<svg id="at" xmlns="http://www.w3.org/2000/svg" width="20.507" height="20.706" viewBox="0 0 20.507 20.706">
  <path id="Path_1341" data-name="Path 1341" d="M21.76,9.238l-.795,6.755a11.015,11.015,0,0,0-.089,1.366c0,.648.232.97.7.97q1.111,0,2.132-1.529a6.523,6.523,0,0,0,1.016-3.707,6.435,6.435,0,0,0-2.26-5.107,8.074,8.074,0,0,0-5.488-1.965,8.033,8.033,0,0,0-5.948,2.435,8.188,8.188,0,0,0-2.409,6,8.088,8.088,0,0,0,8.618,8.25A14.036,14.036,0,0,0,23.725,21l.854,1.974a15.94,15.94,0,0,1-7.344,1.811,10.686,10.686,0,0,1-8.02-3.053,10.086,10.086,0,0,1-2.971-7.285A9.783,9.783,0,0,1,9.367,7.05a10.543,10.543,0,0,1,7.546-2.974,10.063,10.063,0,0,1,7,2.559,8.332,8.332,0,0,1,2.838,6.458,8.422,8.422,0,0,1-1.594,5.043,4.67,4.67,0,0,1-3.874,2.207,2.467,2.467,0,0,1-2.458-1.5A3.75,3.75,0,0,1,15.788,20.4a3.98,3.98,0,0,1-3.144-1.539,6.013,6.013,0,0,1-1.308-4.043,5.986,5.986,0,0,1,1.471-4.2A4.608,4.608,0,0,1,16.321,9a3.2,3.2,0,0,1,2.833,1.247l.119-1.015H21.76Zm-5.784,8.8a2.689,2.689,0,0,0,2.088-1.128A4.417,4.417,0,0,0,19,13.994a2.664,2.664,0,0,0-.716-1.821,2.284,2.284,0,0,0-3.623.193,4.216,4.216,0,0,0-.735,2.574,3.963,3.963,0,0,0,.573,2.222A1.714,1.714,0,0,0,15.976,18.042Z" transform="translate(-6.243 -4.076)" fill="#a2b3d9"/>
</svg>
