<svg id="profile" xmlns="http://www.w3.org/2000/svg" width="50.773" height="55" viewBox="0 0 50.773 55">
  <g id="Group_21" data-name="Group 21">
    <path id="Path_31" data-name="Path 31" d="M38.151,37.381c4.14,0,7.507-3.947,7.507-8.8,0-4.635-3.087-7.873-7.507-7.873s-7.507,3.238-7.507,7.873c0,4.852,3.368,8.8,7.507,8.8m0-13.2c2.439,0,4.016,1.727,4.016,4.4,0,2.937-1.8,5.326-4.016,5.326s-4.016-2.389-4.016-5.326c0-2.673,1.577-4.4,4.016-4.4" transform="translate(-12.81 -8.721)" fill="#002069"/>
    <path id="Path_32" data-name="Path 32" d="M21.722,60.027c-.121.783-.178,2.936-.178,3.171a1.746,1.746,0,0,0,3.492,0c0-.728.062-2.253.112-2.554.79-4.349,5.438-5.261,9.2-5.261,2.6,0,8.7.561,9.254,5.731,0,.094.009.312.02.573.016.379.037.854.037,1.164a1.746,1.746,0,0,0,3.492,0c0-.064,0-1.585-.059-2.115-.6-5.527-5.368-8.826-12.744-8.826-7.059,0-11.66,2.956-12.625,8.118" transform="translate(-9.006 -21.86)" fill="#002069"/>
    <path id="Path_33" data-name="Path 33" d="M50.353,16.186v0a10.587,10.587,0,0,0-4.9-6.295C43,8.438,40.517,7.025,38.114,5.659s-4.887-2.777-7.336-4.228A10.785,10.785,0,0,0,25.756.005a10.233,10.233,0,0,0-5.625,1.313c-.545.316-1.089.623-1.631.929-.829.468-1.687.952-2.5,1.443C12.715,5.543,9.13,7.609,5.346,9.83a10.321,10.321,0,0,0-5.32,9.216C-.014,21.564,0,24.136.013,26.623c.006,1.247.013,2.488.013,3.716v5.615A9.893,9.893,0,0,0,.507,39.06a10.941,10.941,0,0,0,4.844,6.119c1.235.7,2.455,1.4,3.676,2.105,1.195.687,2.39,1.375,3.6,2.063,2.455,1.395,4.874,2.8,7.211,4.165A10.474,10.474,0,0,0,24.7,55h.815a10.2,10.2,0,0,0,5.21-1.371c4.575-2.664,9.625-5.586,14.6-8.448a9.992,9.992,0,0,0,3.893-3.813A9.735,9.735,0,0,0,50.773,36.3V18.993a9.626,9.626,0,0,0-.42-2.807m-4.2,23.565A6.3,6.3,0,0,1,43.587,42.3c-4.274,2.43-9.072,5.2-14.665,8.452a7.3,7.3,0,0,1-4.02.889,7.43,7.43,0,0,1-3.313-1.061c-2.427-1.413-4.893-2.815-7.277-4.17l-.155-.088c-2.351-1.337-4.783-2.719-7.12-4.08A7.17,7.17,0,0,1,3.73,37.989,5.321,5.321,0,0,1,3.4,36.012v-16.9a6.857,6.857,0,0,1,3.641-6.293c2.27-1.355,4.622-2.7,6.9-4.008,1.238-.71,2.473-1.418,3.693-2.126.7-.406,1.4-.8,2.1-1.189s1.394-.78,2.1-1.187a6.19,6.19,0,0,1,3.4-.884h.336a7.351,7.351,0,0,1,3.414,1C31.42,5.869,33.9,7.282,36.312,8.65s4.886,2.777,7.333,4.226a7.207,7.207,0,0,1,3.3,4.347,6.688,6.688,0,0,1,.279,1.885l.049,17.6a6.725,6.725,0,0,1-1.119,3.044" transform="translate(0 0)" fill="#002069"/>
  </g>
</svg>
