<?xml version="1.0" encoding="utf-8"?>
<!-- Generator: Adobe Illustrator 27.0.0, SVG Export Plug-In . SVG Version: 6.00 Build 0)  -->
<svg version="1.1" id="quality" xmlns="http://www.w3.org/2000/svg" xmlns:xlink="http://www.w3.org/1999/xlink" x="0px" y="0px"
	 viewBox="0 0 92.7 116.7" style="enable-background:new 0 0 92.7 116.7;" xml:space="preserve">
<style type="text/css">
	.st0{fill:#002069;}
</style>
<g id="Group_402">
	<path id="Path_1343" class="st0" d="M53.2,39.7l-8.9,8.9l-2.4-2.4c-0.8-0.8-2.2-0.8-3,0c-0.8,0.8-0.8,2.2,0,3l3.8,3.8
		c0.4,0.4,0.9,0.6,1.5,0.6c0.6,0,1.1-0.2,1.5-0.6l10.4-10.4c0.8-0.8,0.8-2.2,0-3C55.4,38.9,54,38.9,53.2,39.7"/>
	<path id="Path_1344" class="st0" d="M46.4,23C32.9,23,21.9,34,21.9,47.4c0,13.5,10.9,24.4,24.4,24.4s24.4-10.9,24.4-24.4
		c0-6.5-2.6-12.7-7.2-17.3C59.1,25.6,52.8,23,46.4,23 M46.4,68.1c-11.4,0-20.7-9.2-20.7-20.7s9.2-20.7,20.7-20.7S67,36,67,47.4l0,0
		C67,58.9,57.8,68.1,46.4,68.1"/>
	<path id="Path_1345" class="st0" d="M85.5,40.1l-4.4-4.4c-1.2-1.2-1.9-2.9-1.9-4.6v-6.2c0-5.7-4.6-10.3-10.3-10.3h-6.2
		c-1.7,0-3.4-0.7-4.6-1.9l-4.4-4.4c-4-4-10.6-4-14.6,0l-4.4,4.4c-1.2,1.2-2.9,1.9-4.6,1.9h-6.2c-5.7,0-10.3,4.6-10.3,10.3v6.2
		c0,1.7-0.7,3.4-1.9,4.6l-4.4,4.4c-4,4-4,10.6,0,14.6l4.4,4.4c1.2,1.2,1.9,2.9,1.9,4.6V70c0,4.7,3.2,8.8,7.7,10l1.1,0.3l-9,23.2
		l12.6-1.9l8.1,9.9L42.6,89l0.9,0.2c1.9,0.5,3.9,0.5,5.7,0l0.9-0.3l8.7,22.4l8-9.9l12.6,1.9l-9-23.2l1.1-0.3c4.5-1.2,7.7-5.3,7.7-10
		v-6.2c0-1.7,0.7-3.4,1.9-4.6l4.4-4.4C89.6,50.7,89.6,44.2,85.5,40.1 M32.8,104l-5.3-6.5l-8.3,1.2l7.1-18.4H30
		c1.7,0,3.4,0.7,4.6,1.9l4.7,4.7L32.8,104z M73.5,98.7l-8.3-1.3l-5.3,6.5l-6.6-17l4.7-4.7c1.2-1.2,2.9-1.9,4.6-1.9h3.7L73.5,98.7z
		 M82.8,52.1l-4.4,4.4c-1.9,1.9-3,4.6-3,7.3V70c0,3.6-2.9,6.5-6.6,6.6h-6.2c-2.7,0-5.4,1.1-7.3,3L51,83.9c-0.3,0.3-0.6,0.6-1,0.8
		c-0.2,0.1-0.4,0.2-0.6,0.3c-0.9,0.5-2,0.8-3.1,0.8c-1.1,0-2.1-0.3-3-0.8c-0.2-0.1-0.4-0.2-0.5-0.3l-0.1-0.1c-0.3-0.2-0.7-0.5-1-0.8
		l-4.4-4.4c-1.9-1.9-4.6-3-7.3-3h-6.2c-3.6,0-6.5-2.9-6.6-6.6v-6.2c0-2.7-1.1-5.4-3-7.3l-4.4-4.4c-2.6-2.6-2.6-6.7,0-9.3l4.4-4.4
		c1.9-1.9,3-4.6,3-7.3v-6.2c0-3.2,2.4-6,5.6-6.5v-0.1H30c2.7,0,5.4-1.1,7.3-3l4.4-4.4c2.6-2.6,6.7-2.6,9.3,0l4.4,4.4
		c1.9,1.9,4.6,3,7.3,3h6.2c3.6,0,6.5,2.9,6.6,6.6v6.2c0,2.7,1.1,5.4,3,7.3l4.4,4.4C85.4,45.4,85.4,49.5,82.8,52.1"/>
</g>
</svg>
