<svg id="quality" xmlns="http://www.w3.org/2000/svg" width="92.718" height="116.667" viewBox="0 0 92.718 116.667">
  <g id="Group_402" data-name="Group 402">
    <path id="Path_1343" data-name="Path 1343" d="M39.126,23.251,29.37,33.007l-2.6-2.595a2.328,2.328,0,1,0-3.293,3.293l4.229,4.229a2.235,2.235,0,0,0,1.635.672,2.424,2.424,0,0,0,1.683-.672L42.419,26.544a2.328,2.328,0,1,0-3.293-3.293" transform="translate(14.734 14.584)" fill="#002069"/>
    <path id="Path_1344" data-name="Path 1344" d="M38.7,11.853a26.848,26.848,0,1,0,18.992,7.864A26.69,26.69,0,0,0,38.7,11.853m0,49.557a22.7,22.7,0,1,1,22.7-22.7,22.723,22.723,0,0,1-22.7,22.7" transform="translate(7.657 7.661)" fill="#002069"/>
    <path id="Path_1345" data-name="Path 1345" d="M89.4,38.336l-4.82-4.822a7.153,7.153,0,0,1-2.109-5.092V21.606A11.368,11.368,0,0,0,71.112,10.25H64.3a7.14,7.14,0,0,1-5.09-2.109L54.382,3.319a11.355,11.355,0,0,0-16.046,0L33.514,8.143a7.161,7.161,0,0,1-5.092,2.107H21.606A11.368,11.368,0,0,0,10.25,21.606v6.816a7.243,7.243,0,0,1-2.109,5.092l-4.82,4.822a11.369,11.369,0,0,0,0,16.06l4.825,4.825a7.293,7.293,0,0,1,2.1,5.087v6.817A11.359,11.359,0,0,0,18.732,82.1l1.162.306-9.856,25.486,13.857-2.1,8.849,10.877,9.519-24.65.948.273a11.149,11.149,0,0,0,6.284,0l.948-.277,9.532,24.642L68.81,105.8l13.855,2.1L72.814,82.4l1.167-.306a11.358,11.358,0,0,0,8.487-10.973V64.308a7.105,7.105,0,0,1,2.109-5.09L89.4,54.4a11.369,11.369,0,0,0,0-16.06m-57.951,70.15-5.82-7.161L16.511,102.7l7.817-20.215h4.094a7.153,7.153,0,0,1,5.094,2.109l5.164,5.178Zm44.76-5.774-9.116-1.386-5.82,7.161L54.04,89.768,59.206,84.6a7.139,7.139,0,0,1,5.09-2.107h4.094ZM86.441,51.45l-4.824,4.822A11.28,11.28,0,0,0,78.3,64.3v6.816a7.206,7.206,0,0,1-7.2,7.2H64.285a11.266,11.266,0,0,0-8.024,3.319l-4.822,4.822a7.877,7.877,0,0,1-1.072.882,6.22,6.22,0,0,1-.632.377,7.177,7.177,0,0,1-3.393.859A7.1,7.1,0,0,1,43,87.74a4.739,4.739,0,0,1-.581-.334l-.109-.071a7.728,7.728,0,0,1-1.055-.882L36.434,81.63a11.271,11.271,0,0,0-8.024-3.319H21.595a7.209,7.209,0,0,1-7.2-7.2V64.3a11.27,11.27,0,0,0-3.317-8.024L6.254,51.45a7.2,7.2,0,0,1,0-10.169l4.822-4.822a11.273,11.273,0,0,0,3.317-8.024V21.618A7.209,7.209,0,0,1,20.518,14.5V14.4H28.41a11.273,11.273,0,0,0,8.024-3.321l4.822-4.822a7.2,7.2,0,0,1,10.182,0l4.822,4.824a11.234,11.234,0,0,0,8.024,3.33H71.1a7.206,7.206,0,0,1,7.2,7.2v6.816a11.28,11.28,0,0,0,3.321,8.024l4.825,4.824a7.22,7.22,0,0,1,0,10.181" transform="translate(0 0)" fill="#002069"/>
  </g>
</svg>
