<svg id="seller" xmlns="http://www.w3.org/2000/svg" width="42.98" height="43.472" viewBox="0 0 42.98 43.472">
  <path id="Path_2662" data-name="Path 2662" d="M42.843,27.266h0l-1.33-5.313a4.068,4.068,0,0,0-3.952-3.085l-11.027,0-.063-.057a15.8,15.8,0,0,0-5.207-3.149l-.558-.2.461-.374a8.486,8.486,0,1,0-10.647.005l.464.372-.559.206A16.316,16.316,0,0,0,0,31.031v7.047a5.3,5.3,0,0,0,4.11,5.254l.094.022a5.629,5.629,0,0,0,1.164.09H16.579a1.134,1.134,0,1,0,0-2.268H9.535l.264-.495a5.142,5.142,0,0,0,.616-2.44V31.649a1.133,1.133,0,1,0-2.267,0v6.593a2.942,2.942,0,0,1-3.434,2.9A3.049,3.049,0,0,1,2.27,38.094V31A13.851,13.851,0,0,1,14.9,17.01c.312-.022.624-.032.935-.032a13.586,13.586,0,0,1,6.738,1.8l.525.3-.532.287a4.093,4.093,0,0,0-2.011,2.6l-1.328,5.311a4.536,4.536,0,0,0,1.524,4.606l.144.118-.657,5.246a5.548,5.548,0,0,0,5.5,6.236H36.325a5.548,5.548,0,0,0,5.5-6.236l-.656-5.245.145-.118a4.586,4.586,0,0,0,.7-.716,4.51,4.51,0,0,0,.825-3.891m-27-12.56a6.219,6.219,0,1,1,6.219-6.218,6.227,6.227,0,0,1-6.219,6.218M28.294,27.527l.8-6.392h3.879l.8,6.392a2.762,2.762,0,1,1-5.48,0M21.837,29.76a2.243,2.243,0,0,1-.41-1.943l1.327-5.311a1.809,1.809,0,0,1,1.753-1.371h2.3l-.939,7.514a2.268,2.268,0,0,1-2.247,1.983,2.245,2.245,0,0,1-1.785-.873m16.95,10.334a3.24,3.24,0,0,1-2.459,1.11H25.737a3.279,3.279,0,0,1-3.255-3.686l.583-4.649.409.024c.053,0,.1.008.146.008h.127a4.56,4.56,0,0,0,3.215-1.5l.24-.265.25.256a5,5,0,0,0,7.164,0l.25-.255.241.265a4.552,4.552,0,0,0,3.252,1.5h.086c.048,0,.092,0,.139-.007L39,32.866l.581,4.651a3.234,3.234,0,0,1-.794,2.577M40.233,29.76A2.265,2.265,0,0,1,36.2,28.649l-.94-7.514h2.3a1.805,1.805,0,0,1,1.753,1.37l1.329,5.313a2.25,2.25,0,0,1-.409,1.941" fill="#fff"/>
</svg>
