<svg id="sustanability" xmlns="http://www.w3.org/2000/svg" width="112.436" height="116.667" viewBox="0 0 112.436 116.667">
  <path id="sustanability-2" data-name="sustanability" d="M21.87,115.915.249,80.488a1.619,1.619,0,0,1,.5-2.227L9.691,73.3a1.615,1.615,0,0,1,2.226.5l2.47,3.9,11.068-3.836,3.209-1.109,6.042-2.094a14.312,14.312,0,0,1,9.557-.051l30.457,10.2a7.712,7.712,0,0,1,4.256,3.494L94.66,76.175l7.118-3.621a7.725,7.725,0,0,1,6.738,13.872l-36.893,21.3a14.359,14.359,0,0,1-7.889,2.365,15.566,15.566,0,0,1-2.234-.164l-27.1-3.915-1.53.895,1.214,1.931,0,0a1.615,1.615,0,0,1-.5,2.224L24.1,116.417h-.006a1.6,1.6,0,0,1-.857.249A1.618,1.618,0,0,1,21.87,115.915ZM3.981,80.358l19.755,32.464,6.759-3.613L10.055,76.895ZM34.3,102.731l27.655,4a11.146,11.146,0,0,0,7.948-1.741l.07-.045,36.936-21.323a4.523,4.523,0,0,0,1.719-6.147,4.614,4.614,0,0,0-6.2-1.674l-6.01,3.113h-.014L79.972,87.431a7.746,7.746,0,0,1-.363,3.181,2.025,2.025,0,0,1-.088.209A8.509,8.509,0,0,1,72.1,95.87a7.191,7.191,0,0,1-2.291-.375l-22.25-7.451a1.619,1.619,0,0,1,1.025-3.065l22.248,7.457c2.487.827,4.664-.866,5.744-2.949a4.526,4.526,0,0,0-2.879-5.6l-30.456-10.2a11.021,11.021,0,0,0-7.475.04l-19.6,6.785,14.976,23.663,2.119-1.236a1.616,1.616,0,0,1,.816-.219A1.653,1.653,0,0,1,34.3,102.731Zm17.72-39.045a1.506,1.506,0,0,1-1.444-1.555c.194-5.044,3.8-11.3,7.954-16.92l-.778-4.917A1.5,1.5,0,0,1,59,38.578a1.522,1.522,0,0,1,1.716,1.248l.335,2.117c.977-1.214,1.946-2.357,2.887-3.438.029-.031.051-.065.083-.1,3.843-4.4,7.1-7.544,7.432-7.861a1.5,1.5,0,1,1,2.073,2.165c-.067.062-2.322,2.241-5.277,5.478l2.785.1a1.5,1.5,0,0,1-.053,2.995.149.149,0,0,1-.048-.006l-5.265-.183c-1.95,2.261-4,4.8-5.859,7.431h3.719a1.5,1.5,0,1,1,0,3H57.821c-2.382,3.807-4.12,7.6-4.245,10.722a1.5,1.5,0,0,1-1.5,1.442C52.061,63.689,52.047,63.686,52.023,63.686Zm5.663-3.319v-1.5c18.431-1.5,18.993-20.53,19.294-30.753.032-1.315.073-2.492.139-3.438-1.735.57-3.348,1.18-4.863,1.818l-.011,0c-9.751,4.1-15.057,9.483-17.954,14.428a1.189,1.189,0,0,1-.169.308,22.548,22.548,0,0,0-3.126,13.147,1.5,1.5,0,0,1-1.272,1.691,1.471,1.471,0,0,1-1.692-1.256,26.057,26.057,0,0,1,3.172-14.3l-7.055-9.785h-.013l-4.149-.46a1.5,1.5,0,0,1,.335-2.978l1.461.161L37.619,21.68a1.5,1.5,0,1,1,2.427-1.753l8.206,11.366.676-2.5a1.474,1.474,0,0,1,1.836-1.053,1.491,1.491,0,0,1,1.053,1.835L50.5,34.417l2.39,3.314a34.141,34.141,0,0,1,7.643-7.939l-.44-8.566-3.249-3.669a1.5,1.5,0,0,1,2.247-1.993l.75.85-.4-7.731A1.5,1.5,0,0,1,60.866,7.11a1.542,1.542,0,0,1,1.576,1.42l.163,3.136.2-.22a1.5,1.5,0,0,1,2.224,2.012L62.816,15.9l.354,6.822,1.818-1.891a1.5,1.5,0,0,1,2.159,2.08l-3.772,3.912.051.934a50.743,50.743,0,0,1,6.724-3.568C70.037,20.336,68.683,12.2,60.28,3.337c-2.224,2.944-7.146,9.8-9.259,17.155,5.644,4.149,7.75,8.388,7.884,8.676A1.5,1.5,0,1,1,56.2,30.452c-.2-.415-4.917-10-20.824-13.689C34.4,33.255,38,43.746,46.078,47.934A1.5,1.5,0,1,1,44.695,50.6C35.34,45.749,31.215,34.045,32.434,15.82a2.4,2.4,0,0,1,.918-1.716,2.33,2.33,0,0,1,1.968-.423,42.21,42.21,0,0,1,13.115,5.083c2.567-8.095,8-15.309,9.89-17.8a2.363,2.363,0,0,1,3.6-.248C70.7,9.7,72.722,18.265,73.1,22.987c1.307-.5,2.605-1.01,4.054-1.462a2.4,2.4,0,0,1,2.221.446,2.353,2.353,0,0,1,.817,2.125c-.127.948-.166,2.41-.214,4.1-.285,9.56-.94,31.936-22.092,33.663Z" transform="translate(0 0)" fill="#002069"/>
</svg>
