<svg id="tag" xmlns="http://www.w3.org/2000/svg" width="14" height="13.884" viewBox="0 0 14 13.884">
  <g id="Group_483" data-name="Group 483">
    <path id="Path_1959" data-name="Path 1959" d="M13.682.327A1.1,1.1,0,0,0,12.9,0h-5a1.129,1.129,0,0,0-.727.268L7.036.392.318,7.057a1.088,1.088,0,0,0,0,1.538L5.33,13.567a1.1,1.1,0,0,0,.776.317,1.118,1.118,0,0,0,.781-.317l5-4.972L13.607,6.9l.129-.133A1.083,1.083,0,0,0,14,6.06V1.094a1.052,1.052,0,0,0-.318-.767m-.45,5.734a.318.318,0,0,1-.079.217L6.34,13.029a.334.334,0,0,1-.475,0l-5-4.966a.326.326,0,0,1,0-.47L7.577.93,7.708.814A.336.336,0,0,1,7.892.763h5a.344.344,0,0,1,.236.089.341.341,0,0,1,.1.242Z" transform="translate(0)" fill="#fff"/>
    <path id="Path_1960" data-name="Path 1960" d="M40.8,11.747A1.552,1.552,0,1,0,42.361,13.3,1.559,1.559,0,0,0,40.8,11.747m0,2.47a.918.918,0,1,1,.923-.918.922.922,0,0,1-.923.918" transform="translate(-30.889 -9.263)" fill="#fff"/>
  </g>
</svg>
