<svg xmlns="http://www.w3.org/2000/svg" width="54.698" height="35.701" viewBox="0 0 54.698 35.701">
  <g id="travel" opacity="0.9">
    <path id="travel-2" data-name="travel" d="M12.4,35.7c-4.322-.173-7.952-1.841-10.142-4.719-3.63-4.662-2.824-11.28,2.017-16a1.181,1.181,0,0,1,1.671,1.669C2.026,20.566,1.277,25.86,4.1,29.486c3.169,4.086,11.237,6.33,23.626-.863a1.288,1.288,0,0,1,1.671.46,1.215,1.215,0,0,1-.461,1.611c-5.7,3.28-11.122,5.007-15.847,5.007Zm22.525-3.442A4.3,4.3,0,0,1,33.487,30.7c-.588-.966-1.037-2.012-1.644-2.966a6.394,6.394,0,0,0-1.8-1.885,3.244,3.244,0,0,1-1.184-1.424,3.11,3.11,0,0,1,2.186-4.235,4.314,4.314,0,0,1,2.8.291,1.031,1.031,0,0,0,.679.188.906.906,0,0,0,.37-.233l1.342-1.187a15.349,15.349,0,0,0-2.248-2.316c-1.055-1.041-1.958-2.462-1.121-4.05a2.935,2.935,0,0,1,.963-1.06,5.027,5.027,0,0,1,4.683-.175A30.756,30.756,0,0,1,41.9,13.41a1.166,1.166,0,0,0,1.577-.1A23.908,23.908,0,0,1,48.4,9.953c1.848-.753,4.255-.639,5.506.913a4.21,4.21,0,0,1,.546,3.917,8.057,8.057,0,0,1-2.364,3.325c-1.02.923-2.162,1.7-3.211,2.591a1.413,1.413,0,0,0-.428.5,1.445,1.445,0,0,0,.044.933,22.659,22.659,0,0,1,.877,3.695A4.9,4.9,0,0,1,47.9,30.253a2.949,2.949,0,0,1-1.286.618c-1.752.354-2.87-.895-3.591-2.186a15.275,15.275,0,0,0-1.631-2.777c-.736.319-1.563.744-1.739,1.527a3.415,3.415,0,0,0,0,.971,4.2,4.2,0,0,1-1.263,3.385,3.24,3.24,0,0,1-2.129.813A2.671,2.671,0,0,1,34.923,32.259ZM31.011,22.58l-.288.23a.431.431,0,0,0,0,.691l2.651,2.187A3.223,3.223,0,0,1,34.3,26.9l1.441,3.223a.433.433,0,0,0,.4.288.44.44,0,0,0,.288-.115l.288-.23a1.563,1.563,0,0,0,.576-1.669l-.576-2.187,5.417-3.8,3.515,5.928a.386.386,0,0,0,.4.23.5.5,0,0,0,.346-.173,2.659,2.659,0,0,0,.576-2.359l-1.383-6.1,4.091-2.82a6.6,6.6,0,0,0,2.651-3.8,1.065,1.065,0,0,0-1.153-1.324,6.971,6.971,0,0,0-4.322,1.554l-3.8,3.165-5.532-2.935A2.679,2.679,0,0,0,36.2,13.43a2.584,2.584,0,0,0-1.153.23.521.521,0,0,0-.115.806l4.841,4.949-5.071,4.2L32.74,22.465a1.442,1.442,0,0,0-.807-.23A1.534,1.534,0,0,0,31.011,22.58Zm-4.294-3.85-4.529-4.523a8.056,8.056,0,0,1-10.757-.538,7.98,7.98,0,0,1,0-11.32,8.06,8.06,0,0,1,11.355-.02,8,8,0,0,1,.7,10.543l4.548,4.542a.931.931,0,0,1-1.317,1.316ZM12.729,3.645a6.153,6.153,0,0,0,0,8.729,6.184,6.184,0,0,0,8.741,0,6.153,6.153,0,0,0,0-8.729,6.22,6.22,0,0,0-8.741,0Z" transform="translate(0 0)" fill="#fff"/>
  </g>
</svg>
