<svg id="heath" xmlns="http://www.w3.org/2000/svg" width="59.55" height="45.313" viewBox="0 0 59.55 45.313">
  <g id="Group_259" data-name="Group 259" transform="translate(0 0)">
    <path id="Path_1258" data-name="Path 1258" d="M59.479,7.482a.988.988,0,0,0-.766-.605,18.257,18.257,0,0,1-8.771-3.7c-2.07-2.1-4.074-3.171-5.956-3.171a5.03,5.03,0,0,0-.75.058,5.461,5.461,0,0,0-3.907,2.979c-3.682,7.275-6.613,8.133-8.57,8.234V9.886a4.065,4.065,0,0,0,3.207-3.908,4.192,4.192,0,0,0-8.376,0A4.066,4.066,0,0,0,28.8,9.887v1.385c-1.959-.1-4.9-.95-8.577-8.234A5.534,5.534,0,0,0,16.312.058,4.985,4.985,0,0,0,15.559,0c-1.882,0-3.885,1.068-5.971,3.193A17.744,17.744,0,0,1,.832,6.878a.983.983,0,0,0-.762.6,1,1,0,0,0,.13.969,36.471,36.471,0,0,0,17.984,11.4,14.343,14.343,0,0,0,2.442.463,3.049,3.049,0,0,0-.144,1.33c.27,2.159,2.8,4.349,6.98,6.069-.554.287-1.04.553-1.4.775-1.741,1.07-2.6,2.377-2.425,3.682.168,1.235,1.214,2.27,3.194,3.14a7.4,7.4,0,0,0-1.554,1.1,2.011,2.011,0,0,0-.61,1.875c.251,1.218,1.579,2.294,4.13,3.366v2.688a.982.982,0,1,0,1.963-.007V41.631a14.333,14.333,0,0,0,2.581-1.34,1.091,1.091,0,0,0,.149-.075,2.729,2.729,0,0,0,1.381-2.725c-.237-1.1-1.381-1.878-2.555-2.4q.768-.27,1.59-.533a2.8,2.8,0,0,0,1.112-.679,2.7,2.7,0,0,0,.835-2.549c-.337-1.495-2.072-2.781-3.73-3.7.814-.377,1.588-.728,2.215-1.01l.116-.052.1-.051c2.878-1.65,4.441-3.443,4.521-5.182a2.966,2.966,0,0,0-.181-1.143,13.589,13.589,0,0,0,2.472-.347,36.412,36.412,0,0,0,17.978-11.4.984.984,0,0,0,.134-.967m-31.272-1.5a1.58,1.58,0,0,1,3.141,0,1.58,1.58,0,0,1-3.141,0m-5.777,15.41a1.177,1.177,0,0,1,.3-.9l.122-.153.193.036a2.454,2.454,0,0,0,.453.043,4.015,4.015,0,0,0,2.161-.73,3.483,3.483,0,0,0,1.607-2.133,1.638,1.638,0,0,0-.286-1.285,1.856,1.856,0,0,0-1.54-.686,4.032,4.032,0,0,0-2.16.729,3.525,3.525,0,0,0-1.591,2.071c-.048,0-.094,0-.147,0a11.81,11.81,0,0,1-2.821-.436,36.129,36.129,0,0,1-4.735-1.737,26.7,26.7,0,0,0,4.087-1.993.653.653,0,1,0-.713-1.093,31.713,31.713,0,0,1-4.99,2.319c-.965-.489-1.864-1-2.7-1.516a22.953,22.953,0,0,0,6.46-3.211.655.655,0,1,0-.844-1c-1.809,1.523-5.532,2.824-7.018,3.3-.834-.569-1.587-1.132-2.263-1.675,2.188-.813,6.381-2.55,8.587-4.631a.653.653,0,0,0-.9-.949c-2.276,2.148-7.115,3.994-8.852,4.61C4.229,9.831,3.7,9.328,3.264,8.892l-.4-.4.553-.143a18.7,18.7,0,0,0,7.564-3.773c1.694-1.732,3.237-2.609,4.587-2.609A2.894,2.894,0,0,1,16.013,2,3.554,3.554,0,0,1,18.466,3.92c3.845,7.6,7.233,9.124,10.329,9.307v12.9c-4.192-1.612-6.22-3.531-6.366-4.736M25.586,31.9c-.072-.455.519-1.141,1.506-1.751.414-.253,1.013-.573,1.7-.921V33.96c-3.105-1.053-3.213-2-3.209-2.063M26.74,38.13l-.2-.245.237-.205A9.481,9.481,0,0,1,28.8,36.5v2.987A5.948,5.948,0,0,1,26.74,38.13m6.25-.208-.136.2a2.434,2.434,0,0,1-.5.486c-.014.009-.031.013-.045.023a9.723,9.723,0,0,1-1.548.866V36.6a5.344,5.344,0,0,1,2.084,1.135Zm.946-6.168c.06.24-.035.469-.308.743a.781.781,0,0,1-.315.192c-.723.23-1.618.529-2.553.874V29.13c1.565.816,3,1.817,3.177,2.625M56.29,8.9c-.432.435-.958.935-1.572,1.473C53,9.768,48.139,7.917,45.849,5.762a.653.653,0,0,0-.9.949c2.216,2.086,6.427,3.827,8.607,4.638-.673.542-1.425,1.1-2.255,1.673-1.472-.475-5.223-1.777-7.04-3.307a.655.655,0,1,0-.844,1A23.086,23.086,0,0,0,49.9,13.935c-.837.518-1.738,1.028-2.705,1.518a31.592,31.592,0,0,1-5.017-2.329.653.653,0,1,0-.713,1.093,26.387,26.387,0,0,0,4.111,2,36,36,0,0,1-4.7,1.723,12.143,12.143,0,0,1-2.7.308c-.12,0-.237-.007-.355-.011a3.625,3.625,0,0,0-1.555-1.932,4.075,4.075,0,0,0-2.17-.728,1.838,1.838,0,0,0-1.53.682,1.658,1.658,0,0,0-.287,1.287,3.476,3.476,0,0,0,1.607,2.133,4.015,4.015,0,0,0,2.162.73,2.269,2.269,0,0,0,.633-.1,1.171,1.171,0,0,1,.427.93c-.039.762-.974,2.092-3.51,3.548l-.079.035c-.765.344-1.748.791-2.764,1.267V13.233c3.1-.184,6.486-1.711,10.323-9.309A3.548,3.548,0,0,1,43.533,2a2.908,2.908,0,0,1,.45-.035c1.349,0,2.892.878,4.631,2.653A18.488,18.488,0,0,0,56.14,8.357l.552.143Z" transform="translate(0 -0.001)" fill="#173d95"/>
  </g>
</svg>
