<svg id="agriculture" xmlns="http://www.w3.org/2000/svg" width="50.955" height="53.57" viewBox="0 0 50.955 53.57">
  <g id="Group_265" data-name="Group 265" transform="translate(0)">
    <path id="Path_1261" data-name="Path 1261" d="M36.869,8.544a.788.788,0,0,1-.787-.787V.787a.787.787,0,1,1,1.574,0v6.97a.788.788,0,0,1-.787.787" transform="translate(-11.442 0)" fill="#173d95"/>
    <path id="Path_1262" data-name="Path 1262" d="M51.705,12.924a.786.786,0,0,1-.68-1.181L54.51,5.708a.786.786,0,0,1,1.075-.288.787.787,0,0,1,.288,1.075l-3.485,6.036a.791.791,0,0,1-.683.393" transform="translate(-16.147 -1.685)" fill="#173d95"/>
    <path id="Path_1263" data-name="Path 1263" d="M62.6,25a.787.787,0,0,1-.395-1.469l6.036-3.486a.787.787,0,0,1,.787,1.364L62.991,24.9A.8.8,0,0,1,62.6,25" transform="translate(-19.6 -6.323)" fill="#173d95"/>
    <path id="Path_1264" data-name="Path 1264" d="M8.337,25a.791.791,0,0,1-.392-.105L1.909,21.41A.787.787,0,0,1,2.7,20.046l6.036,3.486a.787.787,0,0,1,.288,1.075A.792.792,0,0,1,8.337,25" transform="translate(-0.481 -6.323)" fill="#173d95"/>
    <path id="Path_1265" data-name="Path 1265" d="M20.415,12.925a.792.792,0,0,1-.683-.394L16.247,6.494a.787.787,0,1,1,1.363-.787L21.1,11.744a.787.787,0,0,1-.68,1.181" transform="translate(-5.119 -1.685)" fill="#173d95"/>
    <path id="Path_1266" data-name="Path 1266" d="M20.327,58.919c-6.429,0-12.008-2.419-15.707-6.81C.684,47.438-.808,40.943.419,33.823a.787.787,0,0,1,.643-.642,28.069,28.069,0,0,1,4.7-.41,25.111,25.111,0,0,1,2.8.156l.363.041.017-.365a16.5,16.5,0,0,1,32.969.011l.017.366.364-.042a24.85,24.85,0,0,1,2.894-.167,28.074,28.074,0,0,1,4.706.41.787.787,0,0,1,.643.641c1.226,7.123-.262,13.616-4.194,18.283-3.7,4.394-9.283,6.813-15.718,6.813h0a28.238,28.238,0,0,1-4.735-.413.826.826,0,0,1-.245-.086l-.165-.092-.165.092a.738.738,0,0,1-.21.079,28.2,28.2,0,0,1-4.775.421m13.461-5.947a5.744,5.744,0,0,0-2.541.669l-.05.025-3.515,3.516.73.063c.743.065,1.487.1,2.211.1,5.869,0,10.968-2.153,14.359-6.064,3.583-4.132,5.051-9.949,4.132-16.381l-.037-.254-.254-.036a26.373,26.373,0,0,0-3.665-.264A18.693,18.693,0,0,0,31.1,40.078C27.6,43.9,25.968,49.319,26.5,55.342l.065.729,5.478-5.478.026-.055c1.267-2.747.006-4.235-.007-4.25a.787.787,0,1,1,1.162-1.061,4.537,4.537,0,0,1,.956,2.442l.074.715,3.2-3.2.026-.055c1.279-2.774,0-4.239-.01-4.254a.787.787,0,1,1,1.165-1.059,4.5,4.5,0,0,1,.956,2.443l.074.715,1.41-1.41a.787.787,0,0,1,1.113,1.114l-3.268,3.268.732.062a4.813,4.813,0,0,1,2.261.759l-1.074,1.184a3.427,3.427,0,0,0-1.64-.387,5.742,5.742,0,0,0-2.541.669l-.05.025-3.1,3.1.732.062a4.829,4.829,0,0,1,2.26.759l-1.073,1.184a3.415,3.415,0,0,0-1.641-.387M5.8,34.342a26.364,26.364,0,0,0-3.671.264l-.254.036-.036.254c-.919,6.432.548,12.251,4.133,16.385,3.388,3.907,8.488,6.059,14.359,6.059.723,0,1.466-.033,2.208-.1l.731-.062-3.515-3.516-.05-.025a5.749,5.749,0,0,0-2.542-.669,3.406,3.406,0,0,0-1.64.387l-1.074-1.184a4.8,4.8,0,0,1,2.262-.759l.732-.062-3.1-3.1-.05-.025a5.75,5.75,0,0,0-2.541-.668,3.421,3.421,0,0,0-1.64.385L9.044,46.766a4.8,4.8,0,0,1,2.262-.759l.732-.062L8.77,42.677a.787.787,0,0,1,1.113-1.113l1.41,1.41.074-.715a4.806,4.806,0,0,1,.75-2.169L13.3,41.166a4.34,4.34,0,0,0,.176,3.963l.026.055,3.2,3.2.074-.714a4.8,4.8,0,0,1,.75-2.169l1.186,1.075a4.334,4.334,0,0,0,.176,3.964l.026.055,5.478,5.478.065-.729c.533-6.023-1.1-11.446-4.6-15.268A18.68,18.68,0,0,0,5.8,34.342m19.624-15.9a15.031,15.031,0,0,0-14.923,14.5l-.008.285.279.059A18.684,18.684,0,0,1,25.151,46.331l.327,1.063.326-1.063A18.671,18.671,0,0,1,40.082,33.3l.277-.06-.008-.283A15.028,15.028,0,0,0,25.428,18.442" transform="translate(0 -5.349)" fill="#173d95"/>
  </g>
</svg>
