<svg xmlns="http://www.w3.org/2000/svg" width="210" height="210" viewBox="0 0 210 210">
  <g id="amblem" transform="translate(-855 -994)">
    <g id="Ellipse_58" data-name="Ellipse 58" transform="translate(855 994)" fill="#fff" stroke="#173d95" stroke-linecap="round" stroke-width="1" stroke-dasharray="1 8">
      <circle cx="105" cy="105" r="105" stroke="none"/>
      <circle cx="105" cy="105" r="104.5" fill="none"/>
    </g>
    <g id="Group_494" data-name="Group 494" transform="translate(-55.776 -349.513)">
      <path id="Path_2285" data-name="Path 2285" d="M148.4,112.107l-.421.421,2.127,6.344a51.339,51.339,0,0,1,2.167,10.963,38.393,38.393,0,0,1-.153,7.895,32.736,32.736,0,0,1-1.911,7.676,21.038,21.038,0,0,1-2.222,4.526,2.19,2.19,0,0,1-.631.648c.675.479,1.363.985,2.036,1.518a37.188,37.188,0,0,0,2.227-4.483,37.709,37.709,0,0,0,.429-27.627,40.707,40.707,0,0,0-3.647-7.882" transform="translate(901.147 1330.316)" fill="#b50623"/>
      <path id="Path_2286" data-name="Path 2286" d="M48.976,10.154,37.65,43.215a.394.394,0,0,0,.676.379L71.652,3.283A2,2,0,0,0,69.935.008L60.968.782a13.943,13.943,0,0,0-11.993,9.373" transform="translate(956.142 1386.504)" fill="#b50623"/>
      <path id="Path_2287" data-name="Path 2287" d="M16.632,72.176a.39.39,0,0,1-.744-.212l4.635-33.4A13.945,13.945,0,0,1,30.4,27.111l2.69-.791a1.029,1.029,0,0,1,1.263,1.321L22.206,63.082a37.763,37.763,0,0,0-5.574,9.094" transform="translate(967.039 1373.334)" fill="#b50623"/>
      <path id="Path_2288" data-name="Path 2288" d="M3.758,105.005.072,68.8A13.944,13.944,0,0,1,7.111,55.235L8.773,54.3A1.029,1.029,0,0,1,10.3,55.339L5.47,90.123l-.007.008a37.558,37.558,0,0,0-1.7,14.874" transform="translate(975 1359.356)" fill="#002069"/>
      <path id="Path_2289" data-name="Path 2289" d="M80.933,58.645l-.257.257c.367.808.874,2.089.94,2.244.565,1.37,1.076,2.75,1.533,4.152a51.428,51.428,0,0,1,2.359,10.915,38.394,38.394,0,0,1-.011,7.9,32.779,32.779,0,0,1-1.772,7.707,20.594,20.594,0,0,1-2.141,4.566,2.207,2.207,0,0,1-.631.674,2.6,2.6,0,0,1-1.326.228,23.949,23.949,0,0,0-7.871,1.337,13.735,13.735,0,0,0-2.674,1.2c-2.924,1.761-4.979,4.718-7.2,7.229-.217.25-.445.489-.663.739-4.479,4.99-11.208,4.859-14.752-2.968a51.91,51.91,0,0,1-3.544-11.088c-2.4-11.632-1.3-24.307,1.457-36.483C49.091,36.5,58.625,17.228,63.962,7.129a.911.911,0,0,0-1.511-1L21.055,56.2a37.429,37.429,0,0,0-8.512,27.2l.131,1.239.01.087A37.627,37.627,0,0,0,50.743,117.9a37.6,37.6,0,0,0,29.33-14.85,37.5,37.5,0,0,0,7.7-22.915,37.691,37.691,0,0,0-6.836-21.493m-5.654,47.832a1.807,1.807,0,1,1-.239-2.544,1.81,1.81,0,0,1,.239,2.544" transform="translate(968.783 1383.604)" fill="#002069"/>
    </g>
  </g>
</svg>
