<svg xmlns="http://www.w3.org/2000/svg" width="403.012" height="418.947" viewBox="0 0 403.012 418.947">
  <g id="fly-down1" transform="translate(-685.863 -2051.116)">
    <g id="Group_450" data-name="Group 450" transform="translate(1087.446 2191.136) rotate(120)">
      <path id="Path_1686" data-name="Path 1686" d="M0,2.083S240.915-30.617,308.222,163.1s-168.874,104.527-145.789-3.487S264.461,8.332,264.461,8.332" transform="translate(0 0)" fill="none" stroke="#a1adc8" stroke-linecap="round" stroke-width="2" stroke-dasharray="22 17"/>
    </g>
    <g id="Group_451" data-name="Group 451" transform="matrix(-0.94, 0.342, -0.342, -0.94, 975.845, 2435.139)">
      <path id="Polygon_2" data-name="Polygon 2" d="M16.045,8.73a2,2,0,0,1,3.9,0l1.958,8.757a2,2,0,0,0,.617,1.053l6.624,5.937a2,2,0,0,1-1.93,3.4l-8.625-2.69a2,2,0,0,0-1.191,0l-8.625,2.69a2,2,0,0,1-1.93-3.4L13.47,18.54a2,2,0,0,0,.617-1.053Z" transform="translate(46.442 19.265) rotate(129)" fill="#a1adc8"/>
    </g>
  </g>
</svg>
