<svg xmlns="http://www.w3.org/2000/svg" width="187.114" height="189.813" viewBox="0 0 187.114 189.813">
  <g id="Group_14012" data-name="Group 14012" transform="translate(-239.496 -1266.391)">
    <path id="comment1" d="M-9765.631-4573.379a2.437,2.437,0,0,1-2.187-1.344l-15.848-31.411a28.81,28.81,0,0,1-2.149-5.3,28.668,28.668,0,0,1-1-11.407,28.717,28.717,0,0,1,3.336-10.54,28.762,28.762,0,0,1,7.043-8.52,28.669,28.669,0,0,1,10.126-5.348l33.1-9.759a28.856,28.856,0,0,1,8.167-1.185,28.684,28.684,0,0,1,9.054,1.467,28.938,28.938,0,0,1,8.053,4.169,28.724,28.724,0,0,1,6.41,6.523,28.782,28.782,0,0,1,4.13,8.529,28.668,28.668,0,0,1,1,11.407,28.717,28.717,0,0,1-3.336,10.54,28.762,28.762,0,0,1-7.043,8.52,28.669,28.669,0,0,1-10.126,5.348l-33.1,9.759-13.7,17.607A2.426,2.426,0,0,1-9765.631-4573.379Zm11.843-50.956a4.477,4.477,0,0,0-1.29.191,4.441,4.441,0,0,0-2.647,2.166,4.437,4.437,0,0,0-.341,3.4,4.44,4.44,0,0,0,4.275,3.179,4.477,4.477,0,0,0,1.293-.191,4.475,4.475,0,0,0,2.987-5.568A4.5,4.5,0,0,0-9753.788-4624.335Zm12.859-3.877a4.465,4.465,0,0,0-1.292.192,4.441,4.441,0,0,0-2.647,2.165,4.442,4.442,0,0,0-.34,3.4,4.5,4.5,0,0,0,4.277,3.18,4.437,4.437,0,0,0,1.29-.192,4.437,4.437,0,0,0,2.647-2.166,4.445,4.445,0,0,0,.34-3.4A4.5,4.5,0,0,0-9740.929-4628.213Zm12.86-3.879a4.461,4.461,0,0,0-1.292.191,4.441,4.441,0,0,0-2.647,2.166,4.442,4.442,0,0,0-.34,3.4,4.437,4.437,0,0,0,4.274,3.179,4.467,4.467,0,0,0,1.293-.191,4.44,4.44,0,0,0,2.647-2.166,4.44,4.44,0,0,0,.34-3.4A4.5,4.5,0,0,0-9728.068-4632.092Z" transform="translate(10027 5925.082)" fill="#002069" stroke="rgba(0,0,0,0)" stroke-miterlimit="10" stroke-width="1" opacity="0.1"/>
    <path id="comment2" d="M21.37,0a2.437,2.437,0,0,0-2.187,1.344L3.335,32.754A28.82,28.82,0,0,0,20.69,73.868l33.1,9.76A28.836,28.836,0,1,0,70.1,28.31L37,18.55,23.3.943A2.426,2.426,0,0,0,21.37,0ZM33.213,50.956a4.469,4.469,0,1,1,4.277-3.179A4.477,4.477,0,0,1,33.213,50.956Zm12.859,3.877a4.469,4.469,0,1,1,4.275-3.177A4.464,4.464,0,0,1,46.072,54.833Zm12.86,3.879a4.47,4.47,0,1,1,4.275-3.179A4.461,4.461,0,0,1,58.932,58.713Z" transform="translate(426.108 1455.703) rotate(180)" fill="#002069" stroke="rgba(0,0,0,0)" stroke-miterlimit="10" stroke-width="1" opacity="0.1"/>
  </g>
</svg>
