<svg xmlns="http://www.w3.org/2000/svg" xmlns:xlink="http://www.w3.org/1999/xlink" width="918.705" height="696.795" viewBox="0 0 918.705 696.795">
  <defs>
    <clipPath id="clip-path">
      <rect id="Rectangle_233" data-name="Rectangle 233" width="918.705" height="367.617" transform="translate(-399 -53)" fill="none"/>
    </clipPath>
    <clipPath id="clip-path-2">
      <rect id="Rectangle_232" data-name="Rectangle 232" width="791.704" height="314.617" transform="translate(-272)" fill="none"/>
    </clipPath>
    <clipPath id="clip-path-3">
      <rect id="Rectangle_228" data-name="Rectangle 228" width="181.047" height="232.624" fill="#002069"/>
    </clipPath>
    <clipPath id="clip-path-4">
      <rect id="Rectangle_229" data-name="Rectangle 229" width="53.348" height="53.349" fill="#002069"/>
    </clipPath>
    <clipPath id="clip-path-5">
      <rect id="Rectangle_230" data-name="Rectangle 230" width="53.35" height="53.35" fill="#002069"/>
    </clipPath>
    <clipPath id="clip-path-6">
      <rect id="Rectangle_231" data-name="Rectangle 231" width="69.251" height="236.556" fill="#002069"/>
    </clipPath>
    <clipPath id="clip-path-7">
      <rect id="Rectangle_225" data-name="Rectangle 225" width="168.946" height="356.288" transform="translate(0 0)" fill="none"/>
    </clipPath>
  </defs>
  <g id="Group_14009" data-name="Group 14009" transform="translate(-144 -4568.191)">
    <g id="faq" transform="translate(543 4621.191)">
      <g id="Group_381" data-name="Group 381" clip-path="url(#clip-path)">
        <g id="Group_380" data-name="Group 380">
          <g id="Group_379" data-name="Group 379" clip-path="url(#clip-path-2)">
            <path id="Subtraction_1" data-name="Subtraction 1" d="M-9765.631-4573.379a2.437,2.437,0,0,1-2.187-1.344l-15.848-31.411a28.81,28.81,0,0,1-2.149-5.3,28.668,28.668,0,0,1-1-11.407,28.717,28.717,0,0,1,3.336-10.54,28.762,28.762,0,0,1,7.043-8.52,28.669,28.669,0,0,1,10.126-5.348l33.1-9.759a28.856,28.856,0,0,1,8.167-1.185,28.684,28.684,0,0,1,9.054,1.467,28.938,28.938,0,0,1,8.053,4.169,28.724,28.724,0,0,1,6.41,6.523,28.782,28.782,0,0,1,4.13,8.529,28.668,28.668,0,0,1,1,11.407,28.717,28.717,0,0,1-3.336,10.54,28.762,28.762,0,0,1-7.043,8.52,28.669,28.669,0,0,1-10.126,5.348l-33.1,9.759-13.7,17.607A2.426,2.426,0,0,1-9765.631-4573.379Zm11.843-50.956a4.477,4.477,0,0,0-1.29.191,4.441,4.441,0,0,0-2.647,2.166,4.437,4.437,0,0,0-.341,3.4,4.44,4.44,0,0,0,4.275,3.179,4.477,4.477,0,0,0,1.293-.191,4.475,4.475,0,0,0,2.987-5.568A4.5,4.5,0,0,0-9753.788-4624.335Zm12.859-3.877a4.465,4.465,0,0,0-1.292.192,4.441,4.441,0,0,0-2.647,2.165,4.442,4.442,0,0,0-.34,3.4,4.5,4.5,0,0,0,4.277,3.18,4.437,4.437,0,0,0,1.29-.192,4.437,4.437,0,0,0,2.647-2.166,4.445,4.445,0,0,0,.34-3.4A4.5,4.5,0,0,0-9740.929-4628.213Zm12.86-3.879a4.461,4.461,0,0,0-1.292.191,4.441,4.441,0,0,0-2.647,2.166,4.442,4.442,0,0,0-.34,3.4,4.437,4.437,0,0,0,4.274,3.179,4.467,4.467,0,0,0,1.293-.191,4.44,4.44,0,0,0,2.647-2.166,4.44,4.44,0,0,0,.34-3.4A4.5,4.5,0,0,0-9728.068-4632.092Z" transform="translate(9583.208 4676.121)" fill="#002069" stroke="rgba(0,0,0,0)" stroke-miterlimit="10" stroke-width="1" opacity="0.1"/>
            <g id="Group_369" data-name="Group 369" transform="translate(278.658 6.261)" opacity="0.05">
              <g id="Group_368" data-name="Group 368">
                <g id="Group_367" data-name="Group 367" clip-path="url(#clip-path-3)">
                  <path id="Path_1328" data-name="Path 1328" d="M1021.847,88.47a50.04,50.04,0,0,1-.48-6.653q0,3-.01,6a41.288,41.288,0,0,1,1.334-10.236l-1.592,5.782a38.724,38.724,0,0,1,3.94-9.309l-2.953,4.989a42.44,42.44,0,0,1,6.444-8.175l-4.074,4.013a52.034,52.034,0,0,1,10.3-7.749l-4.955,2.854a67.125,67.125,0,0,1,15.447-6.322l-5.6,1.513a82.088,82.088,0,0,1,21.063-2.72l-6-.01a84.8,84.8,0,0,1,22.124,2.977l-5.782-1.592a80.546,80.546,0,0,1,19.289,8.206l-4.989-2.953a77.434,77.434,0,0,1,15.359,12.069l-4.012-4.074a77.541,77.541,0,0,1,11.5,15.2l-2.855-4.955a76.5,76.5,0,0,1,7.325,17.588l-1.513-5.6a72.463,72.463,0,0,1,2.5,18.656q.005-3,.01-6a66.773,66.773,0,0,1-2.243,16.868l1.592-5.782a62.361,62.361,0,0,1-6.227,14.808l2.953-4.988a63.88,63.88,0,0,1-9.87,12.574l4.074-4.013a74.219,74.219,0,0,1-14.866,11.275l4.955-2.854a105.177,105.177,0,0,1-24.713,9.794l5.6-1.514c-14.214,3.81-28.848,5.63-43.141,9.075a126.4,126.4,0,0,0-15.083,4.4,87.417,87.417,0,0,0-13.11,6.654,41.756,41.756,0,0,0-7.577,5.522c-3.42,3.2-6.828,6.411-9.333,10.392a63.349,63.349,0,0,0-5.059,9.1,68.513,68.513,0,0,0-3.069,10.344c-1.361,5.7-1.221,11.841-.783,17.63.409,5.406,4.208,11.356,8.38,14.625,4.371,3.424,11.209,5.554,16.768,4.555,5.6-1.006,11.22-3.624,14.625-8.381l2.953-4.989a22.516,22.516,0,0,0,1.6-11.779c-.092-1.213-.141-2.423-.145-3.64q0,3-.01,6a36.335,36.335,0,0,1,1.137-8.858l-1.592,5.782a30.874,30.874,0,0,1,3.148-7.452l-2.953,4.988a32.475,32.475,0,0,1,4.873-6.157l-4.074,4.013a41.391,41.391,0,0,1,8.178-6.1l-4.955,2.854a66.177,66.177,0,0,1,15.318-6.094l-5.6,1.514c11.443-3.047,23.251-4.642,34.822-7.122,13.053-2.8,26.409-6.156,38.3-12.4a98.7,98.7,0,0,0,19.139-12.493c6.016-5.233,11.819-11.07,16.137-17.82,4.379-6.846,8.128-13.818,10.322-21.656a102,102,0,0,0,3.269-14.132,106.3,106.3,0,0,0,.576-15.049,73.731,73.731,0,0,0-2.5-18.12c-2.1-7.964-4.524-15.524-8.577-22.724-3.848-6.837-7.866-13.378-13.215-19.148a100.564,100.564,0,0,0-16.771-15.059,105.539,105.539,0,0,0-41.943-17.07,113.392,113.392,0,0,0-23.084-1.174,79.972,79.972,0,0,0-16.845,2.313c-7.033,1.77-13.972,3.718-20.418,7.1-6.12,3.209-12.1,6.741-17.1,11.549a71.866,71.866,0,0,0-8.769,9.44,70.41,70.41,0,0,0-6.5,10.964,66.359,66.359,0,0,0-4.062,12.672,40.188,40.188,0,0,0-1.136,8.107,81.54,81.54,0,0,0,.442,14.122,23.172,23.172,0,0,0,8.381,14.625c4.371,3.425,11.209,5.554,16.768,4.555,5.6-1.006,11.22-3.624,14.625-8.38a23.225,23.225,0,0,0,4.555-16.768" transform="translate(-976.971 -18.063)" fill="#002069"/>
                </g>
              </g>
            </g>
            <g id="Group_372" data-name="Group 372" transform="translate(272.366 261.268)" opacity="0.05">
              <g id="Group_371" data-name="Group 371">
                <g id="Group_370" data-name="Group 370" clip-path="url(#clip-path-4)">
                  <path id="Path_1329" data-name="Path 1329" d="M1009.3,792.407a26.669,26.669,0,1,1-11.789-35.825,26.668,26.668,0,0,1,11.789,35.825" transform="translate(-958.821 -753.715)" fill="#002069"/>
                </g>
              </g>
            </g>
            <g id="Group_375" data-name="Group 375" transform="translate(175.859 257.443)" opacity="0.05">
              <g id="Group_374" data-name="Group 374">
                <g id="Group_373" data-name="Group 373" clip-path="url(#clip-path-5)">
                  <path id="Path_1330" data-name="Path 1330" d="M559.907,775.674a26.669,26.669,0,1,1-19.59-32.228,26.669,26.669,0,0,1,19.59,32.228" transform="translate(-507.323 -742.68)" fill="#002069"/>
                </g>
              </g>
            </g>
            <g id="Group_378" data-name="Group 378" transform="translate(147.735)" opacity="0.05">
              <g id="Group_377" data-name="Group 377">
                <g id="Group_376" data-name="Group 376" clip-path="url(#clip-path-6)">
                  <path id="Path_1331" data-name="Path 1331" d="M476.925,236.482h0a20.239,20.239,0,0,1-21.712-17L426.608,38.615a33.4,33.4,0,1,1,66.378-5.665l2.456,183.094a20.239,20.239,0,0,1-18.517,20.438" transform="translate(-426.192 0)" fill="#002069"/>
                </g>
              </g>
            </g>
            <path id="Path_1332" data-name="Path 1332" d="M970.795,81.112a49.959,49.959,0,0,1-.48-6.653q0,3-.01,6a41.291,41.291,0,0,1,1.334-10.236L970.047,76a38.724,38.724,0,0,1,3.94-9.309l-2.953,4.989a42.44,42.44,0,0,1,6.444-8.175L973.4,67.52a52.044,52.044,0,0,1,10.3-7.75l-4.955,2.855A67.118,67.118,0,0,1,994.2,56.3l-5.6,1.513a82.088,82.088,0,0,1,21.063-2.72l-6-.01a84.794,84.794,0,0,1,22.124,2.977l-5.782-1.592a80.543,80.543,0,0,1,19.29,8.206l-4.989-2.953a77.452,77.452,0,0,1,15.359,12.069l-4.013-4.074a77.553,77.553,0,0,1,11.5,15.2l-2.855-4.955a76.5,76.5,0,0,1,7.325,17.588q-.756-2.8-1.513-5.6a72.468,72.468,0,0,1,2.5,18.656q.005-3,.009-6a66.757,66.757,0,0,1-2.243,16.868l1.592-5.782a62.361,62.361,0,0,1-6.227,14.809l2.953-4.989a63.884,63.884,0,0,1-9.87,12.574l4.073-4.013a74.221,74.221,0,0,1-14.866,11.275l4.955-2.854a105.181,105.181,0,0,1-24.712,9.794l5.6-1.514c-14.214,3.81-28.848,5.63-43.141,9.075a126.41,126.41,0,0,0-15.083,4.4,87.405,87.405,0,0,0-13.11,6.654,41.769,41.769,0,0,0-7.576,5.522c-3.42,3.2-6.828,6.411-9.333,10.392a63.389,63.389,0,0,0-5.059,9.1,68.507,68.507,0,0,0-3.07,10.344c-1.361,5.7-1.22,11.841-.783,17.631.408,5.406,4.209,11.356,8.381,14.625,4.371,3.424,11.209,5.554,16.767,4.555,5.6-1.006,11.22-3.624,14.625-8.381l2.953-4.989a22.516,22.516,0,0,0,1.6-11.779c-.091-1.213-.141-2.423-.145-3.64q0,3-.01,6a36.352,36.352,0,0,1,1.137-8.858l-1.592,5.782a30.87,30.87,0,0,1,3.148-7.452l-2.953,4.988A32.471,32.471,0,0,1,975.5,208.6l-4.074,4.013a41.392,41.392,0,0,1,8.178-6.1l-4.955,2.854a66.186,66.186,0,0,1,15.318-6.094l-5.6,1.514c11.443-3.047,23.251-4.642,34.822-7.122,13.053-2.8,26.41-6.156,38.3-12.4a98.688,98.688,0,0,0,19.138-12.493c6.017-5.233,11.82-11.07,16.137-17.82,4.379-6.846,8.128-13.818,10.322-21.656a102.014,102.014,0,0,0,3.269-14.132,106.333,106.333,0,0,0,.576-15.049,73.719,73.719,0,0,0-2.5-18.121c-2.1-7.964-4.524-15.523-8.576-22.724-3.848-6.837-7.866-13.378-13.215-19.148a100.572,100.572,0,0,0-16.771-15.059,105.536,105.536,0,0,0-41.943-17.07,113.388,113.388,0,0,0-23.083-1.174,79.965,79.965,0,0,0-16.845,2.313c-7.033,1.77-13.973,3.718-20.419,7.1-6.12,3.209-12.1,6.741-17.1,11.549a71.867,71.867,0,0,0-8.769,9.44,70.378,70.378,0,0,0-6.5,10.964,66.351,66.351,0,0,0-4.062,12.672,40.21,40.21,0,0,0-1.136,8.107,81.541,81.541,0,0,0,.442,14.122,23.172,23.172,0,0,0,8.381,14.625c4.371,3.425,11.209,5.554,16.768,4.555,5.6-1.006,11.22-3.624,14.625-8.38A23.228,23.228,0,0,0,970.795,81.112Z" transform="translate(-664.957 -6.994)" fill="none" stroke="#002069" stroke-linecap="round" stroke-linejoin="round" stroke-width="2"/>
            <path id="Path_1333" data-name="Path 1333" d="M958.25,785.05a26.669,26.669,0,1,1-11.789-35.825A26.668,26.668,0,0,1,958.25,785.05Z" transform="translate(-653.099 -487.639)" fill="none" stroke="#002069" stroke-linecap="round" stroke-linejoin="round" stroke-width="2"/>
            <path id="Path_1334" data-name="Path 1334" d="M508.514,780.06a26.669,26.669,0,1,1-19.59-32.228A26.669,26.669,0,0,1,508.514,780.06Z" transform="translate(-297.886 -488.103)" fill="none" stroke="#002069" stroke-linecap="round" stroke-linejoin="round" stroke-width="2"/>
            <path id="Path_1335" data-name="Path 1335" d="M442.8,127.4l1.248,93.031a20.239,20.239,0,0,1-40.228,3.433L375.214,43a33.4,33.4,0,1,1,66.378-5.665l.8,59.31" transform="translate(-244.878 -2.865)" fill="none" stroke="#002069" stroke-linecap="round" stroke-linejoin="round" stroke-width="2"/>
          </g>
        </g>
      </g>
    </g>
    <g id="mantouch" transform="translate(824.054 4908.697)">
      <g id="Group_365" data-name="Group 365" transform="translate(0 0.002)" clip-path="url(#clip-path-7)">
        <path id="Path_1283" data-name="Path 1283" d="M263.915,1084.413l1.932,20.506a.987.987,0,0,1-.833,1.138l-10.182.63a.873.873,0,0,1-.879-.822l-1.892-18.637Z" transform="translate(-178.167 -766.508)" fill="#fff"/>
        <path id="Path_1284" data-name="Path 1284" d="M253.2,1105.76a1.526,1.526,0,0,1-1.48-1.4l-1.894-18.651a.657.657,0,0,1,.5-.7l11.854-2.816a.657.657,0,0,1,.806.577l1.932,20.507a1.747,1.747,0,0,1-.392,1.309,1.49,1.49,0,0,1-1.054.545l-10.182.63c-.03,0-.061,0-.091,0m-2.009-19.61,1.834,18.064a.245.245,0,0,0,.184.232l10.183-.63a.2.2,0,0,0,.129-.078.444.444,0,0,0,.092-.33l-1.862-19.767Z" transform="translate(-176.583 -764.922)"/>
        <path id="Path_1285" data-name="Path 1285" d="M201.394,1133.758c.676,2.422,2.1,9.248,2.7,13.354a5.14,5.14,0,0,1-3.746,5.689c-7.045,1.906-23.888,1.824-37.909,2.443a3.609,3.609,0,0,1-3.517-2.753c-2.668-7.891,12.069-10.335,26.636-18.357a.844.844,0,0,1,.9.047c.167.119.381.266.632.426a9.755,9.755,0,0,0,9.32.067l2.906-1.748a1.4,1.4,0,0,1,2.079.833" transform="translate(-112.108 -800.655)" fill="#fff"/>
        <path id="Path_1286" data-name="Path 1286" d="M160.692,1154.318a4.307,4.307,0,0,1-4.017-3.2c-2.052-6.071,4.759-9.02,14.187-13.1,3.921-1.7,8.364-3.623,12.755-6.041a1.5,1.5,0,0,1,1.6.087c.161.115.364.254.6.407a9.123,9.123,0,0,0,8.629.058l2.906-1.748A2.062,2.062,0,0,1,200.4,1132c.7,2.514,2.121,9.344,2.716,13.436a5.794,5.794,0,0,1-4.224,6.417c-5.314,1.438-15.818,1.751-26.938,2.083-3.7.11-7.525.224-11.114.383-.05,0-.1,0-.15,0M184.35,1133.1a.2.2,0,0,0-.1.026c-4.445,2.448-8.92,4.385-12.867,6.1-8.784,3.8-15.13,6.552-13.464,11.477a2.954,2.954,0,0,0,2.866,2.307c3.6-.159,7.428-.273,11.132-.383,11.041-.33,21.469-.641,26.634-2.037a4.48,4.48,0,0,0,3.268-4.961c-.573-3.94-2-10.817-2.681-13.272a.747.747,0,0,0-1.108-.446l-2.906,1.748a10.423,10.423,0,0,1-10.01-.076c-.263-.167-.487-.321-.662-.447a.174.174,0,0,0-.1-.031" transform="translate(-110.485 -799.07)"/>
        <path id="Path_1287" data-name="Path 1287" d="M204.96,1182.377c.014.071.023.121.027.144.374,2.576-2.073,4.16-4.412,5.258-6.941,3.258-34.974,1.391-36.056,1.318-.022,0-.038,0-.06,0-.349.006-3.907.006-4.933-2.207a3.791,3.791,0,0,1-.254-1.024,5.082,5.082,0,0,1,.092-1.776.854.854,0,0,1,1.042-.652c5.2,1.331,17.352,1.772,29.493.435,8.071-.889,11.577-2.649,13.448-3.768a.856.856,0,0,1,1.279.578c.1.491.215,1.087.334,1.7" transform="translate(-112.551 -834.059)" fill="#fff"/>
        <path id="Path_1288" data-name="Path 1288" d="M180.509,1188.765c-8.681,0-16.982-.553-17.618-.6-.453-.006-4.349-.01-5.544-2.588a4.24,4.24,0,0,1-.309-1.213,5.7,5.7,0,0,1,.1-2.005,1.515,1.515,0,0,1,.689-.97,1.482,1.482,0,0,1,1.155-.175c4.823,1.233,16.716,1.8,29.259.419,7.727-.851,11.224-2.507,13.183-3.679a1.508,1.508,0,0,1,1.385-.084,1.527,1.527,0,0,1,.875,1.1l.334,1.7c.017.088.028.149.032.176.451,3.1-2.514,4.88-4.783,5.946-3.307,1.553-11.18,1.975-18.762,1.975m-17.639-1.91c.022,0,.089,0,.1,0,9.99.681,30.307,1.295,35.739-1.256,3.046-1.43,4.292-2.839,4.041-4.57l-.021-.11h0l-.334-1.7a.205.205,0,0,0-.119-.153.183.183,0,0,0-.178.012c-2.064,1.234-5.732,2.977-13.714,3.857-12.7,1.4-24.792.81-29.728-.452a.19.19,0,0,0-.143.022.213.213,0,0,0-.1.137,4.413,4.413,0,0,0-.083,1.546,3,3,0,0,0,.2.834c.86,1.857,4.178,1.821,4.328,1.828Z" transform="translate(-110.968 -832.478)"/>
        <path id="Path_1289" data-name="Path 1289" d="M235.3,1150.551a.656.656,0,0,1-.4-.134l-4.253-3.239a.657.657,0,0,1,.8-1.045l4.252,3.238a.657.657,0,0,1-.4,1.18" transform="translate(-162.847 -810.039)"/>
        <path id="Path_1290" data-name="Path 1290" d="M217.306,1159.528a.653.653,0,0,1-.393-.132l-3.72-2.792a.657.657,0,1,1,.788-1.051l3.72,2.792a.657.657,0,0,1-.395,1.182" transform="translate(-150.508 -816.7)"/>
        <path id="Path_1291" data-name="Path 1291" d="M306.537,524.649s6.951,13.91,9.289,28.564c2.177,13.644,10.181,69.817,29.688,114.874,2.211,5.108-.342,10.424-5.78,11.608-2.176.474-3.088-.3-4.972-1.217a17.02,17.02,0,0,1-2.581-1.867s-34.532-28.86-48.612-104.585c-9.056-48.705-7.55-44.842-7.55-44.842Z" transform="translate(-195.035 -370.844)" fill="#fff"/>
        <path id="Path_1292" data-name="Path 1292" d="M238.29,546.364s4.054,26.433-3.613,45.989c-7.372,18.8-12.081,92.523-9.333,113.821a2.455,2.455,0,0,1-2.094,2.752c-3.353.471-9.4,1.111-13.537.337a1.971,1.971,0,0,1-1.562-1.451c-2.731-10.806-25.378-108.484-9.41-158.539Z" transform="translate(-136.482 -386.193)" fill="#fff"/>
        <path id="Path_1293" data-name="Path 1293" d="M319.253,712.1h-.04a.656.656,0,0,1-.616-.694,68.34,68.34,0,0,1,5.169-20.31,38.354,38.354,0,0,0,2.158-6.962.657.657,0,1,1,1.284.277,39.668,39.668,0,0,1-2.234,7.2,66.856,66.856,0,0,0-5.066,19.871.656.656,0,0,1-.655.618" transform="translate(-225.197 -483.205)"/>
        <path id="Path_1294" data-name="Path 1294" d="M248.571,629.884a7.208,7.208,0,0,1-2.946-.627l-7.253-3.248a6.537,6.537,0,0,1-3.876-6.2l.455-14.273a2.37,2.37,0,0,1,2.622-2.279,86.89,86.89,0,0,0,20.731-.523h0a2.37,2.37,0,0,1,2.709,2.473l-.8,14.947a6.536,6.536,0,0,1-2.706,4.964l-4.7,3.4a7.23,7.23,0,0,1-4.237,1.367m-11.252-25.325a1.055,1.055,0,0,0-1.055,1.021l-.455,14.273a5.228,5.228,0,0,0,3.1,4.956l7.253,3.248a5.92,5.92,0,0,0,5.876-.605l4.7-3.4a5.226,5.226,0,0,0,2.164-3.97l.8-14.947a1.05,1.05,0,0,0-.342-.836,1.069,1.069,0,0,0-.867-.267,88.053,88.053,0,0,1-21.058.53c-.039,0-.078-.006-.116-.006" transform="translate(-165.749 -426.021)"/>
        <path id="Path_1295" data-name="Path 1295" d="M374.645,623.746a2.422,2.422,0,0,1-1.1-.264l-7.987-4.059a2.409,2.409,0,0,1-1.307-1.893l-1.8-16.629a2.41,2.41,0,0,1,2.032-2.646l7.546-1.191a.656.656,0,1,1,.2,1.3l-7.548,1.191a1.1,1.1,0,0,0-.928,1.208l1.8,16.628a1.1,1.1,0,0,0,.6.864l7.987,4.059a1.1,1.1,0,0,0,1.136-.083l1.9-1.285a.656.656,0,0,1,.736,1.088l-1.889,1.277a2.385,2.385,0,0,1-1.38.439" transform="translate(-256.185 -422.024)"/>
        <path id="Path_1296" data-name="Path 1296" d="M212.681,693.347a26.7,26.7,0,0,1-4.779-.37,2.643,2.643,0,0,1-2.078-1.936c-.265-1.051-26.366-105.712-9.4-158.9a.656.656,0,0,1,.578-.455l18.571-1.366c-.79-5.22-.655-5.255-.025-5.424a.676.676,0,0,1,.433.03l30.258-2.514a.658.658,0,0,1,.642.36c.07.141,7.023,14.169,9.35,28.755.126.789.271,1.721.438,2.785,2.686,17.2,10.859,69.556,29.2,111.931a9.29,9.29,0,0,1-.1,7.95,8.823,8.823,0,0,1-6.147,4.561,5.882,5.882,0,0,1-4.574-.852c-.257-.132-.528-.273-.824-.417a17.4,17.4,0,0,1-2.724-1.962c-.261-.218-26.714-22.828-42.641-78.528-4.291,28.8-6.672,75.8-4.562,92.163a3.127,3.127,0,0,1-2.654,3.487,67.766,67.766,0,0,1-8.97.7M197.544,532.962c-16.581,52.968,9.29,156.712,9.554,157.757a1.307,1.307,0,0,0,1.046.967c4.066.761,10.094.112,13.325-.342A1.809,1.809,0,0,0,223,689.326c-2.24-17.362.346-66.468,5.031-95.533a.657.657,0,0,1,.613-.551.647.647,0,0,1,.668.483c15.7,57.4,42.773,80.571,43.044,80.8a15.912,15.912,0,0,0,2.446,1.78c.307.149.588.294.853.432,1.351.7,2.1,1.083,3.692.734a7.532,7.532,0,0,0,5.257-3.876,7.986,7.986,0,0,0,.061-6.829c-18.412-42.529-26.6-95.006-29.3-112.25-.166-1.062-.311-1.993-.436-2.781-2.078-13.023-7.9-25.6-9.035-27.975l-29.538,2.454c.051.612.2,1.9.617,4.611a.656.656,0,0,1-.6.754Z" transform="translate(-134.792 -369.26)"/>
        <path id="Path_1297" data-name="Path 1297" d="M486.183,1042.116c-1.256-5.738-1.777-6.912-4.621-11.3-2.114-3.262,2.788-8.327,5.323-8.755,4.224-.95,3.571.406,8.533,6.533l3.881,4.6s-12.019,13.935-13.116,8.92" transform="translate(-340.023 -722.24)" fill="#fff"/>
        <path id="Path_1298" data-name="Path 1298" d="M485.727,1042.284a1.772,1.772,0,0,1-.44-.052,1.829,1.829,0,0,1-1.332-1.546c-1.26-5.76-1.792-6.858-4.531-11.084a4.518,4.518,0,0,1-.1-4.427c1.08-2.455,3.874-5,5.861-5.332,3.56-.8,4.205.1,6.347,3.065.7.975,1.579,2.189,2.806,3.7l3.873,4.591a.657.657,0,0,1,0,.852c-1.522,1.765-9.006,10.229-12.483,10.229m-.489-1.879c.106.487.3.536.372.554,1.747.447,7.487-5.062,11.238-9.34l-3.518-4.172c-1.258-1.553-2.145-2.783-2.859-3.772-2.108-2.923-2.28-3.163-5.028-2.544-1.438.243-3.927,2.333-4.912,4.573a3.238,3.238,0,0,0,0,3.184c2.937,4.532,3.465,5.824,4.711,11.518" transform="translate(-338.436 -720.67)"/>
        <path id="Path_1299" data-name="Path 1299" d="M486.974,1046.569a1.783,1.783,0,0,1-.44-.052,1.83,1.83,0,0,1-1.332-1.546,30.836,30.836,0,0,0-4.537-11.094.657.657,0,0,1,1.115-.7,32,32,0,0,1,4.705,11.508c.106.486.3.535.372.554,1.743.439,7.485-5.06,11.237-9.338l-3.319-3.9a60.914,60.914,0,0,1-3.785-5.372.656.656,0,1,1,1.114-.7,60.8,60.8,0,0,0,3.682,5.229l3.675,4.32a.656.656,0,0,1,0,.854c-1.522,1.765-9.006,10.229-12.483,10.23" transform="translate(-339.683 -724.955)"/>
        <path id="Path_1300" data-name="Path 1300" d="M493.992,1058.363l4.776-7.5a6.6,6.6,0,0,1,10.1-1.253l5.7,4.613a14.414,14.414,0,0,1,.829,5.321,44.093,44.093,0,0,1-2.827,10.51c-2.5,5.968-9.506,17.993-12,22.22-.523.885-1.854,1.777-2.8,1.374a13.14,13.14,0,0,1-3.429-2.381c-1.755-1.588-1.313-9.168-.79-14.449.336-3.385-.115-12-.325-15.554a4.867,4.867,0,0,1,.755-2.9" transform="translate(-348.541 -740.636)" fill="#fff"/>
        <path id="Path_1301" data-name="Path 1301" d="M496.715,1092.827a1.941,1.941,0,0,1-.767-.153,13.514,13.514,0,0,1-3.612-2.5c-.565-.511-2.285-2.067-1-15,.331-3.34-.119-11.917-.327-15.451a5.49,5.49,0,0,1,.857-3.3l4.776-7.5a7.261,7.261,0,0,1,11.11-1.377l5.667,4.58a.655.655,0,0,1,.207.293,14.882,14.882,0,0,1,.859,5.633,44.915,44.915,0,0,1-2.871,10.67c-2.48,5.916-9.246,17.565-12.04,22.3a3.739,3.739,0,0,1-2.856,1.8m-4.3-36.046.554.353a4.187,4.187,0,0,0-.654,2.513c.21,3.563.663,12.224.323,15.657-1.1,11.078.038,13.409.577,13.9a12.3,12.3,0,0,0,3.245,2.265c.546.235,1.577-.425,1.978-1.1,2.78-4.711,9.512-16.3,11.96-22.14a43.581,43.581,0,0,0,2.782-10.351,13.117,13.117,0,0,0-.741-4.837l-5.556-4.493a5.951,5.951,0,0,0-9.138,1.095l-4.776,7.5Z" transform="translate(-346.966 -739.054)"/>
        <path id="Path_1302" data-name="Path 1302" d="M493.086,1107.99a.657.657,0,0,1-.185-1.286l5.258-1.548a.656.656,0,1,1,.371,1.259l-5.258,1.548a.643.643,0,0,1-.186.027" transform="translate(-348.069 -781.15)"/>
        <path id="Path_1303" data-name="Path 1303" d="M494.714,1124.057a.657.657,0,0,1-.185-1.286l5.258-1.547a.656.656,0,1,1,.371,1.259l-5.258,1.547a.643.643,0,0,1-.186.027" transform="translate(-349.22 -792.508)"/>
        <path id="Path_1304" data-name="Path 1304" d="M499.784,1104.433a4.652,4.652,0,0,1-1.521-.219c-1.587-.515-5.555-1.619-5.218-7.286.35-5.874,4.757-8.941,7.945-12.849,2.432-2.982,1.96-15.259,2.7-17.679,1.322-4.336,7.608-5.1,10.838-1.742,2.039,2.12,2.36,6.8,2.228,10.248-.248,6.457-3.808,19.365-8.489,25.651-2.283,3.067-5.876,3.828-8.482,3.876" transform="translate(-348.491 -751.066)" fill="#fff"/>
        <path id="Path_1305" data-name="Path 1305" d="M498.106,1103.507a5.263,5.263,0,0,1-1.627-.251l-.14-.045c-1.611-.518-5.889-1.892-5.53-7.9.283-4.753,3.079-7.746,5.782-10.64.78-.836,1.587-1.7,2.309-2.584,1.47-1.8,1.809-7.792,2.056-12.164a31.327,31.327,0,0,1,.523-5.292,6.04,6.04,0,0,1,4.564-4.085,7.846,7.846,0,0,1,7.375,2.08c2.361,2.455,2.524,7.776,2.41,10.728-.238,6.209-3.714,19.432-8.617,26.02-2.612,3.508-6.758,4.1-9,4.139h-.108m9.762-41.868a6.526,6.526,0,0,0-1.519.177,4.759,4.759,0,0,0-3.614,3.192,33.489,33.489,0,0,0-.468,4.983c-.272,4.806-.611,10.787-2.35,12.92-.75.92-1.572,1.8-2.367,2.651-2.662,2.85-5.176,5.541-5.431,9.822-.3,5,2.9,6.024,4.621,6.576l.144.046a4.091,4.091,0,0,0,1.305.187h0c2-.036,5.69-.553,7.967-3.611,4.755-6.387,8.127-19.241,8.359-25.284.179-4.67-.566-8.231-2.045-9.768a6.419,6.419,0,0,0-4.6-1.891" transform="translate(-346.909 -749.483)"/>
        <path id="Path_1306" data-name="Path 1306" d="M504.777,1110a4.748,4.748,0,0,1-3.554-1.471,3.966,3.966,0,0,1-.973-3.185c.735-6.126,4-9.373,7.456-12.81,2.646-2.632,3.2-11.829,3.459-16.249a22.084,22.084,0,0,1,.249-2.844c.466-1.833,2.783-3.574,5.166-3.88a4.992,4.992,0,0,1,5.21,2.666.657.657,0,1,1-1.15.635,3.646,3.646,0,0,0-3.893-2c-2.024.259-3.764,1.737-4.06,2.9-.072.284-.136,1.357-.21,2.6-.295,4.933-.843,14.116-3.844,17.1-3.433,3.414-6.4,6.362-7.079,12.036a2.64,2.64,0,0,0,.644,2.148,3.446,3.446,0,0,0,2.659,1.037,13.509,13.509,0,0,0,1.731-.141.657.657,0,0,1,.192,1.3,14.909,14.909,0,0,1-1.9.155h-.1" transform="translate(-353.575 -755.972)"/>
        <path id="Path_1307" data-name="Path 1307" d="M292.254,170.425l-3.123-17.141-13.965,3.593,1.927,11.934Z" transform="translate(-194.499 -108.348)" fill="#fff"/>
        <path id="Path_1308" data-name="Path 1308" d="M290.67,169.5a.622.622,0,0,1-.07,0l-15.161-1.615a.657.657,0,0,1-.579-.548L272.934,155.4a.657.657,0,0,1,.485-.741l13.965-3.593a.657.657,0,0,1,.81.518l3.123,17.141a.656.656,0,0,1-.646.775m-14.593-2.871,13.789,1.468-2.839-15.583-12.7,3.268Z" transform="translate(-192.915 -106.764)"/>
        <path id="Path_1309" data-name="Path 1309" d="M253.651,74.389c4.992.677,5.671,6.312,11.636,6.974,2.733.3,4.106-.711,6.528.452,1.6.77,3.937,2.625,4.176,5.08.3,3.127-3.124,3.8-6.626,9.819-2.459,4.226-2.609,7.055-4.564,7.362-1.978.309-2.862-2.422-5.047-2.246-2.828.227-3.2,4.949-6.182,6.357-1.881.887-5.822.7-11.384-3.464a2.335,2.335,0,0,1-.692-2.907c.643-1.292,1.464-2.92,2.379-4.409,4.361-7.1,7.439-8.3,6.832-10.474-.93-3.335-7.051-2.717-7.522-5.4-.489-2.786,5.342-7.839,10.468-7.144" transform="translate(-170.526 -52.536)"/>
        <path id="Path_1310" data-name="Path 1310" d="M267.521,110.513l-1.328-.691s-4.306,8.987-5.99,11.29-9.21-2.375-9.21-2.375l-.184-1.66-.9-.586a1.1,1.1,0,0,1-.174-1.706c1.816-1.8,5.669-5.884,7.542-9.86a12.155,12.155,0,0,1,10.244,5.588" transform="translate(-176.292 -74.163)" fill="#fff"/>
        <path id="Path_1311" data-name="Path 1311" d="M266.9,109.38c-.286-.036-.639-.049-1.033-.131a4.321,4.321,0,0,1-1.093-.4l.919-.307c-.823,1.725-1.648,3.442-2.517,5.143s-1.748,3.4-2.732,5.066c-.26.424-.5.818-.833,1.273a2.128,2.128,0,0,1-.842.632,2.991,2.991,0,0,1-.91.209,7.994,7.994,0,0,1-3.073-.554,29.242,29.242,0,0,1-5.25-2.583.652.652,0,0,1-.309-.49c-.054-.554-.128-1.106-.166-1.662l.288.468c-.261-.191-.5-.411-.755-.617-.05-.044-.145-.114-.234-.2a1.893,1.893,0,0,1-.223-.273,1.785,1.785,0,0,1-.264-.634,1.586,1.586,0,0,1,.3-1.3c.17-.2.246-.258.369-.389l.335-.344c.894-.918,1.745-1.879,2.552-2.871s1.572-2.015,2.273-3.072a24.008,24.008,0,0,0,1.87-3.272l.005-.011a.623.623,0,0,1,.548-.363,11.711,11.711,0,0,1,3.214.385,12.91,12.91,0,0,1,2.981,1.161,12.686,12.686,0,0,1,2.6,1.87,13.145,13.145,0,0,1,1.089,1.176c.175.2.328.42.491.631l.06.08c.027.038.07.1.1.159a1.718,1.718,0,0,1,.181.416,2.276,2.276,0,0,1,.046.8m-.974-.881a.4.4,0,0,0-.387.176.239.239,0,0,0-.035.1s0,.017-.005,0l-.055-.071c-.15-.188-.29-.385-.451-.563a11.8,11.8,0,0,0-.993-1.04,11.332,11.332,0,0,0-2.317-1.681,11.547,11.547,0,0,0-2.67-1.056,10.818,10.818,0,0,0-2.806-.365l.553-.374a30.352,30.352,0,0,1-4.533,6.459q-1.3,1.464-2.674,2.855l-.651.653a.621.621,0,0,0-.128.53.492.492,0,0,0,.135.24.441.441,0,0,0,.11.078l.163.077c.29.147.589.28.869.441a.571.571,0,0,1,.279.4l.01.064c.086.551.134,1.106.2,1.658l-.309-.49a27.983,27.983,0,0,0,5,2.405,6.792,6.792,0,0,0,2.507.457,1.053,1.053,0,0,0,.765-.321c.228-.312.491-.729.726-1.117.95-1.608,1.829-3.294,2.692-4.98s1.721-3.385,2.552-5.088l0-.008a.67.67,0,0,1,.9-.308l.019.01a.427.427,0,0,1,.235.288,1.781,1.781,0,0,0,.295.56" transform="translate(-175.186 -72.589)"/>
        <path id="Path_1312" data-name="Path 1312" d="M301.529,139.711s3.462-4.237,5.057-2.254-2.334,6.552-5.057,2.254" transform="translate(-213.133 -96.787)" fill="#fff"/>
        <path id="Path_1313" data-name="Path 1313" d="M500.178,587.248s-1.081,10.663.778,14.517S514.9,612.988,514.9,612.988s3.663-2.339,0-5.331a23.75,23.75,0,0,1-5.142-5.48s.75-11.344-.893-13.7-8.685-1.23-8.685-1.23" transform="translate(-353.325 -414.902)" fill="#fff"/>
        <path id="Path_1314" data-name="Path 1314" d="M513.31,612.041a.658.658,0,0,1-.342-.1c-.5-.3-12.271-7.515-14.192-11.5s-.885-14.426-.84-14.868a.657.657,0,0,1,.55-.583c.763-.122,7.5-1.113,9.327,1.5,1.648,2.359,1.142,12,1.025,13.9a24.713,24.713,0,0,0,4.888,5.145,4.154,4.154,0,0,1,1.864,3.393,4.309,4.309,0,0,1-1.926,3,.656.656,0,0,1-.353.1M499.2,586.219c-.182,2.146-.771,10.478.762,13.656,1.4,2.908,9.74,8.5,13.31,10.712a2.673,2.673,0,0,0,1.01-1.733,2.967,2.967,0,0,0-1.385-2.293,24.2,24.2,0,0,1-5.291-5.653.658.658,0,0,1-.091-.379c.284-4.3.325-11.7-.777-13.279-.961-1.376-4.933-1.373-7.539-1.031" transform="translate(-351.737 -413.298)"/>
        <path id="Path_1315" data-name="Path 1315" d="M13.987,27.381l.848-5.645a7.228,7.228,0,0,0-.853-4.626L5.9,2.783a1.042,1.042,0,0,0-1.649-.232c-.81.843-1.605,2.387-.454,4.807l1.9,3.618a1.854,1.854,0,0,1-.526,2.329,7.19,7.19,0,0,0-2.856,4.657c-.832,6.172,5.952,10.621,5.952,10.621Z" transform="translate(-1.587 -1.586)" fill="#fff"/>
        <path id="Path_1316" data-name="Path 1316" d="M6.68,27.656a.655.655,0,0,1-.36-.108C6.029,27.357-.8,22.8.078,16.291a7.817,7.817,0,0,1,3.1-5.088A1.2,1.2,0,0,0,3.529,9.7l-1.9-3.618c-1.381-2.9-.241-4.732.561-5.567A1.648,1.648,0,0,1,3.6.017a1.725,1.725,0,0,1,1.281.86L12.968,15.2a7.922,7.922,0,0,1,.93,5.046l-.848,5.645a.657.657,0,0,1-.514.545l-5.72,1.2a.621.621,0,0,1-.135.014M3.387,1.316a.338.338,0,0,0-.251.1c-1.008,1.05-1.12,2.42-.334,4.07l1.89,3.6a2.511,2.511,0,0,1-.7,3.153,6.533,6.533,0,0,0-2.608,4.226c-.685,5.08,4.328,9.023,5.444,9.832l4.995-1.049.78-5.194a6.6,6.6,0,0,0-.775-4.206L3.739,1.522a.4.4,0,0,0-.3-.2.469.469,0,0,0-.049,0M12.4,25.8h0Z" transform="translate(0 -0.002)"/>
        <path id="Path_1317" data-name="Path 1317" d="M433.55,339.317H419.561s-3.025-49.676-29.686-65.751l2.035-39.947s55.891,31.092,41.64,105.7" transform="translate(-275.579 -165.132)" fill="#002069"/>
        <path id="Path_1318" data-name="Path 1318" d="M235.579,390.245l10.451,49.662s-42.562,7.3-57.395,4.635-16.566-6.575-16.566-6.575l6.27-54.62Z" transform="translate(-121.626 -270.967)" fill="#fff"/>
        <path id="Path_1319" data-name="Path 1319" d="M195.717,444.206a51.961,51.961,0,0,1-8.781-.6c-14.75-2.649-16.859-6.523-17.05-6.956a.661.661,0,0,1-.052-.341l6.27-54.62a.657.657,0,0,1,.731-.577l57.24,6.9a.658.658,0,0,1,.564.517l10.452,49.662a.657.657,0,0,1-.531.782c-1.465.251-30.769,5.235-48.841,5.235m-24.553-7.972c.474.643,3.388,3.813,16,6.079,13.537,2.431,51-3.612,56.5-4.524L233.45,389.257l-56.117-6.762Z" transform="translate(-120.043 -269.382)"/>
        <path id="Path_1320" data-name="Path 1320" d="M106.212,121.772l21.469,6.748,9.287,71.1a7.329,7.329,0,0,1-4.721,7.832c-10.285,3.789-34.581,10.482-68.131,5.3a7.337,7.337,0,0,1-6.2-7.071c-.3-11.92-.517-38.669,2.854-54.037,0,0-47.333-.043-44.595-64.011l9.9-2.7s16.639,37.6,45.357,36.141c0,0,19.23-4.188,34.782.7" transform="translate(-11.35 -60.033)" fill="#002069"/>
        <path id="Path_1321" data-name="Path 1321" d="M261.046,204.129s18.6-1.771,33.394,1.154c8.768,1.733,25.4,8.2,12.706,21.252s-21.434,11.809-25.62,4.507-11.652-24.191-20.48-26.913" transform="translate(-184.518 -143.911)" fill="#fff"/>
        <path id="Path_1322" data-name="Path 1322" d="M288.515,235.562a10.252,10.252,0,0,1-1.3-.08c-3.238-.408-5.952-2.371-7.846-5.677-.714-1.246-1.539-2.8-2.411-4.44-4.229-7.96-10.619-19.991-17.692-22.172a.657.657,0,0,1,.131-1.281c.187-.019,18.865-1.747,33.583,1.163,2.517.5,15.19,3.355,17.494,10.75,1.1,3.536-.394,7.44-4.444,11.6-6.476,6.658-12.5,10.133-17.519,10.133m-26.437-32.535c6.557,3.864,12.181,14.45,16.043,21.721.867,1.633,1.687,3.176,2.391,4.4,1.682,2.934,4.058,4.672,6.871,5.028,4.847.6,10.963-2.733,17.709-9.667,3.689-3.792,5.079-7.257,4.132-10.3-1.615-5.183-9.9-8.547-16.495-9.852-11.324-2.24-25.058-1.694-30.651-1.336" transform="translate(-182.935 -142.348)"/>
        <path id="Path_1323" data-name="Path 1323" d="M333.615,232.121c-4.8,0-10.359-2.343-16.79-7.045-5.338-3.9-6.859-4.049-7.047-4.05a.657.657,0,0,1-.464-1.222c.965-.488,3.909,1.01,8.286,4.211,10.229,7.481,17.744,8.779,23.652,4.082a.657.657,0,0,1,.817,1.028,13.227,13.227,0,0,1-8.454,3M309.9,220.979h0Zm0,0h0Zm0,0h0" transform="translate(-218.38 -155.303)"/>
      </g>
    </g>
  </g>
</svg>
