<svg xmlns="http://www.w3.org/2000/svg" width="379.075" height="410.098" viewBox="0 0 379.075 410.098">
  <g id="Group_523" data-name="Group 523" transform="translate(0.5 0.508)">
    <g id="Group_396" data-name="Group 396" transform="translate(0 0)">
      <path id="Path_518" data-name="Path 518" d="M423.185,200.933c53.565,82.576,30.5,192.648-51.524,245.852S179.727,476.18,126.162,393.6s-30.5-192.647,51.523-245.852,191.934-29.395,245.5,53.181" transform="translate(-74.638 -91.598)" fill="#fff" stroke="#d8d8d8" stroke-width="1"/>
      <path id="Path_519" data-name="Path 519" d="M274.251,473.848A179.565,179.565,0,0,1,98.691,257.68,176.708,176.708,0,0,1,309.347,121.032,179.6,179.6,0,0,1,446.915,333.106,176.8,176.8,0,0,1,274.251,473.848M271.358,118A174.428,174.428,0,0,0,176.1,146.321c-81.644,52.961-104.688,162.921-51.367,245.12a178.011,178.011,0,0,0,149.439,81.238,175.457,175.457,0,0,0,171.7-139.79A178.412,178.412,0,0,0,271.358,118" transform="translate(-72.767 -89.723)" stroke="#d8d8d8" stroke-width="1"/>
      <path id="Path_520" data-name="Path 520" d="M395.576,313.367a15.248,15.248,0,0,1-7.92-2.918c-2.935-1.946-6.125-7.067-9.21-12.02-2.5-4.019-4.868-7.815-6.645-9.113-3.248-2.37-4.489-1.525-7.208.325-.394.268-.813.553-1.266.847a6.706,6.706,0,0,1-6.824.505,2.194,2.194,0,0,1-1.356-1.774c.207-10.459,17.445-19.018,26.706-23.617,10.784-5.355,18.773-4.337,22.492,2.87,3.729,7.225-5.1,24.066-6.121,25.962-1.056,1.965-.11,4.993.805,7.923.809,2.593,1.647,5.273,1.192,7.444a4.16,4.16,0,0,1-2.5,3.181,5.642,5.642,0,0,1-2.146.385m-27.165-26.557a6.93,6.93,0,0,1,4.014,1.651c1.943,1.418,4.361,5.3,6.92,9.408,2.884,4.63,6.153,9.879,8.9,11.7,3.541,2.348,7.02,3.28,9.079,2.436a3.108,3.108,0,0,0,1.866-2.418c.4-1.9-.4-4.448-1.167-6.912-.98-3.138-1.993-6.383-.727-8.739,3.6-6.7,8.939-19.5,6.113-24.975-3.46-6.7-10.75-7.537-21.08-2.407-9.06,4.5-25.923,12.872-26.118,22.689h0c0,.144.215.5.811.828a5.724,5.724,0,0,0,5.733-.469c.446-.289.859-.57,1.247-.834,1.592-1.084,2.873-1.956,4.413-1.956m-12.734,2.42h0Z" transform="translate(-272.493 -201.188)" stroke="#d8d8d8" stroke-width="1"/>
      <path id="Path_521" data-name="Path 521" d="M634.875,1162.228a10.376,10.376,0,0,1-1.62-.125c-4.954-.787-18.587-9.1-25.8-14.477-5.7-4.249-18.076-20.957-26.266-32.013-2.461-3.321-4.585-6.189-5.866-7.813-4.425-5.611-7.467-4.954-15.6-3.2-1.3.281-2.779.6-4.387.917-11.741,2.316-14.887-.668-19.743-8.558-.44-.715-1.1-1.591-1.863-2.606-3.29-4.373-8.263-10.98-6.28-18.367,1.765-6.573-4.033-20.416-7.653-25.461a5.523,5.523,0,0,1-.136-6.079c2.284-3.9,7.066-9.072,16.876-11.546,4.09-1.031,6.823-.163,9.467.676a17.258,17.258,0,0,0,7.672,1.086,34.1,34.1,0,0,0,7-1.864c4.9-1.674,9.973-3.4,11.768,1.577,2.241,6.22,12.806,7.366,25.694,2.786,7.589-2.7,15.274-1.52,18.691,2.861,2.208,2.831,2.129,6.475-.217,10-5.913,8.882-4.1,11.377-.4,15.021a41.4,41.4,0,0,0,4.829,3.839c3.138,2.255,5.849,4.2,5.471,6.385-.541,3.128-5.271,8.8-7.478,11.058-2.1,2.144-3.176,6.915-.594,12.322,2.716,5.686,2.936,24.728,1.636,33.674-1.165,8.014,3.548,11.167,12.936,17.45q1.155.773,2.4,1.611c4.579,3.091,6.458,5.779,5.586,7.99-.752,1.905-3.5,2.856-6.133,2.856M567.562,1102.3c3.243,0,5.719,1.194,8.6,4.842,1.29,1.635,3.318,4.373,5.885,7.838,8.154,11.007,20.477,27.639,26.049,31.794,7.124,5.313,20.533,13.518,25.33,14.28,2.575.409,5.919-.342,6.6-2.074.646-1.639-1.2-4.027-5.194-6.724q-1.242-.838-2.4-1.608c-9.451-6.324-14.656-9.808-13.4-18.482,1.283-8.823,1.1-27.537-1.543-33.065-2.816-5.9-1.632-11.039.792-13.518,2.634-2.7,6.742-7.9,7.192-10.5.265-1.53-2.315-3.383-5.045-5.345a42.141,42.141,0,0,1-4.953-3.944c-4.37-4.3-5.77-7.311.257-16.363,2.107-3.166,2.2-6.277.264-8.761-2.569-3.294-9.142-5.485-17.5-2.514-13.686,4.864-24.555,3.487-27.045-3.425-1.372-3.809-4.857-2.836-10.43-.934a34.841,34.841,0,0,1-7.229,1.915,18.139,18.139,0,0,1-8.1-1.13c-2.618-.831-5.092-1.616-8.888-.659-9.454,2.385-14.04,7.328-16.221,11.054a4.479,4.479,0,0,0,.082,4.927c3.82,5.325,9.689,19.375,7.815,26.353-1.849,6.888,2.937,13.248,6.1,17.455.779,1.036,1.453,1.931,1.919,2.688,4.68,7.6,7.5,10.272,18.636,8.074,1.6-.315,3.07-.633,4.368-.913a41.15,41.15,0,0,1,8.057-1.263" transform="translate(-398.076 -791.121)" stroke="#d8d8d8" stroke-width="1"/>
      <path id="Path_522" data-name="Path 522" d="M851.828,349.421a5.3,5.3,0,0,1-1.471-.226c-7.1-2.059-19.592-19.1-19.378-32.251.241-14.9-9.651-19.992-13.915-21.489-3.285-1.153-10.143-11.1-15.319-19.242l-.292-.459c-.064-.1-.15-.263-.262-.478-.694-1.344-2.319-4.489-6.124-5.167-4.694-.836-11.007,2.341-18.759,9.443-6.725,6.161-13.019,8.652-18.7,7.4-6.325-1.389-11.686-7.235-15.934-17.375-2.038-4.864-5.023-7.907-7.657-10.591a31.894,31.894,0,0,1-4.112-4.763c-3.369-5.194.866-14.061,5.012-20.584a49.965,49.965,0,0,0,4.973-10.926,37.091,37.091,0,0,1,4.143-9.038c2.821-4.1,6.167-2.418,9.4-.79a17.485,17.485,0,0,0,5.562,2.054c2.223.274,2.873-.766,3.858-2.34,1.349-2.155,3.029-4.836,9.357-4.924,7.5-.1,12.6-5.448,13.688-9.027.288-.949.574-2.675-.739-3.579-1.645-1.132-3.348-.757-5.32-.324-2.584.568-5.512,1.212-9.132-1.158-3.978-2.6-2.584-6.773-1.235-10.8.9-2.682,1.824-5.455.995-7.535s-3.257-3.9-6.653-4.985c-3.419-1.088-7.147-1.163-8.672-.174-.945.613-.021,2.594,1.049,4.888,1.662,3.564,3.939,8.446.911,12.376-2.677,3.475-7.239,3.809-11.652,4.133-3.954.29-8.043.59-10.709,3.15-2.995,2.875-3.438,8.881-3.906,15.239-.408,5.534-.83,11.257-3,15.437-1.562,3.016-3.952,4.159-6.555,3.139-4.2-1.646-7.973-8.584-6.387-14.334,1.956-7.095-1.855-12.534-3.9-15.456-.269-.384-.508-.724-.7-1.018a7.482,7.482,0,0,1-.92-5.97c.865-3.271,3.792-6.219,8.7-8.764,3.97-2.059,6.456-4.453,7.186-6.924a4.619,4.619,0,0,0-.165-3.382c-4.639-9.993-7.815-12.187-9.666-12.274a3.352,3.352,0,0,0-2.852,1.972,21.9,21.9,0,0,0-.006,4.574c.271,5.746.643,13.615-2.813,14.964-2.383.93-5.967-1.512-10.956-7.467-7.188-8.581-9.95-15.2-8.21-19.663,1.519-3.9,5.885-4.625,6.326-4.689,7.732-1.854,12.568-5.123,14.373-9.719,2.605-6.632-1.732-14.285-3.718-17.267a.529.529,0,0,1,.376-.819,178.871,178.871,0,0,1,143.916,47.108.533.533,0,0,1,.127.185c1.988,4.838,4.173,11.938,3.29,18.29-.74,5.324,1.861,8.334,4.156,10.99,1.69,1.956,3.286,3.8,2.919,6.17a18.51,18.51,0,0,0-.131,2.444c-.024,2.075-.049,4.221-1.533,4.811-1.722.684-5.345-.546-19.2-14.855-17.693-18.271-27.8-13.491-31.328-10.588a.467.467,0,0,0-.153.513.442.442,0,0,0,.405.317c3.662.268,10.327,1.321,13.81,5.37a9.478,9.478,0,0,1,2.2,7.175c-.824,10.678,1.788,17.893,7.354,20.316,5.471,2.38,7.887,5.231,9.942,11.732.751,2.375.448,5.587.127,8.989-.615,6.516-1.311,13.9,5.24,17.405,10.875,5.816,17.116,41.47,13.078,53.015-1.88,5.377-2.584,11.8-3.265,18.006-.786,7.167-1.528,13.936-4.046,18.059a3.394,3.394,0,0,1-3.028,1.75m-58.261-80.5a9.614,9.614,0,0,1,1.685.145c4.32.769,6.18,4.368,6.88,5.723.09.174.157.308.209.388l.3.467c7.084,11.145,12.469,18,14.775,18.811,4.481,1.573,14.876,6.914,14.623,22.5-.2,12.489,11.959,29.287,18.614,31.217a2.594,2.594,0,0,0,3.3-1.059c2.4-3.922,3.125-10.577,3.9-17.623.687-6.268,1.4-12.749,3.318-18.24s1.509-16.827-1.019-28.219c-2.733-12.314-7.054-21.1-11.559-23.513-7.173-3.837-6.44-11.594-5.795-18.438.311-3.291.6-6.4-.083-8.57-2.185-6.911-4.757-9.08-9.354-11.08-3.482-1.515-9.15-6.306-7.988-21.368a8.456,8.456,0,0,0-1.946-6.4c-3.234-3.759-9.586-4.749-13.085-5A1.492,1.492,0,0,1,809,187.607a1.529,1.529,0,0,1,.489-1.651c3.752-3.09,14.455-8.237,32.761,10.669,10.107,10.437,16.182,15.352,18.049,14.607.825-.328.847-2.194.866-3.84a19.211,19.211,0,0,1,.144-2.594c.292-1.883-1.017-3.4-2.674-5.315-2.32-2.686-5.209-6.028-4.4-11.828.843-6.072-1.251-12.922-3.177-17.636a176.981,176.981,0,0,0-142.138-46.851c2.207,3.511,5.952,10.919,3.358,17.523-1.94,4.941-7.033,8.429-15.137,10.367l-.053.01c-.042.006-4.179.6-5.511,4.036-1.088,2.8-.576,8.307,8.038,18.59,5.723,6.833,8.464,7.666,9.759,7.161,2.748-1.073,2.368-9.12,2.141-13.928-.145-3.064-.2-4.563.149-5.159a4.291,4.291,0,0,1,3.816-2.495c3.117.147,6.668,4.47,10.556,12.847a5.654,5.654,0,0,1,.24,4.166c-.826,2.793-3.422,5.337-7.714,7.563-4.632,2.4-7.379,5.125-8.164,8.095a6.418,6.418,0,0,0,.784,5.124c.185.285.416.614.677.987,2.147,3.065,6.143,8.769,4.055,16.345-1.424,5.164,2.031,11.608,5.752,13.067,2.1.823,3.908-.09,5.228-2.64,2.066-3.987,2.48-9.6,2.88-15.028.484-6.567.941-12.77,4.229-15.925,2.941-2.824,7.223-3.138,11.364-3.442,4.373-.321,8.5-.624,10.891-3.724,2.635-3.42.6-7.779-1.032-11.282-1.279-2.742-2.383-5.109-.666-6.223,1.822-1.182,5.757-1.16,9.569.053,3.7,1.176,6.365,3.218,7.315,5.6.973,2.44-.017,5.4-.974,8.263-1.277,3.819-2.483,7.426.811,9.583,3.248,2.126,5.829,1.559,8.325,1.01,2.122-.467,4.125-.907,6.148.486,1.365.939,1.785,2.674,1.152,4.759-1.4,4.624-7.417,9.678-14.686,9.778-5.751.08-7.2,2.389-8.474,4.427-1.026,1.638-1.992,3.186-4.885,2.829a18.55,18.55,0,0,1-5.908-2.158c-3.342-1.682-5.756-2.9-8.053.444a36.287,36.287,0,0,0-4.018,8.791,51.532,51.532,0,0,1-5.078,11.141c-5.626,8.851-7.408,15.755-5.018,19.44a31.135,31.135,0,0,0,3.981,4.6c2.7,2.752,5.761,5.872,7.878,10.924,4.107,9.8,9.216,15.439,15.185,16.75,5.332,1.17,11.306-1.235,17.762-7.149,7.143-6.544,13.178-9.85,17.974-9.85" transform="translate(-529.48 -92.776)" stroke="#d8d8d8" stroke-width="1"/>
      <path id="Path_523" data-name="Path 523" d="M190.25,593.36c-4.318,0-15.894-3.191-28.222-8.7-8.887-3.969-24.638-12.113-30.267-22.07-.752-1.331-1.48-2.606-2.183-3.837-8.2-14.361-13.147-23.029-13.438-44.379-.08-5.894-2.676-12.613-7.714-19.969a.53.53,0,0,1-.078-.422,193.318,193.318,0,0,1,10.133-30.637.529.529,0,0,1,.294-.286l.423-.165c6.063-2.37,17.348-6.781,25.516-17.625,5.465-7.255,8.434-11.848,10.4-14.887,2.627-4.064,3.512-5.434,6.137-6.621,4.8-2.172,10.58-1.28,12.118,1.87,2.358,4.83-1.119,10.31-10.335,16.288a17.85,17.85,0,0,0-8.209,16.111c.225,4.117,1.9,7.649,4.159,8.787,2.245,1.13,3.68,1.405,4.952.95,2.187-.782,4.251-3.888,7.615-11.462,6.174-13.9,15.088-11.023,16.812-10.3,2.485,1.034,3.088,5.366,3.727,9.952a59.353,59.353,0,0,0,1.042,6.006,24.718,24.718,0,0,0,3.75,7.721c1.07,1.629,1.915,2.916,2.005,4.125.131,1.771-1.694,4.263-4.221,7.712-1.362,1.86-2.906,3.967-4.41,6.327-4.555,7.146-7.489,12.371-6.79,19.6.452,4.671-1.537,8.9-3.135,12.3-1.056,2.247-1.968,4.188-1.806,5.51a17,17,0,0,0,2.147,4.792c2.008,3.619,4.284,7.722,2.6,10.882-2.182,4.1-10.553,5.669-14.917,4.68a5.537,5.537,0,0,0-5.2,1.357,4.175,4.175,0,0,0-1.212,3.867c.937,4.1,4.608,8.057,10.911,11.775,8.82,5.2,15.019,10.505,18.427,15.758,3.88,5.982,5.179,10.085,3.972,12.545-.694,1.416-2.191,2.229-4.448,2.417-.17.014-.357.021-.559.021M109.432,494c5.071,7.456,7.684,14.3,7.766,20.358.287,21.077,4.909,29.173,13.3,43.869.7,1.232,1.432,2.509,2.185,3.841,9.718,17.187,51.055,30.792,58.039,30.211,1.86-.155,3.066-.77,3.585-1.829,1.015-2.068-.3-5.938-3.91-11.5-3.317-5.115-9.4-10.3-18.077-15.422-6.563-3.872-10.4-8.061-11.4-12.451a5.227,5.227,0,0,1,1.495-4.851,6.588,6.588,0,0,1,6.182-1.642c4.5,1.019,11.974-.807,13.748-4.145,1.41-2.653-.718-6.488-2.6-9.872-1.127-2.032-2.1-3.787-2.271-5.177-.2-1.625.773-3.694,1.9-6.089,1.543-3.282,3.463-7.367,3.04-11.749-.787-8.135,3.147-14.306,6.951-20.273,1.522-2.388,3.077-4.511,4.449-6.383,2.3-3.144,4.121-5.627,4.019-7.008-.069-.936-.848-2.121-1.834-3.622a25.589,25.589,0,0,1-3.893-8.045,60.152,60.152,0,0,1-1.064-6.117c-.57-4.09-1.159-8.319-3.086-9.121-1.565-.651-9.664-3.243-15.438,9.757-3.543,7.977-5.7,11.125-8.226,12.029-1.955.7-4.021-.114-5.784-1-2.631-1.324-4.491-5.122-4.74-9.675a18.9,18.9,0,0,1,8.69-17.057c8.694-5.64,12.045-10.665,9.96-14.936-1.256-2.572-6.571-3.251-10.73-1.37-2.342,1.058-3.117,2.257-5.685,6.23-1.972,3.052-4.954,7.663-10.441,14.949-8.348,11.084-19.815,15.566-25.976,17.974l-.216.084A192.306,192.306,0,0,0,109.432,494" transform="translate(-83.12 -324.226)" stroke="#d8d8d8" stroke-width="1"/>
      <path id="Path_524" data-name="Path 524" d="M1546.606,708.708a.53.53,0,0,1-.367-.147c-2.98-2.859-5.781-7.2-8.032-10.686l-.67-1.037c-3.94-6.074-.252-13.671,1.952-18.21,2.37-4.881,4.057-15.15.149-21.689-3.52-5.89-2.09-10.338-.828-14.263.281-.875.547-1.7.76-2.536,1.191-4.666-2.443-12.638-6.493-17.349-4.591-5.341-4.186-7.885-1.733-10.971,1.035-1.3.593-3.241.2-4.952-.412-1.81-.839-3.683.856-4.312.581-.215,2.12-.786,8.834,6.688a.535.535,0,0,1,.105.177,178.591,178.591,0,0,1,5.78,98.875.529.529,0,0,1-.516.413m-13.834-105.16c-.747.277-.632,1.153-.192,3.084.421,1.847.944,4.146-.408,5.845-2.18,2.744-2.451,4.784,1.707,9.622,4.317,5.02,8.009,13.239,6.716,18.3-.221.865-.5,1.746-.778,2.6-1.251,3.893-2.545,7.917.73,13.4,4.108,6.874,2.365,17.606-.106,22.695-2.106,4.338-5.631,11.6-2.016,17.172l.672,1.039a68.338,68.338,0,0,0,7.2,9.822,177.518,177.518,0,0,0-5.919-97.25c-5.875-6.525-7.366-6.413-7.607-6.324" transform="translate(-1173.567 -462.239)" stroke="#d8d8d8" stroke-width="1"/>
      <path id="Path_525" data-name="Path 525" d="M1210.093,459.233c0,10.659-16.989,36.276-21.058,42.26a1.05,1.05,0,0,1-1.738,0c-2.915-4.286-12.45-18.633-17.631-30.349-2.056-4.648-3.426-8.882-3.426-11.91a21.927,21.927,0,1,1,43.854,0" transform="translate(-894.815 -335.53)" fill="#bebebe" stroke="#d8d8d8" stroke-width="1"/>
      <path id="Path_526" data-name="Path 526" d="M1237.426,498.467a10.026,10.026,0,1,1-10.026-10.026,10.027,10.027,0,0,1,10.026,10.026" transform="translate(-934.048 -374.764)" fill="#fff" stroke="#d8d8d8" stroke-width="1"/>
      <path id="Path_527" data-name="Path 527" d="M342.093,853.092c0,10.659-16.988,36.276-21.059,42.26a1.05,1.05,0,0,1-1.738,0c-2.915-4.286-12.45-18.633-17.631-30.349-2.056-4.648-3.426-8.882-3.426-11.91a21.927,21.927,0,1,1,43.854,0" transform="translate(-228.829 -637.724)" fill="#bebebe" stroke="#d8d8d8" stroke-width="1"/>
      <path id="Path_528" data-name="Path 528" d="M369.425,892.326A10.026,10.026,0,1,1,359.4,882.3a10.026,10.026,0,0,1,10.026,10.026" transform="translate(-268.062 -676.958)" fill="#fff" stroke="#d8d8d8" stroke-width="1"/>
      <path id="Path_529" data-name="Path 529" d="M1271.8,112.021l.055-.009-8.611,1.086c-4,.505-13.061,4.235-12.667,7.353s10.092,4.479,14.1,3.974c0,0,8.3-.952,8.514-.98,1.971-.249,3.244-3.008,2.845-6.161-.4-3.123-2.282-5.46-4.233-5.263" transform="translate(-959.512 -85.941)" fill="#fff" stroke="#d8d8d8" stroke-width="1"/>
      <path id="Path_530" data-name="Path 530" d="M1330.05,118.11c.4,3.153,2.269,5.514,4.177,5.273s3.132-2.993,2.733-6.147-2.269-5.514-4.177-5.273-3.132,2.993-2.733,6.147" transform="translate(-1020.444 -85.892)" stroke="#d8d8d8" stroke-width="1"/>
      <path id="Path_531" data-name="Path 531" d="M1261.173,145.523c-4.476,0-12.461-1.283-12.871-4.527a2.833,2.833,0,0,1,.715-2.092.529.529,0,0,1,.651-.149c3.854,1.9,8.785,2.7,11.328,2.384l6.854-.865a.53.53,0,0,1,.559.332c.6,1.54,1.6,2.6,2.6,2.767a.529.529,0,0,1-.021,1.047l-8,1.009a15.044,15.044,0,0,1-1.818.094m-11.561-5.621a1.528,1.528,0,0,0-.26.962c.323,2.558,9.463,4.025,13.506,3.515l6.3-.795a6.3,6.3,0,0,1-1.572-2.209l-6.455.815c-2.6.329-7.548-.441-11.516-2.288" transform="translate(-957.766 -106.42)" stroke="#d8d8d8" stroke-width="1"/>
      <path id="Path_532" data-name="Path 532" d="M1261.17,123.3c-4.472,0-12.459-1.283-12.869-4.527-.26-2.065,2.558-3.964,4.969-5.194a28.568,28.568,0,0,1,8.157-2.75l8.255-1.041c.087-.011.174-.022.259-.029l.028,0,.068-.011v0c2.25-.2,4.338,2.31,4.77,5.727.442,3.5-1.009,6.462-3.3,6.753-.219.028-8.181.942-8.52.981a14.973,14.973,0,0,1-1.814.094m8.9-12.495-8.506,1.073a27.42,27.42,0,0,0-7.809,2.643c-2.894,1.476-4.539,3.016-4.4,4.118.323,2.558,9.464,4.025,13.505,3.515,2.874-.33,8.344-.958,8.514-.98,1.649-.209,2.742-2.759,2.387-5.569s-2-4.971-3.654-4.8l-.037,0" transform="translate(-957.766 -84.194)" stroke="#d8d8d8" stroke-width="1"/>
      <path id="Path_533" data-name="Path 533" d="M1219.841,48.064l-28.35-45.789-4.779,1.063s6.943,33.949,7.29,38.448S1193.037,54,1193.037,54Z" transform="translate(-910.523 -1.745)" fill="#fff" stroke="#d8d8d8" stroke-width="1"/>
      <path id="Path_534" data-name="Path 534" d="M1206.238,48.673a.529.529,0,0,1-.528-.569c.006-.077.579-7.787-.164-12.119-.631-3.682-9.5-27.465-12.209-34.666a.53.53,0,0,1,.381-.7l2.715-.6A.528.528,0,0,1,1197,.25l27.129,43.817a.529.529,0,0,1-.337.8l-17.439,3.8a.525.525,0,0,1-.113.012M1194.543,1.517c3.586,9.558,11.43,30.691,12.047,34.289a61.378,61.378,0,0,1,.224,11.67l16.02-3.488L1196.3,1.127Z" transform="translate(-915.581 0.001)" stroke="#d8d8d8" stroke-width="1"/>
      <path id="Path_535" data-name="Path 535" d="M1191.292,52.782a.529.529,0,0,1-.522-.618c.013-.077,1.3-7.7.959-12.082-.341-4.415-7.212-38.044-7.281-38.383a.529.529,0,0,1,.4-.623l4.779-1.063a.529.529,0,0,1,.565.238l28.35,45.789a.529.529,0,0,1-.335.8l-26.8,5.934a.531.531,0,0,1-.115.013M1185.589,2c.9,4.417,6.868,33.772,7.2,38a61.019,61.019,0,0,1-.846,11.567l25.314-5.6L1189.494,1.128Z" transform="translate(-908.778 0)" stroke="#d8d8d8" stroke-width="1"/>
      <path id="Path_536" data-name="Path 536" d="M881.4,188.915q-4.65,0-9.288-.31l-34.9-2.336a.53.53,0,0,1-.487-.442l-.673-4.064a.53.53,0,0,1,.353-.588l4.7-1.588-27.376-20.335a.529.529,0,0,1,.229-.947l9.553-1.581a.534.534,0,0,1,.289.033l37.51,15.56,111-15.938c.381-.08,10.14-2.021,17.488,3.914.931.408,6.547,2.984,6.546,5.68,0,2.766-1.651,6.764-15.851,9.544-9.94,1.948-53.934,8.345-79.273,11.984a139.558,139.558,0,0,1-19.823,1.414m-43.7-3.674,34.481,2.308a138.527,138.527,0,0,0,28.89-1.1c25.329-3.638,69.3-10.031,79.22-11.975,14.988-2.935,14.994-7.129,15-8.507,0-1.568-3.664-3.738-5.974-4.736a.528.528,0,0,1-.124-.076c-6.967-5.675-16.6-3.758-16.693-3.738L861.321,173.386a.528.528,0,0,1-.278-.035l-37.5-15.558-8.174,1.353,27.187,20.194a.529.529,0,0,1-.146.927l-5.232,1.768Z" transform="translate(-624.185 -119.703)" fill="#fff" stroke="#d8d8d8" stroke-width="1"/>
      <path id="Path_537" data-name="Path 537" d="M939.556,191.644l7.795-18.364,4.329-.839.962,16.35Z" transform="translate(-720.889 -132.308)" fill="#fff" stroke="#d8d8d8" stroke-width="1"/>
      <path id="Path_538" data-name="Path 538" d="M937.811,190.428a.53.53,0,0,1-.487-.736l7.795-18.363a.528.528,0,0,1,.386-.313l4.329-.839a.529.529,0,0,1,.629.489l.962,16.35a.53.53,0,0,1-.416.548l-13.086,2.853a.529.529,0,0,1-.113.012M945.984,172,938.7,189.163l11.644-2.538-.9-15.295Z" transform="translate(-719.144 -130.562)" stroke="#d8d8d8" stroke-width="1"/>
      <path id="Path_539" data-name="Path 539" d="M1154.269,313.854l.056-.005-8.668.432c-4.032.2-13.344,3.235-13.187,6.374s9.725,5.229,13.756,5.028c0,0,8.344-.322,8.564-.333,1.984-.1,3.462-2.754,3.3-5.928-.158-3.144-1.863-5.617-3.823-5.568" transform="translate(-868.903 -240.804)" fill="#fff" stroke="#d8d8d8" stroke-width="1"/>
      <path id="Path_540" data-name="Path 540" d="M1212.637,319.764c.16,3.175,1.846,5.67,3.767,5.573s3.349-2.748,3.19-5.922-1.846-5.67-3.767-5.573-3.35,2.748-3.19,5.923" transform="translate(-930.405 -240.797)" stroke="#d8d8d8" stroke-width="1"/>
      <path id="Path_541" data-name="Path 541" d="M1144.009,341.481c-3.981,0-13.633-1.921-13.813-5.542a2.831,2.831,0,0,1,.87-2.032.529.529,0,0,1,.661-.1c3.7,2.187,8.556,3.362,11.115,3.234l6.9-.344a.533.533,0,0,1,.532.373c.485,1.581,1.4,2.714,2.381,2.955a.529.529,0,0,1-.1,1.043l-8.05.4c-.153.007-.32.011-.5.011m-12.425-6.535a1.528,1.528,0,0,0-.331.94c.128,2.576,9.128,4.729,13.2,4.526l6.339-.316a6.3,6.3,0,0,1-1.4-2.322l-6.5.324c-2.623.131-7.493-1.01-11.31-3.152" transform="translate(-867.159 -256.062)" stroke="#d8d8d8" stroke-width="1"/>
      <path id="Path_542" data-name="Path 542" d="M1144,324.483c-3.976,0-13.628-1.921-13.809-5.542-.1-2.079,2.851-3.76,5.347-4.8a28.578,28.578,0,0,1,8.342-2.126l8.311-.414c.087,0,.175-.009.26-.009l.027,0,.071-.006v0c2.255-.041,4.148,2.632,4.321,6.072a8.3,8.3,0,0,1-.914,4.4,3.6,3.6,0,0,1-2.891,2.082c-.22.011-8.229.32-8.57.333-.153.008-.319.011-.5.011m8.5-11.841-8.563.427a27.416,27.416,0,0,0-7.986,2.045c-3,1.254-4.754,2.664-4.7,3.774.129,2.576,9.132,4.73,13.2,4.526,2.891-.112,8.393-.325,8.564-.333a2.6,2.6,0,0,0,2.019-1.54,7.242,7.242,0,0,0,.782-3.833c-.142-2.835-1.621-5.1-3.281-5.066h-.037" transform="translate(-867.158 -239.064)" stroke="#d8d8d8" stroke-width="1"/>
      <path id="Path_543" data-name="Path 543" d="M862.908,173.979,974.137,158.7s9.043-1.878,16.168,3.115c.681.477,6.9,3.364,7.261,5.954.347,2.484-1.667,6.332-15.423,9.025-10.057,1.971-55.534,8.574-79.246,11.98a138.779,138.779,0,0,1-29,1.1L839,187.534l-.673-4.064,5.658-1.912L815.794,160.62l9.553-1.581Z" transform="translate(-625.931 -121.496)" fill="#fff" stroke="#d8d8d8" stroke-width="1"/>
      <path id="Path_544" data-name="Path 544" d="M842.332,184.694a.53.53,0,0,1-.313-.1L813.735,163.8a.529.529,0,0,1,.227-.949l5.47-.905a.527.527,0,0,1,.314.044L860.64,181.48a.529.529,0,0,1-.164,1L842.4,184.69a.546.546,0,0,1-.064,0m-26.958-21,27.1,19.92,16.066-1.961-39.1-18.632Z" transform="translate(-624.185 -124.252)" stroke="#d8d8d8" stroke-width="1"/>
      <path id="Path_545" data-name="Path 545" d="M956.254,200.374q-4.65,0-9.288-.31l-34.9-2.336a.53.53,0,0,1-.487-.442l-.5-3.007a.529.529,0,0,1,.13-.442.535.535,0,0,1,.427-.172c5.533.375,56.694,3.145,148-14.7,5.2-1.014,6.479-2.276,6.789-2.772a.661.661,0,0,0,.12-.517c-.393-1.476-2.506-3.137-3.368-3.709-.029-.019-.056-.036-.078-.052a.529.529,0,0,1,.592-.878l.059.039c.125.078.4.226.7.393,3.164,1.725,6.438,3.774,6.734,5.893.4,2.893-2.016,6.91-15.846,9.618-9.936,1.948-53.932,8.345-79.273,11.984a139.553,139.553,0,0,1-19.823,1.414m-43.7-3.674,34.481,2.308a138.526,138.526,0,0,0,28.89-1.1c25.331-3.638,69.307-10.032,79.22-11.975,13.7-2.683,15.28-6.435,15-8.433-.148-1.062-1.594-2.276-3.115-3.29a4.3,4.3,0,0,1,.543,1.184,1.677,1.677,0,0,1-.246,1.351c-.834,1.333-3.422,2.457-7.484,3.25-88.538,17.308-139.434,15.253-147.611,14.764Z" transform="translate(-699.036 -131.162)" stroke="#d8d8d8" stroke-width="1"/>
      <path id="Path_546" data-name="Path 546" d="M1515.372,160.6a30.466,30.466,0,0,0-4.2-1.119c1.683,1.349,2.458,2.692,1.894,3.5-1.107,1.582-7.5,2.164-7.5,2.164l1.334,3.292c5.675-.879,10.407-2.265,10.557-4.035.138-1.632-.8-2.77-2.085-3.8" transform="translate(-1155.169 -122.366)" stroke="#d8d8d8" stroke-width="1"/>
      <path id="Path_547" data-name="Path 547" d="M881.4,188.921q-4.65,0-9.288-.31l-34.9-2.336a.53.53,0,0,1-.487-.442l-.673-4.064a.53.53,0,0,1,.353-.588l4.7-1.588-27.376-20.335a.529.529,0,0,1,.229-.947l9.553-1.581a.529.529,0,0,1,.282.031l37.431,14.888,111.091-15.264c.343-.072,9.315-1.86,16.544,3.206.094.066.4.231.747.422,3.164,1.725,6.438,3.774,6.734,5.893.4,2.893-2.016,6.91-15.846,9.618-9.94,1.948-53.934,8.345-79.273,11.984a139.56,139.56,0,0,1-19.823,1.414m-43.7-3.674,34.481,2.308a138.526,138.526,0,0,0,28.89-1.1c25.329-3.638,69.3-10.031,79.22-11.975,13.7-2.683,15.28-6.435,15-8.433-.262-1.876-4.571-4.225-6.193-5.11-.425-.232-.705-.384-.848-.485-6.859-4.806-15.669-3.049-15.757-3.03l-111.265,15.29a.531.531,0,0,1-.268-.033L823.542,157.8l-8.178,1.354,27.187,20.194a.529.529,0,0,1-.146.926l-5.232,1.768Z" transform="translate(-624.185 -119.708)" stroke="#d8d8d8" stroke-width="1"/>
      <path id="Path_548" data-name="Path 548" d="M838.1,285.385l6.827.532,24.491-8.247-13.549-.222Z" transform="translate(-643.045 -212.877)" fill="#fff" stroke="#d8d8d8" stroke-width="1"/>
      <path id="Path_549" data-name="Path 549" d="M843.181,284.7h-.041l-6.827-.532a.529.529,0,0,1-.175-1.011l17.768-7.936a.508.508,0,0,1,.224-.046l13.549.221a.529.529,0,0,1,.16,1.031l-24.491,8.247a.53.53,0,0,1-.169.027m-4.709-1.427,4.643.362,21.476-7.232-10.359-.169Z" transform="translate(-641.3 -211.131)" stroke="#d8d8d8" stroke-width="1"/>
      <path id="Path_550" data-name="Path 550" d="M1005,255.829l-84.742,40.4-12.391,1.13s40-22.884,45.136-26.228c7.5-4.884,16.519-10.886,16.519-10.886Z" transform="translate(-696.577 -196.289)" fill="#fff" stroke="#d8d8d8" stroke-width="1"/>
      <path id="Path_551" data-name="Path 551" d="M935.817,295.319a.529.529,0,0,1-.247-1l50.449-26.634.027-.014c4.907-2.242,17.925-8.637,19.212-11.263a.529.529,0,0,1,.409-.292l20.306-2.559a.529.529,0,0,1,.294,1l-84.414,40.243a.526.526,0,0,1-.186.05l-5.809.462-.042,0M986.5,268.631l-48.164,25.428,3.15-.251,81.36-38.787-16.787,2.116c-2.315,3.536-17.7,10.644-19.56,11.494" transform="translate(-717.614 -194.544)" stroke="#d8d8d8" stroke-width="1"/>
      <path id="Path_552" data-name="Path 552" d="M906.65,296.3a.529.529,0,0,1-.277-.98c.261-.16,26.321-16.178,45.037-26.4a190.165,190.165,0,0,0,16.459-10.848.526.526,0,0,1,.249-.1l35.479-4.416a.529.529,0,0,1,.293,1l-84.742,40.4a.526.526,0,0,1-.173.049L906.705,296.3l-.056,0m61.734-37.293a188.315,188.315,0,0,1-16.467,10.842c-15.679,8.564-36.526,21.2-42.993,25.151l9.848-1.035,81.709-38.953Z" transform="translate(-695.235 -194.543)" stroke="#d8d8d8" stroke-width="1"/>
      <path id="Path_553" data-name="Path 553" d="M18.764,347.686v-5.48l51.764-1.331,2.035,4.4,46.007-2.64,3.57-5.291s52.3-10.655,66.174-4.913c12.44,5.15-10.423,17.494-13.072,21.462s-9,13.876-9,13.876L41.017,365.825a21.727,21.727,0,0,1-4.955-.671c-4.421-1.135-12.409-4.082-15.83-11.035a14.511,14.511,0,0,1-1.467-6.433" transform="translate(-14.397 -253.761)" fill="#fff" stroke="#d8d8d8" stroke-width="1"/>
      <path id="Path_554" data-name="Path 554" d="M164.5,366.525h-.008L39.263,364.578a22.268,22.268,0,0,1-5.078-.688c-4.534-1.163-12.664-4.18-16.174-11.314a14.965,14.965,0,0,1-1.522-6.666v-5.48A.53.53,0,0,1,17,339.9l51.764-1.331a.531.531,0,0,1,.494.307l1.884,4.076,45.386-2.6,3.423-5.074a.53.53,0,0,1,.333-.223c2.142-.436,52.622-10.621,66.482-4.884,2.411,1,3.748,2.361,3.973,4.049.573,4.289-6.172,9.5-11.591,13.69-2.448,1.892-4.563,3.527-5.217,4.507-2.617,3.919-8.928,13.769-8.991,13.867a.529.529,0,0,1-.446.244M17.548,340.946v4.964a13.909,13.909,0,0,0,1.413,6.2c3.323,6.754,11.129,9.638,15.487,10.756a21.2,21.2,0,0,0,4.834.655l124.931,1.941c1-1.562,6.455-10.059,8.843-13.636.75-1.124,2.824-2.727,5.45-4.756,4.93-3.81,11.681-9.028,11.189-12.712-.172-1.287-1.292-2.368-3.329-3.211-13.12-5.432-62,4.171-65.654,4.9l-3.448,5.111a.529.529,0,0,1-.409.232l-46.008,2.64a.536.536,0,0,1-.511-.306l-1.889-4.087Z" transform="translate(-12.651 -251.985)" stroke="#d8d8d8" stroke-width="1"/>
      <path id="Path_555" data-name="Path 555" d="M123.057,318.261h-4.546V301.386l4.546.338Z" transform="translate(-90.929 -231.243)" fill="#fff" stroke="#d8d8d8" stroke-width="1"/>
      <path id="Path_556" data-name="Path 556" d="M121.312,317.045h-4.546a.529.529,0,0,1-.529-.529V299.64a.53.53,0,0,1,.569-.528l4.547.338a.53.53,0,0,1,.49.528v16.537a.529.529,0,0,1-.529.529m-4.017-1.059h3.488V300.47l-3.488-.259Z" transform="translate(-89.184 -229.497)" stroke="#d8d8d8" stroke-width="1"/>
      <path id="Path_557" data-name="Path 557" d="M104.9,303.374l3.157-.584V319.8H104.9Z" transform="translate(-80.489 -232.321)" fill="#fff" stroke="#d8d8d8" stroke-width="1"/>
      <path id="Path_558" data-name="Path 558" d="M106.315,318.582h-3.157a.529.529,0,0,1-.529-.529V301.629a.529.529,0,0,1,.433-.52l3.157-.584a.529.529,0,0,1,.626.521v17.007a.529.529,0,0,1-.529.529m-2.627-1.059h2.1V301.682l-2.1.388Z" transform="translate(-78.744 -230.576)" stroke="#d8d8d8" stroke-width="1"/>
      <path id="Path_559" data-name="Path 559" d="M151.985,355.119H131.359V338.38l20.626.339Z" transform="translate(-100.787 -259.627)" fill="#fff" stroke="#d8d8d8" stroke-width="1"/>
      <path id="Path_560" data-name="Path 560" d="M150.239,353.9H129.613a.529.529,0,0,1-.529-.529V336.634a.529.529,0,0,1,.158-.378.5.5,0,0,1,.38-.152l20.626.339a.529.529,0,0,1,.521.529v16.4a.529.529,0,0,1-.529.529m-20.1-1.059H149.71v-15.35l-19.567-.322Z" transform="translate(-99.042 -257.881)" stroke="#d8d8d8" stroke-width="1"/>
      <path id="Path_561" data-name="Path 561" d="M69.632,339.414l14.32-1.426v17.081H69.632Z" transform="translate(-53.426 -259.326)" fill="#fff" stroke="#d8d8d8" stroke-width="1"/>
      <path id="Path_562" data-name="Path 562" d="M82.206,353.853H67.886a.529.529,0,0,1-.529-.529V337.669a.53.53,0,0,1,.477-.527l14.32-1.425a.529.529,0,0,1,.582.527v17.081a.529.529,0,0,1-.529.529m-13.79-1.059H81.677V336.828l-13.261,1.32Z" transform="translate(-51.681 -257.582)" stroke="#d8d8d8" stroke-width="1"/>
      <path id="Path_563" data-name="Path 563" d="M215.587,338.3l-16.538,1.062V322.827l16.538-1.6Z" transform="translate(-152.724 -246.465)" fill="#fff" stroke="#d8d8d8" stroke-width="1"/>
      <path id="Path_564" data-name="Path 564" d="M197.305,338.149a.529.529,0,0,1-.529-.529V321.082a.53.53,0,0,1,.478-.527l16.537-1.6a.53.53,0,0,1,.58.527v17.076a.53.53,0,0,1-.5.528l-16.538,1.062h-.034m.529-16.586v15.492l15.479-.994v-16Zm16.008,14.995h0Z" transform="translate(-150.979 -244.72)" stroke="#d8d8d8" stroke-width="1"/>
      <path id="Path_565" data-name="Path 565" d="M211.027,346.622a.529.529,0,0,1-.529-.529v-11.93a.529.529,0,1,1,1.059,0v11.93a.529.529,0,0,1-.529.529" transform="translate(-161.508 -255.985)" stroke="#d8d8d8" stroke-width="1"/>
      <path id="Path_566" data-name="Path 566" d="M225.026,345.278a.529.529,0,0,1-.529-.529v-11.93a.529.529,0,0,1,1.059,0v11.93a.529.529,0,0,1-.53.529" transform="translate(-172.249 -254.954)" stroke="#d8d8d8" stroke-width="1"/>
      <path id="Path_567" data-name="Path 567" d="M239.027,343.934a.529.529,0,0,1-.529-.529v-11.93a.529.529,0,0,1,1.059,0V343.4a.529.529,0,0,1-.529.529" transform="translate(-182.991 -253.923)" stroke="#d8d8d8" stroke-width="1"/>
      <path id="Path_568" data-name="Path 568" d="M253.025,342.59a.529.529,0,0,1-.529-.529V330.13a.529.529,0,0,1,1.059,0v11.93a.529.529,0,0,1-.529.529" transform="translate(-193.731 -252.891)" stroke="#d8d8d8" stroke-width="1"/>
      <path id="Path_569" data-name="Path 569" d="M268.761,337.557V319.82l23.35,1.005v15.237Z" transform="translate(-206.211 -245.386)" fill="#fff" stroke="#d8d8d8" stroke-width="1"/>
      <path id="Path_570" data-name="Path 570" d="M267.015,336.341a.53.53,0,0,1-.529-.529V318.075a.529.529,0,0,1,.552-.529l23.351,1.005a.529.529,0,0,1,.507.529v15.237a.529.529,0,0,1-.5.528l-23.35,1.5h-.034m.53-17.714v16.621l22.292-1.428V319.587Z" transform="translate(-204.465 -243.641)" stroke="#d8d8d8" stroke-width="1"/>
      <path id="Path_571" data-name="Path 571" d="M299.862,330.871l-16.537,1.062V315.4l16.537-1.6Z" transform="translate(-217.385 -240.764)" fill="#fff" stroke="#d8d8d8" stroke-width="1"/>
      <path id="Path_572" data-name="Path 572" d="M281.578,330.717a.529.529,0,0,1-.529-.529V313.65a.53.53,0,0,1,.478-.527l16.537-1.6a.529.529,0,0,1,.58.527v17.076a.529.529,0,0,1-.5.528l-16.538,1.062h-.034m.529-16.586v15.493l15.479-.994v-16Zm16.008,15h0Z" transform="translate(-215.639 -239.019)" stroke="#d8d8d8" stroke-width="1"/>
      <path id="Path_573" data-name="Path 573" d="M296.109,339.863a.529.529,0,0,1-.529-.529V327.4a.529.529,0,0,1,1.059,0v11.93a.53.53,0,0,1-.529.529" transform="translate(-226.788 -250.799)" stroke="#d8d8d8" stroke-width="1"/>
      <path id="Path_574" data-name="Path 574" d="M310.107,338.52a.529.529,0,0,1-.529-.529V326.06a.529.529,0,0,1,1.059,0v11.93a.529.529,0,0,1-.53.529" transform="translate(-237.528 -249.769)" stroke="#d8d8d8" stroke-width="1"/>
      <path id="Path_575" data-name="Path 575" d="M324.107,337.176a.529.529,0,0,1-.53-.529v-11.93a.529.529,0,0,1,1.059,0v11.93a.529.529,0,0,1-.529.529" transform="translate(-248.269 -248.737)" stroke="#d8d8d8" stroke-width="1"/>
      <path id="Path_576" data-name="Path 576" d="M338.106,335.831a.529.529,0,0,1-.529-.53v-11.93a.529.529,0,1,1,1.059,0V335.3a.529.529,0,0,1-.529.53" transform="translate(-259.011 -247.705)" stroke="#d8d8d8" stroke-width="1"/>
      <path id="Path_577" data-name="Path 577" d="M353.035,330.127V312.39l23.35,1.005v15.237Z" transform="translate(-270.872 -239.686)" fill="#fff" stroke="#d8d8d8" stroke-width="1"/>
      <path id="Path_578" data-name="Path 578" d="M351.29,328.912a.529.529,0,0,1-.529-.529V310.645a.529.529,0,0,1,.552-.529l23.35,1.005a.529.529,0,0,1,.507.529v15.237a.529.529,0,0,1-.5.528l-23.35,1.5h-.034m.529-17.714v16.62l22.292-1.428V312.157Z" transform="translate(-269.127 -237.941)" stroke="#d8d8d8" stroke-width="1"/>
      <path id="Path_579" data-name="Path 579" d="M386.6,323.214l-17.18,1.1v-17.18l17.18-1.663Z" transform="translate(-283.44 -234.38)" fill="#fff" stroke="#d8d8d8" stroke-width="1"/>
      <path id="Path_580" data-name="Path 580" d="M367.67,323.1a.529.529,0,0,1-.529-.529v-17.18a.53.53,0,0,1,.478-.527L384.8,303.2a.53.53,0,0,1,.58.527v17.74a.53.53,0,0,1-.5.528l-17.18,1.1h-.034m.529-17.229v16.135l16.121-1.035v-16.66Zm16.651,15.6h0Z" transform="translate(-281.695 -232.635)" stroke="#d8d8d8" stroke-width="1"/>
      <path id="Path_581" data-name="Path 581" d="M383.581,333.956a.529.529,0,0,1-.529-.53V321.5a.529.529,0,0,1,1.059,0v11.93a.53.53,0,0,1-.53.53" transform="translate(-293.903 -246.267)" stroke="#d8d8d8" stroke-width="1"/>
      <path id="Path_582" data-name="Path 582" d="M397.579,332.612a.529.529,0,0,1-.529-.529v-11.93a.529.529,0,0,1,1.059,0v11.93a.529.529,0,0,1-.529.529" transform="translate(-304.643 -245.236)" stroke="#d8d8d8" stroke-width="1"/>
      <path id="Path_583" data-name="Path 583" d="M411.578,331.268a.529.529,0,0,1-.529-.529v-11.93a.529.529,0,0,1,1.059,0v11.93a.529.529,0,0,1-.529.529" transform="translate(-315.384 -244.204)" stroke="#d8d8d8" stroke-width="1"/>
      <path id="Path_584" data-name="Path 584" d="M425.578,329.925a.529.529,0,0,1-.529-.529v-11.93a.529.529,0,0,1,1.059,0V329.4a.529.529,0,0,1-.529.529" transform="translate(-326.125 -243.174)" stroke="#d8d8d8" stroke-width="1"/>
      <path id="Path_585" data-name="Path 585" d="M441.888,322.47v-18.4l24.233,1.043v15.806Z" transform="translate(-339.045 -233.301)" fill="#fff" stroke="#d8d8d8" stroke-width="1"/>
      <path id="Path_586" data-name="Path 586" d="M440.142,321.254a.529.529,0,0,1-.529-.529v-18.4a.529.529,0,0,1,.552-.529l24.233,1.043a.529.529,0,0,1,.507.529v15.806a.529.529,0,0,1-.5.528l-24.233,1.552h-.034m.53-18.378V320.16l23.174-1.484v-14.8Z" transform="translate(-337.3 -231.556)" stroke="#d8d8d8" stroke-width="1"/>
      <path id="Path_587" data-name="Path 587" d="M477.918,315.247l-17.66,1.134v-17.66l17.66-1.71Z" transform="translate(-353.141 -227.887)" fill="#fff" stroke="#d8d8d8" stroke-width="1"/>
      <path id="Path_588" data-name="Path 588" d="M458.513,315.166a.529.529,0,0,1-.529-.53v-17.66a.529.529,0,0,1,.478-.527l17.66-1.709a.529.529,0,0,1,.58.527V313.5a.529.529,0,0,1-.5.528l-17.66,1.134h-.034m.529-17.709v16.615l16.6-1.066V295.85Zm17.13,16.045h0Z" transform="translate(-351.395 -226.142)" stroke="#d8d8d8" stroke-width="1"/>
      <path id="Path_589" data-name="Path 589" d="M473.9,321.348a.529.529,0,0,1-.529-.529v-7.1a.529.529,0,0,1,1.059,0v7.1a.529.529,0,0,1-.529.529" transform="translate(-363.199 -240.302)" stroke="#d8d8d8" stroke-width="1"/>
      <path id="Path_590" data-name="Path 590" d="M488.673,319.708a.529.529,0,0,1-.529-.529V312.3a.529.529,0,0,1,1.059,0v6.875a.529.529,0,0,1-.53.529" transform="translate(-374.536 -239.214)" stroke="#d8d8d8" stroke-width="1"/>
      <path id="Path_591" data-name="Path 591" d="M503.45,318.04a.529.529,0,0,1-.53-.529v-6.626a.529.529,0,1,1,1.059,0v6.626a.529.529,0,0,1-.529.529" transform="translate(-385.874 -238.125)" stroke="#d8d8d8" stroke-width="1"/>
      <path id="Path_592" data-name="Path 592" d="M518.226,316.292a.529.529,0,0,1-.529-.529v-6.3a.529.529,0,0,1,1.059,0v6.3a.529.529,0,0,1-.53.529" transform="translate(-397.211 -237.037)" stroke="#d8d8d8" stroke-width="1"/>
      <path id="Path_593" data-name="Path 593" d="M534.793,314.5v-18.9l24.893,1.072v16.231Z" transform="translate(-410.328 -226.808)" fill="#fff" stroke="#d8d8d8" stroke-width="1"/>
      <path id="Path_594" data-name="Path 594" d="M533.047,313.287a.529.529,0,0,1-.529-.529v-18.9a.529.529,0,0,1,.163-.382.536.536,0,0,1,.389-.147l24.893,1.072a.529.529,0,0,1,.507.529v16.231a.529.529,0,0,1-.5.528l-24.892,1.594h-.034m.529-18.874v17.78l23.834-1.526V295.44Z" transform="translate(-408.583 -225.063)" stroke="#d8d8d8" stroke-width="1"/>
      <path id="Path_595" data-name="Path 595" d="M623.579,314.259a.529.529,0,0,1-.529-.529v-2.845a.529.529,0,1,1,1.059,0v2.845a.529.529,0,0,1-.529.529" transform="translate(-478.045 -238.125)" stroke="#d8d8d8" stroke-width="1"/>
      <path id="Path_596" data-name="Path 596" d="M608.718,313.938a.529.529,0,0,1-.529-.53v-3.366a.529.529,0,1,1,1.059,0v3.366a.53.53,0,0,1-.53.53" transform="translate(-466.643 -237.479)" stroke="#d8d8d8" stroke-width="1"/>
      <path id="Path_597" data-name="Path 597" d="M593.856,314.546a.53.53,0,0,1-.529-.529v-3.975a.529.529,0,0,1,1.059,0v3.975a.53.53,0,0,1-.529.529" transform="translate(-455.239 -237.478)" stroke="#d8d8d8" stroke-width="1"/>
      <path id="Path_598" data-name="Path 598" d="M579,314.582a.53.53,0,0,1-.53-.529v-4.586a.529.529,0,1,1,1.059,0v4.586a.529.529,0,0,1-.529.529" transform="translate(-443.837 -237.037)" stroke="#d8d8d8" stroke-width="1"/>
      <path id="Path_599" data-name="Path 599" d="M564.135,314.375a.529.529,0,0,1-.529-.529v-5.223a.529.529,0,0,1,1.059,0v5.223a.529.529,0,0,1-.53.529" transform="translate(-432.436 -236.39)" stroke="#d8d8d8" stroke-width="1"/>
      <path id="Path_600" data-name="Path 600" d="M549.273,313.738a.529.529,0,0,1-.529-.53v-6a.529.529,0,1,1,1.059,0v6a.529.529,0,0,1-.529.53" transform="translate(-421.032 -235.301)" stroke="#d8d8d8" stroke-width="1"/>
      <path id="Path_601" data-name="Path 601" d="M188.314,332.433c-13.87-5.741-66.173,4.914-66.173,4.914l-3.57,5.291-67.887,4.4-2.021-5.931-29.9,1.1v5.549a14.5,14.5,0,0,0,.541,3.971c.128.451,134.877-6.245,134.877-6.245s19.558-1.14,22.379-.907c6.894.569,7.333,2.084,7.333,2.085,6.225-5.026,12.164-11.021,4.419-14.227" transform="translate(-14.397 -253.761)" fill="#fff" stroke="#d8d8d8" stroke-width="1"/>
      <path id="Path_602" data-name="Path 602" d="M18.445,350.495c-1.281,0-1.314-.116-1.395-.4a15.035,15.035,0,0,1-.561-4.116V340.43A.529.529,0,0,1,17,339.9l29.9-1.1a.537.537,0,0,1,.52.358l1.89,5.548,67.223-4.356,3.424-5.076a.529.529,0,0,1,.333-.223c2.142-.437,52.622-10.621,66.482-4.884,2.392.99,3.727,2.339,3.968,4.009.507,3.514-3.889,7.592-8.257,11.119a.529.529,0,0,1-.823-.213c-.064-.093-.991-1.271-6.887-1.757-2.75-.227-22.11.9-22.3.908-.341.017-34.077,1.693-67.4,3.292-19.569.939-35.167,1.669-46.36,2.168-6.647.3-11.795.514-15.3.647-2.562.1-4.071.154-4.967.154m-.473-1.049h.054c6.5,0,89.959-4.061,134.385-6.269.8-.046,19.622-1.14,22.449-.906,4.787.4,6.646,1.246,7.366,1.87,3.529-2.881,7.888-6.886,7.466-9.812-.184-1.274-1.3-2.345-3.325-3.182-13.12-5.432-62,4.171-65.654,4.9l-3.448,5.111a.53.53,0,0,1-.4.232l-67.887,4.4a.535.535,0,0,1-.535-.358l-1.894-5.559L17.548,340.94v5.039a14.085,14.085,0,0,0,.424,3.466m163.664-4.433c0,.011.006.021.009.03,0-.01-.006-.02-.009-.03" transform="translate(-12.651 -251.985)" stroke="#d8d8d8" stroke-width="1"/>
      <path id="Path_603" data-name="Path 603" d="M708.534,335.774a15.274,15.274,0,0,0-2.126-.685c-.246-.062-5.358,5.467-9.005,11.74-.208.358-.415.721-.62,1.086,6.894.57,7.332,2.084,7.332,2.085,6.225-5.026,12.164-11.021,4.419-14.227" transform="translate(-534.617 -257.102)" fill="#fff" stroke="#d8d8d8" stroke-width="1"/>
      <path id="Path_604" data-name="Path 604" d="M702.369,348.78a.524.524,0,0,1-.164-.026.529.529,0,0,1-.326-.3c-.064-.093-.99-1.27-6.885-1.757a.53.53,0,0,1-.418-.787c.207-.367.414-.732.624-1.093a65.976,65.976,0,0,1,5.825-8.314c3.132-3.831,3.513-3.736,3.766-3.673a15.88,15.88,0,0,1,2.2.709c2.392.99,3.727,2.339,3.968,4.009.507,3.514-3.89,7.592-8.257,11.119a.53.53,0,0,1-.333.117m-.512-.393.006.019-.006-.019m-5.955-2.674c4.18.421,5.864,1.21,6.542,1.8,3.529-2.881,7.889-6.887,7.467-9.813-.184-1.274-1.3-2.345-3.325-3.182a14.35,14.35,0,0,0-1.825-.6,61.963,61.963,0,0,0-8.646,11.434q-.107.183-.213.368" transform="translate(-532.872 -255.352)" stroke="#d8d8d8" stroke-width="1"/>
      <path id="Path_605" data-name="Path 605" d="M185.52,444.834,38.573,446.01c3.91,3.918,9.328,5.827,12.688,6.689a21.748,21.748,0,0,0,4.955.671l125.228,1.946s3.625-5.659,6.54-10.136Z" transform="translate(-29.596 -341.306)" fill="#fff" stroke="#d8d8d8" stroke-width="1"/>
      <path id="Path_606" data-name="Path 606" d="M179.7,454.1h-.008L54.461,452.153a22.281,22.281,0,0,1-5.078-.687c-3.751-.962-9.039-2.928-12.931-6.828a.529.529,0,0,1,.371-.9l146.947-1.176a.548.548,0,0,1,.078.005l2.463.346a.529.529,0,0,1,.37.813c-2.88,4.425-6.5,10.076-6.538,10.133a.529.529,0,0,1-.445.244M38.159,444.783a29.153,29.153,0,0,0,11.486,5.658,21.221,21.221,0,0,0,4.835.654l124.931,1.941c.689-1.075,3.486-5.434,5.929-9.193l-1.6-.225Z" transform="translate(-27.85 -339.56)" stroke="#d8d8d8" stroke-width="1"/>
      <path id="Path_607" data-name="Path 607" d="M672.185,360.917a.53.53,0,0,1-.482-.747,130.422,130.422,0,0,1,5.964-11.771,66.519,66.519,0,0,1,7.927-10.748.529.529,0,1,1,.777.719,65.335,65.335,0,0,0-7.789,10.561,129.351,129.351,0,0,0-5.914,11.674.53.53,0,0,1-.483.312" transform="translate(-515.338 -258.937)" stroke="#d8d8d8" stroke-width="1"/>
      <path id="Path_608" data-name="Path 608" d="M164.5,366.525h-.008L39.263,364.578a22.268,22.268,0,0,1-5.078-.688c-4.534-1.163-12.664-4.18-16.174-11.314a14.965,14.965,0,0,1-1.522-6.666v-5.48A.53.53,0,0,1,17,339.9l29.885-1.243a.532.532,0,0,1,.524.361l1.906,5.688,67.221-4.356,3.424-5.076a.53.53,0,0,1,.333-.223c2.142-.436,52.622-10.621,66.482-4.884,2.411,1,3.748,2.361,3.973,4.049.573,4.289-6.172,9.5-11.591,13.69-2.448,1.892-4.563,3.527-5.217,4.507-2.617,3.919-8.928,13.769-8.991,13.867a.529.529,0,0,1-.446.244M17.548,340.938v4.972a13.909,13.909,0,0,0,1.413,6.2c3.323,6.754,11.129,9.638,15.487,10.756a21.212,21.212,0,0,0,4.834.655l124.931,1.941c1-1.562,6.455-10.059,8.843-13.636.75-1.124,2.824-2.727,5.45-4.756,4.93-3.81,11.681-9.028,11.189-12.712-.172-1.287-1.292-2.368-3.329-3.211-13.12-5.432-62,4.171-65.654,4.9l-3.448,5.111a.53.53,0,0,1-.4.232l-67.887,4.4a.531.531,0,0,1-.536-.36l-1.908-5.7Z" transform="translate(-12.651 -251.985)" stroke="#d8d8d8" stroke-width="1"/>
      <path id="Subtraction_2" data-name="Subtraction 2" d="M12.556,36.913a.6.6,0,0,1-.5-.263c-1.617-2.373-7.126-10.636-10.1-17.331A18.689,18.689,0,0,1,0,12.52,12.538,12.538,0,0,1,12.557,0,12.537,12.537,0,0,1,25.112,12.52c0,2.584-1.734,6.98-5.155,13.065-2.717,4.833-5.733,9.348-6.9,11.064A.6.6,0,0,1,12.556,36.913ZM12.557,7A5.493,5.493,0,1,0,18.05,12.49,5.5,5.5,0,0,0,12.557,7Z" transform="translate(292.435 313.077)" fill="#9f9f9f" stroke="#d8d8d8" stroke-miterlimit="10" stroke-width="1"/>
      <path id="Path_612" data-name="Path 612" d="M891.943,1117.906a5.494,5.494,0,1,1-5.494-5.494,5.494,5.494,0,0,1,5.494,5.494" transform="translate(-675.927 -853.515)" fill="#fff" stroke="#d8d8d8" stroke-width="1"/>
      <path id="Path_625" data-name="Path 625" d="M773.474,1153.446a2.23,2.23,0,0,1-1.249-.456c-.9-.622-2.593-2.963-4.224-5.841a.945.945,0,0,1-.1-.109,5.036,5.036,0,0,0-2.786-1.906c-.322-.133-.686-.282-1.1-.462-2.843-1.225-11.217-9.1-11.6-22.346a5.614,5.614,0,0,1,2.881-5.268c1.409-.831,1.694-1.828,1.788-4.22a3.519,3.519,0,0,0-.918-2.7,4.648,4.648,0,0,1-.691-1.092,3.555,3.555,0,0,1-.155-1.311,2.391,2.391,0,0,0-.451-1.82,3.28,3.28,0,0,0-2.469-.34c-5.264.649-8.072.075-9.1-1.86a1.314,1.314,0,0,1-.058-1.1c.573-1.551,3.874-3.413,11.04-6.223,4.586-1.8,10.473,2.282,11.154,3.547a8.414,8.414,0,0,1,.488,1.219,4.076,4.076,0,0,0,1.515,2.436c.489.259,1.37-.419,2.486-1.277a20.905,20.905,0,0,1,4.283-2.717,4.09,4.09,0,0,1,3.188-.289,4.56,4.56,0,0,1,2.322,2.659,2.306,2.306,0,0,0,1.668,1.347,16.319,16.319,0,0,0,7.963-.435c2.729-.845,4.336-1.479,5.4-1.9,1.428-.564,2.02-.8,3.012-.554,1.6.393,3.187,1.924,2.905,3.385-.384,1.994-2.423,2.863-6.062,2.583a5.17,5.17,0,0,0-4.614,2.27,3.692,3.692,0,0,0-.8,3.16c.292.661.543.983.838,1.077.693.222,2.215-.6,3.755-1.52a5.774,5.774,0,0,1,4.475-.983,3.583,3.583,0,0,1,2.173,1.767c.617,1.17.429,4-.4,6.056-.253.627-.014,1.147.4,1.944a3.631,3.631,0,0,1,.346,3.548c-.477,1-2.645,2.375-5.722,2.944a16.215,16.215,0,0,1-2.719.159c-2.046.013-4.162.026-4.905,1.311a8,8,0,0,1-3.266,2.82,4.105,4.105,0,0,0-1.367.985,6.314,6.314,0,0,0-.351,1.62c-.211,1.473-.448,3.143-1.635,3.739-1.507.757-4.06-.6-5.045-1.882a1.279,1.279,0,0,0-1.166-.559.984.984,0,0,0-.791.592c-.519,1.218-.371,2.957.442,5.166a20.139,20.139,0,0,1,1.549,8.17c-.207,2.636-.741,4.073-1.681,4.52a1.453,1.453,0,0,1-.632.144m-20.145-48.993a3.275,3.275,0,0,1,2.239.667,3.232,3.232,0,0,1,.81,2.613,3.113,3.113,0,0,0,.075.91,3.706,3.706,0,0,0,.548.844,4.56,4.56,0,0,1,1.14,3.392c-.088,2.236-.305,3.91-2.308,5.09a4.553,4.553,0,0,0-2.36,4.325c.374,12.846,8.654,20.409,10.963,21.4.41.177.769.324,1.086.455a6.014,6.014,0,0,1,3.231,2.251.434.434,0,0,1,.126.145c1.727,3.059,3.294,5.117,3.949,5.57.352.243.629.319.824.227.248-.118.85-.71,1.081-3.647a19.422,19.422,0,0,0-1.487-7.722c-.909-2.471-1.051-4.472-.422-5.947a2.031,2.031,0,0,1,1.632-1.227,2.335,2.335,0,0,1,2.139.965c.8,1.042,2.828,2.033,3.729,1.58.692-.347.9-1.786,1.062-2.942a6.376,6.376,0,0,1,.47-1.979,4.391,4.391,0,0,1,1.774-1.4,7.04,7.04,0,0,0,2.872-2.43c1.047-1.81,3.58-1.825,5.815-1.839a15.535,15.535,0,0,0,2.533-.142c2.937-.543,4.705-1.824,4.959-2.357a2.624,2.624,0,0,0-.331-2.607,3.194,3.194,0,0,1-.439-2.827c.762-1.885.867-4.367.446-5.165a2.513,2.513,0,0,0-1.522-1.242,4.8,4.8,0,0,0-3.646.873c-2.19,1.307-3.577,1.953-4.619,1.62a2.7,2.7,0,0,1-1.485-1.658,4.659,4.659,0,0,1,.906-4.2,6.143,6.143,0,0,1,5.559-2.714c3.013.231,4.677-.35,4.942-1.727.135-.7-.815-1.838-2.118-2.156-.644-.158-.963-.045-2.372.511-1.078.425-2.707,1.068-5.474,1.925a17.383,17.383,0,0,1-8.481.462,3.365,3.365,0,0,1-2.434-1.965,3.637,3.637,0,0,0-1.734-2.093,3.1,3.1,0,0,0-2.372.268,20.021,20.021,0,0,0-4.07,2.59c-1.416,1.09-2.535,1.949-3.626,1.374a4.91,4.91,0,0,1-2.022-3.028,7.687,7.687,0,0,0-.418-1.062c-.511-.949-5.876-4.616-9.835-3.062-6.491,2.545-10,4.431-10.434,5.6a.259.259,0,0,0,0,.235c.785,1.472,3.339,1.887,8.04,1.308a8.726,8.726,0,0,1,1.06-.071m46.2,13.572h0Z" transform="translate(-467.172 -750.834)" stroke="#d8d8d8" stroke-width="1"/>
      <path id="Path_629" data-name="Path 629" d="M254.776,1630.162H249.83c-2.021,0-3.659,4.82-3.659,10.745s1.638,10.748,3.659,10.748h4.946c2.021,0,3.659-4.822,3.659-10.747s-1.638-10.747-3.659-10.747" transform="translate(-188.879 -1250.767)" fill="#fff" stroke="#d8d8d8" stroke-width="1"/>
      <path id="Path_630" data-name="Path 630" d="M253.031,1650.439h-4.942c-2.725,0-4.193-5.81-4.193-11.278s1.468-11.275,4.189-11.275h4.946c2.72,0,4.188,5.81,4.188,11.276s-1.468,11.276-4.188,11.276m-4.941-21.493c-1.483,0-3.135,4.369-3.135,10.216s1.653,10.219,3.13,10.219h4.94c1.484,0,3.136-4.37,3.136-10.218s-1.652-10.217-3.13-10.217Z" transform="translate(-187.133 -1249.021)" stroke="#d8d8d8" stroke-width="1"/>
      <path id="Path_631" data-name="Path 631" d="M121.88,1461.5v-72.028l-99.02,12.747v54.88Z" transform="translate(-17.54 -1066.093)" fill="#fff" stroke="#d8d8d8" stroke-width="1"/>
      <path id="Path_632" data-name="Path 632" d="M120.135,1460.282h-.024l-99.02-4.4a.529.529,0,0,1-.506-.529v-54.88a.529.529,0,0,1,.462-.525l99.02-12.747a.529.529,0,0,1,.6.525v72.028a.529.529,0,0,1-.529.529m-98.49-5.437,97.961,4.354v-70.872l-97.961,12.611Z" transform="translate(-15.795 -1064.348)" stroke="#d8d8d8" stroke-width="1"/>
      <path id="Path_633" data-name="Path 633" d="M393.441,1619.365l3.092,2.89-.84,19.515a1.965,1.965,0,0,0,1.956,2.056H415.1v-24.4Z" transform="translate(-301.874 -1242.483)" fill="#fff" stroke="#d8d8d8" stroke-width="1"/>
      <path id="Path_634" data-name="Path 634" d="M413.358,1642.609H395.9a2.459,2.459,0,0,1-1.791-.766,2.486,2.486,0,0,1-.693-1.842l.83-19.271-2.914-2.723a.529.529,0,0,1,.361-.916h0l21.662.059a.53.53,0,0,1,.528.53v24.4a.53.53,0,0,1-.529.53m-20.316-24.457,2.108,1.97a.531.531,0,0,1,.168.41l-.841,19.515a1.436,1.436,0,0,0,.4,1.064,1.412,1.412,0,0,0,1.027.44h16.926v-23.344Z" transform="translate(-300.129 -1240.737)" stroke="#d8d8d8" stroke-width="1"/>
      <rect id="Rectangle_174" data-name="Rectangle 174" width="57.734" height="74.449" transform="translate(88.097 303.072)" fill="#fff" stroke="#d8d8d8" stroke-width="1"/>
      <path id="Path_635" data-name="Path 635" d="M434.521,1375.455H376.786a.529.529,0,0,1-.529-.53v-74.449a.529.529,0,0,1,.529-.529h57.735a.529.529,0,0,1,.529.529v74.449a.529.529,0,0,1-.529.53m-57.205-1.059h56.676v-73.391H377.316Z" transform="translate(-288.689 -997.404)" stroke="#d8d8d8" stroke-width="1"/>
      <path id="Path_636" data-name="Path 636" d="M434.52,1375.456h-9.229a.529.529,0,1,1,0-1.058h8.7v-73.391H377.315v73.92a.529.529,0,0,1-1.059,0v-74.45a.53.53,0,0,1,.529-.529H434.52a.529.529,0,0,1,.529.529v74.45a.529.529,0,0,1-.529.529" transform="translate(-288.688 -997.405)" stroke="#d8d8d8" stroke-width="1"/>
      <path id="Path_637" data-name="Path 637" d="M437.022,1649.673h-5.714c-2.335,0-4.228,5.565-4.228,12.41s1.893,12.413,4.228,12.413h5.714c2.335,0,4.227-5.566,4.227-12.412s-1.892-12.411-4.227-12.411" transform="translate(-327.684 -1265.737)" stroke="#d8d8d8" stroke-width="1"/>
      <path id="Path_638" data-name="Path 638" d="M435.536,1661.365c0,6.845-1.893,12.394-4.227,12.394s-4.227-5.549-4.227-12.394,1.893-12.395,4.227-12.395,4.227,5.549,4.227,12.395" transform="translate(-327.685 -1265.198)" fill="#fff" stroke="#d8d8d8" stroke-width="1"/>
      <path id="Path_639" data-name="Path 639" d="M429.562,1672.544c-3.09,0-4.757-6.659-4.757-12.923s1.667-12.924,4.757-12.924,4.757,6.658,4.757,12.924-1.667,12.923-4.757,12.923m0-24.789c-1.749,0-3.7,4.873-3.7,11.865s1.949,11.865,3.7,11.865,3.7-4.873,3.7-11.865-1.949-11.865-3.7-11.865" transform="translate(-325.938 -1263.454)" stroke="#d8d8d8" stroke-width="1"/>
      <path id="Path_640" data-name="Path 640" d="M392.353,1398.34l-.168,51.732,1.949,1.642a3.026,3.026,0,0,1,1.071,2.444l-.8,18.635a1.392,1.392,0,0,0,1.383,1.457c.6,0,1.151,0,1.151-.022,0-11.637,2.186-21.178,5.014-21.178s5.12,9.433,5.12,21.071c0,.041,6.769.121,6.769.121v-75.681Z" transform="translate(-300.91 -1072.897)" fill="#fff" stroke="#d8d8d8" stroke-width="1"/>
      <path id="Path_641" data-name="Path 641" d="M394.394,1473.033h-.355a1.9,1.9,0,0,1-1.378-.591,1.915,1.915,0,0,1-.533-1.418l.8-18.635a2.511,2.511,0,0,0-.883-2.016l-1.949-1.642a.529.529,0,0,1-.188-.406l.168-51.732a.53.53,0,0,1,.535-.528l21.485.22a.529.529,0,0,1,.524.529v75.681a.529.529,0,0,1-.157.376.513.513,0,0,1-.378.153s-1.693-.02-3.386-.044c-3.906-.058-3.906-.058-3.906-.605,0-12.105-2.42-20.541-4.591-20.541-2.121,0-4.484,8.48-4.484,20.649a.531.531,0,0,1-.156.375c-.161.161-.177.177-1.171.177m-3.423-24.953,1.76,1.483a3.577,3.577,0,0,1,1.258,2.872l-.8,18.635a.862.862,0,0,0,.24.64.844.844,0,0,0,.615.264c.268,0,.471,0,.623,0,.059-10.618,1.96-21.2,5.541-21.2,3.611,0,5.586,10.774,5.648,21.094,1.055.028,3.673.066,5.711.091v-74.621l-20.428-.209Z" transform="translate(-299.165 -1071.152)" stroke="#d8d8d8" stroke-width="1"/>
      <path id="Path_642" data-name="Path 642" d="M448.767,1655.86h-.006s-1.693-.02-3.386-.045c-3.906-.058-3.906-.058-3.906-.6,0-9.343-1.492-17.555-3.628-19.969a.529.529,0,1,1,.793-.7c2.289,2.586,3.839,10.652,3.893,20.165,1.15.03,4.157.072,6.247.1a.529.529,0,0,1-.006,1.059" transform="translate(-335.838 -1253.988)" stroke="#d8d8d8" stroke-width="1"/>
      <path id="Path_643" data-name="Path 643" d="M637.315,1647.071H631.6c-2.335,0-4.228,5.565-4.228,12.41s1.893,12.413,4.228,12.413h5.714c2.335,0,4.227-5.567,4.227-12.411s-1.893-12.412-4.227-12.412" transform="translate(-481.362 -1263.74)" stroke="#d8d8d8" stroke-width="1"/>
      <path id="Path_644" data-name="Path 644" d="M635.606,1658.862c0,6.9-1.908,12.493-4.261,12.493s-4.261-5.593-4.261-12.493,1.908-12.493,4.261-12.493,4.261,5.594,4.261,12.493" transform="translate(-481.139 -1263.202)" fill="#fff" stroke="#d8d8d8" stroke-width="1"/>
      <path id="Path_645" data-name="Path 645" d="M629.6,1670.14c-3.111,0-4.791-6.709-4.791-13.023s1.679-13.023,4.791-13.023,4.791,6.709,4.791,13.023-1.679,13.023-4.791,13.023m0-24.986c-1.765,0-3.732,4.913-3.732,11.964s1.967,11.964,3.732,11.964,3.732-4.913,3.732-11.964-1.967-11.964-3.732-11.964" transform="translate(-479.394 -1261.457)" stroke="#d8d8d8" stroke-width="1"/>
      <path id="Path_646" data-name="Path 646" d="M534.57,1398.675H486.824V1474.5h51.792a2.807,2.807,0,0,0,2.8-2.816v-24.312a115.194,115.194,0,0,0-1.774-20.139Z" transform="translate(-373.523 -1073.155)" fill="#fff" stroke="#d8d8d8" stroke-width="1"/>
      <path id="Path_647" data-name="Path 647" d="M536.871,1473.283H485.079a.529.529,0,0,1-.529-.529V1396.93a.529.529,0,0,1,.529-.529h47.746a.529.529,0,0,1,.521.437l5.07,28.556a116.043,116.043,0,0,1,1.782,20.232v24.312a3.34,3.34,0,0,1-3.327,3.345m-51.262-1.059h51.262a2.28,2.28,0,0,0,2.269-2.287v-24.312a115.011,115.011,0,0,0-1.765-20.047l-4.992-28.12H485.609Z" transform="translate(-371.778 -1071.41)" stroke="#d8d8d8" stroke-width="1"/>
      <path id="Path_648" data-name="Path 648" d="M442.731,1483.606l2.512.433a1.362,1.362,0,0,0,1.588-1.349v-15.709a1.934,1.934,0,0,0-1.927-1.94h-3.492a1.614,1.614,0,0,0-1.609,1.62v13.45a3.539,3.539,0,0,0,2.928,3.494" transform="translate(-337.446 -1124.076)" fill="#fff" stroke="#d8d8d8" stroke-width="1"/>
      <path id="Path_649" data-name="Path 649" d="M443.727,1482.842a1.854,1.854,0,0,1-.32-.027l-2.512-.433a4.059,4.059,0,0,1-3.367-4.016v-13.45a2.146,2.146,0,0,1,2.138-2.149h3.492a2.465,2.465,0,0,1,2.456,2.469v15.709a1.893,1.893,0,0,1-1.887,1.9m-4.061-19.017a1.086,1.086,0,0,0-1.08,1.09v13.45a3,3,0,0,0,2.489,2.973l2.512.433a.822.822,0,0,0,.67-.183.839.839,0,0,0,.3-.644v-15.709a1.406,1.406,0,0,0-1.4-1.411Z" transform="translate(-335.7 -1122.331)" stroke="#d8d8d8" stroke-width="1"/>
      <path id="Path_650" data-name="Path 650" d="M89.842,1376.671v-74.449L2.274,1312.789v63.962Z" transform="translate(-1.745 -999.15)" fill="#fff" stroke="#d8d8d8" stroke-width="1"/>
      <path id="Path_651" data-name="Path 651" d="M456.591,1340.024H393.637l2.825-13.264a5.671,5.671,0,0,1,5.639-4.335h47.445a4.353,4.353,0,0,1,4.354,3.419Z" transform="translate(-302.024 -1014.651)" fill="#fff" stroke="#d8d8d8" stroke-width="1"/>
      <path id="Path_652" data-name="Path 652" d="M470.374,1325.845a4.353,4.353,0,0,0-4.354-3.419H418.575a5.986,5.986,0,0,0-3.467,1.1l20.581,16.5h37.376Z" transform="translate(-318.498 -1014.652)" fill="#fff" stroke="#d8d8d8" stroke-width="1"/>
      <path id="Path_653" data-name="Path 653" d="M439.629,1346.98a.525.525,0,0,1-.331-.116l-14.408-11.553a.529.529,0,1,1,.662-.826l14.408,11.553a.529.529,0,0,1-.331.942" transform="translate(-325.852 -1023.815)" stroke="#d8d8d8" stroke-width="1"/>
      <path id="Path_654" data-name="Path 654" d="M454.845,1338.809H391.891a.529.529,0,0,1-.518-.64L394.2,1324.9a6.278,6.278,0,0,1,6.142-4.754H447.8a4.878,4.878,0,0,1,4.874,3.85l2.691,14.18a.53.53,0,0,1-.52.628m-62.3-1.059h61.661l-2.573-13.552a3.819,3.819,0,0,0-3.834-2.989H400.355a5.221,5.221,0,0,0-5.121,3.916Z" transform="translate(-300.278 -1012.906)" stroke="#d8d8d8" stroke-width="1"/>
      <path id="Path_655" data-name="Path 655" d="M503.86,1458.77h37.188a3.624,3.624,0,0,1,3.563,3.011l3.162,18.134a2.854,2.854,0,0,1-2.8,3.354H503.084a2.85,2.85,0,0,1-2.841-2.859v-18a3.629,3.629,0,0,1,3.617-3.641" transform="translate(-383.819 -1119.264)" fill="#fff" stroke="#d8d8d8" stroke-width="1"/>
      <path id="Path_656" data-name="Path 656" d="M543.23,1482.054H501.338a3.383,3.383,0,0,1-3.37-3.389v-18a4.164,4.164,0,0,1,4.147-4.171H539.3a4.147,4.147,0,0,1,4.085,3.45l3.162,18.134a3.393,3.393,0,0,1-.746,2.773,3.356,3.356,0,0,1-2.574,1.2m-41.115-24.5a3.1,3.1,0,0,0-3.088,3.112v18a2.323,2.323,0,0,0,2.311,2.33H543.23a2.3,2.3,0,0,0,1.763-.823,2.335,2.335,0,0,0,.513-1.91l-3.162-18.133a3.09,3.09,0,0,0-3.041-2.574Z" transform="translate(-382.074 -1117.519)" stroke="#d8d8d8" stroke-width="1"/>
      <path id="Path_657" data-name="Path 657" d="M528.269,1521.781a11.537,11.537,0,0,0-8.236-3.481H500.085v7.785a2.84,2.84,0,0,0,2.878,2.81h41.892a2.834,2.834,0,0,0,2.8-3.329l-.057-.3H536.5a11.539,11.539,0,0,1-8.236-3.481" transform="translate(-383.698 -1164.939)" fill="#fff" stroke="#d8d8d8" stroke-width="1"/>
      <path id="Path_658" data-name="Path 658" d="M543.109,1527.679H501.217a3.377,3.377,0,0,1-3.407-3.339v-7.785a.529.529,0,0,1,.529-.529h19.948a12.135,12.135,0,0,1,8.614,3.64,11.074,11.074,0,0,0,7.858,3.323h11.09a.53.53,0,0,1,.52.431l.057.3a3.362,3.362,0,0,1-3.318,3.956m-44.24-10.6v7.256a2.318,2.318,0,0,0,2.348,2.281h41.892a2.3,2.3,0,0,0,2.3-2.574H534.759a12.138,12.138,0,0,1-8.614-3.641,11.071,11.071,0,0,0-7.858-3.323Z" transform="translate(-381.952 -1163.194)" stroke="#d8d8d8" stroke-width="1"/>
      <path id="Path_659" data-name="Path 659" d="M543.23,1482.054H501.338a3.383,3.383,0,0,1-3.37-3.389v-18a4.164,4.164,0,0,1,4.147-4.171H539.3a4.147,4.147,0,0,1,4.085,3.45l3.162,18.134a3.393,3.393,0,0,1-.746,2.773,3.356,3.356,0,0,1-2.574,1.2m-41.115-24.5a3.1,3.1,0,0,0-3.088,3.112v18a2.323,2.323,0,0,0,2.311,2.33H543.23a2.3,2.3,0,0,0,1.763-.823,2.335,2.335,0,0,0,.513-1.91l-3.162-18.133a3.09,3.09,0,0,0-3.041-2.574Z" transform="translate(-382.074 -1117.519)" stroke="#d8d8d8" stroke-width="1"/>
      <path id="Path_660" data-name="Path 660" d="M304.943,1637.966h-5.557c-2.27,0-4.111,5.451-4.111,12.108s1.841,12.11,4.111,12.11h5.557c2.27,0,4.111-5.452,4.111-12.109s-1.841-12.109-4.111-12.109" transform="translate(-226.554 -1256.755)" stroke="#d8d8d8" stroke-width="1"/>
      <path id="Path_661" data-name="Path 661" d="M303.5,1649.657c0,6.656-1.841,12.052-4.111,12.052s-4.111-5.4-4.111-12.052,1.841-12.053,4.111-12.053,4.111,5.4,4.111,12.053" transform="translate(-226.554 -1256.477)" fill="#fff" stroke="#d8d8d8" stroke-width="1"/>
      <path id="Path_662" data-name="Path 662" d="M297.641,1660.493c-3.014,0-4.641-6.483-4.641-12.582s1.626-12.582,4.641-12.582,4.64,6.483,4.64,12.582-1.626,12.582-4.64,12.582m0-24.105c-1.694,0-3.582,4.732-3.582,11.523s1.888,11.523,3.582,11.523,3.582-4.732,3.582-11.523-1.888-11.523-3.582-11.523" transform="translate(-224.809 -1254.731)" stroke="#d8d8d8" stroke-width="1"/>
      <path id="Path_663" data-name="Path 663" d="M48.677,1631.463H43.914c-1.946,0-3.524,4.508-3.524,10.14s1.578,10.143,3.524,10.143h4.763c1.946,0,3.524-4.51,3.524-10.141s-1.578-10.141-3.524-10.141" transform="translate(-30.99 -1251.765)" stroke="#d8d8d8" stroke-width="1"/>
      <path id="Path_664" data-name="Path 664" d="M47.439,1640.679c0,5.632-1.578,10.2-3.524,10.2s-3.524-4.565-3.524-10.2,1.578-10.2,3.524-10.2,3.524,4.565,3.524,10.2" transform="translate(-30.991 -1251.012)" fill="#fff" stroke="#d8d8d8" stroke-width="1"/>
      <path id="Path_665" data-name="Path 665" d="M42.17,1649.66c-2.632,0-4.053-5.527-4.053-10.727s1.421-10.726,4.053-10.726,4.054,5.527,4.054,10.726S44.8,1649.66,42.17,1649.66m0-20.394c-1.414,0-2.994,4.134-2.994,9.667s1.581,9.668,2.994,9.668,2.995-4.135,2.995-9.668-1.581-9.667-2.995-9.667" transform="translate(-29.246 -1249.267)" stroke="#d8d8d8" stroke-width="1"/>
      <path id="Path_666" data-name="Path 666" d="M87.444,1634.064H82.681c-1.946,0-3.524,4.508-3.524,10.14s1.578,10.142,3.524,10.142h4.763c1.946,0,3.524-4.51,3.524-10.141s-1.578-10.141-3.524-10.141" transform="translate(-60.734 -1253.761)" stroke="#d8d8d8" stroke-width="1"/>
      <path id="Path_667" data-name="Path 667" d="M86.2,1643.28c0,5.632-1.578,10.2-3.524,10.2s-3.524-4.565-3.524-10.2,1.578-10.2,3.524-10.2,3.524,4.565,3.524,10.2" transform="translate(-60.734 -1253.008)" fill="#fff" stroke="#d8d8d8" stroke-width="1"/>
      <path id="Path_668" data-name="Path 668" d="M80.936,1652.262c-2.633,0-4.054-5.526-4.054-10.726s1.421-10.726,4.054-10.726,4.054,5.526,4.054,10.726-1.421,10.726-4.054,10.726m0-20.394c-1.414,0-2.995,4.135-2.995,9.668s1.581,9.668,2.995,9.668,2.995-4.135,2.995-9.668-1.581-9.668-2.995-9.668" transform="translate(-58.989 -1251.263)" stroke="#d8d8d8" stroke-width="1"/>
      <path id="Path_669" data-name="Path 669" d="M126.847,1634.064H121.9c-2.021,0-3.659,4.82-3.659,10.745s1.638,10.748,3.659,10.748h4.946c2.021,0,3.659-4.822,3.659-10.746s-1.638-10.747-3.659-10.747" transform="translate(-90.723 -1253.761)" stroke="#d8d8d8" stroke-width="1"/>
      <path id="Path_670" data-name="Path 670" d="M125.56,1644.125c0,5.925-1.638,10.728-3.659,10.728s-3.659-4.8-3.659-10.728,1.638-10.728,3.659-10.728,3.659,4.8,3.659,10.728" transform="translate(-90.723 -1253.249)" fill="#fff" stroke="#d8d8d8" stroke-width="1"/>
      <path id="Path_671" data-name="Path 671" d="M120.156,1653.638c-2.72,0-4.188-5.8-4.188-11.258s1.468-11.258,4.188-11.258,4.189,5.8,4.189,11.258-1.468,11.258-4.189,11.258m0-21.457c-1.477,0-3.13,4.362-3.13,10.2s1.652,10.2,3.13,10.2,3.13-4.362,3.13-10.2-1.652-10.2-3.13-10.2" transform="translate(-88.978 -1251.504)" stroke="#d8d8d8" stroke-width="1"/>
      <path id="Path_672" data-name="Path 672" d="M517.037,1669.447h-6.718a2.1,2.1,0,0,1-2.093-2.106v-3.78h5.311a4.248,4.248,0,0,1,4,2.855l.54,1.546a1.115,1.115,0,0,1-1.045,1.486" transform="translate(-389.944 -1276.392)" fill="#fff" stroke="#d8d8d8" stroke-width="1"/>
      <path id="Path_673" data-name="Path 673" d="M515.291,1668.23h-6.718a2.632,2.632,0,0,1-2.622-2.636v-3.781a.529.529,0,0,1,.529-.529h5.311a4.783,4.783,0,0,1,4.5,3.21l.54,1.546a1.644,1.644,0,0,1-1.545,2.19m-8.282-5.887v3.251a1.572,1.572,0,0,0,1.563,1.577h6.718a.57.57,0,0,0,.47-.245.583.583,0,0,0,.076-.537l-.54-1.546a3.723,3.723,0,0,0-3.505-2.5Z" transform="translate(-388.199 -1274.646)" stroke="#d8d8d8" stroke-width="1"/>
      <path id="Path_674" data-name="Path 674" d="M662.55,1667.7h6.718a2.1,2.1,0,0,0,2.093-2.106v-3.78h-5.312a4.247,4.247,0,0,0-4,2.856l-.54,1.545a1.115,1.115,0,0,0,1.046,1.486" transform="translate(-507.5 -1275.05)" fill="#fff" stroke="#d8d8d8" stroke-width="1"/>
      <path id="Path_675" data-name="Path 675" d="M667.527,1666.481h-6.718a1.644,1.644,0,0,1-1.545-2.189l.54-1.546a4.783,4.783,0,0,1,4.5-3.21h5.311a.529.529,0,0,1,.529.529v3.78a2.632,2.632,0,0,1-2.622,2.635m-3.219-5.886a3.724,3.724,0,0,0-3.505,2.5l-.54,1.546a.585.585,0,0,0,.076.537.571.571,0,0,0,.47.244h6.718a1.572,1.572,0,0,0,1.563-1.577v-3.251Z" transform="translate(-505.759 -1273.304)" stroke="#d8d8d8" stroke-width="1"/>
      <path id="Path_676" data-name="Path 676" d="M577.222,1693.741H559.545a2.53,2.53,0,0,1-2.2-1.283l-.781-1.373a.7.7,0,0,1,.6-1.047H579.6a.7.7,0,0,1,.6,1.047l-.781,1.373a2.53,2.53,0,0,1-2.2,1.283" transform="translate(-426.963 -1296.708)" fill="#fff" stroke="#d8d8d8" stroke-width="1"/>
      <path id="Path_677" data-name="Path 677" d="M575.474,1692.525H557.8a3.066,3.066,0,0,1-2.658-1.551l-.781-1.373a1.228,1.228,0,0,1,1.063-1.837H577.85a1.228,1.228,0,0,1,1.063,1.837l-.781,1.373a3.065,3.065,0,0,1-2.658,1.551m-20.053-3.7a.159.159,0,0,0-.142.083.168.168,0,0,0,0,.172l.781,1.373a2.006,2.006,0,0,0,1.738,1.015h17.677a2.005,2.005,0,0,0,1.738-1.015l.781-1.373a.167.167,0,0,0,0-.172.159.159,0,0,0-.141-.083Z" transform="translate(-425.214 -1294.963)" stroke="#d8d8d8" stroke-width="1"/>
      <path id="Path_678" data-name="Path 678" d="M429.855,1490.663H427.91a2.893,2.893,0,0,1-2.894-2.893v-8.976a2.225,2.225,0,0,1,2.224-2.224h2.6a1.019,1.019,0,0,1,1.019,1.019v12.072a1,1,0,0,1-1,1" transform="translate(-326.1 -1132.921)" fill="#fff" stroke="#d8d8d8" stroke-width="1"/>
      <path id="Path_679" data-name="Path 679" d="M428.109,1489.448h-1.945a3.427,3.427,0,0,1-3.423-3.423v-8.976a2.757,2.757,0,0,1,2.753-2.753h2.6a1.55,1.55,0,0,1,1.548,1.548v12.073a1.533,1.533,0,0,1-1.532,1.532m-2.615-14.094a1.7,1.7,0,0,0-1.695,1.695v8.976a2.367,2.367,0,0,0,2.364,2.364h1.945a.474.474,0,0,0,.473-.473v-12.073a.49.49,0,0,0-.489-.489Z" transform="translate(-324.355 -1131.176)" stroke="#d8d8d8" stroke-width="1"/>
      <path id="Path_680" data-name="Path 680" d="M728.948,1489.606h-1.526a.639.639,0,0,1-.639-.639V1474.9a.49.49,0,0,1,.49-.49h2.506a1.586,1.586,0,0,1,1.586,1.585v11.189a2.417,2.417,0,0,1-2.417,2.417" transform="translate(-557.635 -1131.267)" fill="#fff" stroke="#d8d8d8" stroke-width="1"/>
      <path id="Path_681" data-name="Path 681" d="M727.2,1488.39h-1.526a1.169,1.169,0,0,1-1.168-1.168V1473.16a1.021,1.021,0,0,1,1.02-1.02h2.506a2.118,2.118,0,0,1,2.115,2.115v11.188a2.95,2.95,0,0,1-2.947,2.947m-1.636-15.191v14.023a.11.11,0,0,0,.11.11H727.2a1.89,1.89,0,0,0,1.888-1.888v-11.188a1.058,1.058,0,0,0-1.056-1.056Z" transform="translate(-555.891 -1129.522)" stroke="#d8d8d8" stroke-width="1"/>
      <path id="Path_682" data-name="Path 682" d="M549.351,1594.972H502.514a.492.492,0,0,0-.491.494v3.071a1.878,1.878,0,0,0,1.872,1.884h1.412a1.871,1.871,0,0,1,1.7,1.089l1.465,3.166a7.775,7.775,0,0,0,7.051,4.524h22.237a7.775,7.775,0,0,0,7.052-4.525l1.464-3.165a1.871,1.871,0,0,1,1.7-1.089,1.878,1.878,0,0,0,1.872-1.884v-3.071a.492.492,0,0,0-.491-.494" transform="translate(-385.185 -1223.767)" fill="#fff" stroke="#d8d8d8" stroke-width="1"/>
      <path id="Path_683" data-name="Path 683" d="M536.012,1607.985H513.775a8.332,8.332,0,0,1-7.532-4.831l-1.465-3.166a1.346,1.346,0,0,0-1.216-.782H502.15a2.41,2.41,0,0,1-2.4-2.413v-3.071a1.023,1.023,0,0,1,1.02-1.023h46.837a1.023,1.023,0,0,1,1.02,1.023v3.071a2.41,2.41,0,0,1-2.4,2.413,1.346,1.346,0,0,0-1.216.782l-1.464,3.165a8.332,8.332,0,0,1-7.532,4.832m-35.244-14.228.039,3.036a1.35,1.35,0,0,0,1.342,1.355h1.412a2.409,2.409,0,0,1,2.177,1.4l1.465,3.166a7.271,7.271,0,0,0,6.571,4.217h22.237a7.271,7.271,0,0,0,6.571-4.218l1.464-3.165a2.409,2.409,0,0,1,2.177-1.4,1.35,1.35,0,0,0,1.342-1.355v-3.036Zm46.837,0h0Z" transform="translate(-383.44 -1222.022)" stroke="#d8d8d8" stroke-width="1"/>
      <path id="Path_684" data-name="Path 684" d="M.529,1375.535a.529.529,0,0,1-.529-.529v-63.962a.53.53,0,0,1,.466-.526l87.568-10.567a.529.529,0,0,1,.593.526v74.3a.53.53,0,0,1-.528.529l-87.568.233Zm87.568-.762h0ZM1.059,1311.514v62.962l86.509-.23v-73.171Z" transform="translate(0 -997.405)" stroke="#d8d8d8" stroke-width="1"/>
      <path id="Path_685" data-name="Path 685" d="M30.2,1423.209a.529.529,0,0,1-.529-.529v-52.734a.529.529,0,0,1,1.059,0v52.734a.529.529,0,0,1-.529.529" transform="translate(-22.765 -1050.705)" stroke="#d8d8d8" stroke-width="1"/>
      <path id="Path_686" data-name="Path 686" d="M68.929,1419.908a.529.529,0,0,1-.529-.529v-53.735a.529.529,0,1,1,1.059,0v53.735a.529.529,0,0,1-.529.529" transform="translate(-52.481 -1047.405)" stroke="#d8d8d8" stroke-width="1"/>
      <path id="Path_687" data-name="Path 687" d="M107.656,1416.686a.53.53,0,0,1-.529-.529v-54.713a.529.529,0,0,1,1.059,0v54.713a.529.529,0,0,1-.529.529" transform="translate(-82.195 -1044.183)" stroke="#d8d8d8" stroke-width="1"/>
      <path id="Path_688" data-name="Path 688" d="M146.385,1412.737a.529.529,0,0,1-.529-.529V1356.3a.529.529,0,1,1,1.059,0v55.911a.529.529,0,0,1-.529.529" transform="translate(-111.91 -1040.233)" stroke="#d8d8d8" stroke-width="1"/>
      <path id="Path_689" data-name="Path 689" d="M185.114,1409.767a.529.529,0,0,1-.529-.529v-56.812a.529.529,0,1,1,1.059,0v56.812a.529.529,0,0,1-.529.529" transform="translate(-141.626 -1037.264)" stroke="#d8d8d8" stroke-width="1"/>
      <path id="Path_690" data-name="Path 690" d="M223.842,1405.091a.529.529,0,0,1-.529-.529v-58.23a.529.529,0,0,1,1.059,0v58.23a.529.529,0,0,1-.529.529" transform="translate(-171.34 -1032.588)" stroke="#d8d8d8" stroke-width="1"/>
      <path id="Path_691" data-name="Path 691" d="M262.571,1402.306a.529.529,0,0,1-.529-.529V1342.7a.529.529,0,0,1,1.059,0v59.075a.529.529,0,0,1-.529.529" transform="translate(-201.056 -1029.803)" stroke="#d8d8d8" stroke-width="1"/>
      <path id="Path_692" data-name="Path 692" d="M301.3,1398.393a.529.529,0,0,1-.529-.529V1337.6a.529.529,0,1,1,1.059,0v60.261a.529.529,0,0,1-.529.529" transform="translate(-230.77 -1025.89)" stroke="#d8d8d8" stroke-width="1"/>
      <path id="Path_693" data-name="Path 693" d="M340.028,1395.19a.53.53,0,0,1-.529-.53v-61.233a.529.529,0,0,1,1.059,0v61.233a.53.53,0,0,1-.529.53" transform="translate(-260.486 -1022.686)" stroke="#d8d8d8" stroke-width="1"/>
    </g>
  </g>
</svg>
