<svg id="manleft" xmlns="http://www.w3.org/2000/svg" width="98" height="203.76" viewBox="0 0 98 203.76">
  <path id="Path_2617" data-name="Path 2617" d="M207.434,1675.413l-.835,8.012-5.382.635v-9.5Z" transform="translate(-122.672 -1494.958)" fill="#fff"/>
  <path id="Path_2618" data-name="Path 2618" d="M199.374,1682.576l.042,0,5.382-.635a.359.359,0,0,0,.315-.32l.836-8.012a.359.359,0,0,0-.309-.393l-6.217-.853a.355.355,0,0,0-.285.085.36.36,0,0,0-.123.271v9.5a.36.36,0,0,0,.36.36m5.054-1.318-4.694.554v-8.683l5.464.75Z" transform="translate(-120.83 -1493.113)"/>
  <path id="Path_2619" data-name="Path 2619" d="M171.089,1724.541a37.366,37.366,0,0,0,10.242-.005,2.419,2.419,0,0,0,2.009-2.972c-.951-3.889-2.589-11.269-5.4-14.689l-.7,1.855-.965-1.746a.854.854,0,0,0-.639-.435l-2.113-.27a.855.855,0,0,0-.943.676l-.336,1.609-1.288-2.109-.572,7.879a32.661,32.661,0,0,1-.758,5.012l-.576,2.486a2.413,2.413,0,0,0,2.039,2.711" transform="translate(-93.391 -1521.491)" fill="#fff"/>
  <path id="Path_2620" data-name="Path 2620" d="M174.334,1723.411a37.73,37.73,0,0,0,5.2-.359,2.779,2.779,0,0,0,2.309-3.414l-.2-.841c-.971-4.017-2.6-10.74-5.268-13.99a.355.355,0,0,0-.337-.127.36.36,0,0,0-.278.228l-.424,1.125-.588-1.064a1.218,1.218,0,0,0-.908-.618l-2.113-.27a1.224,1.224,0,0,0-1.341.959l-.151.72-.815-1.334a.36.36,0,0,0-.666.161l-.572,7.879a32.431,32.431,0,0,1-.75,4.957l-.576,2.484a2.787,2.787,0,0,0,2.339,3.149,36.856,36.856,0,0,0,5.138.354m-5.088-.71h0Zm6.958-16.933c2.343,3.288,3.831,9.443,4.739,13.2l.2.843a2.06,2.06,0,0,1-1.709,2.531,36.89,36.89,0,0,1-10.143.005,2.059,2.059,0,0,1-1.733-2.309l.57-2.45a33.135,33.135,0,0,0,.766-5.067l.491-6.76.7,1.153a.36.36,0,0,0,.659-.114l.336-1.609a.492.492,0,0,1,.546-.393l2.113.27a.5.5,0,0,1,.37.252l.965,1.746a.359.359,0,0,0,.651-.047Z" transform="translate(-91.55 -1519.65)"/>
  <path id="Path_2621" data-name="Path 2621" d="M188.534,1801.157a21.073,21.073,0,0,0,4.711-.55.36.36,0,1,0-.161-.7,17.135,17.135,0,0,1-8.817-.05.36.36,0,0,0-.244.677,14.27,14.27,0,0,0,4.512.624" transform="translate(-105.916 -1599.776)"/>
  <path id="Path_2622" data-name="Path 2622" d="M201.638,1765.682a.36.36,0,0,0,.012-.719l-5.045-.167a.348.348,0,0,0-.371.347.36.36,0,0,0,.347.371l5.045.167h.012" transform="translate(-116.422 -1570.457)"/>
  <path id="Path_2623" data-name="Path 2623" d="M363.176,1653.658l-.806,11.692h-6.476l-.3-11.692Z" transform="translate(-303.623 -1477.469)" fill="#fff"/>
  <path id="Path_2624" data-name="Path 2624" d="M354.05,1663.868h6.476a.36.36,0,0,0,.359-.335l.807-11.692a.359.359,0,0,0-.359-.384h-7.584a.36.36,0,0,0-.36.368l.3,11.692a.36.36,0,0,0,.36.351m6.14-.72H354.4l-.282-10.973h6.829Z" transform="translate(-301.779 -1475.627)"/>
  <path id="Path_2625" data-name="Path 2625" d="M375.346,1705.016a2.351,2.351,0,0,1-1.8,2.328c-3.723.872-12.11,2.814-14.5,3.172-3.105.465-6.921-.492-8.562-2.32s3.674-6.193,6.2-7.781c3.747-2.359,7.346-7.022,8.855-7.232s4.327,4.2,4.327,4.2l4.606-1.948a57.758,57.758,0,0,1,.885,9.583" transform="translate(-314.907 -1510.533)" fill="#fff"/>
  <path id="Path_2626" data-name="Path 2626" d="M355.573,1709.156a11.288,11.288,0,0,0,1.676-.121c2.422-.363,10.969-2.344,14.531-3.178a2.725,2.725,0,0,0,2.082-2.683,58.8,58.8,0,0,0-.893-9.648.36.36,0,0,0-.493-.26l-4.328,1.83c-.746-1.129-3-4.313-4.514-4.105-.871.121-2.1,1.294-3.8,2.918a35.466,35.466,0,0,1-5.2,4.367c-2.031,1.279-6.329,4.666-6.652,6.975a1.6,1.6,0,0,0,.38,1.351c1.395,1.554,4.345,2.557,7.207,2.557m17.57-5.973a2,2,0,0,1-1.528,1.972c-3.554.833-12.078,2.808-14.474,3.167-3.094.464-6.714-.5-8.24-2.2a.9.9,0,0,1-.2-.771c.248-1.777,3.832-4.9,6.323-6.465a35.995,35.995,0,0,0,5.311-4.455c1.419-1.356,2.76-2.636,3.4-2.726.883-.118,2.856,2.286,3.974,4.035a.36.36,0,0,0,.443.137l4.192-1.772a60.574,60.574,0,0,1,.8,9.081" transform="translate(-313.063 -1508.697)"/>
  <path id="Path_2627" data-name="Path 2627" d="M368.1,1762.725c5.643,0,12.934-2.581,15.593-3.6a.36.36,0,0,0-.258-.672c-2.515.965-15.3,5.619-20.1,2.478a.359.359,0,1,0-.394.6,9.484,9.484,0,0,0,5.156,1.193" transform="translate(-325.541 -1565.131)"/>
  <path id="Path_2628" data-name="Path 2628" d="M416.467,1728.633a.359.359,0,0,0,.251-.617l-2.683-2.627a.36.36,0,0,0-.5.514l2.683,2.627a.358.358,0,0,0,.251.1" transform="translate(-366.717 -1537.401)"/>
  <path id="Path_2629" data-name="Path 2629" d="M210.638,1177.694s2.007,36.551,3.057,49.168-2.456,32.9-2.456,32.9l-10-.529s-.685-24.66-1.428-31.509c0,0-4.222-9.284-5.474-17.563s-5.514-21.358-5.514-21.358-3.462,65.277-3.8,70.405c0,0-7.839.351-10.649-1.429,0,0-4.98-23.8-4.264-36.752s-.07-45.125-.07-45.125Z" transform="translate(-124.041 -1077.727)" fill="#fff"/>
  <path id="Path_2630" data-name="Path 2630" d="M209.411,1258.276a.36.36,0,0,0,.354-.3c.035-.2,3.5-20.473,2.46-32.991-1.038-12.468-3.036-48.793-3.056-49.158a.359.359,0,0,0-.343-.34l-40.591-1.791a.34.34,0,0,0-.268.1.359.359,0,0,0-.108.266c.008.322.777,32.308.071,45.1-.71,12.848,4.222,36.607,4.272,36.845a.359.359,0,0,0,.159.23c2.873,1.819,10.533,1.5,10.858,1.484a.361.361,0,0,0,.343-.336c.3-4.566,3.108-57.461,3.69-68.43,1.217,3.924,3.953,13.117,4.9,19.414,1.2,7.909,5.132,16.83,5.478,17.6.73,6.833,1.413,31.178,1.42,31.423a.36.36,0,0,0,.341.349l10,.529h.019m-.943-82.083c.2,3.665,2.054,37.008,3.04,48.854.963,11.574-1.964,29.873-2.4,32.494l-9.345-.494c-.085-2.966-.732-24.854-1.42-31.206a.362.362,0,0,0-.03-.11c-.042-.092-4.216-9.335-5.445-17.468-1.241-8.214-5.486-21.285-5.528-21.416a.36.36,0,0,0-.7.092c-.034.641-3.345,63.056-3.775,70.075-1.466.04-7.533.113-9.99-1.306-.423-2.065-4.9-24.29-4.226-36.506.666-12.052.024-41.081-.061-44.768Z" transform="translate(-122.212 -1075.881)"/>
  <path id="Path_2631" data-name="Path 2631" d="M224.422,1491.766h3.055a.36.36,0,0,0,0-.719h-3.055a.36.36,0,0,0,0,.719" transform="translate(-146.805 -1341.41)"/>
  <path id="Path_2632" data-name="Path 2632" d="M383.352,1520.133h.007a.36.36,0,0,0,.353-.366c-.11-6.046-6.7-16.876-6.977-17.334a.36.36,0,0,0-.613.376c.067.11,6.765,11.12,6.871,16.972a.36.36,0,0,0,.36.353" transform="translate(-327.501 -1350.793)"/>
  <path id="Path_2633" data-name="Path 2633" d="M454.09,779.986c-.554-.044-5.161,7.865-7.328,11.642a2.18,2.18,0,0,1-3.039.775l-16.938-10.456a11.137,11.137,0,0,1-3.463-3.358c-1.415-2.156-2.256-4.347-4.15-5.878-1.54-1.245-3.1-2.629-3.567-2.991-.292-.227-1.651.74-.627,2.457.314.528,1.49,1.6,1.811,2.083a2.185,2.185,0,0,1-.057,2.538,3.643,3.643,0,0,0-.432,3.774,5.37,5.37,0,0,0,4.592,3.364,2.628,2.628,0,0,1,1.681.886L438.2,802.731a7.539,7.539,0,0,0,9.621,1.487c5.082-3.1,11.625-9.36,16.338-17.267Z" transform="translate(-414.244 -737.841)" fill="#fff"/>
  <path id="Path_2634" data-name="Path 2634" d="M442.05,803.838a7.882,7.882,0,0,0,4.117-1.162c4.633-2.83,11.389-8.884,16.46-17.39a.36.36,0,0,0-.1-.48l-10.072-6.966a.359.359,0,0,0-.176-.063c-.34-.023-.851-.06-7.668,11.821a1.82,1.82,0,0,1-2.539.648L425.13,779.79a10.84,10.84,0,0,1-3.352-3.25c-.409-.622-.773-1.256-1.126-1.868a13.612,13.612,0,0,0-3.1-4.092c-.889-.719-1.768-1.47-2.474-2.073-.5-.427-.9-.765-1.1-.922-.254-.2-.648-.123-1,.189a2.078,2.078,0,0,0-.156,2.736,8.923,8.923,0,0,0,1.032,1.206,9.371,9.371,0,0,1,.788.891,1.815,1.815,0,0,1-.042,2.118,4,4,0,0,0-.483,4.127,5.719,5.719,0,0,0,4.886,3.589,2.273,2.273,0,0,1,1.451.765l15.631,17.911a7.9,7.9,0,0,0,5.963,2.72m19.786-18.632c-4.983,8.242-11.537,14.1-16.044,16.856a7.172,7.172,0,0,1-9.162-1.417L421,782.734a2.987,2.987,0,0,0-1.91-1.007,5.028,5.028,0,0,1-4.3-3.138,3.293,3.293,0,0,1,.381-3.422,2.533,2.533,0,0,0,.074-2.957,9.351,9.351,0,0,0-.866-.99,8.961,8.961,0,0,1-.936-1.079,1.553,1.553,0,0,1-.21-1.532.864.864,0,0,1,.379-.4c.207.166.563.471,1,.845.672.574,1.593,1.361,2.489,2.086a13.069,13.069,0,0,1,2.928,3.891c.358.622.727,1.264,1.148,1.9a11.56,11.56,0,0,0,3.575,3.467l16.938,10.457a2.54,2.54,0,0,0,3.54-.9c4.3-7.487,6.4-10.745,7.013-11.386Z" transform="translate(-412.399 -735.992)"/>
  <path id="Path_2635" data-name="Path 2635" d="M185.319,771.873S186.446,751.05,170.7,745.2c-12.189-4.53-27.755-2.576-32.633-.883-12.011,4.166-17.923,20.036-17.923,20.036l14.077,1.984s-4.243,45.6-2.4,55.766c0,0,11.328,1.33,16.133-.575s20.6-4.573,28.154-1.081l-1.372-48.77Z" transform="translate(-87.337 -715.019)" fill="#c80e2d"/>
  <path id="Path_2636" data-name="Path 2636" d="M262.116,1074.934a.36.36,0,0,0,.063-.714c-17.978-3.2-23.228-15.724-23.279-15.851a.36.36,0,0,0-.667.269c.052.13,5.431,13.019,23.821,16.29a.371.371,0,0,0,.063.005" transform="translate(-183.753 -979.198)" fill="#fff"/>
  <path id="Path_2637" data-name="Path 2637" d="M312.077,892.7h23.062l-7.223-25.93H304.854Z" transform="translate(-267.3 -819.07)" fill="#fff"/>
  <path id="Path_2638" data-name="Path 2638" d="M310.236,891.213H333.3a.36.36,0,0,0,.346-.456l-7.223-25.93a.359.359,0,0,0-.346-.263H303.013a.36.36,0,0,0-.346.456l7.223,25.93a.359.359,0,0,0,.346.263m22.588-.719H310.509l-7.023-25.211H325.8Z" transform="translate(-265.459 -817.226)"/>
  <path id="Path_2639" data-name="Path 2639" d="M179.047,920.6l-10.142-.46s-.076,8.6-.991,8.75a64.557,64.557,0,0,1-14.531.034,3.581,3.581,0,0,1-3.063-2.921,5.138,5.138,0,0,0-2.434-3.515c-1.535-.951-.021,2.041-1.457,3.968-.771,1.035-3.213.576-6.543-.2s-4.176,2.805-.444,4.97c4.046,2.347,6.617,2.083,7.907,2.358,2.57.547,25.293,4.132,28.8,2.213,2.71-1.482,2.9-15.2,2.9-15.2" transform="translate(-83.798 -863.73)" fill="#fff"/>
  <path id="Path_2640" data-name="Path 2640" d="M169.9,934.875a11.348,11.348,0,0,0,4.58-.608c2.813-1.539,3.065-14.083,3.085-15.508a.36.36,0,0,0-.343-.364l-10.142-.46a.338.338,0,0,0-.263.1.36.36,0,0,0-.112.258c-.032,3.651-.328,7.849-.751,8.408a63.985,63.985,0,0,1-14.368.022,3.213,3.213,0,0,1-2.753-2.631,5.53,5.53,0,0,0-2.6-3.754.952.952,0,0,0-.944-.162c-.38.214-.376.715-.37,1.408a4.552,4.552,0,0,1-.62,2.812c-.648.87-3.179.363-6.174-.335-1.822-.427-2.839.346-3.182,1.21-.463,1.169.114,3.051,2.476,4.421a15.836,15.836,0,0,0,7.046,2.272,9.732,9.732,0,0,1,.967.127c1.285.273,16.356,2.785,24.468,2.785m6.939-15.777c-.081,3.99-.694,13.438-2.7,14.538-3.361,1.837-25.936-1.692-28.554-2.25a10.317,10.317,0,0,0-1.043-.139,15.187,15.187,0,0,1-6.758-2.178c-1.994-1.156-2.522-2.642-2.168-3.534.3-.748,1.2-1.043,2.35-.775,3.474.81,6,1.288,6.913.065a5.2,5.2,0,0,0,.763-3.248,5.3,5.3,0,0,1,.024-.733,1.407,1.407,0,0,1,.193.1,4.766,4.766,0,0,1,2.27,3.276,3.93,3.93,0,0,0,3.374,3.212,64.627,64.627,0,0,0,14.633-.037c.3-.049,1.187-.2,1.288-8.729Z" transform="translate(-81.951 -861.881)"/>
  <path id="Path_2641" data-name="Path 2641" d="M266.756,648.735s2.626-1.616,2.6-2.56l.75-4.85a1.027,1.027,0,0,0-.679-.988l-3.105-1.066a.947.947,0,0,1-.624-.955l.242-3.854-1.217-1.078a.238.238,0,0,1-.026-.329l1.922-2.343c.629-.885,1.26-3,1.774-2.858,0,0,10.955-1.266,11.489,4.258a3.355,3.355,0,0,1-.627,2.252l-.97,1.368a7.012,7.012,0,0,0-1.315,4.74c.036.35.491,2.6.8,4.09a3.581,3.581,0,0,0,1.323,2.121c.856.659,1.9,1.5,1.728,1.553a16.21,16.21,0,0,1-3.128,1.681,11.55,11.55,0,0,1-10.412-.865Z" transform="translate(-206.431 -619.066)" fill="#fff"/>
  <path id="Path_2642" data-name="Path 2642" d="M271.49,649.259a11.7,11.7,0,0,0,4.459-.877,16.441,16.441,0,0,0,3.2-1.724.407.407,0,0,0,.16-.246c.043-.246.067-.381-1.88-1.881a3.225,3.225,0,0,1-1.19-1.908c-.653-3.19-.776-3.909-.79-4.054a6.634,6.634,0,0,1,1.25-4.5l.97-1.368a3.709,3.709,0,0,0,.692-2.495,4.014,4.014,0,0,0-1.544-2.819c-3.051-2.466-9.56-1.848-10.288-1.769-.564-.081-.94.721-1.407,1.724a9.247,9.247,0,0,1-.676,1.29l-1.907,2.323a.6.6,0,0,0,.066.826l1.086.961-.231,3.679a1.311,1.311,0,0,0,.863,1.316l3.108,1.067a.665.665,0,0,1,.437.62l-.745,4.823a.406.406,0,0,0,0,.065c.012.441-1.247,1.516-2.429,2.244a.359.359,0,0,0,0,.613l.521.317a12.065,12.065,0,0,0,6.277,1.767m6.945-2.981a17.093,17.093,0,0,1-2.76,1.439,11.224,11.224,0,0,1-10.088-.839l-.031-.019c.869-.584,2.266-1.658,2.283-2.524l.745-4.822a.377.377,0,0,0,0-.049,1.384,1.384,0,0,0-.919-1.334l-3.108-1.067a.588.588,0,0,1-.382-.592l.242-3.854a.361.361,0,0,0-.121-.292l-1.13-1,1.848-2.252a9.512,9.512,0,0,0,.757-1.423,6.059,6.059,0,0,1,.72-1.3.334.334,0,0,0,.061,0c.068-.008,6.88-.761,9.81,1.608a3.278,3.278,0,0,1,1.28,2.329,2.993,2.993,0,0,1-.562,2.009l-.97,1.368a7.353,7.353,0,0,0-1.379,4.985c.029.281.3,1.669.8,4.125a3.94,3.94,0,0,0,1.456,2.334c.826.636,1.237.987,1.442,1.177" transform="translate(-204.553 -617.197)"/>
  <path id="Path_2643" data-name="Path 2643" d="M236.433,575.055c2.5-.128-.66,2.444,8.588-.214,3.683-1.059,1.791,3.262,2.747,2.99,3.531-1,3.41-.974,5.126-.506,1.137.31,1.862,2.436,1.635,4.019-.3,2.09-2.643,5.407-4.742,8.914-1.087,1.816-3.012,1.98-5.339-.722-.248-.288,1.018-1.982.357-2.713-1.718-1.9-2.481.969-3.868.084a20.743,20.743,0,0,1-3.289-2.685c-1.7-1.556-4.562.865-5.548-2.636-.514-1.826.914-6.356,4.331-6.532" transform="translate(-174.834 -574.674)"/>
  <path id="Path_2644" data-name="Path 2644" d="M293.29,662.371a4.577,4.577,0,0,0,4.09-2.394l.857-1.65A.36.36,0,1,0,297.6,658l-.857,1.65a3.939,3.939,0,0,1-4.532,1.865l-1.552-.465a.36.36,0,1,0-.206.689l1.562.467a4.93,4.93,0,0,0,1.277.169" transform="translate(-228.046 -644.227)"/>
  <path id="Path_2645" data-name="Path 2645" d="M291.442,590.275a.359.359,0,0,0,.355-.3c.027-.166.627-4.09-1.57-6.62a6.56,6.56,0,0,0-5.361-2.028.36.36,0,0,0,.007.719h.007a5.87,5.87,0,0,1,4.8,1.777c1.976,2.273,1.412,6,1.405,6.038a.36.36,0,0,0,.3.412.363.363,0,0,0,.057,0" transform="translate(-220.73 -580.236)" fill="#fff"/>
  <path id="Path_2646" data-name="Path 2646" d="M282.329,632.825a2.892,2.892,0,0,1,2.517-3.293c.177-.021.832-.036,1-.025,1.4.087,2.12,1.183,2.318,2.634.214,1.564-.43,3.026-1.94,3.3-.063.012-.51.045-.574.045a3.119,3.119,0,0,1-3.326-2.665" transform="translate(-216.688 -620.549)" fill="#fff"/>
  <path id="Path_2647" data-name="Path 2647" d="M283.786,634.01h.014c.077,0,.547-.034.639-.051,1.6-.294,2.493-1.784,2.231-3.707-.243-1.781-1.21-2.854-2.652-2.944-.2-.012-.878,0-1.069.027a3.205,3.205,0,0,0-2.178,1.228,3.277,3.277,0,0,0-.654,2.471,3.484,3.484,0,0,0,3.669,2.976m.03-5.987c.068,0,.123,0,.157,0,1.39.086,1.847,1.311,1.985,2.324.173,1.262-.27,2.648-1.649,2.9-.06.009-.449.038-.512.039h-.012a2.756,2.756,0,0,1-2.954-2.354,2.562,2.562,0,0,1,.51-1.932,2.491,2.491,0,0,1,1.693-.954c.118-.014.534-.027.783-.027m-3.342,2.963h0Z" transform="translate(-214.832 -618.71)"/>
  <path id="Path_2648" data-name="Path 2648" d="M271.639,632.813a2.9,2.9,0,0,1,2.586-3.246,3.017,3.017,0,0,1,3.267,2.668,2.9,2.9,0,0,1-2.586,3.247,3.017,3.017,0,0,1-3.267-2.668" transform="translate(-204.247 -620.591)" fill="#fff"/>
  <path id="Path_2649" data-name="Path 2649" d="M272.773,634.01a3.251,3.251,0,0,0,2.527-1.2,3.283,3.283,0,0,0,.7-2.456,3.379,3.379,0,0,0-3.66-2.985,3.214,3.214,0,0,0-2.2,1.189,3.281,3.281,0,0,0-.705,2.457,3.389,3.389,0,0,0,3.336,3m-.1-5.943a2.666,2.666,0,0,1,2.621,2.364,2.569,2.569,0,0,1-.55,1.923,2.5,2.5,0,0,1-1.714.925,2.659,2.659,0,0,1-2.875-2.351A2.571,2.571,0,0,1,270.7,629a2.5,2.5,0,0,1,1.714-.925q.127-.013.254-.013m-2.875,2.9h0Z" transform="translate(-202.403 -618.745)"/>
  <path id="Path_2650" data-name="Path 2650" d="M323.887,671.266a1.72,1.72,0,1,0,1.72-1.732,1.726,1.726,0,0,0-1.72,1.732" transform="translate(-262.597 -654.044)"/>
</svg>
