<svg id="Group_235" data-name="Group 235" xmlns="http://www.w3.org/2000/svg" xmlns:xlink="http://www.w3.org/1999/xlink" width="260.81" height="264" viewBox="0 0 260.81 264">
  <defs>
    <clipPath id="clip-path">
      <rect id="Rectangle_175" data-name="Rectangle 175" width="260.81" height="264" fill="none"/>
    </clipPath>
  </defs>
  <g id="Group_234" data-name="Group 234" clip-path="url(#clip-path)">
    <path id="Path_518" data-name="Path 518" d="M299.86,170.074c33.3,51.329,18.957,119.749-32.027,152.821s-119.305,18.272-152.6-33.057S96.275,170.089,147.259,137.017s119.305-18.272,152.6,33.057" transform="translate(-83.205 -102.112)" fill="#fff"/>
    <path id="Path_519" data-name="Path 519" d="M206.361,338.792A111.617,111.617,0,0,1,97.233,204.423a109.841,109.841,0,0,1,130.943-84.94,111.64,111.64,0,0,1,85.511,131.825,109.9,109.9,0,0,1-107.327,87.485m-1.8-221.2a108.424,108.424,0,0,0-59.21,17.606c-50.75,32.92-65.073,101.271-31.93,152.366a110.651,110.651,0,0,0,92.891,50.5,109.063,109.063,0,0,0,106.731-86.893A110.9,110.9,0,0,0,204.562,117.6" transform="translate(-81.119 -100.021)"/>
    <path id="Path_520" data-name="Path 520" d="M380.278,294.01a9.478,9.478,0,0,1-4.923-1.814c-1.824-1.209-3.807-4.393-5.725-7.472-1.556-2.5-3.026-4.858-4.13-5.664-2.019-1.473-2.79-.948-4.48.2-.245.167-.505.344-.787.527a4.169,4.169,0,0,1-4.242.314,1.364,1.364,0,0,1-.843-1.1c.129-6.5,10.844-11.822,16.6-14.68,6.7-3.329,11.669-2.7,13.981,1.784s-3.171,14.959-3.8,16.138c-.656,1.221-.068,3.1.5,4.925.5,1.612,1.023,3.278.741,4.627a2.586,2.586,0,0,1-1.554,1.977,3.507,3.507,0,0,1-1.334.24M363.393,277.5a4.308,4.308,0,0,1,2.5,1.026c1.208.882,2.711,3.294,4.3,5.848,1.793,2.878,3.824,6.141,5.53,7.271,2.2,1.459,4.364,2.039,5.644,1.514a1.932,1.932,0,0,0,1.16-1.5,9.687,9.687,0,0,0-.725-4.3c-.609-1.951-1.239-3.968-.452-5.432,2.238-4.164,5.557-12.12,3.8-15.524-2.151-4.167-6.682-4.685-13.1-1.5-5.632,2.8-16.114,8-16.235,14.1h0c0,.089.134.308.5.515a3.558,3.558,0,0,0,3.564-.291c.277-.18.534-.354.775-.518a5.063,5.063,0,0,1,2.743-1.216m-7.915,1.5h0Z" transform="translate(-303.77 -224.28)"/>
    <path id="Path_521" data-name="Path 521" d="M590.961,1112.605a6.459,6.459,0,0,1-1.007-.077c-3.08-.49-11.554-5.656-16.035-9-3.541-2.641-11.236-13.027-16.327-19.9-1.53-2.064-2.85-3.847-3.646-4.856-2.75-3.488-4.641-3.08-9.7-1.989-.81.175-1.727.373-2.727.57-7.3,1.439-9.254-.415-12.272-5.32-.273-.444-.684-.989-1.158-1.62-2.045-2.718-5.136-6.825-3.9-11.417,1.1-4.086-2.507-12.69-4.757-15.827a3.433,3.433,0,0,1-.084-3.779c1.42-2.425,4.392-5.639,10.49-7.177a9.612,9.612,0,0,1,5.885.42,10.729,10.729,0,0,0,4.769.675,21.189,21.189,0,0,0,4.351-1.159c3.048-1.041,6.2-2.116,7.315.98,1.393,3.866,7.96,4.579,15.971,1.732,4.717-1.676,9.495-.945,11.619,1.778,1.372,1.76,1.323,4.025-.135,6.215-3.676,5.521-2.551,7.072-.246,9.337a25.711,25.711,0,0,0,3,2.386c1.951,1.4,3.636,2.612,3.4,3.969-.336,1.944-3.277,5.47-4.648,6.874-1.3,1.333-1.974,4.3-.369,7.659,1.688,3.535,1.825,15.371,1.017,20.932-.724,4.981,2.205,6.942,8.041,10.847q.718.48,1.492,1c2.846,1.922,4.015,3.592,3.472,4.967-.467,1.184-2.174,1.775-3.812,1.775m-41.842-37.249c2.016,0,3.555.742,5.343,3.01.8,1.017,2.062,2.718,3.658,4.872,5.069,6.842,12.728,17.18,16.192,19.763,4.428,3.3,12.763,8.4,15.745,8.876,1.6.255,3.679-.213,4.1-1.289.4-1.019-.745-2.5-3.229-4.18q-.772-.521-1.489-1c-5.874-3.931-9.11-6.1-8.326-11.489.8-5.484.682-17.117-.959-20.553-1.75-3.666-1.014-6.862.492-8.4,1.638-1.675,4.191-4.908,4.47-6.526.165-.951-1.439-2.1-3.136-3.323a26.2,26.2,0,0,1-3.079-2.452c-2.717-2.67-3.586-4.544.16-10.171,1.31-1.968,1.368-3.9.164-5.446-1.6-2.047-5.682-3.41-10.879-1.563-8.507,3.023-15.263,2.168-16.811-2.129-.853-2.367-3.019-1.763-6.483-.58a21.648,21.648,0,0,1-4.493,1.19,11.276,11.276,0,0,1-5.038-.7,8.951,8.951,0,0,0-5.525-.41c-5.877,1.482-8.727,4.555-10.083,6.871a2.784,2.784,0,0,0,.051,3.063c2.374,3.31,6.023,12.043,4.858,16.381-1.15,4.282,1.825,8.235,3.794,10.85.484.644.9,1.2,1.193,1.671,2.909,4.727,4.66,6.385,11.584,5.019.993-.2,1.908-.393,2.715-.568a25.578,25.578,0,0,1,5.008-.785" transform="translate(-443.768 -881.927)"/>
    <path id="Path_522" data-name="Path 522" d="M790.625,262.954a3.291,3.291,0,0,1-.914-.14c-4.414-1.28-12.178-11.876-12.046-20.047.15-9.263-6-12.427-8.649-13.357-2.042-.717-6.305-6.9-9.522-11.961l-.182-.285c-.04-.061-.093-.163-.163-.3a5.424,5.424,0,0,0-3.807-3.212c-2.918-.52-6.842,1.455-11.66,5.87-4.18,3.83-8.093,5.378-11.626,4.6-3.931-.863-7.264-4.5-9.9-10.8a20.186,20.186,0,0,0-4.76-6.583,19.824,19.824,0,0,1-2.556-2.96c-2.094-3.229.538-8.74,3.116-12.8a31.058,31.058,0,0,0,3.091-6.792,23.057,23.057,0,0,1,2.575-5.618c1.753-2.55,3.833-1.5,5.844-.491a10.869,10.869,0,0,0,3.457,1.277c1.382.17,1.786-.476,2.4-1.454.839-1.339,1.882-3.006,5.816-3.061,4.662-.064,7.833-3.386,8.508-5.611a1.934,1.934,0,0,0-.459-2.225c-1.022-.7-2.081-.471-3.307-.2a6.557,6.557,0,0,1-5.677-.72c-2.473-1.619-1.606-4.21-.768-6.716.557-1.667,1.134-3.391.618-4.684s-2.025-2.427-4.135-3.1-4.443-.723-5.39-.108c-.587.381-.013,1.612.652,3.038,1.033,2.216,2.448,5.25.566,7.693-1.664,2.16-4.5,2.368-7.243,2.569-2.458.18-5,.367-6.657,1.958-1.862,1.787-2.137,5.52-2.428,9.473-.254,3.44-.516,7-1.862,9.6-.971,1.874-2.456,2.585-4.074,1.951-2.611-1.023-4.956-5.336-3.97-8.91,1.216-4.41-1.153-7.791-2.425-9.607-.167-.239-.315-.45-.434-.633a4.65,4.65,0,0,1-.572-3.711c.538-2.033,2.357-3.866,5.408-5.448,2.468-1.28,4.013-2.768,4.467-4.3a2.871,2.871,0,0,0-.1-2.1c-2.884-6.212-4.858-7.575-6.008-7.63a2.083,2.083,0,0,0-1.773,1.225,13.619,13.619,0,0,0,0,2.843c.169,3.572.4,8.463-1.749,9.3-1.481.578-3.709-.94-6.81-4.641-4.468-5.334-6.185-9.446-5.1-12.222a5.13,5.13,0,0,1,3.932-2.914c4.806-1.152,7.812-3.185,8.934-6.041,1.619-4.123-1.077-8.879-2.311-10.733a.329.329,0,0,1,.234-.509,111.186,111.186,0,0,1,89.458,29.282.331.331,0,0,1,.079.115c1.236,3.007,2.594,7.421,2.045,11.369-.46,3.31,1.157,5.181,2.583,6.831,1.051,1.216,2.043,2.364,1.814,3.835a11.5,11.5,0,0,0-.082,1.519c-.015,1.29-.031,2.624-.953,2.991-1.07.425-3.322-.339-11.935-9.234-11-11.357-17.282-8.386-19.473-6.581a.29.29,0,0,0-.1.319.275.275,0,0,0,.252.2c2.277.166,6.419.821,8.584,3.338a5.891,5.891,0,0,1,1.367,4.46c-.512,6.638,1.111,11.122,4.572,12.628,3.4,1.48,4.9,3.252,6.18,7.292a15.433,15.433,0,0,1,.079,5.587c-.382,4.05-.815,8.641,3.257,10.819,6.76,3.615,10.639,25.778,8.129,32.954a52.372,52.372,0,0,0-2.03,11.193c-.488,4.455-.95,8.663-2.515,11.226a2.109,2.109,0,0,1-1.882,1.088M754.41,212.916a5.976,5.976,0,0,1,1.047.09,6.1,6.1,0,0,1,4.276,3.558c.056.108.1.191.13.241l.185.29c4.4,6.928,7.751,11.19,9.184,11.693,2.785.978,9.247,4.3,9.09,13.989-.126,7.763,7.434,18.2,11.571,19.4a1.613,1.613,0,0,0,2.052-.659c1.489-2.438,1.943-6.575,2.423-10.954a52.8,52.8,0,0,1,2.063-11.338c1.192-3.41.938-10.459-.634-17.541-1.7-7.654-4.385-13.118-7.185-14.616-4.458-2.385-4-7.207-3.6-11.461a15.08,15.08,0,0,0-.052-5.327c-1.358-4.3-2.957-5.644-5.815-6.887-2.165-.942-5.688-3.92-4.965-13.282a5.257,5.257,0,0,0-1.21-3.98c-2.01-2.337-5.959-2.952-8.133-3.111a.927.927,0,0,1-.831-.654.95.95,0,0,1,.3-1.026c2.332-1.921,8.985-5.12,20.364,6.632,6.282,6.487,10.058,9.543,11.219,9.08.513-.2.527-1.364.539-2.387a11.942,11.942,0,0,1,.089-1.612c.182-1.17-.632-2.112-1.662-3.3-1.442-1.67-3.238-3.747-2.737-7.352.524-3.775-.777-8.032-1.975-10.962a110.011,110.011,0,0,0-88.352-29.123c1.372,2.182,3.7,6.787,2.087,10.892-1.206,3.071-4.372,5.239-9.409,6.444l-.033.006a4.563,4.563,0,0,0-3.426,2.509c-.676,1.743-.358,5.163,5,11.556,3.557,4.247,5.262,4.765,6.066,4.451,1.708-.667,1.472-5.669,1.331-8.658-.09-1.9-.123-2.836.093-3.207a2.667,2.667,0,0,1,2.372-1.551c1.937.092,4.145,2.778,6.562,7.986a3.515,3.515,0,0,1,.149,2.59c-.514,1.736-2.127,3.318-4.8,4.7-2.879,1.493-4.587,3.186-5.075,5.032a3.99,3.99,0,0,0,.487,3.185c.115.177.259.382.421.613,1.335,1.9,3.819,5.451,2.521,10.16-.885,3.21,1.262,7.216,3.576,8.122,1.305.512,2.429-.056,3.25-1.641,1.284-2.479,1.542-5.967,1.79-9.341.3-4.082.585-7.938,2.629-9.9,1.828-1.755,4.49-1.951,7.064-2.139,2.718-.2,5.285-.388,6.77-2.315,1.638-2.126.374-4.835-.641-7.013-.795-1.7-1.481-3.176-.414-3.868,1.133-.735,3.579-.721,5.948.033,2.3.731,3.957,2,4.547,3.482.6,1.517-.01,3.357-.606,5.136-.794,2.374-1.543,4.616.5,5.957a5.934,5.934,0,0,0,5.175.628c1.319-.29,2.564-.564,3.822.3a2.487,2.487,0,0,1,.716,2.958c-.872,2.875-4.61,6.016-9.129,6.078-3.575.049-4.474,1.485-5.267,2.752-.638,1.018-1.238,1.98-3.037,1.758a11.531,11.531,0,0,1-3.672-1.342c-2.077-1.045-3.578-1.8-5.006.276a22.557,22.557,0,0,0-2.5,5.464,32.036,32.036,0,0,1-3.156,6.925c-3.5,5.5-4.6,9.793-3.119,12.084a19.352,19.352,0,0,0,2.474,2.858,20.736,20.736,0,0,1,4.9,6.79c2.553,6.094,5.729,9.6,9.439,10.412,3.314.728,7.028-.767,11.041-4.444,4.44-4.068,8.192-6.122,11.173-6.122" transform="translate(-590.255 -103.425)"/>
    <path id="Path_523" data-name="Path 523" d="M159.252,528.734c-2.684,0-9.879-1.983-17.543-5.405-5.524-2.467-15.315-7.53-18.814-13.719-.468-.827-.92-1.62-1.357-2.385-5.1-8.927-8.172-14.315-8.353-27.586-.05-3.664-1.663-7.84-4.795-12.413a.33.33,0,0,1-.048-.263,120.166,120.166,0,0,1,6.3-19.044.329.329,0,0,1,.183-.177l.263-.1c3.769-1.473,10.784-4.215,15.86-10.955,3.4-4.51,5.242-7.365,6.463-9.253,1.633-2.526,2.183-3.378,3.815-4.115,2.986-1.35,6.576-.8,7.533,1.162,1.466,3-.7,6.409-6.424,10.125a11.1,11.1,0,0,0-5.1,10.015c.14,2.559,1.179,4.754,2.585,5.462s2.287.874,3.078.591c1.359-.486,2.642-2.417,4.733-7.125,3.837-8.64,9.379-6.852,10.451-6.405,1.545.643,1.92,3.336,2.317,6.186a36.9,36.9,0,0,0,.648,3.733,15.365,15.365,0,0,0,2.331,4.8,6.216,6.216,0,0,1,1.246,2.564c.081,1.1-1.053,2.65-2.624,4.794-.847,1.156-1.806,2.466-2.741,3.933-2.832,4.442-4.655,7.69-4.221,12.184.281,2.9-.955,5.533-1.949,7.646a7.905,7.905,0,0,0-1.123,3.425,10.567,10.567,0,0,0,1.334,2.979c1.248,2.25,2.663,4.8,1.619,6.764-1.356,2.551-6.56,3.524-9.272,2.909a3.442,3.442,0,0,0-3.232.844,2.6,2.6,0,0,0-.753,2.4c.583,2.546,2.864,5.008,6.782,7.319,5.482,3.234,9.336,6.53,11.454,9.8,2.412,3.718,3.219,6.269,2.469,7.8a3.088,3.088,0,0,1-2.765,1.5c-.106.009-.222.013-.347.013m-50.236-61.759c3.152,4.634,4.776,8.891,4.827,12.655.179,13.1,3.051,18.134,8.267,27.269.437.766.89,1.559,1.358,2.387,6.04,10.683,31.736,19.14,36.077,18.779a2.5,2.5,0,0,0,2.229-1.137c.631-1.286-.187-3.691-2.43-7.15-2.062-3.179-5.843-6.4-11.237-9.586-4.079-2.407-6.465-5.01-7.089-7.739a3.249,3.249,0,0,1,.929-3.015,4.1,4.1,0,0,1,3.843-1.021c2.8.634,7.443-.5,8.546-2.576.877-1.649-.446-4.033-1.613-6.136a10.6,10.6,0,0,1-1.412-3.218c-.124-1.01.481-2.3,1.181-3.785.959-2.04,2.153-4.579,1.889-7.3-.489-5.057,1.956-8.892,4.32-12.6.946-1.484,1.913-2.8,2.765-3.968,1.431-1.954,2.562-3.5,2.5-4.356a5.97,5.97,0,0,0-1.14-2.251,15.905,15.905,0,0,1-2.42-5,37.4,37.4,0,0,1-.661-3.8c-.354-2.542-.721-5.171-1.918-5.67-.973-.4-6.007-2.016-9.6,6.065-2.2,4.958-3.54,6.915-5.113,7.477a4.661,4.661,0,0,1-3.6-.622c-1.635-.823-2.792-3.184-2.946-6.014a11.746,11.746,0,0,1,5.4-10.6c5.4-3.506,7.487-6.629,6.191-9.284-.781-1.6-4.085-2.021-6.67-.852-1.455.658-1.937,1.4-3.534,3.873-1.226,1.9-3.079,4.763-6.49,9.292-5.189,6.89-12.317,9.676-16.146,11.172l-.134.052a119.537,119.537,0,0,0-6.176,18.67" transform="translate(-92.661 -361.441)"/>
    <path id="Path_524" data-name="Path 524" d="M1540.15,668.5a.329.329,0,0,1-.228-.091,38.659,38.659,0,0,1-4.992-6.643l-.417-.645c-2.449-3.775-.156-8.5,1.213-11.319,1.473-3.034,2.522-9.417.093-13.482-2.188-3.661-1.3-6.426-.515-8.866.175-.544.34-1.058.473-1.576.74-2.9-1.518-7.856-4.036-10.784-2.854-3.32-2.6-4.9-1.077-6.819.643-.809.369-2.015.126-3.078-.256-1.125-.521-2.289.532-2.68.361-.134,1.318-.489,5.491,4.157a.328.328,0,0,1,.065.11,111.011,111.011,0,0,1,3.593,61.46.329.329,0,0,1-.321.257m-8.6-65.367c-.464.172-.393.716-.119,1.917.261,1.148.587,2.577-.253,3.633-1.355,1.705-1.524,2.974,1.061,5.981,2.683,3.121,4.978,8.229,4.175,11.376-.137.538-.313,1.085-.484,1.615-.778,2.42-1.582,4.921.453,8.327,2.554,4.273,1.47,10.944-.066,14.107-1.309,2.7-3.5,7.21-1.253,10.674l.418.646a42.464,42.464,0,0,0,4.476,6.105,110.345,110.345,0,0,0-3.68-60.45c-3.652-4.056-4.579-3.986-4.729-3.931" transform="translate(-1308.271 -515.296)"/>
    <path id="Path_525" data-name="Path 525" d="M1193.5,450.936c0,6.626-10.56,22.549-13.09,26.269a.653.653,0,0,1-1.08,0c-1.812-2.664-7.739-11.582-10.96-18.865a20.671,20.671,0,0,1-2.13-7.4,13.63,13.63,0,1,1,27.259,0" transform="translate(-997.523 -374.042)" fill="#c80e2d"/>
    <path id="Path_526" data-name="Path 526" d="M1229.838,494.673a6.232,6.232,0,1,1-6.232-6.232,6.232,6.232,0,0,1,6.232,6.232" transform="translate(-1041.259 -417.78)" fill="#fff"/>
    <path id="Path_527" data-name="Path 527" d="M325.5,844.795c0,6.626-10.56,22.549-13.09,26.269a.653.653,0,0,1-1.08,0c-1.812-2.664-7.739-11.582-10.96-18.865a20.671,20.671,0,0,1-2.13-7.4,13.63,13.63,0,1,1,27.259,0" transform="translate(-255.094 -710.923)" fill="#c80e2d"/>
    <path id="Path_528" data-name="Path 528" d="M361.837,888.532a6.232,6.232,0,1,1-6.232-6.232,6.232,6.232,0,0,1,6.232,6.232" transform="translate(-298.83 -754.66)" fill="#fff"/>
    <path id="Path_529" data-name="Path 529" d="M1263.761,112.016l.034-.006-5.353.675c-2.489.314-8.119,2.632-7.874,4.571s6.273,2.784,8.762,2.47c0,0,5.157-.592,5.292-.609,1.225-.155,2.017-1.87,1.769-3.83-.246-1.941-1.419-3.394-2.631-3.272" transform="translate(-1069.646 -95.805)" fill="#fff"/>
    <path id="Path_530" data-name="Path 530" d="M1330.022,115.777c.248,1.96,1.411,3.427,2.6,3.277s1.947-1.861,1.7-3.821-1.411-3.427-2.6-3.277-1.947,1.861-1.7,3.821" transform="translate(-1137.572 -95.751)"/>
    <path id="Path_531" data-name="Path 531" d="M1256.3,142.941c-2.782,0-7.746-.8-8-2.814a1.761,1.761,0,0,1,.444-1.3.329.329,0,0,1,.405-.093,14.626,14.626,0,0,0,7.041,1.482l4.26-.537a.329.329,0,0,1,.348.206,2.524,2.524,0,0,0,1.615,1.72.329.329,0,0,1-.013.651l-4.97.627a9.35,9.35,0,0,1-1.13.058m-7.186-3.494a.949.949,0,0,0-.161.6c.2,1.59,5.882,2.5,8.4,2.185l3.914-.494a3.921,3.921,0,0,1-.977-1.373l-4.012.506a15.32,15.32,0,0,1-7.158-1.422" transform="translate(-1067.7 -118.635)"/>
    <path id="Path_532" data-name="Path 532" d="M1256.294,118.165c-2.78,0-7.745-.8-8-2.814-.162-1.283,1.59-2.464,3.089-3.229a17.757,17.757,0,0,1,5.071-1.71l5.131-.647c.054-.007.108-.014.161-.018l.017,0,.042-.007v0c1.4-.121,2.7,1.436,2.965,3.56.275,2.173-.627,4.017-2.054,4.2-.136.017-5.085.585-5.3.609a9.3,9.3,0,0,1-1.127.058m5.53-7.767-5.287.667a17.042,17.042,0,0,0-4.854,1.643c-1.8.918-2.821,1.875-2.735,2.56.2,1.59,5.883,2.5,8.395,2.185,1.786-.205,5.186-.6,5.292-.609,1.025-.13,1.7-1.715,1.484-3.462s-1.243-3.09-2.272-2.985h-.023" transform="translate(-1067.699 -93.858)"/>
    <path id="Path_533" data-name="Path 533" d="M1207.3,30.737,1189.683,2.275l-2.971.661s4.315,21.1,4.531,23.9a41.151,41.151,0,0,1-.6,7.591Z" transform="translate(-1015.034 -1.946)" fill="#fff"/>
    <path id="Path_534" data-name="Path 534" d="M1201.343,30.255a.329.329,0,0,1-.328-.354,41.076,41.076,0,0,0-.1-7.533c-.392-2.289-5.908-17.072-7.589-21.548a.329.329,0,0,1,.237-.437l1.688-.375a.328.328,0,0,1,.351.148l16.863,27.237a.329.329,0,0,1-.21.495l-10.84,2.36a.324.324,0,0,1-.07.008M1194.074.943c2.229,5.941,7.1,19.078,7.488,21.314a38.15,38.15,0,0,1,.139,7.254l9.958-2.168L1195.164.7Z" transform="translate(-1020.672 0.001)"/>
    <path id="Path_535" data-name="Path 535" d="M1188.7,32.809a.329.329,0,0,1-.324-.384,41.089,41.089,0,0,0,.6-7.51c-.212-2.744-4.483-23.648-4.526-23.859a.329.329,0,0,1,.251-.387l2.971-.661a.329.329,0,0,1,.351.148l17.622,28.462a.329.329,0,0,1-.208.494L1188.769,32.8a.33.33,0,0,1-.071.008m-3.545-31.568c.56,2.745,4.269,20.993,4.473,23.623a37.928,37.928,0,0,1-.526,7.19l15.735-3.483L1187.58.7Z" transform="translate(-1013.089 0)"/>
    <path id="Path_536" data-name="Path 536" d="M855.715,176.464q-2.891,0-5.773-.193l-21.694-1.452a.329.329,0,0,1-.3-.275l-.418-2.526a.329.329,0,0,1,.219-.365l2.922-.987-17.017-12.64a.329.329,0,0,1,.142-.589l5.938-.983a.332.332,0,0,1,.18.021l23.316,9.672,69-9.907c.237-.05,6.3-1.256,10.87,2.433.579.254,4.07,1.855,4.069,3.531,0,1.719-1.026,4.2-9.853,5.933-6.179,1.211-33.525,5.187-49.276,7.449a86.748,86.748,0,0,1-12.322.879m-27.163-2.284,21.434,1.435a86.108,86.108,0,0,0,17.958-.681c15.745-2.261,43.078-6.235,49.243-7.444,9.316-1.824,9.32-4.431,9.321-5.288,0-.975-2.278-2.323-3.714-2.944a.328.328,0,0,1-.077-.047c-4.331-3.528-10.316-2.336-10.377-2.324l-69.107,9.924a.328.328,0,0,1-.173-.022l-23.313-9.671-5.081.841,16.9,12.552a.329.329,0,0,1-.091.576l-3.252,1.1Z" transform="translate(-695.829 -133.442)" fill="#fff"/>
    <path id="Path_537" data-name="Path 537" d="M939.556,184.378l4.845-11.415,2.691-.522.6,10.163Z" transform="translate(-803.633 -147.495)" fill="#fff"/>
    <path id="Path_538" data-name="Path 538" d="M937.611,182.761a.329.329,0,0,1-.3-.458l4.845-11.415a.329.329,0,0,1,.24-.195l2.691-.522a.329.329,0,0,1,.391.3l.6,10.163a.329.329,0,0,1-.258.341l-8.134,1.773a.33.33,0,0,1-.07.008m5.08-11.454-4.528,10.668L945.4,180.4l-.559-9.507Z" transform="translate(-801.689 -145.549)"/>
    <path id="Path_539" data-name="Path 539" d="M1146.019,313.851l.035,0-5.388.269c-2.506.125-8.295,2.011-8.2,3.962s6.045,3.251,8.551,3.126c0,0,5.187-.2,5.323-.207,1.233-.062,2.152-1.712,2.053-3.685-.1-1.954-1.158-3.492-2.376-3.461" transform="translate(-968.636 -268.444)" fill="#fff"/>
    <path id="Path_540" data-name="Path 540" d="M1212.632,317.522c.1,1.973,1.147,3.524,2.342,3.464s2.082-1.708,1.983-3.681-1.147-3.524-2.342-3.464-2.082,1.708-1.983,3.681" transform="translate(-1037.198 -268.436)"/>
    <path id="Path_541" data-name="Path 541" d="M1138.781,338.549c-2.474,0-8.474-1.194-8.586-3.445a1.76,1.76,0,0,1,.541-1.263.329.329,0,0,1,.411-.062,14.624,14.624,0,0,0,6.909,2.01l4.289-.214a.331.331,0,0,1,.331.232,2.524,2.524,0,0,0,1.48,1.837.329.329,0,0,1-.062.648l-5,.25c-.1,0-.2.007-.309.007m-7.723-4.062a.95.95,0,0,0-.206.584c.08,1.6,5.674,2.94,8.206,2.813l3.941-.2a3.916,3.916,0,0,1-.87-1.443l-4.039.2a15.322,15.322,0,0,1-7.031-1.959" transform="translate(-966.692 -285.453)"/>
    <path id="Path_542" data-name="Path 542" d="M1138.778,319.6c-2.471,0-8.471-1.194-8.584-3.445-.065-1.292,1.772-2.337,3.324-2.986a17.765,17.765,0,0,1,5.185-1.321l5.166-.258c.054,0,.109-.005.161-.006l.017,0,.044,0v0c1.4-.025,2.579,1.636,2.686,3.774a5.16,5.16,0,0,1-.568,2.736,2.241,2.241,0,0,1-1.8,1.294c-.137.007-5.115.2-5.327.207-.1,0-.2.007-.308.007m5.281-7.36-5.323.265a17.043,17.043,0,0,0-4.964,1.271c-1.863.779-2.955,1.656-2.921,2.346.08,1.6,5.676,2.94,8.206,2.813,1.8-.069,5.217-.2,5.323-.207a1.617,1.617,0,0,0,1.255-.957,4.5,4.5,0,0,0,.486-2.383c-.089-1.762-1.008-3.167-2.04-3.149h-.023" transform="translate(-966.691 -266.504)"/>
    <path id="Path_543" data-name="Path 543" d="M845.08,168.065l69.14-9.5s5.621-1.167,10.05,1.936c.423.3,4.289,2.091,4.513,3.7.216,1.544-1.036,3.936-9.587,5.61-6.251,1.225-34.52,5.33-49.259,7.447a86.264,86.264,0,0,1-18.027.684l-21.694-1.452-.418-2.526,3.517-1.188-17.521-13.015,5.938-.983Z" transform="translate(-697.776 -135.442)" fill="#fff"/>
    <path id="Path_544" data-name="Path 544" d="M831.429,176.084a.329.329,0,0,1-.195-.064L813.654,163.1a.329.329,0,0,1,.141-.59l3.4-.563a.327.327,0,0,1,.2.028l25.419,12.113a.329.329,0,0,1-.1.624l-11.239,1.371-.04,0m-16.757-13.054,16.846,12.382,9.987-1.219-24.3-11.582Z" transform="translate(-695.83 -138.514)"/>
    <path id="Path_545" data-name="Path 545" d="M939.158,189.239q-2.891,0-5.773-.193l-21.694-1.452a.329.329,0,0,1-.3-.275l-.309-1.869a.329.329,0,0,1,.347-.382c3.44.233,35.241,1.955,92-9.14,3.231-.631,4.027-1.415,4.22-1.723a.41.41,0,0,0,.075-.322,5.541,5.541,0,0,0-2.094-2.305l-.049-.032a.329.329,0,0,1,.368-.546l.037.024c.078.048.246.14.438.244,1.967,1.072,4,2.346,4.186,3.663.251,1.8-1.253,4.3-9.85,5.979-6.176,1.211-33.524,5.187-49.276,7.449a86.748,86.748,0,0,1-12.322.879M912,186.955l21.434,1.435a86.106,86.106,0,0,0,17.958-.681c15.746-2.262,43.081-6.236,49.243-7.444,8.517-1.668,9.5-4,9.325-5.242-.092-.66-.991-1.415-1.936-2.045a2.667,2.667,0,0,1,.338.736,1.041,1.041,0,0,1-.153.84c-.518.829-2.127,1.527-4.652,2.02-55.035,10.759-86.671,9.481-91.754,9.177Z" transform="translate(-779.272 -146.217)"/>
    <path id="Path_546" data-name="Path 546" d="M1511.661,160.178a18.929,18.929,0,0,0-2.608-.7c1.046.838,1.528,1.674,1.177,2.175-.688.984-4.664,1.345-4.664,1.345l.829,2.046c3.527-.546,6.469-1.408,6.562-2.508a2.712,2.712,0,0,0-1.3-2.363" transform="translate(-1287.76 -136.411)"/>
    <path id="Path_547" data-name="Path 547" d="M855.715,176.471q-2.891,0-5.773-.193l-21.694-1.452a.329.329,0,0,1-.3-.275l-.418-2.526a.329.329,0,0,1,.219-.365l2.922-.987-17.017-12.64a.329.329,0,0,1,.142-.589l5.938-.983a.329.329,0,0,1,.175.019l23.267,9.254,69.054-9.488c.213-.045,5.79-1.156,10.284,1.993.058.041.247.144.465.262,1.967,1.072,4,2.346,4.186,3.663.251,1.8-1.253,4.3-9.849,5.979-6.179,1.211-33.525,5.187-49.276,7.449a86.752,86.752,0,0,1-12.322.879m-27.163-2.284,21.434,1.435a86.107,86.107,0,0,0,17.958-.681c15.745-2.261,43.078-6.235,49.243-7.444,8.517-1.668,9.5-4,9.324-5.242-.163-1.166-2.841-2.626-3.849-3.176-.264-.144-.438-.239-.527-.3-4.263-2.987-9.74-1.9-9.794-1.883l-69.162,9.5a.33.33,0,0,1-.167-.02l-23.262-9.253-5.083.841,16.9,12.552a.329.329,0,0,1-.091.576l-3.252,1.1Z" transform="translate(-695.829 -133.449)"/>
    <path id="Path_548" data-name="Path 548" d="M838.1,282.382l4.244.331,15.224-5.126-8.422-.138Z" transform="translate(-716.855 -237.311)" fill="#fff"/>
    <path id="Path_549" data-name="Path 549" d="M840.4,281.1h-.026l-4.243-.331a.329.329,0,0,1-.109-.628l11.045-4.933a.315.315,0,0,1,.139-.029l8.422.138a.329.329,0,0,1,.1.641L840.5,281.079a.33.33,0,0,1-.105.017m-2.927-.887,2.886.225,13.349-4.5-6.439-.105Z" transform="translate(-714.909 -235.365)"/>
    <path id="Path_550" data-name="Path 550" d="M968.248,255.829l-52.676,25.112-7.7.7s24.865-14.224,28.056-16.3c4.66-3.036,10.268-6.766,10.268-6.766Z" transform="translate(-776.531 -218.819)" fill="#fff"/>
    <path id="Path_551" data-name="Path 551" d="M935.616,279.515a.329.329,0,0,1-.153-.62l31.359-16.556.017-.008c3.05-1.394,11.142-5.368,11.942-7a.329.329,0,0,1,.254-.182l12.622-1.591a.329.329,0,0,1,.183.624L939.369,279.2a.328.328,0,0,1-.116.031l-3.611.287h-.026m31.5-16.589-29.938,15.806,1.958-.156,50.573-24.11-10.435,1.315c-1.439,2.2-11,6.616-12.158,7.145" transform="translate(-799.982 -216.874)"/>
    <path id="Path_552" data-name="Path 552" d="M906.449,280.126a.329.329,0,0,1-.172-.609c.162-.1,16.361-10.056,27.995-16.41a118.188,118.188,0,0,0,10.231-6.743.328.328,0,0,1,.154-.061l22.053-2.745a.329.329,0,0,1,.182.624l-52.676,25.112a.326.326,0,0,1-.107.03l-7.626.8-.035,0m38.374-23.181a117.067,117.067,0,0,1-10.236,6.739c-9.746,5.323-22.7,13.18-26.724,15.634l6.122-.643,50.79-24.213Z" transform="translate(-775.035 -216.873)"/>
    <path id="Path_553" data-name="Path 553" d="M18.764,341.271v-3.406l32.176-.828,1.265,2.737,28.6-1.641,2.219-3.289s32.512-6.623,41.133-3.054c7.733,3.2-6.479,10.874-8.126,13.341s-5.592,8.625-5.592,8.625L32.6,352.546a13.506,13.506,0,0,1-3.08-.417c-2.748-.705-7.713-2.537-9.84-6.86a9.02,9.02,0,0,1-.912-4" transform="translate(-16.049 -282.888)" fill="#fff"/>
    <path id="Path_554" data-name="Path 554" d="M108.492,352.105h-.005L30.645,350.9a13.843,13.843,0,0,1-3.157-.427c-2.818-.723-7.872-2.6-10.054-7.033a9.3,9.3,0,0,1-.946-4.144v-3.406a.329.329,0,0,1,.321-.329l32.177-.828a.33.33,0,0,1,.307.191l1.171,2.534,28.212-1.619L80.8,332.68a.33.33,0,0,1,.207-.138c1.332-.271,32.709-6.6,41.325-3.036,1.5.62,2.33,1.467,2.47,2.517.356,2.666-3.836,5.906-7.2,8.509a19.568,19.568,0,0,0-3.243,2.8c-1.627,2.436-5.55,8.559-5.589,8.62a.329.329,0,0,1-.277.152m-91.345-15.9v3.086a8.646,8.646,0,0,0,.878,3.853c2.066,4.2,6.918,5.991,9.627,6.686a13.177,13.177,0,0,0,3.005.407l77.656,1.207c.622-.971,4.012-6.253,5.5-8.476a18.9,18.9,0,0,1,3.388-2.957c3.064-2.368,7.261-5.611,6.955-7.9-.107-.8-.8-1.472-2.069-2-8.155-3.376-38.541,2.593-40.81,3.046l-2.143,3.177a.329.329,0,0,1-.254.144l-28.6,1.641a.333.333,0,0,1-.317-.191l-1.174-2.54Z" transform="translate(-14.104 -280.908)"/>
    <path id="Path_555" data-name="Path 555" d="M121.337,311.876h-2.826v-10.49l2.826.21Z" transform="translate(-101.366 -257.786)" fill="#fff"/>
    <path id="Path_556" data-name="Path 556" d="M119.391,310.258h-2.826a.329.329,0,0,1-.329-.329V299.44a.329.329,0,0,1,.353-.328l2.826.21a.329.329,0,0,1,.3.328v10.28a.329.329,0,0,1-.329.329m-2.5-.658h2.168v-9.645l-2.168-.161Z" transform="translate(-99.42 -255.839)"/>
    <path id="Path_557" data-name="Path 557" d="M104.9,303.153l1.962-.363v10.571H104.9Z" transform="translate(-89.728 -258.987)" fill="#fff"/>
    <path id="Path_558" data-name="Path 558" d="M104.92,311.746h-1.962a.329.329,0,0,1-.329-.329V301.208a.329.329,0,0,1,.269-.323l1.962-.363a.329.329,0,0,1,.389.324v10.571a.329.329,0,0,1-.329.329m-1.633-.658h1.3v-9.847l-1.3.241Z" transform="translate(-87.782 -257.042)"/>
    <path id="Path_559" data-name="Path 559" d="M144.18,348.785H131.359v-10.4l12.821.211Z" transform="translate(-112.356 -289.428)" fill="#fff"/>
    <path id="Path_560" data-name="Path 560" d="M142.234,347.167H129.413a.329.329,0,0,1-.329-.329V336.433a.329.329,0,0,1,.1-.235.31.31,0,0,1,.236-.094l12.821.211a.329.329,0,0,1,.324.329v10.194a.329.329,0,0,1-.329.329m-12.492-.658H141.9v-9.541l-12.163-.2Z" transform="translate(-110.41 -287.481)"/>
    <path id="Path_561" data-name="Path 561" d="M69.632,338.874l8.9-.886v10.617h-8.9Z" transform="translate(-59.558 -289.092)" fill="#fff"/>
    <path id="Path_562" data-name="Path 562" d="M76.587,346.989h-8.9a.329.329,0,0,1-.329-.329v-9.731a.329.329,0,0,1,.3-.328l8.9-.886a.329.329,0,0,1,.362.328V346.66a.329.329,0,0,1-.329.329m-8.572-.658h8.243v-9.925l-8.243.821Z" transform="translate(-57.613 -287.147)"/>
    <path id="Path_563" data-name="Path 563" d="M209.329,331.84l-10.28.66v-10.28l10.28-1Z" transform="translate(-170.253 -274.755)" fill="#fff"/>
    <path id="Path_564" data-name="Path 564" d="M197.1,330.884a.329.329,0,0,1-.329-.329v-10.28a.329.329,0,0,1,.3-.328l10.28-.995a.329.329,0,0,1,.361.328V329.9a.329.329,0,0,1-.308.328l-10.28.66H197.1m.329-10.31v9.63l9.622-.618v-9.944Zm9.951,9.321h0Z" transform="translate(-168.309 -272.81)"/>
    <path id="Path_565" data-name="Path 565" d="M210.827,341.707a.329.329,0,0,1-.329-.329v-7.416a.329.329,0,1,1,.658,0v7.416a.329.329,0,0,1-.329.329" transform="translate(-180.046 -285.367)"/>
    <path id="Path_566" data-name="Path 566" d="M224.826,340.363a.329.329,0,0,1-.329-.329v-7.416a.329.329,0,0,1,.658,0v7.416a.329.329,0,0,1-.329.329" transform="translate(-192.02 -284.218)"/>
    <path id="Path_567" data-name="Path 567" d="M238.827,339.019a.329.329,0,0,1-.329-.329v-7.416a.329.329,0,0,1,.658,0v7.416a.329.329,0,0,1-.329.329" transform="translate(-203.995 -283.068)"/>
    <path id="Path_568" data-name="Path 568" d="M252.825,337.675a.329.329,0,0,1-.329-.329V329.93a.329.329,0,0,1,.658,0v7.416a.329.329,0,0,1-.329.329" transform="translate(-215.968 -281.919)"/>
    <path id="Path_569" data-name="Path 569" d="M268.761,330.845V319.82l14.514.625v9.471Z" transform="translate(-229.88 -273.552)" fill="#fff"/>
    <path id="Path_570" data-name="Path 570" d="M266.815,329.229a.329.329,0,0,1-.329-.329V317.874a.329.329,0,0,1,.343-.329l14.515.625a.329.329,0,0,1,.315.329v9.471a.329.329,0,0,1-.308.328l-14.515.93h-.021m.329-11.011v10.331L281,327.662v-8.848Z" transform="translate(-227.934 -271.607)"/>
    <path id="Path_571" data-name="Path 571" d="M293.6,324.41l-10.28.66V314.79l10.28-1Z" transform="translate(-242.336 -268.399)" fill="#fff"/>
    <path id="Path_572" data-name="Path 572" d="M281.378,323.453a.329.329,0,0,1-.329-.329v-10.28a.329.329,0,0,1,.3-.328l10.28-1a.329.329,0,0,1,.361.328v10.615a.329.329,0,0,1-.308.328l-10.28.66h-.021m.329-10.31v9.63l9.622-.618v-9.944Zm9.951,9.321h0Z" transform="translate(-240.391 -266.454)"/>
    <path id="Path_573" data-name="Path 573" d="M295.909,334.948a.329.329,0,0,1-.329-.329V327.2a.329.329,0,0,1,.658,0v7.416a.329.329,0,0,1-.329.329" transform="translate(-252.819 -279.586)"/>
    <path id="Path_574" data-name="Path 574" d="M309.907,333.6a.329.329,0,0,1-.329-.329V325.86a.329.329,0,0,1,.658,0v7.416a.329.329,0,0,1-.329.329" transform="translate(-264.792 -278.437)"/>
    <path id="Path_575" data-name="Path 575" d="M323.906,332.261a.329.329,0,0,1-.329-.329v-7.416a.329.329,0,0,1,.658,0v7.416a.329.329,0,0,1-.329.329" transform="translate(-276.766 -277.288)"/>
    <path id="Path_576" data-name="Path 576" d="M337.906,330.916a.329.329,0,0,1-.329-.329v-7.416a.329.329,0,1,1,.658,0v7.416a.329.329,0,0,1-.329.329" transform="translate(-288.741 -276.137)"/>
    <path id="Path_577" data-name="Path 577" d="M353.035,323.415V312.39l14.514.625v9.471Z" transform="translate(-301.963 -267.197)" fill="#fff"/>
    <path id="Path_578" data-name="Path 578" d="M351.09,321.8a.329.329,0,0,1-.329-.329V310.445a.329.329,0,0,1,.343-.329l14.514.625a.329.329,0,0,1,.315.329v9.471a.329.329,0,0,1-.308.328l-14.514.93h-.021m.329-11.011V321.12l13.856-.887v-8.847Z" transform="translate(-300.017 -265.252)"/>
    <path id="Path_579" data-name="Path 579" d="M380.1,316.5l-10.679.686V306.508l10.679-1.034Z" transform="translate(-315.974 -261.282)" fill="#fff"/>
    <path id="Path_580" data-name="Path 580" d="M367.47,315.572a.329.329,0,0,1-.329-.329V304.563a.329.329,0,0,1,.3-.328l10.679-1.034a.329.329,0,0,1,.361.327v11.027a.329.329,0,0,1-.308.328l-10.679.686h-.021m.329-10.709v10.03l10.021-.644V303.892Zm10.35,9.695h0Z" transform="translate(-314.028 -259.338)"/>
    <path id="Path_581" data-name="Path 581" d="M383.381,329.041a.329.329,0,0,1-.329-.329V321.3a.329.329,0,0,1,.658,0v7.416a.329.329,0,0,1-.329.329" transform="translate(-327.637 -274.534)"/>
    <path id="Path_582" data-name="Path 582" d="M397.379,327.7a.329.329,0,0,1-.329-.329v-7.416a.329.329,0,0,1,.658,0v7.416a.329.329,0,0,1-.329.329" transform="translate(-339.61 -273.384)"/>
    <path id="Path_583" data-name="Path 583" d="M411.378,326.353a.329.329,0,0,1-.329-.329v-7.416a.329.329,0,0,1,.658,0v7.416a.329.329,0,0,1-.329.329" transform="translate(-351.584 -272.235)"/>
    <path id="Path_584" data-name="Path 584" d="M425.378,325.01a.329.329,0,0,1-.329-.329v-7.416a.329.329,0,0,1,.658,0v7.416a.329.329,0,0,1-.329.329" transform="translate(-363.559 -271.086)"/>
    <path id="Path_585" data-name="Path 585" d="M441.888,315.507V304.069l15.063.648v9.825Z" transform="translate(-377.961 -260.08)" fill="#fff"/>
    <path id="Path_586" data-name="Path 586" d="M439.942,313.89a.329.329,0,0,1-.329-.329V302.123a.329.329,0,0,1,.343-.329l15.063.648a.329.329,0,0,1,.315.329V312.6a.329.329,0,0,1-.308.328l-15.063.965h-.021m.329-11.424V313.21l14.4-.922v-9.2Z" transform="translate(-376.016 -258.134)"/>
    <path id="Path_587" data-name="Path 587" d="M471.236,308.347l-10.977.7V298.074l10.977-1.063Z" transform="translate(-393.674 -254.044)" fill="#fff"/>
    <path id="Path_588" data-name="Path 588" d="M458.313,307.436a.329.329,0,0,1-.329-.329V296.129a.329.329,0,0,1,.3-.328l10.977-1.063a.329.329,0,0,1,.361.328V306.4a.329.329,0,0,1-.308.328l-10.977.7h-.021m.329-11.008v10.328l10.319-.663V295.429ZM469.29,306.4h0Z" transform="translate(-391.729 -252.099)"/>
    <path id="Path_589" data-name="Path 589" d="M473.7,318.262a.329.329,0,0,1-.329-.329v-4.411a.329.329,0,0,1,.658,0v4.411a.329.329,0,0,1-.329.329" transform="translate(-404.887 -267.884)"/>
    <path id="Path_590" data-name="Path 590" d="M488.473,316.706a.329.329,0,0,1-.329-.329V312.1a.329.329,0,0,1,.658,0v4.273a.329.329,0,0,1-.329.329" transform="translate(-417.526 -266.671)"/>
    <path id="Path_591" data-name="Path 591" d="M503.25,315.132a.329.329,0,0,1-.329-.329v-4.119a.329.329,0,1,1,.658,0V314.8a.329.329,0,0,1-.329.329" transform="translate(-430.165 -265.457)"/>
    <path id="Path_592" data-name="Path 592" d="M518.026,313.509a.329.329,0,0,1-.329-.329v-3.914a.329.329,0,0,1,.658,0v3.914a.329.329,0,0,1-.329.329" transform="translate(-442.803 -264.244)"/>
    <path id="Path_593" data-name="Path 593" d="M534.793,307.352V295.606l15.473.666v10.089Z" transform="translate(-457.426 -252.842)" fill="#fff"/>
    <path id="Path_594" data-name="Path 594" d="M532.847,305.736a.329.329,0,0,1-.329-.329V293.66a.329.329,0,0,1,.1-.237.333.333,0,0,1,.242-.091l15.473.666a.329.329,0,0,1,.315.329v10.089a.329.329,0,0,1-.308.328l-15.473.991h-.021M533.176,294v11.052l14.815-.949v-9.465Z" transform="translate(-455.48 -250.896)"/>
    <path id="Path_595" data-name="Path 595" d="M623.379,312.782a.329.329,0,0,1-.329-.329v-1.768a.329.329,0,1,1,.658,0v1.768a.329.329,0,0,1-.329.329" transform="translate(-532.915 -265.457)"/>
    <path id="Path_596" data-name="Path 596" d="M608.518,312.263a.329.329,0,0,1-.329-.329v-2.092a.329.329,0,1,1,.658,0v2.092a.329.329,0,0,1-.329.329" transform="translate(-520.204 -264.737)"/>
    <path id="Path_597" data-name="Path 597" d="M593.656,312.641a.329.329,0,0,1-.329-.329v-2.471a.329.329,0,0,1,.658,0v2.471a.329.329,0,0,1-.329.329" transform="translate(-507.492 -264.736)"/>
    <path id="Path_598" data-name="Path 598" d="M578.8,312.446a.329.329,0,0,1-.329-.329v-2.851a.329.329,0,1,1,.658,0v2.851a.329.329,0,0,1-.329.329" transform="translate(-494.781 -264.244)"/>
    <path id="Path_599" data-name="Path 599" d="M563.935,312a.329.329,0,0,1-.329-.329v-3.246a.329.329,0,0,1,.658,0v3.246a.329.329,0,0,1-.329.329" transform="translate(-482.071 -263.523)"/>
    <path id="Path_600" data-name="Path 600" d="M549.073,311.065a.329.329,0,0,1-.329-.329V307a.329.329,0,1,1,.658,0v3.732a.329.329,0,0,1-.329.329" transform="translate(-469.359 -262.309)"/>
    <path id="Path_601" data-name="Path 601" d="M124.156,331.79c-8.622-3.569-41.133,3.054-41.133,3.054L80.8,338.133l-42.2,2.734-1.256-3.687-18.585.684v3.449a9.012,9.012,0,0,0,.336,2.468c.08.28,83.839-3.882,83.839-3.882s12.157-.709,13.911-.564c4.285.354,4.558,1.3,4.558,1.3,3.87-3.124,7.561-6.85,2.747-8.843" transform="translate(-16.049 -282.888)" fill="#fff"/>
    <path id="Path_602" data-name="Path 602" d="M17.7,342.141c-.8,0-.817-.072-.867-.248a9.345,9.345,0,0,1-.349-2.558v-3.449a.329.329,0,0,1,.317-.329l18.585-.684a.334.334,0,0,1,.323.223l1.175,3.448,41.786-2.708L80.8,332.68a.329.329,0,0,1,.207-.138c1.332-.271,32.709-6.6,41.325-3.036,1.487.616,2.317,1.454,2.467,2.492.315,2.184-2.418,4.719-5.133,6.911a.329.329,0,0,1-.512-.132c-.04-.058-.616-.79-4.281-1.092-1.709-.141-13.743.557-13.865.564-.212.011-21.182,1.052-41.893,2.046-12.164.584-21.859,1.037-28.817,1.348-4.132.184-7.331.32-9.51.4-1.593.06-2.53.1-3.087.1m-.294-.652h.033c4.038,0,55.918-2.524,83.533-3.9.495-.029,12.2-.708,13.954-.563,2.976.246,4.131.775,4.579,1.162,2.194-1.791,4.9-4.281,4.641-6.1-.114-.792-.81-1.458-2.067-1.978-8.155-3.376-38.541,2.593-40.81,3.046l-2.143,3.177a.329.329,0,0,1-.252.144l-42.2,2.735a.333.333,0,0,1-.333-.222l-1.177-3.455-18.023.663v3.132a8.755,8.755,0,0,0,.263,2.155m101.733-2.756.005.018-.005-.018" transform="translate(-14.104 -280.908)"/>
    <path id="Path_603" data-name="Path 603" d="M704.087,335.515a9.5,9.5,0,0,0-1.322-.425,34.306,34.306,0,0,0-5.6,7.3c-.129.223-.258.448-.385.675,4.285.354,4.557,1.3,4.558,1.3,3.87-3.124,7.561-6.85,2.747-8.843" transform="translate(-595.981 -286.613)" fill="#fff"/>
    <path id="Path_604" data-name="Path 604" d="M699.395,342.737a.329.329,0,0,1-.3-.205c-.04-.058-.615-.79-4.28-1.092a.329.329,0,0,1-.26-.489q.193-.342.388-.679a41.014,41.014,0,0,1,3.621-5.168c1.947-2.381,2.184-2.322,2.341-2.283a9.863,9.863,0,0,1,1.368.441c1.487.615,2.317,1.454,2.467,2.492.315,2.184-2.418,4.719-5.133,6.911a.329.329,0,0,1-.207.073m-.318-.244,0,.012,0-.012m-3.7-1.662c2.6.262,3.645.752,4.066,1.116,2.194-1.791,4.9-4.281,4.641-6.1-.114-.792-.81-1.458-2.067-1.978a8.924,8.924,0,0,0-1.134-.374,38.52,38.52,0,0,0-5.375,7.107l-.132.229" transform="translate(-594.036 -284.662)"/>
    <path id="Path_605" data-name="Path 605" d="M129.915,444.834l-91.342.731a17.539,17.539,0,0,0,7.887,4.158,13.521,13.521,0,0,0,3.08.417l77.841,1.21s2.253-3.517,4.065-6.3Z" transform="translate(-32.993 -380.481)" fill="#fff"/>
    <path id="Path_606" data-name="Path 606" d="M125.434,449.733h-.005l-77.841-1.21a13.85,13.85,0,0,1-3.157-.427,17.7,17.7,0,0,1-8.038-4.244.329.329,0,0,1,.231-.561l91.342-.731a.342.342,0,0,1,.048,0l1.531.215a.329.329,0,0,1,.23.505c-1.79,2.75-4.041,6.263-4.064,6.3a.329.329,0,0,1-.277.152m-87.98-5.791a18.122,18.122,0,0,0,7.14,3.517,13.192,13.192,0,0,0,3.005.407l77.656,1.207c.428-.668,2.167-3.378,3.686-5.715l-1-.14Z" transform="translate(-31.046 -378.535)"/>
    <path id="Path_607" data-name="Path 607" d="M671.985,352.049a.329.329,0,0,1-.3-.465,81.084,81.084,0,0,1,3.707-7.317,41.351,41.351,0,0,1,4.927-6.681.329.329,0,1,1,.483.447,40.614,40.614,0,0,0-4.842,6.564,80.422,80.422,0,0,0-3.676,7.257.329.329,0,0,1-.3.194" transform="translate(-574.49 -288.659)"/>
    <path id="Path_608" data-name="Path 608" d="M108.492,352.105h-.005L30.645,350.9a13.843,13.843,0,0,1-3.157-.427c-2.818-.723-7.872-2.6-10.054-7.033a9.3,9.3,0,0,1-.946-4.144v-3.406a.329.329,0,0,1,.315-.329l18.576-.773a.331.331,0,0,1,.326.224l1.185,3.535,41.784-2.708L80.8,332.68a.33.33,0,0,1,.207-.138c1.332-.271,32.709-6.6,41.325-3.036,1.5.62,2.33,1.467,2.47,2.517.356,2.666-3.836,5.906-7.2,8.509a19.568,19.568,0,0,0-3.243,2.8c-1.627,2.436-5.55,8.559-5.589,8.62a.329.329,0,0,1-.277.152M17.147,336.2v3.091a8.646,8.646,0,0,0,.878,3.853c2.066,4.2,6.918,5.991,9.627,6.686a13.183,13.183,0,0,0,3.005.407l77.656,1.207c.622-.971,4.012-6.253,5.5-8.476a18.9,18.9,0,0,1,3.388-2.957c3.064-2.368,7.261-5.611,6.955-7.9-.107-.8-.8-1.472-2.069-2-8.155-3.376-38.541,2.593-40.81,3.046l-2.143,3.177a.33.33,0,0,1-.252.144l-42.2,2.735a.33.33,0,0,1-.333-.224l-1.186-3.541Z" transform="translate(-14.104 -280.908)"/>
    <path id="Path_609" data-name="Path 609" d="M1264.323,1345.2a7.794,7.794,0,0,0-7.805,7.783,11.778,11.778,0,0,0,1.22,4.227,80.143,80.143,0,0,0,6.276,10.772.374.374,0,0,0,.619,0c1.449-2.124,7.5-11.216,7.5-15a7.794,7.794,0,0,0-7.8-7.783" transform="translate(-1074.741 -1150.598)"/>
    <path id="Path_610" data-name="Path 610" d="M1293.7,1378.682a3.415,3.415,0,1,1-3.415-3.415,3.415,3.415,0,0,1,3.415,3.415" transform="translate(-1100.698 -1176.311)" fill="#fff"/>
    <path id="Path_611" data-name="Path 611" d="M858.414,1082.35a7.794,7.794,0,0,0-7.805,7.783,11.774,11.774,0,0,0,1.22,4.227,80.165,80.165,0,0,0,6.276,10.772.374.374,0,0,0,.619,0c1.449-2.124,7.5-11.216,7.5-15a7.794,7.794,0,0,0-7.805-7.783" transform="translate(-727.554 -925.77)"/>
    <path id="Path_612" data-name="Path 612" d="M887.785,1115.827a3.415,3.415,0,1,1-3.415-3.415,3.415,3.415,0,0,1,3.415,3.415" transform="translate(-753.51 -951.483)" fill="#fff"/>
    <path id="Path_613" data-name="Path 613" d="M613.624,931.027l130.151-.373a4.412,4.412,0,0,1,4.44,4.771L739.1,1036.353a4.428,4.428,0,0,1-4.44,3.994l-160.319-.024a4.627,4.627,0,0,1-4.466-5l9.112-100.3a4.577,4.577,0,0,1,4.365-4.24Z" transform="translate(-487.422 -796.019)" fill="#c80e2d"/>
    <path id="Path_614" data-name="Path 614" d="M572.577,929.485l130.151-.376a4.433,4.433,0,0,1,4.44,4.809l-9.109,101.738a4.442,4.442,0,0,1-4.44,4.026l-160.319-.024a4.651,4.651,0,0,1-4.466-5.04l9.112-101.107a4.594,4.594,0,0,1,4.365-4.274Z" transform="translate(-452.314 -794.698)" fill="#fff"/>
    <path id="Path_615" data-name="Path 615" d="M564.846,969.3h-.028a.329.329,0,0,1-.3-.356l3.367-39.663a4.762,4.762,0,0,1,4.767-4.363h30.193a.329.329,0,0,1,0,.658H572.653a4.106,4.106,0,0,0-4.112,3.762L565.174,969a.329.329,0,0,1-.328.3" transform="translate(-482.85 -791.115)"/>
    <path id="Path_616" data-name="Path 616" d="M864.577,1692.2h0l-78.234-.512a.329.329,0,0,1-.327-.331.341.341,0,0,1,.331-.327l78.234.512a.329.329,0,0,1,0,.658" transform="translate(-672.304 -1446.393)"/>
    <path id="Path_617" data-name="Path 617" d="M827.515,925.475a.329.329,0,1,1,0-.658L902.2,924.8a.329.329,0,0,1,0,.658Z" transform="translate(-707.52 -791.012)"/>
    <path id="Path_618" data-name="Path 618" d="M1596.887,1035.648a.329.329,0,0,1,0-.658l3.667-.029a2.831,2.831,0,0,0,1.952-2.457l8.909-102.431a4.128,4.128,0,0,0-4.112-4.495h-20.251a.329.329,0,1,1,0-.658H1607.3a4.786,4.786,0,0,1,4.767,5.21l-8.909,102.431a3.487,3.487,0,0,1-2.458,3.043.329.329,0,0,1-.094.015l-3.716.03Z" transform="translate(-1357.174 -791.115)"/>
    <path id="Path_619" data-name="Path 619" d="M726.621,1065.767h-146.8a4.469,4.469,0,0,1-3.3-1.442,4.173,4.173,0,0,1-1.094-3.227l8.3-90.543a4.342,4.342,0,0,1,4.393-3.908h146.8a4.469,4.469,0,0,1,3.3,1.443,4.173,4.173,0,0,1,1.094,3.227l-8.3,90.543a4.341,4.341,0,0,1-4.393,3.908m-138.5-98.462a3.687,3.687,0,0,0-3.737,3.31l-8.3,90.543a3.524,3.524,0,0,0,.924,2.724,3.811,3.811,0,0,0,2.813,1.228h146.8a3.687,3.687,0,0,0,3.738-3.31l8.3-90.543a3.523,3.523,0,0,0-.924-2.724,3.811,3.811,0,0,0-2.813-1.228Z" transform="translate(-492.165 -826.805)"/>
    <path id="Path_620" data-name="Path 620" d="M784.01,977.834h-155a.329.329,0,0,1-.328-.359l.613-6.7a4.4,4.4,0,0,1,4.393-3.921h146.8a4.464,4.464,0,0,1,3.294,1.443,4.19,4.19,0,0,1,1.1,3.24l-.548,5.995a.329.329,0,0,1-.328.3m-154.637-.658H783.71l.521-5.7a3.54,3.54,0,0,0-.93-2.736,3.8,3.8,0,0,0-2.808-1.229H633.69a3.739,3.739,0,0,0-3.738,3.323Z" transform="translate(-537.734 -826.985)"/>
    <path id="Path_621" data-name="Path 621" d="M1560.588,994.145a2.015,2.015,0,1,1-2.015-2.015,2.015,2.015,0,0,1,2.015,2.015" transform="translate(-1331.376 -848.602)" fill="#fff"/>
    <path id="Path_622" data-name="Path 622" d="M1599.089,994.964a2.015,2.015,0,1,1-2.015-2.015,2.015,2.015,0,0,1,2.015,2.015" transform="translate(-1364.308 -849.302)" fill="#fff"/>
    <path id="Path_623" data-name="Path 623" d="M1636.77,994.963a2.015,2.015,0,1,1-2.015-2.015,2.015,2.015,0,0,1,2.015,2.015" transform="translate(-1396.537 -849.301)" fill="#fff"/>
    <path id="Path_624" data-name="Path 624" d="M850.022,1395.695a2.376,2.376,0,0,1-1.545-.77c-.83-.891-2.154-4.379-2.737-6.487-.453-1.639-.368-6.56-.312-9.816.017-.974.031-1.815.025-2.3-.019-1.559-.592-1.833-2.292-2.647-.285-.136-.6-.286-.937-.456a6.43,6.43,0,0,1-2.959-4.827,5.522,5.522,0,0,1,1.964-5.035c1.165-.97,2.068-4.294,2.115-5.725a1.51,1.51,0,0,1,.957-1.341,6.052,6.052,0,0,1,4.885.245,3.751,3.751,0,0,1,1.729,1.552,3.787,3.787,0,0,0,1.192,1.241,7.607,7.607,0,0,0,1.5.63c1.171.4,2.5.85,2.066,2.231s1.291,2.994,4.185,3.939c1.848.6,3.15,2,3.166,3.39a2.125,2.125,0,0,1-1.586,2.049c-2.292.807-2.2,1.46-2.054,2.543a9.775,9.775,0,0,0,.338,1.38c.276.935.515,1.743.048,2.185a7.586,7.586,0,0,1-3.041,1.061,2.419,2.419,0,0,0-1.674,2.068c-.316,1.514-2.949,5.11-4.5,6.656-1.254,1.249-.873,2.4-.038,4.916l.213.646c.441,1.347.373,2.2-.2,2.542a.986.986,0,0,1-.509.132m-5.465-38.8a.86.86,0,0,0-.554.756c-.05,1.54-.98,5.067-2.351,6.209a4.883,4.883,0,0,0-1.732,4.453,5.738,5.738,0,0,0,2.6,4.315c.336.168.644.316.926.451,1.759.842,2.642,1.265,2.665,3.232.006.495-.008,1.3-.026,2.319-.052,3.023-.14,8.082.288,9.63.613,2.216,1.9,5.482,2.584,6.214.38.407.993.666,1.238.521.19-.112.281-.643-.088-1.77l-.213-.644c-.867-2.613-1.344-4.052.2-5.589,1.585-1.579,4.057-5.059,4.321-6.324a3.027,3.027,0,0,1,2.221-2.584,7.131,7.131,0,0,0,2.686-.889c.174-.164-.058-.948-.227-1.52a10.211,10.211,0,0,1-.359-1.478c-.188-1.37-.116-2.337,2.488-3.253a1.486,1.486,0,0,0,1.146-1.42c-.011-.912-.864-2.169-2.712-2.772-3.31-1.08-5.162-2.993-4.609-4.761.219-.7-.307-.954-1.65-1.411a8.088,8.088,0,0,1-1.637-.693,4.441,4.441,0,0,1-1.388-1.429,3.122,3.122,0,0,0-1.449-1.321,5.413,5.413,0,0,0-4.367-.241m-.127-.3h0Z" transform="translate(-717.816 -1159.74)"/>
    <path id="Path_625" data-name="Path 625" d="M762,1131.686a1.386,1.386,0,0,1-.776-.283,14.041,14.041,0,0,1-2.626-3.631.593.593,0,0,1-.059-.068,3.13,3.13,0,0,0-1.732-1.185c-.2-.083-.427-.175-.685-.287-1.767-.761-6.973-5.659-7.212-13.89a3.489,3.489,0,0,1,1.791-3.274c.876-.516,1.053-1.136,1.112-2.623a2.188,2.188,0,0,0-.571-1.678,2.886,2.886,0,0,1-.43-.679,2.21,2.21,0,0,1-.1-.815,1.486,1.486,0,0,0-.281-1.132,2.039,2.039,0,0,0-1.534-.211c-3.272.4-5.017.047-5.659-1.156a.817.817,0,0,1-.036-.684c.356-.964,2.408-2.121,6.862-3.868,2.851-1.118,6.51,1.418,6.933,2.2a5.229,5.229,0,0,1,.3.758,2.534,2.534,0,0,0,.941,1.514c.3.161.852-.26,1.545-.794a13,13,0,0,1,2.662-1.689,2.542,2.542,0,0,1,1.982-.18,2.835,2.835,0,0,1,1.443,1.653,1.433,1.433,0,0,0,1.037.837,10.143,10.143,0,0,0,4.95-.27c1.7-.525,2.7-.919,3.356-1.18a2.752,2.752,0,0,1,1.872-.345c1,.244,1.981,1.2,1.806,2.1-.239,1.239-1.506,1.779-3.768,1.605a3.213,3.213,0,0,0-2.868,1.411,2.3,2.3,0,0,0-.5,1.964c.182.411.337.611.521.669.431.138,1.377-.373,2.334-.945a3.589,3.589,0,0,1,2.781-.611,2.227,2.227,0,0,1,1.35,1.1,5.593,5.593,0,0,1-.249,3.764c-.157.39-.009.713.247,1.208a2.257,2.257,0,0,1,.215,2.206c-.3.623-1.644,1.476-3.557,1.83a10.083,10.083,0,0,1-1.69.1c-1.272.008-2.587.016-3.049.815a4.971,4.971,0,0,1-2.03,1.753,2.553,2.553,0,0,0-.85.612,3.923,3.923,0,0,0-.218,1.007c-.131.916-.279,1.953-1.016,2.324-.937.471-2.524-.372-3.136-1.17a.8.8,0,0,0-.725-.347.612.612,0,0,0-.491.368,4.52,4.52,0,0,0,.275,3.211,12.52,12.52,0,0,1,.963,5.079c-.129,1.639-.461,2.532-1.045,2.81a.9.9,0,0,1-.393.089m-12.522-30.454a2.036,2.036,0,0,1,1.392.415,2.009,2.009,0,0,1,.5,1.624,1.938,1.938,0,0,0,.047.566,2.307,2.307,0,0,0,.341.525,2.834,2.834,0,0,1,.709,2.108c-.055,1.39-.19,2.43-1.435,3.164a2.83,2.83,0,0,0-1.467,2.689c.232,7.985,5.379,12.686,6.815,13.3.255.11.478.2.675.283a3.738,3.738,0,0,1,2.008,1.4.271.271,0,0,1,.078.09,13.969,13.969,0,0,0,2.454,3.462c.219.151.391.2.512.141.154-.073.529-.441.672-2.267a12.073,12.073,0,0,0-.924-4.8,5.114,5.114,0,0,1-.263-3.7,1.262,1.262,0,0,1,1.014-.763,1.451,1.451,0,0,1,1.33.6c.5.648,1.758,1.264,2.318.982.43-.216.558-1.11.66-1.829a3.962,3.962,0,0,1,.292-1.23,2.729,2.729,0,0,1,1.1-.869,4.377,4.377,0,0,0,1.785-1.51c.651-1.125,2.225-1.135,3.615-1.143a9.66,9.66,0,0,0,1.574-.088,5.026,5.026,0,0,0,3.083-1.465,1.631,1.631,0,0,0-.206-1.621,1.985,1.985,0,0,1-.273-1.757,5.117,5.117,0,0,0,.277-3.21,1.562,1.562,0,0,0-.946-.772,2.985,2.985,0,0,0-2.266.542c-1.361.813-2.223,1.214-2.871,1.007a1.675,1.675,0,0,1-.923-1.03,2.9,2.9,0,0,1,.563-2.611,3.818,3.818,0,0,1,3.456-1.687c1.873.143,2.907-.217,3.072-1.074.084-.438-.507-1.142-1.317-1.34-.4-.1-.6-.028-1.474.318-.67.264-1.682.664-3.4,1.2a10.8,10.8,0,0,1-5.272.287,2.091,2.091,0,0,1-1.513-1.221,2.26,2.26,0,0,0-1.078-1.3,1.926,1.926,0,0,0-1.474.166,12.446,12.446,0,0,0-2.53,1.61c-.88.677-1.575,1.212-2.254.854a3.051,3.051,0,0,1-1.257-1.882,4.783,4.783,0,0,0-.26-.66c-.318-.59-3.653-2.869-6.113-1.9-4.035,1.582-6.216,2.754-6.485,3.483a.161.161,0,0,0,0,.146c.488.915,2.076,1.173,5,.813a5.417,5.417,0,0,1,.659-.044m28.718,8.436h0Z" transform="translate(-635.636 -937.394)"/>
    <path id="Path_626" data-name="Path 626" d="M982.23,1087.307a1.456,1.456,0,0,1-.719-.135c-1.123-.682-.8-2.712-.548-4.344a5.919,5.919,0,0,0,.142-1.654c-.152-.41-1.072-.764-1.743-1.023a4.3,4.3,0,0,1-1.145-.553,1.963,1.963,0,0,1-.484-.767,1.713,1.713,0,0,1,.047-1.392,1.763,1.763,0,0,1,1.077-.918,2.71,2.71,0,0,1,1.266-.1,14.439,14.439,0,0,1,2.48.977,22.685,22.685,0,0,0,4.284,1.609,27.814,27.814,0,0,0,4.376.256,23.525,23.525,0,0,1,2.7.11c.493.071.788.276.876.608.139.521-.159,1.337-3.251,3.761-2.384,1.869-7.334,3.57-9.356,3.57m-3.182-10.156a1.09,1.09,0,0,0-.675.573,1.062,1.062,0,0,0-.029.863,1.342,1.342,0,0,0,.306.515,4.443,4.443,0,0,0,.949.435c.876.338,1.868.72,2.124,1.408a4.794,4.794,0,0,1-.109,1.985c-.214,1.361-.507,3.226.239,3.679.652.395,6.433-1.122,9.328-3.391,2.947-2.31,3.057-2.936,3.021-3.073-.006-.021-.079-.089-.335-.126a23.761,23.761,0,0,0-2.607-.1,28.233,28.233,0,0,1-4.492-.267,22.678,22.678,0,0,1-4.433-1.655,15.209,15.209,0,0,0-2.328-.93,2.066,2.066,0,0,0-.959.087" transform="translate(-836.181 -920.666)"/>
    <path id="Path_627" data-name="Path 627" d="M1013.565,1177.719a2.476,2.476,0,0,1-.969-.169c-2.3-.993-4.3-7.545-5.083-13.5a16.978,16.978,0,0,1-.128-1.722,3.712,3.712,0,0,0-.583-2.3c-.273-.4-1.272-.3-2.329-.193-1.607.164-3.606.368-5.157-.778-2.94-2.172-2.733-4.574-1.212-8.818,1.688-4.708,7.1-4.514,10.012-4.41,1.879.067,2.093.92,2.282,1.671a2.065,2.065,0,0,0,.937,1.474c1.587,1.011,5.585.282,6.166.169,1.154-.875,1.3-1.342,1.281-1.545-.03-.339-.583-.618-1.07-.864-.1-.051-.2-.1-.3-.152a5.15,5.15,0,0,0-1.852-.429,6.728,6.728,0,0,1-1.9-.4,4.773,4.773,0,0,1-1.722-1.552,3.849,3.849,0,0,0-.628-.69,4.268,4.268,0,0,0-.17.767c-.116.71-.235,1.444-.8,1.584a.673.673,0,0,1-.579-.1c-.46-.337-.516-1.257-.581-2.323-.008-.14-.017-.281-.027-.419-.012-.17-.05-.253-.081-.275-.132-.09-.646.069-1.06.2a8.565,8.565,0,0,1-1.677.389,4.608,4.608,0,0,0-2.244,1.156,4.124,4.124,0,0,1-1.777.978,1.393,1.393,0,0,1-1.413-.634,2.242,2.242,0,0,1,.051-2.329,1.246,1.246,0,0,1,1.744-.393c.332.128.46.161.52.091a2.846,2.846,0,0,0,.393-.729,5.584,5.584,0,0,1,1.431-2.108c.807-.749,1.262-.7,1.732-.563a.62.62,0,0,0,.635-.074,1.3,1.3,0,0,0,.543-.784,1.528,1.528,0,0,1,1.079-1.127,2.087,2.087,0,0,1,1.264.038,2.032,2.032,0,0,0,1.924-.351c.98-.6,1.005-.978.99-1.078-.028-.178-.263-.313-.47-.364-.158-.038-.266.023-.626.282a5.808,5.808,0,0,1-2.042,1,4.161,4.161,0,0,1-2.768.09c-.2-.054-.4-.11-.651-.164-.4-.083-.623-.258-.677-.52-.12-.583.6-1.123,2.906-2.742l.565-.4c2.762-1.949,4.265-1.938,6.411-1.688a3.737,3.737,0,0,1,2.011,1.079c1.062.9,2.265,1.91,5.638,1.372,4.126-.658,5.15-1.305,5.973-1.825a6.834,6.834,0,0,1,.809-.46c1.423-.661,7.009-.886,9.588-.211a3.5,3.5,0,0,1,2.289,1.342,3.517,3.517,0,0,0,1.468,1.136c1.784.843,5.714.365,8.584.016.453-.055.887-.108,1.292-.153,2.7-.3,4.639.049,5.916,1.078a5.426,5.426,0,0,0,2.569.325,5.572,5.572,0,0,1,2.557.321.961.961,0,0,1,.465.746c.1,1.076-1.395,2.582-2.042,3.18-.459.423-.389,1.259-.328,2,.056.669.1,1.247-.258,1.548a.886.886,0,0,1-.834.106c-1.172-.319-1.489-1.816-1.743-3.019a4.242,4.242,0,0,0-.352-1.195,2.9,2.9,0,0,0-.2.285,1.8,1.8,0,0,1-1.493,1.058,10.779,10.779,0,0,1-1.185-.083,4.025,4.025,0,0,0-2.192.142.441.441,0,0,0-.065.039,5.157,5.157,0,0,0,1.118.97,12.737,12.737,0,0,1,1.623,1.356c1.25,1.314.711,2.356.028,3.676-.125.241-.258.5-.391.776a2.758,2.758,0,0,0,.025,2.248c.128.375.229.671.07.923a.556.556,0,0,1-.434.246c-.614.069-1.315-.625-2.131-1.428a9.381,9.381,0,0,0-1.432-1.246c-.228-.138-.392-.15-.487-.033a1.384,1.384,0,0,0,.386,1.569c1.189,1.269,2.07,3.522,1.362,5.2-.5,1.181-1.9,1.021-3.13.88a3.764,3.764,0,0,0-1.907.055.348.348,0,0,0-.192.218c-.091.35.318,1.026.714,1.68a7.812,7.812,0,0,1,.931,1.895.973.973,0,0,1-.269,1.133c-.772.579-2.623-.2-3.4-.675a13.336,13.336,0,0,1-2.467-2.5,19.163,19.163,0,0,0-1.459-1.611c-.524-.473-.957-.192-2.063.733-.31.259-.661.553-1.045.828a4.731,4.731,0,0,0-1.259,2.671c-.25,1.009-.47,1.881-1.187,1.817-.937-.082-1.479-1.6-2.053-3.2-.152-.424-.309-.863-.466-1.25-.658-1.62-2.926-3.132-5.161-3.443a2.864,2.864,0,0,1-2.232-1.078,1.261,1.261,0,0,0-.811-.538,1.238,1.238,0,0,0-.369-.048,2.521,2.521,0,0,0,.529.878c.122.145.277.181.563.238a2.153,2.153,0,0,1,1.223.586,2.645,2.645,0,0,1,.283,2.44c-.213.714-.594,1.175-1.045,1.265a3.7,3.7,0,0,0-1.305.626c-.342.217-.768.486-1.353.794-1.523.8-2.446-.884-2.888-1.695-.079-.144-.148-.272-.21-.37a3.8,3.8,0,0,1-.389-1.441,2.642,2.642,0,0,0-.343-1.221c-.011-.011-.066-.064-.093-.056-.112.038-.47.444-.645,1.763-.181,1.364,2.36,3.514,3.34,3.8s2.181.642,2.184,2.128c0,.859-.9,1.363-2.048,2a12.241,12.241,0,0,0-2.477,1.67c-1.038.971-.769,1.732-.429,2.7a3.878,3.878,0,0,1,.324,1.694,8.27,8.27,0,0,1-1.785,3.872c-.344.5-.7,1.022-1.058,1.616a6.4,6.4,0,0,1-5.055,2.88m-7.761-18.647a1.72,1.72,0,0,1,1.543.579,4.322,4.322,0,0,1,.7,2.649,16.318,16.318,0,0,0,.123,1.66c.857,6.516,2.918,12.22,4.691,12.985,1.113.48,4-.464,5.2-2.446.368-.61.729-1.138,1.079-1.648a7.677,7.677,0,0,0,1.673-3.567,3.345,3.345,0,0,0-.29-1.409,2.734,2.734,0,0,1,.6-3.4,12.748,12.748,0,0,1,2.606-1.765c.918-.512,1.712-.954,1.711-1.425,0-.856-.506-1.143-1.712-1.5s-4.048-2.7-3.806-4.52c.1-.754.374-2.055,1.084-2.3a.72.72,0,0,1,.768.209,2.8,2.8,0,0,1,.533,1.6,3.439,3.439,0,0,0,.293,1.18c.069.108.146.249.232.407.555,1.017,1.126,1.891,2,1.428.561-.3.975-.557,1.307-.768a4.289,4.289,0,0,1,1.528-.716c.16-.032.39-.294.543-.808a2.107,2.107,0,0,0-.115-1.783,1.535,1.535,0,0,0-.891-.41,1.476,1.476,0,0,1-.936-.458c-.353-.417-.9-1.19-.6-1.675.262-.423.892-.269,1.1-.219a1.9,1.9,0,0,1,1.166.762c.278.342.54.664,1.812.841,2.487.346,4.93,2,5.68,3.846.162.4.322.845.476,1.276.411,1.149.974,2.722,1.491,2.768.161.01.383-.887.491-1.32a5.163,5.163,0,0,1,1.514-3.047c.364-.261.691-.535,1.006-.8.993-.831,1.931-1.616,2.926-.717a19.447,19.447,0,0,1,1.52,1.674,13.4,13.4,0,0,0,2.306,2.362c.989.6,2.332.958,2.662.711.1-.075.071-.279.029-.437a7.376,7.376,0,0,0-.859-1.724c-.509-.842-.949-1.568-.787-2.187a1,1,0,0,1,.5-.624,4,4,0,0,1,2.307-.136c1.294.148,2.163.194,2.449-.482.637-1.507-.339-3.534-1.236-4.492a1.968,1.968,0,0,1-.417-2.433.969.969,0,0,1,1.339-.115,9.751,9.751,0,0,1,1.552,1.339,5.924,5.924,0,0,0,1.506,1.235c-.024-.087-.063-.2-.094-.293a3.407,3.407,0,0,1,0-2.745c.136-.284.272-.548.4-.794.67-1.3,1.007-1.945.08-2.92a12.24,12.24,0,0,0-1.539-1.281c-.864-.643-1.434-1.067-1.389-1.573a.687.687,0,0,1,.437-.553,4.551,4.551,0,0,1,2.555-.207,10.65,10.65,0,0,0,1.1.079h.011c.427,0,.659-.313.939-.753.185-.291.36-.566.664-.612a.611.611,0,0,1,.5.163,3.025,3.025,0,0,1,.587,1.576c.218,1.028.488,2.307,1.273,2.521.183.05.24.023.24.022.1-.084.049-.671.022-.987a2.979,2.979,0,0,1,.538-2.534c1.145-1.057,1.882-2.116,1.833-2.635a.3.3,0,0,0-.159-.25,5.758,5.758,0,0,0-2.205-.221c-1.229,0-2.39.008-2.984-.47-1.117-.9-2.943-1.216-5.43-.937-.4.045-.834.1-1.286.152-3.115.379-6.99.85-8.945-.074a4.129,4.129,0,0,1-1.7-1.319,2.894,2.894,0,0,0-1.943-1.118c-2.527-.661-7.978-.371-9.144.171a6.263,6.263,0,0,0-.735.419c-.874.552-1.961,1.24-6.221,1.919-3.671.585-5.054-.581-6.166-1.518a3.148,3.148,0,0,0-1.663-.928c-2.043-.238-3.328-.282-5.956,1.572l-.566.4a15.523,15.523,0,0,0-2.61,2.041.94.94,0,0,0,.138.038c.274.057.5.119.692.174a3.57,3.57,0,0,0,2.419-.091,5.147,5.147,0,0,0,1.83-.9,1.348,1.348,0,0,1,1.168-.388,1.2,1.2,0,0,1,.963.9c.09.571-.346,1.156-1.295,1.741a2.659,2.659,0,0,1-2.44.426,1.457,1.457,0,0,0-.9-.044c-.444.136-.522.356-.652.72a1.929,1.929,0,0,1-.811,1.118,1.26,1.26,0,0,1-1.168.15c-.281-.08-.5-.144-1.1.414a4.945,4.945,0,0,0-1.275,1.887,3.39,3.39,0,0,1-.5.9c-.374.433-.883.237-1.256.093-.52-.2-.722-.238-.947.126a1.566,1.566,0,0,0-.059,1.622.74.74,0,0,0,.769.343,3.74,3.74,0,0,0,1.469-.848,5.176,5.176,0,0,1,2.579-1.289,7.934,7.934,0,0,0,1.548-.363c.688-.213,1.231-.382,1.626-.112a.947.947,0,0,1,.366.772c.01.14.019.282.027.424.037.6.105,1.725.316,1.833.171-.063.284-.759.333-1.056.109-.667.233-1.423.846-1.339.4.056.717.454,1.117.959a4.22,4.22,0,0,0,1.462,1.354,6.137,6.137,0,0,0,1.721.353,5.706,5.706,0,0,1,2.088.5c.092.049.187.1.284.146.641.323,1.367.69,1.429,1.394.055.625-.454,1.316-1.6,2.174a.328.328,0,0,1-.13.058c-.2.041-4.8.986-6.725-.244a2.7,2.7,0,0,1-1.221-1.869c-.176-.7-.282-1.125-1.645-1.173-2.764-.1-7.866-.281-9.391,3.974-1.614,4.5-1.393,6.311.983,8.067,1.347.995,3.206.805,4.7.653.5-.051.975-.1,1.4-.1m11.834-9.63h0Z" transform="translate(-852.78 -966.913)"/>
    <path id="Path_628" data-name="Path 628" d="M1257.869,1439.627l-.062,0c-1.036-.08-1.712-1.259-2.427-2.507-.665-1.159-1.352-2.358-2.247-2.5a43.859,43.859,0,0,0-8.717.123,1.673,1.673,0,0,1-2.089-1.178l0-.01c-.064-.311-1.519-7.634,2.37-8.7,1.03-.283,2.246-.5,3.534-.739,3.12-.567,6.656-1.21,7.53-2.874a5.1,5.1,0,0,1,4.385-3h.006a4.857,4.857,0,0,1,4.212,2.811,28.1,28.1,0,0,0,2.163,3.271c1.608,2.2,3.126,4.286,2.329,6.011-1.094,2.368-8.947,9.292-10.985,9.292m-8.1-5.829a25.96,25.96,0,0,1,3.462.174c1.208.187,1.975,1.525,2.717,2.819.6,1.045,1.219,2.125,1.907,2.178,1.521.12,9.307-6.544,10.4-8.91.635-1.374-.773-3.3-2.263-5.347a28.561,28.561,0,0,1-2.213-3.351,4.16,4.16,0,0,0-3.63-2.46h-.005a4.4,4.4,0,0,0-3.8,2.644c-1.023,1.948-4.567,2.593-7.994,3.216-1.273.231-2.476.45-3.477.726-3.254.9-1.955,7.664-1.9,7.93a1.026,1.026,0,0,0,1.323.682,40.18,40.18,0,0,1,5.481-.3" transform="translate(-1062.328 -1213.069)"/>
    <path id="Path_629" data-name="Path 629" d="M251.52,1630.162h-3.074c-1.256,0-2.275,3-2.275,6.679s1.018,6.681,2.275,6.681h3.074c1.256,0,2.275-3,2.275-6.68s-1.018-6.68-2.275-6.68" transform="translate(-210.558 -1394.332)" fill="#fff"/>
    <path id="Path_630" data-name="Path 630" d="M249.574,1641.905H246.5c-1.694,0-2.606-3.612-2.606-7.01s.913-7.008,2.6-7.008h3.074c1.691,0,2.6,3.611,2.6,7.009s-.913,7.009-2.6,7.009m-3.071-13.36c-.922,0-1.949,2.716-1.949,6.35s1.027,6.352,1.946,6.352h3.07c.922,0,1.949-2.716,1.949-6.351s-1.027-6.351-1.945-6.351Z" transform="translate(-208.612 -1392.386)"/>
    <path id="Path_631" data-name="Path 631" d="M84.411,1434.243v-44.772l-61.55,7.924v34.113Z" transform="translate(-19.553 -1188.46)" fill="#fff"/>
    <path id="Path_632" data-name="Path 632" d="M82.465,1432.626h-.015l-61.55-2.736a.329.329,0,0,1-.314-.329v-34.113a.329.329,0,0,1,.287-.326l61.55-7.923a.329.329,0,0,1,.371.326V1432.3a.329.329,0,0,1-.329.329m-61.221-3.379,60.892,2.706V1387.9l-60.892,7.839Z" transform="translate(-17.608 -1186.515)"/>
    <path id="Path_633" data-name="Path 633" d="M393.441,1619.365l1.922,1.8-.522,12.13a1.221,1.221,0,0,0,1.216,1.278h10.85V1619.4Z" transform="translate(-336.523 -1385.096)" fill="#fff"/>
    <path id="Path_634" data-name="Path 634" d="M404.961,1632.952h-10.85a1.528,1.528,0,0,1-1.113-.476,1.545,1.545,0,0,1-.431-1.145l.516-11.979-1.811-1.693a.329.329,0,0,1,.225-.57h0l13.465.037a.329.329,0,0,1,.328.329v15.168a.329.329,0,0,1-.329.329m-12.628-15.2,1.31,1.224a.33.33,0,0,1,.1.255l-.523,12.13a.892.892,0,0,0,.249.661.877.877,0,0,0,.638.273h10.521v-14.511Z" transform="translate(-334.578 -1383.15)"/>
    <rect id="Rectangle_174" data-name="Rectangle 174" width="35.888" height="46.277" transform="translate(54.761 188.388)" fill="#fff"/>
    <path id="Path_635" data-name="Path 635" d="M412.474,1346.882H376.586a.329.329,0,0,1-.329-.329v-46.277a.329.329,0,0,1,.329-.329h35.888a.329.329,0,0,1,.329.329v46.277a.329.329,0,0,1-.329.329m-35.559-.658h35.23v-45.619h-35.23Z" transform="translate(-321.825 -1111.888)"/>
    <path id="Path_636" data-name="Path 636" d="M412.473,1346.883h-5.737a.329.329,0,1,1,0-.658h5.408v-45.619h-35.23v45.948a.329.329,0,0,1-.658,0v-46.278a.329.329,0,0,1,.329-.329h35.888a.329.329,0,0,1,.329.329v46.278a.329.329,0,0,1-.329.329" transform="translate(-321.824 -1111.889)"/>
    <path id="Path_637" data-name="Path 637" d="M433.26,1649.673h-3.552c-1.451,0-2.628,3.459-2.628,7.714s1.177,7.716,2.628,7.716h3.552c1.451,0,2.628-3.46,2.628-7.715s-1.176-7.715-2.628-7.715" transform="translate(-365.296 -1411.02)"/>
    <path id="Path_638" data-name="Path 638" d="M432.336,1656.675c0,4.255-1.176,7.7-2.628,7.7s-2.628-3.449-2.628-7.7,1.176-7.7,2.628-7.7,2.628,3.449,2.628,7.7" transform="translate(-365.297 -1410.419)" fill="#fff"/>
    <path id="Path_639" data-name="Path 639" d="M427.762,1662.764c-1.921,0-2.957-4.139-2.957-8.033s1.036-8.033,2.957-8.033,2.957,4.139,2.957,8.033-1.036,8.033-2.957,8.033m0-15.409c-1.087,0-2.3,3.029-2.3,7.375s1.212,7.375,2.3,7.375,2.3-3.029,2.3-7.375-1.211-7.375-2.3-7.375" transform="translate(-363.35 -1408.474)"/>
    <path id="Path_640" data-name="Path 640" d="M392.29,1398.34l-.1,32.156,1.211,1.021a1.881,1.881,0,0,1,.665,1.519l-.5,11.583a.865.865,0,0,0,.86.906c.371,0,.716,0,.716-.014,0-7.234,1.359-13.164,3.116-13.164s3.183,5.864,3.183,13.1c0,.025,4.207.075,4.207.075v-47.043Z" transform="translate(-335.449 -1196.046)" fill="#fff"/>
    <path id="Path_641" data-name="Path 641" d="M392.7,1443.908h-.22a1.194,1.194,0,0,1-1.188-1.249l.5-11.583a1.561,1.561,0,0,0-.549-1.254l-1.211-1.021a.329.329,0,0,1-.117-.253l.1-32.156a.329.329,0,0,1,.332-.328l13.355.137a.329.329,0,0,1,.326.329v47.043a.329.329,0,0,1-.1.234.32.32,0,0,1-.235.095s-1.052-.012-2.1-.028c-2.428-.036-2.428-.036-2.428-.376,0-7.525-1.5-12.768-2.854-12.768-1.318,0-2.787,5.271-2.787,12.835a.33.33,0,0,1-.1.233c-.1.1-.11.11-.728.11m-2.128-15.51,1.094.922a2.224,2.224,0,0,1,.782,1.785l-.5,11.583a.536.536,0,0,0,.149.4.525.525,0,0,0,.382.164c.167,0,.293,0,.387,0,.037-6.6,1.218-13.177,3.444-13.177,2.244,0,3.472,6.7,3.511,13.112.656.017,2.283.041,3.55.056v-46.384l-12.7-.13Z" transform="translate(-333.504 -1194.101)"/>
    <path id="Path_642" data-name="Path 642" d="M444.582,1647.725h0s-1.052-.012-2.1-.028c-2.428-.036-2.428-.036-2.428-.376,0-5.808-.927-10.912-2.255-12.413a.329.329,0,1,1,.493-.436c1.423,1.608,2.387,6.621,2.42,12.535.715.019,2.584.045,3.883.06a.329.329,0,0,1,0,.658" transform="translate(-374.386 -1397.923)"/>
    <path id="Path_643" data-name="Path 643" d="M633.553,1647.071H630c-1.451,0-2.628,3.459-2.628,7.714s1.177,7.716,2.628,7.716h3.552c1.451,0,2.628-3.46,2.628-7.715s-1.176-7.715-2.628-7.715" transform="translate(-536.613 -1408.794)"/>
    <path id="Path_644" data-name="Path 644" d="M632.381,1654.135c0,4.289-1.186,7.766-2.649,7.766s-2.649-3.477-2.649-7.766,1.186-7.766,2.649-7.766,2.649,3.477,2.649,7.766" transform="translate(-536.365 -1408.194)" fill="#fff"/>
    <path id="Path_645" data-name="Path 645" d="M627.787,1660.285c-1.934,0-2.978-4.171-2.978-8.095s1.044-8.095,2.978-8.095,2.978,4.171,2.978,8.095-1.044,8.095-2.978,8.095m0-15.531c-1.1,0-2.32,3.054-2.32,7.437s1.223,7.437,2.32,7.437,2.32-3.054,2.32-7.437-1.223-7.437-2.32-7.437" transform="translate(-534.42 -1406.249)"/>
    <path id="Path_646" data-name="Path 646" d="M516.5,1398.675H486.824v47.132h32.193a1.745,1.745,0,0,0,1.739-1.751v-15.112a71.609,71.609,0,0,0-1.1-12.518Z" transform="translate(-416.397 -1196.333)" fill="#fff"/>
    <path id="Path_647" data-name="Path 647" d="M517.072,1444.19H484.879a.329.329,0,0,1-.329-.329v-47.132a.329.329,0,0,1,.329-.329h29.679a.329.329,0,0,1,.324.271l3.151,17.751A72.132,72.132,0,0,1,519.141,1427v15.112a2.076,2.076,0,0,1-2.068,2.08m-31.864-.658h31.864a1.417,1.417,0,0,0,1.41-1.422V1427a71.489,71.489,0,0,0-1.1-12.461l-3.1-17.479H485.208Z" transform="translate(-414.452 -1194.387)"/>
    <path id="Path_648" data-name="Path 648" d="M441.623,1476.581l1.561.269a.846.846,0,0,0,.987-.838v-9.764a1.2,1.2,0,0,0-1.2-1.206H440.8a1,1,0,0,0-1,1.007v8.36a2.2,2.2,0,0,0,1.82,2.172" transform="translate(-376.178 -1253.099)" fill="#fff"/>
    <path id="Path_649" data-name="Path 649" d="M441.382,1475.246a1.166,1.166,0,0,1-.2-.017l-1.561-.269a2.523,2.523,0,0,1-2.093-2.5v-8.36a1.334,1.334,0,0,1,1.329-1.336h2.17a1.533,1.533,0,0,1,1.527,1.535v9.765a1.177,1.177,0,0,1-1.173,1.179m-2.524-11.821a.675.675,0,0,0-.671.678v8.36a1.866,1.866,0,0,0,1.547,1.848l1.561.269a.511.511,0,0,0,.417-.114.522.522,0,0,0,.186-.4V1464.3a.874.874,0,0,0-.869-.877Z" transform="translate(-374.232 -1251.153)"/>
    <path id="Path_650" data-name="Path 650" d="M56.706,1348.5v-46.277l-54.432,6.568v39.758Z" transform="translate(-1.945 -1113.834)" fill="#fff"/>
    <path id="Path_651" data-name="Path 651" d="M432.769,1333.365H393.637l1.756-8.245a3.525,3.525,0,0,1,3.505-2.695H428.39a2.706,2.706,0,0,1,2.706,2.125Z" transform="translate(-336.691 -1131.114)" fill="#fff"/>
    <path id="Path_652" data-name="Path 652" d="M449.461,1324.551a2.706,2.706,0,0,0-2.706-2.125H417.263a3.721,3.721,0,0,0-2.155.681l12.793,10.259h23.233Z" transform="translate(-355.056 -1131.115)" fill="#fff"/>
    <path id="Path_653" data-name="Path 653" d="M433.977,1342.208a.327.327,0,0,1-.206-.072l-8.956-7.182a.329.329,0,1,1,.412-.513l8.956,7.182a.329.329,0,0,1-.206.586" transform="translate(-363.253 -1141.329)"/>
    <path id="Path_654" data-name="Path 654" d="M430.823,1331.749H391.691a.329.329,0,0,1-.322-.4l1.756-8.245a3.9,3.9,0,0,1,3.818-2.955h29.5a3.032,3.032,0,0,1,3.03,2.393l1.673,8.814a.329.329,0,0,1-.323.391m-38.725-.658h38.328l-1.6-8.424a2.374,2.374,0,0,0-2.383-1.858H396.952a3.245,3.245,0,0,0-3.183,2.434Z" transform="translate(-334.745 -1129.169)"/>
    <path id="Path_655" data-name="Path 655" d="M502.492,1458.77h23.116a2.253,2.253,0,0,1,2.215,1.872l1.966,11.272a1.774,1.774,0,0,1-1.739,2.084h-26.04a1.772,1.772,0,0,1-1.766-1.777v-11.188a2.256,2.256,0,0,1,2.249-2.263" transform="translate(-427.874 -1247.734)" fill="#fff"/>
    <path id="Path_656" data-name="Path 656" d="M526.1,1472.383h-26.04a2.1,2.1,0,0,1-2.095-2.106v-11.188a2.588,2.588,0,0,1,2.578-2.593h23.116a2.578,2.578,0,0,1,2.539,2.145l1.966,11.272a2.109,2.109,0,0,1-.464,1.724,2.086,2.086,0,0,1-1.6.747m-25.557-15.229a1.929,1.929,0,0,0-1.919,1.934v11.188a1.444,1.444,0,0,0,1.437,1.448H526.1a1.429,1.429,0,0,0,1.1-.512,1.452,1.452,0,0,0,.319-1.187l-1.966-11.272a1.92,1.92,0,0,0-1.89-1.6Z" transform="translate(-425.928 -1245.789)"/>
    <path id="Path_657" data-name="Path 657" d="M517.6,1520.464a7.171,7.171,0,0,0-5.119-2.164h-12.4v4.839a1.765,1.765,0,0,0,1.789,1.747h26.04a1.761,1.761,0,0,0,1.739-2.069l-.036-.189h-6.894a7.173,7.173,0,0,1-5.119-2.164" transform="translate(-427.739 -1298.652)" fill="#fff"/>
    <path id="Path_658" data-name="Path 658" d="M525.968,1523.269h-26.04a2.1,2.1,0,0,1-2.118-2.076v-4.839a.329.329,0,0,1,.329-.329h12.4a7.543,7.543,0,0,1,5.354,2.263,6.883,6.883,0,0,0,4.884,2.065h6.894a.329.329,0,0,1,.323.268l.035.189a2.09,2.09,0,0,1-2.062,2.459m-27.5-6.586v4.51a1.441,1.441,0,0,0,1.46,1.418h26.04a1.432,1.432,0,0,0,1.427-1.6h-6.617a7.545,7.545,0,0,1-5.354-2.263,6.882,6.882,0,0,0-4.884-2.065Z" transform="translate(-425.793 -1296.706)"/>
    <path id="Path_659" data-name="Path 659" d="M526.1,1472.383h-26.04a2.1,2.1,0,0,1-2.095-2.106v-11.188a2.588,2.588,0,0,1,2.578-2.593h23.116a2.578,2.578,0,0,1,2.539,2.145l1.966,11.272a2.109,2.109,0,0,1-.464,1.724,2.086,2.086,0,0,1-1.6.747m-25.557-15.229a1.929,1.929,0,0,0-1.919,1.934v11.188a1.444,1.444,0,0,0,1.437,1.448H526.1a1.429,1.429,0,0,0,1.1-.512,1.452,1.452,0,0,0,.319-1.187l-1.966-11.272a1.92,1.92,0,0,0-1.89-1.6Z" transform="translate(-425.928 -1245.789)"/>
    <path id="Path_660" data-name="Path 660" d="M301.284,1637.966H297.83c-1.411,0-2.555,3.388-2.555,7.526s1.144,7.528,2.555,7.528h3.454c1.411,0,2.555-3.389,2.555-7.527s-1.144-7.527-2.555-7.527" transform="translate(-252.558 -1401.007)"/>
    <path id="Path_661" data-name="Path 661" d="M300.386,1645.1c0,4.137-1.144,7.492-2.555,7.492s-2.555-3.354-2.555-7.492,1.144-7.492,2.555-7.492,2.555,3.354,2.555,7.492" transform="translate(-252.558 -1400.697)" fill="#fff"/>
    <path id="Path_662" data-name="Path 662" d="M295.885,1650.971c-1.874,0-2.885-4.03-2.885-7.821s1.011-7.821,2.885-7.821,2.884,4.03,2.884,7.821-1.011,7.821-2.884,7.821m0-14.984c-1.053,0-2.226,2.942-2.226,7.163s1.173,7.163,2.226,7.163,2.226-2.942,2.226-7.163-1.173-7.163-2.226-7.163" transform="translate(-250.613 -1398.751)"/>
    <path id="Path_663" data-name="Path 663" d="M45.541,1631.463H42.581c-1.21,0-2.191,2.8-2.191,6.3s.981,6.3,2.191,6.3h2.961c1.21,0,2.191-2.8,2.191-6.3s-.981-6.3-2.191-6.3" transform="translate(-34.547 -1395.444)"/>
    <path id="Path_664" data-name="Path 664" d="M44.772,1636.82c0,3.5-.981,6.339-2.191,6.339s-2.19-2.838-2.19-6.339.981-6.338,2.19-6.338,2.191,2.838,2.191,6.338" transform="translate(-34.548 -1394.605)" fill="#fff"/>
    <path id="Path_665" data-name="Path 665" d="M40.636,1641.542c-1.636,0-2.519-3.435-2.519-6.668s.883-6.667,2.519-6.667,2.52,3.435,2.52,6.667-.883,6.668-2.52,6.668m0-12.677c-.879,0-1.861,2.57-1.861,6.009s.983,6.009,1.861,6.009,1.862-2.57,1.862-6.009-.983-6.009-1.862-6.009" transform="translate(-32.603 -1392.659)"/>
    <path id="Path_666" data-name="Path 666" d="M84.308,1634.064H81.348c-1.21,0-2.191,2.8-2.191,6.3s.981,6.3,2.191,6.3h2.961c1.21,0,2.191-2.8,2.191-6.3s-.981-6.3-2.191-6.3" transform="translate(-67.706 -1397.669)"/>
    <path id="Path_667" data-name="Path 667" d="M83.538,1639.422c0,3.5-.981,6.339-2.191,6.339s-2.19-2.838-2.19-6.339.981-6.339,2.19-6.339,2.191,2.838,2.191,6.339" transform="translate(-67.706 -1396.83)" fill="#fff"/>
    <path id="Path_668" data-name="Path 668" d="M79.4,1644.144c-1.637,0-2.52-3.435-2.52-6.667s.883-6.667,2.52-6.667,2.52,3.435,2.52,6.667-.883,6.667-2.52,6.667m0-12.677c-.879,0-1.861,2.57-1.861,6.009s.983,6.01,1.861,6.01,1.861-2.57,1.861-6.01-.983-6.009-1.861-6.009" transform="translate(-65.76 -1394.885)"/>
    <path id="Path_669" data-name="Path 669" d="M123.591,1634.064h-3.074c-1.256,0-2.275,3-2.275,6.679s1.018,6.681,2.275,6.681h3.074c1.256,0,2.275-3,2.275-6.68s-1.018-6.68-2.275-6.68" transform="translate(-101.136 -1397.669)"/>
    <path id="Path_670" data-name="Path 670" d="M122.791,1640.066c0,3.683-1.018,6.669-2.275,6.669s-2.274-2.986-2.274-6.669,1.018-6.669,2.274-6.669,2.275,2.986,2.275,6.669" transform="translate(-101.136 -1397.099)" fill="#fff"/>
    <path id="Path_671" data-name="Path 671" d="M118.571,1645.118c-1.691,0-2.6-3.605-2.6-7s.912-7,2.6-7,2.6,3.605,2.6,7-.912,7-2.6,7m0-13.337c-.918,0-1.945,2.711-1.945,6.34s1.027,6.34,1.945,6.34,1.945-2.711,1.945-6.34-1.027-6.34-1.945-6.34" transform="translate(-99.191 -1395.154)"/>
    <path id="Path_672" data-name="Path 672" d="M513.7,1667.219h-4.176a1.3,1.3,0,0,1-1.3-1.309v-2.35h3.3a2.64,2.64,0,0,1,2.489,1.775l.336.961a.693.693,0,0,1-.65.924" transform="translate(-434.703 -1422.898)" fill="#fff"/>
    <path id="Path_673" data-name="Path 673" d="M511.757,1665.6h-4.176a1.636,1.636,0,0,1-1.63-1.638v-2.35a.329.329,0,0,1,.329-.329h3.3a2.973,2.973,0,0,1,2.8,2l.336.961a1.022,1.022,0,0,1-.961,1.361m-5.148-3.659v2.021a.977.977,0,0,0,.972.98h4.176a.354.354,0,0,0,.292-.152.363.363,0,0,0,.047-.334l-.336-.961a2.314,2.314,0,0,0-2.179-1.554Z" transform="translate(-432.757 -1420.952)"/>
    <path id="Path_674" data-name="Path 674" d="M662.13,1665.47h4.176a1.305,1.305,0,0,0,1.3-1.309v-2.35h-3.3a2.64,2.64,0,0,0-2.489,1.775l-.336.961a.693.693,0,0,0,.65.924" transform="translate(-565.752 -1421.402)" fill="#fff"/>
    <path id="Path_675" data-name="Path 675" d="M664.365,1663.853h-4.176a1.022,1.022,0,0,1-.961-1.361l.336-.961a2.973,2.973,0,0,1,2.8-2h3.3a.329.329,0,0,1,.329.329v2.35a1.636,1.636,0,0,1-1.63,1.638m-2-3.659a2.315,2.315,0,0,0-2.179,1.554l-.336.961a.363.363,0,0,0,.047.334.354.354,0,0,0,.292.152h4.176a.977.977,0,0,0,.972-.98v-2.021Z" transform="translate(-563.811 -1419.456)"/>
    <path id="Path_676" data-name="Path 676" d="M569.37,1692.34H558.382a1.572,1.572,0,0,1-1.366-.8l-.485-.853a.435.435,0,0,1,.375-.651h13.942a.435.435,0,0,1,.375.651l-.485.853a1.572,1.572,0,0,1-1.366.8" transform="translate(-475.97 -1445.546)" fill="#fff"/>
    <path id="Path_677" data-name="Path 677" d="M567.422,1690.724H556.434a1.906,1.906,0,0,1-1.652-.964l-.485-.854a.763.763,0,0,1,.661-1.142H568.9a.763.763,0,0,1,.661,1.142l-.485.854a1.905,1.905,0,0,1-1.652.964m-12.465-2.3a.1.1,0,0,0-.088.051.1.1,0,0,0,0,.107l.485.854a1.247,1.247,0,0,0,1.08.631h10.988a1.247,1.247,0,0,0,1.08-.631l.485-.854a.1.1,0,0,0,0-.107.1.1,0,0,0-.088-.051Z" transform="translate(-474.021 -1443.6)"/>
    <path id="Path_678" data-name="Path 678" d="M428.024,1485.33h-1.209a1.8,1.8,0,0,1-1.8-1.8v-5.58a1.383,1.383,0,0,1,1.382-1.382h1.615a.633.633,0,0,1,.633.633v7.5a.623.623,0,0,1-.623.623" transform="translate(-363.53 -1262.959)" fill="#fff"/>
    <path id="Path_679" data-name="Path 679" d="M426.078,1483.715h-1.209a2.13,2.13,0,0,1-2.128-2.128v-5.579a1.713,1.713,0,0,1,1.712-1.711h1.615a.963.963,0,0,1,.962.962v7.5a.953.953,0,0,1-.952.952m-1.625-8.76a1.054,1.054,0,0,0-1.053,1.053v5.579a1.471,1.471,0,0,0,1.47,1.47h1.209a.294.294,0,0,0,.294-.294v-7.5a.3.3,0,0,0-.3-.3Z" transform="translate(-361.584 -1261.014)"/>
    <path id="Path_680" data-name="Path 680" d="M728.129,1483.857h-.949a.4.4,0,0,1-.4-.4v-8.741a.3.3,0,0,1,.3-.3h1.558a.986.986,0,0,1,.986.986v6.955a1.5,1.5,0,0,1-1.5,1.5" transform="translate(-621.641 -1261.115)" fill="#fff"/>
    <path id="Path_681" data-name="Path 681" d="M726.184,1482.241h-.949a.727.727,0,0,1-.726-.726v-8.741a.635.635,0,0,1,.634-.634H726.7a1.316,1.316,0,0,1,1.315,1.315v6.955a1.834,1.834,0,0,1-1.832,1.832m-1.017-9.443v8.717a.068.068,0,0,0,.068.068h.949a1.175,1.175,0,0,0,1.173-1.174v-6.955a.658.658,0,0,0-.657-.657Z" transform="translate(-619.696 -1259.17)"/>
    <path id="Path_682" data-name="Path 682" d="M531.442,1594.972H502.328a.306.306,0,0,0-.3.307v1.909a1.167,1.167,0,0,0,1.164,1.171h.878a1.163,1.163,0,0,1,1.055.677l.91,1.968a4.833,4.833,0,0,0,4.383,2.812h13.822a4.833,4.833,0,0,0,4.383-2.813l.91-1.967a1.163,1.163,0,0,1,1.055-.677,1.167,1.167,0,0,0,1.164-1.171v-1.909a.306.306,0,0,0-.3-.307" transform="translate(-429.397 -1364.232)" fill="#fff"/>
    <path id="Path_683" data-name="Path 683" d="M522.29,1602.2H508.468a5.179,5.179,0,0,1-4.682-3l-.911-1.968a.837.837,0,0,0-.756-.486h-.878a1.5,1.5,0,0,1-1.492-1.5v-1.909a.636.636,0,0,1,.634-.636H529.5a.636.636,0,0,1,.634.636v1.909a1.5,1.5,0,0,1-1.493,1.5.837.837,0,0,0-.756.486l-.91,1.967a5.179,5.179,0,0,1-4.682,3m-21.907-8.844.024,1.887a.839.839,0,0,0,.834.842h.878a1.5,1.5,0,0,1,1.353.867l.911,1.968a4.52,4.52,0,0,0,4.085,2.621H522.29a4.52,4.52,0,0,0,4.084-2.622l.91-1.968a1.5,1.5,0,0,1,1.354-.868.839.839,0,0,0,.834-.842v-1.887Zm29.114,0h0Z" transform="translate(-427.452 -1362.287)"/>
    <path id="Path_684" data-name="Path 684" d="M.329,1346.933A.329.329,0,0,1,0,1346.6v-39.758a.329.329,0,0,1,.29-.327l54.432-6.568a.329.329,0,0,1,.368.327v46.182a.329.329,0,0,1-.328.329l-54.432.145Zm54.432-.474h0Zm-54.1-39.322v39.137l53.774-.143v-45.483Z" transform="translate(0 -1111.889)"/>
    <path id="Path_685" data-name="Path 685" d="M30,1402.854a.329.329,0,0,1-.329-.329v-32.779a.329.329,0,0,1,.658,0v32.779a.329.329,0,0,1-.329.329" transform="translate(-25.378 -1171.307)"/>
    <path id="Path_686" data-name="Path 686" d="M68.729,1399.174a.329.329,0,0,1-.329-.329v-33.4a.329.329,0,1,1,.658,0v33.4a.329.329,0,0,1-.329.329" transform="translate(-58.505 -1167.627)"/>
    <path id="Path_687" data-name="Path 687" d="M107.456,1395.582a.329.329,0,0,1-.329-.329v-34.009a.329.329,0,1,1,.658,0v34.009a.329.329,0,0,1-.329.329" transform="translate(-91.629 -1164.035)"/>
    <path id="Path_688" data-name="Path 688" d="M146.185,1391.179a.329.329,0,0,1-.329-.329V1356.1a.329.329,0,0,1,.658,0v34.754a.329.329,0,0,1-.329.329" transform="translate(-124.755 -1159.632)"/>
    <path id="Path_689" data-name="Path 689" d="M184.914,1387.869a.329.329,0,0,1-.329-.329v-35.314a.329.329,0,1,1,.658,0v35.314a.329.329,0,0,1-.329.329" transform="translate(-157.882 -1156.322)"/>
    <path id="Path_690" data-name="Path 690" d="M223.642,1382.656a.329.329,0,0,1-.329-.329v-36.2a.329.329,0,0,1,.658,0v36.2a.329.329,0,0,1-.329.329" transform="translate(-191.007 -1151.11)"/>
    <path id="Path_691" data-name="Path 691" d="M262.371,1379.552a.329.329,0,0,1-.329-.329V1342.5a.329.329,0,0,1,.658,0v36.721a.329.329,0,0,1-.329.329" transform="translate(-224.133 -1148.005)"/>
    <path id="Path_692" data-name="Path 692" d="M301.1,1375.189a.329.329,0,0,1-.329-.329V1337.4a.329.329,0,0,1,.658,0v37.458a.329.329,0,0,1-.329.329" transform="translate(-257.259 -1143.643)"/>
    <path id="Path_693" data-name="Path 693" d="M339.828,1371.619a.329.329,0,0,1-.329-.329v-38.062a.329.329,0,0,1,.658,0v38.063a.329.329,0,0,1-.329.329" transform="translate(-290.385 -1140.072)"/>
    <path id="Path_694" data-name="Path 694" d="M1595.794,1692.94l1.357,9.526h2.937l.163-9.369Z" transform="translate(-1364.935 -1448.027)" fill="#fff"/>
    <path id="Path_695" data-name="Path 695" d="M1598.142,1700.85H1595.2a.329.329,0,0,1-.326-.283l-1.357-9.526a.329.329,0,0,1,.337-.375l4.458.157a.329.329,0,0,1,.317.335l-.164,9.369a.329.329,0,0,1-.329.323m-2.651-.658h2.328l.152-8.722-3.741-.132Z" transform="translate(-1362.989 -1446.083)"/>
    <path id="Path_696" data-name="Path 696" d="M1596.475,1754.586a23.462,23.462,0,0,0,6.385-.213,1.5,1.5,0,0,0,1.194-1.885c-.672-2.391-2.121-6.918-3.945-8.979l-.4,1.163-.637-1.062a.533.533,0,0,0-.407-.257l-1.323-.124a.533.533,0,0,0-.574.438l-.177,1-.5-1.293-.942,9.569a1.5,1.5,0,0,0,1.327,1.638" transform="translate(-1364.376 -1491.041)" fill="#fff"/>
    <path id="Path_697" data-name="Path 697" d="M1596.928,1753.1a22.929,22.929,0,0,1-2.434-.127,1.831,1.831,0,0,1-1.619-2l.942-9.569a.329.329,0,0,1,.634-.087l.084.217a.868.868,0,0,1,.894-.573l1.323.124a.865.865,0,0,1,.659.415l.273.455.169-.493a.329.329,0,0,1,.558-.112c1.853,2.095,3.311,6.605,4.015,9.108a1.83,1.83,0,0,1-1.454,2.3,23.9,23.9,0,0,1-4.042.343m-2.592-10.257-.807,8.2a1.171,1.171,0,0,0,1.035,1.279,23.071,23.071,0,0,0,6.294-.211,1.178,1.178,0,0,0,.8-.531,1.155,1.155,0,0,0,.137-.94c-.64-2.277-1.913-6.247-3.509-8.4l-.2.6a.329.329,0,0,1-.594.063l-.637-1.062a.2.2,0,0,0-.156-.1l-1.323-.124a.205.205,0,0,0-.22.168l-.177,1a.329.329,0,0,1-.631.062Z" transform="translate(-1362.431 -1489.096)"/>
    <path id="Path_698" data-name="Path 698" d="M1604.273,1807.422a16.475,16.475,0,0,1-3.667-.4.329.329,0,0,1,.16-.638,15.46,15.46,0,0,0,6.705,0,.329.329,0,1,1,.167.636,13.332,13.332,0,0,1-3.365.405" transform="translate(-1368.838 -1545.048)"/>
    <path id="Path_699" data-name="Path 699" d="M1615.053,1784H1611.9a.329.329,0,0,1,0-.658h3.149a.329.329,0,0,1,0,.658" transform="translate(-1378.433 -1525.353)"/>
    <path id="Path_700" data-name="Path 700" d="M1388.72,1693.273l-1.222,11.1-4.67.978.284-13.018Z" transform="translate(-1182.779 -1447.511)" fill="#fff"/>
    <path id="Path_701" data-name="Path 701" d="M1380.882,1703.737a.329.329,0,0,1-.329-.336l.284-13.018a.329.329,0,0,1,.383-.318l5.607.938a.329.329,0,0,1,.273.36l-1.222,11.1a.329.329,0,0,1-.26.286l-4.67.978a.334.334,0,0,1-.068.007m.605-12.96L1381.22,1703l4.031-.844,1.162-10.556Z" transform="translate(-1180.832 -1445.565)"/>
    <path id="Path_702" data-name="Path 702" d="M1324.457,1769.335s.6-5.342-1.076-7.782l-3.736,1.33v-.8a.466.466,0,0,0-.417-.482l-2.083-.12a4.53,4.53,0,0,0-2.263.465c-2.5,1.227-8.24,4.39-8.058,7.422,0,0,4.522,1.122,17.633-.036" transform="translate(-1117.766 -1506.649)" fill="#fff"/>
    <path id="Path_703" data-name="Path 703" d="M1311.911,1768.247a33.55,33.55,0,0,1-7.111-.5.329.329,0,0,1-.249-.3c-.187-3.114,5.083-6.184,8.241-7.737a4.879,4.879,0,0,1,2.427-.5l2.084.12a.8.8,0,0,1,.728.811v.332l3.3-1.174a.329.329,0,0,1,.382.124c1.723,2.511,1.157,7.781,1.132,8a.329.329,0,0,1-.3.291c-4.5.4-7.987.529-10.63.529m-6.7-1.09c1.1.2,5.973.886,17-.07.088-1.06.316-5-.91-7.08l-3.489,1.242a.329.329,0,0,1-.439-.31v-.8a.143.143,0,0,0-.107-.154l-2.083-.12a4.221,4.221,0,0,0-2.1.432c-1.838.9-7.7,4.007-7.874,6.857m17.3.233h0Z" transform="translate(-1115.821 -1504.704)"/>
    <path id="Path_704" data-name="Path 704" d="M1324.7,1801.411a55.866,55.866,0,0,1-9.893-.859.329.329,0,0,1,.131-.645,55.249,55.249,0,0,0,15.291.54.329.329,0,0,1,.076.654,48.886,48.886,0,0,1-5.6.31" transform="translate(-1124.375 -1539.514)"/>
    <path id="Path_705" data-name="Path 705" d="M1352.112,1771.663a.329.329,0,0,1-.193-.6l3.6-2.587a.329.329,0,0,1,.384.534l-3.6,2.587a.328.328,0,0,1-.192.062" transform="translate(-1156.225 -1512.587)"/>
    <path id="Path_706" data-name="Path 706" d="M1381.125,1174.633s-6.7,42.588-5.274,73.239l7.449.193s7.989-43.226,11.975-50.958c0,0,10.828,39.409,11.246,50.627,0,0,4.819.484,6.739-.207,1.032-10.826,1.342-20.035,1.394-27.07.148-20.134-1.776-29.28-2.831-33.618-.969-3.984-2.008-7.222-2.767-9.412l-2.535-7.23Z" transform="translate(-1176.64 -1000.908)" fill="#fff"/>
    <path id="Path_707" data-name="Path 707" d="M1381.368,1246.449h-.009l-7.449-.193a.329.329,0,0,1-.32-.314c-1.412-30.334,5.21-72.879,5.277-73.306a.329.329,0,0,1,.269-.273l25.4-4.436a.33.33,0,0,1,.367.215l2.535,7.23c1.068,3.083,2,6.26,2.776,9.443,1.287,5.293,2.981,14.545,2.84,33.7-.066,8.954-.535,18.072-1.4,27.1a.329.329,0,0,1-.216.278c-1.968.708-6.684.245-6.884.225a.329.329,0,0,1-.3-.315c-.377-10.131-9.412-43.837-11-49.686-4.027,9.4-11.493,49.646-11.57,50.065a.329.329,0,0,1-.323.269m-7.135-.843,6.862.178c.749-4.033,8.115-43.323,11.955-50.773a.329.329,0,0,1,.61.064c.107.391,10.662,38.912,11.245,50.412a22.652,22.652,0,0,0,6.116-.151c.845-8.937,1.307-17.962,1.372-26.826.14-19.081-1.543-28.279-2.822-33.538-.769-3.163-1.7-6.319-2.758-9.381l-2.442-6.966-24.889,4.347c-.526,3.43-6.547,43.556-5.248,72.635" transform="translate(-1174.708 -998.963)"/>
    <path id="Path_708" data-name="Path 708" d="M1483.008,1318.71a.329.329,0,0,1-.318-.247l-1.1-4.239-2.646-.547a.329.329,0,1,1,.133-.645l2.847.588a.329.329,0,0,1,.252.24l1.148,4.438a.329.329,0,0,1-.236.4.333.333,0,0,1-.083.011" transform="translate(-1264.767 -1123.074)"/>
    <path id="Path_709" data-name="Path 709" d="M1299.388,933.863c4.358-.491,13.581-1.366,20.069-.827a9.625,9.625,0,0,1,5.415,2.235c4.607,3.891,14.591,13.643,14.722,25.182l-10.227-1.484s3.611,12.939,3.365,15.018-6.577,5.617-14.493,2.715-19.311-2.548-23,0l-.356-15.964h-15.558s5.145-16.743,15.127-24.826a9.534,9.534,0,0,1,4.937-2.05" transform="translate(-1094.248 -797.912)" fill="#c80e2d"/>
    <path id="Path_710" data-name="Path 710" d="M1278.652,1105.452s-1.218,5.567,4.317,7.238,10.79-8.4,10.79-8.4l-3.853-2.233Z" transform="translate(-1093.576 -942.624)" fill="#fff"/>
    <path id="Path_711" data-name="Path 711" d="M1282.348,1111.264a4.713,4.713,0,0,1-1.37-.2c-5.759-1.74-4.556-7.565-4.543-7.624a.329.329,0,0,1,.226-.245l11.253-3.4a.33.33,0,0,1,.26.03l3.853,2.233a.329.329,0,0,1,.127.437c-.2.387-4.64,8.769-9.807,8.769m-5.3-7.5a5.708,5.708,0,0,0,4.124,6.666,4.031,4.031,0,0,0,1.168.173c4.289,0,8.269-6.683,9.083-8.137l-3.452-2Z" transform="translate(-1091.68 -940.679)"/>
    <path id="Path_712" data-name="Path 712" d="M1325.288,1064.6h-27.2a1.5,1.5,0,0,1-1.456-1.139l-5.491-22.139a1.5,1.5,0,0,1,1.456-1.861h27.2a1.5,1.5,0,0,1,1.456,1.139l5.491,22.139a1.5,1.5,0,0,1-1.455,1.861" transform="translate(-1104.317 -889.085)" fill="#fff"/>
    <path id="Path_713" data-name="Path 713" d="M1323.341,1062.983h-27.2a1.825,1.825,0,0,1-1.775-1.389l-5.491-22.139a1.829,1.829,0,0,1,1.775-2.269h27.2a1.825,1.825,0,0,1,1.775,1.389l5.491,22.139a1.829,1.829,0,0,1-1.775,2.269m-32.691-25.139a1.171,1.171,0,0,0-1.136,1.453l5.491,22.139a1.168,1.168,0,0,0,1.136.889h27.2a1.171,1.171,0,0,0,1.136-1.453l-5.491-22.139a1.168,1.168,0,0,0-1.136-.889Z" transform="translate(-1102.371 -887.14)"/>
    <path id="Path_714" data-name="Path 714" d="M1303.755,1110.219l.8,2.215,6.54-3.114s3.6,3.114-5.121,7.1c-3.633,1.663-2.218-6.205-2.218-6.205" transform="translate(-1114.913 -948.838)" fill="#fff"/>
    <path id="Path_715" data-name="Path 715" d="M1303.079,1115.04a1.451,1.451,0,0,1-.914-.307c-1.609-1.248-.812-5.981-.715-6.517a.329.329,0,0,1,.633-.053l.676,1.873,6.212-2.958a.329.329,0,0,1,.357.048,2.7,2.7,0,0,1,.821,2.337c-.26,1.818-2.286,3.606-6.02,5.316a2.55,2.55,0,0,1-1.05.262m-1.16-5.392c-.164,1.648-.184,3.918.649,4.564.3.235.724.224,1.287-.033,4.371-2,5.48-3.714,5.641-4.8a2.031,2.031,0,0,0-.457-1.606l-6.325,3.012a.329.329,0,0,1-.451-.185Z" transform="translate(-1112.931 -946.893)"/>
    <path id="Path_716" data-name="Path 716" d="M1504.558,1021.222s12.226,6.864,14.749,9.019,5.257,3.791,1.7,8.5-18.713-14.162-18.713-14.162-2.912.482-3.928-3.484c0,0-4.916.176-5.095-1.367l6.934-1.24a2.748,2.748,0,0,1,2.451.785Z" transform="translate(-1277.246 -871.112)" fill="#fff"/>
    <path id="Path_717" data-name="Path 717" d="M1517.49,1037.882c-5.049,0-16-13.312-17.287-14.906-.7.027-3.061-.142-4.03-3.489-1.258.023-4.985-.045-5.172-1.665a.329.329,0,0,1,.269-.362l6.934-1.24a3.075,3.075,0,0,1,2.744.879l1.868,1.912c.909.511,12.29,6.922,14.76,9.033.194.166.389.328.583.49,2.28,1.9,4.637,3.864,1.168,8.462a2.18,2.18,0,0,1-1.794.886h-.043m-17.141-15.576a.331.331,0,0,1,.258.123c.119.148,11.939,14.794,16.879,14.795h.037a1.53,1.53,0,0,0,1.278-.624c3.091-4.1,1.257-5.625-1.064-7.56-.2-.163-.393-.327-.589-.495-2.469-2.11-14.574-8.914-14.7-8.982a.326.326,0,0,1-.074-.057l-1.9-1.946a2.417,2.417,0,0,0-2.157-.691l-6.514,1.165c.618.627,2.972.847,4.605.79a.323.323,0,0,1,.33.247c.925,3.608,3.45,3.257,3.557,3.24a.342.342,0,0,1,.051,0" transform="translate(-1275.3 -869.165)"/>
    <path id="Path_718" data-name="Path 718" d="M1414.859,817.03c-.222.383.235,1.126.24,1.125s-.219-2.176-1.431-2.726c-.7-.319-1.066.212-2.113.068a3.631,3.631,0,0,1-2.794-2.181c-.554-1.454.245-2.841.748-3.715a4.653,4.653,0,0,1,2.245-2.256c1.442-.545,2.045.292,3.7-.222,1.343-.418,1.244-1.065,2.44-1.4,1-.283,3.867-.121,4.51,1.4.408.969-.471,1.558-.033,2.993.263.861.677.967.979,1.632a4.869,4.869,0,0,1-1.976,5.52c-2.425,1.318-5.985-1.146-6.51-.239" transform="translate(-1204.799 -689.06)"/>
    <path id="Path_719" data-name="Path 719" d="M1432.317,876.134l-.564,4.63a2.164,2.164,0,0,1-1.6,1.832l-2.381.62,7.34,5.589,8.247-6.257-2.958-.661a2.163,2.163,0,0,1-1.658-1.728l-1.229-6.82Z" transform="translate(-1221.219 -746.997)" fill="#fff"/>
    <path id="Path_720" data-name="Path 720" d="M1433.163,887.188a.329.329,0,0,1-.2-.067l-7.34-5.589a.329.329,0,0,1,.116-.58l2.381-.62a1.824,1.824,0,0,0,1.359-1.553l.564-4.63a.33.33,0,0,1,.171-.25l5.195-2.794a.329.329,0,0,1,.48.231l1.229,6.82a1.831,1.831,0,0,0,1.406,1.465l2.958.661a.329.329,0,0,1,.127.583l-8.248,6.256a.329.329,0,0,1-.2.067m-6.6-5.77,6.6,5.028,7.483-5.677-2.266-.506a2.487,2.487,0,0,1-1.91-1.99l-1.149-6.374-4.645,2.5-.544,4.46a2.479,2.479,0,0,1-1.846,2.111Z" transform="translate(-1219.273 -745.05)"/>
    <path id="Path_721" data-name="Path 721" d="M1442.955,849.154s1.827-.689,1.141-2.2a1.034,1.034,0,0,0-1.8-.4s-1.038-3.72-3.22-2.253a15.388,15.388,0,0,1-4.248,2,26.522,26.522,0,0,0,2.148,6.235c.832,1.5,1.887,2.549,3.13,2.044,3.4-1.382,2.853-5.433,2.853-5.433" transform="translate(-1227.252 -721.871)" fill="#fff"/>
    <path id="Path_722" data-name="Path 722" d="M1437.535,853.091c-.8,0-1.786-.518-2.8-2.341a26.5,26.5,0,0,1-2.183-6.329.329.329,0,0,1,.24-.385,15.212,15.212,0,0,0,4.147-1.955,1.86,1.86,0,0,1,1.74-.3,3.884,3.884,0,0,1,1.832,2.292,1.344,1.344,0,0,1,.894-.178,1.487,1.487,0,0,1,1.04.967,1.7,1.7,0,0,1,.063,1.4,2.444,2.444,0,0,1-1.157,1.141c.054.937.019,4.278-3.076,5.535a1.976,1.976,0,0,1-.746.151m-4.268-8.506a25.312,25.312,0,0,0,2.048,5.846c.9,1.626,1.815,2.266,2.718,1.9,3.13-1.271,2.656-5.046,2.651-5.084a.329.329,0,0,1,.209-.352,1.982,1.982,0,0,0,1.013-.884,1.057,1.057,0,0,0-.055-.871c-.161-.353-.348-.552-.557-.591a.967.967,0,0,0-.716.294.33.33,0,0,1-.548-.145c-.149-.531-.723-1.98-1.575-2.293a1.227,1.227,0,0,0-1.144.225,16.1,16.1,0,0,1-4.044,1.957" transform="translate(-1225.307 -719.919)"/>
  </g>
</svg>
