<svg id="Group_242" data-name="Group 242" xmlns="http://www.w3.org/2000/svg" xmlns:xlink="http://www.w3.org/1999/xlink" width="275.333" height="280.686" viewBox="0 0 275.333 280.686">
  <defs>
    <clipPath id="clip-path">
      <rect id="Rectangle_177" data-name="Rectangle 177" width="275.333" height="280.686" fill="none"/>
    </clipPath>
  </defs>
  <g id="Group_241" data-name="Group 241" clip-path="url(#clip-path)">
    <path id="Path_807" data-name="Path 807" d="M537.456,68.129l-2.745-1.621a1.32,1.32,0,0,1-.652-1.26q.078-.805.089-1.607a1.32,1.32,0,0,1,.782-1.179l2.9-1.317a1.327,1.327,0,0,0,.753-1.485l-.53-2.48a1.343,1.343,0,0,0-1.3-1.057l-3.2-.044a1.343,1.343,0,0,1-1.2-.773q-.334-.723-.727-1.417a1.317,1.317,0,0,1,.077-1.417l1.849-2.584a1.323,1.323,0,0,0-.1-1.66l-1.71-1.886a1.353,1.353,0,0,0-1.656-.273l-2.784,1.543a1.35,1.35,0,0,1-1.429-.074q-.653-.459-1.349-.867a1.326,1.326,0,0,1-.65-1.267l.3-3.152a1.333,1.333,0,0,0-.922-1.391l-2.431-.787a1.348,1.348,0,0,0-1.571.584l-1.633,2.719a1.336,1.336,0,0,1-1.27.645q-.813-.079-1.621-.09a1.337,1.337,0,0,1-1.19-.776L512.2,40.28a1.349,1.349,0,0,0-1.5-.748l-2.5.523a1.333,1.333,0,0,0-1.065,1.284l-.041,3.168a1.32,1.32,0,0,1-.772,1.187q-.737.334-1.444.727a1.345,1.345,0,0,1-1.423-.082L500.849,44.5a1.353,1.353,0,0,0-1.675.095l-1.9,1.693A1.323,1.323,0,0,0,497,47.933l1.559,2.76a1.317,1.317,0,0,1-.073,1.416q-.462.647-.873,1.337a1.342,1.342,0,0,1-1.278.643l-3.181-.3a1.342,1.342,0,0,0-1.4.912l-.791,2.409a1.327,1.327,0,0,0,.591,1.557l2.745,1.621a1.321,1.321,0,0,1,.652,1.26q-.079.805-.089,1.607a1.321,1.321,0,0,1-.782,1.179l-2.9,1.317a1.327,1.327,0,0,0-.753,1.485l.53,2.48a1.342,1.342,0,0,0,1.3,1.057l3.2.044a1.337,1.337,0,0,1,1.2.766q.338.73.735,1.432a1.313,1.313,0,0,1-.082,1.41l-1.848,2.583a1.323,1.323,0,0,0,.1,1.661l1.71,1.886a1.353,1.353,0,0,0,1.656.273l2.784-1.543a1.35,1.35,0,0,1,1.429.074q.653.459,1.349.867a1.325,1.325,0,0,1,.65,1.267l-.3,3.152a1.333,1.333,0,0,0,.922,1.391l2.431.787a1.348,1.348,0,0,0,1.571-.584l1.633-2.719a1.337,1.337,0,0,1,1.27-.645q.813.078,1.621.09a1.337,1.337,0,0,1,1.19.776l1.332,2.874a1.348,1.348,0,0,0,1.5.748l2.5-.523a1.333,1.333,0,0,0,1.065-1.284l.041-3.169a1.325,1.325,0,0,1,.779-1.19q.729-.331,1.43-.72a1.35,1.35,0,0,1,1.43.078l2.609,1.835a1.353,1.353,0,0,0,1.675-.095l1.9-1.693a1.322,1.322,0,0,0,.274-1.641l-1.559-2.76a1.317,1.317,0,0,1,.073-1.416q.462-.647.873-1.337a1.342,1.342,0,0,1,1.278-.643l3.181.3a1.342,1.342,0,0,0,1.4-.912l.791-2.409a1.327,1.327,0,0,0-.591-1.557m-23.583,6.133a10.881,10.881,0,1,1,11.591-10.226,10.931,10.931,0,0,1-11.591,10.226" transform="translate(-415.178 -33.444)" fill="#fff"/>
    <path id="Path_808" data-name="Path 808" d="M516.149,85.767a1.674,1.674,0,0,1-1.523-.974l-1.332-2.874a1,1,0,0,0-.888-.581c-.546-.008-1.1-.039-1.649-.092a1,1,0,0,0-.948.482l-1.633,2.719a1.676,1.676,0,0,1-1.964.731l-2.431-.787a1.663,1.663,0,0,1-1.155-1.743l.3-3.152a.991.991,0,0,0-.485-.945c-.472-.277-.934-.574-1.373-.882a1.015,1.015,0,0,0-1.07-.055l-2.784,1.543a1.682,1.682,0,0,1-2.07-.341l-1.71-1.886a1.651,1.651,0,0,1-.122-2.084l1.848-2.583a.978.978,0,0,0,.063-1.047c-.266-.469-.518-.959-.748-1.456a1,1,0,0,0-.9-.57l-3.2-.044a1.672,1.672,0,0,1-1.623-1.324l-.53-2.48a1.655,1.655,0,0,1,.944-1.863l2.9-1.317a.986.986,0,0,0,.584-.876c.007-.541.038-1.091.091-1.635a.985.985,0,0,0-.488-.936l-2.745-1.621a1.656,1.656,0,0,1-.74-1.954l.791-2.409a1.675,1.675,0,0,1,1.755-1.143l3.181.3a1.008,1.008,0,0,0,.957-.48c.277-.464.576-.922.888-1.36a.985.985,0,0,0,.054-1.053l-1.56-2.76a1.652,1.652,0,0,1,.343-2.06l1.9-1.693a1.683,1.683,0,0,1,2.094-.119l2.609,1.835a1.007,1.007,0,0,0,1.065.063c.473-.263.967-.512,1.468-.739a.985.985,0,0,0,.574-.883l.041-3.168a1.662,1.662,0,0,1,1.334-1.611l2.5-.523a1.677,1.677,0,0,1,1.875.937l1.332,2.874a1,1,0,0,0,.888.581c.546.008,1.1.039,1.649.092a1,1,0,0,0,.948-.482l1.633-2.719a1.677,1.677,0,0,1,1.964-.732l2.432.787a1.662,1.662,0,0,1,1.155,1.743l-.3,3.152a.992.992,0,0,0,.485.945c.473.277.935.574,1.373.882a1.015,1.015,0,0,0,1.071.055l2.784-1.543a1.683,1.683,0,0,1,2.07.341l1.71,1.886a1.651,1.651,0,0,1,.122,2.084L530.111,50.8a.984.984,0,0,0-.058,1.054c.265.469.514.954.74,1.442a1.008,1.008,0,0,0,.9.577l3.2.044a1.672,1.672,0,0,1,1.623,1.324l.53,2.479a1.655,1.655,0,0,1-.944,1.863L533.2,60.9a.986.986,0,0,0-.584.876c-.007.541-.038,1.091-.091,1.635a.985.985,0,0,0,.488.936l2.745,1.621a1.657,1.657,0,0,1,.74,1.954l-.791,2.409a1.674,1.674,0,0,1-1.755,1.143l-3.181-.3a1.007,1.007,0,0,0-.957.48c-.28.469-.579.926-.888,1.36a.984.984,0,0,0-.054,1.053l1.56,2.76a1.652,1.652,0,0,1-.343,2.059l-1.9,1.693a1.683,1.683,0,0,1-2.094.119l-2.609-1.835a1.016,1.016,0,0,0-1.072-.059c-.475.263-.964.509-1.454.732a.992.992,0,0,0-.581.886l-.042,3.169A1.662,1.662,0,0,1,519,85.207l-2.5.523a1.724,1.724,0,0,1-.353.037m-5.485-5.2c.053,0,.105,0,.158.008.53.051,1.066.081,1.593.089a1.681,1.681,0,0,1,1.492.972l1.332,2.874a1,1,0,0,0,1.124.56l2.5-.523a.991.991,0,0,0,.8-.959l.042-3.168a1.67,1.67,0,0,1,.977-1.493c.474-.215.946-.453,1.4-.707a1.7,1.7,0,0,1,1.788.1l2.609,1.835a1.008,1.008,0,0,0,1.257-.071l1.9-1.693a.98.98,0,0,0,.2-1.222l-1.559-2.76a1.662,1.662,0,0,1,.093-1.778c.3-.418.587-.86.858-1.313a1.692,1.692,0,0,1,1.6-.807l3.181.3a1,1,0,0,0,1.05-.682l.791-2.409a.985.985,0,0,0-.442-1.161l-2.745-1.621a1.664,1.664,0,0,1-.816-1.583c.051-.525.081-1.056.087-1.578a1.665,1.665,0,0,1,.98-1.482l2.9-1.317a.984.984,0,0,0,.563-1.107l-.53-2.48a1,1,0,0,0-.972-.79l-3.2-.044a1.688,1.688,0,0,1-1.5-.969c-.218-.471-.459-.94-.715-1.393a1.662,1.662,0,0,1,.1-1.779l1.849-2.584a.979.979,0,0,0-.073-1.237l-1.71-1.886a1.008,1.008,0,0,0-1.241-.2L525.6,46.04a1.7,1.7,0,0,1-1.786-.093c-.423-.3-.869-.584-1.326-.852a1.67,1.67,0,0,1-.816-1.59l.3-3.152a.99.99,0,0,0-.689-1.038l-2.432-.787a1,1,0,0,0-1.177.437l-1.633,2.719a1.671,1.671,0,0,1-1.593.807c-.53-.051-1.066-.081-1.593-.089a1.68,1.68,0,0,1-1.492-.972l-1.332-2.874A1,1,0,0,0,508.9,38l-2.5.523a.991.991,0,0,0-.8.959l-.041,3.168a1.664,1.664,0,0,1-.971,1.49c-.484.22-.962.46-1.419.714a1.688,1.688,0,0,1-1.781-.1l-2.609-1.834a1.009,1.009,0,0,0-1.256.071l-1.9,1.693a.981.981,0,0,0-.2,1.223l1.559,2.76a1.663,1.663,0,0,1-.093,1.778c-.3.423-.591.865-.858,1.313a1.693,1.693,0,0,1-1.6.807l-3.181-.3a.991.991,0,0,0-1.05.682l-.791,2.409a.985.985,0,0,0,.442,1.161l2.745,1.621a1.663,1.663,0,0,1,.816,1.583c-.051.525-.081,1.056-.087,1.578a1.665,1.665,0,0,1-.98,1.482l-2.9,1.317a.984.984,0,0,0-.563,1.107l.53,2.48a1,1,0,0,0,.972.789l3.2.044a1.682,1.682,0,0,1,1.5.962c.222.48.465.954.722,1.407a1.656,1.656,0,0,1-.1,1.774l-1.848,2.583a.979.979,0,0,0,.073,1.237l1.71,1.886a1.007,1.007,0,0,0,1.241.2l2.784-1.543a1.7,1.7,0,0,1,1.786.093c.423.3.87.584,1.326.852a1.669,1.669,0,0,1,.816,1.59l-.3,3.152a.99.99,0,0,0,.69,1.038l2.431.787A1,1,0,0,0,507.6,84.1l1.633-2.719a1.682,1.682,0,0,1,1.435-.814m1.989-7.816c-.222,0-.444-.006-.668-.019a11.309,11.309,0,1,1,.668.019m-.629-.694a10.543,10.543,0,1,0-10.014-11.142,10.61,10.61,0,0,0,10.014,11.142" transform="translate(-413.308 -31.577)"/>
    <path id="Path_809" data-name="Path 809" d="M281.1,217.151,279.151,216a.937.937,0,0,1-.462-.894q.056-.571.063-1.14a.936.936,0,0,1,.555-.836l2.057-.935a.941.941,0,0,0,.534-1.054l-.376-1.759a.952.952,0,0,0-.92-.75l-2.269-.031a.952.952,0,0,1-.852-.549q-.237-.513-.516-1.006a.935.935,0,0,1,.055-1.005l1.312-1.833a.939.939,0,0,0-.069-1.178l-1.213-1.338a.96.96,0,0,0-1.175-.194l-1.975,1.094a.958.958,0,0,1-1.014-.052q-.463-.325-.957-.615a.941.941,0,0,1-.462-.9l.21-2.236a.946.946,0,0,0-.654-.987l-1.725-.558a.956.956,0,0,0-1.114.414l-1.158,1.929a.948.948,0,0,1-.9.458q-.577-.056-1.15-.064a.949.949,0,0,1-.844-.551l-.945-2.039a.957.957,0,0,0-1.064-.531l-1.774.371a.946.946,0,0,0-.756.911l-.029,2.248a.937.937,0,0,1-.548.842q-.523.237-1.024.516a.954.954,0,0,1-1.01-.058l-1.851-1.3a.959.959,0,0,0-1.189.067l-1.349,1.2a.939.939,0,0,0-.194,1.164l1.107,1.958a.935.935,0,0,1-.052,1q-.328.459-.62.948a.952.952,0,0,1-.907.456l-2.257-.211a.952.952,0,0,0-.995.647l-.562,1.709a.942.942,0,0,0,.419,1.1l1.948,1.15a.937.937,0,0,1,.462.894q-.056.571-.063,1.14a.937.937,0,0,1-.555.836l-2.057.934a.941.941,0,0,0-.534,1.054l.376,1.759a.953.953,0,0,0,.92.75l2.268.031a.949.949,0,0,1,.85.544q.24.518.521,1.016a.931.931,0,0,1-.058,1l-1.311,1.833a.938.938,0,0,0,.069,1.178l1.213,1.338a.96.96,0,0,0,1.175.194L255.731,225a.958.958,0,0,1,1.013.052q.463.326.958.615a.94.94,0,0,1,.461.9l-.21,2.236a.946.946,0,0,0,.654.987l1.725.558a.957.957,0,0,0,1.114-.414L262.6,228a.948.948,0,0,1,.9-.457q.577.056,1.15.064a.949.949,0,0,1,.844.551l.945,2.039a.957.957,0,0,0,1.064.531l1.775-.371a.945.945,0,0,0,.755-.911l.029-2.248a.94.94,0,0,1,.553-.844q.518-.235,1.014-.51a.958.958,0,0,1,1.014.055l1.851,1.3a.96.96,0,0,0,1.189-.067l1.349-1.2a.938.938,0,0,0,.194-1.164l-1.106-1.958a.935.935,0,0,1,.052-1q.328-.458.62-.948a.952.952,0,0,1,.907-.456l2.257.211a.953.953,0,0,0,.995-.647l.562-1.709a.942.942,0,0,0-.419-1.1M264.368,221.5a7.72,7.72,0,1,1,8.224-7.255,7.755,7.755,0,0,1-8.224,7.255" transform="translate(-209.717 -166.651)" fill="#fff"/>
    <path id="Path_810" data-name="Path 810" d="M265.44,229.217a1.285,1.285,0,0,1-1.17-.747l-.945-2.039a.612.612,0,0,0-.543-.355c-.387-.005-.784-.027-1.178-.065a.613.613,0,0,0-.579.295l-1.158,1.929a1.287,1.287,0,0,1-1.508.562l-1.725-.558a1.277,1.277,0,0,1-.887-1.34l.21-2.236a.6.6,0,0,0-.3-.576c-.337-.2-.667-.41-.981-.63a.621.621,0,0,0-.655-.033l-1.975,1.095a1.293,1.293,0,0,1-1.589-.262l-1.213-1.338a1.27,1.27,0,0,1-.093-1.6l1.311-1.833a.6.6,0,0,0,.039-.638c-.193-.34-.373-.69-.535-1.041a.611.611,0,0,0-.548-.347l-2.268-.032a1.283,1.283,0,0,1-1.246-1.017l-.376-1.759a1.272,1.272,0,0,1,.725-1.432l2.056-.935a.6.6,0,0,0,.357-.533c0-.383.027-.776.065-1.168a.6.6,0,0,0-.3-.57l-1.947-1.15a1.273,1.273,0,0,1-.568-1.5l.561-1.709a1.281,1.281,0,0,1,1.347-.878l2.256.21a.618.618,0,0,0,.586-.293c.2-.33.41-.656.635-.971a.6.6,0,0,0,.033-.642l-1.107-1.958a1.27,1.27,0,0,1,.264-1.583l1.349-1.2a1.29,1.29,0,0,1,1.608-.091l1.851,1.3a.618.618,0,0,0,.651.04c.339-.188.692-.366,1.049-.528a.6.6,0,0,0,.349-.539l.029-2.248a1.276,1.276,0,0,1,1.024-1.237l1.774-.371a1.288,1.288,0,0,1,1.44.719l.945,2.039a.611.611,0,0,0,.542.355c.393.006.789.028,1.178.066a.619.619,0,0,0,.579-.3l1.158-1.928a1.286,1.286,0,0,1,1.508-.562l1.725.558a1.276,1.276,0,0,1,.887,1.339l-.21,2.236a.605.605,0,0,0,.3.576c.335.2.665.408.981.63a.621.621,0,0,0,.656.034l1.975-1.095a1.292,1.292,0,0,1,1.588.262l1.213,1.338a1.269,1.269,0,0,1,.094,1.6l-1.312,1.833a.6.6,0,0,0-.036.642c.19.335.368.682.529,1.031a.616.616,0,0,0,.55.352l2.268.031a1.284,1.284,0,0,1,1.246,1.017l.376,1.759a1.272,1.272,0,0,1-.725,1.432l-2.056.934a.6.6,0,0,0-.357.533c0,.387-.027.78-.065,1.168a.6.6,0,0,0,.3.57l1.948,1.149a1.273,1.273,0,0,1,.568,1.5l-.562,1.709a1.281,1.281,0,0,1-1.347.878l-2.256-.211a.613.613,0,0,0-.585.293c-.2.335-.414.662-.635.972a.6.6,0,0,0-.032.642l1.106,1.958a1.269,1.269,0,0,1-.264,1.583l-1.349,1.2a1.292,1.292,0,0,1-1.608.091l-1.851-1.3a.622.622,0,0,0-.656-.036c-.34.188-.689.364-1.039.523a.6.6,0,0,0-.354.54l-.03,2.249a1.275,1.275,0,0,1-1.024,1.237l-1.774.371a1.3,1.3,0,0,1-.27.028m-3.891-3.885c.04,0,.081,0,.121.006.376.036.754.057,1.122.062a1.292,1.292,0,0,1,1.146.747l.945,2.039a.617.617,0,0,0,.689.342l1.774-.371a.6.6,0,0,0,.487-.585l.03-2.249a1.283,1.283,0,0,1,.751-1.147c.333-.151.666-.318.99-.5a1.3,1.3,0,0,1,1.372.074l1.851,1.3a.618.618,0,0,0,.77-.043l1.349-1.2a.6.6,0,0,0,.125-.745l-1.107-1.958a1.279,1.279,0,0,1,.071-1.367c.21-.294.414-.605.6-.925a1.3,1.3,0,0,1,1.228-.62l2.257.211a.6.6,0,0,0,.643-.416l.561-1.709a.6.6,0,0,0-.27-.708l-1.948-1.15a1.281,1.281,0,0,1-.627-1.218c.036-.37.057-.744.062-1.111a1.28,1.28,0,0,1,.753-1.139l2.056-.934a.6.6,0,0,0,.344-.676l-.376-1.759a.612.612,0,0,0-.595-.483l-2.268-.031a1.3,1.3,0,0,1-1.154-.745c-.153-.332-.323-.662-.5-.981a1.278,1.278,0,0,1,.074-1.368l1.312-1.833a.6.6,0,0,0-.045-.754l-1.213-1.338a.626.626,0,0,0-.761-.125l-1.975,1.095a1.3,1.3,0,0,1-1.371-.072c-.3-.211-.615-.413-.934-.6a1.284,1.284,0,0,1-.627-1.222l.21-2.237a.6.6,0,0,0-.421-.633l-1.725-.558a.614.614,0,0,0-.721.267l-1.158,1.929a1.287,1.287,0,0,1-1.224.62c-.371-.036-.749-.057-1.123-.062a1.29,1.29,0,0,1-1.146-.746l-.945-2.039a.617.617,0,0,0-.689-.342l-1.774.371a.605.605,0,0,0-.487.585l-.029,2.247a1.279,1.279,0,0,1-.746,1.146c-.34.154-.677.324-1,.5a1.3,1.3,0,0,1-1.368-.077l-1.851-1.3a.625.625,0,0,0-.77.043l-1.349,1.2a.6.6,0,0,0-.125.746l1.106,1.958a1.279,1.279,0,0,1-.072,1.367c-.214.3-.417.61-.6.924a1.3,1.3,0,0,1-1.229.62l-2.256-.211a.609.609,0,0,0-.643.416l-.561,1.709a.6.6,0,0,0,.27.709l1.947,1.15a1.279,1.279,0,0,1,.627,1.218c-.036.373-.057.748-.062,1.111a1.278,1.278,0,0,1-.753,1.139l-2.056.935a.6.6,0,0,0-.344.676l.376,1.759a.611.611,0,0,0,.595.482l2.268.032a1.29,1.29,0,0,1,1.152.74c.154.334.325.667.509.991a1.273,1.273,0,0,1-.077,1.364l-1.311,1.833a.6.6,0,0,0,.044.755l1.213,1.338a.626.626,0,0,0,.761.125l1.975-1.095a1.3,1.3,0,0,1,1.371.071c.3.21.613.412.934.6a1.283,1.283,0,0,1,.627,1.222l-.21,2.236a.6.6,0,0,0,.421.634l1.725.558a.615.615,0,0,0,.721-.267l1.158-1.929a1.292,1.292,0,0,1,1.1-.625m1.417-5.348q-.242,0-.486-.014a8.1,8.1,0,0,1-7.647-8.514,7.967,7.967,0,0,1,2.707-5.551,8.179,8.179,0,0,1,11.473.665,8.009,8.009,0,0,1-.66,11.378,8.1,8.1,0,0,1-5.387,2.036m-.038-15.44a7.427,7.427,0,0,0-4.941,1.867,7.3,7.3,0,0,0-2.48,5.083,7.467,7.467,0,0,0,12.4,5.947,7.332,7.332,0,0,0,.6-10.419,7.441,7.441,0,0,0-5.136-2.465q-.224-.013-.446-.013" transform="translate(-207.848 -164.781)"/>
    <path id="Path_811" data-name="Path 811" d="M635.4,1239.477l-55.042.345c-.357,0-.474.332-.474.65v46.83c0,4.484-31.274,16.133-31.578,15.541l-.038,4.956a1.808,1.808,0,0,0,1.843,1.742h46.851a16.131,16.131,0,0,0,6.2-1.291l25.374-10.684a11.632,11.632,0,0,0,7.449-10.56v-46.878a.619.619,0,0,0-.58-.65" transform="translate(-464.178 -1049.366)" fill="#ff5700"/>
    <path id="Path_812" data-name="Path 812" d="M577.745,1222.026v46.84a11.964,11.964,0,0,1-7.641,10.818l-17.117,7.306a1.027,1.027,0,0,0,.5,1.975H600.52a15.8,15.8,0,0,0,6.116-1.223l18.965-7.985a11.974,11.974,0,0,0,7.705-10.845v-46.886a.37.37,0,0,0-.389-.347H578.134a.37.37,0,0,0-.389.347" transform="translate(-467.609 -1034.298)" fill="#fff"/>
    <path id="Path_813" data-name="Path 813" d="M598.655,1287.437h-47.03a1.437,1.437,0,0,1-1.477-1.125,1.333,1.333,0,0,1,.842-1.5l17.117-7.306A11.686,11.686,0,0,0,575.543,1267v-46.84a.708.708,0,0,1,.727-.685h54.782a.708.708,0,0,1,.727.685v46.887a12.36,12.36,0,0,1-7.912,11.156l-18.965,7.985a16.24,16.24,0,0,1-6.247,1.249m-22.437-67.269V1267a12.359,12.359,0,0,1-7.846,11.128l-17.117,7.306a.65.65,0,0,0-.445.742.777.777,0,0,0,.815.585h47.03a15.551,15.551,0,0,0,5.985-1.2l18.965-7.984a11.688,11.688,0,0,0,7.5-10.533V1220.16c0,.009-.019-.01-.051-.01H576.27a.074.074,0,0,0-.052.017" transform="translate(-465.744 -1032.432)"/>
    <path id="Path_814" data-name="Path 814" d="M49.574,524.589l226.326.494,3.93.009,7.307.016a4.151,4.151,0,0,0,4.046-3.685l18.923-147.887a6.069,6.069,0,0,0-5.783-7l-234.489.213Z" transform="translate(-41.97 -310.319)" fill="#ff5700"/>
    <path id="Path_815" data-name="Path 815" d="M255.418,366.315c4.082,0,7.4,4.111,6.878,8.169L243.237,521.239a4.131,4.131,0,0,1-4.094,3.609l-1.787.068-231.03-.068a4.135,4.135,0,0,1-4.094-4.668L21.677,370.439c.266-2.064,1.852-4.124,3.928-4.124Z" transform="translate(-1.861 -310.13)" fill="#fff"/>
    <path id="Path_816" data-name="Path 816" d="M235.508,523.388,4.466,523.32a4.473,4.473,0,0,1-4.429-5.049L19.481,368.53c.28-2.172,1.951-4.418,4.263-4.418H253.557a7.1,7.1,0,0,1,5.276,2.509,7.812,7.812,0,0,1,1.937,6.041l-19.06,146.755a4.48,4.48,0,0,1-4.429,3.9ZM23.744,364.788c-1.915,0-3.356,1.988-3.593,3.829L.707,518.358a3.8,3.8,0,0,0,3.759,4.287l231.03.068,1.774-.068a3.806,3.806,0,0,0,3.772-3.314L260.1,372.575a7.126,7.126,0,0,0-1.775-5.508,6.427,6.427,0,0,0-4.769-2.28Z" transform="translate(0 -308.265)"/>
    <path id="Path_817" data-name="Path 817" d="M306.395,415.417a6.611,6.611,0,0,1,6.293,7.3L295.25,553.789a3.749,3.749,0,0,1-3.745,3.223l-1.634.061-211.362-.061a3.725,3.725,0,0,1-3.745-4.169L92.552,419.1c.243-1.843,1.695-3.683,3.593-3.683Z" transform="translate(-63.269 -351.7)" fill="#fff"/>
    <path id="Path_818" data-name="Path 818" d="M288.023,555.546l-211.375-.06a4.145,4.145,0,0,1-3.12-1.4,3.986,3.986,0,0,1-.96-3.147L90.356,417.192c.258-1.954,1.8-3.977,3.928-3.977h210.25a6.59,6.59,0,0,1,4.911,2.324,6.818,6.818,0,0,1,1.716,5.354L293.725,551.969a4.1,4.1,0,0,1-4.08,3.517ZM94.285,413.891c-1.737,0-3.044,1.76-3.259,3.39L73.238,551.023a3.308,3.308,0,0,0,.8,2.612,3.468,3.468,0,0,0,2.612,1.174l211.363.061,1.622-.061a3.424,3.424,0,0,0,3.423-2.93L310.492,420.8a6.143,6.143,0,0,0-1.555-4.82,5.915,5.915,0,0,0-4.4-2.094Z" transform="translate(-61.409 -349.836)"/>
    <path id="Path_819" data-name="Path 819" d="M516.611,412.511l-140.678-2.481a.763.763,0,0,1-.783-.874l15.737-145.711a1.283,1.283,0,0,1,1.244-1.082l140.678,2.481a.764.764,0,0,1,.784.874L517.855,411.428a1.283,1.283,0,0,1-1.244,1.083" transform="translate(-317.605 -222.121)" fill="#fff"/>
    <path id="Path_820" data-name="Path 820" d="M514.765,410.983h-.025L374.062,408.5a1.142,1.142,0,0,1-.851-.375,1.119,1.119,0,0,1-.263-.873l15.737-145.711a1.613,1.613,0,0,1,1.586-1.384L530.95,262.64a1.141,1.141,0,0,1,.851.375,1.119,1.119,0,0,1,.263.873L516.326,409.6a1.613,1.613,0,0,1-1.561,1.384M390.248,260.835a.954.954,0,0,0-.89.781L373.621,407.326a.447.447,0,0,0,.1.354.476.476,0,0,0,.356.146l140.678,2.481a.965.965,0,0,0,.9-.781l15.737-145.711a.447.447,0,0,0-.1-.353.475.475,0,0,0-.356-.147L390.26,260.835Z" transform="translate(-315.74 -220.256)"/>
    <path id="Path_821" data-name="Path 821" d="M656.66,798.819h-.006l-105.586-1.862a.338.338,0,0,1-.33-.374l.49-4.538a.324.324,0,0,1,.342-.3l105.586,1.863a.338.338,0,0,1,.33.374l-.49,4.538a.338.338,0,0,1-.336.3m-105.211-2.531,104.908,1.85.417-3.864-104.907-1.851Z" transform="translate(-466.264 -670.305)"/>
    <path id="Path_822" data-name="Path 822" d="M622.791,856.585h-.006l-78.008-1.376a.338.338,0,0,1-.33-.374l.49-4.538a.333.333,0,0,1,.342-.3l78.008,1.376a.338.338,0,0,1,.33.374l-.49,4.538a.338.338,0,0,1-.336.3m-77.633-2.045,77.33,1.364.417-3.864-77.33-1.364Z" transform="translate(-460.938 -719.623)"/>
    <path id="Path_823" data-name="Path 823" d="M639.639,956.417h-.006l-105.586-1.862a.338.338,0,0,1-.33-.374l.49-4.538a.33.33,0,0,1,.342-.3L640.135,951.2a.338.338,0,0,1,.33.374l-.49,4.538a.338.338,0,0,1-.336.3m-105.211-2.531,104.908,1.85.418-3.864-104.908-1.851Z" transform="translate(-451.854 -803.731)"/>
    <path id="Path_824" data-name="Path 824" d="M605.77,1014.18h-.006l-78.008-1.376a.338.338,0,0,1-.33-.374l.49-4.538a.34.34,0,0,1,.342-.3l78.008,1.376a.338.338,0,0,1,.33.374l-.49,4.538a.338.338,0,0,1-.336.3m-77.633-2.045,77.33,1.364.417-3.864-77.33-1.364Z" transform="translate(-446.528 -853.046)"/>
    <path id="Path_825" data-name="Path 825" d="M620.25,1094.489h-.006l-105.586-1.862a.338.338,0,0,1-.33-.374l.49-4.538a.327.327,0,0,1,.342-.3l105.586,1.862a.338.338,0,0,1,.33.374l-.49,4.538a.338.338,0,0,1-.336.3m-105.211-2.531,104.908,1.851.417-3.864-104.907-1.851Z" transform="translate(-435.439 -920.624)"/>
    <path id="Path_826" data-name="Path 826" d="M586.38,1152.255h-.006l-78.008-1.376a.338.338,0,0,1-.33-.374l.49-4.538a.337.337,0,0,1,.342-.3l78.008,1.376a.338.338,0,0,1,.33.374l-.49,4.538a.338.338,0,0,1-.336.3m-77.633-2.045,77.33,1.364.417-3.864-77.33-1.364Z" transform="translate(-430.112 -969.943)"/>
    <path id="Path_827" data-name="Path 827" d="M777.784,531.43H725.2l5.252,23.225a3.879,3.879,0,0,0,3.89,2.872h32.885a4.146,4.146,0,0,0,4.046-2.872Z" transform="translate(-613.97 -449.919)" fill="#fff"/>
    <path id="Path_828" data-name="Path 828" d="M765.364,556H732.479a4.2,4.2,0,0,1-4.22-3.136l-5.252-23.224a.338.338,0,0,1,.33-.413h52.583a.338.338,0,0,1,.325.429l-6.51,23.225A4.465,4.465,0,0,1,765.364,556m-41.6-26.1,5.159,22.812a3.525,3.525,0,0,0,3.561,2.609h32.885a3.788,3.788,0,0,0,3.72-2.625l6.39-22.8Z" transform="translate(-612.105 -448.054)"/>
    <path id="Path_829" data-name="Path 829" d="M766.543,499.069H713.592a1.926,1.926,0,0,1-1.936-1.989,2.056,2.056,0,0,1,2.043-1.99h52.952a1.926,1.926,0,0,1,1.936,1.989,2.056,2.056,0,0,1-2.044,1.99" transform="translate(-602.501 -419.153)" fill="#fff"/>
    <path id="Path_830" data-name="Path 830" d="M764.677,497.542H711.726a2.264,2.264,0,0,1-2.274-2.337,2.4,2.4,0,0,1,2.382-2.318h52.951a2.264,2.264,0,0,1,2.274,2.337,2.4,2.4,0,0,1-2.381,2.318m-52.844-3.979a1.718,1.718,0,0,0-1.706,1.661,1.588,1.588,0,0,0,1.6,1.643h52.952a1.718,1.718,0,0,0,1.706-1.661,1.588,1.588,0,0,0-1.6-1.643Z" transform="translate(-600.636 -417.288)"/>
    <path id="Path_831" data-name="Path 831" d="M795.309,558.274h-5.393a1.5,1.5,0,0,0-1.588,1.7l3.4,15.216a1.488,1.488,0,0,0,1.5,1.09h1.533a1.549,1.549,0,0,0,1.617-1.4l.464-15.216a1.44,1.44,0,0,0-1.532-1.4" transform="translate(-667.388 -472.646)" fill="#fff"/>
    <path id="Path_832" data-name="Path 832" d="M792.9,574.755h-1.533a1.815,1.815,0,0,1-1.832-1.354l-3.4-15.216a1.63,1.63,0,0,1,.335-1.378,2.035,2.035,0,0,1,1.583-.736h5.393a1.959,1.959,0,0,1,1.406.572,1.6,1.6,0,0,1,.463,1.172l-.464,15.216a1.89,1.89,0,0,1-1.955,1.724m-4.844-18.008a1.354,1.354,0,0,0-1.055.483.946.946,0,0,0-.2.809l3.4,15.216a1.161,1.161,0,0,0,1.173.825H792.9a1.213,1.213,0,0,0,1.279-1.068l.464-15.216a.933.933,0,0,0-.273-.681,1.282,1.282,0,0,0-.921-.367Z" transform="translate(-665.527 -470.781)"/>
    <path id="Path_833" data-name="Path 833" d="M957.376,559.977a1.4,1.4,0,0,0-1.489-1.7h-5.411a1.553,1.553,0,0,0-1.622,1.4l-.466,15.216a1.442,1.442,0,0,0,1.537,1.4h1.538a1.609,1.609,0,0,0,1.574-1.09Z" transform="translate(-802.923 -472.646)" fill="#fff"/>
    <path id="Path_834" data-name="Path 834" d="M949.6,574.755h-1.538a1.968,1.968,0,0,1-1.412-.574,1.6,1.6,0,0,1-.463-1.17l.466-15.216a1.893,1.893,0,0,1,1.96-1.724h5.411a1.936,1.936,0,0,1,1.549.735,1.582,1.582,0,0,1,.264,1.4L951.5,573.42a1.938,1.938,0,0,1-1.9,1.335m-.986-18.008a1.216,1.216,0,0,0-1.284,1.068l-.466,15.216a.928.928,0,0,0,.272.679,1.288,1.288,0,0,0,.927.369H949.6a1.279,1.279,0,0,0,1.249-.844l4.339-15.216a.9.9,0,0,0-.154-.806,1.258,1.258,0,0,0-1.01-.466Z" transform="translate(-801.058 -470.781)"/>
    <path id="Path_835" data-name="Path 835" d="M880.812,558.274h-4.135a1.317,1.317,0,0,0-1.155,1.4l-.332,15.216a1.25,1.25,0,0,0,1.094,1.4h4.135a1.317,1.317,0,0,0,1.155-1.4l.332-15.216a1.25,1.25,0,0,0-1.094-1.4" transform="translate(-740.953 -472.646)" fill="#fff"/>
    <path id="Path_836" data-name="Path 836" d="M878.554,574.755h-4.135a1.312,1.312,0,0,1-.94-.41,1.845,1.845,0,0,1-.492-1.331l.332-15.216a1.653,1.653,0,0,1,1.493-1.727h4.135a1.313,1.313,0,0,1,.94.41,1.846,1.846,0,0,1,.493,1.332l-.332,15.216a1.653,1.653,0,0,1-1.493,1.727m-3.742-18.008c-.43,0-.8.488-.817,1.066l-.332,15.216a1.168,1.168,0,0,0,.3.844.642.642,0,0,0,.457.207h4.135c.431,0,.8-.488.817-1.066L879.7,557.8a1.171,1.171,0,0,0-.3-.845.643.643,0,0,0-.457-.206Z" transform="translate(-739.087 -470.781)"/>
    <path id="Path_837" data-name="Path 837" d="M743.116,489.684a2.99,2.99,0,0,1-2.971,2.893,2.8,2.8,0,0,1-2.815-2.893,2.99,2.99,0,0,1,2.971-2.893,2.8,2.8,0,0,1,2.815,2.893" transform="translate(-624.237 -412.127)"/>
    <path id="Path_838" data-name="Path 838" d="M749.776,385.128a1.123,1.123,0,0,1-.784-.315,1.156,1.156,0,0,1-.005-1.636l20.227-20.888a1.142,1.142,0,1,1,1.642,1.586l-20.227,20.888a1.187,1.187,0,0,1-.853.364" transform="translate(-633.822 -306.413)" fill="#fff"/>
    <path id="Path_839" data-name="Path 839" d="M747.913,383.606a1.458,1.458,0,0,1-1.463-1.439,1.514,1.514,0,0,1,.432-1.085L767.108,360.2a1.5,1.5,0,0,1,2.115-.058,1.455,1.455,0,0,1,.445,1.03,1.513,1.513,0,0,1-.432,1.084l-20.227,20.888a1.536,1.536,0,0,1-1.1.467m20.29-23.2a.85.85,0,0,0-.61.261l-20.227,20.888a.843.843,0,0,0-.241.6.781.781,0,0,0,.238.554.841.841,0,0,0,1.16-.041l20.227-20.888a.844.844,0,0,0,.241-.6.782.782,0,0,0-.788-.774" transform="translate(-631.959 -304.554)"/>
    <path id="Path_840" data-name="Path 840" d="M1019.558,489.684a2.8,2.8,0,0,0,2.815,2.893,2.99,2.99,0,0,0,2.972-2.893,2.8,2.8,0,0,0-2.815-2.893,2.99,2.99,0,0,0-2.971,2.893" transform="translate(-863.177 -412.127)"/>
    <path id="Path_841" data-name="Path 841" d="M926.6,385.128a1.184,1.184,0,0,0,.8-.315,1.16,1.16,0,0,0,.094-1.636l-19.1-20.888a1.173,1.173,0,0,0-1.728,1.586l19.1,20.888a1.123,1.123,0,0,0,.833.364" transform="translate(-767.357 -306.413)" fill="#fff"/>
    <path id="Path_842" data-name="Path 842" d="M924.74,383.6a1.469,1.469,0,0,1-1.082-.474l-19.1-20.888a1.5,1.5,0,0,1,.115-2.112,1.52,1.52,0,0,1,1.1-.4,1.451,1.451,0,0,1,1.016.472l19.1,20.888a1.5,1.5,0,0,1-.115,2.113,1.523,1.523,0,0,1-1.03.4m-19.035-23.2a.845.845,0,0,0-.572.226.824.824,0,0,0-.073,1.159l19.1,20.888a.837.837,0,0,0,1.157.028.823.823,0,0,0,.073-1.159l-19.1-20.888a.78.78,0,0,0-.547-.253h-.037" transform="translate(-765.497 -304.551)"/>
    <path id="Path_843" data-name="Path 843" d="M713.835,328.631a7.749,7.749,0,1,1-7.749-7.749,7.749,7.749,0,0,1,7.749,7.749" transform="translate(-591.226 -271.665)" fill="#002069"/>
    <path id="Path_844" data-name="Path 844" d="M723.206,354.016a.783.783,0,0,1-.72-.358l-2.843-3.948a.868.868,0,0,1,1.472-.906l2.112,2.763,3.277-5.726a.91.91,0,0,1,1.154-.386.755.755,0,0,1,.314,1.081l-4.015,7.016a.933.933,0,0,1-.736.462h-.014" transform="translate(-609.171 -292.403)" fill="#fff"/>
    <path id="Path_845" data-name="Path 845" d="M1277.371,1252.006l-46.748,8.173-46.373-8.124a.06.06,0,0,1,0-.117l46.9-8.213Z" transform="translate(-1002.568 -1052.962)" fill="#fff"/>
    <path id="Path_846" data-name="Path 846" d="M1228.759,1258.653a.335.335,0,0,1-.058-.005l-46.373-8.124a.4.4,0,0,1,0-.783l46.9-8.213a.361.361,0,0,1,.118,0l46.218,8.281a.338.338,0,0,1,0,.665l-46.748,8.173a.33.33,0,0,1-.058.005m-44.751-8.521,44.751,7.84,44.81-7.833-44.281-7.934Z" transform="translate(-1000.704 -1051.098)"/>
    <path id="Path_847" data-name="Path 847" d="M1230.118,1374.938v-69.331l-46.524-8.144v69.192Z" transform="translate(-1002.054 -1098.458)" fill="#ff5700"/>
    <path id="Path_848" data-name="Path 848" d="M1315.214,1327.813v-6.28l-10.321-1.444v6.246Z" transform="translate(-1104.749 -1117.614)" fill="#fff"/>
    <path id="Path_849" data-name="Path 849" d="M1313.35,1326.284a.349.349,0,0,1-.048,0l-10.321-1.478a.338.338,0,0,1-.29-.335v-6.246a.338.338,0,0,1,.385-.335l10.321,1.444a.338.338,0,0,1,.291.334v6.28a.338.338,0,0,1-.338.338m-9.984-2.109,9.646,1.381v-5.6l-9.646-1.349Z" transform="translate(-1102.884 -1115.747)"/>
    <path id="Path_850" data-name="Path 850" d="M1486.92,1374.994v-69.331l46.931-8.134v69.141Z" transform="translate(-1258.856 -1098.514)" fill="#fff"/>
    <path id="Path_851" data-name="Path 851" d="M1485.056,1373.468a.337.337,0,0,1-.338-.338V1303.8a.338.338,0,0,1,.28-.333l46.932-8.133a.338.338,0,0,1,.4.333v69.141a.337.337,0,0,1-.279.333l-46.931,8.323a.311.311,0,0,1-.059.005m.338-69.385v68.644l46.256-8.2v-68.457Z" transform="translate(-1256.992 -1096.651)"/>
    <path id="Path_852" data-name="Path 852" d="M1329.295,886.644l-37.936,6.632-37.573-6.583a.059.059,0,0,1,0-.116l38-6.654Z" transform="translate(-1061.439 -744.96)" fill="#fff"/>
    <path id="Path_853" data-name="Path 853" d="M1289.493,891.75a.366.366,0,0,1-.058-.005l-37.573-6.583a.4.4,0,0,1,0-.782l38-6.654a.336.336,0,0,1,.118,0l37.506,6.721a.338.338,0,0,1,0,.665l-37.936,6.632a.353.353,0,0,1-.058.005m-35.945-6.978,35.945,6.3,36-6.293-35.569-6.374Z" transform="translate(-1059.574 -743.097)"/>
    <path id="Path_854" data-name="Path 854" d="M1499.067,986.45V930.187l38.085-6.6V979.7Z" transform="translate(-1269.14 -781.927)" fill="#fff"/>
    <path id="Path_855" data-name="Path 855" d="M1497.2,984.925a.338.338,0,0,1-.338-.338V928.325a.338.338,0,0,1,.28-.333l38.085-6.6a.338.338,0,0,1,.4.333v56.108a.338.338,0,0,1-.279.333l-38.085,6.755a.314.314,0,0,1-.059.005m.338-56.316v55.575l37.41-6.635V922.126Z" transform="translate(-1267.274 -780.064)"/>
    <path id="Path_856" data-name="Path 856" d="M1290.67,986.4V930.141l-37.755-6.609v56.149Z" transform="translate(-1060.742 -781.881)" fill="#ff5700"/>
    <path id="Path_857" data-name="Path 857" d="M1363.561,949.166v-6.28l-8.329-1.443v6.246Z" transform="translate(-1147.366 -797.044)" fill="#fff"/>
    <path id="Path_858" data-name="Path 858" d="M1361.7,947.639a.332.332,0,0,1-.059-.005l-8.329-1.477a.337.337,0,0,1-.279-.332v-6.246a.335.335,0,0,1,.121-.258.339.339,0,0,1,.275-.075l8.329,1.444a.338.338,0,0,1,.28.333v6.28a.338.338,0,0,1-.338.338m-7.991-2.1,7.654,1.357v-5.593l-7.654-1.327Z" transform="translate(-1145.5 -795.179)"/>
    <path id="Path_859" data-name="Path 859" d="M1389.141,896.915l-37.048,6.686,8.318,1.454,37.068-6.7Z" transform="translate(-1144.709 -759.346)" fill="#fff"/>
    <path id="Path_860" data-name="Path 860" d="M1358.547,903.53a.345.345,0,0,1-.058-.005l-8.318-1.454a.338.338,0,0,1,0-.666l37.048-6.686a.347.347,0,0,1,.118,0l8.338,1.438a.338.338,0,0,1,0,.665l-37.068,6.7a.331.331,0,0,1-.06.005m-6.387-1.8,6.386,1.116,35.127-6.351-6.4-1.1Z" transform="translate(-1142.845 -757.483)"/>
    <path id="Path_861" data-name="Path 861" d="M1312.127,1060.827v-30.408l-27.65-4.871v30.294Z" transform="translate(-1087.463 -868.249)" fill="#fff"/>
    <path id="Path_862" data-name="Path 862" d="M1310.261,1059.3a.359.359,0,0,1-.06-.005l-27.65-4.985a.338.338,0,0,1-.278-.333v-30.294a.336.336,0,0,1,.121-.259.332.332,0,0,1,.276-.074l27.65,4.871a.338.338,0,0,1,.279.333v30.408a.338.338,0,0,1-.338.338m-27.312-5.6,26.975,4.863v-29.721l-26.975-4.752Z" transform="translate(-1085.598 -866.383)"/>
    <path id="Path_863" data-name="Path 863" d="M1306.4,1173.057v4.678l20.925,3.588v-4.575Z" transform="translate(-1106.023 -993.133)" fill="#002069"/>
    <path id="Path_864" data-name="Path 864" d="M1388.692,1071.785l-4.32-6.249-4.3,4.723,2.206.389v11.084l4.179.716v-11.064Z" transform="translate(-1168.401 -902.104)" fill="#002069"/>
    <path id="Path_865" data-name="Path 865" d="M1321.594,1060.408l-4.32-6.249-4.3,4.723,2.206.389v11.084l4.179.716v-11.064Z" transform="translate(-1111.594 -892.472)" fill="#002069"/>
    <path id="Path_866" data-name="Path 866" d="M966.633,1491.048l28.593,5,28.273-4.953a.053.053,0,0,0,0-.1l-28.6-5.007Z" transform="translate(-818.371 -1258.063)" fill="#fff"/>
    <path id="Path_867" data-name="Path 867" d="M994.571,1566.272v-42.405l-28.7-4.975v42.289Z" transform="translate(-817.722 -1285.925)" fill="#ff5700"/>
    <path id="Path_868" data-name="Path 868" d="M1153.014,1566.238v-42.405l28.456-4.981v42.32Z" transform="translate(-976.165 -1285.89)" fill="#fff"/>
    <path id="Path_869" data-name="Path 869" d="M1151.15,1564.714a.338.338,0,0,1-.338-.338v-42.4a.338.338,0,0,1,.279-.333l28.456-4.981a.338.338,0,0,1,.4.333v42.32a.338.338,0,0,1-.279.333l-28.456,5.066a.319.319,0,0,1-.059.005m.338-42.459v41.718l27.78-4.946v-41.635Z" transform="translate(-974.3 -1284.028)"/>
    <path id="Path_870" data-name="Path 870" d="M1047.837,1497.81l28.244,4.969-7.731,1.454-28.242-4.968Z" transform="translate(-880.575 -1268.076)" fill="#fff"/>
    <path id="Path_871" data-name="Path 871" d="M1066.483,1502.707a.346.346,0,0,1-.059-.005l-28.242-4.968a.338.338,0,0,1,0-.665l7.73-1.454a.338.338,0,0,1,.121,0l28.244,4.969a.338.338,0,0,1,0,.665l-7.731,1.454a.347.347,0,0,1-.062.006m-26.356-5.317,26.354,4.636,5.847-1.1-26.355-4.636Z" transform="translate(-878.709 -1266.212)"/>
    <path id="Path_872" data-name="Path 872" d="M993.36,1494.521a.354.354,0,0,1-.058,0l-28.593-5a.338.338,0,0,1,0-.665l28.268-5.065a.342.342,0,0,1,.118,0l28.6,5.007a.39.39,0,0,1,0,.769l-28.275,4.954a.363.363,0,0,1-.059,0m-26.654-5.34,26.654,4.66,26.61-4.662-26.934-4.716Zm54.869.279h0Z" transform="translate(-816.506 -1256.199)"/>
    <path id="Path_873" data-name="Path 873" d="M1151.15,1564.714a.338.338,0,0,1-.338-.338v-42.4a.338.338,0,0,1,.279-.333l28.456-4.981a.338.338,0,0,1,.4.333v42.32a.338.338,0,0,1-.279.333l-28.456,5.066a.319.319,0,0,1-.059.005m.338-42.459v41.718l27.78-4.946v-41.635Z" transform="translate(-974.3 -1284.028)"/>
    <path id="Path_874" data-name="Path 874" d="M992.707,1564.746a.342.342,0,0,1-.059-.005l-28.7-5.091a.337.337,0,0,1-.279-.333v-42.289a.338.338,0,0,1,.4-.333l28.7,4.975a.337.337,0,0,1,.28.333v42.405a.338.338,0,0,1-.338.338m-28.367-5.712L992.369,1564v-41.717l-28.029-4.857Z" transform="translate(-815.857 -1284.06)"/>
    <path id="Path_875" data-name="Path 875" d="M1211.683,422.109l25.485,4.456,25.2-4.415a.047.047,0,0,0,0-.092l-25.489-4.463Z" transform="translate(-1025.835 -353.543)" fill="#fff"/>
    <path id="Path_876" data-name="Path 876" d="M1236.584,489.156v-37.8L1211,446.926v37.692Z" transform="translate(-1025.257 -378.377)" fill="#ff5700"/>
    <path id="Path_877" data-name="Path 877" d="M1377.8,489.126v-37.8l25.362-4.44v37.72Z" transform="translate(-1166.477 -378.346)" fill="#fff"/>
    <path id="Path_878" data-name="Path 878" d="M1284.059,428.136l25.174,4.428-6.891,1.3-25.172-4.428Z" transform="translate(-1081.277 -362.468)"/>
    <path id="Path_879" data-name="Path 879" d="M1235.3,425.038a.328.328,0,0,1-.058-.005l-25.484-4.455a.338.338,0,0,1,0-.665l25.2-4.515a.342.342,0,0,1,.118,0l25.489,4.463a.385.385,0,0,1,0,.758l-25.2,4.415a.338.338,0,0,1-.058.005m-23.546-4.8,23.546,4.116,23.5-4.117-23.793-4.166Zm48.688.285h0Zm0-.573h0Z" transform="translate(-1023.971 -351.679)"/>
    <path id="Path_880" data-name="Path 880" d="M1375.941,487.6a.338.338,0,0,1-.338-.338v-37.8a.338.338,0,0,1,.28-.333l25.363-4.44a.338.338,0,0,1,.4.333v37.72a.338.338,0,0,1-.279.333L1376,487.6a.333.333,0,0,1-.059.005m.338-37.85V486.86l24.687-4.4V445.429Z" transform="translate(-1164.613 -376.483)"/>
    <path id="Path_881" data-name="Path 881" d="M1234.721,487.631a.329.329,0,0,1-.059-.005l-25.584-4.538a.337.337,0,0,1-.279-.333V445.064a.338.338,0,0,1,.4-.333l25.585,4.434a.338.338,0,0,1,.28.333v37.8a.338.338,0,0,1-.338.338m-25.247-5.159,24.909,4.418V449.782l-24.909-4.317Z" transform="translate(-1023.393 -376.514)"/>
    <path id="Path_882" data-name="Path 882" d="M1136.56,28.578C1128.277,9.928,1107.869-2,1085.419.277S1045.367,18.353,1041,38.295l.035-.02c4.581-5.337,10.806-4.746,17.047-1.784l.154.04c5.781-6.71,13.573-5.389,18.914-1.941l.07.016.654.265c7.767-4.822,14.476-6.569,22.509-2.613,4.788-3.929,11.744-6.114,18.911-1.932l.042.01.095-.047c3.966-3.917,10.942-4.939,17.007-1.741Z" transform="translate(-881.334 0)" fill="#ff5700"/>
    <path id="Path_883" data-name="Path 883" d="M1177.953,7.677c-15.857,4.817-21.167,18.085-24.173,35,5.331-5.1,11.664-6.363,19.562-1.5-1.034-13.474,1.779-24.308,4.612-33.507" transform="translate(-976.813 -6.5)" fill="#fff"/>
    <path id="Path_884" data-name="Path 884" d="M1151.916,41.153a.338.338,0,0,1-.333-.4c2.717-15.292,7.554-30.148,24.408-35.268a.338.338,0,0,1,.421.423c-2.773,9-5.644,19.751-4.6,33.381a.338.338,0,0,1-.514.313c-7.216-4.446-13.48-3.97-19.151,1.454a.337.337,0,0,1-.234.094m23.662-34.828c-15.661,5.072-20.472,19.022-23.151,33.564,5.577-4.887,11.7-5.278,18.667-1.2-.9-13.133,1.8-23.574,4.485-32.367" transform="translate(-974.949 -4.634)"/>
    <path id="Path_885" data-name="Path 885" d="M1355.732,3.253c18.459,2.338,25.295,14.406,29.649,29.616-4.91-2.737-11.535-1.662-18.54,2.141-2.281-12.867-5.608-23.592-11.109-31.757" transform="translate(-1147.79 -2.754)" fill="#fff"/>
    <path id="Path_886" data-name="Path 886" d="M1364.976,33.486a.337.337,0,0,1-.333-.279c-2.5-14.088-6.011-24.138-11.056-31.627a.337.337,0,0,1-.007-.366.343.343,0,0,1,.33-.158c19.5,2.47,25.91,15.81,29.931,29.858a.338.338,0,0,1-.489.388c-4.605-2.567-10.9-1.826-18.214,2.143a.338.338,0,0,1-.161.041M1354.56,1.826c4.826,7.418,8.226,17.243,10.667,30.8,6.989-3.7,13.1-4.483,17.747-2.283-3.92-13.368-10.215-25.91-28.414-28.522" transform="translate(-1145.925 -0.892)"/>
    <path id="Path_887" data-name="Path 887" d="M1092.741,221.2a.339.339,0,0,1-.177-.05l-50.282-31.012a.338.338,0,0,1,.355-.575l50.062,30.877,43.871-40.873a.338.338,0,0,1,.461.494l-44.059,41.048a.337.337,0,0,1-.23.091" transform="translate(-882.281 -151.951)"/>
    <path id="Path_888" data-name="Path 888" d="M1185.808,251.118a.337.337,0,0,1-.238-.1l-33.421-33.22a.338.338,0,0,1,.476-.479l32.27,32.076-13.552-34.12a.338.338,0,1,1,.628-.249l14.151,35.629a.338.338,0,0,1-.314.463" transform="translate(-975.348 -181.865)"/>
    <path id="Path_889" data-name="Path 889" d="M1370.282,226.744a.338.338,0,0,1-.329-.415l8.591-36.659a.338.338,0,1,1,.658.154l-8.19,34.949,26.995-38.605a.338.338,0,1,1,.554.387l-28,40.045a.338.338,0,0,1-.277.144" transform="translate(-1159.822 -157.491)"/>
    <path id="Path_890" data-name="Path 890" d="M201.216,1675.361l.785,7.526,5.055.6v-8.923Z" transform="translate(-170.354 -1417.716)" fill="#fff"/>
    <path id="Path_891" data-name="Path 891" d="M205.192,1681.955l-.04,0-5.055-.6a.337.337,0,0,1-.3-.3l-.785-7.526a.337.337,0,0,1,.29-.369l5.84-.8a.335.335,0,0,1,.268.08.338.338,0,0,1,.116.255v8.924a.338.338,0,0,1-.338.338m-4.747-1.238,4.409.52v-8.156l-5.133.7Z" transform="translate(-168.49 -1415.85)"/>
    <path id="Path_892" data-name="Path 892" d="M180.6,1723.432a35.085,35.085,0,0,1-9.621,0,2.272,2.272,0,0,1-1.887-2.792c.893-3.653,2.432-10.585,5.073-13.8l.656,1.742.906-1.64a.8.8,0,0,1,.6-.409l1.984-.253a.8.8,0,0,1,.886.635l.316,1.511,1.21-1.981.537,7.4a30.684,30.684,0,0,0,.712,4.708l.541,2.335a2.267,2.267,0,0,1-1.915,2.547" transform="translate(-143.103 -1444.563)" fill="#fff"/>
    <path id="Path_893" data-name="Path 893" d="M173.963,1722.237a35.461,35.461,0,0,1-4.888-.337,2.61,2.61,0,0,1-2.168-3.207l.192-.79c.912-3.773,2.438-10.088,4.948-13.141a.333.333,0,0,1,.316-.119.338.338,0,0,1,.261.214l.4,1.057.552-1a1.144,1.144,0,0,1,.853-.581l1.985-.253a1.15,1.15,0,0,1,1.26.9l.142.677.765-1.254a.338.338,0,0,1,.625.152l.537,7.4a30.458,30.458,0,0,0,.7,4.656l.541,2.334a2.618,2.618,0,0,1-2.2,2.958,34.633,34.633,0,0,1-4.827.332m4.779-.667h0Zm-6.536-15.906c-2.2,3.088-3.6,8.87-4.451,12.4l-.192.792a1.935,1.935,0,0,0,1.6,2.377,34.66,34.66,0,0,0,9.527,0,1.934,1.934,0,0,0,1.628-2.169l-.535-2.3a31.125,31.125,0,0,1-.72-4.76l-.461-6.35-.661,1.083a.338.338,0,0,1-.619-.107l-.316-1.512a.462.462,0,0,0-.513-.369l-1.984.253a.467.467,0,0,0-.348.237l-.906,1.64a.338.338,0,0,1-.612-.044Z" transform="translate(-141.243 -1442.701)"/>
    <path id="Path_894" data-name="Path 894" d="M188.473,1801.076a19.8,19.8,0,0,1-4.425-.516.338.338,0,1,1,.151-.658,16.093,16.093,0,0,0,8.282-.047.338.338,0,0,1,.23.635,13.412,13.412,0,0,1-4.238.586" transform="translate(-155.596 -1523.776)"/>
    <path id="Path_895" data-name="Path 895" d="M196.571,1765.628a.338.338,0,0,1-.011-.675l4.739-.157a.327.327,0,0,1,.349.326.338.338,0,0,1-.326.349l-4.739.157h-.012" transform="translate(-166.135 -1494.109)"/>
    <path id="Path_896" data-name="Path 896" d="M355.592,1653.658l.758,10.982h6.083l.283-10.982Z" transform="translate(-301.051 -1400.02)" fill="#fff"/>
    <path id="Path_897" data-name="Path 897" d="M360.568,1663.114h-6.083a.338.338,0,0,1-.337-.315l-.758-10.982a.338.338,0,0,1,.337-.361h7.123a.338.338,0,0,1,.338.346l-.283,10.982a.338.338,0,0,1-.338.329m-5.768-.676h5.438l.265-10.307h-6.415Z" transform="translate(-299.186 -1398.156)"/>
    <path id="Path_898" data-name="Path 898" d="M350.17,1704.3a2.208,2.208,0,0,0,1.7,2.187c3.5.819,11.375,2.643,13.622,2.98,2.917.437,6.5-.462,8.042-2.179s-3.451-5.817-5.82-7.309c-3.519-2.216-6.9-6.6-8.318-6.793s-4.064,3.943-4.064,3.943L351,1695.3a54.256,54.256,0,0,0-.831,9" transform="translate(-296.46 -1433.476)" fill="#fff"/>
    <path id="Path_899" data-name="Path 899" d="M365.145,1708.052a10.619,10.619,0,0,1-1.574-.114c-2.275-.341-10.3-2.2-13.649-2.985a2.559,2.559,0,0,1-1.956-2.52,55.227,55.227,0,0,1,.838-9.063.338.338,0,0,1,.463-.244l4.065,1.719c.7-1.06,2.819-4.052,4.24-3.856.819.114,1.972,1.216,3.569,2.74a33.3,33.3,0,0,0,4.883,4.1c1.908,1.2,5.945,4.383,6.248,6.551a1.505,1.505,0,0,1-.357,1.269c-1.31,1.46-4.081,2.4-6.769,2.4m-16.5-5.61a1.879,1.879,0,0,0,1.435,1.853c3.338.782,11.345,2.638,13.6,2.975,2.906.436,6.307-.474,7.74-2.071a.847.847,0,0,0,.191-.724c-.233-1.669-3.6-4.6-5.939-6.073a33.8,33.8,0,0,1-4.989-4.185c-1.333-1.273-2.592-2.476-3.195-2.56-.829-.111-2.682,2.147-3.733,3.791a.338.338,0,0,1-.416.129l-3.938-1.664a56.9,56.9,0,0,0-.75,8.53" transform="translate(-294.594 -1431.617)"/>
    <path id="Path_900" data-name="Path 900" d="M377.642,1762.464c-5.3,0-12.149-2.424-14.646-3.382a.338.338,0,0,1,.242-.631c2.362.907,14.375,5.278,18.878,2.327a.338.338,0,1,1,.37.565,8.909,8.909,0,0,1-4.843,1.121" transform="translate(-307.136 -1488.72)"/>
    <path id="Path_901" data-name="Path 901" d="M413.762,1728.43a.338.338,0,0,1-.236-.579l2.52-2.468a.338.338,0,1,1,.472.483l-2.52,2.468a.337.337,0,0,1-.236.1" transform="translate(-350.013 -1460.662)"/>
    <path id="Path_902" data-name="Path 902" d="M173.1,1177.585s-1.885,34.332-2.871,46.184,2.307,30.9,2.307,30.9l9.389-.5s.644-23.164,1.341-29.6c0,0,3.966-8.72,5.142-16.5s5.18-20.062,5.18-20.062,3.252,61.314,3.565,66.131c0,0,7.363.33,10-1.342,0,0,4.677-22.357,4.006-34.521s.066-42.386.066-42.386Z" transform="translate(-143.966 -995.543)" fill="#fff"/>
    <path id="Path_903" data-name="Path 903" d="M170.685,1253.142a.338.338,0,0,1-.333-.28c-.033-.191-3.289-19.23-2.31-30.988.975-11.712,2.852-45.832,2.871-46.175a.337.337,0,0,1,.322-.319l38.127-1.682a.319.319,0,0,1,.251.1.337.337,0,0,1,.1.25c-.008.3-.73,30.347-.067,42.359.666,12.068-3.966,34.385-4.012,34.609a.337.337,0,0,1-.15.216c-2.7,1.709-9.894,1.406-10.2,1.394a.339.339,0,0,1-.322-.316c-.279-4.289-2.919-53.973-3.466-64.276a148.725,148.725,0,0,0-4.607,18.235c-1.123,7.429-4.82,15.809-5.146,16.536-.686,6.419-1.327,29.285-1.333,29.516a.339.339,0,0,1-.32.328l-9.39.5h-.018m.885-77.1c-.19,3.442-1.929,34.762-2.855,45.888-.9,10.872,1.845,28.06,2.253,30.521l8.778-.464c.08-2.786.687-23.345,1.334-29.312a.34.34,0,0,1,.028-.1c.04-.087,3.96-8.768,5.115-16.408,1.166-7.716,5.153-19.993,5.193-20.116a.338.338,0,0,1,.659.087c.032.6,3.142,59.229,3.546,65.822,1.377.037,7.075.106,9.383-1.227.4-1.939,4.6-22.816,3.97-34.29-.625-11.32-.023-38.588.057-42.051Z" transform="translate(-142.113 -993.675)"/>
    <path id="Path_904" data-name="Path 904" d="M227.27,1491.722H224.4a.338.338,0,0,1,0-.676h2.87a.338.338,0,0,1,0,.676" transform="translate(-189.695 -1262.349)"/>
    <path id="Path_905" data-name="Path 905" d="M376.405,1519.048H376.4a.338.338,0,0,1-.331-.344c.1-5.679,6.29-15.852,6.553-16.282a.338.338,0,0,1,.576.353c-.063.1-6.354,10.445-6.454,15.942a.338.338,0,0,1-.338.331" transform="translate(-318.386 -1271.844)"/>
    <path id="Path_906" data-name="Path 906" d="M424.061,779.36c.521-.041,4.848,7.388,6.883,10.935a2.048,2.048,0,0,0,2.855.728l15.91-9.822a10.46,10.46,0,0,0,3.253-3.155c1.329-2.025,2.119-4.083,3.9-5.521,1.447-1.17,2.912-2.47,3.35-2.81.274-.213,1.551.7.589,2.308-.3.5-1.4,1.5-1.7,1.956a2.052,2.052,0,0,0,.054,2.384,3.422,3.422,0,0,1,.406,3.545,5.044,5.044,0,0,1-4.314,3.159,2.469,2.469,0,0,0-1.579.832l-14.682,16.824a7.081,7.081,0,0,1-9.037,1.4c-4.774-2.916-10.919-8.792-15.347-16.219Z" transform="translate(-351.009 -651.631)" fill="#fff"/>
    <path id="Path_907" data-name="Path 907" d="M431.774,801.631a7.4,7.4,0,0,1-3.867-1.092A49.779,49.779,0,0,1,412.447,784.2a.338.338,0,0,1,.1-.451l9.46-6.543a.338.338,0,0,1,.166-.059c.319-.022.8-.056,7.2,11.1a1.71,1.71,0,0,0,2.384.609l15.91-9.822a10.182,10.182,0,0,0,3.148-3.053c.384-.585.726-1.18,1.057-1.755a12.785,12.785,0,0,1,2.911-3.843c.835-.676,1.661-1.381,2.324-1.948.47-.4.841-.719,1.032-.866.239-.186.608-.115.94.178a1.952,1.952,0,0,1,.146,2.57,8.38,8.38,0,0,1-.97,1.132,8.8,8.8,0,0,0-.741.837,1.7,1.7,0,0,0,.039,1.99,3.754,3.754,0,0,1,.454,3.876,5.372,5.372,0,0,1-4.589,3.371,2.135,2.135,0,0,0-1.363.718l-14.682,16.824a7.422,7.422,0,0,1-5.6,2.555m-18.585-17.5a48.973,48.973,0,0,0,15.07,15.833,6.736,6.736,0,0,0,8.606-1.331l14.682-16.824a2.805,2.805,0,0,1,1.794-.945,4.723,4.723,0,0,0,4.038-2.947,3.093,3.093,0,0,0-.358-3.214,2.379,2.379,0,0,1-.069-2.778,8.774,8.774,0,0,1,.814-.929,8.419,8.419,0,0,0,.88-1.014,1.459,1.459,0,0,0,.2-1.439.812.812,0,0,0-.356-.377c-.194.156-.529.442-.94.794-.632.54-1.5,1.278-2.338,1.959a12.273,12.273,0,0,0-2.75,3.655c-.336.584-.683,1.187-1.078,1.789a10.858,10.858,0,0,1-3.358,3.256l-15.91,9.822a2.385,2.385,0,0,1-3.325-.847c-4.035-7.033-6.014-10.092-6.587-10.695Z" transform="translate(-349.146 -649.76)"/>
    <path id="Path_908" data-name="Path 908" d="M120.164,770.084s-1.058-19.559,13.727-25.053c11.449-4.255,26.07-2.419,30.652-.83,11.282,3.914,16.835,18.82,16.835,18.82l-13.222,1.863s3.985,42.829,2.257,52.381c0,0-10.64,1.249-15.153-.54s-19.352-4.3-26.445-1.015L130.1,769.9Z" transform="translate(-101.719 -628.538)" fill="#ff5700"/>
    <path id="Path_909" data-name="Path 909" d="M238.543,1073.914a.338.338,0,0,1-.059-.67c16.887-3,21.818-14.77,21.866-14.889a.338.338,0,0,1,.627.252c-.049.122-5.1,12.228-22.375,15.3a.338.338,0,0,1-.059.005" transform="translate(-201.67 -895.846)" fill="#fff"/>
    <path id="Path_910" data-name="Path 910" d="M326.516,891.122H304.854l6.785-24.356H333.3Z" transform="translate(-258.095 -733.821)" fill="#fff"/>
    <path id="Path_911" data-name="Path 911" d="M324.653,889.595H302.991a.338.338,0,0,1-.325-.429l6.785-24.356a.337.337,0,0,1,.325-.247h21.662a.338.338,0,0,1,.325.429l-6.785,24.356a.337.337,0,0,1-.325.247m-21.217-.676H324.4l6.6-23.681h-20.96Z" transform="translate(-256.232 -731.956)"/>
    <path id="Path_912" data-name="Path 912" d="M136.993,920.575l9.526-.432s.072,8.075.931,8.219a60.636,60.636,0,0,0,13.649.032,3.364,3.364,0,0,0,2.878-2.744,4.826,4.826,0,0,1,2.287-3.3c1.442-.893.02,1.917,1.368,3.727.725.972,3.018.541,6.146-.188s3.922,2.635.417,4.669a16.506,16.506,0,0,1-7.427,2.215c-2.414.514-23.758,3.881-27.053,2.079-2.545-1.393-2.722-14.275-2.722-14.275" transform="translate(-115.981 -779.011)" fill="#fff"/>
    <path id="Path_913" data-name="Path 913" d="M141.99,933.846a10.658,10.658,0,0,1-4.3-.571c-2.642-1.445-2.879-13.228-2.9-14.567a.338.338,0,0,1,.323-.342l9.526-.432a.318.318,0,0,1,.247.092.338.338,0,0,1,.106.242c.03,3.429.308,7.373.705,7.9a60.1,60.1,0,0,0,13.5.021,3.018,3.018,0,0,0,2.586-2.471,5.194,5.194,0,0,1,2.441-3.526.894.894,0,0,1,.887-.152c.357.2.353.671.348,1.323a4.276,4.276,0,0,0,.583,2.641c.609.817,2.986.341,5.8-.315,1.712-.4,2.667.325,2.988,1.137.435,1.1-.107,2.866-2.326,4.153a14.875,14.875,0,0,1-6.619,2.134,9.12,9.12,0,0,0-.908.12c-1.207.257-15.363,2.616-22.983,2.616m-6.518-14.82c.077,3.748.652,12.623,2.54,13.656,3.157,1.726,24.361-1.589,26.821-2.113a9.68,9.68,0,0,1,.98-.131,14.266,14.266,0,0,0,6.348-2.046c1.873-1.086,2.369-2.482,2.037-3.319-.278-.7-1.125-.98-2.207-.728-3.263.76-5.638,1.21-6.494.061a4.888,4.888,0,0,1-.717-3.051,4.978,4.978,0,0,0-.022-.688,1.334,1.334,0,0,0-.181.1,4.477,4.477,0,0,0-2.132,3.077,3.691,3.691,0,0,1-3.169,3.017,60.7,60.7,0,0,1-13.745-.035c-.278-.046-1.115-.187-1.209-8.2Z" transform="translate(-114.117 -777.14)"/>
    <path id="Path_914" data-name="Path 914" d="M277.867,647.46s-2.467-1.518-2.442-2.4l-.7-4.555a.964.964,0,0,1,.638-.928l2.917-1a.89.89,0,0,0,.586-.9l-.228-3.62,1.143-1.012a.224.224,0,0,0,.024-.309l-1.806-2.2c-.591-.831-1.183-2.821-1.667-2.685,0,0-10.29-1.189-10.792,4a3.151,3.151,0,0,0,.589,2.115l.911,1.285a6.586,6.586,0,0,1,1.235,4.453c-.034.328-.461,2.443-.747,3.841a3.364,3.364,0,0,1-1.243,1.992c-.8.619-1.782,1.408-1.623,1.459a15.228,15.228,0,0,0,2.938,1.579,10.849,10.849,0,0,0,9.78-.812Z" transform="translate(-224.051 -531.448)" fill="#fff"/>
    <path id="Path_915" data-name="Path 915" d="M269.763,647.817a10.985,10.985,0,0,1-4.188-.824,15.438,15.438,0,0,1-3.009-1.619.382.382,0,0,1-.15-.232c-.04-.231-.063-.358,1.766-1.767a3.029,3.029,0,0,0,1.118-1.792c.613-3,.728-3.672.742-3.808a6.232,6.232,0,0,0-1.174-4.223l-.911-1.285a3.484,3.484,0,0,1-.65-2.343,3.77,3.77,0,0,1,1.45-2.648c2.866-2.316,8.98-1.735,9.663-1.661.53-.076.883.677,1.322,1.619a8.687,8.687,0,0,0,.635,1.212l1.792,2.182a.559.559,0,0,1-.062.776l-1.02.9.217,3.455a1.232,1.232,0,0,1-.811,1.237l-2.92,1a.624.624,0,0,0-.41.583l.7,4.53a.385.385,0,0,1,0,.061c-.011.414,1.171,1.424,2.282,2.108a.338.338,0,0,1,0,.576l-.489.3a11.333,11.333,0,0,1-5.9,1.66m-6.523-2.8a16.055,16.055,0,0,0,2.593,1.352,10.542,10.542,0,0,0,9.475-.788l.029-.018c-.816-.549-2.129-1.557-2.145-2.371l-.7-4.53a.354.354,0,0,1,0-.046,1.3,1.3,0,0,1,.863-1.253l2.92-1a.552.552,0,0,0,.359-.556l-.228-3.62a.339.339,0,0,1,.113-.274l1.061-.939-1.736-2.115a8.937,8.937,0,0,1-.711-1.337,5.692,5.692,0,0,0-.676-1.226.316.316,0,0,1-.057,0c-.064-.008-6.463-.715-9.215,1.51a3.079,3.079,0,0,0-1.2,2.187,2.811,2.811,0,0,0,.528,1.887l.911,1.285a6.907,6.907,0,0,1,1.3,4.682c-.027.264-.28,1.568-.753,3.875a3.7,3.7,0,0,1-1.367,2.192c-.776.6-1.162.927-1.355,1.106" transform="translate(-222.157 -529.558)"/>
    <path id="Path_916" data-name="Path 916" d="M249.035,575.032c-2.345-.12.62,2.3-8.066-.2-3.459-.994-1.682,3.064-2.58,2.809-3.317-.944-3.2-.915-4.815-.475-1.068.291-1.749,2.288-1.536,3.775.281,1.963,2.482,5.079,4.454,8.373,1.021,1.706,2.829,1.86,5.015-.678.233-.27-.957-1.862-.336-2.548,1.613-1.784,2.331.911,3.633.079a19.484,19.484,0,0,0,3.089-2.522c1.6-1.461,4.285.813,5.211-2.476.483-1.715-.858-5.971-4.069-6.136" transform="translate(-196.415 -486.531)"/>
    <path id="Path_917" data-name="Path 917" d="M294.879,662.094a4.3,4.3,0,0,1-3.842-2.249l-.8-1.549a.338.338,0,1,1,.6-.312l.8,1.55a3.7,3.7,0,0,0,4.257,1.751l1.458-.436a.338.338,0,1,1,.194.647l-1.467.439a4.627,4.627,0,0,1-1.2.159" transform="translate(-245.684 -556.908)"/>
    <path id="Path_918" data-name="Path 918" d="M284.934,589.731a.338.338,0,0,1-.333-.284c-.025-.156-.589-3.842,1.475-6.218a6.162,6.162,0,0,1,5.035-1.9.338.338,0,0,1-.006.676H291.1a5.514,5.514,0,0,0-4.511,1.669c-1.857,2.135-1.326,5.636-1.32,5.671a.338.338,0,0,1-.28.387.341.341,0,0,1-.054,0" transform="translate(-240.874 -492.158)" fill="#fff"/>
    <path id="Path_919" data-name="Path 919" d="M287.824,632.624a2.717,2.717,0,0,0-2.364-3.093c-.166-.019-.782-.034-.943-.024-1.314.082-1.992,1.111-2.178,2.474-.2,1.469.4,2.843,1.822,3.1.059.011.479.042.54.042a2.929,2.929,0,0,0,3.124-2.5" transform="translate(-239.002 -532.95)" fill="#fff"/>
    <path id="Path_920" data-name="Path 920" d="M282.837,633.6h-.013c-.072,0-.514-.032-.6-.048-1.5-.276-2.342-1.675-2.1-3.482.229-1.673,1.137-2.68,2.491-2.765.187-.011.825,0,1,.026a3.011,3.011,0,0,1,2.046,1.154,3.078,3.078,0,0,1,.614,2.321,3.272,3.272,0,0,1-3.446,2.8m-.028-5.624c-.064,0-.116,0-.147,0-1.306.081-1.735,1.232-1.864,2.183-.162,1.185.254,2.487,1.548,2.726.057.008.422.036.481.037h.012a2.589,2.589,0,0,0,2.774-2.211,2.407,2.407,0,0,0-.479-1.815,2.341,2.341,0,0,0-1.59-.9c-.111-.013-.5-.025-.736-.025m3.139,2.783h0Z" transform="translate(-237.126 -531.088)"/>
    <path id="Path_921" data-name="Path 921" d="M277.135,632.615a2.726,2.726,0,0,0-2.429-3.049,2.834,2.834,0,0,0-3.069,2.506,2.726,2.726,0,0,0,2.429,3.049,2.834,2.834,0,0,0,3.069-2.506" transform="translate(-229.958 -532.991)" fill="#fff"/>
    <path id="Path_922" data-name="Path 922" d="M272.472,633.605a3.055,3.055,0,0,1-2.374-1.132,3.084,3.084,0,0,1-.662-2.307,3.174,3.174,0,0,1,3.438-2.8,3.018,3.018,0,0,1,2.069,1.117,3.082,3.082,0,0,1,.662,2.308,3.183,3.183,0,0,1-3.133,2.818m.1-5.582a2.5,2.5,0,0,0-2.462,2.22,2.413,2.413,0,0,0,.517,1.806,2.351,2.351,0,0,0,1.61.869,2.5,2.5,0,0,0,2.7-2.208,2.415,2.415,0,0,0-.517-1.806,2.35,2.35,0,0,0-1.61-.869c-.08-.008-.159-.012-.238-.012m2.7,2.725h0Z" transform="translate(-228.092 -531.124)"/>
    <path id="Path_923" data-name="Path 923" d="M327.119,671.161a1.616,1.616,0,1,1-1.616-1.627,1.621,1.621,0,0,1,1.616,1.627" transform="translate(-274.209 -566.841)"/>
  </g>
</svg>
