<svg id="logo-color" xmlns="http://www.w3.org/2000/svg" xmlns:xlink="http://www.w3.org/1999/xlink" width="178.192" height="88" viewBox="0 0 178.192 88">
  <defs>
    <clipPath id="clip-path">
      <rect id="Rectangle_1" data-name="Rectangle 1" width="178.192" height="88" fill="none"/>
    </clipPath>
  </defs>
  <g id="Group_1" data-name="Group 1" clip-path="url(#clip-path)">
    <path id="Path_1" data-name="Path 1" d="M148.15,112.107l-.323.323,1.627,4.854a39.282,39.282,0,0,1,1.658,8.389,29.377,29.377,0,0,1-.117,6.041,25.049,25.049,0,0,1-1.463,5.874,16.1,16.1,0,0,1-1.7,3.463,1.676,1.676,0,0,1-.482.5c.516.367,1.043.754,1.558,1.162a28.451,28.451,0,0,0,1.7-3.43,28.854,28.854,0,0,0,.328-21.139,31.148,31.148,0,0,0-2.791-6.031" transform="translate(-91.113 -69.32)" fill="#b50623"/>
    <path id="Path_2" data-name="Path 2" d="M46.31,7.77l-8.666,25.3a.3.3,0,0,0,.517.29l25.5-30.844A1.534,1.534,0,0,0,62.348.006L55.487.6A10.669,10.669,0,0,0,46.31,7.77" transform="translate(-23.266 0)" fill="#b50623"/>
    <path id="Path_3" data-name="Path 3" d="M16.457,61.4a.3.3,0,0,1-.569-.163l3.546-25.56a10.67,10.67,0,0,1,7.557-8.759l2.058-.6a.787.787,0,0,1,.967,1.011L20.722,54.439A28.9,28.9,0,0,0,16.457,61.4" transform="translate(-9.822 -16.248)" fill="#b50623"/>
    <path id="Path_4" data-name="Path 4" d="M2.876,93.067.055,65.365A10.669,10.669,0,0,1,5.441,54.984l1.271-.714a.787.787,0,0,1,1.166.794L4.185,81.679l-.006.006a28.738,28.738,0,0,0-1.3,11.381" transform="translate(0 -33.493)" fill="#002069"/>
    <path id="Path_5" data-name="Path 5" d="M64.84,46.232l-.2.2c.281.618.669,1.6.719,1.717.432,1.048.824,2.1,1.173,3.177a39.35,39.35,0,0,1,1.8,8.351,29.377,29.377,0,0,1-.008,6.047,25.081,25.081,0,0,1-1.356,5.9,15.758,15.758,0,0,1-1.638,3.494,1.689,1.689,0,0,1-.483.516,1.988,1.988,0,0,1-1.014.175,18.325,18.325,0,0,0-6.023,1.023,10.51,10.51,0,0,0-2.046.915c-2.238,1.348-3.81,3.61-5.507,5.531-.166.191-.341.374-.507.566-3.427,3.818-8.576,3.718-11.288-2.271a39.719,39.719,0,0,1-2.712-8.484c-1.838-8.9-1-18.6,1.115-27.915,3.6-15.879,10.9-30.627,14.981-38.354A.7.7,0,0,0,50.7,6.048L19.024,44.361a28.64,28.64,0,0,0-6.513,20.812l.1.948.008.067A28.791,28.791,0,0,0,41.74,91.574,28.768,28.768,0,0,0,64.182,80.211a28.693,28.693,0,0,0,5.889-17.534A28.84,28.84,0,0,0,64.84,46.232m-4.326,36.6a1.383,1.383,0,1,1-.183-1.946,1.385,1.385,0,0,1,.183,1.946" transform="translate(-7.671 -3.578)" fill="#002069"/>
    <path id="Path_6" data-name="Path 6" d="M206.47,19.859h-1.7V16.951h8.042c3.353,0,5.763,1.729,5.763,4.794a4.337,4.337,0,0,1-2.253,3.982v.053a4.36,4.36,0,0,1,2.986,4.374c0,3.72-2.96,5.4-6.418,5.4h-4.638c-1.23,0-1.78-.524-1.78-1.781Zm6.365,4.689a2.194,2.194,0,0,0,2.254-2.384,2.133,2.133,0,0,0-2.306-2.305H209.9v4.689Zm-2.357,8.095h2.672a2.482,2.482,0,0,0,2.62-2.7,2.488,2.488,0,0,0-2.62-2.672H209.9v4.794a.524.524,0,0,0,.577.576" transform="translate(-126.616 -10.481)" fill="#002069"/>
    <path id="Path_7" data-name="Path 7" d="M248.358,20.435a.524.524,0,0,0-.577-.577h-1.127V16.95h3.353c1.257,0,1.782.551,1.782,1.782V28.818a3.877,3.877,0,0,0,7.754-.026V18.732c0-1.232.523-1.782,1.781-1.782h3.353v2.908h-1.126a.524.524,0,0,0-.577.577v8.488c0,4.113-2.908,6.942-7.282,6.942-4.428,0-7.335-2.829-7.335-6.942Z" transform="translate(-152.517 -10.481)" fill="#002069"/>
    <path id="Path_8" data-name="Path 8" d="M303.8,27.429l-4.4-6.942c-.341-.524-.5-.629-1.075-.629h-.6V16.95h1.755a2.279,2.279,0,0,1,2.437,1.363L304.38,22.4a23.553,23.553,0,0,1,1.127,2.1h.052s.472-.995,1.127-2.1l2.436-4.086a2.262,2.262,0,0,1,2.437-1.363h1.755v2.908h-.6c-.576,0-.733.1-1.074.629l-4.4,6.942V35.55H303.8Z" transform="translate(-184.097 -10.481)" fill="#002069"/>
    <path id="Path_9" data-name="Path 9" d="M360.393,32.643h1.86V19.859h-1.86V16.951h6.969v2.908H365.5V32.643h1.86v2.908h-6.969Z" transform="translate(-222.846 -10.482)" fill="#002069"/>
    <path id="Path_10" data-name="Path 10" d="M390.109,19.859h-2.855a.524.524,0,0,0-.577.577v1.126h-3.012V18.627c0-1.23.419-1.676,1.677-1.676h12.968c1.257,0,1.677.446,1.677,1.676v2.934h-3.013V20.436a.525.525,0,0,0-.577-.577h-2.855V35.551h-3.432Z" transform="translate(-237.236 -10.481)" fill="#002069"/>
    <path id="Path_11" data-name="Path 11" d="M206.54,93.572h-1.7V90.664h10.609c1.258,0,1.782.551,1.782,1.782v2.828h-3.092V94.149a.524.524,0,0,0-.576-.577h-3.589v5.265h5.947v2.908h-5.947v7.519H206.54Z" transform="translate(-126.659 -56.061)" fill="#002069"/>
    <path id="Path_12" data-name="Path 12" d="M246.776,93.572h0V90.664H253.4c3.405,0,5.789,2.1,5.789,5.606,0,3.353-2.305,4.742-3.091,4.9v.052a2.134,2.134,0,0,1,.916.943l1.808,3.589c.288.551.734.6,1.309.6h.341v2.908h-1.808c-1.388,0-1.991-.21-2.593-1.388l-2.384-4.689c-.393-.734-.786-.864-1.755-.864h-1.729v6.942h-3.432Zm6.157,5.816a2.6,2.6,0,0,0,2.751-2.934,2.56,2.56,0,0,0-2.7-2.882h-2.776v5.816Z" transform="translate(-152.592 -56.061)" fill="#002069"/>
    <path id="Path_13" data-name="Path 13" d="M296.2,89.842a9.4,9.4,0,0,1,9.614,9.483,9.615,9.615,0,1,1-19.229,0,9.4,9.4,0,0,1,9.614-9.483m0,16.032a6.243,6.243,0,0,0,6.052-6.549,6.056,6.056,0,1,0-12.1,0,6.243,6.243,0,0,0,6.052,6.549" transform="translate(-177.208 -55.553)" fill="#002069"/>
    <path id="Path_14" data-name="Path 14" d="M341.638,106.356h.811c.367,0,.55-.21.577-.576l1.2-15.116h3.563l3.825,8.855c.445,1.074.917,2.489.917,2.489h.052s.471-1.415.917-2.489l3.824-8.855h3.563L362.1,105.78c.026.366.21.576.576.576h.812v2.908h-2.96c-1.231,0-1.65-.524-1.755-1.781l-.629-8.278a26.48,26.48,0,0,1-.026-2.882h-.053a30.441,30.441,0,0,1-1.022,2.882l-3.091,6.864h-2.777L348.082,99.2A29.93,29.93,0,0,1,347.06,96.3h-.052a26.856,26.856,0,0,1-.027,2.908l-.6,8.278c-.1,1.258-.55,1.781-1.781,1.781h-2.96Z" transform="translate(-211.249 -56.061)" fill="#002069"/>
    <path id="Path_15" data-name="Path 15" d="M209.976,167.289h-2.855a.524.524,0,0,0-.576.577v1.127h-3.013v-2.934c0-1.232.419-1.677,1.677-1.677h12.967c1.257,0,1.676.445,1.676,1.677v2.934H216.84v-1.127a.525.525,0,0,0-.577-.577h-2.855v15.692h-3.432Z" transform="translate(-125.852 -101.644)" fill="#002069"/>
    <path id="Path_16" data-name="Path 16" d="M252.185,167.866a.525.525,0,0,0-.577-.577h-1.127v-2.907h3.353c1.257,0,1.782.55,1.782,1.78v10.087a3.877,3.877,0,0,0,7.754-.027V166.162c0-1.231.523-1.78,1.781-1.78H268.5v2.907h-1.126a.524.524,0,0,0-.577.577v8.488c0,4.113-2.908,6.942-7.282,6.942-4.428,0-7.335-2.829-7.335-6.942Z" transform="translate(-154.883 -101.644)" fill="#002069"/>
    <path id="Path_17" data-name="Path 17" d="M303.251,167.289h0v-2.907h6.628c3.406,0,5.789,2.1,5.789,5.605,0,3.353-2.305,4.742-3.091,4.9v.052a2.138,2.138,0,0,1,.917.943l1.807,3.59c.289.55.734.6,1.31.6h.34v2.908h-1.807c-1.388,0-1.991-.21-2.594-1.388l-2.383-4.689c-.393-.734-.786-.864-1.755-.864h-1.729v6.942h-3.432Zm6.156,5.816a2.6,2.6,0,0,0,2.751-2.934,2.56,2.56,0,0,0-2.7-2.882h-2.777v5.816Z" transform="translate(-187.512 -101.644)" fill="#002069"/>
    <path id="Path_18" data-name="Path 18" d="M358.937,179.47l-2.358-4.742c-.576-1.126-1.2-1.284-1.2-1.284v-.052a3.39,3.39,0,0,0,1.179-1.363l4.192-7.648h-3.772l-3.746,6.968c-.314.55-.813.6-1.493.6h-1.309v-5.79c0-1.23-.525-1.78-1.782-1.78h-1.65v18.6h3.432v-8.121h1.1c.733,0,1.309.026,1.624.629l3.038,6.1c.6,1.2,1.206,1.388,2.594,1.388h1.965v-2.908h-.5c-.6,0-1.048-.052-1.31-.6" transform="translate(-214.559 -101.643)" fill="#002069"/>
    <path id="Path_19" data-name="Path 19" d="M391.109,167.289h0v-2.907h9.536c1.231,0,1.781.55,1.781,1.78v2.83h-3.117v-1.127a.524.524,0,0,0-.576-.577h-4.192v4.873h6.025v2.908h-6.025V179.5a.524.524,0,0,0,.576.576h4.3a.524.524,0,0,0,.577-.576v-1.127h3.117V181.2c0,1.258-.55,1.781-1.782,1.781H392.89c-1.257,0-1.781-.524-1.781-1.781Z" transform="translate(-241.839 -101.644)" fill="#002069"/>
    <path id="Path_20" data-name="Path 20" d="M432.124,174.86l-4.4-6.943c-.34-.524-.5-.629-1.074-.629h-.6v-2.907H427.8a2.277,2.277,0,0,1,2.436,1.361l2.463,4.088a23.3,23.3,0,0,1,1.127,2.1h.052s.472-1,1.127-2.1l2.436-4.088a2.261,2.261,0,0,1,2.436-1.361h1.756v2.907h-.6c-.577,0-.734.1-1.074.629l-4.4,6.943v8.121h-3.432Z" transform="translate(-263.442 -101.643)" fill="#002069"/>
  </g>
</svg>
