<svg xmlns="http://www.w3.org/2000/svg" xmlns:xlink="http://www.w3.org/1999/xlink" width="118.72" height="118.72" viewBox="0 0 118.72 118.72">
  <defs>
    <filter id="Union_1" x="0" y="0" width="118.72" height="118.72" filterUnits="userSpaceOnUse">
      <feOffset dy="3" input="SourceAlpha"/>
      <feGaussianBlur stdDeviation="3" result="blur"/>
      <feFlood flood-opacity="0.349"/>
      <feComposite operator="in" in2="blur"/>
      <feComposite in="SourceGraphic"/>
    </filter>
    <filter id="Subtraction_28">
      <feOffset input="SourceAlpha"/>
      <feGaussianBlur stdDeviation="1.5" result="blur-2"/>
      <feFlood flood-opacity="0.302" result="color"/>
      <feComposite operator="out" in="SourceGraphic" in2="blur-2"/>
      <feComposite operator="in" in="color"/>
      <feComposite operator="in" in2="SourceGraphic"/>
    </filter>
  </defs>
  <g id="Group_6514" data-name="Group 6514" transform="translate(-288.889 -183.686)">
    <g id="Group_6505" data-name="Group 6505" transform="translate(297.889 189.686)">
      <g id="Group_6503" data-name="Group 6503" transform="translate(0 0)">
        <g id="Group_6483" data-name="Group 6483" transform="translate(0 0)">
          <g transform="matrix(1, 0, 0, 1, -9, -6)" filter="url(#Union_1)">
            <path id="Union_1-2" data-name="Union 1" d="M19.456,67.038l.644.671a8.576,8.576,0,0,0-1.551-1.149q-.3-.163-.594-.331a11.337,11.337,0,0,0-6.494-1.2c-5.4.582-7.4,2.677-7.4,2.677a34.874,34.874,0,0,0,2-7.744,13.5,13.5,0,0,0-.648-5.728A35.087,35.087,0,0,1,0,35.465,35.757,35.757,0,1,1,35.755,70.929,35.841,35.841,0,0,1,19.456,67.038Z" transform="translate(9 56.57) rotate(-45)" fill="#fff"/>
          </g>
          <g data-type="innerShadowGroup">
            <path id="Subtraction_28-2" data-name="Subtraction 28" d="M30.814,61.627A30.822,30.822,0,0,1,18.819,2.421,30.822,30.822,0,0,1,42.807,59.206,30.62,30.62,0,0,1,30.814,61.627Zm0-58.139A27.325,27.325,0,1,0,58.139,30.814,27.356,27.356,0,0,0,30.814,3.488Z" transform="translate(19.767 19.547)" fill="#01502a"/>
            <g transform="matrix(1, 0, 0, 1, -9, -6)" filter="url(#Subtraction_28)">
              <path id="Subtraction_28-3" data-name="Subtraction 28" d="M30.814,61.627A30.822,30.822,0,0,1,18.819,2.421,30.822,30.822,0,0,1,42.807,59.206,30.62,30.62,0,0,1,30.814,61.627Zm0-58.139A27.325,27.325,0,1,0,58.139,30.814,27.356,27.356,0,0,0,30.814,3.488Z" transform="translate(28.77 25.55)" fill="#fff"/>
            </g>
          </g>
        </g>
      </g>
    </g>
    <g id="Group_6511" data-name="Group 6511" transform="translate(24.326 211.354)">
      <path id="Path_15842" data-name="Path 15842" d="M353.18,93.023a.573.573,0,0,0-.445-.4l-.481-.036c-.852-.064-1.884-.083-2.613-.158a20.823,20.823,0,0,0-4.406.224,47.964,47.964,0,0,1-5.595.306,8.847,8.847,0,0,1-2.092-.2c-.433-.1-2.713-.095-3.452-.156-.434-.036-1.542-.1-3.027-.176l-1.036-.049a.782.782,0,0,0-.8.845c.017.486-.013,1.909.032,3.2l.007.2c.044,1.287-.024,2.725-.007,3.2a1.181,1.181,0,0,0,.564,1.041,1.18,1.18,0,0,1,.33.069c.214.071.865.418,1.11.519s.646-.3.833-.438a35.78,35.78,0,0,1,4.932-3.307,70.19,70.19,0,0,1,6.875-2.953,2.9,2.9,0,0,1,2.051.328,25.536,25.536,0,0,0,3.695.872c.291.1,1.342.375,1.68.5a3.214,3.214,0,0,0,1.029-.02l.342-.044a.457.457,0,0,0,.33-.4l.04-.466c.044-.534.1-1.483.1-2v-.509" transform="translate(-17.552 -75.812)" fill="#004f9f" fill-rule="evenodd"/>
      <path id="Path_15843" data-name="Path 15843" d="M312.862,134.079c-.393.347-.442.824-.107,1.059a.887.887,0,0,0,.987.1l.534-.423a21.024,21.024,0,0,1,1.915-1.371c1.257-.765,3.289-1.746,5.175-2.789s4.03-2.1,4.795-2.633l.766-.534a1.262,1.262,0,0,1,1.036-.192l.844.323a5.528,5.528,0,0,0,1.653.526,11.144,11.144,0,0,1,1.282.023,24.7,24.7,0,0,1,2.47,1.378c.9.563,2.313,1.459,3.452,2.026s1.053.394,1.391.446l.337.056c.685.18.861.063,1.111-.267l.343-.485c.144-.2.267-.382.334-.5.224-.4.369-.732.267-.973a6.756,6.756,0,0,0-1.787-1.226,12.07,12.07,0,0,0-3.379-1.3c-1.841-.435-4.309-.995-5.146-1.106a10,10,0,0,1-2.183-.633,2.163,2.163,0,0,0-1.4-.218c-.588.134-.988.242-1.366.331a7.762,7.762,0,0,0-1.451.618c-.441.232-2.728,1.335-3.055,1.569s-1.164.642-1.792,1.015-2.27,1.39-2.993,1.924-1.391,1-2.013,1.491-1.319,1.148-1.662,1.45Z" transform="translate(-3.084 -104.365)" fill="#e30613" fill-rule="evenodd"/>
      <path id="Path_15844" data-name="Path 15844" d="M335.078,182.2c-.085-.2-.371-.214-.637-.037l-.455.274c-.212.134-.422.251-.571.326A5.039,5.039,0,0,0,331.7,184.4a5.2,5.2,0,0,0-.353,2.473c0,.96-.059,1.833,0,3.361.024.668-.036,1.359-.012,2.074l.032.919c.016.4.231.784.481.84h.287c.287,0,1.214-.025,1.565-.069a6.935,6.935,0,0,1,1.594.174,9.5,9.5,0,0,0,2.072.134c.734-.035,3.461-.084,5.074-.008s3.413-.035,4.339-.069a25.84,25.84,0,0,0,2.629-.354c.637-.087,1.53-.26,1.869-.254l2.2.039.863.015a.813.813,0,0,0,.752-.913v-.738c0-.216,0-.286.007-.442.015-.391.056-1.224.092-1.928l.024-.534c.011-.231-.278-.534-.716-.585a8.542,8.542,0,0,0-.893-.093c-1.152-.1-2.517-.192-2.982-.174-.832.035-2.27.035-3.02.071s-1.226-.251-2.956-.282a38.783,38.783,0,0,0-4.367-.088c-1.728.134-3.15.156-3.645.243s-1.3-.587-1.335-1.664-.079-3.255-.147-3.8Z" transform="translate(-19.366 -153.501)" fill="#00964f" fill-rule="evenodd"/>
    </g>
  </g>
</svg>
