<svg id="manoffer" xmlns="http://www.w3.org/2000/svg" xmlns:xlink="http://www.w3.org/1999/xlink" width="168.946" height="356.288" viewBox="0 0 168.946 356.288">
  <defs>
    <clipPath id="clip-path">
      <rect id="Rectangle_225" data-name="Rectangle 225" width="168.946" height="356.288" transform="translate(0 0)" fill="none"/>
    </clipPath>
  </defs>
  <g id="Group_365" data-name="Group 365" clip-path="url(#clip-path)">
    <path id="Path_1283" data-name="Path 1283" d="M254,1084.413l-1.932,20.506a.987.987,0,0,0,.833,1.138l10.182.63a.873.873,0,0,0,.879-.822l1.892-18.637Z" transform="translate(-170.802 -766.508)" fill="#fff"/>
    <path id="Path_1284" data-name="Path 1284" d="M261.551,1105.76a1.526,1.526,0,0,0,1.48-1.4l1.894-18.651a.657.657,0,0,0-.5-.7l-11.854-2.816a.657.657,0,0,0-.806.577l-1.932,20.507a1.747,1.747,0,0,0,.392,1.309,1.49,1.49,0,0,0,1.054.545l10.182.63c.03,0,.061,0,.091,0m2.009-19.61-1.834,18.064a.245.245,0,0,1-.184.232l-10.183-.63a.2.2,0,0,1-.129-.078.444.444,0,0,1-.092-.33L253,1083.641Z" transform="translate(-169.219 -764.922)"/>
    <path id="Path_1285" data-name="Path 1285" d="M161.356,1133.758c-.676,2.422-2.1,9.248-2.7,13.354a5.14,5.14,0,0,0,3.746,5.689c7.045,1.906,23.888,1.824,37.909,2.443a3.609,3.609,0,0,0,3.517-2.753c2.668-7.891-12.069-10.335-26.636-18.357a.844.844,0,0,0-.9.047c-.167.119-.381.266-.632.426a9.755,9.755,0,0,1-9.32.067l-2.906-1.748a1.4,1.4,0,0,0-2.079.833" transform="translate(-81.696 -800.655)" fill="#fff"/>
    <path id="Path_1286" data-name="Path 1286" d="M198.795,1154.318a4.307,4.307,0,0,0,4.017-3.2c2.052-6.071-4.759-9.02-14.187-13.1-3.921-1.7-8.364-3.623-12.755-6.041a1.5,1.5,0,0,0-1.6.087c-.161.115-.364.254-.6.407a9.123,9.123,0,0,1-8.629.058l-2.906-1.748a2.062,2.062,0,0,0-3.05,1.219c-.7,2.514-2.121,9.344-2.716,13.436a5.794,5.794,0,0,0,4.224,6.417c5.314,1.438,15.818,1.751,26.938,2.083,3.7.11,7.525.224,11.114.383.05,0,.1,0,.15,0M175.137,1133.1a.2.2,0,0,1,.1.026c4.445,2.448,8.92,4.385,12.867,6.1,8.784,3.8,15.13,6.552,13.464,11.477A2.954,2.954,0,0,1,198.7,1153c-3.6-.159-7.428-.273-11.132-.383-11.041-.33-21.469-.641-26.634-2.037a4.48,4.48,0,0,1-3.268-4.961c.573-3.94,2-10.817,2.681-13.272a.747.747,0,0,1,1.108-.446l2.906,1.748a10.423,10.423,0,0,0,10.01-.076c.263-.167.487-.321.662-.447a.174.174,0,0,1,.1-.031" transform="translate(-80.056 -799.07)"/>
    <path id="Path_1287" data-name="Path 1287" d="M159.3,1182.377c-.014.071-.023.121-.027.144-.374,2.576,2.073,4.16,4.412,5.258,6.941,3.258,34.974,1.391,36.056,1.318.022,0,.038,0,.06,0,.349.006,3.907.006,4.933-2.207a3.791,3.791,0,0,0,.254-1.024,5.082,5.082,0,0,0-.092-1.776.854.854,0,0,0-1.042-.652c-5.2,1.331-17.352,1.772-29.493.435-8.071-.889-11.577-2.649-13.448-3.768a.856.856,0,0,0-1.279.578c-.1.491-.215,1.087-.334,1.7" transform="translate(-82.759 -834.059)" fill="#fff"/>
    <path id="Path_1288" data-name="Path 1288" d="M180.582,1188.765c8.681,0,16.982-.553,17.618-.6.453-.006,4.349-.01,5.544-2.588a4.24,4.24,0,0,0,.309-1.213,5.7,5.7,0,0,0-.1-2.005,1.515,1.515,0,0,0-.689-.97,1.482,1.482,0,0,0-1.155-.175c-4.823,1.233-16.716,1.8-29.259.419-7.727-.851-11.224-2.507-13.183-3.679a1.508,1.508,0,0,0-1.385-.084,1.527,1.527,0,0,0-.875,1.1l-.334,1.7c-.017.088-.028.149-.032.176-.451,3.1,2.514,4.88,4.783,5.946,3.307,1.553,11.18,1.975,18.762,1.975m17.639-1.91c-.022,0-.089,0-.1,0-9.99.681-30.307,1.295-35.739-1.256-3.046-1.43-4.292-2.839-4.041-4.57l.021-.11h0l.334-1.7a.205.205,0,0,1,.119-.153.183.183,0,0,1,.178.012c2.064,1.234,5.732,2.977,13.714,3.857,12.7,1.4,24.792.81,29.728-.452a.19.19,0,0,1,.143.022.213.213,0,0,1,.1.137,4.413,4.413,0,0,1,.083,1.546,3,3,0,0,1-.2.834c-.86,1.857-4.178,1.821-4.328,1.828Z" transform="translate(-81.176 -832.478)"/>
    <path id="Path_1289" data-name="Path 1289" d="M231.044,1150.551a.656.656,0,0,0,.4-.134l4.253-3.239a.657.657,0,0,0-.8-1.045l-4.252,3.238a.657.657,0,0,0,.4,1.18" transform="translate(-134.547 -810.039)"/>
    <path id="Path_1290" data-name="Path 1290" d="M213.587,1159.528a.653.653,0,0,0,.393-.132l3.72-2.792a.657.657,0,1,0-.788-1.051l-3.72,2.792a.657.657,0,0,0,.395,1.182" transform="translate(-111.44 -816.7)"/>
    <path id="Path_1291" data-name="Path 1291" d="M315.7,524.649s-6.951,13.91-9.289,28.564c-2.177,13.644-10.181,69.817-29.688,114.874-2.211,5.108.342,10.424,5.78,11.608,2.176.474,3.088-.3,4.972-1.217a17.02,17.02,0,0,0,2.581-1.867s34.532-28.86,48.612-104.585c9.056-48.705,7.55-44.842,7.55-44.842Z" transform="translate(-258.252 -370.844)" fill="#fff"/>
    <path id="Path_1292" data-name="Path 1292" d="M194.158,546.364s-4.054,26.433,3.613,45.989c7.372,18.8,12.081,92.523,9.333,113.821a2.455,2.455,0,0,0,2.094,2.752c3.353.471,9.4,1.111,13.537.337a1.971,1.971,0,0,0,1.562-1.451c2.731-10.806,25.378-108.484,9.41-158.539Z" transform="translate(-127.02 -386.193)" fill="#fff"/>
    <path id="Path_1293" data-name="Path 1293" d="M326.566,712.1h.04a.656.656,0,0,0,.616-.694,68.34,68.34,0,0,0-5.169-20.31,38.354,38.354,0,0,1-2.158-6.962.657.657,0,1,0-1.284.277,39.668,39.668,0,0,0,2.234,7.2,66.856,66.856,0,0,1,5.066,19.871.656.656,0,0,0,.655.618" transform="translate(-251.676 -483.205)"/>
    <path id="Path_1294" data-name="Path 1294" d="M246.938,629.884a7.208,7.208,0,0,0,2.946-.627l7.253-3.248a6.537,6.537,0,0,0,3.876-6.2l-.455-14.273a2.37,2.37,0,0,0-2.622-2.279,86.89,86.89,0,0,1-20.731-.523h0a2.37,2.37,0,0,0-2.709,2.473l.8,14.947A6.536,6.536,0,0,0,238,625.12l4.7,3.4a7.23,7.23,0,0,0,4.237,1.367m11.252-25.325a1.055,1.055,0,0,1,1.055,1.021l.455,14.273a5.227,5.227,0,0,1-3.1,4.956l-7.253,3.248a5.92,5.92,0,0,1-5.876-.605l-4.7-3.4a5.226,5.226,0,0,1-2.164-3.97l-.8-14.947a1.05,1.05,0,0,1,.342-.836,1.069,1.069,0,0,1,.867-.267,88.053,88.053,0,0,0,21.058.53c.039,0,.078-.006.116-.006" transform="translate(-160.814 -426.021)"/>
    <path id="Path_1295" data-name="Path 1295" d="M366,623.746a2.422,2.422,0,0,0,1.1-.264l7.987-4.059a2.409,2.409,0,0,0,1.307-1.893l1.8-16.629a2.41,2.41,0,0,0-2.032-2.646l-7.546-1.191a.656.656,0,1,0-.2,1.3l7.548,1.191a1.1,1.1,0,0,1,.928,1.208l-1.8,16.628a1.1,1.1,0,0,1-.6.864l-7.987,4.059a1.1,1.1,0,0,1-1.136-.083l-1.9-1.285a.656.656,0,0,0-.736,1.088l1.889,1.277a2.385,2.385,0,0,0,1.38.439" transform="translate(-315.509 -422.024)"/>
    <path id="Path_1296" data-name="Path 1296" d="M264.734,693.347a26.7,26.7,0,0,0,4.779-.37,2.643,2.643,0,0,0,2.078-1.936c.265-1.051,26.366-105.712,9.4-158.9a.656.656,0,0,0-.578-.455l-18.571-1.366c.79-5.22.655-5.255.026-5.424a.676.676,0,0,0-.433.03l-30.258-2.514a.658.658,0,0,0-.642.36c-.07.141-7.023,14.169-9.35,28.755-.126.789-.271,1.721-.438,2.785-2.686,17.2-10.859,69.556-29.2,111.931a9.29,9.29,0,0,0,.1,7.95,8.823,8.823,0,0,0,6.147,4.561,5.882,5.882,0,0,0,4.574-.852c.257-.132.528-.273.824-.417a17.4,17.4,0,0,0,2.724-1.962c.261-.218,26.714-22.828,42.641-78.528,4.291,28.8,6.672,75.8,4.562,92.163a3.127,3.127,0,0,0,2.654,3.487,67.766,67.766,0,0,0,8.97.7m15.137-160.385c16.581,52.968-9.29,156.712-9.554,157.757a1.307,1.307,0,0,1-1.046.967c-4.066.761-10.094.112-13.325-.342a1.809,1.809,0,0,1-1.535-2.018c2.24-17.362-.346-66.468-5.031-95.533a.657.657,0,0,0-.613-.551.647.647,0,0,0-.668.483c-15.7,57.4-42.773,80.571-43.044,80.8a15.912,15.912,0,0,1-2.446,1.78c-.307.149-.588.294-.853.432-1.351.7-2.1,1.083-3.692.734a7.532,7.532,0,0,1-5.257-3.876,7.986,7.986,0,0,1-.061-6.829c18.412-42.529,26.6-95.006,29.3-112.25.166-1.062.311-1.993.436-2.781,2.078-13.023,7.9-25.6,9.035-27.975l29.538,2.454c-.051.612-.2,1.9-.617,4.611a.656.656,0,0,0,.6.754Z" transform="translate(-173.676 -369.26)"/>
    <path id="Path_1297" data-name="Path 1297" d="M494.162,1042.116c1.256-5.738,1.777-6.912,4.621-11.3,2.114-3.262-2.788-8.327-5.323-8.755-4.224-.95-3.571.406-8.533,6.533l-3.881,4.6s12.019,13.935,13.116,8.92" transform="translate(-471.376 -722.24)" fill="#fff"/>
    <path id="Path_1298" data-name="Path 1298" d="M491.443,1042.284a1.772,1.772,0,0,0,.44-.052,1.829,1.829,0,0,0,1.332-1.546c1.26-5.76,1.792-6.858,4.531-11.084a4.518,4.518,0,0,0,.1-4.427c-1.08-2.455-3.874-5-5.861-5.332-3.56-.8-4.205.1-6.347,3.065-.7.975-1.579,2.189-2.806,3.7l-3.873,4.591a.657.657,0,0,0,0,.852c1.522,1.765,9.006,10.229,12.483,10.229m.489-1.879c-.106.487-.3.536-.372.554-1.747.447-7.487-5.062-11.238-9.34l3.518-4.172c1.258-1.553,2.145-2.783,2.859-3.772,2.108-2.923,2.28-3.163,5.028-2.544,1.438.243,3.927,2.333,4.912,4.573a3.237,3.237,0,0,1,0,3.184c-2.937,4.532-3.465,5.824-4.711,11.518" transform="translate(-469.788 -720.67)"/>
    <path id="Path_1299" data-name="Path 1299" d="M493.208,1046.569a1.783,1.783,0,0,0,.44-.052,1.83,1.83,0,0,0,1.332-1.546,30.836,30.836,0,0,1,4.537-11.094.657.657,0,0,0-1.115-.7,32,32,0,0,0-4.705,11.508c-.106.486-.3.535-.372.554-1.743.439-7.485-5.06-11.237-9.338l3.319-3.9a60.914,60.914,0,0,0,3.785-5.372.656.656,0,1,0-1.114-.7,60.8,60.8,0,0,1-3.682,5.229l-3.675,4.32a.656.656,0,0,0,0,.854c1.522,1.765,9.006,10.229,12.483,10.23" transform="translate(-471.552 -724.955)"/>
    <path id="Path_1300" data-name="Path 1300" d="M514.563,1058.363l-4.776-7.5a6.6,6.6,0,0,0-10.1-1.253l-5.7,4.613a14.414,14.414,0,0,0-.829,5.321,44.093,44.093,0,0,0,2.827,10.51c2.5,5.968,9.506,17.993,12,22.22.523.885,1.854,1.777,2.8,1.374a13.14,13.14,0,0,0,3.429-2.381c1.755-1.588,1.313-9.168.79-14.449-.336-3.385.115-12,.325-15.554a4.867,4.867,0,0,0-.755-2.9" transform="translate(-491.068 -740.636)" fill="#fff"/>
    <path id="Path_1301" data-name="Path 1301" d="M508.693,1092.827a1.941,1.941,0,0,0,.767-.153,13.515,13.515,0,0,0,3.612-2.5c.565-.511,2.285-2.067,1-15-.331-3.34.119-11.917.327-15.451a5.49,5.49,0,0,0-.857-3.3l-4.776-7.5a7.261,7.261,0,0,0-11.11-1.377l-5.667,4.58a.655.655,0,0,0-.207.293,14.882,14.882,0,0,0-.859,5.633,44.915,44.915,0,0,0,2.871,10.67c2.48,5.916,9.246,17.565,12.04,22.3a3.739,3.739,0,0,0,2.856,1.8m4.3-36.046-.554.353a4.187,4.187,0,0,1,.654,2.513c-.211,3.563-.663,12.224-.323,15.657,1.1,11.078-.038,13.409-.577,13.9a12.3,12.3,0,0,1-3.245,2.265c-.546.235-1.577-.425-1.978-1.1-2.78-4.711-9.512-16.3-11.96-22.14a43.581,43.581,0,0,1-2.782-10.351,13.117,13.117,0,0,1,.741-4.837l5.556-4.493a5.951,5.951,0,0,1,9.138,1.095l4.776,7.5Z" transform="translate(-489.496 -739.054)"/>
    <path id="Path_1302" data-name="Path 1302" d="M498.345,1107.99a.657.657,0,0,0,.185-1.286l-5.258-1.548a.656.656,0,1,0-.371,1.259l5.258,1.548a.643.643,0,0,0,.186.027" transform="translate(-474.415 -781.15)"/>
    <path id="Path_1303" data-name="Path 1303" d="M499.973,1124.057a.657.657,0,0,0,.185-1.286l-5.258-1.547a.656.656,0,1,0-.371,1.259l5.258,1.547a.643.643,0,0,0,.186.027" transform="translate(-476.521 -792.508)"/>
    <path id="Path_1304" data-name="Path 1304" d="M510.022,1104.433a4.652,4.652,0,0,0,1.521-.219c1.587-.515,5.555-1.619,5.218-7.286-.35-5.874-4.757-8.941-7.945-12.849-2.432-2.982-1.96-15.259-2.7-17.679-1.322-4.336-7.608-5.1-10.838-1.742-2.039,2.12-2.36,6.8-2.228,10.248.248,6.457,3.808,19.365,8.489,25.651,2.283,3.067,5.876,3.828,8.482,3.876" transform="translate(-492.369 -751.066)" fill="#fff"/>
    <path id="Path_1305" data-name="Path 1305" d="M508.536,1103.507a5.263,5.263,0,0,0,1.627-.251l.14-.045c1.611-.518,5.889-1.892,5.53-7.9-.283-4.753-3.079-7.746-5.782-10.64-.78-.836-1.587-1.7-2.309-2.584-1.47-1.8-1.809-7.792-2.056-12.164a31.327,31.327,0,0,0-.523-5.292,6.04,6.04,0,0,0-4.564-4.085,7.846,7.846,0,0,0-7.375,2.08c-2.361,2.455-2.524,7.776-2.41,10.728.238,6.209,3.714,19.432,8.617,26.02,2.612,3.508,6.758,4.1,9,4.139h.108m-9.762-41.868a6.526,6.526,0,0,1,1.519.177,4.759,4.759,0,0,1,3.614,3.192,33.489,33.489,0,0,1,.468,4.983c.272,4.806.611,10.787,2.35,12.92.75.92,1.572,1.8,2.367,2.651,2.662,2.85,5.176,5.541,5.431,9.822.3,5-2.9,6.024-4.621,6.576l-.144.046a4.091,4.091,0,0,1-1.305.187h0c-2-.036-5.69-.553-7.967-3.611-4.755-6.387-8.127-19.241-8.359-25.284-.179-4.67.566-8.231,2.045-9.768a6.419,6.419,0,0,1,4.6-1.891" transform="translate(-490.787 -749.483)"/>
    <path id="Path_1306" data-name="Path 1306" d="M517.314,1110a4.748,4.748,0,0,0,3.554-1.471,3.966,3.966,0,0,0,.973-3.185c-.735-6.126-4-9.373-7.456-12.81-2.646-2.632-3.2-11.829-3.459-16.249a22.084,22.084,0,0,0-.249-2.844c-.466-1.833-2.783-3.574-5.166-3.88a4.992,4.992,0,0,0-5.21,2.666.657.657,0,1,0,1.15.635,3.646,3.646,0,0,1,3.893-2c2.024.259,3.764,1.737,4.06,2.9.072.284.136,1.357.21,2.6.295,4.933.843,14.116,3.844,17.1,3.433,3.414,6.4,6.362,7.079,12.036a2.64,2.64,0,0,1-.643,2.148,3.446,3.446,0,0,1-2.659,1.037,13.509,13.509,0,0,1-1.731-.141.657.657,0,0,0-.192,1.3,14.909,14.909,0,0,0,1.9.155h.1" transform="translate(-499.57 -755.972)"/>
    <path id="Path_1307" data-name="Path 1307" d="M275.166,170.425l3.123-17.141,13.965,3.593-1.927,11.934Z" transform="translate(-203.976 -108.348)" fill="#fff"/>
    <path id="Path_1308" data-name="Path 1308" d="M273.582,169.5a.622.622,0,0,0,.07,0l15.161-1.615a.657.657,0,0,0,.579-.548l1.927-11.933a.657.657,0,0,0-.485-.741l-13.965-3.593a.657.657,0,0,0-.81.518l-3.123,17.141a.656.656,0,0,0,.646.775m14.593-2.871L274.385,168.1l2.839-15.583,12.7,3.268Z" transform="translate(-202.391 -106.764)"/>
    <path id="Path_1309" data-name="Path 1309" d="M263.609,74.389c-4.992.677-5.671,6.312-11.636,6.974-2.733.3-4.106-.711-6.528.452-1.6.77-3.937,2.625-4.176,5.08-.3,3.127,3.124,3.8,6.626,9.819,2.459,4.226,2.609,7.055,4.564,7.362,1.978.309,2.862-2.422,5.047-2.246,2.828.227,3.2,4.949,6.182,6.357,1.882.887,5.822.7,11.384-3.464a2.335,2.335,0,0,0,.692-2.907c-.643-1.292-1.464-2.92-2.379-4.409-4.361-7.1-7.439-8.3-6.832-10.474.93-3.335,7.051-2.717,7.522-5.4.489-2.786-5.342-7.839-10.468-7.144" transform="translate(-177.788 -52.536)"/>
    <path id="Path_1310" data-name="Path 1310" d="M249.409,110.513l1.328-.691s4.306,8.987,5.99,11.29,9.21-2.375,9.21-2.375l.184-1.66.9-.586a1.1,1.1,0,0,0,.174-1.706c-1.816-1.8-5.669-5.884-7.542-9.86a12.155,12.155,0,0,0-10.244,5.588" transform="translate(-171.692 -74.163)" fill="#fff"/>
    <path id="Path_1311" data-name="Path 1311" d="M247.859,109.38c.286-.036.639-.049,1.033-.131a4.321,4.321,0,0,0,1.093-.4l-.919-.307c.823,1.725,1.648,3.442,2.517,5.143s1.748,3.4,2.732,5.066c.26.424.5.818.833,1.273a2.128,2.128,0,0,0,.842.632,2.991,2.991,0,0,0,.91.209,7.994,7.994,0,0,0,3.073-.554,29.242,29.242,0,0,0,5.25-2.583.652.652,0,0,0,.309-.49c.054-.554.128-1.106.166-1.662l-.288.468c.261-.191.5-.411.755-.617.05-.044.145-.114.234-.2a1.893,1.893,0,0,0,.223-.273,1.785,1.785,0,0,0,.264-.634,1.586,1.586,0,0,0-.3-1.3c-.17-.2-.246-.258-.369-.389l-.335-.344c-.894-.918-1.745-1.879-2.552-2.871s-1.572-2.015-2.273-3.072a24.008,24.008,0,0,1-1.87-3.272l-.005-.011a.623.623,0,0,0-.548-.363,11.711,11.711,0,0,0-3.214.385,12.91,12.91,0,0,0-2.981,1.161,12.686,12.686,0,0,0-2.6,1.87,13.145,13.145,0,0,0-1.089,1.176c-.175.2-.328.42-.491.631l-.06.08c-.027.038-.07.1-.1.159a1.718,1.718,0,0,0-.181.416,2.276,2.276,0,0,0-.046.8m.974-.881a.4.4,0,0,1,.387.176.239.239,0,0,1,.035.1s0,.017.005,0l.055-.071c.15-.188.29-.385.451-.563a11.8,11.8,0,0,1,.993-1.04,11.332,11.332,0,0,1,2.317-1.681,11.547,11.547,0,0,1,2.67-1.056,10.818,10.818,0,0,1,2.806-.365l-.553-.374a30.352,30.352,0,0,0,4.533,6.459q1.3,1.464,2.674,2.855l.651.653a.621.621,0,0,1,.128.53.492.492,0,0,1-.135.24.441.441,0,0,1-.11.078l-.163.077c-.29.147-.589.28-.869.441a.571.571,0,0,0-.279.4l-.01.064c-.086.551-.134,1.106-.2,1.658l.309-.49a27.983,27.983,0,0,1-5,2.405,6.792,6.792,0,0,1-2.507.457,1.053,1.053,0,0,1-.765-.321c-.228-.312-.491-.729-.726-1.117-.95-1.608-1.829-3.294-2.692-4.98s-1.721-3.385-2.552-5.088l0-.008a.67.67,0,0,0-.9-.308l-.019.01a.427.427,0,0,0-.235.288,1.781,1.781,0,0,1-.295.56" transform="translate(-170.629 -72.589)"/>
    <path id="Path_1312" data-name="Path 1312" d="M306.955,139.711s-3.462-4.237-5.057-2.254,2.334,6.552,5.057,2.254" transform="translate(-226.405 -96.787)" fill="#fff"/>
    <path id="Path_1313" data-name="Path 1313" d="M516.214,587.248s1.081,10.663-.778,14.517-13.942,11.223-13.942,11.223-3.663-2.339,0-5.331a23.75,23.75,0,0,0,5.142-5.48s-.75-11.344.893-13.7,8.685-1.23,8.685-1.23" transform="translate(-494.121 -414.902)" fill="#fff"/>
    <path id="Path_1314" data-name="Path 1314" d="M499.9,612.041a.658.658,0,0,0,.342-.1c.5-.3,12.271-7.515,14.192-11.5s.885-14.426.84-14.868a.657.657,0,0,0-.55-.583c-.763-.122-7.5-1.113-9.327,1.5-1.648,2.359-1.142,12-1.025,13.9a24.713,24.713,0,0,1-4.888,5.145,4.154,4.154,0,0,0-1.864,3.393,4.309,4.309,0,0,0,1.926,3,.656.656,0,0,0,.353.1m14.113-25.821c.182,2.146.771,10.478-.762,13.656-1.4,2.908-9.74,8.5-13.31,10.712a2.673,2.673,0,0,1-1.01-1.733,2.967,2.967,0,0,1,1.385-2.293,24.2,24.2,0,0,0,5.291-5.653.658.658,0,0,0,.091-.379c-.284-4.3-.325-11.7.777-13.279.961-1.376,4.933-1.373,7.539-1.031" transform="translate(-492.531 -413.298)"/>
    <path id="Path_1315" data-name="Path 1315" d="M3.173,27.381l-.848-5.645a7.228,7.228,0,0,1,.853-4.626L11.262,2.783a1.042,1.042,0,0,1,1.649-.232c.81.843,1.605,2.387.454,4.807l-1.9,3.618a1.854,1.854,0,0,0,.526,2.329,7.19,7.19,0,0,1,2.856,4.657c.832,6.172-5.952,10.621-5.952,10.621Z" transform="translate(153.373 -1.586)" fill="#fff"/>
    <path id="Path_1316" data-name="Path 1316" d="M7.3,27.656a.655.655,0,0,0,.36-.108c.291-.191,7.12-4.751,6.243-11.258A7.817,7.817,0,0,0,10.8,11.2,1.2,1.2,0,0,1,10.455,9.7l1.9-3.618c1.381-2.9.241-4.732-.561-5.567a1.648,1.648,0,0,0-1.413-.5A1.725,1.725,0,0,0,9.1.877L1.016,15.2a7.922,7.922,0,0,0-.93,5.046l.848,5.645a.657.657,0,0,0,.514.545l5.72,1.2a.621.621,0,0,0,.135.014M10.6,1.316a.338.338,0,0,1,.251.1c1.008,1.05,1.12,2.42.334,4.07l-1.89,3.6A2.511,2.511,0,0,0,10,12.24,6.533,6.533,0,0,1,12.6,16.466c.685,5.08-4.328,9.023-5.444,9.832L2.165,25.249l-.78-5.194a6.6,6.6,0,0,1,.775-4.206L10.245,1.522a.4.4,0,0,1,.3-.2.469.469,0,0,1,.049,0M1.584,25.8h0Z" transform="translate(154.962 -0.002)"/>
    <path id="Path_1317" data-name="Path 1317" d="M392.2,339.317H406.19s3.025-49.676,29.686-65.751l-2.035-39.947s-55.891,31.092-41.64,105.7" transform="translate(-381.225 -165.132)" fill="#002069"/>
    <path id="Path_1318" data-name="Path 1318" d="M182.521,390.245,172.07,439.908s42.562,7.3,57.395,4.635,16.566-6.575,16.566-6.575l-6.27-54.62Z" transform="translate(-127.529 -270.967)" fill="#fff"/>
    <path id="Path_1319" data-name="Path 1319" d="M219.216,444.206a51.961,51.961,0,0,0,8.781-.6c14.75-2.649,16.859-6.523,17.05-6.956a.661.661,0,0,0,.052-.341l-6.27-54.62a.657.657,0,0,0-.731-.577l-57.24,6.9a.658.658,0,0,0-.564.517l-10.452,49.662a.657.657,0,0,0,.531.782c1.465.251,30.769,5.235,48.841,5.235m24.553-7.972c-.474.643-3.388,3.813-16,6.079-13.537,2.431-51-3.612-56.5-4.524l10.214-48.532,56.117-6.762Z" transform="translate(-125.945 -269.382)"/>
    <path id="Path_1320" data-name="Path 1320" d="M46.875,121.772,25.406,128.52l-9.287,71.1a7.329,7.329,0,0,0,4.721,7.832c10.285,3.789,34.581,10.482,68.131,5.3a7.337,7.337,0,0,0,6.2-7.071c.3-11.92.517-38.669-2.854-54.037,0,0,47.333-.043,44.595-64.011l-9.9-2.7s-16.639,37.6-45.357,36.141c0,0-19.23-4.188-34.782.7" transform="translate(27.209 -60.033)" fill="#002069"/>
    <path id="Path_1321" data-name="Path 1321" d="M311.754,204.129s-18.6-1.771-33.394,1.154c-8.768,1.733-25.4,8.2-12.706,21.252s21.434,11.809,25.62,4.507,11.652-24.191,20.48-26.913" transform="translate(-219.336 -143.911)" fill="#fff"/>
    <path id="Path_1322" data-name="Path 1322" d="M281.12,235.562a10.252,10.252,0,0,0,1.3-.08c3.238-.408,5.952-2.371,7.846-5.677.714-1.246,1.539-2.8,2.411-4.44,4.229-7.96,10.619-19.991,17.692-22.172a.657.657,0,0,0-.131-1.281c-.187-.019-18.865-1.747-33.583,1.163-2.517.5-15.19,3.355-17.494,10.75-1.1,3.536.394,7.44,4.444,11.6,6.476,6.658,12.5,10.133,17.519,10.133m26.437-32.535c-6.557,3.864-12.181,14.45-16.043,21.721-.867,1.633-1.687,3.176-2.391,4.4-1.682,2.934-4.058,4.672-6.871,5.028-4.847.6-10.963-2.733-17.709-9.667-3.689-3.792-5.079-7.257-4.132-10.3,1.615-5.183,9.9-8.547,16.495-9.852,11.324-2.24,25.058-1.694,30.651-1.336" transform="translate(-217.754 -142.348)"/>
    <path id="Path_1323" data-name="Path 1323" d="M317.655,232.121c4.8,0,10.359-2.343,16.79-7.045,5.338-3.9,6.859-4.049,7.047-4.05a.657.657,0,0,0,.464-1.222c-.965-.488-3.909,1.01-8.286,4.211-10.229,7.481-17.744,8.779-23.652,4.082a.657.657,0,0,0-.817,1.028,13.227,13.227,0,0,0,8.454,3m23.714-11.142h0Zm0,0h0Zm0,0h0" transform="translate(-263.943 -155.303)"/>
  </g>
</svg>
