<?xml version="1.0" encoding="utf-8"?>
<!-- Generator: Adobe Illustrator 27.0.0, SVG Export Plug-In . SVG Version: 6.00 Build 0)  -->
<svg version="1.1" id="Layer_1" xmlns="http://www.w3.org/2000/svg" xmlns:xlink="http://www.w3.org/1999/xlink" x="0px" y="0px"
	 viewBox="0 0 272.9 271" style="enable-background:new 0 0 272.9 271;" xml:space="preserve">
<style type="text/css">
	.st0{clip-path:url(#SVGID_00000016768870487013369500000002264525177425099423_);}
	.st1{fill:#FFFFFF;}
	.st2{fill:#002069;}
	.st3{fill:#0179FE;}
</style>
<g id="Group_230" transform="translate(0 0)">
	<g id="Group_231" transform="translate(0 0)">
		<g id="Group_228">
			<g>
				<defs>
					<rect id="SVGID_1_" x="-23" y="0" width="330.8" height="271"/>
				</defs>
				<clipPath id="SVGID_00000160868770567747398640000008107813313447916673_">
					<use xlink:href="#SVGID_1_"  style="overflow:visible;"/>
				</clipPath>
				<g id="Group_227" style="clip-path:url(#SVGID_00000160868770567747398640000008107813313447916673_);">
					<path id="Path_413" d="M114.6,60.2c-0.8,0-1.5-0.4-1.8-1.1l-1.8-3.6c-0.2-0.5-0.7-0.8-1.2-0.7c-0.7,0-1.4,0-2.1-0.1
						c-0.5,0-1,0.2-1.2,0.7l-2,3.4c-0.5,0.8-1.4,1.2-2.3,0.9l-3.1-0.9c-0.9-0.3-1.5-1.1-1.4-2.1l0.3-3.9c0-0.5-0.2-1-0.7-1.2
						c-0.6-0.3-1.2-0.7-1.7-1.1c-0.4-0.3-1-0.3-1.4,0l-3.4,2c-0.8,0.5-1.9,0.3-2.5-0.3L86,49.9c-0.7-0.7-0.7-1.7-0.2-2.5l2.2-3.3
						c0.3-0.4,0.3-1,0-1.4c-0.3-0.6-0.7-1.2-1-1.8c-0.2-0.5-0.7-0.7-1.2-0.7l-4,0h0c-0.9,0-1.8-0.6-2-1.5l-0.7-3.1
						c-0.2-0.9,0.2-1.9,1.1-2.3l3.6-1.7c0.5-0.2,0.7-0.7,0.7-1.2c0-0.7,0-1.4,0.1-2c0-0.5-0.2-1-0.7-1.2l-3.5-1.9
						c-0.8-0.5-1.2-1.4-0.9-2.3l0.9-3c0.3-0.9,1.1-1.5,2.1-1.4l4,0.3c0.5,0,1-0.2,1.3-0.7c0.3-0.6,0.7-1.2,1.1-1.7
						c0.3-0.4,0.3-1,0-1.4l-2-3.4c-0.5-0.8-0.3-1.9,0.4-2.5l2.3-2.2c0.7-0.6,1.7-0.7,2.5-0.2l3.3,2.2c0.4,0.3,1,0.3,1.4,0
						c0.6-0.3,1.2-0.7,1.8-1c0.5-0.2,0.7-0.7,0.7-1.2l0-4c0-0.9,0.6-1.8,1.5-2l3.1-0.7c0.9-0.2,1.9,0.2,2.3,1.1l1.8,3.6
						c0.2,0.5,0.7,0.7,1.2,0.7h0c0.7,0,1.4,0,2.1,0.1c0.5,0,1-0.2,1.2-0.7l2-3.4c0.5-0.8,1.4-1.2,2.3-0.9l3.1,0.9
						c0.9,0.3,1.5,1.1,1.4,2.1L121,7.3c0,0.5,0.2,1,0.7,1.2c0.6,0.3,1.2,0.7,1.7,1.1c0.4,0.3,1,0.3,1.4,0l3.4-2
						c0.8-0.5,1.9-0.3,2.5,0.3l2.2,2.3c0.7,0.7,0.7,1.7,0.2,2.5l-2.2,3.3c-0.3,0.4-0.3,1,0,1.4c0.3,0.6,0.7,1.2,1,1.8
						c0.2,0.5,0.7,0.7,1.2,0.7h0l4,0c0.9,0,1.8,0.6,2,1.5l0.7,3.1c0.2,0.9-0.2,1.9-1.1,2.3l-3.6,1.7c-0.5,0.2-0.7,0.7-0.7,1.2
						c0,0.7,0,1.4-0.1,2c0,0.5,0.2,1,0.7,1.2l3.5,1.9c0.8,0.5,1.2,1.4,0.9,2.3l-0.9,3c-0.3,0.9-1.1,1.5-2.1,1.4l-4-0.3
						c-0.5,0-1,0.2-1.3,0.7c-0.3,0.6-0.7,1.2-1.1,1.7c-0.3,0.4-0.3,1,0,1.4l2,3.4c0.5,0.8,0.3,1.8-0.4,2.5l-2.3,2.2
						c-0.7,0.6-1.7,0.7-2.5,0.2l-3.3-2.2c-0.4-0.3-1-0.3-1.4,0c-0.6,0.3-1.2,0.7-1.8,1c-0.5,0.2-0.7,0.7-0.7,1.2l0,4
						c0,0.9-0.6,1.8-1.6,2l-3.1,0.7C114.9,60.2,114.7,60.2,114.6,60.2 M109.8,54.1c0.8,0,1.5,0.4,1.8,1.1l1.8,3.6
						c0.3,0.6,0.9,0.9,1.5,0.7l3.1-0.7c0.6-0.1,1-0.7,1-1.3l0-4c0-0.8,0.4-1.5,1.1-1.8c0.6-0.3,1.2-0.6,1.7-0.9
						c0.7-0.4,1.5-0.4,2.2,0.1l3.3,2.2c0.5,0.4,1.2,0.3,1.7-0.1l2.3-2.2c0.5-0.4,0.6-1.1,0.2-1.6l-2-3.4c-0.4-0.7-0.4-1.5,0.1-2.1
						c0.4-0.5,0.7-1.1,1-1.7c0.4-0.7,1.1-1.1,1.9-1l4,0.3c0.6,0,1.2-0.3,1.4-0.9l0.9-3c0.2-0.6-0.1-1.2-0.6-1.5l-3.5-1.9
						c-0.7-0.4-1.1-1.1-1-1.9c0-0.7,0.1-1.3,0.1-2c0-0.8,0.4-1.5,1.1-1.8l3.6-1.7c0.6-0.3,0.9-0.9,0.7-1.5l-0.7-3.1
						c-0.1-0.6-0.7-1-1.3-1h0l-4,0h0c-0.8,0-1.5-0.4-1.8-1.1c-0.3-0.6-0.6-1.2-0.9-1.7c-0.4-0.7-0.4-1.5,0.1-2.1l2.2-3.3
						c0.4-0.5,0.3-1.2-0.1-1.6l-2.2-2.3c-0.4-0.5-1.1-0.5-1.7-0.2l-3.4,2c-0.7,0.4-1.5,0.4-2.2-0.1c-0.5-0.4-1.1-0.7-1.7-1
						c-0.7-0.4-1.1-1.1-1-1.9l0.3-3.9c0-0.6-0.4-1.2-1-1.4l-3.1-0.9c-0.6-0.2-1.2,0.1-1.6,0.6l-2,3.4c-0.4,0.7-1.1,1.1-1.9,1
						c-0.7,0-1.3-0.1-2-0.1c-0.8,0-1.5-0.4-1.8-1.1l-1.8-3.6c-0.3-0.6-0.9-0.9-1.5-0.7L101,1.5c-0.6,0.1-1,0.7-1,1.3l0,4
						c0,0.8-0.4,1.5-1.1,1.8c-0.6,0.3-1.2,0.6-1.8,0.9c-0.7,0.4-1.5,0.4-2.1-0.1l-3.3-2.2c-0.5-0.3-1.2-0.3-1.7,0.1l-2.3,2.2
						c-0.5,0.4-0.6,1.1-0.2,1.6l2,3.4c0.4,0.7,0.4,1.5-0.1,2.1c-0.4,0.5-0.7,1.1-1,1.7c-0.4,0.7-1.1,1.1-1.9,1l-4-0.3
						c-0.6,0-1.2,0.3-1.4,0.9l-0.9,3c-0.2,0.6,0.1,1.2,0.6,1.5l3.5,1.9c0.7,0.4,1.1,1.1,1,1.9c0,0.7-0.1,1.3-0.1,2
						c0,0.8-0.4,1.5-1.1,1.8l-3.6,1.7c-0.6,0.3-0.9,0.9-0.7,1.5l0.7,3.1c0.2,0.6,0.7,1,1.3,1l4,0c0.8,0,1.5,0.4,1.8,1.1
						c0.3,0.6,0.6,1.2,0.9,1.7c0.4,0.7,0.4,1.5-0.1,2.1l-2.2,3.3c-0.4,0.5-0.3,1.2,0.1,1.6l2.2,2.3c0.4,0.5,1.1,0.6,1.7,0.2l3.4-2
						c0.7-0.4,1.5-0.4,2.2,0.1c0.5,0.4,1.1,0.7,1.7,1c0.7,0.4,1.1,1.1,1,1.9l-0.3,3.9c0,0.6,0.4,1.2,1,1.4l3.1,0.9
						c0.6,0.2,1.2-0.1,1.6-0.6l2-3.4c0.4-0.7,1.1-1.1,1.9-1C108.5,54.1,109.1,54.1,109.8,54.1L109.8,54.1z M109.5,44.1
						c-0.2,0-0.3,0-0.5,0c-7.7-0.3-13.7-6.8-13.3-14.5c0.3-7.7,6.8-13.7,14.5-13.3c7.6,0.3,13.6,6.8,13.3,14.4
						c-0.1,3.7-1.7,7.2-4.5,9.7C116.5,42.7,113.1,44.1,109.5,44.1 M109.5,16.8c-7.3,0.1-13.2,6-13.2,13.4s6,13.2,13.4,13.2
						c3.3,0,6.5-1.3,9-3.6c2.6-2.4,4.1-5.7,4.2-9.2c0.2-7.4-5.6-13.5-12.9-13.7C109.8,16.8,109.6,16.8,109.5,16.8"/>
					<path id="Path_414" d="M132.3,100.1c-0.1,0-0.3,0-0.4,0l-2.3-0.5c-0.7-0.2-1.2-0.8-1.2-1.5l0-2.9c0-0.3-0.2-0.6-0.5-0.8
						c-0.4-0.2-0.9-0.5-1.3-0.7c-0.3-0.2-0.7-0.2-0.9,0l-2.4,1.6c-0.6,0.4-1.4,0.3-1.9-0.2l-1.7-1.6c-0.5-0.5-0.6-1.3-0.3-1.9
						l1.5-2.5c0.2-0.3,0.2-0.6,0-0.9c-0.3-0.4-0.5-0.8-0.8-1.3c-0.2-0.3-0.5-0.5-0.8-0.4l-2.9,0.2c-0.7,0.1-1.4-0.4-1.6-1.1
						l-0.7-2.2c-0.2-0.7,0.1-1.5,0.7-1.8l2.5-1.4c0.3-0.2,0.5-0.5,0.5-0.8c0-0.5,0-1,0-1.5c0-0.3-0.2-0.6-0.5-0.8l-2.6-1.3
						c-0.7-0.3-1-1.1-0.8-1.8l0.5-2.2c0.2-0.7,0.8-1.2,1.5-1.2h0l2.9,0h0c0.3,0,0.6-0.2,0.8-0.5c0.2-0.4,0.5-0.9,0.7-1.3
						c0.2-0.3,0.2-0.6,0-0.9l-1.6-2.4c-0.4-0.6-0.3-1.4,0.2-1.9l1.6-1.7c0.5-0.5,1.3-0.6,1.9-0.3L125,63c0.3,0.2,0.7,0.2,0.9,0
						c0.4-0.3,0.9-0.5,1.3-0.8c0.3-0.2,0.5-0.5,0.4-0.8l-0.2-2.9c-0.1-0.7,0.4-1.4,1.1-1.6l2.2-0.7c0.7-0.2,1.5,0.1,1.8,0.7l1.4,2.5
						c0.2,0.3,0.5,0.5,0.8,0.4c0.5,0,1,0,1.5,0c0.3,0,0.6-0.2,0.8-0.5l1.3-2.6c0.3-0.7,1.1-1,1.8-0.8l2.3,0.5
						c0.7,0.2,1.2,0.8,1.2,1.5l0,2.9c0,0.3,0.2,0.6,0.5,0.8c0.4,0.2,0.9,0.5,1.3,0.7c0.3,0.2,0.7,0.2,0.9,0l2.4-1.6
						c0.6-0.4,1.4-0.3,1.9,0.2l1.7,1.6c0.5,0.5,0.6,1.3,0.3,1.9l-1.5,2.5c-0.2,0.3-0.2,0.6,0,0.9c0.3,0.4,0.5,0.8,0.8,1.3
						c0.2,0.3,0.5,0.5,0.8,0.4l2.9-0.2c0.7-0.1,1.4,0.4,1.6,1.1l0.7,2.2c0.2,0.7-0.1,1.5-0.7,1.8l-2.5,1.4c-0.3,0.2-0.5,0.5-0.5,0.8
						c0,0.5,0,1,0,1.5c0,0.3,0.2,0.6,0.5,0.8l2.6,1.3c0.7,0.3,1,1.1,0.8,1.8l-0.5,2.2c-0.2,0.7-0.8,1.2-1.5,1.2h0l-2.9,0
						c-0.3,0-0.6,0.2-0.8,0.5c-0.2,0.4-0.5,0.9-0.7,1.3c-0.2,0.3-0.2,0.6,0,0.9l1.6,2.4c0.4,0.6,0.3,1.4-0.2,1.9l-1.6,1.7
						c-0.5,0.5-1.3,0.6-1.9,0.3l-2.5-1.5c-0.3-0.2-0.7-0.2-0.9,0c-0.4,0.3-0.8,0.5-1.3,0.8c-0.3,0.2-0.5,0.5-0.4,0.8l0.2,2.9
						c0,0.7-0.4,1.4-1.1,1.6l-2.2,0.7c-0.7,0.2-1.5-0.1-1.8-0.7l-1.4-2.5c-0.2-0.3-0.5-0.5-0.8-0.4c-0.5,0-1,0-1.5,0
						c-0.3,0-0.6,0.2-0.8,0.5l-1.3,2.6C133.5,99.7,132.9,100.1,132.3,100.1 M126.3,92.8c0.3,0,0.6,0.1,0.8,0.2
						c0.4,0.2,0.8,0.5,1.3,0.7c0.5,0.3,0.9,0.8,0.9,1.4l0,2.9c0,0.4,0.3,0.8,0.7,0.9l2.3,0.5c0.4,0.1,0.8-0.1,1-0.5l1.3-2.6
						c0.3-0.5,0.8-0.9,1.4-0.9c0.5,0,1,0,1.5,0c0.6,0,1.2,0.3,1.5,0.8l1.4,2.5c0.2,0.4,0.6,0.5,1,0.4l2.2-0.7
						c0.4-0.1,0.7-0.5,0.6-0.9l-0.2-2.9c0-0.6,0.3-1.2,0.8-1.5c0.4-0.2,0.8-0.5,1.2-0.7c0.5-0.3,1.2-0.3,1.7,0L150,94
						c0.4,0.2,0.8,0.2,1.1-0.1l1.6-1.7c0.3-0.3,0.3-0.7,0.1-1.1l-1.6-2.4c-0.3-0.5-0.4-1.1,0-1.7c0.2-0.4,0.5-0.8,0.7-1.3
						c0.3-0.5,0.8-0.9,1.4-0.9h0l2.9,0h0c0.4,0,0.8-0.3,0.9-0.7l0.5-2.2c0.1-0.4-0.1-0.8-0.5-1l-2.6-1.3c-0.5-0.3-0.9-0.8-0.9-1.4
						c0-0.5,0-1,0-1.4c0-0.6,0.3-1.2,0.8-1.4L157,74c0.4-0.2,0.5-0.6,0.4-1l-0.7-2.2c-0.1-0.4-0.5-0.7-0.9-0.6l-2.9,0.2
						c-0.6,0-1.2-0.3-1.5-0.8c-0.2-0.4-0.5-0.8-0.7-1.2c-0.3-0.5-0.3-1.1,0-1.7l1.5-2.5c0.2-0.3,0.2-0.8-0.1-1.1l-1.7-1.6
						c-0.3-0.3-0.8-0.3-1.1-0.1l-2.4,1.6c-0.5,0.3-1.1,0.3-1.7,0c-0.4-0.2-0.8-0.5-1.3-0.7c-0.5-0.3-0.9-0.8-0.9-1.4l0-2.9
						c0-0.4-0.3-0.8-0.7-0.9l-2.3-0.5c-0.4-0.1-0.8,0.1-1,0.5l-1.3,2.6c-0.3,0.5-0.8,0.9-1.4,0.9c-0.5,0-1,0-1.5,0
						c-0.6,0-1.2-0.3-1.5-0.8l-1.4-2.5c-0.2-0.4-0.6-0.5-1-0.4l-2.2,0.7c-0.4,0.1-0.7,0.5-0.6,0.9l0.2,2.9c0,0.6-0.3,1.2-0.8,1.5
						c-0.4,0.2-0.8,0.5-1.2,0.7c-0.5,0.3-1.1,0.3-1.7,0l-2.5-1.5c-0.4-0.2-0.8-0.2-1.1,0.1l-1.6,1.7c-0.3,0.3-0.3,0.7-0.1,1.1
						l1.6,2.4c0.3,0.5,0.4,1.1,0,1.7c-0.2,0.4-0.5,0.8-0.7,1.3c-0.3,0.5-0.8,0.9-1.4,0.9l-2.9,0c-0.4,0-0.8,0.3-0.9,0.7l-0.5,2.2
						c-0.1,0.4,0.1,0.8,0.5,1l2.6,1.3c0.5,0.3,0.9,0.8,0.9,1.4c0,0.5,0,1,0,1.4c0,0.6-0.3,1.2-0.8,1.4l-2.5,1.4
						c-0.4,0.2-0.5,0.6-0.4,1l0.7,2.2c0.1,0.4,0.5,0.7,0.9,0.6l2.9-0.2c0.6,0,1.2,0.3,1.5,0.8c0.2,0.4,0.5,0.8,0.8,1.2
						c0.3,0.5,0.3,1.1,0,1.7l-1.5,2.5c-0.2,0.3-0.2,0.8,0.1,1.1l1.7,1.6c0.3,0.3,0.8,0.3,1.1,0.1l2.4-1.6
						C125.7,92.8,126,92.8,126.3,92.8 M136.1,88.3c-5.6,0-10.2-4.5-10.3-10.1c-0.1-2.7,1-5.4,2.9-7.3c1.9-2,4.5-3.1,7.3-3.2h0.2
						c5.6,0,10.2,4.5,10.3,10.1c0.1,2.7-1,5.4-2.9,7.3c-1.9,2-4.5,3.1-7.3,3.2L136.1,88.3 M136.1,68.5h-0.2c-2.6,0-5,1.1-6.8,2.9
						c-1.8,1.8-2.8,4.3-2.7,6.8c0.1,5.2,4.4,9.4,9.7,9.4h0.2c2.6,0,5-1.1,6.8-2.9c1.8-1.8,2.8-4.3,2.7-6.8
						C145.6,72.6,141.3,68.4,136.1,68.5"/>
					<path id="Path_415" d="M10.5,240.4c3.5,0.8,7.1,0,10.7-0.4l88.2-9.1c4.5-0.5,7.9-4.3,7.8-8.9l-5-209.1l-4.7-1.2
						c-3.9-0.9-7.9-1.2-11.8-0.8L7.5,20.4c-4.3,0.4-7.5,4-7.5,8.3v203.9c0,3.1,2.2,5.8,5.2,6.5L10.5,240.4z"/>
					<path id="Path_416" class="st1" d="M110.1,232l-94.4,9.9c-4.2,0.4-8-2.6-8.4-6.8c0-0.3,0-0.5,0-0.8V30.4c0-3.9,3-7.2,6.8-7.6
						l94.4-9.9c4.2-0.4,8,2.6,8.4,6.8c0,0.3,0,0.5,0,0.8v203.9C117,228.3,114,231.6,110.1,232"/>
					<path id="Path_417" d="M15,242.3c-4.4,0-8-3.6-8-8c0,0,0,0,0,0V30.4c0-4.1,3.1-7.5,7.1-7.9l94.4-9.9c4.4-0.5,8.3,2.7,8.8,7.1
						c0,0.3,0,0.6,0,0.8v203.9c0,4.1-3.1,7.5-7.1,7.9l0-0.3l0,0.3l-94.4,9.9C15.5,242.3,15.3,242.3,15,242.3 M109.3,13.2
						c-0.3,0-0.5,0-0.8,0l-94.4,9.9c-3.7,0.4-6.5,3.5-6.5,7.3v203.9c0,4,3.3,7.3,7.3,7.3c0.3,0,0.5,0,0.8,0l94.4-9.9
						c3.7-0.4,6.5-3.5,6.5-7.3V20.5C116.6,16.5,113.4,13.2,109.3,13.2C109.3,13.2,109.3,13.2,109.3,13.2"/>
					<path id="Path_418" d="M15,242.3c-4.4,0-8-3.6-8-8c0,0,0,0,0,0V30.4c0-4.1,3.1-7.5,7.1-7.9l94.4-9.9c4.4-0.5,8.3,2.7,8.8,7.1
						c0,0.3,0,0.6,0,0.8v84c0,0.2-0.2,0.3-0.3,0.3c-0.2,0-0.3-0.2-0.3-0.3v-84c0-4-3.3-7.3-7.3-7.3c-0.3,0-0.5,0-0.8,0l-94.4,9.9
						c-3.7,0.4-6.5,3.5-6.5,7.3v203.9c0,4,3.3,7.3,7.3,7.3c0.3,0,0.5,0,0.8,0l40.8-4.7c0.2,0,0.4,0.1,0.4,0.3s-0.1,0.4-0.3,0.4l0,0
						l-40.8,4.7C15.5,242.3,15.3,242.3,15,242.3"/>
					<path id="Path_419" d="M110.1,232.3c-0.2,0-0.3-0.2-0.3-0.3c0-0.2,0.1-0.3,0.3-0.3c3.7-0.4,6.5-3.5,6.5-7.3V104.5
						c0-0.2,0.2-0.3,0.3-0.3c0.2,0,0.3,0.2,0.3,0.3v119.8C117.3,228.5,114.2,231.9,110.1,232.3L110.1,232.3"/>
					<path id="Path_420" class="st1" d="M111.9,25.7v194.4c0,3.5-2.7,6.5-6.2,6.9l-85.6,9c-3.8,0.4-7.2-2.4-7.6-6.2
						c0-0.2,0-0.5,0-0.7V34.7c0-3.5,2.7-6.5,6.2-6.9l28.1-3v2.4c0,2.5,2,4.5,4.5,4.5c0.2,0,0.3,0,0.5,0l21.9-2.3
						c2.3-0.2,4-2.2,4-4.5v-3.3l26.7-2.8c3.8-0.4,7.2,2.4,7.6,6.2C111.9,25.2,111.9,25.5,111.9,25.7"/>
					<path id="Path_421" d="M19.3,236.4c-4,0-7.3-3.3-7.3-7.3c0,0,0,0,0,0V34.7c0-3.7,2.8-6.9,6.5-7.2l28.1-3c0.1,0,0.2,0,0.3,0.1
						c0.1,0.1,0.1,0.2,0.1,0.3v2.4c0,2.3,1.9,4.1,4.1,4.1c0.1,0,0.3,0,0.4,0L73.5,29c2.1-0.2,3.7-2,3.7-4.1v-3.3
						c0-0.2,0.1-0.3,0.3-0.3l26.7-2.8c4-0.4,7.6,2.5,8,6.5c0,0.3,0,0.5,0,0.8v194.5c0,3.7-2.8,6.8-6.5,7.2l-85.6,9
						C19.8,236.4,19.6,236.4,19.3,236.4 M46.4,25.2l-27.7,2.9c-3.4,0.3-5.9,3.2-5.9,6.5v194.4c0,3.6,3,6.6,6.6,6.6
						c0.2,0,0.5,0,0.7,0l85.6-9c3.4-0.3,5.9-3.2,5.9-6.6V25.7c0-3.6-2.9-6.6-6.6-6.6c-0.2,0-0.5,0-0.7,0l-26.4,2.8v3
						c0,2.5-1.9,4.5-4.3,4.8L51.7,32c-2.7,0.3-5-1.6-5.3-4.3c0-0.2,0-0.3,0-0.5L46.4,25.2z"/>
					<path id="Path_422" class="st1" d="M102.4,221.2l-79.5,8.5c-2.5,0.2-4.7-1.6-5-4.1c0-0.2,0-0.3,0-0.5V116.3
						c0-2.3,1.7-4.3,4-4.6l79.5-8.5c2.5-0.2,4.7,1.6,5,4.1c0,0.2,0,0.3,0,0.5v108.9C106.4,219,104.7,221,102.4,221.2"/>
					<path id="Path_423" d="M22.4,230.2c-1.2,0-2.3-0.4-3.2-1.2c-1.1-1-1.7-2.3-1.6-3.7V116.3c0-2.5,1.8-4.6,4.3-4.9l79.5-8.5
						c1.3-0.1,2.7,0.3,3.7,1.2c1.1,1,1.7,2.3,1.6,3.7v109c0,2.5-1.8,4.6-4.3,4.9l-79.5,8.5C22.7,230.2,22.6,230.2,22.4,230.2
						 M101.9,103.4c-0.1,0-0.3,0-0.4,0L22,112c-2.1,0.3-3.8,2.1-3.7,4.2v108.9c0,1.2,0.5,2.4,1.4,3.2c0.9,0.8,2,1.2,3.2,1l79.5-8.5
						c2.1-0.3,3.8-2.1,3.7-4.2V107.7c0-1.2-0.5-2.4-1.4-3.2C103.9,103.8,102.9,103.4,101.9,103.4"/>
					<path id="Path_424" class="st1" d="M58.1,225.9l-34.3-31.4L34.7,182L69,213.3L58.1,225.9z"/>
					<path id="Path_425" d="M58.1,226.2c-0.1,0-0.2,0-0.2-0.1l-34.3-31.4c-0.1-0.1-0.1-0.3,0-0.5l10.9-12.5c0.1-0.1,0.3-0.2,0.5,0
						c0,0,0,0,0,0l34.3,31.4c0.1,0.1,0.1,0.3,0,0.5l-10.9,12.5C58.3,226.2,58.2,226.2,58.1,226.2L58.1,226.2 M24.3,194.5l33.8,30.9
						l10.5-12l-33.8-30.9L24.3,194.5z"/>
					<path id="Path_426" class="st1" d="M96.4,113.8l10.1,9.3v-8.4l-6-5.5l4.5-5.1c-0.9-0.8-2.2-1.2-3.4-1.1l-4.2,0.5l-1.4,1.6
						l-1.4-1.3l-8.3,0.9l5.6,5.1l-11,12.6L68.6,111l4.8-5.5l-9.1,1l-0.4,0.5l-8,0.9l4,3.7l-11,12.6l-12.3-11.3l3.3-3.8l-9.1,1
						l-0.4,0.5l-4.9,0.5l2.5,2.3l-9.7,11.1v2.8l-0.5-0.4v8.4l12,10.9l-11.5,13.2v9.5l16-18.4l12.3,11.2l-28.8,33.1v9.5l33.4-38.3
						l12.3,11.3l-44.7,51.3c0.9,1.2,2.4,1.8,4,1.7l3.1-0.3L68,181.3l12.3,11.3l-30.1,34.5l9.1-1L85,196.7L97.3,208l-13.5,15.5l9.1-1
						l9-10.3l4.7,4.3v-8.4l-0.6-0.5l0.6-0.7v-9.5l-5.2,5.9L89,192l11-12.6l6.5,5.9v-8.4l-2.4-2.2l2.4-2.8v-9.5l-7,8l-12.3-11.3
						l11-12.6l8.3,7.6v-8.4l-4.2-3.9l4.2-4.8v-9.4l-8.8,10.1l-12.3-11.3L96.4,113.8z M64.5,115.7L76.8,127l-11,12.6l-12.3-11.2
						L64.5,115.7z M21.5,130.2l11-12.6l12.3,11.3l-11,12.6L21.5,130.2z M38.4,145.7l11-12.6l12.3,11.2l-11,12.6L38.4,145.7z
						 M55.2,161.1l11-12.6l12.3,11.3l-11,12.6L55.2,161.1z M95.5,175.2l-11,12.6l-12.3-11.3l11-12.6L95.5,175.2z M93.7,142.4
						l-11,12.6l-12.3-11.3l11-12.6L93.7,142.4z"/>
					<path id="Path_427" d="M22.3,230.4c-1.5,0-2.8-0.7-3.8-1.8c-0.1-0.1-0.1-0.3,0-0.4l44.5-51l-11.8-10.8L18,204.4
						c-0.1,0.1-0.3,0.2-0.5,0c-0.1-0.1-0.1-0.2-0.1-0.3v-9.5c0-0.1,0-0.2,0.1-0.2l28.6-32.8l-11.8-10.8L18.5,169
						c-0.1,0.1-0.3,0.2-0.5,0c-0.1-0.1-0.1-0.2-0.1-0.3v-9.5c0-0.1,0-0.2,0.1-0.2l11.2-12.9l-11.7-10.7c-0.1-0.1-0.1-0.2-0.1-0.3
						v-8.4c0-0.1,0.1-0.3,0.2-0.3c0.1,0,0.2,0,0.3,0v-2c0-0.1,0-0.2,0.1-0.2l9.4-10.8l-2.2-2.1c-0.1-0.1-0.1-0.3,0-0.5
						c0.1-0.1,0.1-0.1,0.2-0.1l4.8-0.5l0.3-0.4c0.1-0.1,0.1-0.1,0.2-0.1l9.1-1c0.2,0,0.4,0.1,0.4,0.3c0,0.1,0,0.2-0.1,0.3l-3.1,3.5
						l11.8,10.8l10.6-12.1l-3.8-3.5c-0.1-0.1-0.1-0.3,0-0.5c0.1-0.1,0.1-0.1,0.2-0.1l7.9-0.8l0.3-0.4c0.1-0.1,0.1-0.1,0.2-0.1l9.1-1
						c0.2,0,0.4,0.1,0.4,0.3c0,0.1,0,0.2-0.1,0.3L69,111l11.8,10.8l10.6-12.1l-5.3-4.9c-0.1-0.1-0.1-0.3,0-0.5
						c0.1-0.1,0.1-0.1,0.2-0.1l8.3-0.9c0.1,0,0.2,0,0.3,0.1l1.1,1l1.1-1.3c0.1-0.1,0.1-0.1,0.2-0.1l4.2-0.5c1.3-0.1,2.7,0.3,3.7,1.2
						c0.1,0.1,0.2,0.3,0,0.5l-4.2,4.9l5.8,5.3c0.1,0.1,0.1,0.2,0.1,0.3v8.4c0,0.2-0.2,0.3-0.3,0.3c-0.1,0-0.2,0-0.2-0.1l-9.9-9
						l-10.6,12.1l11.8,10.8l8.6-9.8c0.1-0.1,0.3-0.2,0.5,0c0.1,0.1,0.1,0.2,0.1,0.3v9.5c0,0.1,0,0.2-0.1,0.2l-4,4.6l4,3.6
						c0.1,0.1,0.1,0.2,0.1,0.3v8.4c0,0.2-0.2,0.3-0.3,0.3c-0.1,0-0.2,0-0.2-0.1l-8-7.4l-10.6,12.1L99.5,170l6.8-7.8
						c0.1-0.1,0.3-0.2,0.5,0c0.1,0.1,0.1,0.2,0.1,0.3v9.5c0,0.1,0,0.2-0.1,0.2l-2.2,2.5l2.2,2c0.1,0.1,0.1,0.2,0.1,0.3v8.4
						c0,0.2-0.2,0.3-0.3,0.3c-0.1,0-0.2,0-0.2-0.1l-6.2-5.7L89.5,192l11.8,10.8l5-5.7c0.1-0.1,0.3-0.2,0.5,0
						c0.1,0.1,0.1,0.2,0.1,0.3v9.5c0,0.1,0,0.2-0.1,0.2l-0.4,0.4l0.4,0.3c0.1,0.1,0.1,0.2,0.1,0.3v8.4c0,0.2-0.2,0.3-0.3,0.3
						c-0.1,0-0.2,0-0.2-0.1l-4.4-4.1l-8.7,10c-0.1,0.1-0.1,0.1-0.2,0.1l-9.1,1c-0.2,0-0.4-0.1-0.4-0.3c0-0.1,0-0.2,0.1-0.3L96.8,208
						L85,197.2l-25.4,29.1c-0.1,0.1-0.1,0.1-0.2,0.1l-9.1,1c-0.2,0-0.4-0.1-0.4-0.3c0-0.1,0-0.2,0.1-0.3l29.9-34.3l-11.8-10.8
						l-42,48.2C26,230,26,230,25.9,230l-3.1,0.3C22.6,230.4,22.4,230.4,22.3,230.4 M19.2,228.4c0.9,1,2.2,1.5,3.5,1.3l3-0.3
						L67.8,181c0.1-0.1,0.1-0.1,0.2-0.1c0.1,0,0.2,0,0.2,0.1l12.3,11.3c0.1,0.1,0.1,0.3,0,0.5l-29.5,33.9l8.1-0.9l25.5-29.3
						c0.1-0.1,0.1-0.1,0.2-0.1c0.1,0,0.2,0,0.2,0.1l12.3,11.3c0.1,0.1,0.1,0.3,0,0.5L84.6,223l8.1-0.9l8.9-10.2
						c0.1-0.1,0.3-0.2,0.5,0c0,0,0,0,0,0l4.1,3.8v-7.5l-0.5-0.4c-0.1-0.1-0.1-0.3,0-0.5l0.5-0.6v-8.4l-4.6,5.3
						c-0.1,0.1-0.3,0.2-0.5,0c0,0,0,0,0,0l-12.3-11.3c-0.1-0.1-0.1-0.3,0-0.5l11-12.6c0.1-0.1,0.1-0.1,0.2-0.1c0.1,0,0.2,0,0.2,0.1
						l5.9,5.4v-7.5l-2.3-2.1c-0.1-0.1-0.1-0.3,0-0.5l2.3-2.7v-8.4l-6.4,7.3c-0.1,0.1-0.3,0.2-0.5,0c0,0,0,0,0,0L87,159.5
						c-0.1-0.1-0.1-0.3,0-0.5l11-12.6c0.1-0.1,0.3-0.2,0.5,0c0,0,0,0,0,0l7.7,7.1v-7.5l-4.1-3.8c-0.1-0.1-0.1-0.3,0-0.5l4.1-4.7
						v-8.4L98,138c-0.1,0.1-0.1,0.1-0.2,0.1c-0.1,0-0.2,0-0.2-0.1l-12.3-11.3c-0.1-0.1-0.1-0.3,0-0.5l11-12.6
						c0.1-0.1,0.1-0.1,0.2-0.1c0.1,0,0.2,0,0.2,0.1l9.5,8.7v-7.5l-5.9-5.4c-0.1-0.1-0.1-0.3,0-0.5l4.2-4.9c-0.8-0.6-1.9-0.9-2.9-0.8
						l-4.1,0.4l-1.3,1.5c-0.1,0.1-0.1,0.1-0.2,0.1c-0.1,0-0.2,0-0.2-0.1l-1.3-1.2l-7.4,0.8l5,4.6c0.1,0.1,0.1,0.3,0,0.5l-11,12.6
						c-0.1,0.1-0.1,0.1-0.2,0.1c-0.1,0-0.2,0-0.2-0.1l-12.3-11.2c-0.1-0.1-0.1-0.3,0-0.5l4.2-4.9l-8.1,0.9l-0.3,0.4
						c-0.1,0.1-0.1,0.1-0.2,0.1l-7.3,0.8l3.5,3.2c0.1,0.1,0.1,0.3,0,0.5l-11,12.6c-0.1,0.1-0.1,0.1-0.2,0.1c-0.1,0-0.2,0-0.2-0.1
						l-12.3-11.3c-0.1-0.1-0.1-0.3,0-0.5l2.7-3.1l-8.1,0.9l-0.3,0.4c-0.1,0.1-0.1,0.1-0.2,0.1l-4.2,0.5l1.9,1.8
						c0.1,0.1,0.1,0.3,0,0.5l-9.6,11v2.6c0,0.2-0.2,0.3-0.3,0.3c-0.1,0-0.1,0-0.1,0v7.5l11.8,10.8c0.1,0.1,0.1,0.3,0,0.5l-11.4,13.1
						v8.4L34,150.1c0.1-0.1,0.1-0.1,0.2-0.1c0.1,0,0.2,0,0.2,0.1l12.3,11.2c0.1,0.1,0.1,0.3,0,0.5l-28.7,33v8.4l32.8-37.6
						c0.1-0.1,0.1-0.1,0.2-0.1c0.1,0,0.2,0,0.2,0.1l12.3,11.3c0.1,0.1,0.1,0.3,0,0.5L19.2,228.4z M84.5,188.2c-0.1,0-0.2,0-0.2-0.1
						l-12.3-11.3c-0.1-0.1-0.1-0.3,0-0.5l11-12.6c0.1-0.1,0.3-0.2,0.5,0c0,0,0,0,0,0L95.7,175c0.1,0.1,0.1,0.3,0,0.5l-11,12.6
						C84.7,188.1,84.6,188.2,84.5,188.2L84.5,188.2 M72.6,176.5l11.8,10.8L95,175.2l-11.8-10.8L72.6,176.5z M67.6,172.7
						c-0.1,0-0.2,0-0.2-0.1L55,161.3c-0.1-0.1-0.1-0.3,0-0.5l11-12.6c0.1-0.1,0.3-0.2,0.5,0c0,0,0,0,0,0l12.3,11.3
						c0.1,0.1,0.1,0.3,0,0.5l-11,12.6C67.8,172.7,67.7,172.7,67.6,172.7L67.6,172.7 M55.7,161.1l11.8,10.8l10.6-12.1L66.3,149
						L55.7,161.1z M50.7,157.2c-0.1,0-0.2,0-0.2-0.1l-12.3-11.2c-0.1-0.1-0.1-0.3,0-0.5l11-12.6c0.1-0.1,0.3-0.2,0.5,0c0,0,0,0,0,0
						L61.9,144c0.1,0.1,0.1,0.3,0,0.5l-11,12.6C50.9,157.2,50.8,157.2,50.7,157.2L50.7,157.2 M38.9,145.6l11.8,10.8l10.6-12.1
						l-11.8-10.8L38.9,145.6z M82.7,155.4c-0.1,0-0.2,0-0.2-0.1L70.1,144c-0.1-0.1-0.1-0.3,0-0.5l11-12.6c0.1-0.1,0.3-0.2,0.5,0
						c0,0,0,0,0,0l12.3,11.3c0.1,0.1,0.1,0.3,0,0.5l-11,12.6C82.9,155.3,82.8,155.4,82.7,155.4L82.7,155.4 M70.8,143.7l11.8,10.8
						l10.6-12.1l-11.8-10.8L70.8,143.7z M33.8,141.8c-0.1,0-0.2,0-0.2-0.1l-12.3-11.3c-0.1-0.1-0.1-0.3,0-0.5l11-12.6
						c0.1-0.1,0.1-0.1,0.2-0.1c0.1,0,0.2,0,0.2,0.1L45,128.6c0.1,0.1,0.1,0.3,0,0.5l-11,12.6C34,141.8,33.9,141.8,33.8,141.8
						L33.8,141.8 M21.9,130.2L33.8,141l10.6-12.1l-11.8-10.8L21.9,130.2z M65.7,139.9c-0.1,0-0.2,0-0.2-0.1l-12.3-11.2
						c-0.1-0.1-0.1-0.3,0-0.5l11-12.6c0.1-0.1,0.3-0.2,0.5,0c0,0,0,0,0,0L77,126.7c0.1,0.1,0.1,0.3,0,0.5l-11,12.6
						C65.9,139.9,65.9,139.9,65.7,139.9L65.7,139.9 M53.9,128.3l11.8,10.8L76.3,127l-11.8-10.8L53.9,128.3z"/>
					<path id="Path_428" class="st2" d="M29.1,86.2c0-1.7,1.4-3,3-3c1.7,0,3,1.4,3,3c0,1.7-1.4,3-3,3C30.5,89.2,29.1,87.9,29.1,86.2
						L29.1,86.2"/>
					<path id="Path_429" class="st2" d="M32.1,42c-6.9,0-12.5,5.6-12.6,12.5c0,0,0,0,0,0c0.2,2.4,0.9,4.7,2,6.8
						c3,6.7,8.4,14.9,10.1,17.3c0.2,0.3,0.6,0.4,0.8,0.2c0.1,0,0.1-0.1,0.2-0.2c2.3-3.4,12.1-18,12.1-24.1
						C44.7,47.6,39.1,41.9,32.1,42L32.1,42"/>
					<path id="Path_430" class="st1" d="M38.9,54.7c0,3.8-3,6.8-6.8,6.8s-6.8-3-6.8-6.8s3-6.8,6.8-6.8c0,0,0,0,0,0
						C35.9,47.9,38.9,51,38.9,54.7L38.9,54.7"/>
					<path id="Path_431" class="st1" d="M81.3,35.7c13.2-1.8,23.8,8.2,23.7,22.4c0,14.2-10.7,27.2-23.8,29s-23.8-8.2-23.8-22.3
						C57.4,50.6,68.1,37.6,81.3,35.7"/>
					<path id="Path_432" d="M78.1,87.6c-4.9,0-9.7-1.7-13.4-5c-5-4.6-7.8-11.1-7.6-17.9c0-14.3,10.9-27.5,24.2-29.4
						c5.9-0.9,12,0.8,16.5,4.7c4.9,4.2,7.6,10.8,7.6,18c0,14.3-10.8,27.5-24.1,29.3C80.2,87.6,79.1,87.6,78.1,87.6 M81.3,36
						c-13,1.8-23.5,14.7-23.6,28.7c-0.2,6.6,2.5,12.9,7.4,17.4c4.4,3.8,10.2,5.5,16,4.6c13-1.8,23.5-14.7,23.5-28.7
						c0-7-2.7-13.4-7.4-17.5C92.9,36.8,87,35.1,81.3,36"/>
					<path id="Path_433" d="M18.9,103.8c-0.2,0-0.3-0.2-0.3-0.3v-6.8c0-0.2,0.1-0.3,0.3-0.3l32.2-3.4c0.1,0,0.2,0,0.3,0.1
						c0.1,0.1,0.1,0.2,0.1,0.3v6.8c0,0.2-0.1,0.3-0.3,0.3L18.9,103.8L18.9,103.8 M19.3,96.9v6.2l31.5-3.3v-6.2L19.3,96.9z M51.1,100
						L51.1,100z"/>
					<path id="Path_434" class="st1" d="M192.9,130.3l39.9,7l39.5-6.9c0,0,0.1,0,0-0.1c0,0,0,0,0,0l-40-7L192.9,130.3z"/>
					<path id="Path_435" d="M232.8,137.6C232.8,137.6,232.8,137.6,232.8,137.6l-40-7c-0.2,0-0.3-0.2-0.3-0.4c0-0.1,0.1-0.3,0.3-0.3
						l39.5-7.1c0,0,0.1,0,0.1,0l40,7c0.2,0,0.4,0.2,0.4,0.4c0,0.2-0.2,0.4-0.4,0.4L232.8,137.6C232.8,137.6,232.8,137.6,232.8,137.6
						 M194.8,130.3l38,6.6l37.9-6.6l-38.4-6.7L194.8,130.3z"/>
					<path id="Path_436" class="st1" d="M232.8,196.4v-59.2l-40.1-6.9v59L232.8,196.4z"/>
					<path id="Path_437" d="M232.8,196.8C232.8,196.8,232.8,196.8,232.8,196.8l-40.1-7.1c-0.2,0-0.3-0.2-0.3-0.3v-59
						c0-0.1,0-0.2,0.1-0.3c0.1-0.1,0.2-0.1,0.3-0.1l40.1,6.9c0.2,0,0.3,0.2,0.3,0.3v59.2C233.1,196.6,233,196.8,232.8,196.8
						L232.8,196.8 M193.1,189l39.4,7v-58.5l-39.4-6.8V189z"/>
					<path id="Path_438" class="st1" d="M232.8,196.4v-59.2l39.7-7v59.1L232.8,196.4z"/>
					<path id="Path_439" d="M232.8,196.8c-0.2,0-0.3-0.2-0.3-0.3v-59.2c0-0.2,0.1-0.3,0.3-0.3l39.7-7c0.2,0,0.4,0.1,0.4,0.3
						c0,0,0,0,0,0.1v59.1c0,0.2-0.1,0.3-0.3,0.3L232.8,196.8C232.8,196.8,232.8,196.8,232.8,196.8 M233.1,137.5V196l39-7v-58.4
						L233.1,137.5z"/>
					<path id="Path_440" class="st1" d="M190.4,84.2l30.1,5.3l29.8-5.2c0,0,0.1,0,0-0.1c0,0,0,0,0,0l-30.1-5.3L190.4,84.2z"/>
					<path id="Path_441" d="M220.5,89.8C220.5,89.8,220.4,89.8,220.5,89.8l-30.1-5.3c-0.2,0-0.3-0.2-0.3-0.4c0-0.1,0.1-0.3,0.3-0.3
						l29.7-5.3c0,0,0.1,0,0.1,0l30.1,5.3c0.2,0,0.4,0.3,0.3,0.5c0,0.2-0.2,0.3-0.3,0.3L220.5,89.8C220.5,89.8,220.5,89.8,220.5,89.8
						 M192.4,84.2l28.1,4.9l28.1-4.9l-28.4-5L192.4,84.2z M250.2,83.9L250.2,83.9z"/>
					<path id="Path_442" class="st1" d="M220.5,134V89.4l-30.2-5.2v44.5L220.5,134z"/>
					<path id="Path_443" class="st3" d="M208.7,93.2v-5.8l-7.6-1.3v5.7L208.7,93.2z"/>
					<path id="Path_444" d="M220.5,134.4C220.4,134.4,220.4,134.4,220.5,134.4l-30.3-5.4c-0.2,0-0.3-0.2-0.3-0.3V84.2
						c0-0.2,0.2-0.3,0.3-0.3c0,0,0,0,0.1,0l30.2,5.2c0.2,0,0.3,0.2,0.3,0.3V134C220.8,134.2,220.7,134.4,220.5,134.4L220.5,134.4
						 M190.6,128.4l29.5,5.2V89.7l-29.5-5.1V128.4z"/>
					<path id="Path_445" class="st1" d="M220.5,134V89.4l29.9-5.2v44.5L220.5,134z"/>
					<path id="Path_446" d="M220.5,134.4c-0.2,0-0.3-0.2-0.3-0.3l0,0V89.4c0-0.2,0.1-0.3,0.3-0.3l29.9-5.2c0.2,0,0.4,0.1,0.4,0.3
						c0,0,0,0,0,0.1v44.5c0,0.2-0.1,0.3-0.3,0.3L220.5,134.4C220.5,134.4,220.5,134.4,220.5,134.4 M220.8,89.7v43.9l29.3-5.2V84.6
						L220.8,89.7z"/>
					<path id="Path_447" class="st1" d="M128.5,125.9l49.2,8.6l48.8-8.5c0,0,0.1,0,0-0.1c0,0,0,0,0,0l-49.4-8.6L128.5,125.9z"/>
					<path id="Path_448" d="M177.7,134.9C177.7,134.9,177.7,134.9,177.7,134.9l-49.3-8.6c-0.2,0-0.3-0.2-0.3-0.4
						c0-0.1,0.1-0.3,0.3-0.3l48.6-8.7c0,0,0.1,0,0.1,0l49.4,8.6c0.2,0,0.4,0.2,0.4,0.4c0,0.2-0.2,0.4-0.4,0.4L177.7,134.9
						C177.7,134.9,177.7,134.9,177.7,134.9 M130.5,125.9l47.2,8.3l47.2-8.3l-47.7-8.4L130.5,125.9z"/>
					<path id="Path_449" class="st1" d="M177.7,207.4v-73l-49.4-8.6v72.8L177.7,207.4z"/>
					<path id="Path_450" class="st3" d="M158.4,139.2v-8.1l-10.8-1.9v8.1L158.4,139.2z"/>
					<path id="Path_451" d="M177.7,207.8C177.7,207.8,177.7,207.8,177.7,207.8l-49.4-8.8c-0.2,0-0.3-0.2-0.3-0.3v-72.8
						c0-0.2,0.2-0.3,0.3-0.3c0,0,0,0,0.1,0l49.4,8.6c0.2,0,0.3,0.2,0.3,0.3v73C178,207.6,177.9,207.8,177.7,207.8L177.7,207.8
						 M128.7,198.4l48.7,8.6v-72.3l-48.7-8.4V198.4z"/>
					<path id="Path_452" class="st1" d="M177.7,207.4v-73l49-8.6v72.8L177.7,207.4z"/>
					<path id="Path_453" d="M177.7,207.8c-0.2,0-0.3-0.2-0.3-0.3l0,0v-73c0-0.2,0.1-0.3,0.3-0.3l49-8.6c0.2,0,0.4,0.1,0.4,0.3
						c0,0,0,0,0,0.1v72.8c0,0.2-0.1,0.3-0.3,0.3L177.7,207.8C177.7,207.8,177.7,207.8,177.7,207.8 M178,134.8V207l48.3-8.6v-72.1
						L178,134.8z"/>
					<path id="Path_454" d="M165.4,179.6C165.4,179.6,165.3,179.6,165.4,179.6l-25.2-3.7c-0.2,0-0.3-0.2-0.3-0.3v-27.3
						c0-0.2,0.2-0.3,0.3-0.3c0,0,0,0,0,0l25.2,3.6c0.2,0,0.3,0.2,0.3,0.3v27.4C165.7,179.5,165.6,179.6,165.4,179.6 M140.5,175.3
						l24.5,3.6v-26.7l-24.5-3.5V175.3z"/>
					<path id="Path_455" d="M143.6,172.7c-0.2,0-0.3-0.2-0.3-0.3l0,0v-20.1c0-0.2,0.2-0.3,0.3-0.3c0.2,0,0.3,0.2,0.3,0.3v20.1
						C143.9,172.5,143.7,172.7,143.6,172.7L143.6,172.7"/>
					<path id="Path_456" d="M146.6,173.2c-0.2,0-0.3-0.2-0.3-0.3l0,0v-20.1c0-0.2,0.1-0.3,0.3-0.3c0.2,0,0.3,0.1,0.3,0.3
						c0,0,0,0,0,0v20.1C147,173.1,146.8,173.2,146.6,173.2L146.6,173.2"/>
					<path id="Path_457" d="M149.7,173.8c-0.2,0-0.3-0.2-0.3-0.3l0,0v-20.1c0-0.2,0.2-0.3,0.3-0.3c0.2,0,0.3,0.2,0.3,0.3v20.1
						C150.1,173.6,149.9,173.8,149.7,173.8L149.7,173.8"/>
					<path id="Path_458" d="M152.8,174.4c-0.2,0-0.3-0.2-0.3-0.3c0,0,0,0,0,0v-20.1c0-0.2,0.1-0.3,0.3-0.3c0.2,0,0.3,0.1,0.3,0.3
						c0,0,0,0,0,0V174C153.2,174.2,153,174.4,152.8,174.4C152.8,174.4,152.8,174.4,152.8,174.4"/>
					<path id="Path_459" d="M157.1,174.1c-0.2,0-0.3-0.2-0.3-0.3c0,0,0,0,0,0v-19c0-0.2,0.1-0.3,0.3-0.3c0.2,0,0.3,0.1,0.3,0.3
						c0,0,0,0,0,0v19C157.5,174,157.3,174.1,157.1,174.1C157.1,174.1,157.1,174.1,157.1,174.1"/>
					<path id="Path_460" d="M162.1,176c-0.2,0-0.3-0.2-0.3-0.3c0,0,0,0,0,0v-20.1c0-0.2,0.2-0.3,0.3-0.3c0.2,0,0.3,0.2,0.3,0.3v20.1
						C162.4,175.9,162.3,176,162.1,176C162.1,176,162.1,176,162.1,176"/>
					<path id="Path_461" class="st1" d="M73.1,251l1,10.7c0,0.3-0.1,0.5-0.4,0.6c0,0,0,0,0,0l-5.3,0.3c-0.2,0-0.4-0.2-0.5-0.4
						l-1-9.7L73.1,251z"/>
					<path id="Path_462" d="M68.3,263c-0.4,0-0.7-0.3-0.8-0.7l-1-9.7c0-0.2,0.1-0.3,0.3-0.4l6.2-1.5c0.2,0,0.4,0.1,0.4,0.3
						c0,0,0,0,0,0l1,10.7c0,0.2,0,0.5-0.2,0.7c-0.1,0.2-0.3,0.3-0.5,0.3L68.3,263L68.3,263 M67.3,252.7l1,9.4c0,0.1,0,0.1,0.1,0.1
						l5.3-0.3c0,0,0.1,0,0.1,0c0,0,0.1-0.1,0-0.2l-1-10.3L67.3,252.7z"/>
					<path id="Path_463" class="st1" d="M74.9,258.9c0.4,1.3,1.1,4.8,1.4,7c0.2,1.3-0.6,2.6-2,3c-3.7,1-12.4,0.9-19.8,1.3
						c-0.9,0-1.6-0.6-1.8-1.4c-1.4-4.1,6.3-5.4,13.9-9.6c0.1-0.1,0.3-0.1,0.5,0c0.1,0.1,0.2,0.1,0.3,0.2c1.5,0.8,3.3,0.8,4.9,0
						l1.5-0.9c0.3-0.2,0.8-0.1,1,0.3C74.9,258.8,74.9,258.9,74.9,258.9"/>
					<path id="Path_464" d="M54.6,270.5c-1,0-1.8-0.7-2.1-1.7c-1.1-3.2,2.5-4.7,7.4-6.8c2-0.9,4.4-1.9,6.6-3.1
						c0.3-0.1,0.6-0.1,0.8,0c0.1,0.1,0.2,0.1,0.3,0.2c1.4,0.8,3.1,0.8,4.5,0l1.5-0.9c0.5-0.3,1.2-0.1,1.5,0.4
						c0.1,0.1,0.1,0.2,0.1,0.3c0.4,1.3,1.1,4.9,1.4,7c0.2,1.5-0.7,2.9-2.2,3.3c-2.8,0.7-8.2,0.9-14,1.1
						C58.5,270.3,56.5,270.4,54.6,270.5L54.6,270.5 M66.9,259.4C66.9,259.4,66.9,259.4,66.9,259.4c-2.4,1.3-4.7,2.3-6.8,3.2
						c-4.6,2-7.9,3.4-7,6c0.2,0.7,0.8,1.2,1.5,1.2c1.9-0.1,3.9-0.1,5.8-0.2c5.8-0.2,11.2-0.3,13.9-1.1c1.1-0.3,1.9-1.4,1.7-2.6
						c-0.3-2.1-1-5.6-1.4-6.9c-0.1-0.2-0.3-0.3-0.5-0.3c0,0-0.1,0-0.1,0l-1.5,0.9c-1.6,0.9-3.6,0.9-5.2,0
						C67.2,259.6,67,259.5,66.9,259.4C66.9,259.4,66.9,259.4,66.9,259.4"/>
					<path id="Path_465" class="st1" d="M76.6,266.9C76.6,266.9,76.6,266.9,76.6,266.9c0.2,1.4-1.1,2.2-2.3,2.8
						c-3.6,1.7-18.2,0.7-18.8,0.7h0c-0.2,0-2,0-2.6-1.2c-0.1-0.2-0.1-0.3-0.1-0.5c0-0.3,0-0.6,0-0.9c0.1-0.2,0.3-0.4,0.5-0.3
						c0,0,0,0,0,0c2.7,0.7,9,0.9,15.4,0.2c4.2-0.5,6-1.4,7-2c0.2-0.1,0.5-0.1,0.6,0.2c0,0,0,0.1,0.1,0.1
						C76.4,266.2,76.5,266.5,76.6,266.9"/>
					<path id="Path_466" d="M64.6,271c-4.5,0-8.8-0.3-9.2-0.3c-0.2,0-2.3,0-2.9-1.3c-0.1-0.2-0.1-0.4-0.2-0.6c0-0.3,0-0.7,0.1-1
						c0-0.2,0.2-0.4,0.4-0.5c0.2-0.1,0.4-0.1,0.6-0.1c2.5,0.6,8.7,0.9,15.2,0.2c4-0.4,5.8-1.3,6.9-1.9c0.2-0.1,0.5-0.1,0.7,0
						c0.2,0.1,0.4,0.3,0.5,0.6l0.2,0.9c0,0,0,0.1,0,0.1c0.2,1.6-1.3,2.5-2.5,3.1C72.7,270.8,68.6,271,64.6,271 M55.5,270L55.5,270
						c5.3,0.4,15.8,0.7,18.7-0.7c1.6-0.7,2.2-1.5,2.1-2.4l0-0.1l0,0L76,266c0,0,0-0.1-0.1-0.1c0,0-0.1,0-0.1,0c-1.1,0.6-3,1.6-7.1,2
						c-6.6,0.7-12.9,0.4-15.5-0.2c0,0-0.1,0-0.1,0c0,0,0,0,0,0.1c-0.1,0.3-0.1,0.5,0,0.8c0,0.1,0,0.3,0.1,0.4
						C53.6,270,55.4,270,55.5,270L55.5,270z"/>
					<path id="Path_467" d="M66.2,262.8c-0.1,0-0.1,0-0.2-0.1l-2.2-1.7c-0.2-0.1-0.2-0.3-0.1-0.5c0.1-0.2,0.3-0.2,0.5-0.1l0,0
						l2.2,1.7c0.2,0.1,0.2,0.3,0.1,0.5C66.4,262.7,66.3,262.8,66.2,262.8"/>
					<path id="Path_468" d="M63.2,264c-0.1,0-0.1,0-0.2-0.1l-1.9-1.5c-0.2-0.1-0.2-0.3-0.1-0.5s0.3-0.2,0.5-0.1l1.9,1.5
						c0.2,0.1,0.2,0.3,0.1,0.5C63.4,263.9,63.3,264,63.2,264"/>
					<path id="Path_469" class="st1" d="M86.5,165.5c2.3,4.7,3.9,9.7,4.8,14.9c1.1,7.1,5.3,36.4,15.5,59.8c1,2.1,0.2,4.6-1.9,5.7
						c-0.3,0.2-0.7,0.3-1.1,0.4c-1.1,0.2-1.6-0.2-2.6-0.6c-0.5-0.3-0.9-0.6-1.3-1c0,0-18-15-25.3-54.5c-4.7-25.4-3.9-23.4-3.9-23.4
						L86.5,165.5z"/>
					<path id="Path_470" class="st1" d="M81.5,168.8c0,0,2.1,13.8-1.9,24c-3.8,9.8-6.3,48.2-4.9,59.3c0.1,0.7-0.4,1.3-1.1,1.4
						c-2.3,0.4-4.7,0.4-7.1,0.2c-0.4-0.1-0.7-0.4-0.8-0.8c-1.4-5.6-13.2-56.5-4.9-82.6L81.5,168.8z"/>
					<path id="Path_471" d="M77.4,204.6L77.4,204.6c-0.2,0-0.4-0.2-0.3-0.4c0,0,0,0,0,0c0.3-3.6,1.3-7.2,2.7-10.6
						c0.5-1.2,0.9-2.4,1.1-3.6c0-0.2,0.2-0.3,0.4-0.3c0.2,0,0.3,0.2,0.3,0.4c-0.3,1.3-0.7,2.5-1.2,3.8c-1.4,3.3-2.3,6.8-2.6,10.4
						C77.7,204.5,77.6,204.6,77.4,204.6"/>
					<path id="Path_472" d="M71.6,191.6c-0.5,0-1.1-0.1-1.5-0.3l-3.8-1.7c-1.3-0.6-2.1-1.8-2-3.2l0.2-7.4c0-0.7,0.6-1.2,1.3-1.2
						c0,0,0.1,0,0.1,0c3.6,0.3,7.2,0.2,10.8-0.3l0,0c0.7-0.1,1.3,0.4,1.4,1c0,0.1,0,0.2,0,0.2l-0.4,7.8c-0.1,1-0.6,2-1.4,2.6
						l-2.4,1.8C73.1,191.4,72.4,191.6,71.6,191.6 M65.7,178.4c-0.3,0-0.5,0.2-0.5,0.5l-0.2,7.4c0,1.1,0.6,2.1,1.6,2.6l3.8,1.7
						c1,0.4,2.2,0.3,3.1-0.3l2.4-1.8c0.7-0.5,1.1-1.2,1.1-2.1l0.4-7.8c0-0.2-0.1-0.3-0.2-0.4c-0.1-0.1-0.3-0.2-0.5-0.1
						C73.1,178.7,69.4,178.8,65.7,178.4L65.7,178.4"/>
					<path id="Path_473" d="M90.1,190.5c-0.2,0-0.4,0-0.6-0.1l-4.2-2.1c-0.4-0.2-0.6-0.6-0.7-1l-0.9-8.7c-0.1-0.7,0.4-1.3,1.1-1.4
						l3.9-0.6c0.2,0,0.4,0.1,0.4,0.3c0,0.2-0.1,0.4-0.3,0.4c0,0,0,0,0,0l-3.9,0.6c-0.3,0-0.5,0.3-0.5,0.6l0.9,8.7
						c0,0.2,0.1,0.4,0.3,0.4l4.2,2.1c0.2,0.1,0.4,0.1,0.6,0l1-0.7c0.2-0.1,0.4-0.1,0.5,0.1c0.1,0.2,0.1,0.4-0.1,0.5l0,0l-1,0.7
						C90.6,190.4,90.4,190.5,90.1,190.5"/>
					<path id="Path_474" d="M69,254.2c-0.8,0-1.7-0.1-2.5-0.2c-0.5-0.1-0.9-0.5-1.1-1c-0.1-0.5-13.7-55.1-4.9-82.8
						c0-0.1,0.2-0.2,0.3-0.2l9.7-0.7c-0.4-2.7-0.3-2.7,0-2.8c0.1,0,0.2,0,0.2,0l15.8-1.3c0.1,0,0.3,0.1,0.3,0.2
						c2.3,4.8,3.9,9.8,4.9,15c0.1,0.4,0.1,0.9,0.2,1.5c1.4,9,5.7,36.2,15.2,58.3c0.6,1.3,0.6,2.8,0,4.1c-0.7,1.2-1.8,2.1-3.2,2.4
						c-0.8,0.2-1.7,0-2.4-0.4c-0.1-0.1-0.3-0.1-0.4-0.2c-0.5-0.3-1-0.6-1.4-1c-0.1-0.1-13.9-11.9-22.2-40.9c-2.2,15-3.5,39.5-2.4,48
						c0.1,0.9-0.5,1.7-1.4,1.8C72.1,254.1,70.6,254.2,69,254.2 M61.1,170.7c-8.6,27.6,4.8,81.6,5,82.2c0.1,0.3,0.3,0.5,0.5,0.5
						c2.3,0.3,4.6,0.2,6.9-0.2c0.5-0.1,0.9-0.5,0.8-1.1c-1.2-9,0.2-34.6,2.6-49.8c0-0.2,0.2-0.3,0.3-0.3c0.2,0,0.3,0.1,0.3,0.3
						c8.2,29.9,22.3,42,22.4,42.1c0.4,0.3,0.8,0.7,1.3,0.9c0.2,0.1,0.3,0.2,0.4,0.2c0.6,0.4,1.3,0.5,1.9,0.4c1.2-0.2,2.2-1,2.7-2
						c0.5-1.1,0.6-2.4,0-3.6c-9.6-22.2-13.9-49.5-15.3-58.5c-0.1-0.6-0.2-1-0.2-1.4c-0.9-5-2.5-9.9-4.7-14.6l-15.4,1.3
						c0,0.3,0.1,1,0.3,2.4c0,0.2-0.1,0.4-0.3,0.4c0,0,0,0,0,0L61.1,170.7z"/>
					<path id="Path_475" class="st1" d="M104.6,252c-0.3-2.1-1.1-4.2-2.4-5.9c-1.1-1.7,1.5-4.3,2.8-4.6c2.2-0.5,1.9,0.2,4.4,3.4
						l2,2.4C111.4,247.4,105.1,254.7,104.6,252"/>
					<path id="Path_476" d="M105.1,252.9c-0.1,0-0.2,0-0.2,0c-0.4-0.1-0.6-0.4-0.7-0.8c-0.3-2.1-1.1-4.1-2.4-5.8
						c-0.4-0.7-0.4-1.6,0-2.3c0.6-1.3,1.7-2.3,3.1-2.8c1.9-0.4,2.2,0.1,3.3,1.6c0.4,0.5,0.8,1.1,1.5,1.9l2,2.4
						c0.1,0.1,0.1,0.3,0,0.4C110.9,248.5,107,252.9,105.1,252.9 M104.9,252c0.1,0.3,0.2,0.3,0.2,0.3c0.9,0.2,3.9-2.6,5.9-4.9
						l-1.8-2.2c-0.7-0.8-1.1-1.4-1.5-2c-1.1-1.5-1.2-1.6-2.6-1.3c-1.1,0.4-2.1,1.3-2.6,2.4c-0.3,0.5-0.3,1.1,0,1.7
						C103.7,247.7,104.6,249.8,104.9,252"/>
					<path id="Path_477" d="M105.2,252.9c-0.1,0-0.2,0-0.2,0c-0.4-0.1-0.6-0.4-0.7-0.8c-0.4-2.1-1.2-4-2.4-5.8
						c-0.1-0.2-0.1-0.4,0.1-0.5c0.2-0.1,0.4-0.1,0.5,0.1c1.2,1.8,2,3.9,2.5,6c0.1,0.3,0.2,0.3,0.2,0.3c0.9,0.2,3.9-2.6,5.9-4.9
						l-1.7-2c-0.7-0.9-1.4-1.8-2-2.8c-0.1-0.2-0.1-0.4,0.1-0.5c0.2-0.1,0.4-0.1,0.5,0.1c0,0,0,0,0,0c0.6,0.9,1.2,1.9,1.9,2.7
						l1.9,2.3c0.1,0.1,0.1,0.3,0,0.4C110.9,248.5,107,252.9,105.2,252.9"/>
					<path id="Path_478" class="st1" d="M104.2,250.9l2.5-3.9c1-1.6,3.1-2.1,4.8-1.1c0.2,0.1,0.4,0.3,0.5,0.4l3,2.4
						c0.3,0.9,0.5,1.8,0.4,2.8c-0.3,1.9-0.8,3.7-1.5,5.5c-1.3,3.1-5,9.4-6.3,11.6c-0.3,0.5-1,0.9-1.5,0.7c-0.7-0.3-1.3-0.7-1.8-1.2
						c-0.9-0.8-0.7-4.8-0.4-7.5c0.1-2.7,0-5.4-0.2-8.1C103.8,251.9,103.9,251.4,104.2,250.9"/>
					<path id="Path_479" d="M106.4,269.7c-0.1,0-0.3,0-0.4-0.1c-0.7-0.3-1.3-0.8-1.9-1.3c-0.3-0.3-1.2-1.1-0.5-7.8
						c0.1-2.7,0-5.4-0.2-8.1c0-0.6,0.1-1.2,0.4-1.7l2.5-3.9c1.1-1.8,3.5-2.3,5.2-1.2c0.2,0.1,0.4,0.3,0.6,0.4l3,2.4
						c0,0,0.1,0.1,0.1,0.2c0.3,0.9,0.5,1.9,0.4,2.9c-0.3,1.9-0.8,3.8-1.5,5.6c-1.3,3.1-4.8,9.2-6.3,11.6
						C107.6,269.3,107,269.6,106.4,269.7 M104.2,250.9l0.3,0.2c-0.2,0.4-0.4,0.8-0.3,1.3c0.2,2.7,0.3,5.4,0.2,8.2
						c-0.6,5.8,0,7,0.3,7.2c0.5,0.5,1.1,0.9,1.7,1.2c0.3,0.1,0.8-0.2,1-0.6c1.4-2.5,5-8.5,6.2-11.5c0.7-1.7,1.2-3.5,1.5-5.4
						c0-0.9-0.1-1.7-0.4-2.5l-2.9-2.3c-1.2-1.2-3.2-1.1-4.4,0.1c-0.1,0.1-0.3,0.3-0.4,0.5l-2.5,3.9L104.2,250.9z"/>
					<path id="Path_480" d="M104,255.7c-0.2,0-0.3-0.1-0.3-0.3c0-0.2,0.1-0.3,0.2-0.3l2.7-0.8c0.2-0.1,0.4,0,0.4,0.2
						c0.1,0.2,0,0.4-0.2,0.4c0,0,0,0,0,0L104,255.7C104,255.7,104,255.7,104,255.7"/>
					<path id="Path_481" d="M104.2,258.1c-0.2,0-0.3-0.1-0.3-0.3c0-0.2,0.1-0.3,0.2-0.3l2.7-0.8c0.2-0.1,0.4,0,0.4,0.2
						c0.1,0.2,0,0.4-0.2,0.4c0,0,0,0,0,0L104.2,258.1C104.3,258.1,104.2,258.1,104.2,258.1"/>
					<path id="Path_482" class="st1" d="M107.2,269.5c-0.3,0-0.5,0-0.8-0.1c-1.8-0.3-3-2-2.7-3.8c0.2-3.1,2.5-4.7,4.1-6.7
						c1.3-1.6,1-7.9,1.4-9.2c0.7-2.3,4-2.7,5.6-0.9c1.1,1.1,1.2,3.5,1.2,5.3c-0.1,3.4-2,10.1-4.4,13.4
						C110.6,268.8,108.9,269.5,107.2,269.5"/>
					<path id="Path_483" d="M107.2,269.8c-0.3,0-0.6,0-0.8-0.1l-0.1,0c-1.9-0.4-3.2-2.2-2.9-4.1c0.1-2.5,1.6-4,3-5.5
						c0.4-0.4,0.8-0.9,1.2-1.3c0.8-0.9,0.9-4.1,1.1-6.3c0-0.9,0.1-1.8,0.3-2.8c0.3-1.1,1.3-1.9,2.4-2.1c1.4-0.3,2.8,0.1,3.8,1.1
						c1.2,1.3,1.3,4.1,1.3,5.6c-0.1,3.2-1.9,10.1-4.5,13.6C110.8,269.1,109,269.9,107.2,269.8L107.2,269.8 M112.3,248
						c-0.3,0-0.5,0-0.8,0.1c-0.9,0.2-1.6,0.8-1.9,1.7c-0.1,0.9-0.2,1.7-0.2,2.6c-0.1,2.5-0.3,5.6-1.2,6.7c-0.4,0.5-0.8,0.9-1.2,1.4
						c-1.4,1.5-2.7,2.9-2.8,5.1c-0.3,1.6,0.8,3.1,2.4,3.4l0.1,0c0.2,0.1,0.4,0.1,0.7,0.1l0,0c1.6,0,3.1-0.7,4.2-1.9
						c2.5-3.3,4.2-10,4.4-13.2c0.1-2.4-0.3-4.3-1.1-5.1C114,248.4,113.2,248,112.3,248"/>
					<path id="Path_484" d="M107.2,269.8c-0.7,0-1.4-0.3-1.9-0.8c-0.4-0.5-0.6-1.1-0.5-1.7c0.4-3.2,2.1-4.9,3.9-6.7
						c1.4-1.4,1.7-6.2,1.8-8.5c0-0.5,0.1-1,0.1-1.5c0.5-1.1,1.5-1.9,2.7-2c1.1-0.2,2.2,0.4,2.7,1.4c0.1,0.2,0,0.4-0.1,0.5
						c-0.2,0.1-0.4,0-0.5-0.1l0,0c-0.4-0.8-1.2-1.2-2-1c-0.9,0.1-1.7,0.7-2.1,1.5c0,0.1-0.1,0.7-0.1,1.4c-0.2,2.6-0.4,7.4-2,8.9
						c-1.8,1.8-3.3,3.3-3.7,6.3c-0.1,0.4,0.1,0.8,0.3,1.1c0.4,0.4,0.9,0.6,1.4,0.5c0.3,0,0.6,0,0.9-0.1c0.2,0,0.4,0.1,0.4,0.3
						c0,0.2-0.1,0.4-0.3,0.4C107.9,269.8,107.6,269.8,107.2,269.8L107.2,269.8"/>
					<path id="Path_485" class="st1" d="M79.3,117.7l-1.6-8.9l-7.3,1.9l1,6.2L79.3,117.7z"/>
					<path id="Path_486" d="M79.3,118.1L79.3,118.1l-7.9-0.8c-0.2,0-0.3-0.1-0.3-0.3l-1-6.2c0-0.2,0.1-0.3,0.3-0.4l7.3-1.9
						c0.2,0,0.4,0.1,0.4,0.2c0,0,0,0,0,0l1.6,8.9C79.7,117.9,79.6,118,79.3,118.1C79.4,118.1,79.4,118.1,79.3,118.1 M71.7,116.6
						l7.2,0.8l-1.5-8.1l-6.6,1.7L71.7,116.6z"/>
					<path id="Path_487" d="M71.7,96.8c2.6,0.4,3,3.3,6.1,3.6c1.4,0.2,2.1-0.4,3.4,0.2c1.1,0.5,1.9,1.5,2.2,2.6
						c0.2,1.6-1.6,2-3.5,5.1c-1.3,2.2-1.4,3.7-2.4,3.8s-1.5-1.3-2.6-1.2c-1.5,0.1-1.7,2.6-3.2,3.3c-1,0.5-3,0.4-5.9-1.8
						c-0.5-0.4-0.6-1-0.4-1.5c0.3-0.7,0.8-1.5,1.2-2.3c2.3-3.7,3.9-4.3,3.6-5.5c-0.5-1.7-3.7-1.4-3.9-2.8C66,99,69,96.4,71.7,96.8"
						/>
					<path id="Path_488" class="st1" d="M75.9,104.3l-0.7-0.4c0,0-2.2,4.7-3.1,5.9s-4.8-1.2-4.8-1.2l-0.1-0.9l-0.5-0.3
						c-0.3-0.2-0.3-0.5-0.2-0.8c0,0,0-0.1,0.1-0.1c1.6-1.5,2.9-3.2,3.9-5.1C72.8,101.4,74.8,102.5,75.9,104.3"/>
					<path id="Path_489" d="M76.2,104.6c-0.1,0-0.3,0-0.5-0.1c-0.2,0-0.4-0.1-0.6-0.2l0.5-0.2c-0.4,0.9-0.9,1.8-1.3,2.7
						s-0.9,1.8-1.4,2.6c-0.1,0.2-0.3,0.4-0.4,0.7c-0.1,0.1-0.3,0.3-0.4,0.3c-0.2,0.1-0.3,0.1-0.5,0.1c-0.5,0-1.1-0.1-1.6-0.3
						c-1-0.4-1.9-0.8-2.7-1.3c-0.1-0.1-0.2-0.1-0.2-0.3c0-0.3-0.1-0.6-0.1-0.9l0.2,0.2c-0.1-0.1-0.3-0.2-0.4-0.3
						c0,0-0.1-0.1-0.1-0.1c0,0-0.1-0.1-0.1-0.1c-0.1-0.1-0.1-0.2-0.1-0.3c0-0.2,0-0.5,0.2-0.7c0.1-0.1,0.1-0.1,0.2-0.2l0.2-0.2
						c0.5-0.5,0.9-1,1.3-1.5s0.8-1,1.2-1.6c0.4-0.5,0.7-1.1,1-1.7v0c0.1-0.1,0.2-0.2,0.3-0.2c0.6,0,1.1,0.1,1.7,0.2
						c0.5,0.1,1.1,0.3,1.6,0.6c0.5,0.3,0.9,0.6,1.4,1c0.2,0.2,0.4,0.4,0.6,0.6c0.1,0.1,0.2,0.2,0.3,0.3l0,0c0,0,0,0.1,0.1,0.1
						c0,0.1,0.1,0.1,0.1,0.2C76.2,104.3,76.2,104.4,76.2,104.6 M75.7,104.1c-0.1,0-0.2,0-0.2,0.1c0,0,0,0,0,0.1c0,0,0,0,0,0l0,0
						c-0.1-0.1-0.2-0.2-0.2-0.3c-0.2-0.2-0.3-0.4-0.5-0.5c-0.4-0.3-0.8-0.6-1.2-0.9c-0.4-0.2-0.9-0.4-1.4-0.5
						c-0.5-0.1-1-0.2-1.5-0.2l0.3-0.2c-0.6,1.2-1.4,2.4-2.4,3.4c-0.5,0.5-0.9,1-1.4,1.5l-0.3,0.3c-0.1,0.1-0.1,0.2-0.1,0.3
						c0,0,0,0.1,0.1,0.1c0,0,0,0,0.1,0l0.1,0c0.2,0.1,0.3,0.1,0.5,0.2c0.1,0,0.1,0.1,0.1,0.2l0,0c0,0.3,0.1,0.6,0.1,0.9l-0.2-0.3
						c0.8,0.5,1.7,0.9,2.6,1.3c0.4,0.2,0.9,0.2,1.3,0.2c0.2,0,0.3-0.1,0.4-0.2c0.1-0.2,0.3-0.4,0.4-0.6c0.5-0.8,1-1.7,1.4-2.6
						s0.9-1.8,1.3-2.7l0,0c0.1-0.2,0.3-0.2,0.5-0.2c0,0,0,0,0,0l0,0c0.1,0,0.1,0.1,0.1,0.2C75.6,103.9,75.6,104,75.7,104.1"/>
					<path id="Path_490" class="st1" d="M74.5,107.8c0,0,1.8-2.2,2.6-1.2c0.3,0.7,0,1.6-0.7,1.9C75.7,108.8,74.8,108.5,74.5,107.8
						C74.5,107.8,74.5,107.8,74.5,107.8"/>
					<path id="Path_491" class="st1" d="M104.9,175.2c0,0-0.6,5.6,0.4,7.6s7.3,5.8,7.3,5.8c0.8-0.4,1.1-1.4,0.6-2.1
						c-0.1-0.3-0.4-0.5-0.6-0.6c-1-0.8-1.9-1.8-2.7-2.9c0,0,0.4-5.9-0.5-7.1S104.9,175.2,104.9,175.2"/>
					<path id="Path_492" d="M112.6,188.9c-0.1,0-0.1,0-0.2-0.1c-0.3-0.2-6.4-3.9-7.4-6s-0.5-7.5-0.4-7.7c0-0.2,0.1-0.3,0.3-0.3
						c0.4-0.1,3.9-0.6,4.9,0.8c0.9,1.2,0.6,6.3,0.5,7.2c0.7,1,1.6,1.9,2.5,2.7c0.6,0.4,1,1.1,1,1.8c-0.1,0.6-0.5,1.2-1,1.6
						C112.7,188.9,112.7,188.9,112.6,188.9 M105.2,175.5c-0.1,1.1-0.4,5.5,0.4,7.1c0.7,1.5,5.1,4.4,6.9,5.6c0.3-0.2,0.5-0.5,0.5-0.9
						c0-0.5-0.3-0.9-0.7-1.2c-1.1-0.8-2-1.8-2.8-2.9c0-0.1-0.1-0.1,0-0.2c0.1-2.2,0.2-6.1-0.4-6.9
						C108.7,175.3,106.6,175.3,105.2,175.5"/>
					<path id="Path_493" class="st1" d="M34.9,98.8l0.4-2.9c0.1-0.8,0-1.7-0.4-2.4L30.7,86c-0.1-0.3-0.5-0.4-0.7-0.2
						c0,0-0.1,0.1-0.1,0.1c-0.6,0.7-0.7,1.7-0.2,2.5l1,1.9c0.2,0.4,0.1,0.9-0.3,1.2c-0.8,0.6-1.3,1.5-1.5,2.4
						c-0.4,3.2,3.1,5.5,3.1,5.5L34.9,98.8z"/>
					<path id="Path_494" d="M31.9,99.8c-0.1,0-0.1,0-0.2-0.1c-0.2-0.1-3.7-2.5-3.3-5.9c0.2-1.1,0.7-2,1.6-2.7
						c0.2-0.2,0.3-0.5,0.2-0.8l-1-1.9c-0.6-0.9-0.4-2.1,0.3-2.9c0.2-0.2,0.5-0.3,0.7-0.3c0.3,0,0.5,0.2,0.7,0.4l4.2,7.5
						c0.4,0.8,0.6,1.7,0.5,2.6l-0.4,2.9c0,0.1-0.1,0.3-0.3,0.3L31.9,99.8C31.9,99.8,31.9,99.8,31.9,99.8 M30.2,86.1
						c0,0-0.1,0-0.1,0.1c-0.5,0.6-0.6,1.5-0.2,2.1l1,1.9c0.3,0.6,0.1,1.3-0.4,1.6c-0.7,0.5-1.2,1.3-1.4,2.2
						c-0.4,2.6,2.3,4.7,2.8,5.1l2.6-0.5l0.4-2.7c0.1-0.8,0-1.5-0.4-2.2l-4.2-7.5C30.3,86.1,30.3,86.1,30.2,86.1L30.2,86.1
						 M34.9,98.8L34.9,98.8z"/>
					<path id="Path_495" class="st2" d="M110.7,176.1h-7.3c0,0-1.6-25.9-15.5-34.3l1.1-20.8C89,121.1,118.1,137.3,110.7,176.1"/>
					<path id="Path_496" class="st1" d="M87.8,147.5l5.4,25.9c0,0-22.2,3.8-29.9,2.4s-8.6-3.4-8.6-3.4l3.3-28.5L87.8,147.5z"/>
					<path id="Path_497" d="M67.8,176.5c-1.5,0-3.1-0.1-4.6-0.3c-7.7-1.4-8.8-3.4-8.9-3.6c0-0.1,0-0.1,0-0.2l3.3-28.5
						c0-0.2,0.2-0.3,0.4-0.3c0,0,0,0,0,0l29.8,3.6c0.1,0,0.3,0.1,0.3,0.3l5.4,25.9c0,0.2-0.1,0.4-0.3,0.4c0,0,0,0,0,0
						C92.5,173.9,77.3,176.5,67.8,176.5 M55,172.3c0.2,0.3,1.8,2,8.3,3.2c7.1,1.3,26.6-1.9,29.4-2.4l-5.3-25.3l-29.2-3.5L55,172.3z"
						/>
					<path id="Path_498" class="st2" d="M77.8,117.6l11.2,3.5l4.8,37c0.2,1.8-0.8,3.5-2.5,4.1c-5.4,2-18,5.5-35.5,2.8
						c-1.8-0.3-3.2-1.8-3.2-3.7c-0.2-6.2-0.3-20.1,1.5-28.2c0,0-24.7,0-23.2-33.3l5.2-1.4c0,0,8.7,19.6,23.6,18.8
						C59.7,117.2,69.7,115,77.8,117.6"/>
					<path id="Path_499" class="st1" d="M68.3,116.8c0,0,9.7-0.9,17.4,0.6c4.6,0.9,13.2,4.3,6.6,11.1s-11.2,6.2-13.3,2.3
						S72.9,118.2,68.3,116.8"/>
					<path id="Path_500" d="M83.4,134c-0.2,0-0.5,0-0.7,0c-1.8-0.3-3.3-1.4-4.1-3c-0.4-0.6-0.8-1.5-1.3-2.3
						c-2.2-4.1-5.5-10.4-9.2-11.6c-0.2-0.1-0.3-0.2-0.2-0.4c0-0.1,0.2-0.2,0.3-0.2c0.1,0,9.8-0.9,17.5,0.6c1.3,0.3,7.9,1.7,9.1,5.6
						c0.6,1.8-0.2,3.9-2.3,6C89.2,132.1,86,134,83.4,134 M69.6,117c3.4,2,6.3,7.5,8.4,11.3c0.5,0.9,0.9,1.7,1.2,2.3
						c0.7,1.4,2,2.4,3.6,2.6c2.5,0.3,5.7-1.4,9.2-5c1.9-2,2.6-3.8,2.2-5.4c-0.8-2.7-5.2-4.5-8.6-5.1C80.3,116.8,75,116.6,69.6,117"
						/>
					<path id="Path_501" d="M88.5,125.4c-2.5,0-5.4-1.2-8.7-3.7c-2.8-2-3.6-2.1-3.7-2.1c-0.2,0.1-0.4-0.1-0.4-0.2
						c0-0.2,0-0.3,0.2-0.4c0.5-0.3,2,0.5,4.3,2.2c5.3,3.9,9.2,4.6,12.3,2.1c0.1-0.1,0.4-0.1,0.5,0.1s0.1,0.4-0.1,0.5
						C91.6,124.9,90.1,125.4,88.5,125.4 M76.1,119.6L76.1,119.6z M76.1,119.6L76.1,119.6z M76.1,119.6L76.1,119.6"/>
					<path id="Path_502" class="st1" d="M65.9,54.6L79.7,57l13.7-2.4c0,0,0,0,0,0c0,0,0,0,0,0l-13.9-2.4L65.9,54.6z"/>
					<path id="Path_503" d="M79.7,57.2L79.7,57.2l-13.9-2.4c-0.1,0-0.1-0.1-0.1-0.2c0-0.1,0.1-0.1,0.1-0.1L79.6,52c0,0,0,0,0.1,0
						l13.9,2.4c0.1,0,0.2,0.1,0.2,0.2c0,0.1-0.1,0.1-0.2,0.2L79.7,57.2L79.7,57.2 M66.8,54.6l13,2.3l12.9-2.3l-13.1-2.3L66.8,54.6z
						 M93.4,54.5L93.4,54.5z"/>
					<path id="Path_504" class="st1" d="M79.7,77.6V57l-13.9-2.4v20.5L79.7,77.6z"/>
					<path id="Path_505" d="M74.3,58.8v-2.7l-3.5-0.6v2.6L74.3,58.8z"/>
					<path id="Path_506" d="M79.7,77.7L79.7,77.7l-14-2.5c-0.1,0-0.1-0.1-0.1-0.2V54.6c0-0.1,0.1-0.2,0.2-0.2c0,0,0,0,0,0l13.9,2.4
						c0.1,0,0.1,0.1,0.1,0.2v20.6C79.9,77.7,79.8,77.7,79.7,77.7L79.7,77.7 M66,75l13.6,2.4V57.1L66,54.8V75z"/>
					<path id="Path_507" class="st1" d="M79.7,77.6V57l13.8-2.4v20.5L79.7,77.6z"/>
					<path id="Path_508" d="M79.7,77.7c-0.1,0-0.2-0.1-0.2-0.2c0,0,0,0,0,0V57c0-0.1,0.1-0.1,0.1-0.2l13.8-2.4c0.1,0,0.2,0,0.2,0.1
						c0,0,0,0,0,0v20.5c0,0.1-0.1,0.1-0.1,0.2L79.7,77.7L79.7,77.7 M79.9,57.1v20.3L93.4,75V54.8L79.9,57.1z"/>
				</g>
			</g>
		</g>
	</g>
</g>
</svg>
