<svg id="world" xmlns="http://www.w3.org/2000/svg" xmlns:xlink="http://www.w3.org/1999/xlink" width="1031.802" height="1056.581" viewBox="0 0 1031.802 1056.581">
  <defs>
    <clipPath id="clip-path">
      <rect id="Rectangle_275" data-name="Rectangle 275" width="1001.581" height="1001.279" fill="none"/>
    </clipPath>
    <clipPath id="clip-path-2">
      <rect id="Rectangle_334" data-name="Rectangle 334" width="162.621" height="69.514" fill="none"/>
    </clipPath>
    <clipPath id="clip-path-3">
      <rect id="Rectangle_368" data-name="Rectangle 368" width="125" height="107.457" fill="none"/>
    </clipPath>
    <clipPath id="clip-path-4">
      <rect id="Rectangle_392" data-name="Rectangle 392" width="125" height="109.604" fill="none"/>
    </clipPath>
    <clipPath id="clip-path-5">
      <rect id="Rectangle_424" data-name="Rectangle 424" width="124.999" height="113.949" fill="none"/>
    </clipPath>
  </defs>
  <g id="Group_449" data-name="Group 449" transform="translate(29.721 54.802)">
    <g id="Group_438" data-name="Group 438" clip-path="url(#clip-path)">
      <path id="Path_1691" data-name="Path 1691" d="M500.941,0C777.39,0,1001.581,224.183,1001.581,500.64S777.39,1001.28,500.941,1001.28C224.189,1001.28,0,777.1,0,500.64S224.189,0,500.941,0" transform="translate(0 -0.002)" fill="#d9e1f5" fill-rule="evenodd"/>
      <path id="Path_1692" data-name="Path 1692" d="M500.766,0A497.79,497.79,0,0,1,837.332,130.1l-18.3,7.258L808.871,148.1l2.32,12.486,12.2,1.745,7.553,18.292,20.907-8.418,3.483,24.68h-6.383l-17.137-2.61-19.17,3.193L794.064,223.6l-26.43,4.065-3.773,22.652,11.034,2.61-3.19,14.522-26.14-5.228-24.1,5.228-5.231,13.361,4.361,28.168,13.936,6.676,23.81-.29,15.977-1.45,4.933-12.781,24.98-32.523,16.549,3.485,15.977-14.519,3.19,11.324,39.789,27.005-4.653,6.4-18.009-.878,6.683,9.874,11.326,2.328,12.776-5.518-.293-15.392,5.813-2.905-4.653-4.938L862.3,270.069l-6.973-19.747H877.4l6.973,6.966,19.167,16.554.583,19.747,19.75,20.91,7.541-28.753L945.07,278.2l2.61,23.523,13.356,14.809h5.523a437.483,437.483,0,0,1,14.516,42.69h-23.23l-24.983-18.585-26.13,2.613v15.972H898.6l-8.993-6.388L844.3,341.216V312.173l-57.5,4.355-17.717,9.584H746.432l-11.324-1.158-27.58,15.392v28.746l-56.346,40.949,4.653,17.417h11.324l-2.9,16.557-8.131,2.9-.29,43.267,48.78,55.756h21.2l1.163-3.48h38.334l11.036-10.166h21.777L810.031,544.2l32.233,3.19-4.35,42.98,36.006,63.307-18.88,36.307,1.163,16.839,14.814,14.807v40.947l19.75,26.14v26.133c-92.06,113.539-232.612,186.43-390,186.43-259.323,0-472.478-196.886-498.32-449.528-.288-3.78-.58-7.841-.868-11.9C.415,526.771.115,513.7.115,500.641V484.381l.3-7.263.28-4.361c.3-3.193.3-6.383.593-9.286l.29-2.33A500.106,500.106,0,0,1,40.774,302.3v27.3l21.2,10.161v40.657L82.3,414.974l16.557,2.61,2.323-11.906-19.75-30.2-3.77-29.328H89.275l4.643,30.2,28.463,41.234-7.263,13.367,17.717,27.29,44.72,11.324V462.3l18.007,2.623-1.75,12.486,13.947,2.61,21.49,6.1,30.773,34.844,38.917,2.9,3.773,31.946L276,574.4l-1.16,28.453-3.783,17.427,38.629,48.5,2.9,16.547S326.53,689.1,328.27,689.1s31.653,22.65,31.653,22.65v87.419l10.456,2.9-7.263,40.367,18.007,23.81-3.49,40.069,23.807,41.239,30.206,26.43,30.2.58,3.19-9.583-22.36-18.88,1.16-9.293,4.073-11.616.87-11.614-15.107-.29-7.543-9.583,12.486-12.2,1.74-9.3-14.226-3.77.87-8.714,20.04-2.9,30.483-14.527,10.164-18.869,31.946-40.657-7.253-31.943,9.581-16.849,29.323.88,19.75-15.684,6.4-61.569,21.777-27.873,4.063-17.717-20.037-6.383-13.356-21.78-45.012-.29L489.44,579.914l-1.75-25.55-11.906-20.617-32.233-.583-18.867-29.333-16.557-8.121-.87,8.991-30.2,1.75-11.036-15.394-31.363-6.383L308.81,514.867,267.863,507.9l-2.9-46.18-29.621-4.933,11.9-22.652-3.48-12.774L204.557,447.5l-24.393-3.188-9-19.17,5.523-19.75,13.646-24.97L221.4,364.446h60.4l-.29,18.582,21.78,9.876-1.74-31.366,15.687-15.677L348.6,325.245l2.32-14.522,31.363-32.816,33.4-18.582-2.9-2.328,22.65-21.2,8.123,2.038,3.783,4.64,8.7-9.288,2.04-1.16-9.293-1.165-9.584-3.193v-9.294l4.93-4.068h11.326l4.941,2.038,4.643,9,5.233-.87v-.58l1.74.29,15.677-2.32,2.04-7.556,9,2.038v8.418l-8.413,5.808h.29l1.16,9,28.163,8.713.287.29,6.393-.29.583-12.491-22.652-10.164-1.16-6.1,18.587-6.1.873-18-19.46-11.906-1.45-30.2L475.2,166.683h-9.584l2.33-22.94-36.3-8.708-15.1,11.326V181.2l-27.013,8.423L378.5,212.278l-11.616,2.03V185.272l-25.553-3.485-12.774-8.421-4.943-18.587,45.6-26.718,22.07-6.966,2.32,15.1,12.486-.58.87-7.553,13.066-2.03.29-2.613-5.8-2.323-1.16-7.841,15.969-1.165,9.584-10.159.58-.588h.29l2.9-3.19,33.4-4.065,14.814,12.484-38.914,20.62,49.37,11.906,6.673-16.552h21.49l7.843-14.519-15.389-3.775V85.959l-47.92-21.2-33.1,3.77-18.88,9.586,1.46,23.815-19.747-2.905-2.91-13.066L419.74,68.82l-33.974-1.74-9.874,3.2L371.54,81.6l12.774,2.32L381.7,96.413l-21.49,1.45-3.49,8.418-31.366.875s-.868-17.717-2.03-17.717c-1.45,0,24.4-.58,24.4-.58L366.6,70.565l-10.164-5.226L342.786,78.693l-22.65-1.158L306.78,58.661H277.737l-30.2,22.65h27.593l2.61,7.838-7.263,6.973,30.783.87,4.653,11.034-34.556-1.455-1.75-8.418-21.487-4.645L236.5,87.119l-18.579.29A497.942,497.942,0,0,1,500.766,0M746.142,170.461l4.653-6.968L767.634,160l4.361,20.33,8.7,14.522,6.1,6.678,10.746,4.358-10.166,12.194-19.747,1.74H752.828l1.74-17.712,12.194-2.32-.87-8.423-11.614-7.258-8.136-5.518ZM718.561,202.4l10.164-16.262,13.937-3.193,9.873,4.063-1.16,11.324-20.91,14.812h-11.9ZM440.939,265.423l-10.744.87.58-7.548,4.941-5.813,6.383,4.938Zm37.467-13.071-7.263.58-1.45,6.973-5.813,3.48-9,.87a33.691,33.691,0,0,1-.29-3.77H451.1v-7.553h14.516l2.913-7.841h5.8l6.683,1.163Z" transform="translate(0.175)" fill="#f6f9ff" fill-rule="evenodd"/>
    </g>
  </g>
  <path id="Path_1785" data-name="Path 1785" d="M500.941,0C777.39,0,1001.581,224.183,1001.581,500.64S777.39,1001.28,500.941,1001.28C224.189,1001.28,0,777.1,0,500.64S224.189,0,500.941,0" transform="translate(29.721 54.8)" fill="none" stroke="#000" stroke-width="1" fill-rule="evenodd"/>
  <g id="Group_454" data-name="Group 454" transform="matrix(0.438, -0.899, 0.899, 0.438, 0, 370.529)">
    <rect id="Rectangle_329" data-name="Rectangle 329" width="10.735" height="39.529" transform="translate(108.382 7.165)" fill="#b5b8b4"/>
    <g id="Group_453" data-name="Group 453" transform="translate(0 0)">
      <g id="Group_452" data-name="Group 452" clip-path="url(#clip-path-2)">
        <path id="Path_1786" data-name="Path 1786" d="M66.158,50.563H76.893a.246.246,0,0,0,.246-.246V10.788a.246.246,0,0,0-.246-.246H66.158a.246.246,0,0,0-.246.246V50.317a.246.246,0,0,0,.246.246m10.488-.492H66.4V11.034H76.647Z" transform="translate(42.224 -3.623)" fill="#231f20"/>
        <rect id="Rectangle_330" data-name="Rectangle 330" width="24.308" height="13.356" transform="translate(80.887 45.25)" fill="#2752b1"/>
        <path id="Path_1787" data-name="Path 1787" d="M87.123,82.42h24.8V68.572h-24.8Zm24.308-.492H87.615V69.064h23.816Z" transform="translate(-6.482 -23.568)" fill="#231f20"/>
        <rect id="Rectangle_331" data-name="Rectangle 331" width="24.308" height="13.356" transform="translate(9.339 45.25)" fill="#2752b1"/>
        <path id="Path_1788" data-name="Path 1788" d="M196.14,82.42h24.8V68.572h-24.8Zm24.308-.492H196.632V69.064h23.816Z" transform="translate(-187.047 -23.568)" fill="#231f20"/>
        <rect id="Rectangle_332" data-name="Rectangle 332" width="21.113" height="8.374" transform="translate(117.505 50.269)" fill="#d2e63d"/>
        <path id="Path_1789" data-name="Path 1789" d="M36.443,85.084H57.557a.246.246,0,0,0,.246-.246V76.464a.246.246,0,0,0-.246-.246H36.443a.246.246,0,0,0-.246.246v8.374a.246.246,0,0,0,.246.246m20.867-.492H36.689V76.71H57.31Z" transform="translate(81.062 -26.196)" fill="#231f20"/>
        <path id="Path_1790" data-name="Path 1790" d="M80.252,2.764V45.109A2.4,2.4,0,0,0,82.63,47.5h104.95a2.4,2.4,0,0,0,2.378-2.391V2.764A2.384,2.384,0,0,0,187.579.386L85.446.374H82.63a2.394,2.394,0,0,0-2.378,2.39" transform="translate(-80.006 -0.129)" fill="#fff"/>
        <path id="Path_1791" data-name="Path 1791" d="M82.5,47.618h104.95a2.633,2.633,0,0,0,2.623-2.637V2.636A2.627,2.627,0,0,0,187.452.012L82.5,0a2.633,2.633,0,0,0-2.624,2.636V44.981A2.634,2.634,0,0,0,82.5,47.618M85.318.492,187.452.5a2.134,2.134,0,0,1,2.131,2.132V44.981a2.141,2.141,0,0,1-2.131,2.145H82.5a2.141,2.141,0,0,1-2.132-2.145V2.636A2.14,2.14,0,0,1,82.5.492Z" transform="translate(-79.878 0)" fill="#231f20"/>
        <path id="Path_1792" data-name="Path 1792" d="M4.645,7.752V48.541H17.65c.19,0,.369.012.547.024.131.012.249.024.369.047a.772.772,0,0,1,.226.036l.215.036a.545.545,0,0,0,.118.023c.107.024.214.06.32.083.061.012.108.036.156.048.119.036.237.084.357.131a4.32,4.32,0,0,1,.415.178,5.178,5.178,0,0,1,.939.523c.083.059.154.107.226.166s.13.1.19.143a2.169,2.169,0,0,1,.189.154c.084.072.154.143.238.226a.506.506,0,0,1,.131.107l.012.012a.727.727,0,0,1,.083.106c.012.012.023.036.035.048a8.536,8.536,0,0,0,1.76,1.486,11.918,11.918,0,0,0,1.177.7c.309.167.654.333,1.022.5.226.108.476.2.726.3A10.022,10.022,0,0,0,28.136,54a25.554,25.554,0,0,0,5.076,1.094H49.095V7.752a2.387,2.387,0,0,0-2.389-2.378H7.023A2.384,2.384,0,0,0,4.645,7.752" transform="translate(110.478 -1.847)" fill="#2752b1"/>
        <path id="Path_1793" data-name="Path 1793" d="M48.966,55.208h.246V7.622A2.633,2.633,0,0,0,46.576,5H6.894A2.627,2.627,0,0,0,4.269,7.622V48.658H17.521c.184,0,.358.011.53.023a3.336,3.336,0,0,1,.339.043.771.771,0,0,1,.2.028l.251.045a.557.557,0,0,0,.158.026c-.009,0,.038.018.084.031.062.018.123.035.184.048l.063.019c.03.011.058.02.086.027.1.03.21.075.322.121l.125.05a2.228,2.228,0,0,1,.265.115,5.087,5.087,0,0,1,.915.509c.106.074.158.111.212.154.035.029.072.055.108.081l.146.112a.9.9,0,0,1,.107.088c.093.081.159.148.238.226l.068.049a.605.605,0,0,1,.063.058.446.446,0,0,1,.06.074.694.694,0,0,0,.07.093,8.742,8.742,0,0,0,1.8,1.517,12.456,12.456,0,0,0,1.2.713c.284.154.624.32,1.034.506.228.108.484.206.74.3a10.413,10.413,0,0,0,1.046.385,25.917,25.917,0,0,0,5.122,1.1Zm-.246-.492H33.082a25.512,25.512,0,0,1-5-1.08,10.236,10.236,0,0,1-1.012-.373c-.257-.1-.5-.19-.72-.295-.4-.182-.733-.343-1.01-.494a11.8,11.8,0,0,1-1.156-.688,8.3,8.3,0,0,1-1.712-1.444l-.047-.06a.472.472,0,0,0-.083-.105.9.9,0,0,0-.168-.144c-.079-.078-.148-.146-.227-.215A1.368,1.368,0,0,0,21.8,49.7l-.24-.182c-.062-.051-.123-.095-.193-.144a5.567,5.567,0,0,0-1.03-.58,2.565,2.565,0,0,0-.3-.133l-.119-.047c-.127-.051-.253-.1-.379-.14a1.457,1.457,0,0,0-.18-.053c-.047-.01-.1-.025-.15-.039s-.108-.031-.162-.043l-.145.224.061-.238-.265-.048a.869.869,0,0,0-.265-.039,2.666,2.666,0,0,0-.345-.046c-.19-.014-.374-.025-.57-.025H4.761V7.622A2.134,2.134,0,0,1,6.894,5.491H46.576a2.14,2.14,0,0,1,2.144,2.131Z" transform="translate(110.608 -1.718)" fill="#231f20"/>
        <path id="Path_1794" data-name="Path 1794" d="M45.344,71.148a6.518,6.518,0,0,1,4.631,1.919l.018.022c.03.03.056.066.084.1a6.508,6.508,0,0,0-4.733-2.041" transform="translate(82.784 -24.453)" fill="#467f9f"/>
        <path id="Path_1795" data-name="Path 1795" d="M19.245,33.1c0,1.312,1.691,2.384,3.757,2.384h13.09c2.065,0,3.757-1.072,3.757-2.384V21.029c0-1.31-1.692-2.384-3.757-2.384H23c-2.065,0-3.757,1.074-3.757,2.384Z" transform="translate(110.142 -6.408)" fill="#fff"/>
        <path id="Path_1796" data-name="Path 1796" d="M22.873,35.605H35.963c2.207,0,4-1.18,4-2.631V20.9c0-1.45-1.8-2.63-4-2.63H22.873c-2.208,0-4,1.18-4,2.63V32.974c0,1.451,1.8,2.631,4,2.631M35.963,18.762c1.9,0,3.511.979,3.511,2.138V32.974c0,1.16-1.609,2.139-3.511,2.139H22.873c-1.9,0-3.511-.979-3.511-2.139V20.9c0-1.159,1.608-2.138,3.511-2.138Z" transform="translate(110.271 -6.279)" fill="#231f20"/>
        <path id="Path_1797" data-name="Path 1797" d="M4.645,21.029V35.282a2.394,2.394,0,0,0,2.378,2.39h1.45V18.651H7.023a2.384,2.384,0,0,0-2.378,2.378" transform="translate(151.1 -6.41)" fill="#fff"/>
        <path id="Path_1798" data-name="Path 1798" d="M6.893,37.79h1.45a.246.246,0,0,0,.246-.246V18.523a.246.246,0,0,0-.246-.246H6.893A2.627,2.627,0,0,0,4.269,20.9V35.154A2.633,2.633,0,0,0,6.893,37.79M8.1,37.3h-1.2a2.14,2.14,0,0,1-2.132-2.144V20.9a2.134,2.134,0,0,1,2.132-2.132H8.1Z" transform="translate(151.231 -6.282)" fill="#231f20"/>
        <rect id="Rectangle_333" data-name="Rectangle 333" width="5.064" height="4.91" transform="translate(154.532 40.345)" fill="#fff"/>
        <path id="Path_1799" data-name="Path 1799" d="M4.48,66.5H9.544a.246.246,0,0,0,.246-.246V61.345a.246.246,0,0,0-.246-.246H4.48a.246.246,0,0,0-.246.246v4.909a.246.246,0,0,0,.246.246M9.3,66.008H4.726V61.591H9.3Z" transform="translate(150.052 -20.999)" fill="#231f20"/>
        <path id="Path_1800" data-name="Path 1800" d="M4.645,71.146V80.7a2.386,2.386,0,0,0,2.378,2.389h.189a9.5,9.5,0,0,1,18.654,0h20.84A2.389,2.389,0,0,0,49.095,80.7V77.7H33.212A25.511,25.511,0,0,1,28.136,76.6a10.177,10.177,0,0,1-1.034-.381c-.25-.094-.5-.189-.726-.3-.368-.166-.713-.332-1.022-.5a11.918,11.918,0,0,1-1.177-.7,8.536,8.536,0,0,1-1.76-1.486c-.012-.012-.023-.036-.035-.048-.143-.154-.31-.308-.465-.452-.13-.107-.249-.2-.379-.3a6.023,6.023,0,0,0-1.581-.867c-.12-.048-.238-.1-.357-.131a6.614,6.614,0,0,0-1.95-.3Z" transform="translate(110.478 -24.452)" fill="#fff"/>
        <path id="Path_1801" data-name="Path 1801" d="M6.894,83.211h.189a.247.247,0,0,0,.242-.2,9.263,9.263,0,0,1,9.08-7.5h.026a9.247,9.247,0,0,1,9.064,7.5.247.247,0,0,0,.242.2h20.84a2.639,2.639,0,0,0,2.636-2.635V77.567a.246.246,0,0,0-.246-.246H33.082a25.512,25.512,0,0,1-5-1.08,10.234,10.234,0,0,1-1.012-.373c-.257-.1-.5-.19-.72-.295-.4-.182-.733-.343-1.01-.494a11.8,11.8,0,0,1-1.156-.688,8.3,8.3,0,0,1-1.712-1.444.592.592,0,0,0-.047-.06c-.14-.152-.313-.311-.472-.457-.144-.12-.268-.218-.4-.316a6.286,6.286,0,0,0-1.64-.9c-.12-.048-.246-.1-.371-.137a6.9,6.9,0,0,0-2.021-.307H4.515a.246.246,0,0,0-.246.246v9.558a2.633,2.633,0,0,0,2.625,2.635m41.826-5.4v2.762a2.146,2.146,0,0,1-2.144,2.143H25.937a9.744,9.744,0,0,0-19.056,0,2.14,2.14,0,0,1-2.12-2.143V71.263H17.521a6.373,6.373,0,0,1,1.878.286c.113.034.224.079.337.125a5.8,5.8,0,0,1,1.523.834c.132.1.247.189.374.293.139.129.3.278.44.429a.54.54,0,0,0,.041.054,8.742,8.742,0,0,0,1.8,1.517,12.457,12.457,0,0,0,1.2.713c.284.154.624.32,1.034.506.228.108.484.206.74.3a10.415,10.415,0,0,0,1.046.385,25.918,25.918,0,0,0,5.122,1.1Z" transform="translate(110.608 -24.323)" fill="#231f20"/>
        <path id="Path_1802" data-name="Path 1802" d="M86.4,8.7V43.269a2.1,2.1,0,0,0,2.2,1.951h97.229a2.1,2.1,0,0,0,2.2-1.951V8.7a2.09,2.09,0,0,0-2.2-1.941l-94.62-.009H88.6A2.1,2.1,0,0,0,86.4,8.7" transform="translate(-82.12 -2.319)" fill="#2752b1"/>
        <path id="Path_1803" data-name="Path 1803" d="M88.474,45.337H185.7a2.336,2.336,0,0,0,2.449-2.2V8.568A2.331,2.331,0,0,0,185.7,6.381l-97.23-.01a2.336,2.336,0,0,0-2.448,2.2V43.139a2.336,2.336,0,0,0,2.448,2.2m2.61-38.473,94.62.01a1.842,1.842,0,0,1,1.956,1.7V43.139a1.846,1.846,0,0,1-1.956,1.705H88.474a1.845,1.845,0,0,1-1.956-1.705V8.568a1.845,1.845,0,0,1,1.956-1.705Z" transform="translate(-81.991 -2.19)" fill="#231f20"/>
        <path id="Path_1804" data-name="Path 1804" d="M.246,75.092H6.388a.246.246,0,0,0,0-.492H.246a.246.246,0,0,0,0,.492" transform="translate(155.987 -25.639)" fill="#231f20"/>
        <path id="Path_1805" data-name="Path 1805" d="M4.515,12.448h44.45a.246.246,0,1,0,0-.492H4.515a.246.246,0,1,0,0,.492" transform="translate(110.608 -4.109)" fill="#231f20"/>
        <path id="Path_1806" data-name="Path 1806" d="M45.961,12.331V36.759s8.421,5.491,8.421,15.194" transform="translate(78.075 -4.238)" fill="#2752b1"/>
        <path id="Path_1807" data-name="Path 1807" d="M54.008,51.953H54.5c0-9.111-7.416-14.619-8.421-15.323v-24.3h-.492V36.893l.112.073c.083.054,8.31,5.535,8.31,14.987" transform="translate(78.202 -4.238)" fill="#231f20"/>
        <path id="Path_1808" data-name="Path 1808" d="M39.91,50.94h4.349a.246.246,0,1,0,0-.492H39.91a.246.246,0,1,0,0,.492" transform="translate(92.085 -17.339)" fill="#231f20"/>
        <path id="Path_1809" data-name="Path 1809" d="M58.767,86.412a9.364,9.364,0,1,1-9.327-9.4,9.361,9.361,0,0,1,9.327,9.4" transform="translate(77.577 -26.467)" fill="#b5b8b4"/>
        <path id="Path_1810" data-name="Path 1810" d="M49.282,95.852a9.61,9.61,0,0,0,.029-19.219h-.039a9.61,9.61,0,0,0-.033,19.219Zm-.011-18.727h.037a9.121,9.121,0,0,1,9.083,9.156h0a9.114,9.114,0,0,1-9.11,9.078H49.24a9.117,9.117,0,0,1,.032-18.235" transform="translate(77.706 -26.338)" fill="#231f20"/>
        <path id="Path_1811" data-name="Path 1811" d="M56.5,88.879A4.622,4.622,0,1,1,51.9,84.238,4.627,4.627,0,0,1,56.5,88.879" transform="translate(75.1 -28.952)" fill="#fff"/>
        <path id="Path_1812" data-name="Path 1812" d="M51.746,93.6a4.883,4.883,0,0,0,4.875-4.845h0a4.867,4.867,0,0,0-4.852-4.887h-.018a4.866,4.866,0,0,0-.02,9.732Zm4.383-4.847A4.391,4.391,0,0,1,51.746,93.1h-.013a4.374,4.374,0,0,1,.019-8.748h.016a4.374,4.374,0,0,1,4.361,4.393" transform="translate(75.229 -28.823)" fill="#231f20"/>
        <path id="Path_1813" data-name="Path 1813" d="M97.169,86.412a9.364,9.364,0,1,1-9.327-9.4,9.361,9.361,0,0,1,9.327,9.4" transform="translate(13.971 -26.467)" fill="#b5b8b4"/>
        <path id="Path_1814" data-name="Path 1814" d="M87.685,95.852a9.61,9.61,0,0,0,.028-19.219h-.039a9.61,9.61,0,0,0-.033,19.219Zm-.011-18.727h.037a9.117,9.117,0,0,1-.026,18.235h-.042a9.117,9.117,0,0,1,.031-18.235" transform="translate(14.099 -26.338)" fill="#231f20"/>
        <path id="Path_1815" data-name="Path 1815" d="M94.906,88.879A4.622,4.622,0,1,1,90.3,84.238a4.627,4.627,0,0,1,4.606,4.641" transform="translate(11.495 -28.952)" fill="#fff"/>
        <path id="Path_1816" data-name="Path 1816" d="M90.148,93.6a4.883,4.883,0,0,0,4.875-4.845h0a4.868,4.868,0,0,0-4.852-4.887h-.018a4.866,4.866,0,0,0-.02,9.732Zm4.383-4.847A4.391,4.391,0,0,1,90.148,93.1h-.013a4.374,4.374,0,0,1,.019-8.748h.016a4.375,4.375,0,0,1,4.361,4.393" transform="translate(11.624 -28.823)" fill="#231f20"/>
        <path id="Path_1817" data-name="Path 1817" d="M125.7,86.412a9.364,9.364,0,1,1-9.327-9.4,9.361,9.361,0,0,1,9.327,9.4" transform="translate(-33.292 -26.467)" fill="#b5b8b4"/>
        <path id="Path_1818" data-name="Path 1818" d="M116.219,95.852a9.61,9.61,0,0,0,.029-19.219h-.039a9.61,9.61,0,0,0-.033,19.219Zm-.01-18.727h.037a9.121,9.121,0,0,1,9.083,9.156h0a9.114,9.114,0,0,1-9.11,9.078h-.042a9.117,9.117,0,0,1,.032-18.235" transform="translate(-33.163 -26.338)" fill="#231f20"/>
        <path id="Path_1819" data-name="Path 1819" d="M123.441,88.879a4.622,4.622,0,1,1-4.606-4.641,4.627,4.627,0,0,1,4.606,4.641" transform="translate(-35.768 -28.952)" fill="#fff"/>
        <path id="Path_1820" data-name="Path 1820" d="M118.683,93.6a4.883,4.883,0,0,0,4.875-4.845h0a4.867,4.867,0,0,0-4.852-4.887h-.018a4.866,4.866,0,0,0-.02,9.732Zm4.383-4.847a4.391,4.391,0,0,1-4.383,4.355h-.013a4.374,4.374,0,0,1,.019-8.748h.016a4.374,4.374,0,0,1,4.361,4.393" transform="translate(-35.639 -28.823)" fill="#231f20"/>
        <path id="Path_1821" data-name="Path 1821" d="M205.227,86.412a9.364,9.364,0,1,1-9.327-9.4,9.361,9.361,0,0,1,9.327,9.4" transform="translate(-165.006 -26.467)" fill="#b5b8b4"/>
        <path id="Path_1822" data-name="Path 1822" d="M195.743,95.852a9.61,9.61,0,0,0,.028-19.219h-.039a9.61,9.61,0,0,0-.033,19.219Zm-.011-18.727h.037a9.117,9.117,0,0,1-.026,18.235H195.7a9.117,9.117,0,0,1,.031-18.235" transform="translate(-164.877 -26.338)" fill="#231f20"/>
        <path id="Path_1823" data-name="Path 1823" d="M202.964,88.879a4.622,4.622,0,1,1-4.606-4.641,4.627,4.627,0,0,1,4.606,4.641" transform="translate(-167.483 -28.952)" fill="#fff"/>
        <path id="Path_1824" data-name="Path 1824" d="M198.207,93.6a4.883,4.883,0,0,0,4.875-4.845h0a4.868,4.868,0,0,0-4.852-4.887h-.018a4.866,4.866,0,0,0-.02,9.732Zm4.383-4.847a4.39,4.39,0,0,1-4.383,4.355h-.013a4.38,4.38,0,0,1-4.357-4.393,4.372,4.372,0,0,1,4.376-4.355h.016a4.375,4.375,0,0,1,4.361,4.393" transform="translate(-167.355 -28.823)" fill="#231f20"/>
        <path id="Path_1825" data-name="Path 1825" d="M233.762,86.412a9.364,9.364,0,1,1-9.327-9.4,9.361,9.361,0,0,1,9.327,9.4" transform="translate(-212.269 -26.467)" fill="#b5b8b4"/>
        <path id="Path_1826" data-name="Path 1826" d="M224.277,95.852a9.61,9.61,0,0,0,.029-19.219h-.039a9.61,9.61,0,0,0-.033,19.219Zm-.01-18.727h.037a9.121,9.121,0,0,1,9.083,9.156h0a9.114,9.114,0,0,1-9.11,9.078h-.042a9.117,9.117,0,0,1,.032-18.235" transform="translate(-212.14 -26.338)" fill="#231f20"/>
        <path id="Path_1827" data-name="Path 1827" d="M231.5,88.879a4.622,4.622,0,1,1-4.606-4.641,4.627,4.627,0,0,1,4.606,4.641" transform="translate(-214.746 -28.952)" fill="#fff"/>
        <path id="Path_1828" data-name="Path 1828" d="M226.741,93.6a4.883,4.883,0,0,0,4.875-4.845h0a4.868,4.868,0,0,0-4.852-4.887h-.018a4.866,4.866,0,0,0-.02,9.732Zm4.383-4.847a4.39,4.39,0,0,1-4.383,4.355h-.013a4.374,4.374,0,0,1,.019-8.748h.016a4.375,4.375,0,0,1,4.361,4.393" transform="translate(-214.617 -28.823)" fill="#231f20"/>
      </g>
    </g>
  </g>
  <g id="house1" transform="matrix(0.799, -0.602, 0.602, 0.799, -2161.176, -1811.912)">
    <g id="Group_457" data-name="Group 457">
      <g id="house1-2" data-name="house1" transform="translate(661 2942)">
        <path id="Path_1829" data-name="Path 1829" d="M1.49,21H121.784V12.26H1.49Zm119.256-1.021H2.511V13.3H120.746Z" transform="translate(1.088 8.951)" fill="#787878"/>
        <path id="Path_1830" data-name="Path 1830" d="M120.315,12.86v6.678h-2.163v-.017H4.243v.017H2.08V12.86Z" transform="translate(1.519 9.389)" fill="#fff"/>
        <path id="Path_1831" data-name="Path 1831" d="M116.5,21.507H3.635L15.2.3h89.732Z" transform="translate(2.654 0.219)" fill="#002069"/>
        <path id="Path_1832" data-name="Path 1832" d="M15.881,1.038H105l11,20.173H4.877ZM15.258,0,3.7,21.211,3.13,22.249H117.749l-.571-1.038L105.76.277,105.6,0Z" transform="translate(2.285)" fill="#787878"/>
        <path id="Path_1833" data-name="Path 1833" d="M29.358,29.118H54.739v56.8H29.358ZM28.32,86.955H55.777V28.08H28.32Z" transform="translate(20.677 20.501)" fill="#787878"/>
        <path id="Path_1834" data-name="Path 1834" d="M30.358,46.256h4.516V67.242H30.358ZM28.92,28.68v56.8H54.3V83.04h-.017V28.68Z" transform="translate(21.115 20.939)" fill="#fff"/>
        <path id="Path_1835" data-name="Path 1835" d="M39,35.051H5.651L9.119,19.243H35.528Z" transform="translate(4.125 14.049)" fill="#002069"/>
        <path id="Path_1836" data-name="Path 1836" d="M36.214,18.94H8.965L5.28,35.791H39.917Zm-.83,1.038,3.235,14.775H6.56L9.813,19.978Z" transform="translate(3.855 13.828)" fill="#787878"/>
        <path id="Path_1837" data-name="Path 1837" d="M80.672,35.051H47.324l3.467-15.808H77.2Z" transform="translate(34.552 14.049)" fill="#002069"/>
        <path id="Path_1838" data-name="Path 1838" d="M77.884,18.94H50.652l-3.7,16.851H81.587Zm-.83,1.038,3.253,14.775H48.248l3.235-14.775Z" transform="translate(34.278 13.828)" fill="#787878"/>
        <path id="Path_1839" data-name="Path 1839" d="M1.49,69.569H12.684V47.13H1.49Zm1.021-21.4h9.135V68.531H2.511Z" transform="translate(1.088 34.41)" fill="#787878"/>
        <rect id="Rectangle_335" data-name="Rectangle 335" width="9.135" height="20.363" transform="translate(3.599 82.578)" fill="#fff"/>
        <path id="Path_1840" data-name="Path 1840" d="M64.29,69.569H75.484V47.13H64.29Zm1.038-21.4h9.118V68.531H65.328Z" transform="translate(46.938 34.41)" fill="#787878"/>
        <rect id="Rectangle_336" data-name="Rectangle 336" width="9.118" height="20.363" transform="translate(112.266 82.578)" fill="#fff"/>
        <rect id="Rectangle_337" data-name="Rectangle 337" width="32.581" height="7.711" transform="translate(46.209 41.389)" fill="#002069"/>
        <path id="Path_1841" data-name="Path 1841" d="M26.41,32.374H60.026V23.62H26.41Zm32.578-1.038H27.448V24.658h31.54Z" transform="translate(19.282 17.245)" fill="#727272"/>
        <rect id="Rectangle_338" data-name="Rectangle 338" width="1.036" height="0.625" transform="translate(25.929 96.713)" fill="#787878"/>
        <rect id="Rectangle_339" data-name="Rectangle 339" width="1.036" height="29.1" transform="translate(25.934 49.1)" fill="#787878"/>
        <rect id="Rectangle_340" data-name="Rectangle 340" width="1.036" height="29.1" transform="translate(99.291 49.1)" fill="#787878"/>
        <path id="Path_1842" data-name="Path 1842" d="M22.62,69.569h10.9V47.13H22.62Zm1.038-21.4h8.824V68.531H23.658Z" transform="translate(16.515 34.41)" fill="#787878"/>
        <rect id="Rectangle_341" data-name="Rectangle 341" width="8.824" height="20.363" transform="translate(40.173 82.578)" fill="#fff"/>
        <path id="Path_1843" data-name="Path 1843" d="M43.59,69.569H54.04V47.13H43.59Zm1.038-21.4H53V68.531H44.628Z" transform="translate(31.825 34.41)" fill="#787878"/>
        <rect id="Rectangle_342" data-name="Rectangle 342" width="8.374" height="20.363" transform="translate(76.453 82.578)" fill="#fff"/>
        <rect id="Rectangle_343" data-name="Rectangle 343" width="26.401" height="1.038" transform="translate(13.253 55.138)" fill="#787878"/>
        <rect id="Rectangle_344" data-name="Rectangle 344" width="26.401" height="1.038" transform="translate(13.253 68.374)" fill="#787878"/>
        <rect id="Rectangle_345" data-name="Rectangle 345" width="8.912" height="1.038" transform="translate(30.744 81.609)" fill="#787878"/>
        <rect id="Rectangle_346" data-name="Rectangle 346" width="8.374" height="1.038" transform="translate(13.253 81.609)" fill="#787878"/>
        <rect id="Rectangle_347" data-name="Rectangle 347" width="4.569" height="1.038" transform="translate(35.087 94.844)" fill="#787878"/>
        <rect id="Rectangle_348" data-name="Rectangle 348" width="4.567" height="1.038" transform="translate(13.253 94.844)" fill="#787878"/>
        <rect id="Rectangle_349" data-name="Rectangle 349" width="26.401" height="1.038" transform="translate(85.346 55.138)" fill="#787878"/>
        <rect id="Rectangle_350" data-name="Rectangle 350" width="26.401" height="1.038" transform="translate(85.346 68.374)" fill="#787878"/>
        <rect id="Rectangle_351" data-name="Rectangle 351" width="7.647" height="1.038" transform="translate(104.1 81.609)" fill="#787878"/>
        <rect id="Rectangle_352" data-name="Rectangle 352" width="9.637" height="1.038" transform="translate(85.346 81.609)" fill="#787878"/>
        <rect id="Rectangle_353" data-name="Rectangle 353" width="3.306" height="1.038" transform="translate(108.443 94.844)" fill="#787878"/>
        <rect id="Rectangle_354" data-name="Rectangle 354" width="5.83" height="1.038" transform="translate(85.346 94.844)" fill="#787878"/>
        <rect id="Rectangle_355" data-name="Rectangle 355" width="3.471" height="19.943" transform="translate(51.993 67.713)" fill="#002069"/>
        <path id="Path_1844" data-name="Path 1844" d="M29.75,59.826h4.516V38.84H29.75Zm3.478-1.038H30.788V39.878h2.439Z" transform="translate(21.721 28.357)" fill="#727272"/>
        <g id="Group_456" data-name="Group 456">
          <g id="Group_455" data-name="Group 455" clip-path="url(#clip-path-3)">
            <path id="Path_1845" data-name="Path 1845" d="M17.624,31.787a5.531,5.531,0,1,1,5.529-5.529,5.537,5.537,0,0,1-5.529,5.529m0-10.024a4.493,4.493,0,1,0,4.493,4.495,4.5,4.5,0,0,0-4.493-4.495" transform="translate(8.828 15.131)" fill="#787878"/>
            <path id="Path_1846" data-name="Path 1846" d="M60.02,31.787a5.531,5.531,0,1,1,5.529-5.529,5.537,5.537,0,0,1-5.529,5.529m0-10.024a4.493,4.493,0,1,0,4.493,4.495,4.5,4.5,0,0,0-4.493-4.495" transform="translate(39.781 15.131)" fill="#787878"/>
            <path id="Path_1847" data-name="Path 1847" d="M19.734,64.345a3.143,3.143,0,0,1-3.078,2.521,3.31,3.31,0,0,1-.913-.128,3.131,3.131,0,0,1-2.128-3.8,4.229,4.229,0,0,1-1.609-8.247,2.844,2.844,0,0,1,2.9-4.708,4.319,4.319,0,0,1,.057-.843,4.606,4.606,0,0,1,4.559-3.946,1.975,1.975,0,0,1,.266.012,4.579,4.579,0,0,1,4.292,3.934,4.939,4.939,0,0,1,.019,1.1,2.85,2.85,0,0,1,3.484,4.452,4.229,4.229,0,0,1-1.618,8.247,2.882,2.882,0,0,1-2.13,3.77,3.063,3.063,0,0,1-3.991-2.358Z" transform="translate(6.657 32.993)" fill="#82b932"/>
            <path id="Path_1848" data-name="Path 1848" d="M31.176,58.35A4.492,4.492,0,0,0,28.65,54.7a3.356,3.356,0,0,0-.225-3.875,3.545,3.545,0,0,0-1.125-.952,3.061,3.061,0,0,0-2.457-.225,2.581,2.581,0,0,0-.035-.363,4.12,4.12,0,0,0-.087-.45,5.032,5.032,0,0,0-4.187-3.875,2,2,0,0,0-.45-.052,2.318,2.318,0,0,0-.346-.017,1.064,1.064,0,0,0-.242.017,5.091,5.091,0,0,0-4.74,3.927,3.826,3.826,0,0,0-.087.433c-.017.1-.017.19-.035.294a3.176,3.176,0,0,0-1.886.311,3.257,3.257,0,0,0-1.367,1.246,3.348,3.348,0,0,0,0,3.564A4.6,4.6,0,0,0,8.84,58.35,4.994,4.994,0,0,0,10,62.07a4.028,4.028,0,0,0,1.125.969c.035.017.087.052.121.069a4.823,4.823,0,0,0,1.972.571,3.639,3.639,0,0,0,2.232,3.633,3.118,3.118,0,0,0,.363.138,4.67,4.67,0,0,0,.675.138,2.8,2.8,0,0,0,.381.017,3.7,3.7,0,0,0,3.114-1.73A3.026,3.026,0,0,0,21,66.949a3.87,3.87,0,0,0,2.543.571,4.47,4.47,0,0,0,.64-.1,1.55,1.55,0,0,0,.4-.138A3.378,3.378,0,0,0,26.4,65.842a3.547,3.547,0,0,0,.415-2.18,4.414,4.414,0,0,0,1.955-.554.518.518,0,0,0,.138-.069,4.067,4.067,0,0,0,1.125-.969,4.844,4.844,0,0,0,1.142-3.72M20,64.579l-.052-.017h-.035l-.415-.087-.052-.017a2.63,2.63,0,0,1-2.578,2.111,2.882,2.882,0,0,1-.761-.1,2.628,2.628,0,0,1-1.765-3.183l.173-.692-.709.052a3.919,3.919,0,0,1-2.163-.484,3.867,3.867,0,0,1-1.765-3.7,3.556,3.556,0,0,1,2.509-3.062l.8-.26-.588-.588a2.28,2.28,0,0,1-.329-2.872,2.235,2.235,0,0,1,2.7-.986l.709.242-.035-.744a5.442,5.442,0,0,1,.052-.761,4.08,4.08,0,0,1,4.048-3.495,1.414,1.414,0,0,1,.242.017,4.046,4.046,0,0,1,3.806,3.478,4.719,4.719,0,0,1,.017.986l-.1,1,.882-.519a2.247,2.247,0,0,1,3.028.571,2.28,2.28,0,0,1-.173,3.08l-.588.588.8.26a3.558,3.558,0,0,1,2.509,3.08,3.673,3.673,0,0,1-3.927,4.17l-.727-.052.19.692a2.577,2.577,0,0,1-.19,2.024,2.486,2.486,0,0,1-1.574,1.107,2.9,2.9,0,0,1-2.353-.329,2.228,2.228,0,0,1-.986-1.609l-.052.017-.433.069h-.035Z" transform="translate(6.436 32.774)" fill="#787878"/>
            <path id="Path_1849" data-name="Path 1849" d="M21.785,57.62v7.768H12.65V57.655h1.038v6.7h7.059V57.62Z" transform="translate(9.236 42.069)" fill="#787878"/>
            <path id="Path_1850" data-name="Path 1850" d="M20.309,58.664v6.125H13.25V58.733a2.8,2.8,0,0,0,.381.017,3.7,3.7,0,0,0,3.114-1.73,3.026,3.026,0,0,0,1.021,1.073,3.87,3.87,0,0,0,2.543.571" transform="translate(9.674 41.631)" fill="#fff"/>
            <path id="Path_1851" data-name="Path 1851" d="M50.035,59.5v4.516H0V59.5H22.4v1.038H1.038v2.439H49V60.538H30.5V59.5Z" transform="translate(0 43.441)" fill="#787878"/>
            <path id="Path_1852" data-name="Path 1852" d="M93.175,59.5v4.516H43.59V59.5H63.936v1.038H44.628v2.439H92.137V60.538h-20.1V59.5Z" transform="translate(31.825 43.441)" fill="#787878"/>
            <rect id="Rectangle_356" data-name="Rectangle 356" width="12.163" height="12.197" transform="translate(13.772 56.176)" fill="#fff"/>
            <rect id="Rectangle_357" data-name="Rectangle 357" width="12.163" height="12.197" transform="translate(26.972 56.176)" fill="#fff"/>
            <rect id="Rectangle_358" data-name="Rectangle 358" width="12.163" height="5.519" transform="translate(26.972 49.619)" fill="#fff"/>
            <rect id="Rectangle_359" data-name="Rectangle 359" width="12.163" height="5.519" transform="translate(13.772 49.619)" fill="#fff"/>
            <path id="Path_1853" data-name="Path 1853" d="M20.123,40.12v8.27a5.091,5.091,0,0,0-4.74,3.927H7.96V40.12Z" transform="translate(5.812 29.292)" fill="#fff"/>
            <path id="Path_1854" data-name="Path 1854" d="M27.753,40.12v12.2H19.777a5.032,5.032,0,0,0-4.187-3.875V40.12Z" transform="translate(11.382 29.292)" fill="#fff"/>
            <path id="Path_1855" data-name="Path 1855" d="M24.9,47.77v12.2H22.234a4.844,4.844,0,0,0,1.142-3.72A4.492,4.492,0,0,0,20.849,52.6a3.356,3.356,0,0,0-.225-3.875A3.545,3.545,0,0,0,19.5,47.77Z" transform="translate(14.237 34.877)" fill="#fff"/>
            <path id="Path_1856" data-name="Path 1856" d="M13.375,47.77a3.257,3.257,0,0,0-1.367,1.246,3.348,3.348,0,0,0,0,3.564,4.6,4.6,0,0,0-2.543,3.668,4.994,4.994,0,0,0,1.159,3.72H7.96V47.77Z" transform="translate(5.812 34.877)" fill="#fff"/>
            <path id="Path_1857" data-name="Path 1857" d="M34.8,28.08v55.4H25.128V82.44h8.633V29.118H8.4V82.44h8.633v1.038H7.36V28.08Z" transform="translate(5.374 20.501)" fill="#787878"/>
            <path id="Path_1858" data-name="Path 1858" d="M62.127,64.345a3.138,3.138,0,0,1-3.074,2.521,3.354,3.354,0,0,1-.917-.128,3.13,3.13,0,0,1-2.125-3.8A4.229,4.229,0,0,1,54.4,54.686a2.844,2.844,0,0,1,2.9-4.708,3.841,3.841,0,0,1,.057-.843,4.6,4.6,0,0,1,4.559-3.946,1.988,1.988,0,0,1,.266.012,4.573,4.573,0,0,1,4.289,3.934,4.736,4.736,0,0,1,.022,1.1,2.85,2.85,0,0,1,3.484,4.452,4.23,4.23,0,0,1-1.621,8.247,2.88,2.88,0,0,1-2.126,3.77,3.063,3.063,0,0,1-3.991-2.358Z" transform="translate(37.61 32.993)" fill="#82b932"/>
            <path id="Path_1859" data-name="Path 1859" d="M71.035,54.7a3.328,3.328,0,0,0-.208-3.875,3.968,3.968,0,0,0-1.125-.952,3.068,3.068,0,0,0-2.457-.225,2.579,2.579,0,0,0-.035-.363,4.116,4.116,0,0,0-.087-.45,5.032,5.032,0,0,0-4.187-3.875,2,2,0,0,0-.45-.052,2.318,2.318,0,0,0-.346-.017,1.064,1.064,0,0,0-.242.017,5.059,5.059,0,0,0-4.74,3.927,3.826,3.826,0,0,0-.087.433c-.017.087-.035.19-.052.277a3.239,3.239,0,0,0-1.9.329,3.4,3.4,0,0,0-1.332,1.246,3.313,3.313,0,0,0,0,3.564,4.562,4.562,0,0,0-2.543,3.668,4.912,4.912,0,0,0,1.142,3.72,4.332,4.332,0,0,0,1.125.969c.035.017.087.052.121.069a4.9,4.9,0,0,0,1.99.571,3.6,3.6,0,0,0,2.215,3.616,1.468,1.468,0,0,0,.381.156,4.448,4.448,0,0,0,.657.138,3.062,3.062,0,0,0,.4.017,3.7,3.7,0,0,0,3.114-1.73,3.026,3.026,0,0,0,1.021,1.073,3.844,3.844,0,0,0,2.526.571,4.694,4.694,0,0,0,.657-.1,1.43,1.43,0,0,0,.381-.138,3.2,3.2,0,0,0,1.817-1.453,3.357,3.357,0,0,0,.415-2.163,4.486,4.486,0,0,0,1.972-.554.518.518,0,0,0,.138-.069,4.028,4.028,0,0,0,1.125-.969,4.983,4.983,0,0,0,1.142-3.72A4.51,4.51,0,0,0,71.035,54.7M62.4,64.579l-.052-.017-.519-.1a2.612,2.612,0,0,1-2.561,2.111,2.788,2.788,0,0,1-.761-.1,2.623,2.623,0,0,1-1.782-3.183l.19-.692-.727.052a3.645,3.645,0,0,1-3.91-4.187,3.508,3.508,0,0,1,2.509-3.062l.8-.26L55,54.544a2.258,2.258,0,0,1-.329-2.872,2.218,2.218,0,0,1,2.7-.986l.709.242-.035-.761a2.791,2.791,0,0,1,.052-.744,4.054,4.054,0,0,1,4.048-3.495,1.414,1.414,0,0,1,.242.017,4.029,4.029,0,0,1,3.789,3.478,3.8,3.8,0,0,1,.035.986l-.1,1,.882-.519a2.225,2.225,0,0,1,3.01.571,2.259,2.259,0,0,1-.156,3.08l-.588.588.779.26a3.508,3.508,0,0,1,2.509,3.062,3.867,3.867,0,0,1-1.765,3.7,3.919,3.919,0,0,1-2.163.484l-.709-.052.173.692a2.655,2.655,0,0,1-.173,2.024,2.532,2.532,0,0,1-1.574,1.107,2.9,2.9,0,0,1-2.353-.329,2.3,2.3,0,0,1-1-1.609l-.5.087Z" transform="translate(37.39 32.774)" fill="#787878"/>
            <path id="Path_1860" data-name="Path 1860" d="M62.7,58.664v6.125H55.64V58.733a3.062,3.062,0,0,0,.4.017,3.7,3.7,0,0,0,3.114-1.73,3.026,3.026,0,0,0,1.021,1.073,3.844,3.844,0,0,0,2.526.571" transform="translate(40.623 41.631)" fill="#fff"/>
            <path id="Path_1861" data-name="Path 1861" d="M64.175,57.62v7.768H55.04V57.655h1.038v6.7h7.059V57.62Z" transform="translate(40.185 42.069)" fill="#787878"/>
            <path id="Path_1862" data-name="Path 1862" d="M26.044,55.42v7.059H17.93V59.59a3.378,3.378,0,0,0,1.817-1.436,3.547,3.547,0,0,0,.415-2.18,4.414,4.414,0,0,0,1.955-.554Z" transform="translate(13.091 40.462)" fill="#fff"/>
            <rect id="Rectangle_360" data-name="Rectangle 360" width="17.976" height="2.439" transform="translate(31.021 103.979)" fill="#fff"/>
            <path id="Path_1863" data-name="Path 1863" d="M16.074,59.624v2.855H7.96V55.42h3.91a4.823,4.823,0,0,0,1.972.571,3.639,3.639,0,0,0,2.232,3.633" transform="translate(5.812 40.462)" fill="#fff"/>
            <rect id="Rectangle_361" data-name="Rectangle 361" width="20.848" height="2.439" transform="translate(1.038 103.979)" fill="#fff"/>
            <path id="Path_1864" data-name="Path 1864" d="M117.24,16.71V70.378H108.8V37.419H83.417v54.36H72.967V37.419H47.6v54.36H28.053V90.741H46.565V36.381H74v54.36H82.4V36.381h27.439V69.34H116.2V17.748H4.368V69.34h6.955v21.4h8.633v1.038H10.3v-21.4H3.33V16.71Z" transform="translate(2.431 12.2)" fill="#787878"/>
            <path id="Path_1865" data-name="Path 1865" d="M115.764,17.31V68.9H109.4V36.981H113l-3.7-16.851H82.061l-3.7,16.851h3.6V68.9H73.584V36.981h2.855V28.227H42.823v8.754h3.3V68.9H37.3V36.981h3.6L37.2,20.13H9.951L6.266,36.981h3.6V68.9H3.93V17.31Z" transform="translate(2.869 12.638)" fill="#fff"/>
            <rect id="Rectangle_362" data-name="Rectangle 362" width="13.426" height="12.197" transform="translate(85.865 56.176)" fill="#fff"/>
            <rect id="Rectangle_363" data-name="Rectangle 363" width="10.9" height="12.197" transform="translate(100.329 56.176)" fill="#fff"/>
            <rect id="Rectangle_364" data-name="Rectangle 364" width="10.9" height="5.519" transform="translate(100.329 49.619)" fill="#fff"/>
            <rect id="Rectangle_365" data-name="Rectangle 365" width="13.426" height="5.519" transform="translate(85.865 49.619)" fill="#fff"/>
            <path id="Path_1866" data-name="Path 1866" d="M63.056,40.12v8.27a5.059,5.059,0,0,0-4.74,3.927H49.63V40.12Z" transform="translate(36.235 29.292)" fill="#fff"/>
            <path id="Path_1867" data-name="Path 1867" d="M68.89,40.12v12.2H62.177a5.032,5.032,0,0,0-4.187-3.875V40.12Z" transform="translate(42.339 29.292)" fill="#fff"/>
            <path id="Path_1868" data-name="Path 1868" d="M56.274,47.77a3.4,3.4,0,0,0-1.332,1.246,3.313,3.313,0,0,0,0,3.564A4.562,4.562,0,0,0,52.4,56.248a4.912,4.912,0,0,0,1.142,3.72H49.63V47.77Z" transform="translate(36.235 34.877)" fill="#fff"/>
            <path id="Path_1869" data-name="Path 1869" d="M58.99,59.607v2.872H49.63V55.42h5.156a4.9,4.9,0,0,0,1.99.571,3.6,3.6,0,0,0,2.215,3.616" transform="translate(36.235 40.462)" fill="#fff"/>
            <rect id="Rectangle_366" data-name="Rectangle 366" width="19.602" height="2.439" transform="translate(104.36 103.979)" fill="#fff"/>
            <path id="Path_1870" data-name="Path 1870" d="M67.189,55.42v7.059H60.32V59.59a3.2,3.2,0,0,0,1.817-1.453,3.357,3.357,0,0,0,.415-2.163,4.486,4.486,0,0,0,1.972-.554Z" transform="translate(44.04 40.462)" fill="#fff"/>
            <rect id="Rectangle_367" data-name="Rectangle 367" width="18.772" height="2.439" transform="translate(76.453 103.979)" fill="#fff"/>
            <path id="Path_1871" data-name="Path 1871" d="M66.035,47.77v12.2h-1.4a4.983,4.983,0,0,0,1.142-3.72A4.51,4.51,0,0,0,63.232,52.6a3.328,3.328,0,0,0-.208-3.875A3.968,3.968,0,0,0,61.9,47.77Z" transform="translate(45.193 34.877)" fill="#fff"/>
            <path id="Path_1872" data-name="Path 1872" d="M76.469,28.08v55.4H68.061V82.44h7.37V29.118H50.068V82.44h9.9v1.038H49.03V28.08Z" transform="translate(35.797 20.501)" fill="#787878"/>
          </g>
        </g>
      </g>
    </g>
  </g>
  <g id="house2" transform="translate(467.512)">
    <rect id="Rectangle_369" data-name="Rectangle 369" width="15.757" height="0.981" transform="translate(77.88 105.354)" fill="#787878"/>
    <rect id="Rectangle_370" data-name="Rectangle 370" width="15.756" height="0.981" transform="translate(31.348 105.354)" fill="#787878"/>
    <path id="Path_1873" data-name="Path 1873" d="M104.014,64.46v.981h20.005v2.288H.981V65.441H20.969V64.46H0v4.249H125V64.46Z" transform="translate(0 40.894)" fill="#787878"/>
    <rect id="Rectangle_371" data-name="Rectangle 371" width="124.021" height="7.1" transform="translate(0.484 0.486)" fill="#ff5700"/>
    <path id="Path_1874" data-name="Path 1874" d="M.981.981H124.019V7.092H.981ZM0,8.074H125V0H0Z" transform="translate(0)" fill="#787878"/>
    <path id="Path_1875" data-name="Path 1875" d="M29.5,28.331H59.3V91.272H29.5ZM28.52,92.253H60.277V27.35H28.52Z" transform="translate(18.093 17.351)" fill="#787878"/>
    <path id="Path_1876" data-name="Path 1876" d="M31.147,76.917H56.889v7.665H31.147Zm0-46.842H56.889v45.4H31.147ZM29.12,90.891h29.8V27.95H29.12Z" transform="translate(18.474 17.732)" fill="#fff"/>
    <path id="Path_1877" data-name="Path 1877" d="M30.36,74.654H56.1V29.25H30.36Zm24.761-.981H31.341V30.214H55.121Z" transform="translate(19.261 18.557)" fill="#787878"/>
    <rect id="Rectangle_372" data-name="Rectangle 372" width="23.781" height="43.459" transform="translate(50.601 48.771)" fill="#fff"/>
    <path id="Path_1878" data-name="Path 1878" d="M85.32,27.35V75.14H75.4V74.16h8.94V28.331H50.491V74.16h8.94v.981H49.51V27.35Z" transform="translate(31.41 17.351)" fill="#787878"/>
    <path id="Path_1879" data-name="Path 1879" d="M40.876,27.35V75.14H30.955V74.16H39.9V28.331H6.031V74.16h8.94v.981H5.05V27.35Z" transform="translate(3.204 17.351)" fill="#787878"/>
    <rect id="Rectangle_373" data-name="Rectangle 373" width="1.433" height="0.979" transform="translate(25.412 94.654)" fill="#787878"/>
    <path id="Path_1880" data-name="Path 1880" d="M28.048,58.212h12.14V64.9H5.352V58.212h22.7Z" transform="translate(3.396 36.93)" fill="#ff5700"/>
    <path id="Path_1881" data-name="Path 1881" d="M40.876,57.91v7.665H5.05V57.91H17.782v.981H6.031v5.7H39.9v-5.7H28.242V57.91Z" transform="translate(3.204 36.739)" fill="#ff5700"/>
    <path id="Path_1882" data-name="Path 1882" d="M72.505,58.212h12.14V64.9H49.811V58.212H72.505Z" transform="translate(31.601 36.93)" fill="#ff5700"/>
    <path id="Path_1883" data-name="Path 1883" d="M85.32,57.91v7.665H49.51V57.91H62.242v.981H50.491v5.7H84.339v-5.7H72.7V57.91Z" transform="translate(31.41 36.739)" fill="#787878"/>
    <rect id="Rectangle_374" data-name="Rectangle 374" width="1.432" height="0.979" transform="translate(98.076 94.654)" fill="#787878"/>
    <rect id="Rectangle_375" data-name="Rectangle 375" width="24.768" height="6.693" transform="translate(50.111 95.138)" fill="#ff5700"/>
    <path id="Path_1884" data-name="Path 1884" d="M30.36,65.575H56.1V57.91H30.36Zm24.761-.981H31.341v-5.7H55.121Z" transform="translate(19.261 36.739)" fill="#787878"/>
    <rect id="Rectangle_376" data-name="Rectangle 376" width="112.274" height="8.742" transform="translate(6.175 36.268)" fill="#ff5700"/>
    <path id="Path_1885" data-name="Path 1885" d="M3.48,31.615H116.728V21.89H3.48Zm112.268-.981H4.461V22.871H115.748Z" transform="translate(2.208 13.887)" fill="#787878"/>
    <path id="Path_1886" data-name="Path 1886" d="M110.589,17.762H9.242L3.777,25H116.053Z" transform="translate(2.396 11.268)" fill="#ff5700"/>
    <path id="Path_1887" data-name="Path 1887" d="M116.445,24.7l-5.312-7.044-.049-.016-.343-.18H9.391l-.392.2-.1.131L3.687,24.7l-.147.2.392.785H116.2l.392-.785Zm-5.949-6.26,4.723,6.26H4.913l4.723-6.26Z" transform="translate(2.246 11.077)" fill="#787878"/>
    <path id="Path_1888" data-name="Path 1888" d="M9.41,22.073H103V6.35H9.41Zm92.606-.981H10.391V7.331h91.625Z" transform="translate(5.97 4.029)" fill="#787878"/>
    <path id="Path_1889" data-name="Path 1889" d="M6.82,26.764H109V4.34H6.82Zm101.219-.981H7.8V5.321H108.039Z" transform="translate(4.327 2.753)" fill="#787878"/>
    <path id="Path_1890" data-name="Path 1890" d="M7.42,25.4H107.658V4.94H7.42Zm96.839-2.435H10.672V7.245h93.586Z" transform="translate(4.707 3.134)" fill="#fff"/>
    <rect id="Rectangle_377" data-name="Rectangle 377" width="91.625" height="13.762" transform="translate(16.361 11.359)" fill="#fff"/>
    <path id="Path_1891" data-name="Path 1891" d="M13.511,63.261h9.4v5.851h-9.4Zm-.981,6.832H23.889V62.28H12.53Z" transform="translate(7.949 39.511)" fill="#787878"/>
    <rect id="Rectangle_378" data-name="Rectangle 378" width="9.398" height="5.851" transform="translate(21.46 102.772)" fill="#fff"/>
    <g id="Group_459" data-name="Group 459" transform="translate(0 0)">
      <g id="Group_458" data-name="Group 458" clip-path="url(#clip-path-4)">
        <path id="Path_1892" data-name="Path 1892" d="M27.285,55.27A2.694,2.694,0,0,0,24,51.058a4.354,4.354,0,1,0-8.687-.242,2.691,2.691,0,0,0-2.746,4.454,4,4,0,0,0,1.523,7.791,2.965,2.965,0,1,0,5.835.742c0,4.37,6.972,3.641,5.835-.742a4.005,4.005,0,0,0,1.527-7.791" transform="translate(6.24 29.373)" fill="#82b932"/>
        <path id="Path_1893" data-name="Path 1893" d="M20.606,63.995h-.981a2.461,2.461,0,0,1-.981,1.961h.719a2.546,2.546,0,0,0,.262-.327,1.437,1.437,0,0,1,.1-.163h.719c.049.1.114.18.163.262v.229h.9a2.265,2.265,0,0,1-.9-1.961m0,0h-.981a2.461,2.461,0,0,1-.981,1.961h.719a2.546,2.546,0,0,0,.262-.327,1.437,1.437,0,0,1,.1-.163h.719c.049.1.114.18.163.262v.229h.9a2.265,2.265,0,0,1-.9-1.961m7.665-8.744a3.008,3.008,0,0,0,.245-2.86,3.2,3.2,0,0,0-3.825-1.9,4.788,4.788,0,0,0-1.242-2.909,4.863,4.863,0,0,0-7.093-.1A4.749,4.749,0,0,0,15.032,50.4a3.2,3.2,0,0,0-3.073,4.854,4.364,4.364,0,0,0-2.354,4.723,4.438,4.438,0,0,0,1.111,2.354,3.919,3.919,0,0,0,1.291.981,4.191,4.191,0,0,0,1.683.425,3.325,3.325,0,0,0,.327,1.732,1.812,1.812,0,0,0,.278.49l.1.147.294.343a3.436,3.436,0,0,0,2.452,1.013,3.487,3.487,0,0,0,2.452-1.013c.016-.016.016-.033.033-.049a1.852,1.852,0,0,0,.36-.441c.033-.049.065-.082.1-.131a.393.393,0,0,0,.1.131,2.869,2.869,0,0,0,.392.49c.016.016.016.033.033.033a3.541,3.541,0,0,0,2.452.932,3.743,3.743,0,0,0,2.566-.964c.114-.114.212-.229.311-.343l.1-.147a2.278,2.278,0,0,0,.278-.49,3.29,3.29,0,0,0,.229-1.732,4.191,4.191,0,0,0,1.683-.425,3.919,3.919,0,0,0,1.291-.981,4.438,4.438,0,0,0,1.111-2.354,4.386,4.386,0,0,0-2.354-4.723m1.389,4.576a3.428,3.428,0,0,1-3.677,2.926L25.3,62.72l.18.654a2.41,2.41,0,0,1-.327,2.125,1.924,1.924,0,0,1-.507.458,2.761,2.761,0,0,1-1.585.49,2.611,2.611,0,0,1-1.553-.49,2.265,2.265,0,0,1-.9-1.961h-.981a2.461,2.461,0,0,1-.981,1.961,2.432,2.432,0,0,1-1.5.523,2.552,2.552,0,0,1-1.52-.523,2.816,2.816,0,0,1-.441-.441,2.444,2.444,0,0,1-.425-2.141l.163-.654-.67.033a3.512,3.512,0,0,1-1.34-6.832l.752-.245L13.1,55.12a2.2,2.2,0,0,1,2.239-3.645l.67.212-.016-.7a3.827,3.827,0,0,1,1.062-2.828,3.921,3.921,0,0,1,2.795-1.177A3.843,3.843,0,0,1,23.695,51.2l-.082.964.817-.49a2.191,2.191,0,0,1,3.171,1.1,2.065,2.065,0,0,1-.474,2.354l-.556.556.752.245a3.4,3.4,0,0,1,2.337,3.906m-9.055,4.168h-.981a2.461,2.461,0,0,1-.981,1.961h.719a2.546,2.546,0,0,0,.262-.327,1.437,1.437,0,0,1,.1-.163h.719c.049.1.114.18.163.262v.229h.9a2.265,2.265,0,0,1-.9-1.961" transform="translate(6.052 29.183)" fill="#787878"/>
        <path id="Path_1894" data-name="Path 1894" d="M39.515,27.95V73.779H31.98a4.438,4.438,0,0,0,1.111-2.354A4.386,4.386,0,0,0,30.738,66.7a3.008,3.008,0,0,0,.245-2.86,3.2,3.2,0,0,0-3.825-1.9,4.788,4.788,0,0,0-1.242-2.909,4.863,4.863,0,0,0-7.093-.1A4.749,4.749,0,0,0,17.5,61.848,3.2,3.2,0,0,0,14.427,66.7a4.364,4.364,0,0,0-2.354,4.723,4.438,4.438,0,0,0,1.111,2.354H5.65V27.95Z" transform="translate(3.584 17.732)" fill="#fff"/>
        <rect id="Rectangle_379" data-name="Rectangle 379" width="0.981" height="18.621" transform="translate(25.673 83.8)" fill="#787878"/>
        <rect id="Rectangle_380" data-name="Rectangle 380" width="0.98" height="6.954" transform="matrix(0.707, -0.707, 0.707, 0.707, 20.901, 86.332)" fill="#787878"/>
        <rect id="Rectangle_381" data-name="Rectangle 381" width="6.81" height="0.979" transform="translate(25.817 90.557) rotate(-45)" fill="#787878"/>
        <path id="Path_1895" data-name="Path 1895" d="M56.99,70.092H68.349V62.28H56.99Zm.981-6.832h9.4v5.851h-9.4Z" transform="translate(36.155 39.511)" fill="#787878"/>
        <rect id="Rectangle_382" data-name="Rectangle 382" width="9.398" height="5.851" transform="translate(94.126 102.772)" fill="#fff"/>
        <path id="Path_1896" data-name="Path 1896" d="M71.742,55.27a2.693,2.693,0,0,0-3.285-4.212,4.354,4.354,0,1,0-8.687-.242,2.692,2.692,0,0,0-2.747,4.454,4,4,0,0,0,1.525,7.791,2.965,2.965,0,1,0,5.835.742c0,4.37,6.971,3.641,5.835-.742a4,4,0,0,0,1.525-7.791" transform="translate(34.445 29.373)" fill="#82b932"/>
        <path id="Path_1897" data-name="Path 1897" d="M65.968,65.956a2.244,2.244,0,0,1-.9-1.961h-.981a2.461,2.461,0,0,1-.981,1.961h.981v-.327a1.437,1.437,0,0,1,.1-.163h.719c.049.1.114.18.163.262a.733.733,0,0,0,.18.212v.016Zm0,0a2.244,2.244,0,0,1-.9-1.961h-.981a2.461,2.461,0,0,1-.981,1.961h.981v-.327a1.437,1.437,0,0,1,.1-.163h.719c.049.1.114.18.163.262a.733.733,0,0,0,.18.212v.016Zm6.766-10.705a3.008,3.008,0,0,0,.245-2.86,3.223,3.223,0,0,0-3.841-1.9,4.677,4.677,0,0,0-1.226-2.909,4.863,4.863,0,0,0-7.093-.1A4.749,4.749,0,0,0,59.5,50.4a3.149,3.149,0,0,0-3.3,1.945,3.1,3.1,0,0,0,.229,2.909,4.4,4.4,0,0,0-2.37,4.723,4.464,4.464,0,0,0,1.128,2.354,3.919,3.919,0,0,0,1.291.981,4.191,4.191,0,0,0,1.683.425,3.325,3.325,0,0,0,.327,1.732,1.812,1.812,0,0,0,.278.49l.1.147.294.343A3.436,3.436,0,0,0,61.6,67.46a3.487,3.487,0,0,0,2.452-1.013c.016-.016.016-.033.033-.049a1.852,1.852,0,0,0,.36-.441c.033-.049.065-.082.1-.131a.393.393,0,0,0,.1.131,2.869,2.869,0,0,0,.392.49c.016.016.016.033.033.033a3.541,3.541,0,0,0,2.452.932,3.773,3.773,0,0,0,2.566-.964c.114-.114.212-.229.311-.343l.1-.147a2.278,2.278,0,0,0,.278-.49A3.29,3.29,0,0,0,71,63.733a4.191,4.191,0,0,0,1.683-.425,3.919,3.919,0,0,0,1.291-.981,4.438,4.438,0,0,0,1.111-2.354,4.386,4.386,0,0,0-2.354-4.723m1.389,4.576a3.423,3.423,0,0,1-3.694,2.926l-.67-.033.18.654a2.41,2.41,0,0,1-.327,2.125,1.924,1.924,0,0,1-.507.458,2.761,2.761,0,0,1-1.585.49,2.577,2.577,0,0,1-1.553-.49,2.244,2.244,0,0,1-.9-1.961h-.981a2.461,2.461,0,0,1-.981,1.961,2.432,2.432,0,0,1-1.5.523,2.552,2.552,0,0,1-1.52-.523,2.816,2.816,0,0,1-.441-.441,2.444,2.444,0,0,1-.425-2.141l.163-.654-.67.033a3.512,3.512,0,0,1-1.34-6.832l.752-.245-.556-.556a2.13,2.13,0,0,1-.474-2.4,2.161,2.161,0,0,1,2.713-1.242l.67.212-.033-.7a3.877,3.877,0,0,1,6.734-2.746,3.829,3.829,0,0,1,.981,2.958l-.082.964.817-.49a2.191,2.191,0,0,1,3.171,1.1,2.065,2.065,0,0,1-.474,2.354l-.556.556.736.245a3.409,3.409,0,0,1,2.354,3.906m-8.156,6.129a2.244,2.244,0,0,1-.9-1.961h-.981a2.461,2.461,0,0,1-.981,1.961h.981v-.327a1.437,1.437,0,0,1,.1-.163h.719c.049.1.114.18.163.262a.733.733,0,0,0,.18.212v.016Z" transform="translate(34.254 29.183)" fill="#787878"/>
        <path id="Path_1898" data-name="Path 1898" d="M83.959,27.95V73.779H76.44a4.438,4.438,0,0,0,1.111-2.354A4.386,4.386,0,0,0,75.2,66.7a3.008,3.008,0,0,0,.245-2.86,3.223,3.223,0,0,0-3.841-1.9,4.677,4.677,0,0,0-1.226-2.909,4.863,4.863,0,0,0-7.093-.1,4.749,4.749,0,0,0-1.324,2.909,3.149,3.149,0,0,0-3.3,1.945,3.1,3.1,0,0,0,.229,2.909,4.4,4.4,0,0,0-2.37,4.723,4.464,4.464,0,0,0,1.128,2.354H50.11V27.95Z" transform="translate(31.79 17.732)" fill="#fff"/>
        <rect id="Rectangle_383" data-name="Rectangle 383" width="0.981" height="18.621" transform="translate(98.338 83.8)" fill="#787878"/>
        <rect id="Rectangle_384" data-name="Rectangle 384" width="0.98" height="6.955" transform="translate(93.564 86.332) rotate(-45)" fill="#787878"/>
        <rect id="Rectangle_385" data-name="Rectangle 385" width="6.81" height="0.979" transform="translate(98.482 90.557) rotate(-45)" fill="#787878"/>
        <path id="Path_1899" data-name="Path 1899" d="M62.725,84.652v3.04H47.95V27.84H50.5V74.829h9.806a4.191,4.191,0,0,0,1.683.425,3.325,3.325,0,0,0,.327,1.732H50.5v7.665Z" transform="translate(30.42 17.662)" fill="#fff"/>
        <rect id="Rectangle_386" data-name="Rectangle 386" width="14.775" height="2.288" transform="translate(78.37 106.335)" fill="#fff"/>
        <rect id="Rectangle_387" data-name="Rectangle 387" width="15.756" height="0.981" transform="translate(77.88 105.354)" fill="#787878"/>
        <path id="Path_1900" data-name="Path 1900" d="M34.255,27.84V87.692H19.48v-3.04H31.722V76.987H20a3.29,3.29,0,0,0,.229-1.732,4.191,4.191,0,0,0,1.683-.425h9.806V27.84Z" transform="translate(12.358 17.662)" fill="#fff"/>
        <rect id="Rectangle_388" data-name="Rectangle 388" width="14.775" height="2.288" transform="translate(31.838 106.335)" fill="#fff"/>
        <rect id="Rectangle_389" data-name="Rectangle 389" width="15.756" height="0.981" transform="translate(31.348 105.354)" fill="#787878"/>
        <path id="Path_1901" data-name="Path 1901" d="M18.513,99.18v3.04H3.1V4.94H9.18V25.73L3.966,32.643H3.721v9.725H6.287V89.357h9.806a4.191,4.191,0,0,0,1.683.425,3.325,3.325,0,0,0,.327,1.732H6.287V99.18Z" transform="translate(1.967 3.134)" fill="#fff"/>
        <path id="Path_1902" data-name="Path 1902" d="M79.353,4.94v97.28H63.94V99.18H76.165V91.515h-11.7a3.29,3.29,0,0,0,.229-1.732,4.191,4.191,0,0,0,1.683-.425h9.79V42.368h2.206V32.643h-.245L72.815,25.6l-.049-.016V4.94Z" transform="translate(40.564 3.134)" fill="#fff"/>
        <rect id="Rectangle_390" data-name="Rectangle 390" width="19.515" height="2.288" transform="translate(104.504 106.335)" fill="#fff"/>
        <rect id="Rectangle_391" data-name="Rectangle 391" width="19.499" height="2.288" transform="translate(0.981 106.335)" fill="#fff"/>
        <path id="Path_1903" data-name="Path 1903" d="M119.3,4.34v99.242H102.428V102.6h15.9V5.321H3.481V102.6h15.9v.981H2.5V4.34Z" transform="translate(1.586 2.753)" fill="#787878"/>
      </g>
    </g>
  </g>
  <g id="house3" transform="matrix(0.799, 0.602, -0.602, 0.799, 801.635, 76.079)">
    <path id="Path_1904" data-name="Path 1904" d="M119.086,19.03V94.637h-1.078V20.108H3.358V94.637H2.28V19.03Z" transform="translate(1.817 15.162)" fill="#787878"/>
    <rect id="Rectangle_393" data-name="Rectangle 393" width="115.726" height="1.078" transform="translate(4.636 112.871)" fill="#787878"/>
    <rect id="Rectangle_394" data-name="Rectangle 394" width="20.734" height="1.078" transform="translate(75.05 109.26)" fill="#787878"/>
    <rect id="Rectangle_395" data-name="Rectangle 395" width="15.075" height="1.078" transform="translate(51.567 109.26)" fill="#787878"/>
    <path id="Path_1905" data-name="Path 1905" d="M104.193,60.81v1.078h19.728v2.533H1.08V61.888h23.3V60.81H0V65.5H125V60.81Z" transform="translate(0 48.45)" fill="#787878"/>
    <rect id="Rectangle_396" data-name="Rectangle 396" width="27.176" height="74.976" transform="translate(24.384 38.432)" fill="#c80e2d"/>
    <path id="Path_1906" data-name="Path 1906" d="M14.349,22.166H40.457v73.9H14.349ZM13.81,21.09l-.541.539V96.607l.541.539H40.995l.539-.539V21.629l-.539-.539Z" transform="translate(10.572 16.803)" fill="#787878"/>
    <rect id="Rectangle_397" data-name="Rectangle 397" width="22.763" height="2.532" transform="translate(1.078 110.34)" fill="#fff"/>
    <rect id="Rectangle_398" data-name="Rectangle 398" width="20.722" height="55.255" transform="translate(27.686 48.796)" fill="#f2f2f2"/>
    <path id="Path_1907" data-name="Path 1907" d="M36.909,83.191h-21.8V26.859h21.8ZM16.187,82.112H35.833V27.935H16.187Z" transform="translate(12.038 21.4)" fill="#787878"/>
    <rect id="Rectangle_399" data-name="Rectangle 399" width="20.722" height="4.354" transform="translate(27.686 41.738)" fill="#f2f2f2"/>
    <path id="Path_1908" data-name="Path 1908" d="M36.909,28.362h-21.8V22.93h21.8ZM16.187,27.284H35.833V24.008H16.187Z" transform="translate(12.038 18.269)" fill="#787878"/>
    <path id="Path_1909" data-name="Path 1909" d="M3.74,87.785h14.9V21.09H3.74Zm13.817-1.078H4.818V22.168H17.557Z" transform="translate(2.98 16.803)" fill="#787878"/>
    <rect id="Rectangle_400" data-name="Rectangle 400" width="12.739" height="64.539" transform="translate(7.798 38.971)" fill="#fff"/>
    <rect id="Rectangle_401" data-name="Rectangle 401" width="0.478" height="1.078" transform="translate(99.729 103.509)" fill="#787878"/>
    <path id="Path_1910" data-name="Path 1910" d="M92.2,21.09v66.7H82.192V86.707h8.93V22.168H31.4V86.707h9.02v1.078H30.32V21.09Z" transform="translate(24.158 16.803)" fill="#787878"/>
    <rect id="Rectangle_402" data-name="Rectangle 402" width="16.514" height="1.078" transform="translate(77.206 103.51)" fill="#787878"/>
    <rect id="Rectangle_403" data-name="Rectangle 403" width="0.478" height="1.078" transform="translate(70.587 103.509)" fill="#787878"/>
    <path id="Path_1911" data-name="Path 1911" d="M123.532,13.758V24.089H1.228V13.758h122.3ZM.15,25.167H124.609V12.68H.15Z" transform="translate(0.12 10.103)" fill="#787878"/>
    <rect id="Rectangle_404" data-name="Rectangle 404" width="5.929" height="10.331" transform="translate(95.749 23.861)" fill="#fff"/>
    <rect id="Rectangle_405" data-name="Rectangle 405" width="5.929" height="10.331" transform="translate(110.248 23.861)" fill="#fff"/>
    <rect id="Rectangle_406" data-name="Rectangle 406" width="5.929" height="10.331" transform="translate(66.785 23.861)" fill="#fff"/>
    <rect id="Rectangle_407" data-name="Rectangle 407" width="5.911" height="10.331" transform="translate(52.303 23.861)" fill="#fff"/>
    <rect id="Rectangle_408" data-name="Rectangle 408" width="5.911" height="10.331" transform="translate(8.84 23.861)" fill="#fff"/>
    <rect id="Rectangle_409" data-name="Rectangle 409" width="5.929" height="10.331" transform="translate(23.322 23.861)" fill="#fff"/>
    <rect id="Rectangle_410" data-name="Rectangle 410" width="5.929" height="10.331" transform="translate(37.804 23.861)" fill="#fff"/>
    <g id="Group_461" data-name="Group 461" transform="translate(0)">
      <g id="Group_460" data-name="Group 460" clip-path="url(#clip-path-5)">
        <path id="Path_1912" data-name="Path 1912" d="M116.018,23.5v-.719H8.465l-.323.539v.539H116.234Zm0,0v-.719H8.465l-.323.539v.539H116.234Zm0,0v-.719H8.465l-.323.539v.539H116.234Zm0,0v-.719H8.465l-.323.539v.539H116.234Zm0,0v-.719H8.465l-.323.539v.539H116.234Zm0,0v-.719H8.465l-.323.539v.539H116.234Zm0,0v-.719H8.465l-.323.539v.539H116.234ZM8.465,22.783l-.323.539v.539H116.018V22.783Zm115.854,0L108.921,0H15.76L.362,22.783.2,23.034l.449.827H124.032l.449-.844Zm-122.664,0,14.679-21.7h92.029l14.661,21.7Zm6.81,0-.323.539v.539H116.018V22.783Zm107.553.719v-.719H8.465l-.323.539v.539H116.234Zm0,0v-.719H8.465l-.323.539v.539H116.234Zm0,0v-.719H8.465l-.323.539v.539H116.234Zm0,0v-.719H8.465l-.323.539v.539H116.234Zm0,0v-.719H8.465l-.323.539v.539H116.234Zm0,0v-.719H8.465l-.323.539v.539H116.234Zm0,0v-.719H8.465l-.323.539v.539H116.234Z" transform="translate(0.159)" fill="#787878"/>
        <path id="Path_1913" data-name="Path 1913" d="M71.925,22.3H66.212L55,.6h4.043Z" transform="translate(43.821 0.478)" fill="#fff"/>
        <path id="Path_1914" data-name="Path 1914" d="M62.471,22.3H56.65L48.87.6h4.15Z" transform="translate(38.937 0.478)" fill="#fff"/>
        <path id="Path_1915" data-name="Path 1915" d="M43.434,22.3H37.558L36.66.6h4.222Z" transform="translate(29.209 0.478)" fill="#fff"/>
        <path id="Path_1916" data-name="Path 1916" d="M52.94,22.3H47.1L42.77.6h4.186Z" transform="translate(34.077 0.478)" fill="#fff"/>
        <path id="Path_1917" data-name="Path 1917" d="M31.31.6l-4.33,21.7H21.14L27.123.6Z" transform="translate(16.843 0.478)" fill="#fff"/>
        <path id="Path_1918" data-name="Path 1918" d="M35.932.6l-.916,21.7H29.14L31.691.6Z" transform="translate(23.217 0.478)" fill="#fff"/>
        <path id="Path_1919" data-name="Path 1919" d="M26.731.6l-7.78,21.7H13.13L22.581.6Z" transform="translate(10.461 0.478)" fill="#fff"/>
        <path id="Path_1920" data-name="Path 1920" d="M22.075.6,10.864,22.3H5.15L18.033.6Z" transform="translate(4.103 0.478)" fill="#fff"/>
        <path id="Path_1921" data-name="Path 1921" d="M7.935,23.083H4.191l-3.741,0c1.54-2.278,2.884-4.271,4.136-6.122S6.992,13.4,8.145,11.7s2.309-3.416,3.563-5.27S14.3,2.582,15.841.3c2.246,0,3.369,0,5.615,0C20.1,2.586,18.922,4.577,17.825,6.426S15.708,9.988,14.7,11.7s-2.032,3.416-3.132,5.268l-3.631,6.12" transform="translate(0.359 0.242)" fill="#c80e2d"/>
        <path id="Path_1922" data-name="Path 1922" d="M21.653.018,15.76,0,.362,22.783.2,23.034l.449.827h7.8l.234-.4.413-.683,12.883-21.7L22.12.827ZM20.719,1.1,7.836,22.783H1.655l14.679-21.7Z" transform="translate(0.159)" fill="#787878"/>
        <path id="Path_1923" data-name="Path 1923" d="M16,23.085H8.513c1.179-2.278,2.206-4.271,3.164-6.12S13.521,13.4,14.4,11.694s1.768-3.414,2.724-5.266S19.112,2.582,20.291.3h5.615c-.99,2.278-1.856,4.273-2.661,6.123S21.694,9.988,20.954,11.7s-1.49,3.417-2.3,5.268S16.988,20.807,16,23.085" transform="translate(6.783 0.242)" fill="#c80e2d"/>
        <path id="Path_1924" data-name="Path 1924" d="M20.346,0l-.557,1.078L8.577,22.783l-.216.413-.341.665h8.714l.2-.449.27-.629,9.451-21.7L27.119,0ZM9.8,22.783,21.01,1.078h4.474l-9.451,21.7Z" transform="translate(6.39)" fill="#787878"/>
        <path id="Path_1925" data-name="Path 1925" d="M24.06,23.083H20.319l-3.744,0c.818-2.278,1.531-4.271,2.2-6.12s1.277-3.563,1.888-5.272,1.225-3.414,1.888-5.266L24.739.308c2.248,0,3.371,0,5.617,0-.629,2.278-1.179,4.273-1.689,6.122s-.986,3.563-1.459,5.27-.941,3.416-1.455,5.268-1.062,3.843-1.693,6.12" transform="translate(13.206 0.242)" fill="#c80e2d"/>
        <path id="Path_1926" data-name="Path 1926" d="M24.7.018l-.377,1.06-7.78,21.7-.162.431-.234.647h8.66l.126-.449.18-.629L31.1,1.078,31.4,0ZM17.677,22.783,25.457,1.1l4.528-.018-6,21.7Z" transform="translate(12.867)" fill="#787878"/>
        <path id="Path_1927" data-name="Path 1927" d="M32.122,23.085l-3.741,0H24.64c.453-2.276.853-4.269,1.222-6.118s.71-3.563,1.053-5.27.679-3.416,1.051-5.268S28.731,2.582,29.188.3H34.8c-.268,2.278-.5,4.273-.722,6.125s-.419,3.559-.618,5.266-.4,3.417-.622,5.268-.451,3.843-.72,6.122" transform="translate(19.632 0.242)" fill="#c80e2d"/>
        <path id="Path_1928" data-name="Path 1928" d="M29.031,0l-.216,1.078-4.33,21.7-.09.449-.126.629h8.624l.072-.611.054-.467,2.551-21.7L35.7,0ZM25.6,22.783l4.33-21.7h4.564l-2.551,21.7Z" transform="translate(19.337)" fill="#787878"/>
        <path id="Path_1929" data-name="Path 1929" d="M40.189,23.083H36.445l-3.743,0c.1-2.278.176-4.271.253-6.122s.144-3.561.214-5.27.14-3.414.217-5.268.158-3.843.252-6.122c2.246,0,3.369,0,5.615,0,.093,2.278.176,4.269.253,6.118s.144,3.559.216,5.268.138,3.417.216,5.27.158,3.843.252,6.12" transform="translate(26.055 0.242)" fill="#c80e2d"/>
        <path id="Path_1930" data-name="Path 1930" d="M40.978,23.412l-.018-.629-.9-21.7L40.026.018,33.378,0l-.036,1.078-.916,21.7-.018.647-.018.431H41ZM34.4,1.078l4.582.018.9,21.687H33.5Z" transform="translate(25.807)" fill="#787878"/>
        <path id="Path_1931" data-name="Path 1931" d="M49.438,23.083H41.955c-.268-2.276-.5-4.269-.719-6.118s-.422-3.563-.622-5.27-.4-3.416-.622-5.268S39.54,2.582,39.274.3h5.617c.455,2.278.853,4.273,1.222,6.122s.712,3.563,1.051,5.27.683,3.416,1.051,5.268.769,3.843,1.224,6.12" transform="translate(31.291 0.242)" fill="#c80e2d"/>
        <path id="Path_1932" data-name="Path 1932" d="M50.242,23.232l-.09-.449-4.33-21.7L45.606,0H38.94l.126,1.078,2.551,21.7.072.611.054.467h8.624ZM44.708,1.078l4.348,21.7H42.7l-2.551-21.7Z" transform="translate(31.025)" fill="#787878"/>
        <path id="Path_1933" data-name="Path 1933" d="M59.106,23.085l-3.741,0H51.623c-.631-2.276-1.18-4.269-1.693-6.118s-.985-3.563-1.457-5.27S47.53,8.28,47.016,6.427,45.957,2.582,45.325.3c2.246,0,3.371,0,5.618,0,.814,2.278,1.531,4.269,2.194,6.122s1.274,3.556,1.885,5.264,1.227,3.419,1.89,5.27,1.376,3.843,2.194,6.122" transform="translate(36.112 0.242)" fill="#c80e2d"/>
        <path id="Path_1934" data-name="Path 1934" d="M59.951,23.214l-.162-.431-7.78-21.7L51.632.018,44.93,0l.305,1.078,5.983,21.7.18.629.126.449h8.66ZM50.877,1.1l7.78,21.687H52.351l-6-21.7Z" transform="translate(35.798)" fill="#787878"/>
        <path id="Path_1935" data-name="Path 1935" d="M68.774,23.083H65.031l-3.743,0c-.99-2.278-1.86-4.271-2.663-6.12S57.073,13.4,56.331,11.7s-1.486-3.416-2.291-5.27L51.376.3h5.617c1.18,2.278,2.212,4.273,3.169,6.122S62,9.988,62.882,11.7s1.768,3.416,2.726,5.268,1.987,3.843,3.166,6.12" transform="translate(40.934 0.242)" fill="#c80e2d"/>
        <path id="Path_1936" data-name="Path 1936" d="M69.678,23.2l-.216-.413L58.251,1.078,57.694,0H50.92l.467,1.078,9.451,21.7.27.629.2.449h8.714ZM57.029,1.078l11.23,21.7H62.006l-9.451-21.7Z" transform="translate(40.57)" fill="#787878"/>
        <path id="Path_1937" data-name="Path 1937" d="M78.438,23.083H70.953c-1.351-2.276-2.533-4.269-3.633-6.118S65.2,13.4,64.19,11.7s-2.029-3.416-3.126-5.27L57.429.3h5.618c1.536,2.278,2.884,4.273,4.133,6.122s2.408,3.563,3.559,5.27,2.312,3.416,3.563,5.268,2.6,3.843,4.136,6.12" transform="translate(45.756 0.242)" fill="#c80e2d"/>
        <path id="Path_1938" data-name="Path 1938" d="M78.929,22.783,63.53,0H57.637L57.17.827l.144.252L70.2,22.783l.647,1.078h7.8l.449-.844ZM62.973,1.078l14.661,21.7H71.472L58.589,1.078Z" transform="translate(45.55)" fill="#787878"/>
        <rect id="Rectangle_411" data-name="Rectangle 411" width="7.485" height="11.399" transform="translate(0.809 23.327)" fill="#c80e2d"/>
        <path id="Path_1939" data-name="Path 1939" d="M.15,25.167H8.72V12.68H.15Zm7.492-1.078H1.228V13.758H7.642Z" transform="translate(0.12 10.103)" fill="#787878"/>
        <rect id="Rectangle_412" data-name="Rectangle 412" width="7.485" height="11.399" transform="translate(15.296 23.327)" fill="#c80e2d"/>
        <path id="Path_1940" data-name="Path 1940" d="M8.21,25.167h8.57V12.68H8.21ZM15.7,24.089H9.288V13.758H15.7Z" transform="translate(6.541 10.103)" fill="#787878"/>
        <rect id="Rectangle_413" data-name="Rectangle 413" width="7.482" height="11.399" transform="translate(29.785 23.327)" fill="#c80e2d"/>
        <path id="Path_1941" data-name="Path 1941" d="M16.28,25.167h8.552V12.68H16.28Zm7.474-1.078h-6.4V13.758h6.4Z" transform="translate(12.971 10.103)" fill="#787878"/>
        <rect id="Rectangle_414" data-name="Rectangle 414" width="7.485" height="11.399" transform="translate(44.27 23.327)" fill="#c80e2d"/>
        <path id="Path_1942" data-name="Path 1942" d="M24.34,25.167h8.57V12.68H24.34Zm7.492-1.078H25.418V13.758h6.414Z" transform="translate(19.393 10.103)" fill="#787878"/>
        <rect id="Rectangle_415" data-name="Rectangle 415" width="7.485" height="11.399" transform="translate(58.757 23.327)" fill="#c80e2d"/>
        <path id="Path_1943" data-name="Path 1943" d="M32.4,25.167h8.57V12.68H32.4Zm7.492-1.078H33.478V13.758h6.414Z" transform="translate(25.815 10.103)" fill="#787878"/>
        <rect id="Rectangle_416" data-name="Rectangle 416" width="7.483" height="11.399" transform="translate(73.246 23.327)" fill="#c80e2d"/>
        <path id="Path_1944" data-name="Path 1944" d="M40.47,25.167h8.552V12.68H40.47Zm7.474-1.078h-6.4V13.758h6.4Z" transform="translate(32.244 10.103)" fill="#787878"/>
        <rect id="Rectangle_417" data-name="Rectangle 417" width="7.485" height="11.399" transform="translate(87.733 23.327)" fill="#c80e2d"/>
        <path id="Path_1945" data-name="Path 1945" d="M48.53,25.167h8.553V12.68H48.53Zm7.492-1.078H49.608V13.758h6.414Z" transform="translate(38.666 10.103)" fill="#787878"/>
        <rect id="Rectangle_418" data-name="Rectangle 418" width="5.929" height="10.331" transform="translate(81.267 23.861)" fill="#fff"/>
        <rect id="Rectangle_419" data-name="Rectangle 419" width="7.485" height="11.399" transform="translate(102.219 23.327)" fill="#c80e2d"/>
        <path id="Path_1946" data-name="Path 1946" d="M56.59,25.167h8.57V12.68H56.59Zm7.492-1.078H57.668V13.758h6.414Z" transform="translate(45.088 10.103)" fill="#787878"/>
        <rect id="Rectangle_420" data-name="Rectangle 420" width="7.485" height="11.399" transform="translate(116.709 23.327)" fill="#c80e2d"/>
        <path id="Path_1947" data-name="Path 1947" d="M64.66,25.167h8.552V12.68H64.66Zm7.474-1.078h-6.4V13.758h6.4Z" transform="translate(51.517 10.103)" fill="#787878"/>
        <path id="Path_1948" data-name="Path 1948" d="M52.44,56.359a2.961,2.961,0,0,0-3.613-4.63,4.787,4.787,0,1,0-9.55-.268,2.959,2.959,0,0,0-3.019,4.9,4.4,4.4,0,0,0,1.675,8.563,3.26,3.26,0,1,0,6.414.816c0,4.806,7.665,4,6.414-.816a4.4,4.4,0,0,0,1.678-8.563" transform="translate(26.499 37.047)" fill="#82b932"/>
        <path id="Path_1949" data-name="Path 1949" d="M53.549,56.37a3.342,3.342,0,0,0,.27-3.162,3.52,3.52,0,0,0-4.2-2.066,5.263,5.263,0,0,0-1.366-3.2,5.346,5.346,0,0,0-7.78-.126A5.192,5.192,0,0,0,39,51.033a3.5,3.5,0,0,0-3.36,5.336,4.947,4.947,0,0,0,1.9,9.325,4.667,4.667,0,0,0,.054,1.006,3.393,3.393,0,0,0,.4,1.078,3.141,3.141,0,0,0,.323.521,3.918,3.918,0,0,0,1.527,1.186,4.124,4.124,0,0,0,1.078.27,2.782,2.782,0,0,0,.4.018,3.8,3.8,0,0,0,3.234-1.8,3.72,3.72,0,0,0,3.27,1.761,3.462,3.462,0,0,0,.431-.018,4.288,4.288,0,0,0,1.078-.252,3.568,3.568,0,0,0,1.653-1.186,2.668,2.668,0,0,0,.305-.5,2.928,2.928,0,0,0,.359-1.078,4.7,4.7,0,0,0,0-1.006,4.954,4.954,0,0,0,1.9-9.325m1.527,5.013a3.723,3.723,0,0,1-4.043,3.234l-.737-.036.18.719a2.594,2.594,0,0,1-.359,2.336,2.846,2.846,0,0,1-2.3,1.024,2.526,2.526,0,0,1-2.7-2.677H44.044A2.726,2.726,0,0,1,41.313,68.7a2.7,2.7,0,0,1-2.623-3.4l.18-.719-.737.036a3.858,3.858,0,0,1-1.455-7.51l.809-.27-.611-.611a2.4,2.4,0,0,1-.521-2.641,2.367,2.367,0,0,1,2.983-1.366l.737.234-.018-.773a4.237,4.237,0,0,1,4.24-4.4,4.3,4.3,0,0,1,3.162,1.383,4.175,4.175,0,0,1,1.06,3.252l-.09,1.06.916-.539a2.406,2.406,0,0,1,3.486,1.186,2.294,2.294,0,0,1-.539,2.587l-.611.629.826.27a3.714,3.714,0,0,1,2.569,4.276" transform="translate(26.262 36.81)" fill="#787878"/>
        <path id="Path_1950" data-name="Path 1950" d="M44.721,60.063v6.343H37.39V60.1a2.782,2.782,0,0,0,.4.018,3.8,3.8,0,0,0,3.234-1.8,3.72,3.72,0,0,0,3.27,1.761,3.462,3.462,0,0,0,.431-.018" transform="translate(29.79 46.466)" fill="#fff"/>
        <rect id="Rectangle_421" data-name="Rectangle 421" width="13.997" height="2.533" transform="translate(52.106 110.338)" fill="#fff"/>
        <path id="Path_1951" data-name="Path 1951" d="M46.277,58.93V67H36.79V58.966h1.078v6.953H45.2V58.93Z" transform="translate(29.312 46.952)" fill="#787878"/>
        <path id="Path_1952" data-name="Path 1952" d="M68.66,56.359a2.961,2.961,0,0,0-3.611-4.63,4.788,4.788,0,1,0-9.551-.268,2.959,2.959,0,0,0-3.019,4.9,4.4,4.4,0,0,0,1.675,8.563,3.261,3.261,0,1,0,6.416.816c0,4.806,7.663,4,6.413-.816a4.4,4.4,0,0,0,1.678-8.563" transform="translate(39.423 37.047)" fill="#82b932"/>
        <path id="Path_1953" data-name="Path 1953" d="M69.769,56.37a3.342,3.342,0,0,0,.27-3.162,3.52,3.52,0,0,0-4.2-2.066,5.162,5.162,0,0,0-1.366-3.2,5.346,5.346,0,0,0-7.78-.126,5.192,5.192,0,0,0-1.473,3.216,3.5,3.5,0,0,0-3.36,5.336,4.947,4.947,0,0,0,1.9,9.325,4.667,4.667,0,0,0,.054,1.006,3.393,3.393,0,0,0,.4,1.078,3.141,3.141,0,0,0,.323.521,3.918,3.918,0,0,0,1.527,1.186,4.124,4.124,0,0,0,1.078.27,2.782,2.782,0,0,0,.4.018,3.8,3.8,0,0,0,3.234-1.8,3.72,3.72,0,0,0,3.27,1.761,3.462,3.462,0,0,0,.431-.018,4.288,4.288,0,0,0,1.078-.252A3.568,3.568,0,0,0,67.2,68.282a4.083,4.083,0,0,0,.323-.5,2.93,2.93,0,0,0,.341-1.078,4.689,4.689,0,0,0,0-1.006,4.954,4.954,0,0,0,1.9-9.325M71.3,61.382a3.723,3.723,0,0,1-4.043,3.234l-.737-.036.18.719a2.648,2.648,0,0,1-.341,2.336,2.908,2.908,0,0,1-2.318,1.024,2.526,2.526,0,0,1-2.7-2.677H60.264A2.726,2.726,0,0,1,57.533,68.7a2.7,2.7,0,0,1-2.623-3.4l.18-.719-.737.036a3.858,3.858,0,0,1-1.455-7.51l.809-.27-.611-.611a2.426,2.426,0,0,1,2.48-4.007l.719.234-.018-.773a4.222,4.222,0,0,1,1.186-3.108,4.28,4.28,0,0,1,6.217.09,4.187,4.187,0,0,1,1.078,3.252l-.108,1.06.916-.539a2.407,2.407,0,0,1,3.486,1.186,2.294,2.294,0,0,1-.539,2.587l-.611.629.827.27A3.714,3.714,0,0,1,71.3,61.382" transform="translate(39.186 36.81)" fill="#787878"/>
        <path id="Path_1954" data-name="Path 1954" d="M90.644,21.69V86.229H82.415a4.688,4.688,0,0,0,0-1.006,4.954,4.954,0,0,0,1.9-9.325,3.342,3.342,0,0,0,.27-3.162,3.52,3.52,0,0,0-4.2-2.066,5.162,5.162,0,0,0-1.366-3.2,5.346,5.346,0,0,0-7.78-.126,5.192,5.192,0,0,0-1.473,3.216,3.5,3.5,0,0,0-3.36,5.336,4.947,4.947,0,0,0,1.9,9.325,4.667,4.667,0,0,0,.054,1.006H53.271a4.7,4.7,0,0,0,0-1.006,4.954,4.954,0,0,0,1.9-9.325,3.342,3.342,0,0,0,.27-3.162,3.52,3.52,0,0,0-4.2-2.066,5.263,5.263,0,0,0-1.366-3.2,5.346,5.346,0,0,0-7.78-.126,5.192,5.192,0,0,0-1.473,3.216,3.5,3.5,0,0,0-3.36,5.336,4.947,4.947,0,0,0,1.9,9.325,4.667,4.667,0,0,0,.054,1.006h-8.3V21.69Z" transform="translate(24.635 17.281)" fill="#fff"/>
        <path id="Path_1955" data-name="Path 1955" d="M2.88,19.63V93.62H21.548V22.792l.539-.539H49.272l.539.539V93.62h14V90.655a3.918,3.918,0,0,1-1.527-1.186,3.141,3.141,0,0,1-.323-.521H52.183v-66.7h61.88v66.7h-9.649a4.083,4.083,0,0,1-.323.5,3.568,3.568,0,0,1-1.653,1.186V93.62H117.53V19.63ZM19.32,88.948H4.425v-66.7h14.9Z" transform="translate(2.295 15.64)" fill="#fff"/>
        <path id="Path_1956" data-name="Path 1956" d="M61.726,59.917v2.965H42.07V59.9a3.568,3.568,0,0,0,1.653-1.186,2.668,2.668,0,0,0,.305-.5H59.876a3.141,3.141,0,0,0,.323.521,3.918,3.918,0,0,0,1.527,1.186" transform="translate(33.519 46.378)" fill="#fff"/>
        <rect id="Rectangle_422" data-name="Rectangle 422" width="19.656" height="2.533" transform="translate(75.589 110.338)" fill="#fff"/>
        <path id="Path_1957" data-name="Path 1957" d="M60.941,60.063v6.343H53.61V60.1a2.782,2.782,0,0,0,.4.018,3.8,3.8,0,0,0,3.234-1.8,3.72,3.72,0,0,0,3.27,1.761,3.462,3.462,0,0,0,.431-.018" transform="translate(42.713 46.466)" fill="#fff"/>
        <rect id="Rectangle_423" data-name="Rectangle 423" width="19.189" height="2.533" transform="translate(104.732 110.338)" fill="#fff"/>
        <path id="Path_1958" data-name="Path 1958" d="M62.5,58.93V67H53.01V58.966h1.078v6.953h7.331V58.93Z" transform="translate(42.235 46.952)" fill="#787878"/>
      </g>
    </g>
  </g>
</svg>
