<svg xmlns="http://www.w3.org/2000/svg" width="341.261" height="351.691" viewBox="0 0 341.261 351.691">
  <g id="fly-right1" transform="translate(192.19 -26.975) rotate(60)">
    <path id="Path_1686" data-name="Path 1686" d="M0,161.018S240.915,193.718,308.222,0" transform="translate(0 57.172)" fill="none" stroke="#a1adc8" stroke-linecap="round" stroke-width="2" stroke-dasharray="22 17"/>
    <g id="Group_428" data-name="Group 428" transform="translate(281.699 29.852) rotate(-40)">
      <path id="Polygon_2" data-name="Polygon 2" d="M16.045,8.73a2,2,0,0,1,3.9,0l1.958,8.757a2,2,0,0,0,.617,1.053l6.624,5.937a2,2,0,0,1-1.93,3.4l-8.625-2.69a2,2,0,0,0-1.191,0l-8.625,2.69a2,2,0,0,1-1.93-3.4L13.47,18.54a2,2,0,0,0,.617-1.053Z" transform="translate(23.79 0) rotate(51)" fill="#a1adc8"/>
    </g>
  </g>
</svg>
