<svg xmlns="http://www.w3.org/2000/svg" width="363.503" height="211.929" viewBox="0 0 363.503 211.929">
  <g id="fly-right2" transform="translate(-1122.19 -1675.12)">
    <g id="Group_431" data-name="Group 431" transform="translate(-86.109 831.062) rotate(-9)">
      <path id="Path_1686" data-name="Path 1686" d="M14256.908,4147.763s240.915-32.7,308.222,161.018" transform="translate(-13202 -3074)" fill="none" stroke="#a1adc8" stroke-linecap="round" stroke-width="2" stroke-dasharray="22 17"/>
      <g id="Group_428" data-name="Group 428" transform="matrix(0.766, 0.643, -0.643, 0.766, -8218.427, -12232.065)">
        <path id="Polygon_2" data-name="Polygon 2" d="M16.045,8.73a2,2,0,0,1,3.9,0l1.958,8.757a2,2,0,0,0,.617,1.053l6.624,5.937a2,2,0,0,1-1.93,3.4l-8.625-2.69a2,2,0,0,0-1.191,0l-8.625,2.69a2,2,0,0,1-1.93-3.4l6.624-5.937a2,2,0,0,0,.617-1.053Z" transform="translate(16039.905 4167.301) rotate(129)" fill="#a1adc8"/>
      </g>
    </g>
  </g>
</svg>
