<svg xmlns="http://www.w3.org/2000/svg" width="164" height="340.987" viewBox="0 0 164 340.987">
  <g id="mancontact" transform="translate(-375.758 -556.866)">
    <path id="Path_2617" data-name="Path 2617" d="M201.216,1675.988l1.4,13.408,9.007,1.062v-15.9Z" transform="translate(196.696 -817.135)" fill="#fff"/>
    <path id="Path_2618" data-name="Path 2618" d="M210.021,1689.458c-.024,0-.047,0-.07,0l-9.007-1.063a.6.6,0,0,1-.528-.535l-1.4-13.408a.6.6,0,0,1,.517-.658l10.4-1.428a.6.6,0,0,1,.477.142.6.6,0,0,1,.206.454v15.9a.6.6,0,0,1-.6.6m-8.458-2.207,7.856.927v-14.531l-9.144,1.255Z" transform="translate(198.296 -815.533)"/>
    <path id="Path_2619" data-name="Path 2619" d="M189.648,1736.845a62.515,62.515,0,0,1-17.14-.009,4.048,4.048,0,0,1-3.361-4.974c1.591-6.508,4.332-18.858,9.038-24.582l1.169,3.1,1.614-2.923a1.431,1.431,0,0,1,1.07-.728l3.535-.451a1.431,1.431,0,0,1,1.579,1.132l.563,2.692,2.156-3.53.958,13.185a54.654,54.654,0,0,0,1.269,8.387l.964,4.16a4.038,4.038,0,0,1-3.412,4.537" transform="translate(220.086 -840.181)" fill="#fff"/>
    <path id="Path_2620" data-name="Path 2620" d="M179.537,1736.435a63.164,63.164,0,0,1-8.709-.6,4.65,4.65,0,0,1-3.863-5.713l.342-1.408c1.625-6.723,4.344-17.973,8.816-23.413a.594.594,0,0,1,.563-.212.6.6,0,0,1,.465.382l.709,1.883.984-1.781a2.039,2.039,0,0,1,1.52-1.034l3.536-.451a2.048,2.048,0,0,1,2.244,1.6l.252,1.205,1.364-2.233a.6.6,0,0,1,1.114.27l.957,13.186a54.276,54.276,0,0,0,1.255,8.3l.964,4.158a4.664,4.664,0,0,1-3.914,5.27,61.7,61.7,0,0,1-8.6.592m8.515-1.188h0Zm-11.645-28.337c-3.921,5.5-6.411,15.8-7.93,22.086l-.342,1.411a3.447,3.447,0,0,0,2.859,4.235,61.731,61.731,0,0,0,16.973.009,3.446,3.446,0,0,0,2.9-3.864l-.954-4.1a55.45,55.45,0,0,1-1.282-8.48l-.822-11.313-1.178,1.929a.6.6,0,0,1-1.1-.191l-.562-2.693a.822.822,0,0,0-.914-.657l-3.535.451a.833.833,0,0,0-.619.422l-1.614,2.922a.6.6,0,0,1-1.089-.079Z" transform="translate(221.684 -838.582)"/>
    <path id="Path_2621" data-name="Path 2621" d="M192.137,1802.047a35.269,35.269,0,0,1-7.884-.92.6.6,0,1,1,.269-1.173c8.759,2.009,14.7-.063,14.756-.084a.6.6,0,0,1,.409,1.132,23.884,23.884,0,0,1-7.55,1.044" transform="translate(209.362 -908.177)"/>
    <path id="Path_2622" data-name="Path 2622" d="M196.835,1766.28a.6.6,0,0,1-.019-1.2l8.442-.28a.582.582,0,0,1,.621.581.6.6,0,0,1-.581.622l-8.442.28h-.021" transform="translate(200.316 -882.711)"/>
    <path id="Path_2623" data-name="Path 2623" d="M355.592,1653.658l1.35,19.567H367.78l.5-19.567Z" transform="translate(84.505 -801.945)" fill="#fff"/>
    <path id="Path_2624" data-name="Path 2624" d="M366.179,1672.226H355.341a.6.6,0,0,1-.6-.561l-1.35-19.566a.6.6,0,0,1,.6-.643h12.691a.6.6,0,0,1,.6.617l-.5,19.566a.6.6,0,0,1-.6.587m-10.276-1.2h9.689l.473-18.362H354.636Z" transform="translate(86.105 -800.345)"/>
    <path id="Path_2625" data-name="Path 2625" d="M350.17,1712.99a3.934,3.934,0,0,0,3.02,3.9c6.231,1.46,20.266,4.709,24.269,5.309,5.2.779,11.582-.823,14.328-3.883s-6.148-10.364-10.368-13.021c-6.27-3.948-12.293-11.751-14.819-12.1s-7.24,7.025-7.24,7.025l-7.707-3.259a96.653,96.653,0,0,0-1.481,16.036" transform="translate(88.445 -830.664)" fill="#fff"/>
    <path id="Path_2626" data-name="Path 2626" d="M378.572,1721.4a18.9,18.9,0,0,1-2.8-.2c-4.053-.608-18.356-3.922-24.318-5.319a4.56,4.56,0,0,1-3.485-4.49,98.4,98.4,0,0,1,1.494-16.146.6.6,0,0,1,.825-.435l7.243,3.062c1.248-1.889,5.022-7.219,7.554-6.87,1.458.2,3.514,2.166,6.358,4.882a59.34,59.34,0,0,0,8.7,7.307c3.4,2.14,10.592,7.808,11.132,11.672a2.682,2.682,0,0,1-.637,2.261c-2.334,2.6-7.271,4.279-12.06,4.279m-29.4-10a3.348,3.348,0,0,0,2.556,3.3c5.947,1.394,20.212,4.7,24.221,5.3,5.178.776,11.236-.844,13.79-3.689a1.509,1.509,0,0,0,.34-1.29c-.416-2.974-6.412-8.195-10.582-10.82a60.224,60.224,0,0,1-8.889-7.455c-2.375-2.269-4.618-4.412-5.692-4.561-1.477-.2-4.779,3.825-6.651,6.753a.6.6,0,0,1-.742.23l-7.015-2.965a101.371,101.371,0,0,0-1.337,15.2" transform="translate(90.047 -829.069)"/>
    <path id="Path_2627" data-name="Path 2627" d="M389.259,1765.618c-9.444,0-21.645-4.319-26.094-6.026a.6.6,0,0,1,.431-1.124c4.209,1.615,25.611,9.4,33.633,4.146a.6.6,0,1,1,.659,1.006c-2.194,1.439-5.234,2-8.629,2" transform="translate(79.282 -878.086)"/>
    <path id="Path_2628" data-name="Path 2628" d="M414.026,1730.887a.6.6,0,0,1-.421-1.032l4.49-4.4a.6.6,0,0,1,.842.86l-4.49,4.4a.6.6,0,0,1-.421.171" transform="translate(42.476 -854)"/>
    <path id="Path_2629" data-name="Path 2629" d="M175.492,1178.9s-3.358,61.167-5.115,82.282,4.109,55.057,4.109,55.057l16.728-.885s1.147-41.269,2.389-52.729c0,0,7.066-15.536,9.16-29.392s9.228-35.742,9.228-35.742,5.793,109.238,6.352,117.821c0,0,13.118.588,17.821-2.391,0,0,8.333-39.832,7.137-61.5s.117-75.515.117-75.515Z" transform="translate(219.347 -454.743)" fill="#fff"/>
    <path id="Path_2630" data-name="Path 2630" d="M172.894,1315.238a.6.6,0,0,1-.592-.5c-.059-.34-5.86-34.26-4.116-55.209,1.736-20.866,5.081-81.654,5.115-82.265a.6.6,0,0,1,.574-.569l67.927-3a.568.568,0,0,1,.448.171.6.6,0,0,1,.18.445c-.014.539-1.3,54.067-.119,75.467,1.187,21.5-7.065,61.26-7.149,61.66a.6.6,0,0,1-.267.385c-4.808,3.044-17.627,2.506-18.17,2.483a.6.6,0,0,1-.574-.563c-.5-7.642-5.2-96.159-6.176-114.515-2.037,6.566-6.616,21.951-8.208,32.488-2,13.235-8.588,28.165-9.167,29.461-1.222,11.436-2.365,52.175-2.376,52.586a.6.6,0,0,1-.57.585l-16.729.885h-.032m1.578-137.364c-.339,6.133-3.437,61.932-5.087,81.755-1.612,19.369,3.287,49.992,4.014,54.377l15.638-.827c.143-4.964,1.224-41.592,2.377-52.222a.605.605,0,0,1,.051-.184c.07-.154,7.056-15.622,9.113-29.233,2.078-13.746,9.18-35.62,9.251-35.839a.6.6,0,0,1,1.174.154c.057,1.073,5.6,105.522,6.317,117.269,2.454.066,12.606.188,16.718-2.186.708-3.455,8.2-40.649,7.073-61.092-1.114-20.168-.041-68.748.1-74.918Z" transform="translate(220.937 -453.139)"/>
    <path id="Path_2631" data-name="Path 2631" d="M229.777,1492.25h-5.113a.6.6,0,0,1,0-1.2h5.113a.6.6,0,0,1,0,1.2" transform="translate(180.092 -683.769)"/>
    <path id="Path_2632" data-name="Path 2632" d="M376.67,1532.17h-.011a.6.6,0,0,1-.59-.613c.184-10.118,11.206-28.241,11.676-29.008a.6.6,0,0,1,1.026.629c-.113.185-11.32,18.61-11.5,28.4a.6.6,0,0,1-.6.591" transform="translate(69.624 -691.919)"/>
    <path id="Path_2633" data-name="Path 2633" d="M431.455,786.922c.928-.073,8.637,13.162,12.263,19.482a3.648,3.648,0,0,0,5.086,1.3l28.346-17.5a18.638,18.638,0,0,0,5.8-5.62c2.367-3.607,3.776-7.274,6.945-9.836,2.577-2.084,5.188-4.4,5.969-5.006.488-.379,2.763,1.239,1.05,4.112-.526.883-2.493,2.673-3.031,3.485a3.657,3.657,0,0,0,.1,4.247,6.1,6.1,0,0,1,.724,6.316,8.986,8.986,0,0,1-7.685,5.629,4.4,4.4,0,0,0-2.812,1.482l-26.158,29.974a12.616,12.616,0,0,1-16.1,2.489c-8.505-5.2-19.454-15.663-27.342-28.9Z" transform="translate(41.621 -159.53)" fill="#fff"/>
    <path id="Path_2634" data-name="Path 2634" d="M446.918,828.327a13.191,13.191,0,0,1-6.889-1.945c-7.753-4.735-19.06-14.867-27.545-29.1a.6.6,0,0,1,.175-.8l16.855-11.657a.6.6,0,0,1,.295-.105c.568-.039,1.425-.1,12.832,19.783a3.046,3.046,0,0,0,4.248,1.084l28.346-17.5a18.141,18.141,0,0,0,5.609-5.439c.684-1.042,1.294-2.1,1.884-3.127,1.47-2.554,2.858-4.966,5.186-6.847,1.488-1.2,2.959-2.46,4.141-3.47.838-.715,1.5-1.281,1.839-1.544.425-.331,1.084-.206,1.676.317.9.8,1.513,2.477.26,4.579a14.935,14.935,0,0,1-1.728,2.017,15.676,15.676,0,0,0-1.319,1.492,3.037,3.037,0,0,0,.07,3.545,6.689,6.689,0,0,1,.809,6.906,9.571,9.571,0,0,1-8.177,6.007,3.8,3.8,0,0,0-2.428,1.28L456.9,823.775a13.224,13.224,0,0,1-9.979,4.552m-33.111-31.18c8.338,13.792,19.307,23.6,26.849,28.208a12,12,0,0,0,15.333-2.371l26.158-29.974a5,5,0,0,1,3.2-1.684,8.415,8.415,0,0,0,7.194-5.251,5.51,5.51,0,0,0-.638-5.727,4.239,4.239,0,0,1-.123-4.949,15.646,15.646,0,0,1,1.45-1.656,15,15,0,0,0,1.567-1.806,2.6,2.6,0,0,0,.351-2.564,1.445,1.445,0,0,0-.634-.671c-.346.278-.942.788-1.675,1.414-1.125.961-2.665,2.277-4.166,3.491-2.154,1.741-3.487,4.058-4.9,6.512-.6,1.04-1.217,2.115-1.921,3.187a19.346,19.346,0,0,1-5.983,5.8l-28.346,17.5A4.25,4.25,0,0,1,441.6,805.1c-7.189-12.53-10.715-17.981-11.736-19.054Z" transform="translate(43.22 -157.923)"/>
    <path id="Path_2635" data-name="Path 2635" d="M120.177,791.716s-1.886-34.846,24.457-44.635c20.4-7.58,46.447-4.31,54.611-1.478,20.1,6.972,29.994,33.53,29.994,33.53l-23.557,3.319s7.1,76.3,4.02,93.322c0,0-18.957,2.225-27-.962S148.228,867.159,135.59,873l2.3-81.614Z" transform="translate(255.61 -139.707)" fill="#c80e2d"/>
    <path id="Path_2636" data-name="Path 2636" d="M238.807,1086.241a.6.6,0,0,1-.1-1.194c30.086-5.353,38.872-26.314,38.957-26.526a.6.6,0,0,1,1.117.45c-.088.217-9.089,21.786-39.863,27.261a.611.611,0,0,1-.106.009" transform="translate(169.814 -369.164)" fill="#fff"/>
    <path id="Path_2637" data-name="Path 2637" d="M343.447,910.159H304.854l12.088-43.393h38.593Z" transform="translate(121.377 -230.083)" fill="#fff"/>
    <path id="Path_2638" data-name="Path 2638" d="M341.848,909.16H303.255a.6.6,0,0,1-.58-.764L314.763,865a.6.6,0,0,1,.579-.44h38.593a.6.6,0,0,1,.58.763L342.427,908.72a.6.6,0,0,1-.58.44m-37.8-1.2h37.344l11.753-42.19H315.8Z" transform="translate(122.978 -228.48)"/>
    <path id="Path_2639" data-name="Path 2639" d="M136.993,920.913l16.972-.771s.128,14.386,1.659,14.643c5.456.915,16.881.961,24.317.057a5.993,5.993,0,0,0,5.127-4.888,8.6,8.6,0,0,1,4.074-5.882c2.569-1.592.036,3.416,2.438,6.641,1.291,1.732,5.377.964,10.95-.335s6.988,4.694.742,8.318c-6.771,3.928-11.073,3.487-13.232,3.947-4.3.916-42.327,6.915-48.2,3.7-4.535-2.481-4.849-25.433-4.849-25.433" transform="translate(243.368 -268.873)" fill="#fff"/>
    <path id="Path_2640" data-name="Path 2640" d="M147.617,946.285c-3.572,0-6.336-.291-7.664-1.018-4.707-2.575-5.129-23.567-5.162-25.952a.6.6,0,0,1,.575-.609l16.972-.77a.566.566,0,0,1,.441.164.6.6,0,0,1,.188.431c.054,6.11.548,13.136,1.257,14.071,5.536.908,16.727.927,24.044.037a5.377,5.377,0,0,0,4.608-4.4,9.254,9.254,0,0,1,4.348-6.282,1.593,1.593,0,0,1,1.58-.271c.636.358.63,1.2.62,2.357-.011,1.383-.027,3.277,1.038,4.706,1.085,1.456,5.32.607,10.331-.56,3.05-.714,4.751.58,5.324,2.025.775,1.956-.19,5.106-4.143,7.4a26.5,26.5,0,0,1-11.792,3.8,16.272,16.272,0,0,0-1.617.213c-2.151.458-27.371,4.66-40.947,4.66M136,919.882c.136,6.677,1.162,22.489,4.526,24.33,5.625,3.074,43.4-2.831,47.784-3.765a17.266,17.266,0,0,1,1.745-.233,25.415,25.415,0,0,0,11.31-3.645c3.337-1.935,4.22-4.422,3.629-5.914-.495-1.251-2-1.746-3.932-1.3-5.813,1.355-10.045,2.156-11.57.108-1.307-1.754-1.288-3.969-1.277-5.435a8.866,8.866,0,0,0-.04-1.226,2.353,2.353,0,0,0-.323.173,7.976,7.976,0,0,0-3.8,5.482,6.576,6.576,0,0,1-5.646,5.375c-7.452.9-18.9.877-24.488-.062-.495-.083-1.986-.332-2.155-14.607Z" transform="translate(244.97 -267.267)"/>
    <path id="Path_2641" data-name="Path 2641" d="M288.2,662.882s-4.394-2.7-4.351-4.284l-1.255-8.116a1.718,1.718,0,0,1,1.137-1.654l5.2-1.784a1.585,1.585,0,0,0,1.045-1.6L289.57,639l2.037-1.8a.4.4,0,0,0,.043-.55l-3.217-3.921c-1.052-1.481-2.108-5.026-2.969-4.783,0,0-18.333-2.118-19.227,7.126a5.615,5.615,0,0,0,1.049,3.769l1.623,2.289a11.734,11.734,0,0,1,2.2,7.933c-.06.585-.821,4.353-1.332,6.844a5.993,5.993,0,0,1-2.214,3.549c-1.432,1.1-3.176,2.508-2.891,2.6a27.129,27.129,0,0,0,5.235,2.813,19.329,19.329,0,0,0,17.424-1.447Z" transform="translate(150.601 -56.366)" fill="#fff"/>
    <path id="Path_2642" data-name="Path 2642" d="M275.514,665.262a19.572,19.572,0,0,1-7.461-1.467,27.5,27.5,0,0,1-5.362-2.884.681.681,0,0,1-.267-.412c-.072-.411-.111-.638,3.147-3.148a5.4,5.4,0,0,0,1.992-3.193c1.093-5.338,1.3-6.542,1.322-6.785a11.1,11.1,0,0,0-2.091-7.524l-1.624-2.289a6.207,6.207,0,0,1-1.157-4.174,6.717,6.717,0,0,1,2.584-4.717c5.106-4.127,16-3.092,17.216-2.96.944-.136,1.573,1.206,2.354,2.885a15.474,15.474,0,0,0,1.131,2.159l3.192,3.887a1,1,0,0,1-.11,1.383l-1.817,1.609.387,6.156a2.195,2.195,0,0,1-1.445,2.2l-5.2,1.786a1.113,1.113,0,0,0-.731,1.038l1.247,8.071a.68.68,0,0,1,.007.108c-.02.737,2.086,2.537,4.065,3.756a.6.6,0,0,1,0,1.026l-.871.531a20.191,20.191,0,0,1-10.505,2.958m-11.622-4.989a28.614,28.614,0,0,0,4.619,2.408,18.783,18.783,0,0,0,16.882-1.4l.052-.032c-1.454-.978-3.793-2.774-3.821-4.224l-1.247-8.07a.629.629,0,0,1-.007-.082,2.317,2.317,0,0,1,1.538-2.232l5.2-1.786a.983.983,0,0,0,.64-.991l-.406-6.449a.6.6,0,0,1,.2-.489l1.89-1.672-3.093-3.769a15.919,15.919,0,0,1-1.267-2.382,10.138,10.138,0,0,0-1.2-2.184.56.56,0,0,1-.1,0c-.114-.013-11.514-1.273-16.417,2.691a5.486,5.486,0,0,0-2.142,3.9,5.009,5.009,0,0,0,.941,3.362l1.624,2.289a12.305,12.305,0,0,1,2.307,8.342c-.048.471-.5,2.794-1.341,6.9a6.593,6.593,0,0,1-2.436,3.906c-1.382,1.065-2.071,1.652-2.413,1.97" transform="translate(152.227 -54.742)"/>
    <path id="Path_2643" data-name="Path 2643" d="M262.351,575.312c-4.177-.215,1.105,4.09-14.371-.358-6.163-1.771-3,5.459-4.6,5-5.909-1.681-5.706-1.63-8.578-.846-1.9.519-3.115,4.077-2.737,6.726.5,3.5,4.423,9.049,7.935,14.917,1.819,3.039,5.04,3.314,8.935-1.209.415-.481-1.7-3.317-.6-4.539,2.874-3.178,4.152,1.622,6.473.141a34.711,34.711,0,0,0,5.5-4.494c2.849-2.6,7.634,1.448,9.284-4.411.861-3.055-1.529-10.637-7.249-10.931" transform="translate(174.324 -17.809)"/>
    <path id="Path_2644" data-name="Path 2644" d="M298.54,665.448a7.66,7.66,0,0,1-6.845-4.007l-1.434-2.76a.6.6,0,1,1,1.068-.555l1.434,2.761a6.592,6.592,0,0,0,7.585,3.12l2.6-.777a.6.6,0,1,1,.345,1.153l-2.614.782a8.247,8.247,0,0,1-2.137.283" transform="translate(132.032 -78.22)"/>
    <path id="Path_2645" data-name="Path 2645" d="M285.264,596.3a.6.6,0,0,1-.594-.507c-.045-.277-1.048-6.845,2.628-11.078,2.018-2.324,5.047-3.477,8.971-3.394a.6.6,0,0,1-.011,1.2h-.011c-3.571-.074-6.263.936-8.036,2.974-3.308,3.8-2.362,10.041-2.352,10.1a.6.6,0,0,1-.595.7" transform="translate(136.161 -22.64)" fill="#fff"/>
    <path id="Path_2646" data-name="Path 2646" d="M292.141,635.062a4.84,4.84,0,0,0-4.212-5.511c-.3-.034-1.393-.061-1.681-.043-2.342.146-3.548,1.98-3.88,4.407-.358,2.618.719,5.065,3.246,5.53.1.019.853.075.961.075,2.958.009,5.193-1.733,5.566-4.46" transform="translate(137.767 -57.654)" fill="#fff"/>
    <path id="Path_2647" data-name="Path 2647" d="M284.988,638.526h-.024c-.128,0-.915-.057-1.07-.086-2.672-.493-4.172-2.985-3.733-6.2.407-2.98,2.025-4.775,4.439-4.926.333-.02,1.469.007,1.789.045a5.364,5.364,0,0,1,3.645,2.055,5.484,5.484,0,0,1,1.094,4.135c-.408,2.981-2.873,4.98-6.14,4.98m-.05-10.02c-.113,0-.206,0-.262.005-2.326.144-3.09,2.195-3.321,3.888-.289,2.111.452,4.432,2.759,4.856.1.015.751.064.858.065h.021c2.675,0,4.616-1.544,4.943-3.94a4.287,4.287,0,0,0-.853-3.234,4.17,4.17,0,0,0-2.833-1.6c-.2-.023-.894-.045-1.311-.045m5.593,4.958h0Z" transform="translate(139.378 -56.057)"/>
    <path id="Path_2648" data-name="Path 2648" d="M281.447,635.009a4.856,4.856,0,0,0-4.328-5.433,5.049,5.049,0,0,0-5.467,4.465,4.856,4.856,0,0,0,4.328,5.433,5.049,5.049,0,0,0,5.468-4.465" transform="translate(145.532 -57.69)" fill="#fff"/>
    <path id="Path_2649" data-name="Path 2649" d="M274.861,638.5a5.44,5.44,0,0,1-4.229-2.016,5.494,5.494,0,0,1-1.18-4.111,5.655,5.655,0,0,1,6.125-5,5.377,5.377,0,0,1,3.686,1.99,5.49,5.49,0,0,1,1.18,4.111,5.671,5.671,0,0,1-5.582,5.021m.173-9.945a4.462,4.462,0,0,0-4.386,3.956,4.3,4.3,0,0,0,.921,3.217,4.189,4.189,0,0,0,2.869,1.548,4.449,4.449,0,0,0,4.811-3.934,4.3,4.3,0,0,0-.921-3.218,4.186,4.186,0,0,0-2.869-1.548c-.142-.014-.284-.021-.424-.021m4.812,4.855h0Z" transform="translate(147.134 -56.087)"/>
    <path id="Path_2650" data-name="Path 2650" d="M329.645,672.432a2.879,2.879,0,1,1-2.879-2.9,2.889,2.889,0,0,1,2.879,2.9" transform="translate(107.546 -86.747)"/>
  </g>
</svg>
