<svg xmlns="http://www.w3.org/2000/svg" xmlns:xlink="http://www.w3.org/1999/xlink" width="469.705" height="367.617" viewBox="0 0 469.705 367.617">
  <defs>
    <clipPath id="clip-path">
      <rect id="Rectangle_233" data-name="Rectangle 233" width="469.705" height="367.617" transform="translate(50 -53)" fill="none"/>
    </clipPath>
    <clipPath id="clip-path-2">
      <rect id="Rectangle_232" data-name="Rectangle 232" width="791.704" height="314.617" transform="translate(-272)" fill="none"/>
    </clipPath>
    <clipPath id="clip-path-3">
      <rect id="Rectangle_228" data-name="Rectangle 228" width="181.047" height="232.624" fill="#002069"/>
    </clipPath>
    <clipPath id="clip-path-4">
      <rect id="Rectangle_229" data-name="Rectangle 229" width="53.348" height="53.349" fill="#002069"/>
    </clipPath>
    <clipPath id="clip-path-5">
      <rect id="Rectangle_230" data-name="Rectangle 230" width="53.35" height="53.35" fill="#002069"/>
    </clipPath>
    <clipPath id="clip-path-6">
      <rect id="Rectangle_231" data-name="Rectangle 231" width="69.251" height="236.556" fill="#002069"/>
    </clipPath>
  </defs>
  <g id="question" transform="translate(-50 53)">
    <g id="Group_381" data-name="Group 381" clip-path="url(#clip-path)">
      <g id="Group_380" data-name="Group 380">
        <g id="Group_379" data-name="Group 379" clip-path="url(#clip-path-2)">
          <g id="Group_369" data-name="Group 369" transform="translate(278.658 6.261)" opacity="0.05">
            <g id="Group_368" data-name="Group 368">
              <g id="Group_367" data-name="Group 367" clip-path="url(#clip-path-3)">
                <path id="Path_1328" data-name="Path 1328" d="M1021.847,88.47a50.04,50.04,0,0,1-.48-6.653q0,3-.01,6a41.288,41.288,0,0,1,1.334-10.236l-1.592,5.782a38.724,38.724,0,0,1,3.94-9.309l-2.953,4.989a42.44,42.44,0,0,1,6.444-8.175l-4.074,4.013a52.034,52.034,0,0,1,10.3-7.749l-4.955,2.854a67.125,67.125,0,0,1,15.447-6.322l-5.6,1.513a82.088,82.088,0,0,1,21.063-2.72l-6-.01a84.8,84.8,0,0,1,22.124,2.977l-5.782-1.592a80.546,80.546,0,0,1,19.289,8.206l-4.989-2.953a77.434,77.434,0,0,1,15.359,12.069l-4.012-4.074a77.541,77.541,0,0,1,11.5,15.2l-2.855-4.955a76.5,76.5,0,0,1,7.325,17.588l-1.513-5.6a72.463,72.463,0,0,1,2.5,18.656q.005-3,.01-6a66.773,66.773,0,0,1-2.243,16.868l1.592-5.782a62.361,62.361,0,0,1-6.227,14.808l2.953-4.988a63.88,63.88,0,0,1-9.87,12.574l4.074-4.013a74.219,74.219,0,0,1-14.866,11.275l4.955-2.854a105.177,105.177,0,0,1-24.713,9.794l5.6-1.514c-14.214,3.81-28.848,5.63-43.141,9.075a126.4,126.4,0,0,0-15.083,4.4,87.417,87.417,0,0,0-13.11,6.654,41.756,41.756,0,0,0-7.577,5.522c-3.42,3.2-6.828,6.411-9.333,10.392a63.349,63.349,0,0,0-5.059,9.1,68.513,68.513,0,0,0-3.069,10.344c-1.361,5.7-1.221,11.841-.783,17.63.409,5.406,4.208,11.356,8.38,14.625,4.371,3.424,11.209,5.554,16.768,4.555,5.6-1.006,11.22-3.624,14.625-8.381l2.953-4.989a22.516,22.516,0,0,0,1.6-11.779c-.092-1.213-.141-2.423-.145-3.64q0,3-.01,6a36.335,36.335,0,0,1,1.137-8.858l-1.592,5.782a30.874,30.874,0,0,1,3.148-7.452l-2.953,4.988a32.475,32.475,0,0,1,4.873-6.157l-4.074,4.013a41.391,41.391,0,0,1,8.178-6.1l-4.955,2.854a66.177,66.177,0,0,1,15.318-6.094l-5.6,1.514c11.443-3.047,23.251-4.642,34.822-7.122,13.053-2.8,26.409-6.156,38.3-12.4a98.7,98.7,0,0,0,19.139-12.493c6.016-5.233,11.819-11.07,16.137-17.82,4.379-6.846,8.128-13.818,10.322-21.656a102,102,0,0,0,3.269-14.132,106.3,106.3,0,0,0,.576-15.049,73.731,73.731,0,0,0-2.5-18.12c-2.1-7.964-4.524-15.524-8.577-22.724-3.848-6.837-7.866-13.378-13.215-19.148a100.564,100.564,0,0,0-16.771-15.059,105.539,105.539,0,0,0-41.943-17.07,113.392,113.392,0,0,0-23.084-1.174,79.972,79.972,0,0,0-16.845,2.313c-7.033,1.77-13.972,3.718-20.418,7.1-6.12,3.209-12.1,6.741-17.1,11.549a71.866,71.866,0,0,0-8.769,9.44,70.41,70.41,0,0,0-6.5,10.964,66.359,66.359,0,0,0-4.062,12.672,40.188,40.188,0,0,0-1.136,8.107,81.54,81.54,0,0,0,.442,14.122,23.172,23.172,0,0,0,8.381,14.625c4.371,3.425,11.209,5.554,16.768,4.555,5.6-1.006,11.22-3.624,14.625-8.38a23.225,23.225,0,0,0,4.555-16.768" transform="translate(-976.971 -18.063)" fill="#002069"/>
              </g>
            </g>
          </g>
          <g id="Group_372" data-name="Group 372" transform="translate(272.366 261.268)" opacity="0.05">
            <g id="Group_371" data-name="Group 371">
              <g id="Group_370" data-name="Group 370" clip-path="url(#clip-path-4)">
                <path id="Path_1329" data-name="Path 1329" d="M1009.3,792.407a26.669,26.669,0,1,1-11.789-35.825,26.668,26.668,0,0,1,11.789,35.825" transform="translate(-958.821 -753.715)" fill="#002069"/>
              </g>
            </g>
          </g>
          <g id="Group_375" data-name="Group 375" transform="translate(175.859 257.443)" opacity="0.05">
            <g id="Group_374" data-name="Group 374">
              <g id="Group_373" data-name="Group 373" clip-path="url(#clip-path-5)">
                <path id="Path_1330" data-name="Path 1330" d="M559.907,775.674a26.669,26.669,0,1,1-19.59-32.228,26.669,26.669,0,0,1,19.59,32.228" transform="translate(-507.323 -742.68)" fill="#002069"/>
              </g>
            </g>
          </g>
          <g id="Group_378" data-name="Group 378" transform="translate(147.735)" opacity="0.05">
            <g id="Group_377" data-name="Group 377">
              <g id="Group_376" data-name="Group 376" clip-path="url(#clip-path-6)">
                <path id="Path_1331" data-name="Path 1331" d="M476.925,236.482h0a20.239,20.239,0,0,1-21.712-17L426.608,38.615a33.4,33.4,0,1,1,66.378-5.665l2.456,183.094a20.239,20.239,0,0,1-18.517,20.438" transform="translate(-426.192 0)" fill="#002069"/>
              </g>
            </g>
          </g>
          <path id="Path_1332" data-name="Path 1332" d="M970.795,81.112a49.959,49.959,0,0,1-.48-6.653q0,3-.01,6a41.291,41.291,0,0,1,1.334-10.236L970.047,76a38.724,38.724,0,0,1,3.94-9.309l-2.953,4.989a42.44,42.44,0,0,1,6.444-8.175L973.4,67.52a52.044,52.044,0,0,1,10.3-7.75l-4.955,2.855A67.118,67.118,0,0,1,994.2,56.3l-5.6,1.513a82.088,82.088,0,0,1,21.063-2.72l-6-.01a84.794,84.794,0,0,1,22.124,2.977l-5.782-1.592a80.543,80.543,0,0,1,19.29,8.206l-4.989-2.953a77.452,77.452,0,0,1,15.359,12.069l-4.013-4.074a77.553,77.553,0,0,1,11.5,15.2l-2.855-4.955a76.5,76.5,0,0,1,7.325,17.588q-.756-2.8-1.513-5.6a72.468,72.468,0,0,1,2.5,18.656q.005-3,.009-6a66.757,66.757,0,0,1-2.243,16.868l1.592-5.782a62.361,62.361,0,0,1-6.227,14.809l2.953-4.989a63.884,63.884,0,0,1-9.87,12.574l4.073-4.013a74.221,74.221,0,0,1-14.866,11.275l4.955-2.854a105.181,105.181,0,0,1-24.712,9.794l5.6-1.514c-14.214,3.81-28.848,5.63-43.141,9.075a126.41,126.41,0,0,0-15.083,4.4,87.405,87.405,0,0,0-13.11,6.654,41.769,41.769,0,0,0-7.576,5.522c-3.42,3.2-6.828,6.411-9.333,10.392a63.389,63.389,0,0,0-5.059,9.1,68.507,68.507,0,0,0-3.07,10.344c-1.361,5.7-1.22,11.841-.783,17.631.408,5.406,4.209,11.356,8.381,14.625,4.371,3.424,11.209,5.554,16.767,4.555,5.6-1.006,11.22-3.624,14.625-8.381l2.953-4.989a22.516,22.516,0,0,0,1.6-11.779c-.091-1.213-.141-2.423-.145-3.64q0,3-.01,6a36.352,36.352,0,0,1,1.137-8.858l-1.592,5.782a30.87,30.87,0,0,1,3.148-7.452l-2.953,4.988A32.471,32.471,0,0,1,975.5,208.6l-4.074,4.013a41.392,41.392,0,0,1,8.178-6.1l-4.955,2.854a66.186,66.186,0,0,1,15.318-6.094l-5.6,1.514c11.443-3.047,23.251-4.642,34.822-7.122,13.053-2.8,26.41-6.156,38.3-12.4a98.688,98.688,0,0,0,19.138-12.493c6.017-5.233,11.82-11.07,16.137-17.82,4.379-6.846,8.128-13.818,10.322-21.656a102.014,102.014,0,0,0,3.269-14.132,106.333,106.333,0,0,0,.576-15.049,73.719,73.719,0,0,0-2.5-18.121c-2.1-7.964-4.524-15.523-8.576-22.724-3.848-6.837-7.866-13.378-13.215-19.148a100.572,100.572,0,0,0-16.771-15.059,105.536,105.536,0,0,0-41.943-17.07,113.388,113.388,0,0,0-23.083-1.174,79.965,79.965,0,0,0-16.845,2.313c-7.033,1.77-13.973,3.718-20.419,7.1-6.12,3.209-12.1,6.741-17.1,11.549a71.867,71.867,0,0,0-8.769,9.44,70.378,70.378,0,0,0-6.5,10.964,66.351,66.351,0,0,0-4.062,12.672,40.21,40.21,0,0,0-1.136,8.107,81.541,81.541,0,0,0,.442,14.122,23.172,23.172,0,0,0,8.381,14.625c4.371,3.425,11.209,5.554,16.768,4.555,5.6-1.006,11.22-3.624,14.625-8.38A23.228,23.228,0,0,0,970.795,81.112Z" transform="translate(-664.957 -6.994)" fill="none" stroke="#002069" stroke-linecap="round" stroke-linejoin="round" stroke-width="2"/>
          <path id="Path_1333" data-name="Path 1333" d="M958.25,785.05a26.669,26.669,0,1,1-11.789-35.825A26.668,26.668,0,0,1,958.25,785.05Z" transform="translate(-653.099 -487.639)" fill="none" stroke="#002069" stroke-linecap="round" stroke-linejoin="round" stroke-width="2"/>
          <path id="Path_1334" data-name="Path 1334" d="M508.514,780.06a26.669,26.669,0,1,1-19.59-32.228A26.669,26.669,0,0,1,508.514,780.06Z" transform="translate(-297.886 -488.103)" fill="none" stroke="#002069" stroke-linecap="round" stroke-linejoin="round" stroke-width="2"/>
          <path id="Path_1335" data-name="Path 1335" d="M442.8,127.4l1.248,93.031a20.239,20.239,0,0,1-40.228,3.433L375.214,43a33.4,33.4,0,1,1,66.378-5.665l.8,59.31" transform="translate(-244.878 -2.865)" fill="none" stroke="#002069" stroke-linecap="round" stroke-linejoin="round" stroke-width="2"/>
        </g>
      </g>
    </g>
  </g>
</svg>
