<svg id="Group_239" data-name="Group 239" xmlns="http://www.w3.org/2000/svg" xmlns:xlink="http://www.w3.org/1999/xlink" width="286.841" height="269.095" viewBox="0 0 286.841 269.095">
  <defs>
    <clipPath id="clip-path">
      <rect id="Rectangle_176" data-name="Rectangle 176" width="286.841" height="269.095" fill="none"/>
    </clipPath>
  </defs>
  <g id="Group_238" data-name="Group 238" clip-path="url(#clip-path)">
    <path id="Path_724" data-name="Path 724" d="M369.837,19.675A17.179,17.179,0,0,0,352.652,2.417L158.316,2.36a17.225,17.225,0,0,0-17.191,17.254l.009,221.82-43.423-.026A21.831,21.831,0,0,0,112.953,262.2a21.509,21.509,0,0,0,6.451.984l194.432,0A21.733,21.733,0,0,0,335.526,241.4l-.072-221.73Z" transform="translate(-83.343 -2.013)" fill="#fff"/>
    <path id="Path_725" data-name="Path 725" d="M117.391,261.517a21.863,21.863,0,0,1-6.555-1,22.316,22.316,0,0,1-15.485-21.122.347.347,0,0,1,.347-.347h0l43.076.026L138.765,17.6A17.589,17.589,0,0,1,156.3,0L350.639.057a17.589,17.589,0,0,1,17.532,17.605.347.347,0,0,1-.347.347l-34.036,0,.072,221.383a22.107,22.107,0,0,1-22.038,22.126ZM96.048,239.742a21.621,21.621,0,0,0,15,20.112,21.17,21.17,0,0,0,6.347.969l194.431,0a21.412,21.412,0,0,0,21.344-21.431l-.072-221.73a.347.347,0,0,1,.347-.347l34.033,0A16.893,16.893,0,0,0,350.639.751L156.3.694A16.9,16.9,0,0,0,139.459,17.6l.009,221.82a.347.347,0,0,1-.347.347Z" transform="translate(-81.33)"/>
    <path id="Path_726" data-name="Path 726" d="M243.234,1648.066a.347.347,0,1,1,0-.694,21.414,21.414,0,0,0,21.347-21.433.347.347,0,1,1,.694,0,22.109,22.109,0,0,1-22.041,22.127" transform="translate(-207.171 -1386.554)"/>
    <path id="Path_727" data-name="Path 727" d="M1712.566,18.3a.347.347,0,0,1-.347-.347A17.585,17.585,0,0,1,1729.75.357a.347.347,0,0,1,0,.694,16.89,16.89,0,0,0-16.837,16.906.347.347,0,0,1-.347.347" transform="translate(-1460.443 -0.305)"/>
    <path id="Path_728" data-name="Path 728" d="M244.407,1770.648h0l-32.89-.032a21.922,21.922,0,0,1-5.537-.709.347.347,0,1,1,.176-.671,21.228,21.228,0,0,0,5.362.686l32.89.032a.347.347,0,0,1,0,.694" transform="translate(-175.47 -1509.066)"/>
    <path id="Path_729" data-name="Path 729" d="M521.083,1774.426a.347.347,0,1,1,0-.694h61.8a.347.347,0,0,1,0,.694Z" transform="translate(-444.164 -1512.91)"/>
    <path id="Path_730" data-name="Path 730" d="M1362.349,1774.414a.347.347,0,1,1,0-.694h11.879a.347.347,0,1,1,0,.694Z" transform="translate(-1161.724 -1512.901)"/>
    <path id="Path_731" data-name="Path 731" d="M1552.58,1648.016h-2.222a.347.347,0,0,1,0-.694h2.222a21.371,21.371,0,0,0,21.26-21.431.347.347,0,1,1,.694,0,22.065,22.065,0,0,1-21.954,22.125" transform="translate(-1322.087 -1386.513)"/>
    <path id="Path_732" data-name="Path 732" d="M718.192,386.812H582.429a3.656,3.656,0,1,1,0-7.312H718.192a3.656,3.656,0,1,1,0,7.312m-135.763-6.618a2.962,2.962,0,1,0,0,5.924H718.192a2.962,2.962,0,1,0,0-5.924Z" transform="translate(-493.654 -323.696)"/>
    <path id="Path_733" data-name="Path 733" d="M703.472,789.533H582.429a3.656,3.656,0,1,1,0-7.312H703.472a3.656,3.656,0,1,1,0,7.312m-121.044-6.618a2.962,2.962,0,1,0,0,5.924H703.472a2.962,2.962,0,1,0,0-5.924Z" transform="translate(-493.654 -667.198)"/>
    <path id="Path_734" data-name="Path 734" d="M778.115,1518.282h-24.2a3.656,3.656,0,1,1,0-7.312h24.2a3.656,3.656,0,1,1,0,7.312m-24.2-6.618a2.962,2.962,0,1,0,0,5.924h24.2a2.962,2.962,0,1,0,0-5.924Z" transform="translate(-639.926 -1288.787)"/>
    <path id="Path_735" data-name="Path 735" d="M659.84,990.893h-77.3a3.733,3.733,0,0,1-3.777-3.413,3.621,3.621,0,0,1,.979-2.738,3.69,3.69,0,0,1,2.683-1.162H659.84a3.656,3.656,0,1,1,0,7.313m-77.413-6.619a2.969,2.969,0,0,0-2.97,3.161,3.037,3.037,0,0,0,3.084,2.764h77.3a2.962,2.962,0,1,0,0-5.925Z" transform="translate(-493.653 -838.949)"/>
    <path id="Path_736" data-name="Path 736" d="M1313.334,990.893h-33.162a3.656,3.656,0,1,1,0-7.312h33.048a3.732,3.732,0,0,1,3.776,3.413,3.62,3.62,0,0,1-.979,2.738,3.69,3.69,0,0,1-2.684,1.162m-33.162-6.619a2.962,2.962,0,1,0,0,5.925h33.162a2.994,2.994,0,0,0,2.177-.943,2.933,2.933,0,0,0,.792-2.218,3.037,3.037,0,0,0-3.084-2.764Z" transform="translate(-1088.797 -838.949)"/>
    <path id="Path_737" data-name="Path 737" d="M1072.214,889.029H997.483a3.656,3.656,0,1,1,0-7.312H1072.1a3.732,3.732,0,0,1,3.777,3.413,3.62,3.62,0,0,1-.979,2.738,3.688,3.688,0,0,1-2.683,1.162m-74.731-6.619a2.962,2.962,0,1,0,0,5.925h74.731a2.993,2.993,0,0,0,2.177-.943,2.933,2.933,0,0,0,.793-2.218,3.037,3.037,0,0,0-3.084-2.764Z" transform="translate(-847.676 -752.064)"/>
    <path id="Path_738" data-name="Path 738" d="M1223.7,1089.708h-54.444a3.656,3.656,0,1,1,0-7.312h54.33a3.732,3.732,0,0,1,3.776,3.413,3.621,3.621,0,0,1-.979,2.738,3.69,3.69,0,0,1-2.684,1.162m-54.444-6.618a2.962,2.962,0,1,0,0,5.925H1223.7a2.993,2.993,0,0,0,2.177-.943,2.931,2.931,0,0,0,.792-2.218,3.036,3.036,0,0,0-3.083-2.764Z" transform="translate(-994.193 -923.233)"/>
    <path id="Path_739" data-name="Path 739" d="M620.892,889.029h-38.35a3.733,3.733,0,0,1-3.777-3.413,3.621,3.621,0,0,1,.979-2.738,3.69,3.69,0,0,1,2.683-1.162h38.464a3.656,3.656,0,1,1,0,7.312m-38.464-6.619a2.969,2.969,0,0,0-2.97,3.16,3.037,3.037,0,0,0,3.084,2.764h38.35a2.962,2.962,0,1,0,0-5.925Z" transform="translate(-493.653 -752.064)"/>
    <path id="Path_740" data-name="Path 740" d="M666.487,687.669H582.542a3.732,3.732,0,0,1-3.777-3.413,3.621,3.621,0,0,1,.979-2.738,3.69,3.69,0,0,1,2.683-1.162h84.06a3.656,3.656,0,1,1,0,7.313m-84.06-6.619a2.969,2.969,0,0,0-2.97,3.161,3.037,3.037,0,0,0,3.084,2.764h83.945a2.962,2.962,0,1,0,0-5.925Z" transform="translate(-493.653 -580.312)"/>
    <path id="Path_741" data-name="Path 741" d="M1392.476,687.669h-19.518a3.656,3.656,0,1,1,0-7.312h19.4a3.732,3.732,0,0,1,3.776,3.413,3.62,3.62,0,0,1-.979,2.738,3.69,3.69,0,0,1-2.684,1.162m-19.518-6.619a2.962,2.962,0,1,0,0,5.925h19.518a2.994,2.994,0,0,0,2.177-.943,2.933,2.933,0,0,0,.793-2.218,3.037,3.037,0,0,0-3.084-2.764Z" transform="translate(-1167.938 -580.312)"/>
    <path id="Path_742" data-name="Path 742" d="M610.863,486.308H582.542a3.732,3.732,0,0,1-3.777-3.413,3.621,3.621,0,0,1,.979-2.738A3.69,3.69,0,0,1,582.428,479h28.436a3.656,3.656,0,1,1,0,7.312m-28.436-6.619a2.969,2.969,0,0,0-2.97,3.161,3.037,3.037,0,0,0,3.084,2.764h28.321a2.962,2.962,0,1,0,0-5.925Z" transform="translate(-493.653 -408.561)"/>
    <path id="Path_743" data-name="Path 743" d="M1017.063,486.308H932.824a3.656,3.656,0,1,1,0-7.312h84.124a3.732,3.732,0,0,1,3.776,3.413,3.618,3.618,0,0,1-.979,2.738,3.689,3.689,0,0,1-2.683,1.162m-84.238-6.619a2.962,2.962,0,1,0,0,5.925h84.238a2.993,2.993,0,0,0,2.177-.943,2.932,2.932,0,0,0,.793-2.218,3.037,3.037,0,0,0-3.084-2.764Z" transform="translate(-792.525 -408.561)"/>
    <path id="Path_744" data-name="Path 744" d="M584.441,583.22a3.316,3.316,0,0,0-3.316,3.53,3.394,3.394,0,0,0,3.43,3.088h35.318a3.309,3.309,0,1,0,0-6.619Z" transform="translate(-495.667 -497.46)" fill="#fff"/>
    <path id="Path_745" data-name="Path 745" d="M1079.97,588.174h-73.393a3.656,3.656,0,1,1,0-7.312h73.279a3.732,3.732,0,0,1,3.776,3.413,3.62,3.62,0,0,1-.979,2.738,3.689,3.689,0,0,1-2.683,1.162m-73.393-6.619a2.962,2.962,0,1,0,0,5.925h73.393a2.994,2.994,0,0,0,2.177-.943,2.933,2.933,0,0,0,.793-2.218,3.037,3.037,0,0,0-3.084-2.764Z" transform="translate(-855.432 -495.447)"/>
    <path id="Path_746" data-name="Path 746" d="M703.708,1359.651a.347.347,0,0,1-.3-.519l6.832-12a2.266,2.266,0,0,1,3.874-.111l2.128,3.286a1.572,1.572,0,0,0,2.641,0l2.117-3.27a2.266,2.266,0,0,1,3.88.122l5.933,10.559a1.572,1.572,0,0,0,2.77-.048l7.96-15.391a2.259,2.259,0,0,1,2.014-1.228h.018a2.259,2.259,0,0,1,2.013,1.259l2.091,4.2a.347.347,0,0,1-.621.309l-2.091-4.2a1.547,1.547,0,0,0-1.4-.875,1.571,1.571,0,0,0-1.41.853l-7.96,15.391a2.266,2.266,0,0,1-3.992.069l-5.933-10.559a1.572,1.572,0,0,0-2.693-.085l-2.117,3.27a2.266,2.266,0,0,1-3.807,0l-2.128-3.287a1.572,1.572,0,0,0-2.689.077l-6.832,12a.347.347,0,0,1-.3.176" transform="translate(-599.935 -1143.851)"/>
    <path id="Path_747" data-name="Path 747" d="M696.9,120.158a7.866,7.866,0,0,1-2.559,5.43,8.7,8.7,0,0,1-5.937,1.95,8.422,8.422,0,0,1-4.561-1.232,8.08,8.08,0,0,1-3.043-3.5,12.683,12.683,0,0,1-1.116-5.274V115.5a12.782,12.782,0,0,1,1.086-5.423,8.209,8.209,0,0,1,3.118-3.615,8.67,8.67,0,0,1,4.695-1.27,8.355,8.355,0,0,1,5.774,1.95,8.161,8.161,0,0,1,2.545,5.52h-3.75a5.386,5.386,0,0,0-1.362-3.384,4.489,4.489,0,0,0-3.207-1.038,4.389,4.389,0,0,0-3.772,1.8,9.031,9.031,0,0,0-1.347,5.286v1.929a9.583,9.583,0,0,0,1.257,5.383,4.167,4.167,0,0,0,3.683,1.854,4.854,4.854,0,0,0,3.333-1,5.228,5.228,0,0,0,1.414-3.331Z" transform="translate(-579.736 -89.721)"/>
    <path id="Path_748" data-name="Path 748" d="M812.653,151.419a9.565,9.565,0,0,1,.937-4.28,6.867,6.867,0,0,1,2.634-2.928,7.4,7.4,0,0,1,3.9-1.023,7.019,7.019,0,0,1,5.29,2.106,8.305,8.305,0,0,1,2.195,5.587l.015.851a9.653,9.653,0,0,1-.915,4.273,6.784,6.784,0,0,1-2.619,2.913,7.454,7.454,0,0,1-3.936,1.031,6.97,6.97,0,0,1-5.454-2.278,8.746,8.746,0,0,1-2.046-6.073Zm3.616.314a6.532,6.532,0,0,0,1.027,3.907,3.333,3.333,0,0,0,2.857,1.412A3.3,3.3,0,0,0,823,155.617a7.216,7.216,0,0,0,1.02-4.2,6.449,6.449,0,0,0-1.049-3.884,3.528,3.528,0,0,0-5.662-.022,7.08,7.08,0,0,0-1.041,4.22" transform="translate(-693.155 -122.132)"/>
    <path id="Path_749" data-name="Path 749" d="M938.307,143.486l.1,1.868a5.781,5.781,0,0,1,4.687-2.166q5.029,0,5.119,5.781V159.65H944.6V149.178a3.338,3.338,0,0,0-.662-2.278,2.778,2.778,0,0,0-2.165-.74,3.483,3.483,0,0,0-3.259,1.987v11.5H934.9V143.486Z" transform="translate(-797.425 -122.132)"/>
    <path id="Path_750" data-name="Path 750" d="M1044.992,118.5v3.929h2.842v2.689h-2.842v9.023a1.993,1.993,0,0,0,.364,1.337,1.687,1.687,0,0,0,1.3.411,5.539,5.539,0,0,0,1.264-.149v2.808a8.875,8.875,0,0,1-2.38.344q-4.167,0-4.167-4.616v-9.158h-2.649v-2.689h2.649V118.5Z" transform="translate(-885.986 -101.073)"/>
    <path id="Path_751" data-name="Path 751" d="M1127.818,146.8a8.946,8.946,0,0,0-1.473-.119A3.315,3.315,0,0,0,1123,148.6v11.055h-3.616V143.487h3.452l.089,1.807a4.071,4.071,0,0,1,3.631-2.106,3.374,3.374,0,0,1,1.28.209Z" transform="translate(-954.78 -122.133)"/>
    <path id="Path_752" data-name="Path 752" d="M1195.9,159.65a5.626,5.626,0,0,1-.417-1.509,6.066,6.066,0,0,1-8.184.418,4.453,4.453,0,0,1-1.533-3.436,4.6,4.6,0,0,1,1.912-3.966,9.24,9.24,0,0,1,5.469-1.382h2.217v-1.06a2.839,2.839,0,0,0-.7-2.01,2.768,2.768,0,0,0-2.128-.754,3.178,3.178,0,0,0-2.024.62,1.921,1.921,0,0,0-.789,1.576h-3.616a4.04,4.04,0,0,1,.878-2.487,5.851,5.851,0,0,1,2.389-1.815,8.359,8.359,0,0,1,3.37-.657,6.741,6.741,0,0,1,4.509,1.427,5.1,5.1,0,0,1,1.726,4.011v7.291a8.287,8.287,0,0,0,.61,3.481v.254Zm-3.973-2.614a4.1,4.1,0,0,0,2.016-.523,3.484,3.484,0,0,0,1.421-1.4v-3.048h-1.949a5.313,5.313,0,0,0-3.021.7,2.277,2.277,0,0,0-1.012,1.987,2.125,2.125,0,0,0,.692,1.666,2.672,2.672,0,0,0,1.853.62" transform="translate(-1011.402 -122.132)"/>
    <path id="Path_753" data-name="Path 753" d="M1304.069,157.051a3.261,3.261,0,0,0,2.247-.792,2.709,2.709,0,0,0,.952-1.957h3.408a5.347,5.347,0,0,1-.937,2.816,6.154,6.154,0,0,1-2.381,2.069,7.07,7.07,0,0,1-3.244.762,6.851,6.851,0,0,1-5.357-2.2,8.731,8.731,0,0,1-1.979-6.066v-.374a8.588,8.588,0,0,1,1.964-5.908,6.79,6.79,0,0,1,5.357-2.218,6.6,6.6,0,0,1,4.68,1.681,6.031,6.031,0,0,1,1.9,4.415h-3.408a3.331,3.331,0,0,0-.945-2.286,3.034,3.034,0,0,0-2.254-.9,3.177,3.177,0,0,0-2.708,1.277,6.534,6.534,0,0,0-.967,3.877v.583a6.645,6.645,0,0,0,.945,3.922,3.174,3.174,0,0,0,2.731,1.292" transform="translate(-1106.09 -122.132)"/>
    <path id="Path_754" data-name="Path 754" d="M1404.34,118.5v3.929h2.842v2.689h-2.842v9.023a1.991,1.991,0,0,0,.365,1.337,1.685,1.685,0,0,0,1.3.411,5.541,5.541,0,0,0,1.265-.149v2.808a8.877,8.877,0,0,1-2.38.344q-4.167,0-4.167-4.616v-9.158h-2.649v-2.689h2.649V118.5Z" transform="translate(-1192.493 -101.073)"/>
    <path id="Path_755" data-name="Path 755" d="M44.169,1011.2c3.3-2.188,8.808-1.009,10.928,4.487,1.732,4.49-2.142,7.956-3.124,11.267-3.174,10.711,7.1,33.572.119,45.245-5.566,9.313-21.048,16.181-34.4,10.373-12.7-5.522-21.328-18.812-16.177-29.693,4.63-9.78,13.377-5.155,18.689-14.8,5.237-9.5.43-13.978,4.26-18.737,5.238-6.507,10.351-1.947,19.705-8.148" transform="translate(0 -861.625)" fill="#2752b1"/>
    <path id="Path_756" data-name="Path 756" d="M677.54,947.821l-2.1,6.756a6.926,6.926,0,0,0,.934,6.187l2.355,3.393a3.418,3.418,0,0,1,.51,1.927c.029,1.533-.2,3.873-.2,3.873l5.611.092s-.616-2.97-.9-3.99a5.8,5.8,0,0,1,.194-3.962,15.755,15.755,0,0,0,1.275-7.84l-3.844,1.03a10.456,10.456,0,0,1-.965-5.578,5.212,5.212,0,0,0-.21-2.033,1.393,1.393,0,0,0-2.66.145" transform="translate(-575.82 -807.543)" fill="#fff"/>
    <path id="Path_757" data-name="Path 757" d="M682.648,968.384h-.006l-5.611-.092a.347.347,0,0,1-.34-.381c0-.023.227-2.338.2-3.833a3.054,3.054,0,0,0-.449-1.735l-2.355-3.393a7.292,7.292,0,0,1-.978-6.494l2.1-6.742a1.726,1.726,0,0,1,1.63-1.31,1.677,1.677,0,0,1,1.692,1.147,5.6,5.6,0,0,1,.229,2.168,10.884,10.884,0,0,0,.8,5.148l3.57-.957a.347.347,0,0,1,.434.289,15.955,15.955,0,0,1-1.3,8.031,5.457,5.457,0,0,0-.175,3.724c.283,1.019.88,3.891.9,4.013a.347.347,0,0,1-.34.417m-5.232-.78,4.8.079c-.181-.857-.592-2.775-.8-3.543a6.148,6.148,0,0,1,.214-4.2,15.57,15.57,0,0,0,1.282-7.253l-3.446.923a.346.346,0,0,1-.389-.16,10.725,10.725,0,0,1-1.012-5.776,4.929,4.929,0,0,0-.192-1.9.993.993,0,0,0-1.007-.681,1.047,1.047,0,0,0-.989.8l0,.017-2.1,6.755a6.6,6.6,0,0,0,.885,5.883l2.357,3.4a3.808,3.808,0,0,1,.573,2.118c.022,1.184-.1,2.812-.168,3.539m-1.878-21.8h0Z" transform="translate(-573.819 -805.531)"/>
    <path id="Path_758" data-name="Path 758" d="M206.6,1086.591l-8.424.73s-.425,11.8-9.035,20.673c-6.006,6.192-15.009,4.875-21.569,3.328-10.233-3.8-25.172-2.994-33.06.434-15.784,6.859-24.993,61.025-19.989,72.682,4.57,10.645,43.75,12.793,54.657,3.641,4.647-3.9,3.181-27.07,2.393-36.329q-.359-4.222-.353-8.461l0-4.6c4.129-.9,29.518-7.019,35.156-22.129a43.957,43.957,0,0,0,.22-29.965" transform="translate(-96.514 -926.812)" fill="#fff"/>
    <path id="Path_759" data-name="Path 759" d="M142.588,1192.18a75.861,75.861,0,0,1-17.049-1.848c-5.125-1.219-11.613-3.557-13.422-7.771-2.508-5.842-1.591-21.973,2.18-38.355,2.074-9.009,7.978-30.431,17.99-34.782,7.638-3.319,22.536-4.433,33.3-.448,6.856,1.616,15.459,2.7,21.219-3.237,8.42-8.68,8.934-20.328,8.938-20.444a.347.347,0,0,1,.317-.333l8.424-.73a.346.346,0,0,1,.35.212,44.708,44.708,0,0,1-.215,30.22c-5.551,14.879-29.633,21.057-35.135,22.287l0,4.325c0,2.816.116,5.653.352,8.431.824,9.686,2.229,32.643-2.516,36.624-4.791,4.021-14.666,5.849-24.727,5.849m7.081-85.017c-6.6,0-12.969,1.1-17.107,2.9-6.745,2.931-13.321,15.754-17.59,34.3-3.681,15.992-4.635,32.3-2.218,37.925,1.323,3.082,5.92,5.7,12.945,7.37,13.476,3.206,33.7,2.41,41.17-3.859,4.622-3.878,2.906-28.561,2.27-36.034-.238-2.8-.357-5.655-.354-8.49l0-4.6a.347.347,0,0,1,.273-.339c4.86-1.062,29.382-7.108,34.9-21.912a44.165,44.165,0,0,0,.316-29.475l-7.868.682c-.145,1.93-1.284,12.523-9.114,20.6-6.01,6.2-14.859,5.084-21.9,3.424l-.041-.012a46.385,46.385,0,0,0-15.694-2.471" transform="translate(-94.43 -924.797)"/>
    <path id="Path_760" data-name="Path 760" d="M261.056,1087.728a.557.557,0,0,0,.58-.621c-.176-1.641-.7-4.719.865-6.1,2-1.77,5.342-4.463,6.636-2.816,1.134,1.444,2.28,4.374,5.018,5.464.262.1.288.485.171.743l-.574,1.46a2.138,2.138,0,0,0,.107,1.255c.38.911,1.258,2.81,1.088,3.209-.332.777-3.323,2.165-3.323,2.165l1.979,9.282c.075.352.309.936.654.85l3.653.272s-.227,5.031-7.995,6.42c-10.151,1.815-11.485-5.021-11.485-5.021s9.924-.158,5.6-11.021a.724.724,0,0,0-.562-.447c-.965-.147-3.634-.674-4.141-2.4-.538-1.832.551-2.745,1.728-2.694" transform="translate(-220.429 -919.21)" fill="#fff"/>
    <path id="Path_761" data-name="Path 761" d="M264.708,1107.95c-7.441,0-8.62-5.542-8.632-5.605a.347.347,0,0,1,.335-.413c.037,0,3.776-.1,5.486-2.666,1.219-1.831,1.151-4.482-.2-7.88a.376.376,0,0,0-.292-.232c-1.425-.217-3.895-.85-4.422-2.645a2.5,2.5,0,0,1,.281-2.365,2.118,2.118,0,0,1,1.794-.773.21.21,0,0,0,.165-.066.212.212,0,0,0,.056-.172c-.015-.142-.033-.294-.052-.455-.212-1.816-.532-4.56,1.032-5.941,1.74-1.537,4.253-3.562,5.952-3.407a1.64,1.64,0,0,1,1.186.637,16.093,16.093,0,0,1,.9,1.344c.9,1.442,2.026,3.236,3.972,4.011a.7.7,0,0,1,.391.4,1.064,1.064,0,0,1-.032.81l-.567,1.443a1.878,1.878,0,0,0,.1.994c.058.14.128.3.2.481.75,1.746,1.055,2.593.882,3-.324.759-2.414,1.825-3.245,2.225l1.922,9.014a1.248,1.248,0,0,0,.26.579.362.362,0,0,1,.081,0l3.653.272a.347.347,0,0,1,.321.362c-.01.217-.331,5.324-8.28,6.746a18.525,18.525,0,0,1-3.255.309m-7.845-5.352c.452,1.385,2.587,5.86,10.978,4.36,6.311-1.129,7.459-4.646,7.665-5.76l-3.243-.241a.632.632,0,0,1-.429-.094,1.723,1.723,0,0,1-.584-1.032l-1.979-9.282a.347.347,0,0,1,.193-.387,9.939,9.939,0,0,0,3.15-1.986,12.1,12.1,0,0,0-.882-2.452c-.077-.18-.148-.345-.207-.487a2.425,2.425,0,0,1-.1-1.532l.566-1.444a.357.357,0,0,0,.018-.3c-2.152-.855-3.343-2.757-4.3-4.284-.3-.482-.586-.936-.859-1.284a.959.959,0,0,0-.7-.374c-1.6-.147-4.483,2.4-5.43,3.236-1.292,1.141-1,3.668-.8,5.341.019.163.037.318.052.461a.9.9,0,0,1-.94,1,1.441,1.441,0,0,0-1.218.507,1.9,1.9,0,0,0-.162,1.742c.435,1.48,2.845,2,3.861,2.155a1.073,1.073,0,0,1,.833.662c1.442,3.625,1.486,6.493.131,8.526-1.564,2.344-4.493,2.839-5.609,2.943" transform="translate(-218.415 -917.199)"/>
    <path id="Path_762" data-name="Path 762" d="M537,1654.871s5.945-2.119,10.067-.953a6.894,6.894,0,0,0,2.4,3.737c1.78,1.151,6.136,1.685,6.967,4.17s-7.882,4.878-10.993,3.616-5.919-4.4-8.871-4.251.433-6.319.433-6.319" transform="translate(-456.636 -1410.417)" fill="#fff"/>
    <path id="Path_763" data-name="Path 763" d="M545.753,1664.1a6.674,6.674,0,0,1-2.42-.369,20.844,20.844,0,0,1-3.5-2c-1.8-1.188-3.5-2.311-5.218-2.224a1.353,1.353,0,0,1-1.308-.584c-.99-1.545,1.167-5.766,1.416-6.242a.349.349,0,0,1,.191-.166c.247-.088,6.1-2.143,10.278-.96a.348.348,0,0,1,.243.253,6.583,6.583,0,0,0,2.247,3.526,12.408,12.408,0,0,0,2.269.979c1.98.719,4.224,1.535,4.839,3.372a1.71,1.71,0,0,1-.653,1.849c-1.585,1.489-5.473,2.567-8.379,2.568m-10.951-5.294c1.856,0,3.583,1.14,5.408,2.343a20.317,20.317,0,0,0,3.383,1.939c2.26.917,8.186-.3,10.064-2.061.427-.4.585-.779.47-1.123-.508-1.52-2.585-2.275-4.417-2.94a12.792,12.792,0,0,1-2.409-1.049,6.959,6.959,0,0,1-2.491-3.745c-3.632-.924-8.677.665-9.54.953-.861,1.681-1.953,4.535-1.384,5.423.08.125.24.287.688.265.076,0,.152-.006.227-.006" transform="translate(-454.662 -1408.39)"/>
    <path id="Path_764" data-name="Path 764" d="M193.015,1438.913l6.928,16.063a12.525,12.525,0,0,0,7.656,6.966l26.579,8.561-.623,9.269s-34.917-3.29-40.955-7.76c-5.652-4.184-12.756-23.492-12.756-23.492Z" transform="translate(-153.399 -1227.326)" fill="#fff"/>
    <path id="Path_765" data-name="Path 765" d="M231.542,1533.831l-.032,0c-1.43-.135-35.082-3.351-41.129-7.827-5.67-4.2-12.584-22.859-12.875-23.651a.347.347,0,1,1,.651-.24c.071.192,7.133,19.258,12.637,23.333,5.57,4.123,36.733,7.3,40.427,7.659l.581-8.642-26.321-8.478a12.871,12.871,0,0,1-7.868-7.159l-1.673-3.879a.347.347,0,0,1,.637-.275l1.673,3.879a12.176,12.176,0,0,0,7.443,6.773l26.579,8.561a.347.347,0,0,1,.24.353l-.623,9.27a.347.347,0,0,1-.346.324" transform="translate(-151.385 -1281.038)"/>
    <path id="Path_766" data-name="Path 766" d="M631.249,1394.335c-1.023-4.3-13.075-5.72-14.412-3.7-3.105,4.692-8.434,16.459-11.283,22.934a14.408,14.408,0,0,1-6.224,6.814l-16.08,8.877c-.856-.221-8.727-2.237-9.512-2.072-.831.175-1.812,1.733-3.874,2.9s-3.616,1.868-3.129,2.775c.433.806,4.3.492,7.021-.71a1.4,1.4,0,0,1,1.6.348c.971,1.072,5.239,2.977,9.071,2.959l25.78-4.247a9.4,9.4,0,0,0,6.478-4.351c4.923-8,15.937-26.771,14.567-32.53" transform="translate(-483.321 -1185.376)" fill="#fff"/>
    <path id="Path_767" data-name="Path 767" d="M582.288,1433.79c-4.026,0-8.286-1.984-9.273-3.073a1.048,1.048,0,0,0-1.2-.264c-2.682,1.185-6.865,1.677-7.466.557-.589-1.1.72-1.824,2.533-2.832.234-.13.479-.266.731-.409a12.881,12.881,0,0,0,2.429-1.864,3.824,3.824,0,0,1,1.544-1.075c.785-.167,6.825,1.344,9.536,2.041l15.959-8.81a14.142,14.142,0,0,0,6.074-6.65c2.89-6.567,8.2-18.286,11.312-22.986.828-1.251,4.385-1.257,7.34-.733,1.621.287,6.966,1.464,7.7,4.543,1.353,5.684-8.572,22.985-14.609,32.793a9.746,9.746,0,0,1-6.718,4.511l-25.78,4.247a.668.668,0,0,1-.112,0m.055-.347h0Zm-10.113-3.772a1.754,1.754,0,0,1,1.3.58c.89.983,4.984,2.846,8.759,2.846h.026l25.753-4.243a9.053,9.053,0,0,0,6.239-4.19c4.815-7.822,15.868-26.624,14.525-32.268-.5-2.12-4.021-3.467-7.145-4.021-3.512-.623-6.182-.26-6.641.433-3.082,4.657-8.375,16.336-11.255,22.882a14.841,14.841,0,0,1-6.374,6.978l-16.08,8.877a.348.348,0,0,1-.254.032,78.792,78.792,0,0,0-9.356-2.068,3.791,3.791,0,0,0-1.216.906,13.479,13.479,0,0,1-2.557,1.956c-.254.144-.5.281-.736.412-1.565.87-2.511,1.427-2.258,1.9.241.449,3.652.428,6.575-.863a1.724,1.724,0,0,1,.7-.147" transform="translate(-481.241 -1183.355)"/>
    <path id="Path_768" data-name="Path 768" d="M958.01,1280.225s-5.386-26.866-20.753-33.253-39.324-2.845-44.744,1.007-13.46,21.918-13.46,21.918l11.815,15.71s-1.325,22.4.441,36.884a5.693,5.693,0,0,0,5.676,5.153c3.84-.107,9.186-.312,12.953-.682,7.064-.693,21.876-.35,33.569-.177a4.405,4.405,0,0,0,4.374-4.987l-3.4-41.224Z" transform="translate(-749.792 -1060.612)" fill="#fff"/>
    <path id="Path_769" data-name="Path 769" d="M889.3,1320.713a.347.347,0,0,1-.344-.305c-1.68-13.787-.553-34.973-.45-36.819l-11.739-15.608a.348.348,0,0,1-.04-.35c.33-.741,8.141-18.2,13.576-22.06,5.238-3.724,29.18-7.653,45.078-1.045,8.045,3.344,13.317,12.289,16.324,19.2a79.938,79.938,0,0,1,4.636,14.3.347.347,0,0,1-.331.415l-13.163.34,3.372,40.859a.347.347,0,0,1-.692.057l-3.4-41.224a.348.348,0,0,1,.337-.375l13.111-.339c-.755-3.375-6.462-26.779-20.458-32.6-9.079-3.774-20.152-3.694-25.946-3.31-8.079.535-15.671,2.3-18.463,4.28-4.99,3.547-12.391,19.671-13.26,21.591l11.692,15.546a.347.347,0,0,1,.069.229c-.013.224-1.3,22.532.439,36.821a.347.347,0,0,1-.3.386l-.042,0" transform="translate(-747.779 -1058.486)"/>
    <path id="Path_770" data-name="Path 770" d="M910.029,1450.158l29.2-1.479-10.792-32.287-29.2,1.478Z" transform="translate(-767.007 -1208.117)" fill="#2752b1"/>
    <path id="Path_771" data-name="Path 771" d="M1045.188,1459.795l-15.113-5.885s3.345,25.037-27.142,14.941a21.5,21.5,0,0,0,.6-7.053c-.345-3.766-2.411,0-2.572,3.083s-7.244,2.194-11.524,1.2-9.778.077.25,4.986,12.045,2.391,12.045,2.391,13.339,16.874,28.656,12.37c18.839-5.54,14.8-26.031,14.8-26.031" transform="translate(-839.326 -1240.118)" fill="#fff"/>
    <path id="Path_772" data-name="Path 772" d="M1023.1,1484.913c-4.852,0-9.95-1.792-15-5.311a45.85,45.85,0,0,1-8.432-7.669c-.894.585-3.856,1.492-12.151-2.569-4.324-2.117-6.22-3.724-5.8-4.912.495-1.391,3.807-1.181,5.778-.723,3.789.881,8.819,1.454,10.524.171a1.34,1.34,0,0,0,.574-1.049c.1-1.947,1.106-4.967,2.232-4.989.844-.014.989,1.421,1.032,1.893a21.9,21.9,0,0,1-.522,6.857c9.985,3.254,17.305,3.034,21.758-.656,5.779-4.788,4.634-13.919,4.622-14.011a.347.347,0,0,1,.47-.369l15.114,5.885a.348.348,0,0,1,.214.256,29.085,29.085,0,0,1-.34,11.083c-1.249,5.4-4.814,12.439-14.707,15.348a18.941,18.941,0,0,1-5.364.767M999.709,1471.1h.01a.349.349,0,0,1,.265.128c.132.167,13.372,16.637,28.286,12.252,7.676-2.257,12.461-7.241,14.222-14.816a29.167,29.167,0,0,0,.373-10.63l-14.4-5.609c.172,2.15.355,9.688-4.925,14.063-4.695,3.89-12.341,4.118-22.728.679a.347.347,0,0,1-.224-.425,21.325,21.325,0,0,0,.583-6.926c-.1-1.114-.338-1.264-.341-1.265-.351.037-1.419,2.039-1.539,4.334a2.024,2.024,0,0,1-.85,1.568c-2.385,1.794-9.1.416-11.1-.049-2.531-.589-4.749-.333-4.967.28-.07.2-.138,1.322,5.448,4.057,9.516,4.658,11.608,2.5,11.628,2.479a.358.358,0,0,1,.263-.119" transform="translate(-837.31 -1238.105)"/>
    <path id="Path_773" data-name="Path 773" d="M1036.307,1039.208c1.336,1.109,3.9,2.416,5.807,1.329,1.418-.809,2.134-2.755,1.974-4.935a2.911,2.911,0,0,0,2.158-.662c.927-.91.666-2.484.576-3.523-.417-4.794,2.326-5.672,1.482-8.9a7.753,7.753,0,0,0-3.133-4.226c-1.964-1.345-3.223-.815-6.446-1.491-5.424-1.137-5.711-3.445-9.238-3.277-.2.01-5,.306-6.463,3.717-1.189,2.775.524,5.987,2.211,7.635,2.184,2.134,3.616.952,5.79,2.725,3.816,3.112,1.314,8.31,5.282,11.6" transform="translate(-872.255 -864.484)" fill="#2752b1"/>
    <path id="Path_774" data-name="Path 774" d="M1038.624,1077.938l.2-.193a6.57,6.57,0,0,0,2.275-3.48c.9-5.907,6.129-8.3,6.645-2.943.13,1.352,5.055,1.032,4.541,2.484-1.339,3.784-1.422,2.789.8,4.046a1.86,1.86,0,0,1,.723.135,2.485,2.485,0,0,1,1.041,3.315,2.864,2.864,0,0,1-1.672,1.664l.294,5.857a5.41,5.41,0,0,0,3.6,4.835l2.011.709s-8.884,6.484-18.539.348l1.216-.623a6.314,6.314,0,0,0,3.426-5.74l-.047-1.146a4.868,4.868,0,0,1-1.8-.06c-2.646-.63-3.664-3.6-3.409-7.375l-1.09-.519a.808.808,0,0,1-.21-1.312" transform="translate(-885.686 -911.243)" fill="#fff"/>
    <path id="Path_775" data-name="Path 775" d="M1047.288,1095.668a16.43,16.43,0,0,1-8.946-2.676.347.347,0,0,1,.028-.6l1.216-.623a6,6,0,0,0,3.238-5.425l-.031-.767a5,5,0,0,1-1.552-.107c-2.577-.613-3.915-3.341-3.689-7.5l-.879-.418a1.155,1.155,0,0,1-.3-1.875h0l.2-.193a6.3,6.3,0,0,0,2.172-3.281c.6-3.908,2.984-6.275,4.864-6.22.649.018,2.189.375,2.469,3.3.038.4,1.274.679,2.092.865,1.109.252,2.066.47,2.386,1.05a.859.859,0,0,1,.046.719c-.195.551-.363,1-.5,1.372a5,5,0,0,0-.425,1.393c.013.085.216.185.574.355.245.116.547.259.917.465a2.178,2.178,0,0,1,.761.159,2.83,2.83,0,0,1,1.232,3.766,3.242,3.242,0,0,1-1.635,1.764l.282,5.609a5.045,5.045,0,0,0,3.367,4.525l2.01.708a.347.347,0,0,1,.09.608,18.654,18.654,0,0,1-9.984,3.036m-8.052-2.941c7.77,4.58,15,.952,17.048-.283l-1.343-.473a5.738,5.738,0,0,1-3.829-5.145l-.294-5.857a.347.347,0,0,1,.234-.346,2.533,2.533,0,0,0,1.463-1.466,2.146,2.146,0,0,0-.851-2.864,1.447,1.447,0,0,0-.588-.109.37.37,0,0,1-.174-.045c-.384-.218-.7-.366-.949-.485-1.259-.6-1.144-.9-.5-2.618.138-.367.3-.814.5-1.36a.163.163,0,0,0,0-.152c-.169-.307-1.188-.539-1.932-.708-1.307-.3-2.542-.578-2.628-1.475-.161-1.668-.816-2.641-1.8-2.668-1.6-.043-3.636,2.208-4.159,5.631a6.864,6.864,0,0,1-2.378,3.678l-.2.193a.461.461,0,0,0,.12.748l1.09.519a.347.347,0,0,1,.2.337c-.265,3.919.88,6.476,3.143,7.014a4.517,4.517,0,0,0,1.674.054.347.347,0,0,1,.395.329l.047,1.146a6.7,6.7,0,0,1-3.615,6.063Z" transform="translate(-883.674 -909.231)"/>
    <path id="Path_776" data-name="Path 776" d="M1082.34,1173.742a.347.347,0,0,1-.07-.687,7.362,7.362,0,0,0,4.834-3.475.347.347,0,1,1,.619.314,7.963,7.963,0,0,1-5.313,3.841.35.35,0,0,1-.07.007" transform="translate(-922.89 -997.435)"/>
    <path id="Path_777" data-name="Path 777" d="M1462.528,1446.318l30.9,5.423,30.651-5.391a.04.04,0,0,0,0-.078l-31-5.45Z" transform="translate(-1247.468 -1228.954)" fill="#fff"/>
    <path id="Path_778" data-name="Path 778" d="M1491.413,1450.075a.357.357,0,0,1-.06-.005l-30.9-5.423a.347.347,0,0,1,0-.683l30.548-5.5a.346.346,0,0,1,.121,0l31,5.45a.387.387,0,0,1,0,.761l-30.651,5.391a.355.355,0,0,1-.06.005M1462.5,1444.3l28.915,5.075,28.869-5.078-29.219-5.136Z" transform="translate(-1245.455 -1226.942)"/>
    <path id="Path_779" data-name="Path 779" d="M1492.683,1529.469v-46.007l-31.02-5.4v45.88Z" transform="translate(-1246.731 -1260.721)" fill="#fff"/>
    <path id="Path_780" data-name="Path 780" d="M1548.914,1496.785a.338.338,0,0,1-.061-.005l-6.755-1.2a.347.347,0,0,1-.286-.342v-5.086a.347.347,0,0,1,.407-.342l6.755,1.175a.347.347,0,0,1,.287.342v5.113a.347.347,0,0,1-.347.347m-6.408-1.84,6.061,1.079v-4.407l-6.061-1.055Z" transform="translate(-1315.094 -1270.732)"/>
    <path id="Path_781" data-name="Path 781" d="M1490.671,1527.8a.358.358,0,0,1-.061-.005l-31.02-5.523a.347.347,0,0,1-.286-.342v-45.88a.347.347,0,0,1,.406-.342l31.02,5.4a.347.347,0,0,1,.288.342v46.007a.347.347,0,0,1-.347.347M1460,1521.642l30.326,5.4v-45.3L1460,1476.465Z" transform="translate(-1244.718 -1258.708)"/>
    <path id="Path_782" data-name="Path 782" d="M1516.323,1559.537a.35.35,0,0,1-.061-.006l-20.05-3.606a.347.347,0,0,1-.286-.341v-21.912a.347.347,0,0,1,.407-.342l20.05,3.523a.347.347,0,0,1,.287.342v21.994a.347.347,0,0,1-.347.347m-19.7-4.243,19.356,3.481v-21.288l-19.356-3.4Z" transform="translate(-1275.955 -1307.855)"/>
    <path id="Path_783" data-name="Path 783" d="M1536.124,1579.247h-.024a2.563,2.563,0,0,1-1.817-.827,2.871,2.871,0,0,1-.77-1.979v-.467a.672.672,0,0,1,.657-.683.64.64,0,0,1,.47.206.7.7,0,0,1,.187.479v.487a1.461,1.461,0,0,0,.391,1.007,1.265,1.265,0,0,0,.926.41h.008a1.265,1.265,0,0,0,.912-.409,1.461,1.461,0,0,0,.391-1.007l0-13.7a.7.7,0,0,1,.224-.514.642.642,0,0,1,.5-.166.689.689,0,0,1,.591.7v13.659a2.872,2.872,0,0,1-.771,1.978,2.563,2.563,0,0,1-1.825.826h-.053" transform="translate(-1308.015 -1332.384)" fill="#002069"/>
    <path id="Path_784" data-name="Path 784" d="M1519.581,1584.337a.718.718,0,0,1-.568-.889c.932-3.583,4.073-4.693,7.421-4.111a8.262,8.262,0,0,1,6.47,6.26.716.716,0,0,1-.8.894Z" transform="translate(-1295.627 -1346.976)" fill="#002069"/>
    <path id="Path_785" data-name="Path 785" d="M1672.615,1529.429v-46.007l30.75-5.4v45.914Z" transform="translate(-1426.663 -1260.681)" fill="#fff"/>
    <path id="Path_786" data-name="Path 786" d="M1670.6,1527.763a.347.347,0,0,1-.347-.347v-46.007a.347.347,0,0,1,.287-.342l30.751-5.4a.347.347,0,0,1,.407.342v45.914a.347.347,0,0,1-.286.342l-30.75,5.5a.347.347,0,0,1-.061.005m.347-46.062V1527l30.057-5.373v-45.21Z" transform="translate(-1424.651 -1258.668)"/>
    <path id="Path_787" data-name="Path 787" d="M1743.446,1646.975v3.384l-15.174,2.6v-3.309Z" transform="translate(-1474.135 -1404.793)" fill="#002069"/>
    <path id="Path_788" data-name="Path 788" d="M1733.25,1570.375l3.132-4.52,3.115,3.416-1.6.281v8.017l-3.03.518v-8Z" transform="translate(-1478.381 -1335.601)" fill="#002069"/>
    <path id="Path_789" data-name="Path 789" d="M1784,1561.792l3.132-4.52,3.115,3.416-1.6.281v8.018l-3.03.518v-8Z" transform="translate(-1521.669 -1328.281)" fill="#002069"/>
    <path id="Path_790" data-name="Path 790" d="M1709.679,1559.537a.347.347,0,0,1-.347-.347V1537.2a.347.347,0,0,1,.287-.342l20.05-3.523a.347.347,0,0,1,.407.342v21.912a.347.347,0,0,1-.286.341l-20.05,3.606a.336.336,0,0,1-.061.006m.347-22.05v21.288l19.356-3.481v-21.208Z" transform="translate(-1457.981 -1307.855)"/>
    <path id="Path_791" data-name="Path 791" d="M1567.661,1264.985l18.642,3.272,18.434-3.242a.034.034,0,0,0,0-.068l-18.646-3.278Z" transform="translate(-1337.142 -1076.146)" fill="#fff"/>
    <path id="Path_792" data-name="Path 792" d="M1584.291,1266.592a.366.366,0,0,1-.06-.005l-18.642-3.272a.347.347,0,0,1,0-.683l18.431-3.316a.349.349,0,0,1,.121,0l18.646,3.278a.381.381,0,0,1,0,.751l-18.435,3.243a.364.364,0,0,1-.06.005m-16.659-3.623,16.659,2.924,16.623-2.924-16.834-2.959Z" transform="translate(-1335.13 -1074.133)"/>
    <path id="Path_793" data-name="Path 793" d="M1585.855,1315.153V1287.4l-18.715-3.256v27.681Z" transform="translate(-1336.698 -1095.311)" fill="#fff"/>
    <path id="Path_794" data-name="Path 794" d="M1615.426,1295.3a.341.341,0,0,1-.061-.005l-4.73-.842a.347.347,0,0,1-.286-.342v-3.561a.347.347,0,0,1,.407-.342l4.73.823a.347.347,0,0,1,.287.342v3.58a.347.347,0,0,1-.347.347m-4.383-1.48,4.036.719v-2.874l-4.036-.7Z" transform="translate(-1373.553 -1100.483)"/>
    <path id="Path_795" data-name="Path 795" d="M1583.841,1313.488a.345.345,0,0,1-.061-.005l-18.715-3.333a.347.347,0,0,1-.286-.342v-27.682a.347.347,0,0,1,.407-.342l18.716,3.256a.347.347,0,0,1,.287.342v27.757a.347.347,0,0,1-.347.347m-18.368-3.97,18.021,3.209v-27.051l-18.021-3.135Z" transform="translate(-1334.684 -1093.299)"/>
    <path id="Path_796" data-name="Path 796" d="M1694.415,1315.129v-27.758l18.553-3.26v27.7Z" transform="translate(-1445.257 -1095.287)" fill="#fff"/>
    <path id="Path_797" data-name="Path 797" d="M1692.4,1313.463a.347.347,0,0,1-.347-.347v-27.758a.347.347,0,0,1,.287-.342l18.553-3.26a.348.348,0,0,1,.407.342v27.7a.348.348,0,0,1-.286.342l-18.553,3.316a.367.367,0,0,1-.061.005m.347-27.813V1312.7l17.859-3.192v-27Z" transform="translate(-1443.244 -1093.274)"/>
    <path id="Path_798" data-name="Path 798" d="M1465.874,762.192a11.811,11.811,0,0,1-8.039,14.3,11.127,11.127,0,0,1-13.763-8.175,11.811,11.811,0,0,1,8.04-14.3,11.126,11.126,0,0,1,13.763,8.175" transform="translate(-1231.408 -642.788)" fill="#fff"/>
    <path id="Path_799" data-name="Path 799" d="M1452.837,775.237a11.2,11.2,0,0,1-5.619-1.517,11.708,11.708,0,0,1-5.5-7.334,12.3,12.3,0,0,1-.33-4.194.347.347,0,0,1,.691.065,11.619,11.619,0,0,0,.311,3.958,11.021,11.021,0,0,0,5.172,6.9,10.507,10.507,0,0,0,8.161,1.023,11.476,11.476,0,0,0,7.8-13.885,11.021,11.021,0,0,0-5.172-6.9,10.506,10.506,0,0,0-8.161-1.022,11.078,11.078,0,0,0-6.385,4.829.347.347,0,1,1-.588-.368,11.769,11.769,0,0,1,6.786-5.129,11.2,11.2,0,0,1,8.7,1.09,11.708,11.708,0,0,1,5.5,7.334,12.173,12.173,0,0,1-8.282,14.724,11.365,11.365,0,0,1-3.077.427" transform="translate(-1229.394 -640.768)"/>
    <path id="Path_800" data-name="Path 800" d="M1498.62,799.084l-.4-1.559a6.412,6.412,0,0,1-2.886.055l-.012-2.055a5.627,5.627,0,0,0,2.827-.021c.907-.255,1.436-.791,1.269-1.447-.159-.624-.769-.874-2.051-.953-1.854-.112-3.225-.606-3.63-2.2a3.2,3.2,0,0,1,1.947-3.678l-.4-1.559,1.56-.439.368,1.445a5.74,5.74,0,0,1,2.446-.107l.011,1.985a5.287,5.287,0,0,0-2.435.086c-1.035.291-1.252.844-1.135,1.3.138.542.783.73,2.27.875,2.07.157,3.064.845,3.44,2.322a3.315,3.315,0,0,1-2.06,3.833l.426,1.674Z" transform="translate(-1274.009 -669.764)" fill="#0179fe"/>
    <path id="Path_801" data-name="Path 801" d="M1658.257,602.887a14.652,14.652,0,0,1-9.607,17.944,13.8,13.8,0,0,1-17.275-9.787,14.652,14.652,0,0,1,9.608-17.944,13.8,13.8,0,0,1,17.275,9.787" transform="translate(-1391.026 -505.382)" fill="#fff"/>
    <path id="Path_802" data-name="Path 802" d="M1642.672,619.746a13.82,13.82,0,0,1-6.682-1.731,14.439,14.439,0,0,1-6.962-8.9,15.178,15.178,0,0,1-.511-5.164.347.347,0,0,1,.692.051,14.5,14.5,0,0,0,.489,4.929,13.748,13.748,0,0,0,6.628,8.481,13.113,13.113,0,0,0,10.212,1.067,14.32,14.32,0,0,0,9.374-17.52,13.749,13.749,0,0,0-6.628-8.481,13.114,13.114,0,0,0-10.212-1.067,13.825,13.825,0,0,0-7.843,6.188.347.347,0,1,1-.6-.356,14.517,14.517,0,0,1,8.237-6.5,13.8,13.8,0,0,1,10.748,1.123,14.439,14.439,0,0,1,6.962,8.9,15.018,15.018,0,0,1-9.841,18.369,13.983,13.983,0,0,1-4.066.608" transform="translate(-1389.014 -503.357)"/>
    <path id="Path_803" data-name="Path 803" d="M1698.811,649.029l-.532-1.924a7.956,7.956,0,0,1-3.578.142l-.066-2.548a6.981,6.981,0,0,0,3.5-.1c1.119-.34,1.761-1.017,1.537-1.827-.213-.769-.975-1.065-2.568-1.13-2.3-.092-4.015-.669-4.558-2.633-.493-1.782.338-3.548,2.321-4.611l-.532-1.924,1.924-.584.493,1.782a7.122,7.122,0,0,1,3.031-.2l.063,2.461a6.559,6.559,0,0,0-3.017.169c-1.276.387-1.531,1.079-1.375,1.646.185.668.989.885,2.837,1.027,2.571.142,3.821.97,4.325,2.792a4.112,4.112,0,0,1-2.458,4.806l.571,2.065Z" transform="translate(-1443.549 -538.975)" fill="#0179fe"/>
    <path id="Path_804" data-name="Path 804" d="M1630.778,948.667a11.729,11.729,0,0,1-16.068,3.088,11.2,11.2,0,0,1-2.683-15.828,11.729,11.729,0,0,1,16.068-3.088,11.2,11.2,0,0,1,2.683,15.827" transform="translate(-1373.155 -794.009)" fill="#fff"/>
    <path id="Path_805" data-name="Path 805" d="M1619.043,952.03a11.618,11.618,0,0,1-6.555-2,11.277,11.277,0,0,1-4.794-7.376,11.752,11.752,0,0,1,2.023-8.939,12.235,12.235,0,0,1,2.975-2.964.347.347,0,1,1,.4.568,11.536,11.536,0,0,0-2.807,2.8,11.062,11.062,0,0,0-1.907,8.414,10.59,10.59,0,0,0,4.5,6.926,11.393,11.393,0,0,0,15.59-3,11.061,11.061,0,0,0,1.907-8.414,10.589,10.589,0,0,0-4.5-6.926,11.033,11.033,0,0,0-7.8-1.77.347.347,0,0,1-.1-.687,11.729,11.729,0,0,1,8.285,1.883,11.28,11.28,0,0,1,4.794,7.376,11.751,11.751,0,0,1-2.023,8.939,12.259,12.259,0,0,1-9.99,5.175" transform="translate(-1371.127 -791.996)"/>
    <path id="Path_806" data-name="Path 806" d="M1651.731,978.919l.928-1.312a6.456,6.456,0,0,1-1.907-2.175l1.554-1.337a5.665,5.665,0,0,0,1.843,2.152c.781.53,1.53.589,1.921.037.371-.525.168-1.154-.6-2.188-1.113-1.493-1.624-2.862-.676-4.2a3.174,3.174,0,0,1,4.054-.886l.928-1.312,1.342.911-.86,1.215a5.777,5.777,0,0,1,1.663,1.8l-1.5,1.291a5.326,5.326,0,0,0-1.639-1.809c-.89-.6-1.451-.413-1.725-.026-.323.456-.048,1.071.8,2.3,1.219,1.687,1.338,2.893.459,4.136a3.291,3.291,0,0,1-4.245.9l-1,1.409Z" transform="translate(-1408.015 -825.399)" fill="#0179fe"/>
  </g>
</svg>
