<svg xmlns="http://www.w3.org/2000/svg" width="236.815" height="159.184" viewBox="0 0 236.815 159.184">
  <g id="Group_14014" data-name="Group 14014" transform="translate(-75.246 -4780.809)">
    <g id="Group_14015" data-name="Group 14015">
      <g id="Group_384" data-name="Group 384" transform="translate(-254.467 -558.191)">
        <g id="Group_383" data-name="Group 383" transform="translate(502 5339)">
          <circle id="Ellipse_35" data-name="Ellipse 35" cx="5.214" cy="5.214" r="5.214" transform="translate(5.214 5.214)" fill="#c6d8ff"/>
          <g id="Ellipse_36" data-name="Ellipse 36" fill="none" stroke="#c6d8ff" stroke-width="1">
            <circle cx="10.429" cy="10.429" r="10.429" stroke="none"/>
            <circle cx="10.429" cy="10.429" r="9.929" fill="none"/>
          </g>
        </g>
      </g>
      <path id="Polygon_8" data-name="Polygon 8" d="M16.045,8.73a2,2,0,0,1,3.9,0l1.958,8.757a2,2,0,0,0,.617,1.053l6.624,5.937a2,2,0,0,1-1.93,3.4l-8.625-2.69a2,2,0,0,0-1.191,0l-8.625,2.69a2,2,0,0,1-1.93-3.4l6.624-5.937a2,2,0,0,0,.617-1.053Z" transform="translate(93.243 4939.994) rotate(-120)" fill="#c6d8ff"/>
      <path id="Path_3213" data-name="Path 3213" d="M-1645.333,6218.755s143.333-83.422,180-30.088-148-4-61.333-78.667" transform="translate(1772 -1307)" fill="none" stroke="#a7bae3" stroke-width="1" stroke-dasharray="22 17"/>
    </g>
  </g>
</svg>
